<?xml version="1.0" standalone="no"?>
<!DOCTYPE svg PUBLIC "-//W3C//DTD SVG 1.1//EN" "http://www.w3.org/Graphics/SVG/1.1/DTD/svg11.dtd" >
<svg xmlns="http://www.w3.org/2000/svg" xmlns:xlink="http://www.w3.org/1999/xlink" version="1.1">
<metadata>
Created by FontForge 20220308 at Wed Dec 29 17:58:35 2021
 By Shift
Copyright \(C\) 2021 by Sora Sagano.
</metadata>
<defs>
<font id="Nacelle-LightItalic" horiz-adv-x="598" >
  <font-face 
    font-family="Nacelle Light"
    font-weight="300"
    font-style="italic"
    font-stretch="normal"
    units-per-em="1000"
    panose-1="0 0 0 0 0 0 0 0 0 0"
    ascent="770"
    descent="-230"
    x-height="518"
    cap-height="730"
    bbox="-162 -230 1168 976"
    underline-thickness="50"
    underline-position="-125"
    slope="-12"
    stemh="55"
    stemv="72"
    unicode-range="U+0020-FB02"
  />
<missing-glyph horiz-adv-x="500" 
d="M410 770v-1000h-317v1000h317zM167 -161h166v33h-102l70 47h32v33h-166v-33h70l-70 -47v-33zM167 -25h166v113h-166v-113zM167 148h166v113h-100v-56h34v23h33v-47h-100v80h-33v-113zM167 283h166v100h-33v-66h-133v-34zM167 340h100v70h66v33h-166v-33h66v-37h-66v-33z
M167 470h166v34h-66v70h-100v-104zM167 600h166v33h-66v37h66v33h-165v-33h65v-37h-66v-33zM200 8v47h100v-47h-100zM200 504v36h33v-36h-33z" />
    <glyph glyph-name="fi" unicode="fi" horiz-adv-x="482" 
d="M320 744c23 0 38 -1 57 -5l-13 -58c-96 15 -128 -24 -144 -101l-14 -65h113l-12 -61h-114l-96 -454h-72l97 454h-61l13 61h61l14 66c18 84 50 163 171 163zM296 0l110 518h72l-110 -518h-72zM424 668c0 26 21 46 47 46s46 -20 46 -46s-20 -47 -46 -47s-47 21 -47 47z" />
    <glyph glyph-name="fl" unicode="fl" horiz-adv-x="520" 
d="M320 744c23 0 38 -1 57 -5l-13 -58c-96 15 -128 -24 -144 -101l-14 -65h113l-12 -61h-114l-96 -454h-72l97 454h-61l13 61h61l14 66c18 84 50 163 171 163zM317 44c0 19 6 50 17 101l120 585h72l-125 -610c-15 -71 -8 -75 51 -69l-11 -54c-15 -2 -36 -3 -52 -3
c-51 0 -72 15 -72 50z" />
    <glyph glyph-name=".notdef" horiz-adv-x="500" 
d="M410 770v-1000h-317v1000h317zM167 -161h166v33h-102l70 47h32v33h-166v-33h70l-70 -47v-33zM167 -25h166v113h-166v-113zM167 148h166v113h-100v-56h34v23h33v-47h-100v80h-33v-113zM167 283h166v100h-33v-66h-133v-34zM167 340h100v70h66v33h-166v-33h66v-37h-66v-33z
M167 470h166v34h-66v70h-100v-104zM167 600h166v33h-66v37h66v33h-165v-33h65v-37h-66v-33zM200 8v47h100v-47h-100zM200 504v36h33v-36h-33z" />
    <glyph glyph-name="space" unicode=" " horiz-adv-x="205" 
 />
    <glyph glyph-name="space" unicode="&#xa0;" horiz-adv-x="205" 
 />
    <glyph glyph-name="A" unicode="A" horiz-adv-x="681" 
d="M486 730l121 -730h-74l-38 236h-312l-139 -236h-80l434 730h88zM222 303h262l-55 355z" />
    <glyph glyph-name="Aacute" unicode="&#xc1;" horiz-adv-x="681" 
d="M486 730l121 -730h-74l-38 236h-312l-139 -236h-80l434 730h88zM222 303h262l-55 355zM324 785v3l203 148l95 1v-3l-220 -149h-78z" />
    <glyph glyph-name="Abreve" unicode="&#x102;" horiz-adv-x="681" 
d="M486 730l121 -730h-74l-38 236h-312l-139 -236h-80l434 730h88zM222 303h262l-55 355zM345 938h53c-17 -63 -6 -104 66 -104c71 0 102 47 111 104h52c-13 -86 -59 -154 -172 -154c-114 0 -132 68 -110 154z" />
    <glyph glyph-name="Acircumflex" unicode="&#xc2;" horiz-adv-x="681" 
d="M486 730l121 -730h-74l-38 236h-312l-139 -236h-80l434 730h88zM222 303h262l-55 355zM291 787l164 149h61l101 -149h-68l-71 106l-116 -106h-71z" />
    <glyph glyph-name="Adieresis" unicode="&#xc4;" horiz-adv-x="681" 
d="M486 730l121 -730h-74l-38 236h-312l-139 -236h-80l434 730h88zM222 303h262l-55 355zM348 865c0 24 20 44 45 44c24 0 44 -20 44 -44c0 -25 -20 -45 -44 -45c-25 0 -45 20 -45 45zM503 865c0 24 20 44 45 44c24 0 44 -20 44 -44c0 -25 -20 -45 -44 -45
c-25 0 -45 20 -45 45z" />
    <glyph glyph-name="Agrave" unicode="&#xc0;" horiz-adv-x="681" 
d="M486 730l121 -730h-74l-38 236h-312l-139 -236h-80l434 730h88zM222 303h262l-55 355zM350 934v3l92 -1l141 -148l-1 -3h-75z" />
    <glyph glyph-name="Amacron" unicode="&#x100;" horiz-adv-x="681" 
d="M486 730l121 -730h-74l-38 236h-312l-139 -236h-80l434 730h88zM222 303h262l-55 355zM345 837l10 48h240l-10 -48h-240z" />
    <glyph glyph-name="Aogonek" unicode="&#x104;" horiz-adv-x="681" 
d="M486 730l121 -729l1 -1c-66 -19 -117 -70 -117 -117c0 -31 21 -42 49 -42c18 0 34 4 51 11l-7 -42c-25 -10 -48 -14 -71 -14c-49 0 -86 17 -86 72c0 60 48 117 103 150l-35 218h-312l-139 -236h-80l434 730h88zM222 303h262l-55 355z" />
    <glyph glyph-name="Aring" unicode="&#xc5;" horiz-adv-x="681" 
d="M486 730l121 -730h-74l-38 236h-312l-139 -236h-80l434 730h88zM222 303h262l-55 355zM358 854c0 64 61 103 126 103c55 0 95 -29 95 -74c0 -64 -61 -102 -126 -102c-57 0 -95 29 -95 73zM409 859c0 -25 19 -41 49 -41c42 0 69 30 69 60c0 25 -18 42 -49 42
c-41 0 -69 -30 -69 -61z" />
    <glyph glyph-name="Atilde" unicode="&#xc3;" horiz-adv-x="681" 
d="M486 730l121 -730h-74l-38 236h-312l-139 -236h-80l434 730h88zM222 303h262l-55 355zM305 835c38 59 59 77 97 77c20 0 41 -7 74 -24c34 -18 50 -22 61 -22c21 0 31 9 57 45l41 -17c-39 -61 -60 -80 -99 -80c-19 0 -40 8 -73 25c-31 16 -48 21 -62 21
c-21 0 -29 -8 -54 -43z" />
    <glyph glyph-name="AE" unicode="&#xc6;" horiz-adv-x="983" 
d="M1028 730l-14 -66h-432l-10 -262h367l-15 -66h-354l-10 -269h338l-15 -67h-399l9 246h-274l-172 -246h-81l517 730h545zM265 312h231l13 351z" />
    <glyph glyph-name="B" unicode="B" horiz-adv-x="637" 
d="M391 730c111 0 226 -34 226 -166c0 -89 -70 -167 -168 -192c87 -19 128 -73 128 -148c0 -158 -137 -224 -302 -224h-255l154 730h217zM106 67h175c121 0 222 43 222 154c0 84 -69 115 -181 115h-159zM177 402h156c124 0 208 57 208 148c0 81 -68 114 -158 114h-151z" />
    <glyph glyph-name="C" unicode="C" horiz-adv-x="729" 
d="M479 744c185 0 260 -100 255 -225h-75c3 91 -59 158 -183 158c-197 0 -338 -181 -338 -413c0 -143 80 -210 207 -210c125 0 212 67 251 158h75c-52 -137 -165 -226 -330 -226c-182 0 -279 94 -279 272c0 273 168 486 417 486z" />
    <glyph glyph-name="Cacute" unicode="&#x106;" horiz-adv-x="729" 
d="M479 744c185 0 260 -100 255 -225h-75c3 91 -59 158 -183 158c-197 0 -338 -181 -338 -413c0 -143 80 -210 207 -210c125 0 212 67 251 158h75c-52 -137 -165 -226 -330 -226c-182 0 -279 94 -279 272c0 273 168 486 417 486zM364 785v3l203 148l95 1v-3l-220 -149h-78z
" />
    <glyph glyph-name="Ccaron" unicode="&#x10c;" horiz-adv-x="729" 
d="M479 744c185 0 260 -100 255 -225h-75c3 91 -59 158 -183 158c-197 0 -338 -181 -338 -413c0 -143 80 -210 207 -210c125 0 212 67 251 158h75c-52 -137 -165 -226 -330 -226c-182 0 -279 94 -279 272c0 273 168 486 417 486zM366 936h63l72 -110l116 110h69l-163 -149
h-56z" />
    <glyph glyph-name="Ccedilla" unicode="&#xc7;" horiz-adv-x="729" 
d="M479 744c185 0 260 -100 255 -225h-75c3 91 -59 158 -183 158c-197 0 -338 -181 -338 -413c0 -143 80 -210 207 -210c125 0 212 67 251 158h75c-51 -135 -161 -223 -321 -226l-21 -26c56 -7 87 -29 87 -71c0 -58 -58 -93 -134 -93c-18 0 -37 1 -54 6l3 39
c15 -5 30 -6 41 -6c51 0 83 18 83 49c0 28 -30 43 -89 41l1 19l34 44c-156 13 -239 106 -239 270c0 273 168 486 417 486z" />
    <glyph glyph-name="Cdotaccent" unicode="&#x10a;" horiz-adv-x="729" 
d="M479 744c185 0 260 -100 255 -225h-75c3 91 -59 158 -183 158c-197 0 -338 -181 -338 -413c0 -143 80 -210 207 -210c125 0 212 67 251 158h75c-52 -137 -165 -226 -330 -226c-182 0 -279 94 -279 272c0 273 168 486 417 486zM463 863c0 28 24 52 52 52
c26 0 45 -19 45 -43c0 -29 -25 -53 -53 -53c-25 0 -44 19 -44 44z" />
    <glyph glyph-name="D" unicode="D" horiz-adv-x="724" 
d="M415 730c163 0 291 -75 291 -264c0 -266 -157 -466 -435 -466h-251l154 730h241zM108 67h165c231 0 358 168 358 389c0 136 -85 208 -224 208h-173z" />
    <glyph glyph-name="Eth" unicode="&#xd0;" horiz-adv-x="744" 
d="M386 393l-11 -49h-187l-59 -277h165c231 0 358 168 358 389c0 136 -85 208 -224 208h-173l-57 -271h188zM28 344l11 49h85l71 337h241c163 0 291 -75 291 -264c0 -266 -157 -466 -435 -466h-251l73 344h-86z" />
    <glyph glyph-name="Dcaron" unicode="&#x10e;" horiz-adv-x="724" 
d="M415 730c163 0 291 -75 291 -264c0 -266 -157 -466 -435 -466h-251l154 730h241zM108 67h165c231 0 358 168 358 389c0 136 -85 208 -224 208h-173zM331 921h63l72 -110l116 110h69l-163 -149h-56z" />
    <glyph glyph-name="Dcroat" unicode="&#x110;" horiz-adv-x="744" 
d="M386 393l-11 -49h-187l-59 -277h165c231 0 358 168 358 389c0 136 -85 208 -224 208h-173l-57 -271h188zM28 344l11 49h85l71 337h241c163 0 291 -75 291 -264c0 -266 -157 -466 -435 -466h-251l73 344h-86z" />
    <glyph glyph-name="E" unicode="E" 
d="M645 730l-15 -66h-396l-53 -262h373l-15 -66h-372l-55 -269h401l-14 -67h-475l150 730h471z" />
    <glyph glyph-name="Eacute" unicode="&#xc9;" 
d="M645 730l-15 -66h-396l-53 -262h373l-15 -66h-372l-55 -269h401l-14 -67h-475l150 730h471zM308 785v3l203 148l95 1v-3l-220 -149h-78z" />
    <glyph glyph-name="Ecaron" unicode="&#x11a;" 
d="M645 730l-15 -66h-396l-53 -262h373l-15 -66h-372l-55 -269h401l-14 -67h-475l150 730h471zM310 936h63l72 -110l116 110h69l-163 -149h-56z" />
    <glyph glyph-name="Ecircumflex" unicode="&#xca;" 
d="M645 730l-15 -66h-396l-53 -262h373l-15 -66h-372l-55 -269h401l-14 -67h-475l150 730h471zM276 787l164 149h61l101 -149h-68l-71 106l-116 -106h-71z" />
    <glyph glyph-name="Edieresis" unicode="&#xcb;" 
d="M645 730l-15 -66h-396l-53 -262h373l-15 -66h-372l-55 -269h401l-14 -67h-475l150 730h471zM332 865c0 24 20 44 45 44c24 0 44 -20 44 -44c0 -25 -20 -45 -44 -45c-25 0 -45 20 -45 45zM487 865c0 24 20 44 45 44c24 0 44 -20 44 -44c0 -25 -20 -45 -44 -45
c-25 0 -45 20 -45 45z" />
    <glyph glyph-name="Edotaccent" unicode="&#x116;" 
d="M645 730l-15 -66h-396l-53 -262h373l-15 -66h-372l-55 -269h401l-14 -67h-475l150 730h471zM407 863c0 28 24 52 52 52c26 0 45 -19 45 -43c0 -29 -25 -53 -53 -53c-25 0 -44 19 -44 44z" />
    <glyph glyph-name="Egrave" unicode="&#xc8;" 
d="M645 730l-15 -66h-396l-53 -262h373l-15 -66h-372l-55 -269h401l-14 -67h-475l150 730h471zM335 934v3l92 -1l141 -148l-1 -3h-75z" />
    <glyph glyph-name="Emacron" unicode="&#x112;" 
d="M645 730l-15 -66h-396l-53 -262h373l-15 -66h-372l-55 -269h401l-14 -67h-475l150 730h471zM329 837l10 48h240l-10 -48h-240z" />
    <glyph glyph-name="Eogonek" unicode="&#x118;" 
d="M645 730l-15 -66h-396l-53 -262h373l-15 -66h-372l-55 -269h401l-14 -67c-66 -19 -117 -70 -117 -117c0 -31 21 -42 49 -42c18 0 34 4 51 11l-7 -42c-25 -10 -48 -14 -71 -14c-49 0 -86 17 -86 72c0 51 34 99 77 132h-371l150 730h471z" />
    <glyph glyph-name="F" unicode="F" horiz-adv-x="638" 
d="M643 730l-14 -66h-395l-57 -270h373l-14 -66h-373l-69 -328h-74l154 730h469z" />
    <glyph glyph-name="G" unicode="G" horiz-adv-x="766" 
d="M137 263c0 -146 80 -209 204 -209c100 0 245 57 284 243l5 23h-237l15 64h311l-82 -384h-62l26 152c-42 -113 -146 -166 -278 -166c-164 0 -261 93 -261 270c0 278 164 488 412 488c201 0 274 -95 269 -224h-76c4 95 -54 157 -200 157c-195 0 -330 -180 -330 -414z" />
    <glyph glyph-name="Gbreve" unicode="&#x11e;" horiz-adv-x="766" 
d="M137 263c0 -146 80 -209 204 -209c100 0 245 57 284 243l5 23h-237l15 64h311l-82 -384h-62l26 152c-42 -113 -146 -166 -278 -166c-164 0 -261 93 -261 270c0 278 164 488 412 488c201 0 274 -95 269 -224h-76c4 95 -54 157 -200 157c-195 0 -330 -180 -330 -414z
M392 938h53c-17 -63 -6 -104 66 -104c71 0 102 47 111 104h52c-13 -86 -59 -154 -172 -154c-114 0 -132 68 -110 154z" />
    <glyph glyph-name="uni0122" unicode="&#x122;" horiz-adv-x="766" 
d="M137 263c0 -146 80 -209 204 -209c100 0 245 57 284 243l5 23h-237l15 64h311l-82 -384h-62l26 152c-42 -113 -146 -166 -278 -166c-164 0 -261 93 -261 270c0 278 164 488 412 488c201 0 274 -95 269 -224h-76c4 95 -54 157 -200 157c-195 0 -330 -180 -330 -414z
M159 -212l185 152h78l-1 -6l-195 -146h-67z" />
    <glyph glyph-name="Gdotaccent" unicode="&#x120;" horiz-adv-x="766" 
d="M137 263c0 -146 80 -209 204 -209c100 0 245 57 284 243l5 23h-237l15 64h311l-82 -384h-62l26 152c-42 -113 -146 -166 -278 -166c-164 0 -261 93 -261 270c0 278 164 488 412 488c201 0 274 -95 269 -224h-76c4 95 -54 157 -200 157c-195 0 -330 -180 -330 -414z
M469 863c0 28 24 52 52 52c26 0 45 -19 45 -43c0 -29 -25 -53 -53 -53c-25 0 -44 19 -44 44z" />
    <glyph glyph-name="H" unicode="H" horiz-adv-x="705" 
d="M726 730l-150 -730h-74l69 336h-404l-69 -336h-74l150 730h74l-67 -328h404l67 328h74z" />
    <glyph glyph-name="Hbar" unicode="&#x126;" horiz-adv-x="726" 
d="M757 565l-10 -49h-57l-106 -516h-74l69 336h-404l-69 -336h-74l106 516h-50l11 49h49l34 165h74l-34 -165h404l34 165h74l-34 -165h57zM189 402h404l23 114h-404z" />
    <glyph glyph-name="I" unicode="I" horiz-adv-x="227" 
d="M248 730l-150 -730h-74l150 730h74z" />
    <glyph glyph-name="IJ" unicode="&#x132;" horiz-adv-x="791" 
d="M248 730l-150 -730h-74l150 730h74zM241 236h75c-13 -143 38 -182 133 -182c109 0 164 60 191 187l103 489h74l-103 -490c-32 -156 -95 -254 -271 -254c-153 0 -220 77 -202 250z" />
    <glyph glyph-name="Iacute" unicode="&#xcd;" horiz-adv-x="227" 
d="M248 730l-150 -730h-74l150 730h74zM93 785v3l203 148l95 1v-3l-220 -149h-78z" />
    <glyph glyph-name="Icircumflex" unicode="&#xce;" horiz-adv-x="227" 
d="M248 730l-150 -730h-74l150 730h74zM60 787l164 149h61l101 -149h-68l-71 106l-116 -106h-71z" />
    <glyph glyph-name="Idieresis" unicode="&#xcf;" horiz-adv-x="227" 
d="M248 730l-150 -730h-74l150 730h74zM117 865c0 24 20 44 45 44c24 0 44 -20 44 -44c0 -25 -20 -45 -44 -45c-25 0 -45 20 -45 45zM272 865c0 24 20 44 45 44c24 0 44 -20 44 -44c0 -25 -20 -45 -44 -45c-25 0 -45 20 -45 45z" />
    <glyph glyph-name="Idotaccent" unicode="&#x130;" horiz-adv-x="227" 
d="M248 730l-150 -730h-74l150 730h74zM191 863c0 28 24 52 52 52c26 0 45 -19 45 -43c0 -29 -25 -53 -53 -53c-25 0 -44 19 -44 44z" />
    <glyph glyph-name="Igrave" unicode="&#xcc;" horiz-adv-x="227" 
d="M248 730l-150 -730h-74l150 730h74zM119 934v3l92 -1l141 -148l-1 -3h-75z" />
    <glyph glyph-name="Imacron" unicode="&#x12a;" horiz-adv-x="227" 
d="M248 730l-150 -730h-74l150 730h74zM114 837l10 48h240l-10 -48h-240z" />
    <glyph glyph-name="Iogonek" unicode="&#x12e;" horiz-adv-x="227" 
d="M248 730l-150 -730c-66 -19 -117 -70 -117 -117c0 -31 21 -42 49 -42c18 0 34 4 51 11l-7 -42c-25 -10 -48 -14 -71 -14c-49 0 -86 17 -86 72c0 63 53 123 112 154l145 708h74z" />
    <glyph glyph-name="J" unicode="J" horiz-adv-x="580" 
d="M502 240c-32 -156 -95 -254 -271 -254c-153 0 -220 77 -202 250h75c-13 -143 38 -182 133 -182c109 0 164 60 191 187l103 489h74z" />
    <glyph glyph-name="K" unicode="K" horiz-adv-x="651" 
d="M709 730l-335 -308l198 -422h-82l-179 374l-168 -151l-46 -223h-74l151 730h74l-85 -411l447 411h99z" />
    <glyph glyph-name="uni0136" unicode="&#x136;" horiz-adv-x="651" 
d="M709 730l-335 -308l198 -422h-82l-179 374l-168 -151l-46 -223h-74l151 730h74l-85 -411l447 411h99zM94 -212l185 152h78l-1 -6l-195 -146h-67z" />
    <glyph glyph-name="L" unicode="L" horiz-adv-x="569" 
d="M248 730l-136 -663h371l-15 -67h-444l150 730h74z" />
    <glyph glyph-name="Lacute" unicode="&#x139;" horiz-adv-x="569" 
d="M248 730l-136 -663h371l-15 -67h-444l150 730h74zM98 785v3l203 148l95 1v-3l-220 -149h-78z" />
    <glyph glyph-name="Lcaron" unicode="&#x13d;" horiz-adv-x="577" 
d="M527 740l-4 -19l-128 -274h-60l124 293h68zM24 0l150 730h74l-136 -663h371l-15 -67h-444z" />
    <glyph glyph-name="uni013B" unicode="&#x13b;" horiz-adv-x="569" 
d="M248 730l-136 -663h371l-15 -67h-444l150 730h74zM82 -212l185 152h78l-1 -6l-195 -146h-67z" />
    <glyph glyph-name="Ldot" unicode="&#x13f;" horiz-adv-x="569" 
d="M461 396c-23 0 -43 19 -43 43c0 23 20 43 43 43c24 0 43 -20 43 -43c0 -24 -19 -43 -43 -43zM24 0l150 730h74l-136 -663h371l-15 -67h-444z" />
    <glyph glyph-name="Lslash" unicode="&#x141;" horiz-adv-x="603" 
d="M420 503l-15 -66l-207 -113l-52 -257h371l-15 -67h-444l58 281l-106 -56l14 66l105 56l79 383h74l-70 -341z" />
    <glyph glyph-name="M" unicode="M" horiz-adv-x="843" 
d="M864 730l-150 -730h-74l82 407c21 107 33 164 47 223c-40 -73 -85 -152 -127 -223l-239 -407h-68l-71 407c-14 87 -27 159 -35 238l-48 -238l-83 -407h-74l150 730h108c36 -239 68 -430 105 -642c83 149 264 456 367 642h110z" />
    <glyph glyph-name="N" unicode="N" horiz-adv-x="690" 
d="M715 730l-153 -730h-86l-170 421c-29 75 -55 154 -83 232c-14 -89 -36 -196 -54 -282l-77 -371h-72l154 730h83l165 -407c31 -81 62 -161 90 -241c15 86 37 198 55 282l77 366h71z" />
    <glyph glyph-name="Nacute" unicode="&#x143;" horiz-adv-x="690" 
d="M715 730l-153 -730h-86l-170 421c-29 75 -55 154 -83 232c-14 -89 -36 -196 -54 -282l-77 -371h-72l154 730h83l165 -407c31 -81 62 -161 90 -241c15 86 37 198 55 282l77 366h71zM327 785v3l203 148l95 1v-3l-220 -149h-78z" />
    <glyph glyph-name="Ncaron" unicode="&#x147;" horiz-adv-x="690" 
d="M715 730l-153 -730h-86l-170 421c-29 75 -55 154 -83 232c-14 -89 -36 -196 -54 -282l-77 -371h-72l154 730h83l165 -407c31 -81 62 -161 90 -241c15 86 37 198 55 282l77 366h71zM329 936h63l72 -110l116 110h69l-163 -149h-56z" />
    <glyph glyph-name="uni0145" unicode="&#x145;" horiz-adv-x="690" 
d="M715 730l-153 -730h-86l-170 421c-29 75 -55 154 -83 232c-14 -89 -36 -196 -54 -282l-77 -371h-72l154 730h83l165 -407c31 -81 62 -161 90 -241c15 86 37 198 55 282l77 366h71zM114 -212l185 152h78l-1 -6l-195 -146h-67z" />
    <glyph glyph-name="Ntilde" unicode="&#xd1;" horiz-adv-x="690" 
d="M715 730l-153 -730h-86l-170 421c-29 75 -55 154 -83 232c-14 -89 -36 -196 -54 -282l-77 -371h-72l154 730h83l165 -407c31 -81 62 -161 90 -241c15 86 37 198 55 282l77 366h71zM308 835c38 59 59 77 97 77c20 0 41 -7 74 -24c34 -18 50 -22 61 -22c21 0 31 9 57 45
l41 -17c-39 -61 -60 -80 -99 -80c-19 0 -40 8 -73 25c-31 16 -48 21 -62 21c-21 0 -29 -8 -54 -43z" />
    <glyph glyph-name="Eng" unicode="&#x14a;" horiz-adv-x="691" 
d="M550 -56c-22 -104 -66 -159 -211 -153l13 57c72 -5 110 15 127 96l12 56h-15l-169 421c-29 73 -58 149 -86 223c-14 -80 -36 -188 -54 -273l-78 -371h-69l154 730h84l165 -407c31 -78 61 -156 91 -234c15 79 38 190 56 275l76 365l69 1z" />
    <glyph glyph-name="O" unicode="O" horiz-adv-x="772" 
d="M139 276c0 -149 85 -222 219 -222c243 0 320 249 320 399s-83 224 -219 224c-243 0 -320 -246 -320 -401zM65 278c0 189 99 466 393 466c191 0 295 -106 295 -291c0 -184 -99 -467 -392 -467c-192 0 -296 107 -296 292z" />
    <glyph glyph-name="Oacute" unicode="&#xd3;" horiz-adv-x="772" 
d="M139 276c0 -149 85 -222 219 -222c243 0 320 249 320 399s-83 224 -219 224c-243 0 -320 -246 -320 -401zM65 278c0 189 99 466 393 466c191 0 295 -106 295 -291c0 -184 -99 -467 -392 -467c-192 0 -296 107 -296 292zM362 785v3l203 148l95 1v-3l-220 -149h-78z" />
    <glyph glyph-name="Ocircumflex" unicode="&#xd4;" horiz-adv-x="772" 
d="M139 276c0 -149 85 -222 219 -222c243 0 320 249 320 399s-83 224 -219 224c-243 0 -320 -246 -320 -401zM65 278c0 189 99 466 393 466c191 0 295 -106 295 -291c0 -184 -99 -467 -392 -467c-192 0 -296 107 -296 292zM330 787l164 149h61l101 -149h-68l-71 106
l-116 -106h-71z" />
    <glyph glyph-name="Odieresis" unicode="&#xd6;" horiz-adv-x="772" 
d="M139 276c0 -149 85 -222 219 -222c243 0 320 249 320 399s-83 224 -219 224c-243 0 -320 -246 -320 -401zM65 278c0 189 99 466 393 466c191 0 295 -106 295 -291c0 -184 -99 -467 -392 -467c-192 0 -296 107 -296 292zM386 865c0 24 20 44 45 44c24 0 44 -20 44 -44
c0 -25 -20 -45 -44 -45c-25 0 -45 20 -45 45zM541 865c0 24 20 44 45 44c24 0 44 -20 44 -44c0 -25 -20 -45 -44 -45c-25 0 -45 20 -45 45z" />
    <glyph glyph-name="Ograve" unicode="&#xd2;" horiz-adv-x="772" 
d="M139 276c0 -149 85 -222 219 -222c243 0 320 249 320 399s-83 224 -219 224c-243 0 -320 -246 -320 -401zM65 278c0 189 99 466 393 466c191 0 295 -106 295 -291c0 -184 -99 -467 -392 -467c-192 0 -296 107 -296 292zM389 934v3l92 -1l141 -148l-1 -3h-75z" />
    <glyph glyph-name="Ohungarumlaut" unicode="&#x150;" horiz-adv-x="772" 
d="M139 276c0 -149 85 -222 219 -222c243 0 320 249 320 399s-83 224 -219 224c-243 0 -320 -246 -320 -401zM65 278c0 189 99 466 393 466c191 0 295 -106 295 -291c0 -184 -99 -467 -392 -467c-192 0 -296 107 -296 292zM292 779l1 3l185 148l80 1l-2 -3l-198 -149h-66z
M486 779v3l186 148l79 1l-1 -3l-199 -149h-65z" />
    <glyph glyph-name="Omacron" unicode="&#x14c;" horiz-adv-x="772" 
d="M139 276c0 -149 85 -222 219 -222c243 0 320 249 320 399s-83 224 -219 224c-243 0 -320 -246 -320 -401zM65 278c0 189 99 466 393 466c191 0 295 -106 295 -291c0 -184 -99 -467 -392 -467c-192 0 -296 107 -296 292zM383 837l10 48h240l-10 -48h-240z" />
    <glyph glyph-name="Oslash" unicode="&#xd8;" horiz-adv-x="768" 
d="M734 704l42 -42l-58 -50c23 -44 35 -97 35 -159c0 -184 -99 -467 -392 -467c-111 0 -192 36 -241 101l-66 -57l-42 43l77 68c-16 39 -24 85 -24 137c0 189 99 466 393 466c100 0 176 -29 226 -84zM139 276c0 -31 4 -58 11 -83l478 419c-37 43 -95 65 -169 65
c-243 0 -320 -246 -320 -401zM176 136c37 -55 100 -82 182 -82c243 0 320 249 320 399c0 41 -6 77 -18 107z" />
    <glyph glyph-name="Otilde" unicode="&#xd5;" horiz-adv-x="772" 
d="M139 276c0 -149 85 -222 219 -222c243 0 320 249 320 399s-83 224 -219 224c-243 0 -320 -246 -320 -401zM65 278c0 189 99 466 393 466c191 0 295 -106 295 -291c0 -184 -99 -467 -392 -467c-192 0 -296 107 -296 292zM344 835c38 59 59 77 97 77c20 0 41 -7 74 -24
c34 -18 50 -22 61 -22c21 0 31 9 57 45l41 -17c-39 -61 -60 -80 -99 -80c-19 0 -40 8 -73 25c-31 16 -48 21 -62 21c-21 0 -29 -8 -54 -43z" />
    <glyph glyph-name="OE" unicode="&#x152;" horiz-adv-x="1121" 
d="M1168 730l-14 -61h-383l-58 -269h363l-13 -62h-363l-59 -276h394l-14 -62h-467l31 146c-53 -108 -154 -160 -274 -160c-162 0 -248 95 -248 280c0 175 86 478 385 478c133 0 223 -63 229 -167l33 153h458zM138 273c0 -154 74 -219 188 -219c147 0 255 97 299 277l9 44
c41 191 -22 302 -185 302c-248 0 -311 -271 -311 -404z" />
    <glyph glyph-name="P" unicode="P" horiz-adv-x="635" 
d="M390 730c123 0 250 -22 250 -176c0 -178 -146 -246 -311 -246h-168l-63 -308h-74l150 730h216zM175 374h152c141 0 236 47 236 171c0 104 -87 119 -184 119h-145z" />
    <glyph glyph-name="Thorn" unicode="&#xde;" horiz-adv-x="617" 
d="M248 730l-33 -154h151c118 0 230 -37 230 -174c0 -176 -137 -245 -291 -245h-179l-33 -157h-74l155 730h74zM141 224h162c129 0 216 52 216 171c0 85 -72 115 -164 115h-154z" />
    <glyph glyph-name="Q" unicode="Q" horiz-adv-x="773" 
d="M140 279c0 -151 85 -225 221 -225c242 0 318 247 318 397c0 151 -85 226 -222 226c-241 0 -317 -245 -317 -398zM65 280c0 189 100 464 391 464c193 0 297 -107 297 -293c0 -142 -59 -344 -221 -427l75 -138l-73 -33c-74 141 -75 142 -80 142l-8 -1c-22 -4 -45 -7 -69 -8
h-12c-195 0 -300 108 -300 294z" />
    <glyph glyph-name="R" unicode="R" horiz-adv-x="655" 
d="M549 6l-1 -6h-90c-3 45 -4 94 -3 192c0 95 -20 126 -137 126h-156l-67 -318h-75l154 730h220c134 0 246 -31 246 -166c0 -113 -74 -191 -187 -216c55 -19 78 -63 77 -142c-2 -82 0 -140 5 -180zM176 384h154c142 0 235 55 235 165c0 80 -58 115 -180 115h-150z" />
    <glyph glyph-name="Racute" unicode="&#x154;" horiz-adv-x="655" 
d="M549 6l-1 -6h-90c-3 45 -4 94 -3 192c0 95 -20 126 -137 126h-156l-67 -318h-75l154 730h220c134 0 246 -31 246 -166c0 -113 -74 -191 -187 -216c55 -19 78 -63 77 -142c-2 -82 0 -140 5 -180zM176 384h154c142 0 235 55 235 165c0 80 -58 115 -180 115h-150zM296 785v3
l203 148l95 1v-3l-220 -149h-78z" />
    <glyph glyph-name="Rcaron" unicode="&#x158;" horiz-adv-x="655" 
d="M549 6l-1 -6h-90c-3 45 -4 94 -3 192c0 95 -20 126 -137 126h-156l-67 -318h-75l154 730h220c134 0 246 -31 246 -166c0 -113 -74 -191 -187 -216c55 -19 78 -63 77 -142c-2 -82 0 -140 5 -180zM176 384h154c142 0 235 55 235 165c0 80 -58 115 -180 115h-150zM298 936
h63l72 -110l116 110h69l-163 -149h-56z" />
    <glyph glyph-name="uni0156" unicode="&#x156;" horiz-adv-x="655" 
d="M549 6l-1 -6h-90c-3 45 -4 94 -3 192c0 95 -20 126 -137 126h-156l-67 -318h-75l154 730h220c134 0 246 -31 246 -166c0 -113 -74 -191 -187 -216c55 -19 78 -63 77 -142c-2 -82 0 -140 5 -180zM87 -212l185 152h78l-1 -6l-195 -146h-67zM176 384h154
c142 0 235 55 235 165c0 80 -58 115 -180 115h-150z" />
    <glyph glyph-name="S" unicode="S" horiz-adv-x="624" 
d="M387 744c171 0 266 -77 239 -219h-74c23 106 -63 152 -169 152c-116 0 -193 -58 -193 -140c0 -79 60 -109 173 -140c138 -37 214 -87 214 -193c0 -134 -118 -218 -291 -218s-276 72 -261 221h74c-7 -100 58 -153 195 -153c126 0 207 57 207 142c0 76 -54 108 -178 142
c-135 37 -209 84 -209 190c0 128 114 216 273 216z" />
    <glyph glyph-name="Sacute" unicode="&#x15a;" horiz-adv-x="624" 
d="M387 744c171 0 266 -77 239 -219h-74c23 106 -63 152 -169 152c-116 0 -193 -58 -193 -140c0 -79 60 -109 173 -140c138 -37 214 -87 214 -193c0 -134 -118 -218 -291 -218s-276 72 -261 221h74c-7 -100 58 -153 195 -153c126 0 207 57 207 142c0 76 -54 108 -178 142
c-135 37 -209 84 -209 190c0 128 114 216 273 216zM293 770v3l203 148l95 1v-3l-220 -149h-78z" />
    <glyph glyph-name="Scaron" unicode="&#x160;" horiz-adv-x="624" 
d="M387 744c171 0 266 -77 239 -219h-74c23 106 -63 152 -169 152c-116 0 -193 -58 -193 -140c0 -79 60 -109 173 -140c138 -37 214 -87 214 -193c0 -134 -118 -218 -291 -218s-276 72 -261 221h74c-7 -100 58 -153 195 -153c126 0 207 57 207 142c0 76 -54 108 -178 142
c-135 37 -209 84 -209 190c0 128 114 216 273 216zM295 921h63l72 -110l116 110h69l-163 -149h-56z" />
    <glyph glyph-name="Scedilla" unicode="&#x15e;" horiz-adv-x="624" 
d="M387 744c171 0 266 -77 239 -219h-74c23 106 -63 152 -169 152c-116 0 -193 -58 -193 -140c0 -79 60 -109 173 -140c138 -37 214 -87 214 -193c0 -134 -118 -218 -291 -218h-13l-21 -26c56 -7 87 -29 87 -71c0 -58 -58 -93 -134 -93c-18 0 -37 1 -54 6l3 39
c15 -5 30 -6 41 -6c51 0 83 18 83 49c0 28 -30 43 -89 41l1 19l35 45c-136 16 -213 87 -200 218h74c-7 -100 58 -153 195 -153c126 0 207 57 207 142c0 76 -54 108 -178 142c-135 37 -209 84 -209 190c0 128 114 216 273 216z" />
    <glyph glyph-name="uni0218" unicode="&#x218;" horiz-adv-x="624" 
d="M387 744c171 0 266 -77 239 -219h-74c23 106 -63 152 -169 152c-116 0 -193 -58 -193 -140c0 -79 60 -109 173 -140c138 -37 214 -87 214 -193c0 -134 -118 -218 -291 -218s-276 72 -261 221h74c-7 -100 58 -153 195 -153c126 0 207 57 207 142c0 76 -54 108 -178 142
c-135 37 -209 84 -209 190c0 128 114 216 273 216zM88 -212l185 152h78l-1 -6l-195 -146h-67z" />
    <glyph glyph-name="uni1E9E" unicode="&#x1e9e;" horiz-adv-x="689" 
d="M693 730l-10 -48l-240 -238c98 -11 197 -68 197 -199c0 -168 -132 -259 -314 -259c-38 0 -89 7 -132 21l14 68c39 -13 80 -21 125 -21c131 0 231 63 231 188c0 115 -104 153 -223 153l10 49l223 220h-340l-136 -664h-74l150 730h519z" />
    <glyph glyph-name="T" unicode="T" horiz-adv-x="621" 
d="M691 730l-15 -66h-241l-137 -664h-74l137 664h-245l15 66h560z" />
    <glyph glyph-name="Tbar" unicode="&#x166;" horiz-adv-x="621" 
d="M516 356l-10 -48h-144l-64 -308h-74l64 308h-131l11 48h130l63 308h-245l15 66h560l-15 -66h-241l-63 -308h144z" />
    <glyph glyph-name="Tcaron" unicode="&#x164;" horiz-adv-x="621" 
d="M691 730l-15 -66h-241l-137 -664h-74l137 664h-245l15 66h560zM296 936h63l72 -110l116 110h69l-163 -149h-56z" />
    <glyph glyph-name="uni0162" unicode="&#x162;" horiz-adv-x="621" 
d="M691 730l-15 -66h-241l-137 -664h-11l-32 -40c56 -7 87 -29 87 -71c0 -58 -58 -93 -134 -93c-18 0 -37 1 -54 6l3 39c15 -5 30 -6 41 -6c51 0 83 18 83 49c0 28 -30 43 -89 41l1 19l44 56h-13l137 664h-245l15 66h560z" />
    <glyph glyph-name="uni021A" unicode="&#x21a;" horiz-adv-x="621" 
d="M691 730l-15 -66h-241l-137 -664h-74l137 664h-245l15 66h560zM91 -212l185 152h78l-1 -6l-195 -146h-67z" />
    <glyph glyph-name="U" unicode="U" horiz-adv-x="680" 
d="M606 261c-42 -200 -130 -275 -316 -275c-163 0 -223 88 -223 187c0 32 8 86 15 116l93 441h74l-97 -455c-10 -46 -12 -66 -12 -89c0 -67 36 -132 157 -132c148 0 206 67 236 209l100 467h72z" />
    <glyph glyph-name="Uacute" unicode="&#xda;" horiz-adv-x="680" 
d="M606 261c-42 -200 -130 -275 -316 -275c-163 0 -223 88 -223 187c0 32 8 86 15 116l93 441h74l-97 -455c-10 -46 -12 -66 -12 -89c0 -67 36 -132 157 -132c148 0 206 67 236 209l100 467h72zM324 785v3l203 148l95 1v-3l-220 -149h-78z" />
    <glyph glyph-name="Ucircumflex" unicode="&#xdb;" horiz-adv-x="680" 
d="M606 261c-42 -200 -130 -275 -316 -275c-163 0 -223 88 -223 187c0 32 8 86 15 116l93 441h74l-97 -455c-10 -46 -12 -66 -12 -89c0 -67 36 -132 157 -132c148 0 206 67 236 209l100 467h72zM291 787l164 149h61l101 -149h-68l-71 106l-116 -106h-71z" />
    <glyph glyph-name="Udieresis" unicode="&#xdc;" horiz-adv-x="680" 
d="M606 261c-42 -200 -130 -275 -316 -275c-163 0 -223 88 -223 187c0 32 8 86 15 116l93 441h74l-97 -455c-10 -46 -12 -66 -12 -89c0 -67 36 -132 157 -132c148 0 206 67 236 209l100 467h72zM348 865c0 24 20 44 45 44c24 0 44 -20 44 -44c0 -25 -20 -45 -44 -45
c-25 0 -45 20 -45 45zM503 865c0 24 20 44 45 44c24 0 44 -20 44 -44c0 -25 -20 -45 -44 -45c-25 0 -45 20 -45 45z" />
    <glyph glyph-name="Ugrave" unicode="&#xd9;" horiz-adv-x="680" 
d="M606 261c-42 -200 -130 -275 -316 -275c-163 0 -223 88 -223 187c0 32 8 86 15 116l93 441h74l-97 -455c-10 -46 -12 -66 -12 -89c0 -67 36 -132 157 -132c148 0 206 67 236 209l100 467h72zM350 934v3l92 -1l141 -148l-1 -3h-75z" />
    <glyph glyph-name="Uhungarumlaut" unicode="&#x170;" horiz-adv-x="680" 
d="M606 261c-42 -200 -130 -275 -316 -275c-163 0 -223 88 -223 187c0 32 8 86 15 116l93 441h74l-97 -455c-10 -46 -12 -66 -12 -89c0 -67 36 -132 157 -132c148 0 206 67 236 209l100 467h72zM253 779l1 3l185 148l80 1l-2 -3l-198 -149h-66zM447 779v3l186 148l79 1
l-1 -3l-199 -149h-65z" />
    <glyph glyph-name="Umacron" unicode="&#x16a;" horiz-adv-x="680" 
d="M606 261c-42 -200 -130 -275 -316 -275c-163 0 -223 88 -223 187c0 32 8 86 15 116l93 441h74l-97 -455c-10 -46 -12 -66 -12 -89c0 -67 36 -132 157 -132c148 0 206 67 236 209l100 467h72zM345 837l10 48h240l-10 -48h-240z" />
    <glyph glyph-name="Uogonek" unicode="&#x172;" horiz-adv-x="680" 
d="M606 261c-22 -108 -59 -176 -116 -222c-80 -66 -119 -123 -119 -163c0 -26 19 -35 44 -35c15 0 31 4 45 10l-12 -43c-23 -8 -45 -12 -71 -12c-37 0 -71 14 -71 57c0 53 40 105 82 142c-30 -6 -62 -9 -98 -9c-163 0 -224 88 -224 187c0 32 9 86 16 116l93 441h74l-97 -455
c-10 -46 -12 -66 -12 -89c0 -67 36 -132 157 -132c151 0 207 67 237 209l99 467h72z" />
    <glyph glyph-name="Uring" unicode="&#x16e;" horiz-adv-x="680" 
d="M606 261c-42 -200 -130 -275 -316 -275c-163 0 -223 88 -223 187c0 32 8 86 15 116l93 441h74l-97 -455c-10 -46 -12 -66 -12 -89c0 -67 36 -132 157 -132c148 0 206 67 236 209l100 467h72zM358 854c0 64 61 103 126 103c55 0 95 -29 95 -74c0 -64 -61 -102 -126 -102
c-57 0 -95 29 -95 73zM409 859c0 -25 19 -41 49 -41c42 0 69 30 69 60c0 25 -18 42 -49 42c-41 0 -69 -30 -69 -61z" />
    <glyph glyph-name="V" unicode="V" horiz-adv-x="634" 
d="M733 730l-427 -730h-88l-117 730h79l95 -659l376 659h82z" />
    <glyph glyph-name="W" unicode="W" horiz-adv-x="902" 
d="M996 730l-341 -730h-95l-19 366c-4 95 -6 191 -7 287c-42 -93 -86 -190 -134 -286l-182 -367h-91l-19 730h78l5 -336c2 -109 1 -216 -1 -324c48 106 101 216 154 324l162 326h86l17 -326c5 -109 10 -216 12 -325c35 83 99 229 143 325l154 336h78z" />
    <glyph glyph-name="Wacute" unicode="&#x1e82;" horiz-adv-x="902" 
d="M996 730l-341 -730h-95l-19 366c-4 95 -6 191 -7 287c-42 -93 -86 -190 -134 -286l-182 -367h-91l-19 730h78l5 -336c2 -109 1 -216 -1 -324c48 106 101 216 154 324l162 326h86l17 -326c5 -109 10 -216 12 -325c35 83 99 229 143 325l154 336h78zM431 785v3l203 148
l95 1v-3l-220 -149h-78z" />
    <glyph glyph-name="Wcircumflex" unicode="&#x174;" horiz-adv-x="902" 
d="M996 730l-341 -730h-95l-19 366c-4 95 -6 191 -7 287c-42 -93 -86 -190 -134 -286l-182 -367h-91l-19 730h78l5 -336c2 -109 1 -216 -1 -324c48 106 101 216 154 324l162 326h86l17 -326c5 -109 10 -216 12 -325c35 83 99 229 143 325l154 336h78zM398 787l164 149h61
l101 -149h-68l-71 106l-116 -106h-71z" />
    <glyph glyph-name="Wdieresis" unicode="&#x1e84;" horiz-adv-x="902" 
d="M996 730l-341 -730h-95l-19 366c-4 95 -6 191 -7 287c-42 -93 -86 -190 -134 -286l-182 -367h-91l-19 730h78l5 -336c2 -109 1 -216 -1 -324c48 106 101 216 154 324l162 326h86l17 -326c5 -109 10 -216 12 -325c35 83 99 229 143 325l154 336h78zM455 865
c0 24 20 44 45 44c24 0 44 -20 44 -44c0 -25 -20 -45 -44 -45c-25 0 -45 20 -45 45zM610 865c0 24 20 44 45 44c24 0 44 -20 44 -44c0 -25 -20 -45 -44 -45c-25 0 -45 20 -45 45z" />
    <glyph glyph-name="Wgrave" unicode="&#x1e80;" horiz-adv-x="902" 
d="M996 730l-341 -730h-95l-19 366c-4 95 -6 191 -7 287c-42 -93 -86 -190 -134 -286l-182 -367h-91l-19 730h78l5 -336c2 -109 1 -216 -1 -324c48 106 101 216 154 324l162 326h86l17 -326c5 -109 10 -216 12 -325c35 83 99 229 143 325l154 336h78zM457 934v3l92 -1
l141 -148l-1 -3h-75z" />
    <glyph glyph-name="X" unicode="X" horiz-adv-x="658" 
d="M736 730l-337 -367l174 -363h-87l-147 314l-276 -314h-95l340 371l-161 359h85l132 -311l277 311h95z" />
    <glyph glyph-name="Y" unicode="Y" horiz-adv-x="616" 
d="M724 730l-370 -431l-64 -299h-74l64 301l-186 429h82l153 -365l307 365h88z" />
    <glyph glyph-name="Yacute" unicode="&#xdd;" horiz-adv-x="616" 
d="M724 730l-370 -431l-64 -299h-74l64 301l-186 429h82l153 -365l307 365h88zM290 785v3l203 148l95 1v-3l-220 -149h-78z" />
    <glyph glyph-name="Ycircumflex" unicode="&#x176;" horiz-adv-x="616" 
d="M724 730l-370 -431l-64 -299h-74l64 301l-186 429h82l153 -365l307 365h88zM257 787l164 149h61l101 -149h-68l-71 106l-116 -106h-71z" />
    <glyph glyph-name="Ydieresis" unicode="&#x178;" horiz-adv-x="616" 
d="M724 730l-370 -431l-64 -299h-74l64 301l-186 429h82l153 -365l307 365h88zM314 865c0 24 20 44 45 44c24 0 44 -20 44 -44c0 -25 -20 -45 -44 -45c-25 0 -45 20 -45 45zM469 865c0 24 20 44 45 44c24 0 44 -20 44 -44c0 -25 -20 -45 -44 -45c-25 0 -45 20 -45 45z" />
    <glyph glyph-name="Ygrave" unicode="&#x1ef2;" horiz-adv-x="616" 
d="M724 730l-370 -431l-64 -299h-74l64 301l-186 429h82l153 -365l307 365h88zM317 934v3l92 -1l141 -148l-1 -3h-75z" />
    <glyph glyph-name="Z" unicode="Z" horiz-adv-x="659" 
d="M680 730l-11 -52l-552 -611h438l-14 -67h-544l12 50l555 614h-410l14 66h512z" />
    <glyph glyph-name="Zacute" unicode="&#x179;" horiz-adv-x="659" 
d="M680 730l-11 -52l-552 -611h438l-14 -67h-544l12 50l555 614h-410l14 66h512zM310 785v3l203 148l95 1v-3l-220 -149h-78z" />
    <glyph glyph-name="Zcaron" unicode="&#x17d;" horiz-adv-x="659" 
d="M680 730l-11 -52l-552 -611h438l-14 -67h-544l12 50l555 614h-410l14 66h512zM312 936h63l72 -110l116 110h69l-163 -149h-56z" />
    <glyph glyph-name="Zdotaccent" unicode="&#x17b;" horiz-adv-x="659" 
d="M680 730l-11 -52l-552 -611h438l-14 -67h-544l12 50l555 614h-410l14 66h512zM408 863c0 28 24 52 52 52c26 0 45 -19 45 -43c0 -29 -25 -53 -53 -53c-25 0 -44 19 -44 44z" />
    <glyph glyph-name="a" unicode="a" horiz-adv-x="525" 
d="M322 532c123 0 175 -47 175 -124c0 -24 -8 -65 -15 -97l-67 -311h-62l14 92c-31 -69 -107 -106 -193 -106c-88 0 -148 43 -148 128c0 137 135 196 385 189l6 27c5 23 9 43 9 65c0 46 -27 74 -106 74c-81 0 -127 -29 -152 -98h-72c24 94 90 161 226 161zM97 121
c0 -45 33 -72 98 -72c85 0 172 62 192 143l12 53c-175 6 -302 -15 -302 -124z" />
    <glyph glyph-name="aacute" unicode="&#xe1;" horiz-adv-x="525" 
d="M322 532c123 0 175 -47 175 -124c0 -24 -8 -65 -15 -97l-67 -311h-62l14 92c-31 -69 -107 -106 -193 -106c-88 0 -148 43 -148 128c0 137 135 196 385 189l6 27c5 23 9 43 9 65c0 46 -27 74 -106 74c-81 0 -127 -29 -152 -98h-72c24 94 90 161 226 161zM97 121
c0 -45 33 -72 98 -72c85 0 172 62 192 143l12 53c-175 6 -302 -15 -302 -124zM232 603l1 3l199 151l86 1l-2 -4l-213 -151h-71z" />
    <glyph glyph-name="abreve" unicode="&#x103;" horiz-adv-x="525" 
d="M322 532c123 0 175 -47 175 -124c0 -24 -8 -65 -15 -97l-67 -311h-62l14 92c-31 -69 -107 -106 -193 -106c-88 0 -148 43 -148 128c0 137 135 196 385 189l6 27c5 23 9 43 9 65c0 46 -27 74 -106 74c-81 0 -127 -29 -152 -98h-72c24 94 90 161 226 161zM97 121
c0 -45 33 -72 98 -72c85 0 172 62 192 143l12 53c-175 6 -302 -15 -302 -124zM238 757h54c-15 -68 -12 -123 62 -123c73 0 99 55 113 123h53c-18 -96 -59 -167 -176 -167c-107 0 -128 70 -106 167z" />
    <glyph glyph-name="acircumflex" unicode="&#xe2;" horiz-adv-x="525" 
d="M322 532c123 0 175 -47 175 -124c0 -24 -8 -65 -15 -97l-67 -311h-62l14 92c-31 -69 -107 -106 -193 -106c-88 0 -148 43 -148 128c0 137 135 196 385 189l6 27c5 23 9 43 9 65c0 46 -27 74 -106 74c-81 0 -127 -29 -152 -98h-72c24 94 90 161 226 161zM97 121
c0 -45 33 -72 98 -72c85 0 172 62 192 143l12 53c-175 6 -302 -15 -302 -124zM194 602l155 156h60l89 -156h-65l-63 113l-109 -113h-67z" />
    <glyph glyph-name="adieresis" unicode="&#xe4;" horiz-adv-x="525" 
d="M322 532c123 0 175 -47 175 -124c0 -24 -8 -65 -15 -97l-67 -311h-62l14 92c-31 -69 -107 -106 -193 -106c-88 0 -148 43 -148 128c0 137 135 196 385 189l6 27c5 23 9 43 9 65c0 46 -27 74 -106 74c-81 0 -127 -29 -152 -98h-72c24 94 90 161 226 161zM97 121
c0 -45 33 -72 98 -72c85 0 172 62 192 143l12 53c-175 6 -302 -15 -302 -124zM259 668c0 24 19 43 43 43s43 -19 43 -43s-19 -43 -43 -43s-43 19 -43 43zM402 668c0 24 19 43 43 43s43 -19 43 -43s-19 -43 -43 -43s-43 19 -43 43z" />
    <glyph glyph-name="agrave" unicode="&#xe0;" horiz-adv-x="525" 
d="M322 532c123 0 175 -47 175 -124c0 -24 -8 -65 -15 -97l-67 -311h-62l14 92c-31 -69 -107 -106 -193 -106c-88 0 -148 43 -148 128c0 137 135 196 385 189l6 27c5 23 9 43 9 65c0 46 -27 74 -106 74c-81 0 -127 -29 -152 -98h-72c24 94 90 161 226 161zM97 121
c0 -45 33 -72 98 -72c85 0 172 62 192 143l12 53c-175 6 -302 -15 -302 -124zM248 754v4l83 -1l134 -151v-3h-66z" />
    <glyph glyph-name="amacron" unicode="&#x101;" horiz-adv-x="525" 
d="M322 532c123 0 175 -47 175 -124c0 -24 -8 -65 -15 -97l-67 -311h-62l14 92c-31 -69 -107 -106 -193 -106c-88 0 -148 43 -148 128c0 137 135 196 385 189l6 27c5 23 9 43 9 65c0 46 -27 74 -106 74c-81 0 -127 -29 -152 -98h-72c24 94 90 161 226 161zM97 121
c0 -45 33 -72 98 -72c85 0 172 62 192 143l12 53c-175 6 -302 -15 -302 -124zM225 641l11 48h257l-11 -48h-257z" />
    <glyph glyph-name="aogonek" unicode="&#x105;" horiz-adv-x="525" 
d="M322 532c123 0 175 -47 175 -124c0 -24 -8 -65 -15 -97l-67 -311h-1c-66 -30 -115 -83 -115 -124c0 -24 17 -35 44 -35c14 0 30 4 45 10l-13 -42c-25 -9 -47 -13 -70 -13c-38 0 -71 15 -71 56c0 59 51 113 120 153l13 87c-31 -69 -107 -106 -193 -106
c-88 0 -148 43 -148 128c0 137 135 196 385 189l6 27c5 23 9 43 9 65c0 46 -27 74 -106 74c-81 0 -127 -29 -152 -98h-72c24 94 90 161 226 161zM97 121c0 -45 33 -72 98 -72c85 0 172 62 192 143l12 53c-175 6 -302 -15 -302 -124z" />
    <glyph glyph-name="aring" unicode="&#xe5;" horiz-adv-x="525" 
d="M322 532c123 0 175 -47 175 -124c0 -24 -8 -65 -15 -97l-67 -311h-62l14 92c-31 -69 -107 -106 -193 -106c-88 0 -148 43 -148 128c0 137 135 196 385 189l6 27c5 23 9 43 9 65c0 46 -27 74 -106 74c-81 0 -127 -29 -152 -98h-72c24 94 90 161 226 161zM97 121
c0 -45 33 -72 98 -72c85 0 172 62 192 143l12 53c-175 6 -302 -15 -302 -124zM254 673c0 63 62 102 126 102c56 0 95 -28 95 -74c0 -64 -61 -102 -126 -102c-57 0 -95 29 -95 74zM306 677c0 -25 18 -41 49 -41c41 0 69 30 69 61c0 24 -19 41 -49 41c-41 0 -69 -30 -69 -61z
" />
    <glyph glyph-name="atilde" unicode="&#xe3;" horiz-adv-x="525" 
d="M322 532c123 0 175 -47 175 -124c0 -24 -8 -65 -15 -97l-67 -311h-62l14 92c-31 -69 -107 -106 -193 -106c-88 0 -148 43 -148 128c0 137 135 196 385 189l6 27c5 23 9 43 9 65c0 46 -27 74 -106 74c-81 0 -127 -29 -152 -98h-72c24 94 90 161 226 161zM97 121
c0 -45 33 -72 98 -72c85 0 172 62 192 143l12 53c-175 6 -302 -15 -302 -124zM194 638c38 59 59 77 97 77c20 0 42 -7 75 -24c33 -18 49 -22 61 -22c20 0 30 9 56 45l41 -17c-39 -61 -60 -80 -98 -80c-20 0 -41 7 -74 24c-31 17 -48 22 -62 22c-20 0 -29 -8 -54 -43z" />
    <glyph glyph-name="ae" unicode="&#xe6;" horiz-adv-x="908" 
d="M327 532c98 0 151 -33 165 -90c49 60 117 90 205 90c123 0 180 -72 180 -172c0 -44 -8 -82 -20 -118h-379c-27 -140 20 -193 115 -193c76 0 138 37 174 110h71c-44 -110 -135 -173 -251 -173c-106 0 -166 43 -181 126c-38 -74 -128 -126 -217 -126
c-102 0 -164 43 -164 124c0 144 152 189 356 189h40l9 40c16 73 2 130 -109 130c-79 0 -133 -31 -159 -107h-71c26 99 100 170 236 170zM95 119c0 -45 35 -70 102 -70c86 0 183 62 201 143l12 53c-177 3 -315 -16 -315 -126zM492 302h306c4 18 6 35 6 52
c0 86 -51 115 -118 115c-85 0 -156 -42 -194 -167z" />
    <glyph glyph-name="b" unicode="b" horiz-adv-x="581" 
d="M231 730l-64 -303c30 63 108 105 195 105c124 0 182 -73 182 -187c0 -205 -118 -359 -275 -359c-92 0 -167 35 -174 115l-23 -101h-67l154 730h72zM126 235c-29 -141 48 -186 134 -186c125 0 209 127 209 285c0 77 -40 134 -133 134c-94 0 -172 -55 -202 -194z" />
    <glyph glyph-name="c" unicode="c" horiz-adv-x="531" 
d="M341 532c127 0 193 -68 175 -178h-71c11 74 -27 115 -111 115c-133 0 -223 -132 -223 -292c0 -87 47 -128 124 -128c76 0 144 45 170 115h72c-37 -106 -128 -178 -250 -178c-128 0 -191 68 -191 182c0 209 123 364 305 364z" />
    <glyph glyph-name="cacute" unicode="&#x107;" horiz-adv-x="531" 
d="M341 532c127 0 193 -68 175 -178h-71c11 74 -27 115 -111 115c-133 0 -223 -132 -223 -292c0 -87 47 -128 124 -128c76 0 144 45 170 115h72c-37 -106 -128 -178 -250 -178c-128 0 -191 68 -191 182c0 209 123 364 305 364zM231 603l1 3l199 151l86 1l-2 -4l-213 -151
h-71z" />
    <glyph glyph-name="ccaron" unicode="&#x10d;" horiz-adv-x="531" 
d="M341 532c127 0 193 -68 175 -178h-71c11 74 -27 115 -111 115c-133 0 -223 -132 -223 -292c0 -87 47 -128 124 -128c76 0 144 45 170 115h72c-37 -106 -128 -178 -250 -178c-128 0 -191 68 -191 182c0 209 123 364 305 364zM226 756h65l63 -114l110 114h67l-155 -156h-60
z" />
    <glyph glyph-name="ccedilla" unicode="&#xe7;" horiz-adv-x="531" 
d="M341 532c127 0 193 -68 175 -178h-71c11 74 -27 115 -111 115c-133 0 -223 -132 -223 -292c0 -87 47 -128 124 -128c76 0 144 45 170 115h72c-35 -99 -116 -168 -226 -177l-25 -28c51 -7 80 -28 80 -70c0 -55 -56 -93 -142 -93c-19 0 -39 2 -56 7l9 38c15 -5 29 -6 40 -6
c53 0 88 20 88 51c0 26 -28 41 -86 39l3 14l38 48c-110 9 -164 75 -164 181c0 209 123 364 305 364z" />
    <glyph glyph-name="cdotaccent" unicode="&#x10b;" horiz-adv-x="531" 
d="M341 532c127 0 193 -68 175 -178h-71c11 74 -27 115 -111 115c-133 0 -223 -132 -223 -292c0 -87 47 -128 124 -128c76 0 144 45 170 115h72c-37 -106 -128 -178 -250 -178c-128 0 -191 68 -191 182c0 209 123 364 305 364zM309 668c0 26 21 46 47 46s46 -20 46 -46
s-20 -47 -46 -47s-47 21 -47 47z" />
    <glyph glyph-name="d" unicode="d" horiz-adv-x="582" 
d="M619 730l-151 -730h-67l19 100c-28 -67 -106 -114 -200 -114c-121 0 -183 73 -183 187c0 205 119 359 276 359c89 0 165 -38 170 -119l64 317h72zM112 184c0 -77 40 -134 134 -134s171 55 202 194l8 39c28 139 -49 186 -134 186c-125 0 -210 -127 -210 -285z" />
    <glyph glyph-name="eth" unicode="&#xf0;" horiz-adv-x="587" 
d="M299 755c64 -17 115 -42 153 -77l120 46l16 -50l-100 -39c41 -59 59 -139 59 -244c0 -174 -79 -404 -314 -405c-128 -1 -195 77 -195 198c0 197 120 335 292 335c82 0 135 -28 148 -94c-3 69 -23 139 -56 185l-140 -54l-17 50l117 45c-32 24 -71 42 -117 54zM113 187
c0 -83 43 -138 125 -138c148 0 226 143 226 287c0 76 -53 121 -136 121c-129 0 -215 -113 -215 -270z" />
    <glyph glyph-name="dcaron" unicode="&#x10f;" horiz-adv-x="704" 
d="M791 740l-4 -19l-120 -257h-57l116 276h65zM37 173c0 205 119 359 276 359c89 0 165 -38 170 -119l64 317h72l-151 -730h-67l19 100c-28 -67 -106 -114 -200 -114c-121 0 -183 73 -183 187zM112 184c0 -77 40 -134 134 -134s171 55 202 194l8 39c28 139 -49 186 -134 186
c-125 0 -210 -127 -210 -285z" />
    <glyph glyph-name="dcroat" unicode="&#x111;" horiz-adv-x="588" 
d="M651 649l-10 -50h-49l-124 -599h-67l19 100c-28 -67 -106 -114 -200 -114c-121 0 -183 73 -183 187c0 205 119 359 276 359c89 0 165 -38 170 -119l37 186h-155l10 50h156l16 81h72l-17 -81h49zM112 184c0 -77 40 -134 134 -134s171 55 202 194l8 39
c28 139 -49 186 -134 186c-125 0 -210 -127 -210 -285z" />
    <glyph glyph-name="e" unicode="e" horiz-adv-x="544" 
d="M325 532c126 0 185 -79 185 -190c0 -33 -8 -81 -19 -108h-381c-21 -135 29 -185 122 -185c74 0 135 37 169 109h71c-42 -110 -135 -172 -248 -172c-120 0 -188 63 -188 185c0 133 69 361 289 361zM123 294h312c22 125 -35 175 -116 175c-85 0 -162 -53 -196 -175z" />
    <glyph glyph-name="eacute" unicode="&#xe9;" horiz-adv-x="544" 
d="M325 532c126 0 185 -79 185 -190c0 -33 -8 -81 -19 -108h-381c-21 -135 29 -185 122 -185c74 0 135 37 169 109h71c-42 -110 -135 -172 -248 -172c-120 0 -188 63 -188 185c0 133 69 361 289 361zM123 294h312c22 125 -35 175 -116 175c-85 0 -162 -53 -196 -175z
M231 603l1 3l199 151l86 1l-2 -4l-213 -151h-71z" />
    <glyph glyph-name="ecaron" unicode="&#x11b;" horiz-adv-x="544" 
d="M325 532c126 0 185 -79 185 -190c0 -33 -8 -81 -19 -108h-381c-21 -135 29 -185 122 -185c74 0 135 37 169 109h71c-42 -110 -135 -172 -248 -172c-120 0 -188 63 -188 185c0 133 69 361 289 361zM123 294h312c22 125 -35 175 -116 175c-85 0 -162 -53 -196 -175z
M226 756h65l63 -114l110 114h67l-155 -156h-60z" />
    <glyph glyph-name="ecircumflex" unicode="&#xea;" horiz-adv-x="544" 
d="M325 532c126 0 185 -79 185 -190c0 -33 -8 -81 -19 -108h-381c-21 -135 29 -185 122 -185c74 0 135 37 169 109h71c-42 -110 -135 -172 -248 -172c-120 0 -188 63 -188 185c0 133 69 361 289 361zM123 294h312c22 125 -35 175 -116 175c-85 0 -162 -53 -196 -175z
M193 602l155 156h60l89 -156h-65l-63 113l-109 -113h-67z" />
    <glyph glyph-name="edieresis" unicode="&#xeb;" horiz-adv-x="544" 
d="M325 532c126 0 185 -79 185 -190c0 -33 -8 -81 -19 -108h-381c-21 -135 29 -185 122 -185c74 0 135 37 169 109h71c-42 -110 -135 -172 -248 -172c-120 0 -188 63 -188 185c0 133 69 361 289 361zM123 294h312c22 125 -35 175 -116 175c-85 0 -162 -53 -196 -175z
M258 668c0 24 19 43 43 43s43 -19 43 -43s-19 -43 -43 -43s-43 19 -43 43zM401 668c0 24 19 43 43 43s43 -19 43 -43s-19 -43 -43 -43s-43 19 -43 43z" />
    <glyph glyph-name="edotaccent" unicode="&#x117;" horiz-adv-x="544" 
d="M325 532c126 0 185 -79 185 -190c0 -33 -8 -81 -19 -108h-381c-21 -135 29 -185 122 -185c74 0 135 37 169 109h71c-42 -110 -135 -172 -248 -172c-120 0 -188 63 -188 185c0 133 69 361 289 361zM123 294h312c22 125 -35 175 -116 175c-85 0 -162 -53 -196 -175z
M309 668c0 26 21 46 47 46s46 -20 46 -46s-20 -47 -46 -47s-47 21 -47 47z" />
    <glyph glyph-name="egrave" unicode="&#xe8;" horiz-adv-x="544" 
d="M325 532c126 0 185 -79 185 -190c0 -33 -8 -81 -19 -108h-381c-21 -135 29 -185 122 -185c74 0 135 37 169 109h71c-42 -110 -135 -172 -248 -172c-120 0 -188 63 -188 185c0 133 69 361 289 361zM123 294h312c22 125 -35 175 -116 175c-85 0 -162 -53 -196 -175z
M247 754v4l83 -1l134 -151v-3h-66z" />
    <glyph glyph-name="emacron" unicode="&#x113;" horiz-adv-x="544" 
d="M325 532c126 0 185 -79 185 -190c0 -33 -8 -81 -19 -108h-381c-21 -135 29 -185 122 -185c74 0 135 37 169 109h71c-42 -110 -135 -172 -248 -172c-120 0 -188 63 -188 185c0 133 69 361 289 361zM123 294h312c22 125 -35 175 -116 175c-85 0 -162 -53 -196 -175z
M224 641l11 48h257l-11 -48h-257z" />
    <glyph glyph-name="eogonek" unicode="&#x119;" horiz-adv-x="542" 
d="M328 532c122 0 180 -76 180 -194c0 -20 -7 -75 -16 -102h-382c-23 -139 28 -190 121 -190c76 0 138 36 173 112h68c-23 -60 -62 -105 -108 -134c-82 -52 -123 -107 -123 -148c0 -25 19 -35 45 -35c14 0 30 4 45 10l-13 -43c-21 -8 -40 -12 -64 -12c-41 0 -77 16 -77 61
c0 52 42 100 84 132c-12 -2 -24 -3 -37 -3c-119 0 -188 62 -188 183c0 133 68 363 292 363zM121 292h313c24 135 -34 180 -115 180c-86 0 -164 -54 -198 -180z" />
    <glyph glyph-name="f" unicode="f" horiz-adv-x="296" 
d="M320 744c23 0 38 -1 57 -5l-13 -58c-96 15 -128 -24 -144 -101l-14 -65h113l-12 -61h-114l-96 -454h-72l97 454h-61l13 61h61l14 66c18 84 50 163 171 163z" />
    <glyph glyph-name="g" unicode="g" horiz-adv-x="581" 
d="M493 122c-38 -178 -75 -326 -294 -326c-125 0 -207 36 -196 171h72c-6 -90 50 -109 127 -109c124 0 175 69 202 193l16 72c-28 -86 -106 -125 -202 -125c-119 0 -182 69 -182 191c0 193 121 343 286 343c97 0 157 -34 163 -117l24 103h67zM112 198
c0 -86 39 -137 129 -137c91 0 176 48 207 187v1l8 41c29 138 -53 179 -132 179c-117 0 -212 -116 -212 -271z" />
    <glyph glyph-name="gbreve" unicode="&#x11f;" horiz-adv-x="581" 
d="M493 122c-38 -178 -75 -326 -294 -326c-125 0 -207 36 -196 171h72c-6 -90 50 -109 127 -109c124 0 175 69 202 193l16 72c-28 -86 -106 -125 -202 -125c-119 0 -182 69 -182 191c0 193 121 343 286 343c97 0 157 -34 163 -117l24 103h67zM112 198
c0 -86 39 -137 129 -137c91 0 176 48 207 187v1l8 41c29 138 -53 179 -132 179c-117 0 -212 -116 -212 -271zM260 757h54c-15 -68 -12 -123 62 -123c73 0 99 55 113 123h53c-18 -96 -59 -167 -176 -167c-107 0 -128 70 -106 167z" />
    <glyph glyph-name="uni0123" unicode="&#x123;" horiz-adv-x="576" 
d="M493 122c-38 -178 -75 -326 -294 -326c-125 0 -207 36 -196 171h72c-6 -90 50 -109 127 -109c124 0 175 69 202 193l16 72c-28 -86 -106 -125 -202 -125c-119 0 -182 69 -182 191c0 193 121 343 286 343c97 0 157 -34 163 -117l24 103h67zM112 198
c0 -86 39 -137 129 -137c91 0 176 48 207 187v1l8 41c29 138 -53 179 -132 179c-117 0 -212 -116 -212 -271zM257 573v6l161 129h71l-153 -135h-79z" />
    <glyph glyph-name="gdotaccent" unicode="&#x121;" horiz-adv-x="581" 
d="M493 122c-38 -178 -75 -326 -294 -326c-125 0 -207 36 -196 171h72c-6 -90 50 -109 127 -109c124 0 175 69 202 193l16 72c-28 -86 -106 -125 -202 -125c-119 0 -182 69 -182 191c0 193 121 343 286 343c97 0 157 -34 163 -117l24 103h67zM112 198
c0 -86 39 -137 129 -137c91 0 176 48 207 187v1l8 41c29 138 -53 179 -132 179c-117 0 -212 -116 -212 -271zM333 668c0 26 21 46 47 46s46 -20 46 -46s-20 -47 -46 -47s-47 21 -47 47z" />
    <glyph glyph-name="h" unicode="h" horiz-adv-x="540" 
d="M235 730l-65 -301c31 65 100 103 184 103c99 0 157 -41 157 -126c0 -25 -7 -63 -17 -112l-63 -294h-71l65 304c7 37 10 60 10 81c0 52 -28 85 -105 85c-87 0 -163 -56 -189 -176l-63 -294h-72l157 730h72z" />
    <glyph glyph-name="hbar" unicode="&#x127;" horiz-adv-x="546" 
d="M324 649l-11 -50h-100l-37 -170c31 65 100 103 184 103c99 0 157 -41 157 -126c0 -25 -7 -63 -17 -112l-63 -294h-71l65 304c7 37 10 60 10 81c0 52 -28 85 -105 85c-87 0 -163 -56 -189 -176l-63 -294h-72l129 599h-49l11 50h49l17 81h72l-17 -81h100z" />
    <glyph glyph-name="i" unicode="i" horiz-adv-x="190" 
d="M186 518l-110 -518h-72l110 518h72zM132 668c0 26 21 46 47 46s46 -20 46 -46s-20 -47 -46 -47s-47 21 -47 47z" />
    <glyph glyph-name="dotlessi" unicode="&#x131;" horiz-adv-x="190" 
d="M186 518l-110 -518h-72l110 518h72z" />
    <glyph glyph-name="iacute" unicode="&#xed;" horiz-adv-x="190" 
d="M186 518l-110 -518h-72l110 518h72zM53 603l1 3l199 151l86 1l-2 -4l-213 -151h-71z" />
    <glyph glyph-name="icircumflex" unicode="&#xee;" horiz-adv-x="190" 
d="M186 518l-110 -518h-72l110 518h72zM15 602l155 156h60l89 -156h-65l-63 113l-109 -113h-67z" />
    <glyph glyph-name="idieresis" unicode="&#xef;" horiz-adv-x="190" 
d="M186 518l-110 -518h-72l110 518h72zM80 668c0 24 19 43 43 43s43 -19 43 -43s-19 -43 -43 -43s-43 19 -43 43zM223 668c0 24 19 43 43 43s43 -19 43 -43s-19 -43 -43 -43s-43 19 -43 43z" />
    <glyph glyph-name="igrave" unicode="&#xec;" horiz-adv-x="190" 
d="M186 518l-110 -518h-72l110 518h72zM70 754v4l83 -1l134 -151v-3h-66z" />
    <glyph glyph-name="ij" unicode="&#x133;" horiz-adv-x="386" 
d="M186 518l-110 -518h-72l110 518h72zM64 -200l10 49c84 -14 101 13 116 83l124 586h72l-121 -571c-5 -20 -8 -37 -13 -55c-19 -70 -60 -96 -148 -96c-13 0 -27 1 -40 4zM132 668c0 26 21 46 47 46s46 -20 46 -46s-20 -47 -46 -47s-47 21 -47 47zM328 668c0 26 21 46 47 46
s46 -20 46 -46s-20 -47 -46 -47s-47 21 -47 47z" />
    <glyph glyph-name="imacron" unicode="&#x12b;" horiz-adv-x="190" 
d="M186 518l-110 -518h-72l110 518h72zM47 641l11 48h257l-11 -48h-257z" />
    <glyph glyph-name="iogonek" unicode="&#x12f;" horiz-adv-x="190" 
d="M186 518l-110 -518h-1c-66 -30 -115 -83 -115 -124c0 -24 17 -35 44 -35c14 0 30 4 45 10l-13 -42c-25 -9 -47 -13 -70 -13c-38 0 -71 15 -71 56c0 57 47 109 112 148h-3l110 518h72zM132 668c0 26 21 46 47 46s46 -20 46 -46s-20 -47 -46 -47s-47 21 -47 47z" />
    <glyph glyph-name="j" unicode="j" horiz-adv-x="200" 
d="M75 -53c-5 -20 -8 -37 -13 -55c-19 -70 -60 -96 -148 -96c-13 0 -27 1 -40 4l10 49c84 -14 101 13 116 83l124 586h72zM142 668c0 26 21 46 47 46s46 -20 46 -46s-20 -47 -46 -47s-47 21 -47 47z" />
    <glyph glyph-name="uni0237" unicode="&#x237;" horiz-adv-x="200" 
d="M75 -53c-5 -20 -8 -37 -13 -55c-19 -70 -60 -96 -148 -96c-13 0 -27 1 -40 4l10 49c84 -14 101 13 116 83l124 586h72z" />
    <glyph glyph-name="k" unicode="k" horiz-adv-x="501" 
d="M538 518l-244 -206l144 -312h-82l-125 270l-114 -90l-37 -180h-72l151 730h72l-97 -467l311 255h93z" />
    <glyph glyph-name="uni0137" unicode="&#x137;" horiz-adv-x="501" 
d="M538 518l-244 -206l144 -312h-82l-125 270l-114 -90l-37 -180h-72l151 730h72l-97 -467l311 255h93zM62 -190l153 135h79v-6l-161 -129h-71z" />
    <glyph glyph-name="l" unicode="l" horiz-adv-x="227" 
d="M108 120c-15 -71 -8 -75 51 -69l-11 -54c-15 -2 -36 -3 -52 -3c-51 0 -72 15 -72 50c0 19 6 50 17 101l120 585h72z" />
    <glyph glyph-name="lacute" unicode="&#x13a;" horiz-adv-x="227" 
d="M108 120c-15 -71 -8 -75 51 -69l-11 -54c-15 -2 -36 -3 -52 -3c-51 0 -72 15 -72 50c0 19 6 50 17 101l120 585h72zM169 821l1 3l199 151l86 1l-2 -4l-213 -151h-71z" />
    <glyph glyph-name="lcaron" unicode="&#x13e;" horiz-adv-x="316" 
d="M395 740l-4 -19l-120 -257h-57l116 276h65zM24 44c0 19 6 50 17 101l120 585h72l-125 -610c-15 -71 -8 -75 51 -69l-11 -54c-15 -2 -36 -3 -52 -3c-51 0 -72 15 -72 50z" />
    <glyph glyph-name="uni013C" unicode="&#x13c;" horiz-adv-x="227" 
d="M108 120c-15 -71 -8 -75 51 -69l-11 -54c-15 -2 -36 -3 -52 -3c-51 0 -72 15 -72 50c0 19 6 50 17 101l120 585h72zM0 -190l153 135h79v-6l-161 -129h-71z" />
    <glyph glyph-name="ldot" unicode="&#x140;" horiz-adv-x="294" 
d="M263 297c-26 0 -47 20 -47 46s21 47 47 47s46 -21 46 -47s-20 -46 -46 -46zM24 44c0 19 6 50 17 101l120 585h72l-125 -610c-15 -71 -8 -75 51 -69l-11 -54c-15 -2 -36 -3 -52 -3c-51 0 -72 15 -72 50z" />
    <glyph glyph-name="lslash" unicode="&#x142;" horiz-adv-x="288" 
d="M293 441l-15 -65l-80 -55l-41 -201c-15 -71 -8 -75 51 -69l-11 -54c-15 -2 -36 -3 -52 -3c-51 0 -72 15 -72 50c0 19 6 50 17 101l27 132l-83 -57l14 65l82 56l80 389h72l-70 -343z" />
    <glyph glyph-name="m" unicode="m" horiz-adv-x="829" 
d="M341 532c81 0 126 -37 134 -99c39 74 111 99 182 99c95 0 142 -46 142 -122c0 -24 -6 -64 -13 -96l-66 -314h-72l66 310c17 81 21 158 -84 158c-77 0 -144 -54 -169 -168l-63 -300h-72l66 310c17 81 22 157 -83 158c-71 1 -138 -49 -166 -153l-67 -315h-71l109 518h67
l-15 -79c26 58 95 93 175 93z" />
    <glyph glyph-name="n" unicode="n" horiz-adv-x="538" 
d="M181 518l-17 -91c36 66 104 105 188 105c99 0 156 -41 156 -126c0 -25 -6 -63 -17 -112l-62 -294h-72l65 304c8 37 11 60 11 81c0 52 -29 85 -105 85c-86 0 -163 -56 -189 -176l-63 -294h-71l109 518h67z" />
    <glyph glyph-name="nacute" unicode="&#x144;" horiz-adv-x="538" 
d="M181 518l-17 -91c36 66 104 105 188 105c99 0 156 -41 156 -126c0 -25 -6 -63 -17 -112l-62 -294h-72l65 304c8 37 11 60 11 81c0 52 -29 85 -105 85c-86 0 -163 -56 -189 -176l-63 -294h-71l109 518h67zM238 603l1 3l199 151l86 1l-2 -4l-213 -151h-71z" />
    <glyph glyph-name="ncaron" unicode="&#x148;" horiz-adv-x="538" 
d="M181 518l-17 -91c36 66 104 105 188 105c99 0 156 -41 156 -126c0 -25 -6 -63 -17 -112l-62 -294h-72l65 304c8 37 11 60 11 81c0 52 -29 85 -105 85c-86 0 -163 -56 -189 -176l-63 -294h-71l109 518h67zM233 756h65l63 -114l110 114h67l-155 -156h-60z" />
    <glyph glyph-name="uni0146" unicode="&#x146;" horiz-adv-x="538" 
d="M181 518l-17 -91c36 66 104 105 188 105c99 0 156 -41 156 -126c0 -25 -6 -63 -17 -112l-62 -294h-72l65 304c8 37 11 60 11 81c0 52 -29 85 -105 85c-86 0 -163 -56 -189 -176l-63 -294h-71l109 518h67zM86 -190l153 135h79v-6l-161 -129h-71z" />
    <glyph glyph-name="ntilde" unicode="&#xf1;" horiz-adv-x="538" 
d="M181 518l-17 -91c36 66 104 105 188 105c99 0 156 -41 156 -126c0 -25 -6 -63 -17 -112l-62 -294h-72l65 304c8 37 11 60 11 81c0 52 -29 85 -105 85c-86 0 -163 -56 -189 -176l-63 -294h-71l109 518h67zM200 638c38 59 59 77 97 77c20 0 42 -7 75 -24
c33 -18 49 -22 61 -22c20 0 30 9 56 45l41 -17c-39 -61 -60 -80 -98 -80c-20 0 -41 7 -74 24c-31 17 -48 22 -62 22c-20 0 -29 -8 -54 -43z" />
    <glyph glyph-name="eng" unicode="&#x14b;" horiz-adv-x="538" 
d="M418 -49c-25 -116 -73 -163 -207 -160l11 55c87 -2 111 39 126 108l74 350c8 37 11 60 11 81c0 52 -29 85 -105 85c-86 0 -163 -56 -189 -176l-63 -294h-71l109 518h67l-17 -91c36 66 104 105 188 105c99 0 156 -41 156 -126c0 -25 -6 -63 -17 -112z" />
    <glyph glyph-name="o" unicode="o" horiz-adv-x="572" 
d="M112 187c0 -90 49 -138 132 -138c168 0 217 181 217 282c0 88 -49 138 -132 138c-169 0 -217 -181 -217 -282zM39 189c0 137 74 343 291 343c125 0 204 -67 204 -200c0 -136 -72 -346 -292 -346c-122 0 -203 67 -203 203z" />
    <glyph glyph-name="oacute" unicode="&#xf3;" horiz-adv-x="572" 
d="M112 187c0 -90 49 -138 132 -138c168 0 217 181 217 282c0 88 -49 138 -132 138c-169 0 -217 -181 -217 -282zM39 189c0 137 74 343 291 343c125 0 204 -67 204 -200c0 -136 -72 -346 -292 -346c-122 0 -203 67 -203 203zM232 603l1 3l199 151l86 1l-2 -4l-213 -151h-71z
" />
    <glyph glyph-name="ocircumflex" unicode="&#xf4;" horiz-adv-x="572" 
d="M112 187c0 -90 49 -138 132 -138c168 0 217 181 217 282c0 88 -49 138 -132 138c-169 0 -217 -181 -217 -282zM39 189c0 137 74 343 291 343c125 0 204 -67 204 -200c0 -136 -72 -346 -292 -346c-122 0 -203 67 -203 203zM194 602l155 156h60l89 -156h-65l-63 113
l-109 -113h-67z" />
    <glyph glyph-name="odieresis" unicode="&#xf6;" horiz-adv-x="572" 
d="M112 187c0 -90 49 -138 132 -138c168 0 217 181 217 282c0 88 -49 138 -132 138c-169 0 -217 -181 -217 -282zM39 189c0 137 74 343 291 343c125 0 204 -67 204 -200c0 -136 -72 -346 -292 -346c-122 0 -203 67 -203 203zM259 668c0 24 19 43 43 43s43 -19 43 -43
s-19 -43 -43 -43s-43 19 -43 43zM402 668c0 24 19 43 43 43s43 -19 43 -43s-19 -43 -43 -43s-43 19 -43 43z" />
    <glyph glyph-name="ograve" unicode="&#xf2;" horiz-adv-x="572" 
d="M112 187c0 -90 49 -138 132 -138c168 0 217 181 217 282c0 88 -49 138 -132 138c-169 0 -217 -181 -217 -282zM39 189c0 137 74 343 291 343c125 0 204 -67 204 -200c0 -136 -72 -346 -292 -346c-122 0 -203 67 -203 203zM248 754v4l83 -1l134 -151v-3h-66z" />
    <glyph glyph-name="ohungarumlaut" unicode="&#x151;" horiz-adv-x="572" 
d="M112 187c0 -90 49 -138 132 -138c168 0 217 181 217 282c0 88 -49 138 -132 138c-169 0 -217 -181 -217 -282zM39 189c0 137 74 343 291 343c125 0 204 -67 204 -200c0 -136 -72 -346 -292 -346c-122 0 -203 67 -203 203zM150 600l1 4l189 153l76 1l-1 -4l-203 -154h-62z
M336 600l1 4l189 153l76 1l-1 -4l-203 -154h-62z" />
    <glyph glyph-name="omacron" unicode="&#x14d;" horiz-adv-x="572" 
d="M112 187c0 -90 49 -138 132 -138c168 0 217 181 217 282c0 88 -49 138 -132 138c-169 0 -217 -181 -217 -282zM39 189c0 137 74 343 291 343c125 0 204 -67 204 -200c0 -136 -72 -346 -292 -346c-122 0 -203 67 -203 203zM225 641l11 48h257l-11 -48h-257z" />
    <glyph glyph-name="oslash" unicode="&#xf8;" horiz-adv-x="559" 
d="M526 517l35 -36l-51 -47c12 -26 18 -58 18 -95c0 -137 -74 -353 -297 -353c-65 0 -118 19 -152 56l-45 -41l-36 36l52 47c-12 28 -19 60 -19 98c0 138 77 350 298 350c65 0 118 -19 152 -56zM104 183c0 -16 2 -31 5 -45l318 289c-22 27 -57 42 -102 42
c-171 0 -221 -187 -221 -286zM132 90c23 -27 57 -41 102 -41c171 0 222 187 222 286c0 17 -2 32 -5 45z" />
    <glyph glyph-name="otilde" unicode="&#xf5;" horiz-adv-x="572" 
d="M112 187c0 -90 49 -138 132 -138c168 0 217 181 217 282c0 88 -49 138 -132 138c-169 0 -217 -181 -217 -282zM39 189c0 137 74 343 291 343c125 0 204 -67 204 -200c0 -136 -72 -346 -292 -346c-122 0 -203 67 -203 203zM194 638c38 59 59 77 97 77c20 0 42 -7 75 -24
c33 -18 49 -22 61 -22c20 0 30 9 56 45l41 -17c-39 -61 -60 -80 -98 -80c-20 0 -41 7 -74 24c-31 17 -48 22 -62 22c-20 0 -29 -8 -54 -43z" />
    <glyph glyph-name="oe" unicode="&#x153;" horiz-adv-x="959" 
d="M333 469c-171 0 -222 -185 -222 -281c0 -98 54 -139 131 -139c116 0 221 134 221 286c0 87 -58 134 -130 134zM37 183c0 133 74 349 299 349c88 0 158 -45 180 -128c53 86 131 128 229 128c124 0 181 -65 181 -175c0 -26 -6 -89 -18 -124h-388c-21 -133 28 -184 124 -184
c77 0 140 40 173 110h72c-45 -110 -136 -173 -253 -173c-105 0 -165 42 -181 124c-50 -78 -131 -124 -217 -124c-125 0 -201 65 -201 197zM534 294h315c5 21 7 41 7 61c0 85 -52 114 -119 114c-88 0 -165 -43 -203 -175z" />
    <glyph glyph-name="p" unicode="p" horiz-adv-x="581" 
d="M36 -190h-72l150 708h67l-19 -98c30 66 110 112 200 112c124 0 182 -73 182 -187c0 -205 -118 -359 -275 -359c-91 0 -164 36 -171 116zM126 235c-29 -141 48 -186 134 -186c125 0 209 127 209 285c0 77 -40 134 -133 134c-94 0 -172 -55 -202 -194z" />
    <glyph glyph-name="thorn" unicode="&#xfe;" horiz-adv-x="581" 
d="M36 -190h-73l197 920h72l-64 -298c33 60 110 100 194 100c124 0 182 -73 182 -187c0 -205 -118 -359 -275 -359c-91 0 -164 36 -171 116zM126 235c-29 -141 48 -186 134 -186c125 0 209 127 209 285c0 77 -40 134 -133 134c-94 0 -172 -55 -202 -194z" />
    <glyph glyph-name="q" unicode="q" horiz-adv-x="585" 
d="M359 -190l58 283c-31 -63 -106 -107 -197 -107c-121 0 -183 73 -183 187c0 205 119 359 276 359c102 0 167 -50 172 -122l25 108h67l-146 -708h-72zM112 184c0 -77 40 -134 134 -134s171 55 202 194l8 39c28 139 -49 186 -134 186c-125 0 -210 -127 -210 -285z" />
    <glyph glyph-name="r" unicode="r" horiz-adv-x="336" 
d="M329 532c12 0 23 -1 31 -2l-13 -60c-97 10 -175 -45 -211 -186l-60 -284h-72l110 518h67l-19 -102c9 22 19 38 32 53c36 41 90 63 135 63z" />
    <glyph glyph-name="racute" unicode="&#x155;" horiz-adv-x="336" 
d="M329 532c12 0 23 -1 31 -2l-13 -60c-97 10 -175 -45 -211 -186l-60 -284h-72l110 518h67l-19 -102c9 22 19 38 32 53c36 41 90 63 135 63zM124 603l1 3l199 151l86 1l-2 -4l-213 -151h-71z" />
    <glyph glyph-name="rcaron" unicode="&#x159;" horiz-adv-x="336" 
d="M329 532c12 0 23 -1 31 -2l-13 -60c-97 10 -175 -45 -211 -186l-60 -284h-72l110 518h67l-19 -102c9 22 19 38 32 53c36 41 90 63 135 63zM119 756h65l63 -114l110 114h67l-155 -156h-60z" />
    <glyph glyph-name="uni0157" unicode="&#x157;" horiz-adv-x="336" 
d="M329 532c12 0 23 -1 31 -2l-13 -60c-97 10 -175 -45 -211 -186l-60 -284h-72l110 518h67l-19 -102c9 22 19 38 32 53c36 41 90 63 135 63zM-99 -190l153 135h79v-6l-161 -129h-71z" />
    <glyph glyph-name="s" unicode="s" horiz-adv-x="512" 
d="M305 532c132 0 194 -56 175 -166h-67c13 75 -26 106 -117 106c-78 0 -138 -42 -138 -98c0 -50 37 -70 118 -84c114 -21 170 -53 170 -135c0 -100 -91 -169 -228 -169c-141 0 -206 50 -194 168h68c-9 -80 34 -108 133 -108c84 0 149 41 149 101c0 47 -37 65 -135 83
c-100 19 -153 54 -153 136c0 94 91 166 219 166z" />
    <glyph glyph-name="sacute" unicode="&#x15b;" horiz-adv-x="512" 
d="M305 532c132 0 194 -56 175 -166h-67c13 75 -26 106 -117 106c-78 0 -138 -42 -138 -98c0 -50 37 -70 118 -84c114 -21 170 -53 170 -135c0 -100 -91 -169 -228 -169c-141 0 -206 50 -194 168h68c-9 -80 34 -108 133 -108c84 0 149 41 149 101c0 47 -37 65 -135 83
c-100 19 -153 54 -153 136c0 94 91 166 219 166zM215 603l1 3l199 151l86 1l-2 -4l-213 -151h-71z" />
    <glyph glyph-name="scaron" unicode="&#x161;" horiz-adv-x="512" 
d="M305 532c132 0 194 -56 175 -166h-67c13 75 -26 106 -117 106c-78 0 -138 -42 -138 -98c0 -50 37 -70 118 -84c114 -21 170 -53 170 -135c0 -100 -91 -169 -228 -169c-141 0 -206 50 -194 168h68c-9 -80 34 -108 133 -108c84 0 149 41 149 101c0 47 -37 65 -135 83
c-100 19 -153 54 -153 136c0 94 91 166 219 166zM210 756h65l63 -114l110 114h67l-155 -156h-60z" />
    <glyph glyph-name="scedilla" unicode="&#x15f;" horiz-adv-x="512" 
d="M305 532c132 0 194 -56 175 -166h-67c13 75 -26 106 -117 106c-78 0 -138 -42 -138 -98c0 -50 37 -70 118 -84c114 -21 170 -53 170 -135c0 -99 -90 -168 -225 -169l-24 -27c51 -7 80 -28 80 -70c0 -55 -56 -93 -142 -93c-19 0 -39 2 -56 7l9 38c15 -5 29 -6 40 -6
c53 0 88 20 88 51c0 26 -28 41 -86 39l3 14l39 49c-109 10 -159 62 -148 166h68c-9 -80 34 -108 133 -108c84 0 149 41 149 101c0 47 -37 65 -135 83c-100 19 -153 54 -153 136c0 94 91 166 219 166z" />
    <glyph glyph-name="uni0219" unicode="&#x219;" horiz-adv-x="512" 
d="M305 532c132 0 194 -56 175 -166h-67c13 75 -26 106 -117 106c-78 0 -138 -42 -138 -98c0 -50 37 -70 118 -84c114 -21 170 -53 170 -135c0 -100 -91 -169 -228 -169c-141 0 -206 50 -194 168h68c-9 -80 34 -108 133 -108c84 0 149 41 149 101c0 47 -37 65 -135 83
c-100 19 -153 54 -153 136c0 94 91 166 219 166zM69 -190l153 135h79v-6l-161 -129h-71z" />
    <glyph glyph-name="germandbls" unicode="&#xdf;" horiz-adv-x="610" 
d="M384 744c112 0 189 -59 189 -152c0 -60 -26 -102 -82 -138c-48 -32 -75 -55 -75 -86c0 -22 12 -43 42 -77c41 -48 61 -85 61 -130c0 -98 -92 -168 -224 -168c-40 0 -76 3 -116 15l12 65c39 -10 72 -13 102 -13c90 0 151 42 151 102c0 28 -16 57 -54 103
c-35 42 -49 66 -49 101c0 54 44 88 92 118c46 30 66 53 66 102c0 64 -51 93 -122 93c-122 0 -174 -81 -202 -214l-99 -465h-72l101 475c35 161 105 269 279 269z" />
    <glyph glyph-name="t" unicode="t" horiz-adv-x="316" 
d="M137 135c-16 -76 -2 -88 100 -82l-12 -58c-23 -3 -46 -4 -74 -4c-69 0 -95 27 -95 71c0 19 5 52 17 106l60 289h-67l11 58h68l33 160h71l-33 -160h119l-11 -58h-120z" />
    <glyph glyph-name="tbar" unicode="&#x167;" horiz-adv-x="305" 
d="M265 338l-2 -51h-94l-32 -152c-16 -76 -2 -88 100 -82l-12 -58c-23 -3 -46 -4 -74 -4c-69 0 -95 27 -95 71c0 19 5 52 17 106l25 119h-58l2 51h66l25 119h-67l11 58h68l33 160h71l-33 -160h119l-11 -58h-120l-25 -119h86z" />
    <glyph glyph-name="tcaron" unicode="&#x165;" horiz-adv-x="333" 
d="M410 737l-2 -13l-79 -175h-55l76 188h60zM56 62c0 19 5 52 17 106l60 289h-67l11 58h68l33 160h71l-33 -160h119l-11 -58h-120l-67 -322c-16 -76 -2 -88 100 -82l-12 -58c-23 -3 -46 -4 -74 -4c-69 0 -95 27 -95 71z" />
    <glyph glyph-name="uni0163" unicode="&#x163;" horiz-adv-x="316" 
d="M137 135c-16 -76 -2 -88 100 -82l-12 -58c-23 -3 -46 -4 -74 -4h-3l-29 -32c51 -7 80 -28 80 -70c0 -55 -56 -93 -142 -93c-19 0 -39 2 -56 7l9 38c15 -5 29 -6 40 -6c53 0 88 20 88 51c0 26 -28 41 -86 39l3 14l47 58c-33 11 -46 34 -46 65c0 19 5 52 17 106l60 289h-67
l11 58h68l33 160h71l-33 -160h119l-11 -58h-120z" />
    <glyph glyph-name="uni021B" unicode="&#x21b;" horiz-adv-x="316" 
d="M137 135c-16 -76 -2 -88 100 -82l-12 -58c-23 -3 -46 -4 -74 -4c-69 0 -95 27 -95 71c0 19 5 52 17 106l60 289h-67l11 58h68l33 160h71l-33 -160h119l-11 -58h-120zM-9 -190l153 135h79v-6l-161 -129h-71z" />
    <glyph glyph-name="u" unicode="u" horiz-adv-x="546" 
d="M190 -14c-89 0 -148 36 -148 128c0 21 5 58 13 94l66 310h71l-67 -312c-5 -25 -9 -48 -9 -68c0 -55 30 -88 105 -88c85 0 160 51 188 178l62 290h71l-110 -518h-67l17 91c-6 -16 -14 -29 -25 -40c-45 -46 -105 -65 -167 -65z" />
    <glyph glyph-name="uacute" unicode="&#xfa;" horiz-adv-x="546" 
d="M190 -14c-89 0 -148 36 -148 128c0 21 5 58 13 94l66 310h71l-67 -312c-5 -25 -9 -48 -9 -68c0 -55 30 -88 105 -88c85 0 160 51 188 178l62 290h71l-110 -518h-67l17 91c-6 -16 -14 -29 -25 -40c-45 -46 -105 -65 -167 -65zM236 603l1 3l199 151l86 1l-2 -4l-213 -151
h-71z" />
    <glyph glyph-name="ucircumflex" unicode="&#xfb;" horiz-adv-x="546" 
d="M190 -14c-89 0 -148 36 -148 128c0 21 5 58 13 94l66 310h71l-67 -312c-5 -25 -9 -48 -9 -68c0 -55 30 -88 105 -88c85 0 160 51 188 178l62 290h71l-110 -518h-67l17 91c-6 -16 -14 -29 -25 -40c-45 -46 -105 -65 -167 -65zM198 602l155 156h60l89 -156h-65l-63 113
l-109 -113h-67z" />
    <glyph glyph-name="udieresis" unicode="&#xfc;" horiz-adv-x="546" 
d="M190 -14c-89 0 -148 36 -148 128c0 21 5 58 13 94l66 310h71l-67 -312c-5 -25 -9 -48 -9 -68c0 -55 30 -88 105 -88c85 0 160 51 188 178l62 290h71l-110 -518h-67l17 91c-6 -16 -14 -29 -25 -40c-45 -46 -105 -65 -167 -65zM263 668c0 24 19 43 43 43s43 -19 43 -43
s-19 -43 -43 -43s-43 19 -43 43zM406 668c0 24 19 43 43 43s43 -19 43 -43s-19 -43 -43 -43s-43 19 -43 43z" />
    <glyph glyph-name="ugrave" unicode="&#xf9;" horiz-adv-x="546" 
d="M190 -14c-89 0 -148 36 -148 128c0 21 5 58 13 94l66 310h71l-67 -312c-5 -25 -9 -48 -9 -68c0 -55 30 -88 105 -88c85 0 160 51 188 178l62 290h71l-110 -518h-67l17 91c-6 -16 -14 -29 -25 -40c-45 -46 -105 -65 -167 -65zM252 754v4l83 -1l134 -151v-3h-66z" />
    <glyph glyph-name="uhungarumlaut" unicode="&#x171;" horiz-adv-x="546" 
d="M190 -14c-89 0 -148 36 -148 128c0 21 5 58 13 94l66 310h71l-67 -312c-5 -25 -9 -48 -9 -68c0 -55 30 -88 105 -88c85 0 160 51 188 178l62 290h71l-110 -518h-67l17 91c-6 -16 -14 -29 -25 -40c-45 -46 -105 -65 -167 -65zM154 600l1 4l189 153l76 1l-1 -4l-203 -154
h-62zM340 600l1 4l189 153l76 1l-1 -4l-203 -154h-62z" />
    <glyph glyph-name="umacron" unicode="&#x16b;" horiz-adv-x="546" 
d="M190 -14c-89 0 -148 36 -148 128c0 21 5 58 13 94l66 310h71l-67 -312c-5 -25 -9 -48 -9 -68c0 -55 30 -88 105 -88c85 0 160 51 188 178l62 290h71l-110 -518h-67l17 91c-6 -16 -14 -29 -25 -40c-45 -46 -105 -65 -167 -65zM229 641l11 48h257l-11 -48h-257z" />
    <glyph glyph-name="uogonek" unicode="&#x173;" horiz-adv-x="546" 
d="M190 -14c-89 0 -148 36 -148 128c0 21 5 58 13 94l66 310h71l-67 -312c-5 -25 -9 -48 -9 -68c0 -55 30 -88 105 -88c85 0 160 51 188 178l62 290h71l-110 -518h-1c-66 -30 -115 -83 -115 -124c0 -24 17 -35 44 -35c14 0 30 4 45 10l-13 -42c-25 -9 -47 -13 -70 -13
c-38 0 -71 15 -71 56c0 58 48 110 114 150l17 89c-6 -16 -14 -29 -25 -40c-45 -46 -105 -65 -167 -65z" />
    <glyph glyph-name="uring" unicode="&#x16f;" horiz-adv-x="546" 
d="M190 -14c-89 0 -148 36 -148 128c0 21 5 58 13 94l66 310h71l-67 -312c-5 -25 -9 -48 -9 -68c0 -55 30 -88 105 -88c85 0 160 51 188 178l62 290h71l-110 -518h-67l17 91c-6 -16 -14 -29 -25 -40c-45 -46 -105 -65 -167 -65zM258 673c0 63 62 102 126 102
c56 0 95 -28 95 -74c0 -64 -61 -102 -126 -102c-57 0 -95 29 -95 74zM310 677c0 -25 18 -41 49 -41c41 0 69 30 69 61c0 24 -19 41 -49 41c-41 0 -69 -30 -69 -61z" />
    <glyph glyph-name="v" unicode="v" horiz-adv-x="526" 
d="M573 518l-321 -518h-82l-107 518h77l83 -454l268 454h82z" />
    <glyph glyph-name="w" unicode="w" horiz-adv-x="756" 
d="M801 518l-263 -518h-78c-23 156 -41 289 -53 423c-63 -127 -145 -287 -218 -423h-78l-46 518h71c11 -155 22 -302 31 -453c72 143 147 288 226 442h65c19 -153 36 -299 51 -446c71 148 144 302 220 457h72z" />
    <glyph glyph-name="wacute" unicode="&#x1e83;" horiz-adv-x="756" 
d="M801 518l-263 -518h-78c-23 156 -41 289 -53 423c-63 -127 -145 -287 -218 -423h-78l-46 518h71c11 -155 22 -302 31 -453c72 143 147 288 226 442h65c19 -153 36 -299 51 -446c71 148 144 302 220 457h72zM338 603l1 3l199 151l86 1l-2 -4l-213 -151h-71z" />
    <glyph glyph-name="wcircumflex" unicode="&#x175;" horiz-adv-x="756" 
d="M801 518l-263 -518h-78c-23 156 -41 289 -53 423c-63 -127 -145 -287 -218 -423h-78l-46 518h71c11 -155 22 -302 31 -453c72 143 147 288 226 442h65c19 -153 36 -299 51 -446c71 148 144 302 220 457h72zM300 602l155 156h60l89 -156h-65l-63 113l-109 -113h-67z" />
    <glyph glyph-name="wdieresis" unicode="&#x1e85;" horiz-adv-x="756" 
d="M801 518l-263 -518h-78c-23 156 -41 289 -53 423c-63 -127 -145 -287 -218 -423h-78l-46 518h71c11 -155 22 -302 31 -453c72 143 147 288 226 442h65c19 -153 36 -299 51 -446c71 148 144 302 220 457h72zM365 668c0 24 19 43 43 43s43 -19 43 -43s-19 -43 -43 -43
s-43 19 -43 43zM508 668c0 24 19 43 43 43s43 -19 43 -43s-19 -43 -43 -43s-43 19 -43 43z" />
    <glyph glyph-name="wgrave" unicode="&#x1e81;" horiz-adv-x="756" 
d="M801 518l-263 -518h-78c-23 156 -41 289 -53 423c-63 -127 -145 -287 -218 -423h-78l-46 518h71c11 -155 22 -302 31 -453c72 143 147 288 226 442h65c19 -153 36 -299 51 -446c71 148 144 302 220 457h72zM354 754v4l83 -1l134 -151v-3h-66z" />
    <glyph glyph-name="x" unicode="x" horiz-adv-x="501" 
d="M545 518l-250 -265l138 -253h-83l-111 212l-199 -212h-83l249 265l-131 253h79l107 -213l197 213h87z" />
    <glyph glyph-name="y" unicode="y" horiz-adv-x="511" 
d="M242 0c-106 -175 -165 -210 -250 -210c-19 0 -33 1 -46 5l13 61c15 -3 27 -4 43 -4c39 0 85 24 134 102l20 34l-93 530h81l67 -457l264 457h83z" />
    <glyph glyph-name="yacute" unicode="&#xfd;" horiz-adv-x="511" 
d="M242 0c-106 -175 -165 -210 -250 -210c-19 0 -33 1 -46 5l13 61c15 -3 27 -4 43 -4c39 0 85 24 134 102l20 34l-93 530h81l67 -457l264 457h83zM212 603l1 3l199 151l86 1l-2 -4l-213 -151h-71z" />
    <glyph glyph-name="ycircumflex" unicode="&#x177;" horiz-adv-x="511" 
d="M242 0c-106 -175 -165 -210 -250 -210c-19 0 -33 1 -46 5l13 61c15 -3 27 -4 43 -4c39 0 85 24 134 102l20 34l-93 530h81l67 -457l264 457h83zM174 602l155 156h60l89 -156h-65l-63 113l-109 -113h-67z" />
    <glyph glyph-name="ydieresis" unicode="&#xff;" horiz-adv-x="511" 
d="M242 0c-106 -175 -165 -210 -250 -210c-19 0 -33 1 -46 5l13 61c15 -3 27 -4 43 -4c39 0 85 24 134 102l20 34l-93 530h81l67 -457l264 457h83zM239 668c0 24 19 43 43 43s43 -19 43 -43s-19 -43 -43 -43s-43 19 -43 43zM382 668c0 24 19 43 43 43s43 -19 43 -43
s-19 -43 -43 -43s-43 19 -43 43z" />
    <glyph glyph-name="ygrave" unicode="&#x1ef3;" horiz-adv-x="511" 
d="M242 0c-106 -175 -165 -210 -250 -210c-19 0 -33 1 -46 5l13 61c15 -3 27 -4 43 -4c39 0 85 24 134 102l20 34l-93 530h81l67 -457l264 457h83zM228 754v4l83 -1l134 -151v-3h-66z" />
    <glyph glyph-name="z" unicode="z" horiz-adv-x="516" 
d="M511 518l-10 -46l-395 -414h316l-11 -58h-416l9 45l398 415h-297l11 58h395z" />
    <glyph glyph-name="zacute" unicode="&#x17a;" horiz-adv-x="516" 
d="M511 518l-10 -46l-395 -414h316l-11 -58h-416l9 45l398 415h-297l11 58h395zM211 603l1 3l199 151l86 1l-2 -4l-213 -151h-71z" />
    <glyph glyph-name="zcaron" unicode="&#x17e;" horiz-adv-x="516" 
d="M511 518l-10 -46l-395 -414h316l-11 -58h-416l9 45l398 415h-297l11 58h395zM206 756h65l63 -114l110 114h67l-155 -156h-60z" />
    <glyph glyph-name="zdotaccent" unicode="&#x17c;" horiz-adv-x="516" 
d="M511 518l-10 -46l-395 -414h316l-11 -58h-416l9 45l398 415h-297l11 58h395zM290 668c0 26 21 46 47 46s46 -20 46 -46s-20 -47 -46 -47s-47 21 -47 47z" />
    <glyph glyph-name="zero" unicode="0" horiz-adv-x="570" 
d="M568 481c0 -161 -67 -495 -298 -495c-93 0 -222 47 -222 263c0 162 68 495 300 495c87 0 220 -42 220 -263zM123 249c0 -157 77 -195 144 -195c174 0 225 308 225 429c0 148 -70 194 -143 194c-173 0 -226 -304 -226 -428z" />
    <glyph glyph-name="one" unicode="1" horiz-adv-x="570" 
d="M457 730l-150 -730h-74l136 665h-172l5 19l61 46h194z" />
    <glyph glyph-name="two" unicode="2" horiz-adv-x="570" 
d="M375 744c130 0 199 -72 199 -172c0 -147 -142 -259 -283 -363l-191 -142h386l-14 -67h-486l16 75l232 173c166 121 262 206 262 318c0 66 -44 111 -127 111c-108 0 -168 -59 -197 -154h-74c38 137 123 221 277 221z" />
    <glyph glyph-name="three" unicode="3" horiz-adv-x="570" 
d="M380 744c124 0 197 -62 197 -163c0 -107 -88 -182 -192 -207c79 -18 128 -66 128 -148c0 -141 -121 -240 -279 -240c-143 0 -222 59 -206 212h74c-7 -98 31 -144 142 -144s194 68 194 168c0 77 -66 116 -179 116h-35l15 67h34c136 0 226 67 226 167
c0 68 -49 105 -127 105c-93 0 -157 -54 -187 -144h-74c34 132 129 211 269 211z" />
    <glyph glyph-name="four" unicode="4" horiz-adv-x="570" 
d="M474 730h74l-94 -458h99l-15 -66h-98l-42 -206h-74l42 206h-360l15 70zM104 272h276l72 351z" />
    <glyph glyph-name="five" unicode="5" horiz-adv-x="570" 
d="M603 730l-15 -66h-329l-94 -272c42 58 104 82 178 82c112 0 194 -61 194 -197c0 -160 -120 -291 -295 -291c-155 0 -222 66 -207 202h75c-5 -87 28 -134 136 -134c121 0 214 94 214 220c0 96 -62 133 -134 133c-82 0 -139 -31 -183 -93h-73l140 416h393z" />
    <glyph glyph-name="six" unicode="6" horiz-adv-x="571" 
d="M384 744c154 0 209 -80 198 -196h-74c3 86 -37 129 -129 129c-118 0 -227 -118 -253 -336c32 88 125 130 206 130c133 0 205 -78 205 -204c0 -163 -126 -281 -282 -281c-131 0 -214 75 -214 232c0 281 124 526 343 526zM115 208c0 -89 42 -154 144 -154
c111 0 203 81 203 210c0 88 -56 139 -146 139c-116 0 -201 -85 -201 -195z" />
    <glyph glyph-name="seven" unicode="7" horiz-adv-x="570" 
d="M625 657c-181 -174 -344 -396 -475 -657h-84c133 257 287 476 466 664h-399l14 66h494z" />
    <glyph glyph-name="eight" unicode="8" horiz-adv-x="570" 
d="M375 744c133 0 208 -68 208 -168c0 -96 -71 -174 -171 -199c72 -26 120 -89 120 -166c0 -134 -118 -225 -286 -225c-137 0 -235 58 -235 178c0 103 74 186 198 218c-67 25 -98 83 -98 146c0 128 111 216 264 216zM88 178c0 -88 79 -124 167 -124c111 0 202 60 202 158
c0 75 -62 132 -159 132c-117 0 -210 -76 -210 -166zM185 527c0 -78 63 -116 131 -116c106 0 190 65 190 152c0 71 -56 114 -140 114c-100 0 -181 -61 -181 -150z" />
    <glyph glyph-name="nine" unicode="9" horiz-adv-x="570" 
d="M223 -14c-154 0 -209 81 -198 197h74c-3 -87 37 -129 129 -129c118 0 227 118 253 336c-32 -88 -125 -130 -206 -130c-133 0 -205 77 -205 204c0 162 127 280 282 280c131 0 214 -75 214 -232c0 -281 -124 -526 -343 -526zM145 467c0 -89 56 -140 146 -140
c116 0 201 85 201 196c0 88 -42 154 -144 154c-110 0 -203 -82 -203 -210z" />
    <glyph glyph-name="zero.prop" horiz-adv-x="619" 
d="M608 471c0 -154 -70 -485 -318 -485c-97 0 -233 49 -233 274c0 155 71 484 330 484c91 0 221 -44 221 -273zM133 263c0 -170 87 -209 156 -209c190 0 244 296 244 415c0 169 -79 208 -150 208c-196 0 -250 -293 -250 -414z" />
    <glyph glyph-name="one.prop" horiz-adv-x="416" 
d="M372 730l-150 -730h-74l136 665h-172l5 19l61 46h194z" />
    <glyph glyph-name="two.prop" horiz-adv-x="573" 
d="M375 744c130 0 199 -72 199 -172c0 -147 -142 -259 -283 -363l-191 -142h386l-14 -67h-486l16 75l232 173c166 121 262 206 262 318c0 66 -44 111 -127 111c-108 0 -168 -59 -197 -154h-74c38 137 123 221 277 221z" />
    <glyph glyph-name="three.prop" horiz-adv-x="582" 
d="M371 744c124 0 197 -62 197 -163c0 -107 -88 -182 -192 -207c79 -18 128 -66 128 -148c0 -141 -121 -240 -279 -240c-143 0 -222 59 -206 212h74c-7 -98 31 -144 142 -144s194 68 194 168c0 77 -66 116 -179 116h-35l15 67h34c136 0 226 67 226 167
c0 68 -49 105 -127 105c-93 0 -157 -54 -187 -144h-74c34 132 129 211 269 211z" />
    <glyph glyph-name="four.prop" horiz-adv-x="583" 
d="M484 730h74l-94 -458h99l-15 -66h-98l-42 -206h-74l42 206h-360l15 70zM114 272h276l72 351z" />
    <glyph glyph-name="five.prop" horiz-adv-x="570" 
d="M603 730l-15 -66h-329l-94 -272c42 58 104 82 178 82c112 0 194 -61 194 -197c0 -160 -120 -291 -295 -291c-155 0 -222 66 -207 202h75c-5 -87 28 -134 136 -134c121 0 214 94 214 220c0 96 -62 133 -134 133c-82 0 -139 -31 -183 -93h-73l140 416h393z" />
    <glyph glyph-name="six.prop" horiz-adv-x="572" 
d="M384 744c154 0 209 -80 198 -196h-74c3 86 -37 129 -129 129c-118 0 -227 -118 -253 -336c32 88 125 130 206 130c133 0 205 -78 205 -204c0 -163 -126 -281 -282 -281c-131 0 -214 75 -214 232c0 281 124 526 343 526zM115 208c0 -89 42 -154 144 -154
c111 0 203 81 203 210c0 88 -56 139 -146 139c-116 0 -201 -85 -201 -195z" />
    <glyph glyph-name="seven.prop" horiz-adv-x="578" 
d="M610 657c-181 -174 -344 -396 -475 -657h-84c133 257 287 476 466 664h-399l14 66h494z" />
    <glyph glyph-name="eight.prop" horiz-adv-x="608" 
d="M383 744c133 0 208 -68 208 -168c0 -96 -71 -174 -171 -199c72 -26 120 -89 120 -166c0 -134 -118 -225 -286 -225c-137 0 -235 58 -235 178c0 103 74 186 198 218c-67 25 -98 83 -98 146c0 128 111 216 264 216zM96 178c0 -88 79 -124 167 -124c111 0 202 60 202 158
c0 75 -62 132 -159 132c-117 0 -210 -76 -210 -166zM193 527c0 -78 63 -116 131 -116c106 0 190 65 190 152c0 71 -56 114 -140 114c-100 0 -181 -61 -181 -150z" />
    <glyph glyph-name="nine.prop" horiz-adv-x="570" 
d="M223 -14c-154 0 -209 81 -198 197h74c-3 -87 37 -129 129 -129c118 0 227 118 253 336c-32 -88 -125 -130 -206 -130c-133 0 -205 77 -205 204c0 162 127 280 282 280c131 0 214 -75 214 -232c0 -281 -124 -526 -343 -526zM145 467c0 -89 56 -140 146 -140
c116 0 201 85 201 196c0 88 -42 154 -144 154c-110 0 -203 -82 -203 -210z" />
    <glyph glyph-name="five.001" horiz-adv-x="570" 
d="M603 730l-15 -66h-329l-94 -272c42 58 104 82 178 82c112 0 194 -61 194 -197c0 -160 -120 -291 -295 -291c-155 0 -222 66 -207 202h75c-5 -87 28 -134 136 -134c121 0 214 94 214 220c0 96 -62 133 -134 133c-82 0 -139 -31 -183 -93h-73l140 416h393z" />
    <glyph glyph-name="fraction" unicode="&#x2044;" horiz-adv-x="297" 
d="M496 690l-594 -690h-64l594 690h64z" />
    <glyph glyph-name="period" unicode="." horiz-adv-x="195" 
d="M52 -14c-31 0 -56 25 -56 55c0 31 25 55 56 55c30 0 55 -24 55 -55c0 -30 -25 -55 -55 -55z" />
    <glyph glyph-name="comma" unicode="," horiz-adv-x="193" 
d="M112 118l-3 -18l-105 -258h-70l105 276h73z" />
    <glyph glyph-name="colon" unicode=":" horiz-adv-x="195" 
d="M55 9c-31 0 -56 24 -56 55c0 30 25 55 56 55c30 0 55 -25 55 -55c0 -31 -25 -55 -55 -55zM84 455c0 30 24 55 55 55c30 0 55 -25 55 -55c0 -31 -25 -55 -55 -55c-31 0 -55 24 -55 55z" />
    <glyph glyph-name="semicolon" unicode=";" horiz-adv-x="195" 
d="M112 118l-3 -18l-105 -258h-70l105 276h73zM84 455c0 30 24 55 55 55c30 0 55 -25 55 -55c0 -31 -25 -55 -55 -55c-31 0 -55 24 -55 55z" />
    <glyph glyph-name="ellipsis" unicode="&#x2026;" horiz-adv-x="495" 
d="M52 -14c-31 0 -56 25 -56 55c0 31 25 55 56 55c30 0 55 -24 55 -55c0 -30 -25 -55 -55 -55zM146 41c0 31 25 55 56 55c30 0 55 -24 55 -55c0 -30 -25 -55 -55 -55c-31 0 -56 25 -56 55zM296 41c0 31 25 55 56 55c30 0 55 -24 55 -55c0 -30 -25 -55 -55 -55
c-31 0 -56 25 -56 55z" />
    <glyph glyph-name="exclam" unicode="!" horiz-adv-x="251" 
d="M261 730l-122 -550h-64l109 550h77zM32 33c0 26 21 47 47 47s47 -21 47 -47s-21 -47 -47 -47s-47 21 -47 47z" />
    <glyph glyph-name="exclamdown" unicode="&#xa1;" horiz-adv-x="250" 
d="M-11 -200l122 550h64l-109 -550h-77zM124 497c0 26 21 47 47 47s47 -21 47 -47s-21 -47 -47 -47s-47 21 -47 47z" />
    <glyph glyph-name="question" unicode="?" horiz-adv-x="583" 
d="M363 744c127 0 229 -57 229 -184c0 -100 -79 -175 -191 -245c-88 -58 -105 -75 -118 -135h-71c19 87 46 116 148 182c92 61 156 110 156 191c0 85 -70 124 -159 124c-109 0 -173 -57 -199 -150h-71c30 130 116 217 276 217zM188 33c0 26 20 47 46 47s47 -21 47 -47
s-21 -47 -47 -47s-46 21 -46 47z" />
    <glyph glyph-name="questiondown" unicode="&#xbf;" horiz-adv-x="511" 
d="M193 -217c-127 0 -229 57 -229 184c0 100 79 175 191 245c88 58 105 75 118 135h71c-19 -87 -46 -116 -148 -182c-92 -61 -156 -110 -156 -191c0 -85 70 -124 159 -124c109 0 173 57 199 150h71c-30 -130 -116 -217 -276 -217zM275 494c0 26 21 47 47 47s46 -21 46 -47
s-20 -47 -46 -47s-47 21 -47 47z" />
    <glyph glyph-name="periodcentered" unicode="&#xb7;" horiz-adv-x="183" 
d="M102 260c-27 0 -49 22 -49 49s22 49 49 49s49 -22 49 -49s-22 -49 -49 -49z" />
    <glyph glyph-name="bullet" unicode="&#x2022;" horiz-adv-x="261" 
d="M141 253c-31 0 -56 25 -56 56c0 32 25 57 56 57s57 -25 57 -57c0 -31 -26 -56 -57 -56z" />
    <glyph glyph-name="asterisk" unicode="*" horiz-adv-x="564" 
d="M64 309l28 59l170 -64l36 195h62l-45 -196l196 65l13 -58l-204 -56l99 -162l-58 -34l-84 164l-141 -156l-46 38l148 150z" />
    <glyph glyph-name="numbersign" unicode="#" 
d="M586 730l-96 -232h94l-10 -48h-104l-68 -164h107l-10 -48h-117l-98 -238h-56l98 238h-116l-98 -238h-55l98 238h-95l10 48h105l68 164h-108l10 48h118l96 232h55l-96 -232h116l96 232h56zM230 286h116l68 164h-116z" />
    <glyph glyph-name="slash" unicode="/" horiz-adv-x="302" 
d="M417 780l-434 -860h-59l434 860h59z" />
    <glyph glyph-name="backslash" unicode="\" horiz-adv-x="277" 
d="M107 780h53l50 -860h-54z" />
    <glyph glyph-name="colon.case" horiz-adv-x="193" 
d="M70 79c-31 0 -56 24 -56 55c0 30 25 55 56 55c30 0 55 -25 55 -55c0 -31 -25 -55 -55 -55zM99 525c0 30 24 55 55 55c30 0 55 -25 55 -55c0 -31 -25 -55 -55 -55c-31 0 -55 24 -55 55z" />
    <glyph glyph-name="semicolon.case" horiz-adv-x="193" 
d="M127 188l-3 -18l-105 -258h-71l106 276h73zM99 525c0 30 24 55 55 55c30 0 55 -25 55 -55c0 -31 -25 -55 -55 -55c-31 0 -55 24 -55 55z" />
    <glyph glyph-name="hyphen" unicode="-" horiz-adv-x="297" 
d="M277 316l-12 -58h-232l12 58h232z" />
    <glyph glyph-name="endash" unicode="&#x2013;" horiz-adv-x="513" 
d="M450 320l-11 -54h-363l11 54h363z" />
    <glyph glyph-name="emdash" unicode="&#x2014;" horiz-adv-x="1000" 
d="M938 320l-11 -54h-850l11 54h850z" />
    <glyph glyph-name="underscore" unicode="_" horiz-adv-x="500" 
d="M424 -50l-11 -53h-480l11 53h480z" />
    <glyph glyph-name="hyphen.case" horiz-adv-x="297" 
d="M294 397l-12 -58h-232l12 58h232z" />
    <glyph glyph-name="endash.case" horiz-adv-x="513" 
d="M468 398l-13 -59h-363l13 59h363z" />
    <glyph glyph-name="emdash.case" horiz-adv-x="1000" 
d="M955 398l-13 -59h-850l13 59h850z" />
    <glyph glyph-name="parenleft" unicode="(" horiz-adv-x="307" 
d="M108 -150c-29 77 -42 165 -42 252c0 227 93 473 230 648h72c-140 -171 -238 -423 -238 -641c0 -96 16 -185 45 -259h-67z" />
    <glyph glyph-name="parenright" unicode=")" horiz-adv-x="306" 
d="M216 750c29 -77 42 -165 42 -252c0 -227 -92 -473 -229 -648h-72c140 171 237 423 237 641c0 96 -16 185 -45 259h67z" />
    <glyph glyph-name="braceleft" unicode="{" horiz-adv-x="343" 
d="M168 -140c-71 0 -120 23 -120 82c0 32 16 78 41 149c13 35 35 99 35 126c0 31 -17 56 -69 60l10 46c101 7 106 86 116 212c12 154 38 205 171 205h62l-11 -51h-45c-86 0 -110 -23 -120 -151c-9 -125 -17 -215 -106 -239c36 -12 51 -40 51 -73c0 -29 -16 -77 -39 -145
c-20 -58 -33 -96 -33 -122c0 -35 26 -48 79 -48h47l-11 -51h-58z" />
    <glyph glyph-name="braceright" unicode="}" horiz-adv-x="343" 
d="M193 740c71 0 120 -23 120 -82c0 -32 -16 -78 -41 -149c-13 -35 -35 -99 -35 -126c0 -31 17 -56 69 -60l-10 -46c-101 -7 -106 -86 -116 -212c-12 -154 -38 -205 -171 -205h-62l11 51h45c86 0 110 23 120 151c9 125 17 215 106 239c-36 12 -51 40 -51 73
c0 29 16 77 39 145c20 58 33 96 33 122c0 35 -26 48 -79 48h-47l11 51h58z" />
    <glyph glyph-name="bracketleft" unicode="[" horiz-adv-x="338" 
d="M-4 -140l188 880h226l-11 -51h-169l-167 -778h169l-11 -51h-225z" />
    <glyph glyph-name="bracketright" unicode="]" horiz-adv-x="339" 
d="M360 740l-187 -880h-226l11 51h169l166 778h-169l11 51h225z" />
    <glyph glyph-name="parenleft.case" horiz-adv-x="306" 
d="M118 -100c-29 77 -42 165 -42 252c0 227 93 473 230 648h72c-140 -171 -238 -423 -238 -641c0 -96 16 -185 45 -259h-67z" />
    <glyph glyph-name="parenright.case" horiz-adv-x="307" 
d="M227 800c29 -77 42 -165 42 -252c0 -227 -92 -473 -229 -648h-72c140 171 237 423 237 641c0 96 -16 185 -45 259h67z" />
    <glyph glyph-name="braceleft.case" horiz-adv-x="344" 
d="M179 -90c-71 0 -120 23 -120 82c0 32 16 78 41 149c13 35 35 99 35 126c0 31 -17 56 -69 60l10 46c101 7 106 86 116 212c12 154 38 205 171 205h62l-11 -51h-45c-86 0 -110 -23 -120 -151c-9 -125 -17 -215 -106 -239c36 -12 51 -40 51 -73c0 -29 -16 -77 -39 -145
c-20 -58 -33 -96 -33 -122c0 -35 26 -48 79 -48h47l-11 -51h-58z" />
    <glyph glyph-name="braceright.case" horiz-adv-x="343" 
d="M203 790c71 0 120 -23 120 -82c0 -32 -16 -78 -41 -149c-13 -35 -35 -99 -35 -126c0 -31 17 -56 69 -60l-10 -46c-101 -7 -106 -86 -116 -212c-12 -154 -38 -205 -171 -205h-62l11 51h45c86 0 110 23 120 151c9 125 17 215 106 239c-36 12 -51 40 -51 73
c0 29 16 77 39 145c20 58 33 96 33 122c0 35 -26 48 -79 48h-47l11 51h58z" />
    <glyph glyph-name="bracketleft.case" horiz-adv-x="339" 
d="M7 -90l188 880h226l-11 -51h-169l-167 -778h169l-11 -51h-225z" />
    <glyph glyph-name="bracketright.case" horiz-adv-x="339" 
d="M370 790l-187 -880h-226l11 51h169l166 778h-169l11 51h225z" />
    <glyph glyph-name="quotesinglbase" unicode="&#x201a;" horiz-adv-x="193" 
d="M112 118l-3 -18l-105 -258h-70l105 276h73z" />
    <glyph glyph-name="quotedblbase" unicode="&#x201e;" horiz-adv-x="341" 
d="M260 118l-3 -18l-105 -258h-70l105 276h73zM-66 -158l105 276h73l-3 -18l-105 -258h-70z" />
    <glyph glyph-name="quotedblleft" unicode="&#x201c;" horiz-adv-x="329" 
d="M235 450l2 15l109 275h62l-108 -290h-65zM95 450l2 15l109 275h62l-108 -290h-65z" />
    <glyph glyph-name="quotedblright" unicode="&#x201d;" horiz-adv-x="330" 
d="M377 737l-2 -15l-109 -275h-62l108 290h65zM63 447l108 290h65l-2 -15l-109 -275h-62z" />
    <glyph glyph-name="quoteleft" unicode="&#x2018;" horiz-adv-x="189" 
d="M95 450l2 15l109 275h62l-108 -290h-65z" />
    <glyph glyph-name="quoteright" unicode="&#x2019;" horiz-adv-x="189" 
d="M236 737l-2 -15l-109 -275h-62l108 290h65z" />
    <glyph glyph-name="guillemotleft" unicode="&#xab;" horiz-adv-x="577" 
d="M376 53l-104 198l203 214h81l-208 -219l101 -193h-73zM81 259l196 206h80l-200 -210l106 -202h-74z" />
    <glyph glyph-name="guillemotright" unicode="&#xbb;" horiz-adv-x="578" 
d="M202 465l104 -198l-204 -214h-80l208 219l-102 193h74zM220 53l200 210l-106 202h74l108 -206l-196 -206h-80z" />
    <glyph glyph-name="guilsinglleft" unicode="&#x2039;" horiz-adv-x="379" 
d="M189 53l-108 206l196 206h80l-200 -210l106 -202h-74z" />
    <glyph glyph-name="guilsinglright" unicode="&#x203a;" horiz-adv-x="379" 
d="M190 465l108 -206l-196 -206h-80l200 210l-106 202h74z" />
    <glyph glyph-name="quotedbl" unicode="&#x22;" horiz-adv-x="275" 
d="M207 737l-67 -290h-57l56 290h68zM215 447l56 290h68l-67 -290h-57z" />
    <glyph glyph-name="quotesingle" unicode="'" horiz-adv-x="143" 
d="M207 737l-67 -290h-57l56 290h68z" />
    <glyph glyph-name="guillemotleft.case" horiz-adv-x="577" 
d="M391 123l-104 198l203 214h81l-208 -219l101 -193h-73zM96 329l196 206h80l-200 -210l106 -202h-74z" />
    <glyph glyph-name="guillemotright.case" horiz-adv-x="578" 
d="M217 535l104 -198l-204 -214h-80l208 219l-102 193h74zM235 123l200 210l-106 202h74l108 -206l-196 -206h-80z" />
    <glyph glyph-name="guilsinglleft.case" horiz-adv-x="379" 
d="M204 123l-108 206l196 206h80l-200 -210l106 -202h-74z" />
    <glyph glyph-name="guilsinglright.case" horiz-adv-x="379" 
d="M205 535l108 -206l-196 -206h-80l200 210l-106 202h74z" />
    <glyph glyph-name="at" unicode="@" horiz-adv-x="990" 
d="M582 53l17 78c-35 -55 -94 -93 -162 -93c-89 0 -154 46 -154 176c0 178 106 309 247 309c77 0 121 -45 132 -98l19 83h64l-87 -409h18c142 0 235 125 235 313c0 183 -125 284 -312 284c-282 0 -491 -217 -491 -514c0 -206 135 -318 330 -318c105 0 192 21 290 76l-12 -54
c-98 -53 -181 -70 -282 -70c-213 0 -377 121 -377 361c0 326 231 567 546 567c217 0 358 -132 358 -330c0 -220 -119 -361 -296 -361h-83zM356 219c0 -86 40 -118 102 -118c54 0 136 30 164 154l11 50c21 95 -13 155 -99 155c-107 0 -178 -106 -178 -241z" />
    <glyph glyph-name="ampersand" unicode="&#x26;" horiz-adv-x="709" 
d="M204 559c0 104 88 185 202 185c101 0 149 -55 149 -128c0 -97 -80 -162 -195 -216l158 -212c40 48 72 111 92 188h66c-23 -101 -65 -182 -120 -240l101 -136h-92l-62 84c-80 -64 -165 -98 -271 -98c-118 0 -205 58 -205 176c0 117 100 201 229 256c-32 47 -52 90 -52 141
zM106 170c0 -80 61 -117 143 -117c73 0 150 27 216 82l-175 236c-98 -47 -184 -107 -184 -201zM277 561c0 -36 15 -68 49 -115c91 38 154 91 154 158c0 42 -27 76 -82 76c-68 0 -121 -52 -121 -119z" />
    <glyph glyph-name="paragraph" unicode="&#xb6;" horiz-adv-x="648" 
d="M668 730l-173 -840h-74l159 776h-160l-159 -776h-74l94 455h-21c-17 0 -39 0 -56 1c-82 5 -122 61 -122 138c0 128 92 239 204 245c17 1 39 1 56 1h326z" />
    <glyph glyph-name="section" unicode="&#xa7;" horiz-adv-x="694" 
d="M432 744c152 0 213 -56 200 -168h-69c11 89 -51 113 -133 113c-92 0 -163 -57 -163 -130c0 -67 70 -95 138 -111c119 -30 183 -78 183 -158c0 -84 -63 -157 -156 -184c44 -27 72 -64 72 -118c0 -111 -107 -192 -250 -192c-149 0 -204 56 -192 168h69
c-10 -87 45 -114 131 -114c94 0 167 54 167 131c0 67 -70 94 -138 111c-119 30 -184 77 -184 158c0 89 62 159 155 185c-42 27 -69 63 -69 117c0 111 104 192 239 192zM185 262c0 -58 50 -89 135 -112l34 -10c89 3 156 62 156 139c0 55 -46 88 -136 111c-12 3 -24 7 -36 11
c-88 -4 -153 -61 -153 -139z" />
    <glyph glyph-name="copyright" unicode="&#xa9;" horiz-adv-x="914" 
d="M499 576c119 0 165 -53 175 -142h-58c-9 56 -36 90 -117 90c-87 0 -150 -82 -150 -179c0 -87 40 -137 118 -137c67 0 112 29 135 89h58c-30 -89 -94 -141 -194 -141c-113 0 -178 66 -178 187c0 128 88 233 211 233zM92 365c0 228 153 385 388 385
c234 0 387 -157 387 -385c0 -227 -153 -385 -387 -385c-235 0 -388 158 -388 385zM127 365c0 -209 137 -352 353 -352s352 143 352 352s-136 352 -352 352s-353 -143 -353 -352z" />
    <glyph glyph-name="registered" unicode="&#xae;" horiz-adv-x="521" 
d="M344 667c42 0 75 -14 75 -51c0 -36 -25 -59 -61 -67c23 -4 32 -17 32 -42c0 -14 1 -32 4 -45l5 -10h-38c-3 11 -5 31 -5 48c-1 24 -10 34 -42 34h-38l-14 -82h-33l38 215h77zM114 555c0 128 87 209 210 209c122 0 210 -81 210 -209s-88 -211 -210 -211
c-123 0 -210 83 -210 211zM141 555c0 -112 70 -183 183 -183c112 0 182 71 182 183c0 113 -70 182 -182 182c-113 0 -183 -69 -183 -182zM281 563h37c44 0 66 16 66 45c0 19 -15 30 -48 30h-43z" />
    <glyph glyph-name="trademark" unicode="&#x2122;" horiz-adv-x="769" 
d="M723 730l-74 -352h-47l59 277c-30 -52 -48 -84 -75 -130l-85 -144h-36l-22 144c-7 46 -14 90 -20 135l-60 -282h-47l75 352h59c17 -95 33 -188 47 -287l168 287h58zM26 690l8 40h322l-8 -40h-138l-66 -312h-47l66 312h-137z" />
    <glyph glyph-name="degree" unicode="&#xb0;" horiz-adv-x="337" 
d="M245 744c70 0 128 -57 128 -127s-58 -128 -128 -128c-71 0 -128 58 -128 128s57 127 128 127zM159 617c0 -48 39 -87 86 -87s85 39 85 87c0 47 -38 87 -85 87s-86 -40 -86 -87z" />
    <glyph glyph-name="bar" unicode="|" horiz-adv-x="508" 
d="M394 800l-206 -1000h-57l207 1000h56z" />
    <glyph glyph-name="brokenbar" unicode="&#xa6;" horiz-adv-x="508" 
d="M394 800l-86 -415h-56l86 415h56zM131 -200l85 415h56l-85 -415h-56z" />
    <glyph glyph-name="dagger" unicode="&#x2020;" horiz-adv-x="577" 
d="M380 730l-57 -250l186 2l-12 -58l-185 2l-121 -586h-63l126 586l-185 -2l12 58l184 -2l50 250h65z" />
    <glyph glyph-name="daggerdbl" unicode="&#x2021;" horiz-adv-x="649" 
d="M451 730l-55 -250l184 2l-12 -58l-184 2l-60 -284l185 2l-12 -57l-184 2l-51 -249h-63l55 249l-185 -2l12 57l185 -2l60 284l-186 -2l12 58l185 -2l49 250h65z" />
    <glyph glyph-name="cent" unicode="&#xa2;" 
d="M422 721l-20 -94c123 -7 169 -77 155 -177h-71c8 63 -24 106 -97 115l-88 -418c69 8 127 51 149 113h72c-34 -98 -118 -167 -234 -177l-20 -94h-54l20 94c-107 10 -163 80 -163 193c0 195 113 335 277 351l20 94h54zM145 281c0 -81 39 -125 102 -134l88 417
c-112 -16 -190 -131 -190 -283z" />
    <glyph glyph-name="currency" unicode="&#xa4;" horiz-adv-x="606" 
d="M312 116c-44 0 -83 15 -115 39l-70 -70l-32 32l70 70c-24 32 -38 71 -38 114s14 83 39 114l-71 71l32 32l71 -71c31 25 71 39 114 39c44 0 83 -15 115 -39l71 71l32 -32l-71 -71c24 -32 38 -71 38 -114s-14 -82 -38 -113l71 -71l-32 -32l-71 71c-32 -25 -72 -40 -115 -40
zM176 301c0 -75 61 -137 136 -137c76 0 137 62 137 137c0 76 -61 137 -137 137c-75 0 -136 -61 -136 -137z" />
    <glyph glyph-name="dollar" unicode="$" horiz-adv-x="640" 
d="M386 793h68l-17 -81c118 -11 179 -81 157 -200h-70c12 86 -24 129 -100 138l-53 -248c118 -28 181 -81 181 -172c0 -125 -107 -205 -263 -212l-17 -80h-68l17 81c-114 13 -191 77 -174 203h70c-9 -82 32 -130 117 -141l56 262c-109 29 -163 73 -163 156
c0 115 99 202 242 214zM203 509c0 -52 35 -80 102 -98l51 239c-90 -10 -153 -65 -153 -141zM302 80c108 8 174 61 174 143c0 56 -40 92 -120 111z" />
    <glyph glyph-name="Euro" unicode="&#x20ac;" 
d="M482 744c90 0 147 -18 190 -59l-38 -49c-42 34 -87 46 -156 46c-119 0 -209 -91 -254 -227h339l-26 -51h-327c-6 -25 -10 -50 -13 -77h302l-26 -51h-280c-1 -12 -1 -23 -1 -35c0 -129 58 -192 179 -192c66 0 116 14 165 37l-13 -61c-57 -29 -109 -39 -172 -39
c-155 0 -236 86 -236 239c0 17 0 34 1 51h-97l26 51h76c3 27 7 52 13 77h-62l26 51h49c54 176 174 289 335 289z" />
    <glyph glyph-name="sterling" unicode="&#xa3;" 
d="M398 744c166 0 215 -70 193 -219h-72c18 118 -29 152 -126 152c-105 0 -175 -65 -175 -191c0 -34 4 -68 9 -121h272l-13 -61h-253c1 -12 1 -23 1 -33c0 -107 -54 -172 -118 -205h409l-14 -66h-525l16 71c82 15 158 71 158 212l-1 21h-102l13 61h82c-5 51 -9 91 -9 121
c0 166 106 258 255 258z" />
    <glyph glyph-name="yen" unicode="&#xa5;" 
d="M682 730l-292 -365h161l-14 -61h-195l-13 -62h195l-14 -61h-194l-38 -181h-74l38 181h-188l13 61h188l13 62h-188l14 61h159l-138 365h81l123 -361l276 361h87z" />
    <glyph glyph-name="plus" unicode="+" horiz-adv-x="580" 
d="M377 538l-42 -195h185l-11 -51h-184l-42 -195h-54l42 195h-184l10 51h184l42 195h54z" />
    <glyph glyph-name="minus" unicode="&#x2212;" horiz-adv-x="580" 
d="M517 343l-10 -51h-418l11 51h417z" />
    <glyph glyph-name="multiply" unicode="&#xd7;" horiz-adv-x="580" 
d="M486 497l-179 -147l-116 148l-41 -35l116 -147l-179 -147l30 -37l178 147l117 -148l41 34l-146 185l-41 -34l29 -37l221 182z" />
    <glyph glyph-name="divide" unicode="&#xf7;" horiz-adv-x="580" 
d="M520 343l-11 -51h-422l10 51h423zM227 135c0 21 17 38 38 38s38 -17 38 -38s-16 -38 -38 -38c-21 0 -38 17 -38 38zM300 500c0 21 17 38 38 38s38 -17 38 -38s-17 -38 -38 -38s-38 17 -38 38z" />
    <glyph glyph-name="equal" unicode="=" horiz-adv-x="580" 
d="M546 439l-11 -51h-435l11 51h435zM59 196l11 51h435l-11 -51h-435z" />
    <glyph glyph-name="notequal" unicode="&#x2260;" horiz-adv-x="580" 
d="M514 553l-84 -114h110l-11 -51h-137l-105 -141h212l-11 -51h-238l-84 -113h-59l84 113h-138l11 51h164l105 141h-239l11 51h266l84 114h59z" />
    <glyph glyph-name="greater" unicode="&#x3e;" horiz-adv-x="581" 
d="M29 54l13 59l393 164l-324 163l11 54l383 -193l-11 -54z" />
    <glyph glyph-name="less" unicode="&#x3c;" horiz-adv-x="580" 
d="M556 486l-13 -59l-393 -164l324 -163l-11 -54l-383 193l11 54z" />
    <glyph glyph-name="greaterequal" unicode="&#x2265;" horiz-adv-x="580" 
d="M44 110l12 58l388 133l-330 134l11 53l383 -162l-12 -54zM21 0l11 51h417l-10 -51h-418z" />
    <glyph glyph-name="lessequal" unicode="&#x2264;" horiz-adv-x="580" 
d="M552 488l-12 -59l-387 -132l330 -134l-11 -53l-383 162l12 54zM31 0l11 51h417l-10 -51h-418z" />
    <glyph glyph-name="plusminus" unicode="&#xb1;" horiz-adv-x="580" 
d="M378 543l-40 -187h180l-12 -51h-179l-40 -188h-54l40 188h-180l12 51h179l40 187h54zM29 0l10 51h413l-10 -51h-413z" />
    <glyph glyph-name="approxequal" unicode="&#x2248;" horiz-adv-x="580" 
d="M224 431c23 0 44 -6 100 -42c47 -32 71 -37 85 -37c16 0 33 8 61 59l44 -20c-41 -71 -66 -90 -105 -90c-25 0 -46 8 -100 42c-49 33 -71 38 -84 38c-20 0 -39 -10 -67 -60l-45 23c42 70 69 87 111 87zM77 177c42 69 69 86 110 86c23 0 44 -6 101 -42
c47 -31 71 -36 85 -36c16 0 33 8 61 59l44 -21c-41 -70 -67 -90 -106 -90c-24 0 -45 9 -99 43c-49 32 -71 38 -84 38c-20 0 -39 -11 -68 -60z" />
    <glyph glyph-name="asciitilde" unicode="~" horiz-adv-x="580" 
d="M211 373c23 0 44 -6 101 -42c47 -32 71 -37 85 -37c16 0 33 8 61 59l44 -20c-41 -71 -67 -90 -106 -90c-24 0 -45 8 -99 42c-49 33 -71 38 -84 38c-20 0 -39 -10 -68 -60l-44 23c42 70 69 87 110 87z" />
    <glyph glyph-name="logicalnot" unicode="&#xac;" horiz-adv-x="561" 
d="M470 384l-38 -183h-57l28 132h-318l10 51h375z" />
    <glyph glyph-name="asciicircum" unicode="^" horiz-adv-x="580" 
d="M416 740l101 -348h-58l-82 287l-206 -287h-59l250 348h54z" />
    <glyph glyph-name="emptyset" unicode="&#x2205;" horiz-adv-x="940" 
d="M903 722l25 -31l-135 -111c45 -62 72 -140 72 -225c0 -216 -171 -380 -375 -380c-109 0 -209 47 -278 125l-135 -112l-24 32l134 111c-44 62 -71 139 -71 224c0 216 171 379 374 379c109 0 209 -47 278 -123zM162 355c0 -74 22 -141 60 -195l512 422
c-61 68 -149 109 -244 109c-178 0 -328 -143 -328 -336zM247 128c60 -68 148 -109 243 -109c178 0 329 144 329 336c0 75 -23 142 -60 196z" />
    <glyph glyph-name="infinity" unicode="&#x221e;" horiz-adv-x="1034" 
d="M71 266c0 144 124 269 266 269c102 0 159 -49 207 -154c86 101 174 155 270 155c102 0 173 -66 173 -167c0 -144 -124 -269 -266 -269c-102 0 -159 49 -207 154c-86 -101 -174 -155 -270 -155c-102 0 -173 66 -173 167zM140 277c0 -81 63 -118 121 -118
c73 0 160 56 231 158c-38 118 -94 158 -164 158c-100 0 -188 -92 -188 -198zM566 318c38 -118 94 -158 164 -158c100 0 188 92 188 198c0 81 -63 118 -121 118c-73 0 -160 -56 -231 -158z" />
    <glyph glyph-name="integral" unicode="&#x222b;" horiz-adv-x="575" 
d="M557 744c36 0 66 -6 88 -14l-13 -59c-29 10 -51 13 -74 13c-62 0 -84 -32 -120 -125l-220 -552c-55 -138 -104 -181 -194 -181c-34 0 -62 4 -83 13l13 59c16 -8 47 -12 66 -12c59 0 89 28 131 135l218 552c49 124 87 171 188 171z" />
    <glyph glyph-name="product" unicode="&#x220f;" horiz-adv-x="750" 
d="M811 730l-13 -61h-104l-167 -782h-74l167 782h-315l-166 -782h-74l166 782h-103l13 61h670z" />
    <glyph glyph-name="summation" unicode="&#x2211;" horiz-adv-x="667" 
d="M714 730l-13 -61h-466l228 -359l-395 -359h498l-13 -61h-595l11 55l406 367l-231 360l13 58h557z" />
    <glyph glyph-name="radical" unicode="&#x221a;" horiz-adv-x="577" 
d="M749 870l-511 -1030h-90l-42 410h-81l12 61h129l39 -400l469 959h75z" />
    <glyph glyph-name="partialdiff" unicode="&#x2202;" horiz-adv-x="608" 
d="M385 744c151 0 213 -77 213 -209c0 -285 -161 -549 -373 -549c-117 0 -191 70 -191 186c0 196 139 350 320 350c81 0 149 -36 159 -106c27 147 20 265 -127 265c-55 0 -100 -12 -159 -42l-19 57c65 35 118 48 177 48zM111 175c0 -81 43 -126 118 -126
c112 0 216 116 266 286c-11 92 -79 124 -146 124c-136 0 -238 -126 -238 -284z" />
    <glyph glyph-name="percent" unicode="%" horiz-adv-x="799" 
d="M740 730l-617 -730h-64l617 730h64zM104 537c0 116 76 207 176 207c82 0 127 -46 127 -126c0 -116 -78 -207 -178 -207c-82 0 -125 49 -125 126zM157 541c0 -55 26 -83 76 -83c67 0 118 68 118 157c0 54 -26 82 -75 82c-68 0 -119 -67 -119 -156zM386 112
c0 116 76 207 176 207c82 0 127 -46 127 -126c0 -116 -78 -207 -178 -207c-82 0 -125 49 -125 126zM439 116c0 -55 26 -83 76 -83c67 0 118 68 118 157c0 54 -26 82 -75 82c-68 0 -119 -67 -119 -156z" />
    <glyph glyph-name="perthousand" unicode="&#x2030;" horiz-adv-x="1134" 
d="M897 319c82 0 127 -46 127 -126c0 -116 -78 -207 -178 -207c-82 0 -125 49 -125 126c0 116 76 207 176 207zM59 0l617 730h64l-617 -730h-64zM104 537c0 116 76 207 176 207c82 0 127 -46 127 -126c0 -116 -78 -207 -178 -207c-82 0 -125 49 -125 126zM157 541
c0 -55 26 -83 76 -83c67 0 118 68 118 157c0 54 -26 82 -75 82c-68 0 -119 -67 -119 -156zM386 112c0 116 76 207 176 207c82 0 127 -46 127 -126c0 -116 -78 -207 -178 -207c-82 0 -125 49 -125 126zM439 116c0 -55 26 -83 76 -83c67 0 118 68 118 157c0 54 -26 82 -75 82
c-68 0 -119 -67 -119 -156zM774 116c0 -55 26 -83 76 -83c67 0 118 68 118 157c0 54 -26 82 -75 82c-68 0 -119 -67 -119 -156z" />
    <glyph glyph-name="lozenge" unicode="&#x25ca;" horiz-adv-x="545" 
d="M385 730l109 -365l-265 -365h-69l-109 365l265 365h69zM109 365l95 -322l232 322l-96 322z" />
    <glyph glyph-name="uni0326" unicode="&#x326;" horiz-adv-x="0" 
d="M268 -55v-6l-161 -129h-71l153 135h79z" />
    <glyph glyph-name="dieresis" unicode="&#xa8;" horiz-adv-x="427" 
d="M229 625c-24 0 -43 19 -43 43s19 43 43 43s43 -19 43 -43s-19 -43 -43 -43zM329 668c0 24 19 43 43 43s43 -19 43 -43s-19 -43 -43 -43s-43 19 -43 43z" />
    <glyph glyph-name="dotaccent" unicode="&#x2d9;" horiz-adv-x="352" 
d="M263 621c-26 0 -47 21 -47 47s21 46 47 46s46 -20 46 -46s-20 -47 -46 -47z" />
    <glyph glyph-name="grave" unicode="`" horiz-adv-x="417" 
d="M189 754v4l83 -1l134 -151v-3h-66z" />
    <glyph glyph-name="acute" unicode="&#xb4;" horiz-adv-x="425" 
d="M446 754l-213 -151h-71l1 3l199 151l86 1z" />
    <glyph glyph-name="hungarumlaut" unicode="&#x2dd;" horiz-adv-x="435" 
d="M332 754l-203 -154h-62l1 4l189 153l76 1zM253 600l1 4l189 153l76 1l-1 -4l-203 -154h-62z" />
    <glyph glyph-name="circumflex" unicode="&#x2c6;" horiz-adv-x="425" 
d="M348 758l89 -156h-65l-63 113l-109 -113h-67l155 156h60z" />
    <glyph glyph-name="caron" unicode="&#x2c7;" horiz-adv-x="425" 
d="M229 600l-90 156h65l63 -114l110 114h67l-155 -156h-60z" />
    <glyph glyph-name="breve" unicode="&#x2d8;" horiz-adv-x="425" 
d="M283 590c-107 0 -128 70 -106 167h54c-15 -68 -12 -123 62 -123c73 0 99 55 113 123h53c-18 -96 -59 -167 -176 -167z" />
    <glyph glyph-name="ring" unicode="&#x2da;" horiz-adv-x="425" 
d="M315 775c56 0 95 -28 95 -74c0 -64 -61 -102 -126 -102c-57 0 -95 29 -95 74c0 63 62 102 126 102zM241 677c0 -25 18 -41 49 -41c41 0 69 30 69 61c0 24 -19 41 -49 41c-41 0 -69 -30 -69 -61z" />
    <glyph glyph-name="tilde" unicode="&#x2dc;" horiz-adv-x="425" 
d="M231 715c20 0 42 -7 75 -24c33 -18 49 -22 61 -22c20 0 30 9 56 45l41 -17c-39 -61 -60 -80 -98 -80c-20 0 -41 7 -74 24c-31 17 -48 22 -62 22c-20 0 -29 -8 -54 -43l-42 18c38 59 59 77 97 77z" />
    <glyph glyph-name="macron" unicode="&#xaf;" horiz-adv-x="429" 
d="M371 689l-11 -48h-257l11 48h257z" />
    <glyph glyph-name="cedilla" unicode="&#xb8;" horiz-adv-x="425" 
d="M182 3l-39 -44c51 -7 80 -28 80 -70c0 -55 -56 -93 -142 -93c-19 0 -39 2 -56 7l9 38c15 -5 29 -6 40 -6c53 0 88 20 88 51c0 26 -28 41 -86 39l3 14l51 64h52z" />
    <glyph glyph-name="ogonek" unicode="&#x2db;" horiz-adv-x="449" 
d="M327 0c-66 -30 -115 -83 -115 -124c0 -24 17 -35 44 -35c14 0 30 4 45 10l-13 -42c-25 -9 -47 -13 -70 -13c-38 0 -71 15 -71 56c0 66 63 125 144 166z" />
    </font>
</defs>
</svg>
