<?xml version="1.0" standalone="no"?>
<!DOCTYPE svg PUBLIC "-//W3C//DTD SVG 1.1//EN" "http://www.w3.org/Graphics/SVG/1.1/DTD/svg11.dtd" >
<svg xmlns="http://www.w3.org/2000/svg" xmlns:xlink="http://www.w3.org/1999/xlink" version="1.1">
<metadata>
Created by FontForge 20220308 at Wed Dec 29 17:58:24 2021
 By Shift
Copyright \(C\) 2021 by Sora Sagano.
</metadata>
<defs>
<font id="Nacelle-Bold" horiz-adv-x="614" >
  <font-face 
    font-family="Nacelle Bold"
    font-weight="700"
    font-stretch="normal"
    units-per-em="1000"
    panose-1="0 0 0 0 0 0 0 0 0 0"
    ascent="770"
    descent="-230"
    x-height="528"
    cap-height="730"
    bbox="-176 -230 1186 989"
    underline-thickness="50"
    underline-position="-125"
    stemh="104"
    stemv="143"
    unicode-range="U+0020-FB02"
  />
<missing-glyph horiz-adv-x="500" 
d="M410 770v-1000h-317v1000h317zM167 -161h166v33h-102l70 47h32v33h-166v-33h70l-70 -47v-33zM167 -25h166v113h-166v-113zM167 148h166v113h-100v-56h34v23h33v-47h-100v80h-33v-113zM167 283h166v100h-33v-66h-133v-34zM167 340h100v70h66v33h-166v-33h66v-37h-66v-33z
M167 470h166v34h-66v70h-100v-104zM167 600h166v33h-66v37h66v33h-165v-33h65v-37h-66v-33zM200 8v47h100v-47h-100zM200 504v36h33v-36h-33z" />
    <glyph glyph-name="fi" unicode="fi" horiz-adv-x="613" 
d="M265 744c27 0 49 -1 73 -5v-110c-92 12 -116 -10 -116 -67v-35h106v-113h-106v-414h-143v414h-60v113h60v25c0 16 0 28 1 47c6 87 55 145 185 145zM403 693c0 43 35 78 78 78c44 0 79 -35 79 -78c0 -44 -35 -78 -79 -78c-43 0 -78 34 -78 78zM410 0v528h143v-528h-143z
" />
    <glyph glyph-name="fl" unicode="fl" horiz-adv-x="639" 
d="M265 744c27 0 49 -1 73 -5v-110c-92 12 -116 -10 -116 -67v-35h106v-113h-106v-414h-143v414h-60v113h60v25c0 16 0 28 1 47c6 87 55 145 185 145zM408 183v547h143v-560c0 -69 11 -77 67 -72v-99c-21 -4 -62 -7 -86 -7c-87 0 -119 32 -122 105c-2 25 -2 48 -2 86z" />
    <glyph glyph-name=".notdef" horiz-adv-x="500" 
d="M410 770v-1000h-317v1000h317zM167 -161h166v33h-102l70 47h32v33h-166v-33h70l-70 -47v-33zM167 -25h166v113h-166v-113zM167 148h166v113h-100v-56h34v23h33v-47h-100v80h-33v-113zM167 283h166v100h-33v-66h-133v-34zM167 340h100v70h66v33h-166v-33h66v-37h-66v-33z
M167 470h166v34h-66v70h-100v-104zM167 600h166v33h-66v37h66v33h-165v-33h65v-37h-66v-33zM200 8v47h100v-47h-100zM200 504v36h33v-36h-33z" />
    <glyph glyph-name="space" unicode=" " horiz-adv-x="230" 
 />
    <glyph glyph-name="space" unicode="&#xa0;" horiz-adv-x="230" 
 />
    <glyph glyph-name="A" unicode="A" horiz-adv-x="734" 
d="M459 730l258 -730h-155l-61 176h-269l-62 -176h-153l263 730h179zM267 300h201l-99 293z" />
    <glyph glyph-name="Aacute" unicode="&#xc1;" horiz-adv-x="734" 
d="M459 730l258 -730h-155l-61 176h-269l-62 -176h-153l263 730h179zM199 784v6l176 148l181 3v-6l-212 -151h-145zM267 300h201l-99 293z" />
    <glyph glyph-name="Abreve" unicode="&#x102;" horiz-adv-x="734" 
d="M459 730l258 -730h-155l-61 176h-269l-62 -176h-153l263 730h179zM196 947h99c0 -46 16 -79 71 -79c54 0 71 32 70 79h100c2 -100 -37 -169 -170 -169c-134 0 -173 69 -170 169zM267 300h201l-99 293z" />
    <glyph glyph-name="Acircumflex" unicode="&#xc2;" horiz-adv-x="734" 
d="M459 730l258 -730h-155l-61 176h-269l-62 -176h-153l263 730h179zM171 782l136 161h117l137 -161h-124l-72 87l-71 -87h-123zM267 300h201l-99 293z" />
    <glyph glyph-name="Adieresis" unicode="&#xc4;" horiz-adv-x="734" 
d="M459 730l258 -730h-155l-61 176h-269l-62 -176h-153l263 730h179zM193 874c0 39 31 70 70 70s70 -31 70 -70s-31 -70 -70 -70s-70 31 -70 70zM267 300h201l-99 293zM399 874c0 39 31 70 70 70c38 0 69 -31 69 -70s-31 -70 -69 -70c-39 0 -70 31 -70 70z" />
    <glyph glyph-name="Agrave" unicode="&#xc0;" horiz-adv-x="734" 
d="M459 730l258 -730h-155l-61 176h-269l-62 -176h-153l263 730h179zM187 935v6l181 -3l175 -148v-6h-144zM267 300h201l-99 293z" />
    <glyph glyph-name="Amacron" unicode="&#x100;" horiz-adv-x="734" 
d="M459 730l258 -730h-155l-61 176h-269l-62 -176h-153l263 730h179zM217 820v85h298v-85h-298zM267 300h201l-99 293z" />
    <glyph glyph-name="Aogonek" unicode="&#x104;" horiz-adv-x="734" 
d="M459 730l258 -730h-2c-56 -2 -101 -39 -101 -81c0 -30 19 -42 51 -42c15 0 32 4 46 10l-9 -72c-28 -12 -60 -19 -101 -19c-59 0 -107 22 -107 88c0 50 28 94 66 123l-59 169h-269l-62 -176h-153l263 730h179zM267 300h201l-99 293z" />
    <glyph glyph-name="Aring" unicode="&#xc5;" horiz-adv-x="734" 
d="M459 730l258 -730h-155l-61 176h-269l-62 -176h-153l263 730h179zM229 882c0 71 58 107 137 107c78 0 137 -36 137 -107s-59 -107 -137 -107c-79 0 -137 36 -137 107zM267 300h201l-99 293zM319 882c0 -29 17 -46 47 -46c29 0 46 17 46 46c0 30 -17 46 -46 46
c-30 0 -47 -16 -47 -46z" />
    <glyph glyph-name="Atilde" unicode="&#xc3;" horiz-adv-x="734" 
d="M459 730l258 -730h-155l-61 176h-269l-62 -176h-153l263 730h179zM167 827c38 94 59 112 107 112c23 0 47 -6 90 -24c33 -14 61 -22 76 -22c20 0 27 8 45 45l79 -26c-38 -93 -59 -113 -107 -113c-23 0 -47 6 -90 24c-33 15 -60 22 -75 22c-21 0 -28 -7 -46 -44zM267 300
h201l-99 293z" />
    <glyph glyph-name="AE" unicode="&#xc6;" horiz-adv-x="1014" 
d="M965 730v-128h-399l29 -173h350v-123h-329l30 -178h329v-128h-453l-33 196h-256l-90 -196h-140l344 730h618zM289 320h179l-48 285z" />
    <glyph glyph-name="B" unicode="B" horiz-adv-x="678" 
d="M321 730c34 0 56 0 92 -3c127 -13 197 -79 197 -185c0 -77 -42 -138 -120 -164c102 -20 151 -79 151 -178c0 -128 -98 -186 -206 -197c-32 -3 -60 -3 -96 -3h-268v730h250zM215 125h142c79 0 133 28 133 90c0 68 -53 93 -146 93h-129v-183zM215 428h117
c67 0 129 19 129 87c0 63 -46 90 -126 90h-120v-177z" />
    <glyph glyph-name="C" unicode="C" horiz-adv-x="746" 
d="M390 744c204 0 301 -102 320 -250h-147c-17 75 -76 120 -172 120c-125 0 -199 -80 -199 -245c0 -190 88 -253 202 -253c95 0 152 44 170 120h146c-21 -163 -134 -250 -320 -250c-223 0 -349 126 -349 376c0 221 109 382 349 382z" />
    <glyph glyph-name="Cacute" unicode="&#x106;" horiz-adv-x="746" 
d="M390 744c204 0 301 -102 320 -250h-147c-17 75 -76 120 -172 120c-125 0 -199 -80 -199 -245c0 -190 88 -253 202 -253c95 0 152 44 170 120h146c-21 -163 -134 -250 -320 -250c-223 0 -349 126 -349 376c0 221 109 382 349 382zM225 784v6l176 148l181 3v-6l-212 -151
h-145z" />
    <glyph glyph-name="Ccaron" unicode="&#x10c;" horiz-adv-x="746" 
d="M390 744c204 0 301 -102 320 -250h-147c-17 75 -76 120 -172 120c-125 0 -199 -80 -199 -245c0 -190 88 -253 202 -253c95 0 152 44 170 120h146c-21 -163 -134 -250 -320 -250c-223 0 -349 126 -349 376c0 221 109 382 349 382zM203 943h118l72 -93l71 93h117l-136 -161
h-105z" />
    <glyph glyph-name="Ccedilla" unicode="&#xc7;" horiz-adv-x="746" 
d="M390 744c204 0 301 -102 320 -250h-147c-17 75 -76 120 -172 120c-125 0 -199 -80 -199 -245c0 -190 88 -253 202 -253c95 0 152 44 170 120h146c-19 -150 -116 -235 -276 -248l-11 -18c56 -10 86 -35 86 -81c0 -61 -65 -93 -146 -93c-27 0 -48 1 -70 6v65
c17 -5 31 -6 42 -6c38 0 57 8 57 27c0 23 -25 35 -74 33v22l29 45c-196 15 -306 141 -306 374c0 221 109 382 349 382z" />
    <glyph glyph-name="Cdotaccent" unicode="&#x10a;" horiz-adv-x="746" 
d="M390 744c204 0 301 -102 320 -250h-147c-17 75 -76 120 -172 120c-125 0 -199 -80 -199 -245c0 -190 88 -253 202 -253c95 0 152 44 170 120h146c-21 -163 -134 -250 -320 -250c-223 0 -349 126 -349 376c0 221 109 382 349 382zM313 880c0 44 35 79 79 79
c43 0 79 -35 79 -79s-36 -79 -79 -79c-44 0 -79 35 -79 79z" />
    <glyph glyph-name="D" unicode="D" horiz-adv-x="762" 
d="M336 730c36 0 52 0 84 -3c140 -14 300 -79 300 -351c0 -283 -160 -356 -294 -372c-36 -4 -54 -4 -90 -4h-265v730h265zM217 128h142c139 0 211 75 211 246c0 157 -68 228 -211 228h-142v-474z" />
    <glyph glyph-name="Eth" unicode="&#xd0;" horiz-adv-x="774" 
d="M400 418v-106h-170v-184h142c139 0 211 75 211 246c0 157 -68 228 -211 228h-142v-184h170zM8 312v106h76v312h265c36 0 52 0 84 -3c140 -14 300 -79 300 -351c0 -283 -160 -356 -294 -372c-36 -4 -54 -4 -90 -4h-265v312h-76z" />
    <glyph glyph-name="Dcaron" unicode="&#x10e;" horiz-adv-x="762" 
d="M336 730c36 0 52 0 84 -3c140 -14 300 -79 300 -351c0 -283 -160 -356 -294 -372c-36 -4 -54 -4 -90 -4h-265v730h265zM183 935h118l72 -93l71 93h117l-136 -161h-105zM217 128h142c139 0 211 75 211 246c0 157 -68 228 -211 228h-142v-474z" />
    <glyph glyph-name="Dcroat" unicode="&#x110;" horiz-adv-x="774" 
d="M400 418v-106h-170v-184h142c139 0 211 75 211 246c0 157 -68 228 -211 228h-142v-184h170zM8 312v106h76v312h265c36 0 52 0 84 -3c140 -14 300 -79 300 -351c0 -283 -160 -356 -294 -372c-36 -4 -54 -4 -90 -4h-265v312h-76z" />
    <glyph glyph-name="E" unicode="E" horiz-adv-x="629" 
d="M583 730v-128h-366v-173h345v-123h-345v-178h374v-128h-520v730h512z" />
    <glyph glyph-name="Eacute" unicode="&#xc9;" horiz-adv-x="629" 
d="M583 730v-128h-366v-173h345v-123h-345v-178h374v-128h-520v730h512zM173 784v6l176 148l181 3v-6l-212 -151h-145z" />
    <glyph glyph-name="Ecaron" unicode="&#x11a;" horiz-adv-x="629" 
d="M583 730v-128h-366v-173h345v-123h-345v-178h374v-128h-520v730h512zM151 943h118l72 -93l71 93h117l-136 -161h-105z" />
    <glyph glyph-name="Ecircumflex" unicode="&#xca;" horiz-adv-x="629" 
d="M583 730v-128h-366v-173h345v-123h-345v-178h374v-128h-520v730h512zM145 782l136 161h117l137 -161h-124l-72 87l-71 -87h-123z" />
    <glyph glyph-name="Edieresis" unicode="&#xcb;" horiz-adv-x="629" 
d="M583 730v-128h-366v-173h345v-123h-345v-178h374v-128h-520v730h512zM167 874c0 39 31 70 70 70s70 -31 70 -70s-31 -70 -70 -70s-70 31 -70 70zM373 874c0 39 31 70 70 70c38 0 69 -31 69 -70s-31 -70 -69 -70c-39 0 -70 31 -70 70z" />
    <glyph glyph-name="Edotaccent" unicode="&#x116;" horiz-adv-x="629" 
d="M583 730v-128h-366v-173h345v-123h-345v-178h374v-128h-520v730h512zM261 880c0 44 35 79 79 79c43 0 79 -35 79 -79s-36 -79 -79 -79c-44 0 -79 35 -79 79z" />
    <glyph glyph-name="Egrave" unicode="&#xc8;" horiz-adv-x="629" 
d="M583 730v-128h-366v-173h345v-123h-345v-178h374v-128h-520v730h512zM161 935v6l181 -3l175 -148v-6h-144z" />
    <glyph glyph-name="Emacron" unicode="&#x112;" horiz-adv-x="629" 
d="M583 730v-128h-366v-173h345v-123h-345v-178h374v-128h-520v730h512zM191 820v85h298v-85h-298z" />
    <glyph glyph-name="Eogonek" unicode="&#x118;" horiz-adv-x="629" 
d="M583 730v-128h-366v-173h345v-123h-345v-178h374v-128c-56 -2 -101 -39 -101 -81c0 -30 19 -42 51 -42c15 0 32 4 46 10l-9 -72c-28 -12 -60 -19 -101 -19c-59 0 -107 22 -107 88c0 46 24 87 58 116h-357v730h512z" />
    <glyph glyph-name="F" unicode="F" horiz-adv-x="632" 
d="M594 730v-128h-377v-189h356v-128h-356v-285h-146v730h523z" />
    <glyph glyph-name="G" unicode="G" horiz-adv-x="777" 
d="M192 368c0 -185 76 -254 207 -254c85 0 174 50 174 159v12h-181v120h328v-405h-116l-15 119c-4 -35 -10 -50 -21 -63c-38 -48 -120 -70 -198 -70c-208 0 -329 121 -329 376c0 221 105 382 352 382c214 0 307 -101 326 -246h-147c-16 72 -71 116 -181 116
c-127 0 -199 -79 -199 -246z" />
    <glyph glyph-name="Gbreve" unicode="&#x11e;" horiz-adv-x="777" 
d="M192 368c0 -185 76 -254 207 -254c85 0 174 50 174 159v12h-181v120h328v-405h-116l-15 119c-4 -35 -10 -50 -21 -63c-38 -48 -120 -70 -198 -70c-208 0 -329 121 -329 376c0 221 105 382 352 382c214 0 307 -101 326 -246h-147c-16 72 -71 116 -181 116
c-127 0 -199 -79 -199 -246zM229 947h99c0 -46 16 -79 71 -79c54 0 71 32 70 79h100c2 -100 -37 -169 -170 -169c-134 0 -173 69 -170 169z" />
    <glyph glyph-name="uni0122" unicode="&#x122;" horiz-adv-x="777" 
d="M192 368c0 -185 76 -254 207 -254c85 0 174 50 174 159v12h-181v120h328v-405h-116l-15 119c-4 -35 -10 -50 -21 -63c-38 -48 -120 -70 -198 -70c-208 0 -329 121 -329 376c0 221 105 382 352 382c214 0 307 -101 326 -246h-147c-16 72 -71 116 -181 116
c-127 0 -199 -79 -199 -246zM217 -211l154 152h148v-8l-177 -144h-125z" />
    <glyph glyph-name="Gdotaccent" unicode="&#x120;" horiz-adv-x="777" 
d="M192 368c0 -185 76 -254 207 -254c85 0 174 50 174 159v12h-181v120h328v-405h-116l-15 119c-4 -35 -10 -50 -21 -63c-38 -48 -120 -70 -198 -70c-208 0 -329 121 -329 376c0 221 105 382 352 382c214 0 307 -101 326 -246h-147c-16 72 -71 116 -181 116
c-127 0 -199 -79 -199 -246zM320 880c0 44 35 79 79 79c43 0 79 -35 79 -79s-36 -79 -79 -79c-44 0 -79 35 -79 79z" />
    <glyph glyph-name="H" unicode="H" horiz-adv-x="766" 
d="M695 730v-730h-147v304h-331v-304h-146v730h146v-298h331v298h147z" />
    <glyph glyph-name="Hbar" unicode="&#x126;" horiz-adv-x="793" 
d="M763 598v-86h-50v-512h-147v304h-331v-304h-146v512h-58v86h58v132h146v-132h331v132h147v-132h50zM235 432h331v80h-331v-80z" />
    <glyph glyph-name="I" unicode="I" horiz-adv-x="288" 
d="M217 730v-730h-146v730h146z" />
    <glyph glyph-name="IJ" unicode="&#x132;" horiz-adv-x="909" 
d="M217 730v-730h-146v730h146zM308 259h146c10 -113 56 -143 130 -143c86 0 119 52 119 135v479h147v-415c0 -32 0 -57 -3 -101c-9 -144 -85 -228 -263 -228c-196 0 -270 90 -276 273z" />
    <glyph glyph-name="Iacute" unicode="&#xcd;" horiz-adv-x="288" 
d="M217 730v-730h-146v730h146zM-23 784v6l176 148l181 3v-6l-212 -151h-145z" />
    <glyph glyph-name="Icircumflex" unicode="&#xce;" horiz-adv-x="288" 
d="M217 730v-730h-146v730h146zM-51 782l136 161h117l137 -161h-124l-72 87l-71 -87h-123z" />
    <glyph glyph-name="Idieresis" unicode="&#xcf;" horiz-adv-x="288" 
d="M217 730v-730h-146v730h146zM-29 874c0 39 31 70 70 70s70 -31 70 -70s-31 -70 -70 -70s-70 31 -70 70zM177 874c0 39 31 70 70 70c38 0 69 -31 69 -70s-31 -70 -69 -70c-39 0 -70 31 -70 70z" />
    <glyph glyph-name="Idotaccent" unicode="&#x130;" horiz-adv-x="288" 
d="M217 730v-730h-146v730h146zM65 880c0 44 35 79 79 79c43 0 79 -35 79 -79s-36 -79 -79 -79c-44 0 -79 35 -79 79z" />
    <glyph glyph-name="Igrave" unicode="&#xcc;" horiz-adv-x="288" 
d="M217 730v-730h-146v730h146zM-35 935v6l181 -3l175 -148v-6h-144z" />
    <glyph glyph-name="Imacron" unicode="&#x12a;" horiz-adv-x="288" 
d="M217 730v-730h-146v730h146zM-5 820v85h298v-85h-298z" />
    <glyph glyph-name="Iogonek" unicode="&#x12e;" horiz-adv-x="288" 
d="M217 730v-730c-56 -2 -101 -39 -101 -81c0 -30 19 -42 51 -42c15 0 32 4 46 10l-9 -72c-28 -12 -60 -19 -101 -19c-59 0 -107 22 -107 88c0 54 33 101 75 130v716h146z" />
    <glyph glyph-name="J" unicode="J" horiz-adv-x="624" 
d="M565 315c0 -32 0 -57 -3 -101c-9 -144 -85 -228 -263 -228c-196 0 -270 90 -276 273h146c10 -113 56 -143 130 -143c86 0 119 52 119 135v479h147v-415z" />
    <glyph glyph-name="K" unicode="K" horiz-adv-x="708" 
d="M690 730l-248 -301l257 -429h-177l-193 318l-112 -130v-188h-146v730h146v-374l303 374h170z" />
    <glyph glyph-name="uni0136" unicode="&#x136;" horiz-adv-x="708" 
d="M690 730l-248 -301l257 -429h-177l-193 318l-112 -130v-188h-146v730h146v-374l303 374h170zM189 -211l154 152h148v-8l-177 -144h-125z" />
    <glyph glyph-name="L" unicode="L" horiz-adv-x="595" 
d="M217 730v-602h349v-128h-495v730h146z" />
    <glyph glyph-name="Lacute" unicode="&#x139;" horiz-adv-x="595" 
d="M217 730v-602h349v-128h-495v730h146zM-23 784v6l176 148l181 3v-6l-212 -151h-145z" />
    <glyph glyph-name="Lcaron" unicode="&#x13d;" horiz-adv-x="595" 
d="M518 740v-32l-84 -296h-113l65 328h132zM71 0v730h146v-602h349v-128h-495z" />
    <glyph glyph-name="uni013B" unicode="&#x13b;" horiz-adv-x="595" 
d="M217 730v-602h349v-128h-495v730h146zM170 -211l154 152h148v-8l-177 -144h-125z" />
    <glyph glyph-name="Ldot" unicode="&#x13f;" horiz-adv-x="599" 
d="M485 374c-42 0 -77 35 -77 77s35 76 77 76s76 -34 76 -76s-34 -77 -76 -77zM71 0v730h146v-602h349v-128h-495z" />
    <glyph glyph-name="Lslash" unicode="&#x141;" horiz-adv-x="632" 
d="M409 542v-120l-155 -89v-205h349v-128h-495v253l-93 -52v120l93 52v357h146v-276z" />
    <glyph glyph-name="M" unicode="M" horiz-adv-x="886" 
d="M815 730v-730h-144v374c0 50 0 111 1 169c-16 -58 -33 -119 -49 -169l-118 -374h-127l-118 374c-15 48 -32 107 -47 164c1 -57 1 -116 1 -164v-374h-143v730h208c79 -248 119 -376 167 -537c49 161 89 289 168 537h201z" />
    <glyph glyph-name="N" unicode="N" horiz-adv-x="746" 
d="M675 730v-730h-173l-197 355c-36 68 -70 137 -103 207c6 -89 7 -169 7 -242v-320h-138v730h171l192 -339c38 -70 74 -142 109 -214c-5 86 -7 173 -7 246v307h139z" />
    <glyph glyph-name="Nacute" unicode="&#x143;" horiz-adv-x="746" 
d="M675 730v-730h-173l-197 355c-36 68 -70 137 -103 207c6 -89 7 -169 7 -242v-320h-138v730h171l192 -339c38 -70 74 -142 109 -214c-5 86 -7 173 -7 246v307h139zM215 784v6l176 148l181 3v-6l-212 -151h-145z" />
    <glyph glyph-name="Ncaron" unicode="&#x147;" horiz-adv-x="746" 
d="M675 730v-730h-173l-197 355c-36 68 -70 137 -103 207c6 -89 7 -169 7 -242v-320h-138v730h171l192 -339c38 -70 74 -142 109 -214c-5 86 -7 173 -7 246v307h139zM193 943h118l72 -93l71 93h117l-136 -161h-105z" />
    <glyph glyph-name="uni0145" unicode="&#x145;" horiz-adv-x="746" 
d="M675 730v-730h-173l-197 355c-36 68 -70 137 -103 207c6 -89 7 -169 7 -242v-320h-138v730h171l192 -339c38 -70 74 -142 109 -214c-5 86 -7 173 -7 246v307h139zM205 -211l154 152h148v-8l-177 -144h-125z" />
    <glyph glyph-name="Ntilde" unicode="&#xd1;" horiz-adv-x="746" 
d="M675 730v-730h-173l-197 355c-36 68 -70 137 -103 207c6 -89 7 -169 7 -242v-320h-138v730h171l192 -339c38 -70 74 -142 109 -214c-5 86 -7 173 -7 246v307h139zM183 827c38 94 59 112 107 112c23 0 47 -6 90 -24c33 -14 61 -22 76 -22c20 0 27 8 45 45l79 -26
c-38 -93 -59 -113 -107 -113c-23 0 -47 6 -90 24c-33 15 -60 22 -75 22c-21 0 -28 -7 -46 -44z" />
    <glyph glyph-name="Eng" unicode="&#x14a;" horiz-adv-x="746" 
d="M675 -35c0 -18 0 -27 -1 -41c-8 -110 -81 -138 -234 -140v102c66 -3 90 17 90 69v45h-28l-197 355c-36 68 -70 137 -103 207c6 -89 7 -169 7 -242v-320h-138v730h171l192 -339c38 -70 74 -142 109 -214c-5 86 -7 173 -7 246v307h139v-765z" />
    <glyph glyph-name="O" unicode="O" horiz-adv-x="788" 
d="M192 365c0 -178 76 -249 202 -249s203 71 203 249s-77 249 -203 249s-202 -71 -202 -249zM41 365c0 250 120 379 353 379s353 -129 353 -379s-120 -379 -353 -379s-353 129 -353 379z" />
    <glyph glyph-name="Oacute" unicode="&#xd3;" horiz-adv-x="788" 
d="M192 365c0 -178 76 -249 202 -249s203 71 203 249s-77 249 -203 249s-202 -71 -202 -249zM41 365c0 250 120 379 353 379s353 -129 353 -379s-120 -379 -353 -379s-353 129 -353 379zM227 784v6l176 148l181 3v-6l-212 -151h-145z" />
    <glyph glyph-name="Ocircumflex" unicode="&#xd4;" horiz-adv-x="788" 
d="M192 365c0 -178 76 -249 202 -249s203 71 203 249s-77 249 -203 249s-202 -71 -202 -249zM41 365c0 250 120 379 353 379s353 -129 353 -379s-120 -379 -353 -379s-353 129 -353 379zM199 782l136 161h117l137 -161h-124l-72 87l-71 -87h-123z" />
    <glyph glyph-name="Odieresis" unicode="&#xd6;" horiz-adv-x="788" 
d="M192 365c0 -178 76 -249 202 -249s203 71 203 249s-77 249 -203 249s-202 -71 -202 -249zM41 365c0 250 120 379 353 379s353 -129 353 -379s-120 -379 -353 -379s-353 129 -353 379zM221 874c0 39 31 70 70 70s70 -31 70 -70s-31 -70 -70 -70s-70 31 -70 70zM427 874
c0 39 31 70 70 70c38 0 69 -31 69 -70s-31 -70 -69 -70c-39 0 -70 31 -70 70z" />
    <glyph glyph-name="Ograve" unicode="&#xd2;" horiz-adv-x="788" 
d="M192 365c0 -178 76 -249 202 -249s203 71 203 249s-77 249 -203 249s-202 -71 -202 -249zM41 365c0 250 120 379 353 379s353 -129 353 -379s-120 -379 -353 -379s-353 129 -353 379zM215 935v6l181 -3l175 -148v-6h-144z" />
    <glyph glyph-name="Ohungarumlaut" unicode="&#x150;" horiz-adv-x="788" 
d="M192 365c0 -178 76 -249 202 -249s203 71 203 249s-77 249 -203 249s-202 -71 -202 -249zM41 365c0 250 120 379 353 379s353 -129 353 -379s-120 -379 -353 -379s-353 129 -353 379zM160 781v6l132 148l144 2v-5l-157 -151h-119zM405 781v6l132 148l144 2v-5l-157 -151
h-119z" />
    <glyph glyph-name="Omacron" unicode="&#x14c;" horiz-adv-x="788" 
d="M192 365c0 -178 76 -249 202 -249s203 71 203 249s-77 249 -203 249s-202 -71 -202 -249zM41 365c0 250 120 379 353 379s353 -129 353 -379s-120 -379 -353 -379s-353 129 -353 379zM245 820v85h298v-85h-298z" />
    <glyph glyph-name="Oslash" unicode="&#xd8;" horiz-adv-x="826" 
d="M714 728l75 -73l-71 -69c30 -58 45 -132 45 -221c0 -250 -120 -379 -353 -379c-101 0 -181 24 -239 72l-58 -56l-76 74l67 65c-31 58 -47 133 -47 224c0 250 120 379 353 379c103 0 184 -25 242 -75zM208 365c0 -43 5 -80 13 -112l327 315c-35 32 -81 46 -138 46
c-126 0 -202 -71 -202 -249zM276 159c34 -30 79 -43 134 -43c126 0 203 71 203 249c0 42 -4 78 -12 108z" />
    <glyph glyph-name="Otilde" unicode="&#xd5;" horiz-adv-x="788" 
d="M192 365c0 -178 76 -249 202 -249s203 71 203 249s-77 249 -203 249s-202 -71 -202 -249zM41 365c0 250 120 379 353 379s353 -129 353 -379s-120 -379 -353 -379s-353 129 -353 379zM195 827c38 94 59 112 107 112c23 0 47 -6 90 -24c33 -14 61 -22 76 -22
c20 0 27 8 45 45l79 -26c-38 -93 -59 -113 -107 -113c-23 0 -47 6 -90 24c-33 15 -60 22 -75 22c-21 0 -28 -7 -46 -44z" />
    <glyph glyph-name="OE" unicode="&#x152;" horiz-adv-x="1122" 
d="M1076 730v-128h-354v-173h332v-123h-332v-178h362v-128h-508v106c-5 -19 -13 -36 -26 -50c-46 -51 -102 -70 -194 -70c-203 0 -315 129 -315 379s112 379 315 379c92 0 143 -15 193 -65c14 -14 22 -31 27 -52v103h500zM192 365c0 -180 73 -249 194 -249s190 75 190 223
v52c0 149 -69 223 -190 223s-194 -69 -194 -249z" />
    <glyph glyph-name="P" unicode="P" horiz-adv-x="659" 
d="M334 730c41 0 71 -1 107 -5c98 -12 200 -68 200 -220c0 -163 -102 -225 -200 -237c-36 -4 -66 -5 -107 -5h-117v-263h-146v730h263zM217 391h120c89 0 153 14 153 106c0 90 -68 105 -153 105h-120v-211z" />
    <glyph glyph-name="Thorn" unicode="&#xde;" horiz-adv-x="671" 
d="M332 609c40 0 71 -1 107 -5c98 -12 206 -77 206 -231c0 -162 -108 -228 -206 -240c-36 -4 -67 -5 -107 -5h-115v-128h-146v730h146v-121h115zM217 256h122c90 0 155 16 155 114c0 94 -69 111 -155 111h-122v-225z" />
    <glyph glyph-name="Q" unicode="Q" horiz-adv-x="788" 
d="M747 365c0 -147 -43 -245 -126 -302l103 -128l-117 -89c-123 148 -124 148 -130 148c-17 0 -47 -8 -83 -8c-233 0 -353 129 -353 379s120 379 353 379s353 -129 353 -379zM192 365c0 -178 76 -249 202 -249s203 70 203 249c0 178 -77 249 -203 249s-202 -71 -202 -249z
" />
    <glyph glyph-name="R" unicode="R" horiz-adv-x="688" 
d="M661 7v-7h-172c-9 47 -17 101 -25 166c-9 81 -34 105 -129 105h-117v-271h-147v730h270c41 0 71 -1 107 -5c103 -12 192 -64 192 -201c0 -92 -49 -152 -128 -184c59 -23 93 -67 101 -141c8 -75 15 -116 27 -166zM218 396h126c86 0 146 23 146 104c0 74 -40 104 -141 104
h-131v-208z" />
    <glyph glyph-name="Racute" unicode="&#x154;" horiz-adv-x="688" 
d="M661 7v-7h-172c-9 47 -17 101 -25 166c-9 81 -34 105 -129 105h-117v-271h-147v730h270c41 0 71 -1 107 -5c103 -12 192 -64 192 -201c0 -92 -49 -152 -128 -184c59 -23 93 -67 101 -141c8 -75 15 -116 27 -166zM178 784v6l176 148l181 3v-6l-212 -151h-145zM218 396h126
c86 0 146 23 146 104c0 74 -40 104 -141 104h-131v-208z" />
    <glyph glyph-name="Rcaron" unicode="&#x158;" horiz-adv-x="688" 
d="M661 7v-7h-172c-9 47 -17 101 -25 166c-9 81 -34 105 -129 105h-117v-271h-147v730h270c41 0 71 -1 107 -5c103 -12 192 -64 192 -201c0 -92 -49 -152 -128 -184c59 -23 93 -67 101 -141c8 -75 15 -116 27 -166zM156 943h118l72 -93l71 93h117l-136 -161h-105zM218 396
h126c86 0 146 23 146 104c0 74 -40 104 -141 104h-131v-208z" />
    <glyph glyph-name="uni0156" unicode="&#x156;" horiz-adv-x="688" 
d="M661 7v-7h-172c-9 47 -17 101 -25 166c-9 81 -34 105 -129 105h-117v-271h-147v730h270c41 0 71 -1 107 -5c103 -12 192 -64 192 -201c0 -92 -49 -152 -128 -184c59 -23 93 -67 101 -141c8 -75 15 -116 27 -166zM180 -211l154 152h148v-8l-177 -144h-125zM218 396h126
c86 0 146 23 146 104c0 74 -40 104 -141 104h-131v-208z" />
    <glyph glyph-name="S" unicode="S" horiz-adv-x="656" 
d="M322 744c171 0 277 -81 282 -235h-145c-9 70 -64 107 -143 107c-67 0 -122 -35 -122 -83c0 -58 48 -77 163 -99c171 -30 267 -99 267 -230c0 -160 -149 -218 -295 -218c-173 0 -293 75 -303 241h146c9 -72 66 -113 159 -113c78 0 146 27 146 83c0 57 -47 86 -170 109
c-163 29 -260 91 -259 222c0 138 125 216 274 216z" />
    <glyph glyph-name="Sacute" unicode="&#x15a;" horiz-adv-x="656" 
d="M322 744c171 0 277 -81 282 -235h-145c-9 70 -64 107 -143 107c-67 0 -122 -35 -122 -83c0 -58 48 -77 163 -99c171 -30 267 -99 267 -230c0 -160 -149 -218 -295 -218c-173 0 -293 75 -303 241h146c9 -72 66 -113 159 -113c78 0 146 27 146 83c0 57 -47 86 -170 109
c-163 29 -260 91 -259 222c0 138 125 216 274 216zM159 776v6l176 148l181 3v-6l-212 -151h-145z" />
    <glyph glyph-name="Scaron" unicode="&#x160;" horiz-adv-x="656" 
d="M322 744c171 0 277 -81 282 -235h-145c-9 70 -64 107 -143 107c-67 0 -122 -35 -122 -83c0 -58 48 -77 163 -99c171 -30 267 -99 267 -230c0 -160 -149 -218 -295 -218c-173 0 -293 75 -303 241h146c9 -72 66 -113 159 -113c78 0 146 27 146 83c0 57 -47 86 -170 109
c-163 29 -260 91 -259 222c0 138 125 216 274 216zM137 935h118l72 -93l71 93h117l-136 -161h-105z" />
    <glyph glyph-name="Scedilla" unicode="&#x15e;" horiz-adv-x="656" 
d="M322 744c171 0 277 -81 282 -235h-145c-9 70 -64 107 -143 107c-67 0 -122 -35 -122 -83c0 -58 48 -77 163 -99c171 -30 267 -99 267 -230c0 -143 -120 -205 -249 -216l-12 -18c56 -10 86 -35 86 -81c0 -61 -65 -93 -146 -93c-27 0 -48 1 -70 6v65c17 -5 31 -6 42 -6
c38 0 57 8 57 27c0 23 -25 35 -74 33v22l29 45c-150 11 -252 87 -261 239h146c9 -72 66 -113 159 -113c78 0 146 27 146 83c0 57 -47 86 -170 109c-163 29 -260 91 -259 222c0 138 125 216 274 216z" />
    <glyph glyph-name="uni0218" unicode="&#x218;" horiz-adv-x="656" 
d="M322 744c171 0 277 -81 282 -235h-145c-9 70 -64 107 -143 107c-67 0 -122 -35 -122 -83c0 -58 48 -77 163 -99c171 -30 267 -99 267 -230c0 -160 -149 -218 -295 -218c-173 0 -293 75 -303 241h146c9 -72 66 -113 159 -113c78 0 146 27 146 83c0 57 -47 86 -170 109
c-163 29 -260 91 -259 222c0 138 125 216 274 216zM172 -211l154 152h148v-8l-177 -144h-125z" />
    <glyph glyph-name="uni1E9E" unicode="&#x1e9e;" horiz-adv-x="747" 
d="M665 730v-95l-160 -189c116 -22 206 -94 206 -227c0 -153 -113 -233 -285 -233c-42 0 -91 4 -135 21v137c40 -18 85 -28 130 -28c75 0 140 34 140 112c0 85 -94 119 -221 118v97l133 159h-256v-602h-146v730h594z" />
    <glyph glyph-name="T" unicode="T" horiz-adv-x="650" 
d="M626 730v-128h-228v-602h-146v602h-228v128h602z" />
    <glyph glyph-name="Tbar" unicode="&#x166;" horiz-adv-x="650" 
d="M527 372v-86h-129v-286h-146v286h-129v86h129v230h-228v128h602v-128h-228v-230h129z" />
    <glyph glyph-name="Tcaron" unicode="&#x164;" horiz-adv-x="650" 
d="M626 730v-128h-228v-602h-146v602h-228v128h602zM136 943h118l72 -93l71 93h117l-136 -161h-105z" />
    <glyph glyph-name="uni0162" unicode="&#x162;" horiz-adv-x="650" 
d="M626 730v-128h-228v-602h-27l-19 -30c56 -10 86 -35 86 -81c0 -61 -65 -93 -146 -93c-27 0 -48 1 -70 6v65c17 -5 31 -6 42 -6c38 0 57 8 57 27c0 23 -25 35 -74 33v22l37 57h-32v602h-228v128h602z" />
    <glyph glyph-name="uni021A" unicode="&#x21a;" horiz-adv-x="650" 
d="M626 730v-128h-228v-602h-146v602h-228v128h602zM162 -211l154 152h148v-8l-177 -144h-125z" />
    <glyph glyph-name="U" unicode="U" horiz-adv-x="719" 
d="M658 303c0 -28 0 -49 -3 -86c-10 -139 -89 -231 -293 -231c-205 0 -289 92 -298 231c-3 37 -3 58 -3 86v427h147v-450c0 -106 38 -164 154 -164c117 0 153 60 153 164v450h143v-427z" />
    <glyph glyph-name="Uacute" unicode="&#xda;" horiz-adv-x="719" 
d="M658 303c0 -28 0 -49 -3 -86c-10 -139 -89 -231 -293 -231c-205 0 -289 92 -298 231c-3 37 -3 58 -3 86v427h147v-450c0 -106 38 -164 154 -164c117 0 153 60 153 164v450h143v-427zM195 784v6l176 148l181 3v-6l-212 -151h-145z" />
    <glyph glyph-name="Ucircumflex" unicode="&#xdb;" horiz-adv-x="719" 
d="M658 303c0 -28 0 -49 -3 -86c-10 -139 -89 -231 -293 -231c-205 0 -289 92 -298 231c-3 37 -3 58 -3 86v427h147v-450c0 -106 38 -164 154 -164c117 0 153 60 153 164v450h143v-427zM167 782l136 161h117l137 -161h-124l-72 87l-71 -87h-123z" />
    <glyph glyph-name="Udieresis" unicode="&#xdc;" horiz-adv-x="719" 
d="M658 303c0 -28 0 -49 -3 -86c-10 -139 -89 -231 -293 -231c-205 0 -289 92 -298 231c-3 37 -3 58 -3 86v427h147v-450c0 -106 38 -164 154 -164c117 0 153 60 153 164v450h143v-427zM189 874c0 39 31 70 70 70s70 -31 70 -70s-31 -70 -70 -70s-70 31 -70 70zM395 874
c0 39 31 70 70 70c38 0 69 -31 69 -70s-31 -70 -69 -70c-39 0 -70 31 -70 70z" />
    <glyph glyph-name="Ugrave" unicode="&#xd9;" horiz-adv-x="719" 
d="M658 303c0 -28 0 -49 -3 -86c-10 -139 -89 -231 -293 -231c-205 0 -289 92 -298 231c-3 37 -3 58 -3 86v427h147v-450c0 -106 38 -164 154 -164c117 0 153 60 153 164v450h143v-427zM183 935v6l181 -3l175 -148v-6h-144z" />
    <glyph glyph-name="Uhungarumlaut" unicode="&#x170;" horiz-adv-x="719" 
d="M658 303c0 -28 0 -49 -3 -86c-10 -139 -89 -231 -293 -231c-205 0 -289 92 -298 231c-3 37 -3 58 -3 86v427h147v-450c0 -106 38 -164 154 -164c117 0 153 60 153 164v450h143v-427zM128 781v6l132 148l144 2v-5l-157 -151h-119zM373 781v6l132 148l144 2v-5l-157 -151
h-119z" />
    <glyph glyph-name="Umacron" unicode="&#x16a;" horiz-adv-x="719" 
d="M658 303c0 -28 0 -49 -3 -86c-10 -139 -89 -231 -293 -231c-205 0 -289 92 -298 231c-3 37 -3 58 -3 86v427h147v-450c0 -106 38 -164 154 -164c117 0 153 60 153 164v450h143v-427zM213 820v85h298v-85h-298z" />
    <glyph glyph-name="Uogonek" unicode="&#x172;" horiz-adv-x="719" 
d="M658 303c0 -28 0 -49 -2 -86c-4 -62 -26 -114 -64 -154c-66 -74 -87 -111 -87 -144c0 -29 17 -42 47 -42c13 0 28 3 39 7l-9 -72c-25 -9 -54 -16 -93 -16c-52 0 -100 22 -100 88c0 43 22 79 53 107c-24 -3 -50 -5 -80 -5c-205 0 -289 92 -298 231c-3 37 -3 58 -3 86v427
h147v-465c0 -102 37 -161 154 -161c118 0 153 62 153 161v465h143v-427z" />
    <glyph glyph-name="Uring" unicode="&#x16e;" horiz-adv-x="719" 
d="M658 303c0 -28 0 -49 -3 -86c-10 -139 -89 -231 -293 -231c-205 0 -289 92 -298 231c-3 37 -3 58 -3 86v427h147v-450c0 -106 38 -164 154 -164c117 0 153 60 153 164v450h143v-427zM225 882c0 71 58 107 137 107c78 0 137 -36 137 -107s-59 -107 -137 -107
c-79 0 -137 36 -137 107zM315 882c0 -29 17 -46 47 -46c29 0 46 17 46 46c0 30 -17 46 -46 46c-30 0 -47 -16 -47 -46z" />
    <glyph glyph-name="V" unicode="V" horiz-adv-x="730" 
d="M721 730l-266 -730h-181l-265 730h167l194 -589l193 589h158z" />
    <glyph glyph-name="W" unicode="W" horiz-adv-x="980" 
d="M967 730l-174 -730h-185l-77 333c-17 75 -30 150 -40 226c-11 -75 -24 -151 -42 -225l-83 -334h-189l-165 730h158l64 -330c18 -92 33 -182 45 -273c14 91 32 180 56 273l83 320h153l79 -320c23 -91 40 -178 54 -266c12 89 27 177 46 266l73 330h144z" />
    <glyph glyph-name="Wacute" unicode="&#x1e82;" horiz-adv-x="980" 
d="M967 730l-174 -730h-185l-77 333c-17 75 -30 150 -40 226c-11 -75 -24 -151 -42 -225l-83 -334h-189l-165 730h158l64 -330c18 -92 33 -182 45 -273c14 91 32 180 56 273l83 320h153l79 -320c23 -91 40 -178 54 -266c12 89 27 177 46 266l73 330h144zM321 784v6l176 148
l181 3v-6l-212 -151h-145z" />
    <glyph glyph-name="Wcircumflex" unicode="&#x174;" horiz-adv-x="980" 
d="M967 730l-174 -730h-185l-77 333c-17 75 -30 150 -40 226c-11 -75 -24 -151 -42 -225l-83 -334h-189l-165 730h158l64 -330c18 -92 33 -182 45 -273c14 91 32 180 56 273l83 320h153l79 -320c23 -91 40 -178 54 -266c12 89 27 177 46 266l73 330h144zM293 782l136 161
h117l137 -161h-124l-72 87l-71 -87h-123z" />
    <glyph glyph-name="Wdieresis" unicode="&#x1e84;" horiz-adv-x="980" 
d="M967 730l-174 -730h-185l-77 333c-17 75 -30 150 -40 226c-11 -75 -24 -151 -42 -225l-83 -334h-189l-165 730h158l64 -330c18 -92 33 -182 45 -273c14 91 32 180 56 273l83 320h153l79 -320c23 -91 40 -178 54 -266c12 89 27 177 46 266l73 330h144zM315 874
c0 39 31 70 70 70s70 -31 70 -70s-31 -70 -70 -70s-70 31 -70 70zM521 874c0 39 31 70 70 70c38 0 69 -31 69 -70s-31 -70 -69 -70c-39 0 -70 31 -70 70z" />
    <glyph glyph-name="Wgrave" unicode="&#x1e80;" horiz-adv-x="980" 
d="M967 730l-174 -730h-185l-77 333c-17 75 -30 150 -40 226c-11 -75 -24 -151 -42 -225l-83 -334h-189l-165 730h158l64 -330c18 -92 33 -182 45 -273c14 91 32 180 56 273l83 320h153l79 -320c23 -91 40 -178 54 -266c12 89 27 177 46 266l73 330h144zM309 935v6l181 -3
l175 -148v-6h-144z" />
    <glyph glyph-name="X" unicode="X" horiz-adv-x="717" 
d="M699 730l-242 -364l244 -366h-180l-164 261l-159 -261h-182l248 360l-233 370h178l152 -267l161 267h177z" />
    <glyph glyph-name="Y" unicode="Y" horiz-adv-x="698" 
d="M703 730l-281 -444v-286h-146v286l-281 444h173l185 -308l181 308h169z" />
    <glyph glyph-name="Yacute" unicode="&#xdd;" horiz-adv-x="698" 
d="M703 730l-281 -444v-286h-146v286l-281 444h173l185 -308l181 308h169zM182 784v6l176 148l181 3v-6l-212 -151h-145z" />
    <glyph glyph-name="Ycircumflex" unicode="&#x176;" horiz-adv-x="698" 
d="M703 730l-281 -444v-286h-146v286l-281 444h173l185 -308l181 308h169zM154 782l136 161h117l137 -161h-124l-72 87l-71 -87h-123z" />
    <glyph glyph-name="Ydieresis" unicode="&#x178;" horiz-adv-x="698" 
d="M703 730l-281 -444v-286h-146v286l-281 444h173l185 -308l181 308h169zM176 874c0 39 31 70 70 70s70 -31 70 -70s-31 -70 -70 -70s-70 31 -70 70zM382 874c0 39 31 70 70 70c38 0 69 -31 69 -70s-31 -70 -69 -70c-39 0 -70 31 -70 70z" />
    <glyph glyph-name="Ygrave" unicode="&#x1ef2;" horiz-adv-x="698" 
d="M703 730l-281 -444v-286h-146v286l-281 444h173l185 -308l181 308h169zM170 935v6l181 -3l175 -148v-6h-144z" />
    <glyph glyph-name="Z" unicode="Z" horiz-adv-x="668" 
d="M622 730v-97l-386 -505h393v-128h-591v95l389 507h-382v128h577z" />
    <glyph glyph-name="Zacute" unicode="&#x179;" horiz-adv-x="668" 
d="M622 730v-97l-386 -505h393v-128h-591v95l389 507h-382v128h577zM167 784v6l176 148l181 3v-6l-212 -151h-145z" />
    <glyph glyph-name="Zcaron" unicode="&#x17d;" horiz-adv-x="668" 
d="M622 730v-97l-386 -505h393v-128h-591v95l389 507h-382v128h577zM145 943h118l72 -93l71 93h117l-136 -161h-105z" />
    <glyph glyph-name="Zdotaccent" unicode="&#x17b;" horiz-adv-x="668" 
d="M622 730v-97l-386 -505h393v-128h-591v95l389 507h-382v128h577zM255 880c0 44 35 79 79 79c43 0 79 -35 79 -79s-36 -79 -79 -79c-44 0 -79 35 -79 79z" />
    <glyph glyph-name="a" unicode="a" horiz-adv-x="563" 
d="M284 542c156 0 214 -67 221 -160c2 -27 3 -52 3 -82v-300h-129l-8 70c-24 -71 -87 -84 -165 -84c-97 0 -173 55 -173 158c0 132 101 180 305 180h29v19c0 52 -17 85 -89 85c-63 0 -91 -22 -97 -71h-131c4 114 74 185 234 185zM172 161c0 -39 31 -61 80 -61
c56 0 115 32 115 84v42c-126 6 -195 -7 -195 -65z" />
    <glyph glyph-name="aacute" unicode="&#xe1;" horiz-adv-x="563" 
d="M284 542c156 0 214 -67 221 -160c2 -27 3 -52 3 -82v-300h-129l-8 70c-24 -71 -87 -84 -165 -84c-97 0 -173 55 -173 158c0 132 101 180 305 180h29v19c0 52 -17 85 -89 85c-63 0 -91 -22 -97 -71h-131c4 114 74 185 234 185zM135 614v6l163 154l162 2v-5l-193 -157h-132
zM172 161c0 -39 31 -61 80 -61c56 0 115 32 115 84v42c-126 6 -195 -7 -195 -65z" />
    <glyph glyph-name="abreve" unicode="&#x103;" horiz-adv-x="563" 
d="M284 542c156 0 214 -67 221 -160c2 -27 3 -52 3 -82v-300h-129l-8 70c-24 -71 -87 -84 -165 -84c-97 0 -173 55 -173 158c0 132 101 180 305 180h29v19c0 52 -17 85 -89 85c-63 0 -91 -22 -97 -71h-131c4 114 74 185 234 185zM109 775h100c0 -55 15 -94 70 -94
c54 0 69 38 70 94h100c0 -101 -36 -171 -170 -171s-171 70 -170 171zM172 161c0 -39 31 -61 80 -61c56 0 115 32 115 84v42c-126 6 -195 -7 -195 -65z" />
    <glyph glyph-name="acircumflex" unicode="&#xe2;" horiz-adv-x="563" 
d="M284 542c156 0 214 -67 221 -160c2 -27 3 -52 3 -82v-300h-129l-8 70c-24 -71 -87 -84 -165 -84c-97 0 -173 55 -173 158c0 132 101 180 305 180h29v19c0 52 -17 85 -89 85c-63 0 -91 -22 -97 -71h-131c4 114 74 185 234 185zM89 613l131 165h117l132 -165h-123l-68 90
l-67 -90h-122zM172 161c0 -39 31 -61 80 -61c56 0 115 32 115 84v42c-126 6 -195 -7 -195 -65z" />
    <glyph glyph-name="adieresis" unicode="&#xe4;" horiz-adv-x="563" 
d="M284 542c156 0 214 -67 221 -160c2 -27 3 -52 3 -82v-300h-129l-8 70c-24 -71 -87 -84 -165 -84c-97 0 -173 55 -173 158c0 132 101 180 305 180h29v19c0 52 -17 85 -89 85c-63 0 -91 -22 -97 -71h-131c4 114 74 185 234 185zM112 701c0 38 30 69 69 69
c38 0 69 -31 69 -69c0 -39 -31 -69 -69 -69c-39 0 -69 30 -69 69zM172 161c0 -39 31 -61 80 -61c56 0 115 32 115 84v42c-126 6 -195 -7 -195 -65zM307 701c0 38 31 69 69 69c39 0 69 -31 69 -69c0 -39 -30 -69 -69 -69c-38 0 -69 30 -69 69z" />
    <glyph glyph-name="agrave" unicode="&#xe0;" horiz-adv-x="563" 
d="M284 542c156 0 214 -67 221 -160c2 -27 3 -52 3 -82v-300h-129l-8 70c-24 -71 -87 -84 -165 -84c-97 0 -173 55 -173 158c0 132 101 180 305 180h29v19c0 52 -17 85 -89 85c-63 0 -91 -22 -97 -71h-131c4 114 74 185 234 185zM106 771v5l163 -2l163 -154v-6h-132z
M172 161c0 -39 31 -61 80 -61c56 0 115 32 115 84v42c-126 6 -195 -7 -195 -65z" />
    <glyph glyph-name="amacron" unicode="&#x101;" horiz-adv-x="563" 
d="M284 542c156 0 214 -67 221 -160c2 -27 3 -52 3 -82v-300h-129l-8 70c-24 -71 -87 -84 -165 -84c-97 0 -173 55 -173 158c0 132 101 180 305 180h29v19c0 52 -17 85 -89 85c-63 0 -91 -22 -97 -71h-131c4 114 74 185 234 185zM130 645v85h297v-85h-297zM172 161
c0 -39 31 -61 80 -61c56 0 115 32 115 84v42c-126 6 -195 -7 -195 -65z" />
    <glyph glyph-name="aogonek" unicode="&#x105;" horiz-adv-x="563" 
d="M284 542c156 0 214 -67 221 -160c2 -27 3 -52 3 -82v-300c-48 -16 -83 -53 -83 -84c0 -25 17 -39 47 -39c13 0 28 3 39 8l-9 -72c-25 -10 -54 -17 -93 -17c-51 0 -99 22 -99 83c0 52 37 92 83 121h-14l-8 70c-24 -71 -87 -84 -165 -84c-97 0 -173 55 -173 158
c0 132 101 180 305 180h29v19c0 52 -17 85 -89 85c-63 0 -91 -22 -97 -71h-131c4 114 74 185 234 185zM172 161c0 -39 31 -61 80 -61c56 0 115 32 115 84v42c-126 6 -195 -7 -195 -65z" />
    <glyph glyph-name="aring" unicode="&#xe5;" horiz-adv-x="563" 
d="M284 542c156 0 214 -67 221 -160c2 -27 3 -52 3 -82v-300h-129l-8 70c-24 -71 -87 -84 -165 -84c-97 0 -173 55 -173 158c0 132 101 180 305 180h29v19c0 52 -17 85 -89 85c-63 0 -91 -22 -97 -71h-131c4 114 74 185 234 185zM142 712c0 71 58 107 137 107
c78 0 137 -36 137 -107c0 -70 -59 -106 -137 -106c-79 0 -137 36 -137 106zM172 161c0 -39 31 -61 80 -61c56 0 115 32 115 84v42c-126 6 -195 -7 -195 -65zM232 712c0 -29 17 -46 47 -46c29 0 46 17 46 46c0 30 -17 46 -46 46c-30 0 -47 -16 -47 -46z" />
    <glyph glyph-name="atilde" unicode="&#xe3;" horiz-adv-x="563" 
d="M284 542c156 0 214 -67 221 -160c2 -27 3 -52 3 -82v-300h-129l-8 70c-24 -71 -87 -84 -165 -84c-97 0 -173 55 -173 158c0 132 101 180 305 180h29v19c0 52 -17 85 -89 85c-63 0 -91 -22 -97 -71h-131c4 114 74 185 234 185zM89 642c32 96 50 116 98 116
c23 0 47 -7 90 -24c31 -13 61 -22 76 -22c18 0 24 7 36 44l79 -22c-32 -96 -50 -116 -98 -116c-23 0 -50 7 -90 24c-33 15 -60 22 -75 22c-19 0 -25 -7 -37 -44zM172 161c0 -39 31 -61 80 -61c56 0 115 32 115 84v42c-126 6 -195 -7 -195 -65z" />
    <glyph glyph-name="ae" unicode="&#xe6;" horiz-adv-x="925" 
d="M278 542c87 0 143 -24 176 -63c42 40 102 63 183 63c172 0 248 -100 248 -255c0 -24 -1 -42 -3 -62h-363c8 -92 49 -123 117 -123c56 0 96 23 108 70h135c-20 -119 -107 -186 -247 -186c-102 0 -173 34 -213 102c-23 -70 -93 -102 -178 -102c-127 0 -208 48 -208 154
c0 119 82 181 300 181h47v21c0 52 -25 86 -106 86c-67 0 -99 -23 -105 -72h-125c4 115 79 186 234 186zM172 157c0 -37 26 -57 91 -57c57 0 117 29 117 107v15c-141 6 -208 -14 -208 -65zM520 322h225c-10 78 -56 105 -116 105s-99 -27 -109 -105z" />
    <glyph glyph-name="b" unicode="b" horiz-adv-x="638" 
d="M204 730v-277c28 71 92 89 169 89c160 0 230 -107 230 -276c0 -183 -87 -280 -238 -280c-73 0 -141 18 -168 92l-4 -78h-132v730h143zM204 250c0 -115 60 -148 118 -148c85 0 125 60 125 165c0 94 -36 160 -122 160c-70 0 -121 -41 -121 -158v-19z" />
    <glyph glyph-name="c" unicode="c" horiz-adv-x="564" 
d="M300 542c168 0 230 -81 240 -198h-142c-5 55 -43 83 -100 83c-73 0 -113 -51 -113 -161c0 -111 36 -164 112 -164c54 0 94 33 101 82h142c-14 -120 -93 -198 -249 -198c-176 0 -255 101 -255 277c0 174 79 279 264 279z" />
    <glyph glyph-name="cacute" unicode="&#x107;" horiz-adv-x="564" 
d="M300 542c168 0 230 -81 240 -198h-142c-5 55 -43 83 -100 83c-73 0 -113 -51 -113 -161c0 -111 36 -164 112 -164c54 0 94 33 101 82h142c-14 -120 -93 -198 -249 -198c-176 0 -255 101 -255 277c0 174 79 279 264 279zM143 606v6l163 154l162 2v-5l-193 -157h-132z" />
    <glyph glyph-name="ccaron" unicode="&#x10d;" horiz-adv-x="564" 
d="M300 542c168 0 230 -81 240 -198h-142c-5 55 -43 83 -100 83c-73 0 -113 -51 -113 -161c0 -111 36 -164 112 -164c54 0 94 33 101 82h142c-14 -120 -93 -198 -249 -198c-176 0 -255 101 -255 277c0 174 79 279 264 279zM97 764h123l68 -90l67 90h122l-131 -165h-118z" />
    <glyph glyph-name="ccedilla" unicode="&#xe7;" horiz-adv-x="564" 
d="M300 542c168 0 230 -81 240 -198h-142c-5 55 -43 83 -100 83c-73 0 -113 -51 -113 -161c0 -111 36 -164 112 -164c54 0 94 33 101 82h142c-12 -106 -75 -179 -197 -195l-12 -19c56 -10 86 -35 86 -81c0 -61 -65 -93 -146 -93c-27 0 -48 1 -70 6v65c17 -5 31 -6 41 -6
c39 0 58 8 58 27c0 23 -25 35 -74 33v22l29 45c-151 13 -219 111 -219 275c0 174 79 279 264 279z" />
    <glyph glyph-name="cdotaccent" unicode="&#x10b;" horiz-adv-x="564" 
d="M300 542c168 0 230 -81 240 -198h-142c-5 55 -43 83 -100 83c-73 0 -113 -51 -113 -161c0 -111 36 -164 112 -164c54 0 94 33 101 82h142c-14 -120 -93 -198 -249 -198c-176 0 -255 101 -255 277c0 174 79 279 264 279zM209 693c0 43 35 78 78 78c44 0 79 -35 79 -78
c0 -44 -35 -78 -79 -78c-43 0 -78 34 -78 78z" />
    <glyph glyph-name="d" unicode="d" horiz-adv-x="639" 
d="M578 730v-730h-131l-9 85c-25 -79 -92 -99 -172 -99c-160 0 -230 107 -230 276c0 184 87 280 238 280c67 0 131 -16 161 -79v267h143zM192 261c0 -93 36 -159 122 -159c71 0 121 40 121 157v19c0 115 -60 149 -118 149c-85 0 -125 -61 -125 -166z" />
    <glyph glyph-name="eth" unicode="&#xf0;" horiz-adv-x="617" 
d="M203 773c75 -18 139 -44 192 -81l113 48l36 -80l-77 -33c68 -79 105 -188 105 -333c0 -221 -99 -307 -281 -308c-158 0 -255 95 -255 265c0 182 97 261 241 261c61 0 115 -22 140 -69c-14 54 -40 95 -75 131l-117 -50l-36 79l74 32c-32 18 -68 31 -101 40zM185 249
c0 -103 45 -147 120 -147c78 0 119 56 119 149c0 102 -46 145 -118 145c-77 0 -121 -49 -121 -147z" />
    <glyph glyph-name="dcaron" unicode="&#x10f;" horiz-adv-x="836" 
d="M818 740v-32l-84 -287h-111l65 319h130zM36 262c0 184 87 280 238 280c67 0 131 -16 161 -79v267h143v-730h-131l-9 85c-25 -79 -92 -99 -172 -99c-160 0 -230 107 -230 276zM192 261c0 -93 36 -159 122 -159c71 0 121 40 121 157v19c0 115 -60 149 -118 149
c-85 0 -125 -61 -125 -166z" />
    <glyph glyph-name="dcroat" unicode="&#x111;" horiz-adv-x="642" 
d="M621 666v-84h-43v-582h-131l-9 85c-25 -79 -92 -99 -172 -99c-160 0 -230 107 -230 276c0 184 87 280 238 280c67 0 131 -16 161 -79v119h-140v84h140v64h143v-64h43zM192 261c0 -93 36 -159 122 -159c71 0 121 40 121 157v19c0 115 -60 149 -118 149
c-85 0 -125 -61 -125 -166z" />
    <glyph glyph-name="e" unicode="e" horiz-adv-x="585" 
d="M299 542c173 0 246 -113 246 -269c0 -15 -1 -35 -2 -52h-361c9 -89 49 -120 115 -120c55 0 86 21 100 60h139c-19 -111 -105 -175 -242 -175c-170 0 -258 93 -258 275c0 172 83 281 263 281zM183 321h218c-8 77 -48 107 -108 107c-63 0 -101 -28 -110 -107z" />
    <glyph glyph-name="eacute" unicode="&#xe9;" horiz-adv-x="585" 
d="M299 542c173 0 246 -113 246 -269c0 -15 -1 -35 -2 -52h-361c9 -89 49 -120 115 -120c55 0 86 21 100 60h139c-19 -111 -105 -175 -242 -175c-170 0 -258 93 -258 275c0 172 83 281 263 281zM152 610v6l163 154l162 2v-5l-193 -157h-132zM183 321h218
c-8 77 -48 107 -108 107c-63 0 -101 -28 -110 -107z" />
    <glyph glyph-name="ecaron" unicode="&#x11b;" horiz-adv-x="585" 
d="M299 542c173 0 246 -113 246 -269c0 -15 -1 -35 -2 -52h-361c9 -89 49 -120 115 -120c55 0 86 21 100 60h139c-19 -111 -105 -175 -242 -175c-170 0 -258 93 -258 275c0 172 83 281 263 281zM106 768h123l68 -90l67 90h122l-131 -165h-118zM183 321h218
c-8 77 -48 107 -108 107c-63 0 -101 -28 -110 -107z" />
    <glyph glyph-name="ecircumflex" unicode="&#xea;" horiz-adv-x="585" 
d="M299 542c173 0 246 -113 246 -269c0 -15 -1 -35 -2 -52h-361c9 -89 49 -120 115 -120c55 0 86 21 100 60h139c-19 -111 -105 -175 -242 -175c-170 0 -258 93 -258 275c0 172 83 281 263 281zM106 609l131 165h117l132 -165h-123l-68 90l-67 -90h-122zM183 321h218
c-8 77 -48 107 -108 107c-63 0 -101 -28 -110 -107z" />
    <glyph glyph-name="edieresis" unicode="&#xeb;" horiz-adv-x="585" 
d="M299 542c173 0 246 -113 246 -269c0 -15 -1 -35 -2 -52h-361c9 -89 49 -120 115 -120c55 0 86 21 100 60h139c-19 -111 -105 -175 -242 -175c-170 0 -258 93 -258 275c0 172 83 281 263 281zM129 697c0 38 30 69 69 69c38 0 69 -31 69 -69c0 -39 -31 -69 -69 -69
c-39 0 -69 30 -69 69zM183 321h218c-8 77 -48 107 -108 107c-63 0 -101 -28 -110 -107zM324 697c0 38 31 69 69 69c39 0 69 -31 69 -69c0 -39 -30 -69 -69 -69c-38 0 -69 30 -69 69z" />
    <glyph glyph-name="edotaccent" unicode="&#x117;" horiz-adv-x="585" 
d="M299 542c173 0 246 -113 246 -269c0 -15 -1 -35 -2 -52h-361c9 -89 49 -120 115 -120c55 0 86 21 100 60h139c-19 -111 -105 -175 -242 -175c-170 0 -258 93 -258 275c0 172 83 281 263 281zM183 321h218c-8 77 -48 107 -108 107c-63 0 -101 -28 -110 -107zM217 697
c0 43 35 78 78 78c44 0 79 -35 79 -78c0 -44 -35 -78 -79 -78c-43 0 -78 34 -78 78z" />
    <glyph glyph-name="egrave" unicode="&#xe8;" horiz-adv-x="585" 
d="M299 542c173 0 246 -113 246 -269c0 -15 -1 -35 -2 -52h-361c9 -89 49 -120 115 -120c55 0 86 21 100 60h139c-19 -111 -105 -175 -242 -175c-170 0 -258 93 -258 275c0 172 83 281 263 281zM123 767v5l163 -2l163 -154v-6h-132zM183 321h218c-8 77 -48 107 -108 107
c-63 0 -101 -28 -110 -107z" />
    <glyph glyph-name="emacron" unicode="&#x113;" horiz-adv-x="585" 
d="M299 542c173 0 246 -113 246 -269c0 -15 -1 -35 -2 -52h-361c9 -89 49 -120 115 -120c55 0 86 21 100 60h139c-19 -111 -105 -175 -242 -175c-170 0 -258 93 -258 275c0 172 83 281 263 281zM147 641v85h297v-85h-297zM183 321h218c-8 77 -48 107 -108 107
c-63 0 -101 -28 -110 -107z" />
    <glyph glyph-name="eogonek" unicode="&#x119;" horiz-adv-x="589" 
d="M301 542c171 0 248 -104 248 -263c0 -20 -1 -37 -2 -55h-368c9 -95 54 -127 122 -127c57 0 94 25 106 75h136c-11 -55 -36 -97 -69 -129c-64 -59 -86 -96 -86 -127c0 -26 17 -39 47 -39c13 0 27 3 39 7l-9 -72c-25 -9 -54 -16 -93 -16c-51 0 -99 22 -99 83
c0 44 23 80 56 108c-10 -1 -21 -1 -33 -1c-172 0 -260 93 -260 275c0 175 87 281 265 281zM179 319h230c-8 83 -54 112 -114 112c-62 0 -105 -28 -116 -112z" />
    <glyph glyph-name="f" unicode="f" horiz-adv-x="349" 
d="M265 744c27 0 49 -1 73 -5v-110c-92 12 -116 -10 -116 -67v-35h106v-113h-106v-414h-143v414h-60v113h60v25c0 16 0 28 1 47c6 87 55 145 185 145z" />
    <glyph glyph-name="g" unicode="g" horiz-adv-x="629" 
d="M568 144c0 -53 0 -90 -1 -120c-6 -154 -100 -228 -265 -228c-139 0 -249 37 -257 188h140c8 -55 49 -72 116 -72c87 0 123 47 123 115v90c-14 -78 -66 -103 -159 -103c-160 0 -229 105 -229 263c0 173 86 265 236 265c86 0 140 -20 159 -89l4 75h133v-384zM189 278
c0 -85 34 -148 113 -148c72 0 122 43 122 146v14c0 101 -59 138 -119 138c-77 0 -116 -58 -116 -150z" />
    <glyph glyph-name="gbreve" unicode="&#x11f;" horiz-adv-x="629" 
d="M568 144c0 -53 0 -90 -1 -120c-6 -154 -100 -228 -265 -228c-139 0 -249 37 -257 188h140c8 -55 49 -72 116 -72c87 0 123 47 123 115v90c-14 -78 -66 -103 -159 -103c-160 0 -229 105 -229 263c0 173 86 265 236 265c86 0 140 -20 159 -89l4 75h133v-384zM144 767h100
c0 -55 15 -94 70 -94c54 0 69 38 70 94h100c0 -101 -36 -171 -170 -171s-171 70 -170 171zM189 278c0 -85 34 -148 113 -148c72 0 122 43 122 146v14c0 101 -59 138 -119 138c-77 0 -116 -58 -116 -150z" />
    <glyph glyph-name="uni0123" unicode="&#x123;" horiz-adv-x="619" 
d="M568 144c0 -53 0 -90 -1 -120c-6 -154 -100 -228 -265 -228c-139 0 -249 37 -257 188h140c8 -55 49 -72 116 -72c87 0 123 47 123 115v90c-14 -78 -66 -103 -159 -103c-160 0 -229 105 -229 263c0 173 86 265 236 265c86 0 140 -20 159 -89l4 75h133v-384zM189 278
c0 -85 34 -148 113 -148c72 0 122 43 122 146v14c0 101 -59 138 -119 138c-77 0 -116 -58 -116 -150zM190 574v8l176 136h132l-154 -144h-154z" />
    <glyph glyph-name="gdotaccent" unicode="&#x121;" horiz-adv-x="629" 
d="M568 144c0 -53 0 -90 -1 -120c-6 -154 -100 -228 -265 -228c-139 0 -249 37 -257 188h140c8 -55 49 -72 116 -72c87 0 123 47 123 115v90c-14 -78 -66 -103 -159 -103c-160 0 -229 105 -229 263c0 173 86 265 236 265c86 0 140 -20 159 -89l4 75h133v-384zM189 278
c0 -85 34 -148 113 -148c72 0 122 43 122 146v14c0 101 -59 138 -119 138c-77 0 -116 -58 -116 -150zM235 693c0 43 35 78 78 78c44 0 79 -35 79 -78c0 -44 -35 -78 -79 -78c-43 0 -78 34 -78 78z" />
    <glyph glyph-name="h" unicode="h" horiz-adv-x="611" 
d="M204 730v-284c17 74 75 96 160 96c111 0 175 -44 188 -141c3 -27 4 -52 4 -95v-306h-143v308c0 70 -19 115 -98 115c-65 2 -111 -43 -111 -143v-280h-143v730h143z" />
    <glyph glyph-name="hbar" unicode="&#x127;" horiz-adv-x="622" 
d="M300 666v-84h-85v-136c17 74 75 96 160 96c111 0 175 -44 188 -141c3 -27 4 -52 4 -95v-306h-143v308c0 70 -19 115 -98 115c-65 2 -111 -43 -111 -143v-280h-143v582h-51v84h51v64h143v-64h85z" />
    <glyph glyph-name="i" unicode="i" horiz-adv-x="264" 
d="M204 528v-528h-143v528h143zM54 693c0 43 35 78 78 78c44 0 79 -35 79 -78c0 -44 -35 -78 -79 -78c-43 0 -78 34 -78 78z" />
    <glyph glyph-name="dotlessi" unicode="&#x131;" horiz-adv-x="264" 
d="M204 528v-528h-143v528h143z" />
    <glyph glyph-name="iacute" unicode="&#xed;" horiz-adv-x="264" 
d="M204 528v-528h-143v528h143zM-11 606v6l163 154l162 2v-5l-193 -157h-132z" />
    <glyph glyph-name="icircumflex" unicode="&#xee;" horiz-adv-x="264" 
d="M204 528v-528h-143v528h143zM-57 605l131 165h117l132 -165h-123l-68 90l-67 -90h-122z" />
    <glyph glyph-name="idieresis" unicode="&#xef;" horiz-adv-x="264" 
d="M204 528v-528h-143v528h143zM-34 693c0 38 30 69 69 69c38 0 69 -31 69 -69c0 -39 -31 -69 -69 -69c-39 0 -69 30 -69 69zM161 693c0 38 31 69 69 69c39 0 69 -31 69 -69c0 -39 -30 -69 -69 -69c-38 0 -69 30 -69 69z" />
    <glyph glyph-name="igrave" unicode="&#xec;" horiz-adv-x="264" 
d="M204 528v-528h-143v528h143zM-40 763v5l163 -2l163 -154v-6h-132z" />
    <glyph glyph-name="ij" unicode="&#x133;" horiz-adv-x="530" 
d="M204 528v-528h-143v528h143zM54 693c0 43 35 78 78 78c44 0 79 -35 79 -78c0 -44 -35 -78 -79 -78c-43 0 -78 34 -78 78zM226 -200v104c93 -8 100 24 100 95v529h143v-545c0 -20 0 -41 -1 -59c-6 -84 -48 -128 -191 -128c-18 0 -35 1 -51 4zM319 693c0 43 35 78 78 78
c44 0 79 -35 79 -78c0 -44 -35 -78 -79 -78c-43 0 -78 34 -78 78z" />
    <glyph glyph-name="imacron" unicode="&#x12b;" horiz-adv-x="264" 
d="M204 528v-528h-143v528h143zM-16 637v85h297v-85h-297z" />
    <glyph glyph-name="iogonek" unicode="&#x12f;" horiz-adv-x="264" 
d="M204 528v-528h-1c-48 -16 -83 -53 -83 -84c0 -25 17 -39 47 -39c13 0 28 3 39 8l-9 -72c-25 -10 -54 -17 -93 -17c-51 0 -99 22 -99 83c0 52 37 92 83 121h-27v528h143zM54 693c0 43 35 78 78 78c44 0 79 -35 79 -78c0 -44 -35 -78 -79 -78c-43 0 -78 34 -78 78z" />
    <glyph glyph-name="j" unicode="j" horiz-adv-x="266" 
d="M205 -17c0 -20 0 -41 -1 -59c-6 -84 -48 -128 -191 -128c-18 0 -35 1 -51 4v104c93 -8 100 24 100 95v529h143v-545zM56 693c0 43 35 78 78 78c44 0 79 -35 79 -78c0 -44 -35 -78 -79 -78c-43 0 -78 34 -78 78z" />
    <glyph glyph-name="uni0237" unicode="&#x237;" horiz-adv-x="266" 
d="M205 -17c0 -20 0 -41 -1 -59c-6 -84 -48 -128 -191 -128c-18 0 -35 1 -51 4v104c93 -8 100 24 100 95v529h143v-545z" />
    <glyph glyph-name="k" unicode="k" horiz-adv-x="589" 
d="M571 528l-187 -205l198 -323h-171l-140 233l-67 -67v-166h-143v730h143v-440l213 238h154z" />
    <glyph glyph-name="uni0137" unicode="&#x137;" horiz-adv-x="589" 
d="M571 528l-187 -205l198 -323h-171l-140 233l-67 -67v-166h-143v730h143v-440l213 238h154zM119 -190l154 144h154v-8l-176 -136h-132z" />
    <glyph glyph-name="l" unicode="l" horiz-adv-x="288" 
d="M200 170c0 -69 11 -77 67 -72v-99c-21 -4 -62 -7 -86 -7c-87 0 -119 32 -122 105c-2 25 -2 48 -2 86v547h143v-560z" />
    <glyph glyph-name="lacute" unicode="&#x13a;" horiz-adv-x="288" 
d="M200 170c0 -69 11 -77 67 -72v-99c-21 -4 -62 -7 -86 -7c-87 0 -119 32 -122 105c-2 25 -2 48 -2 86v547h143v-560zM-7 814v6l163 154l162 2v-5l-193 -157h-132z" />
    <glyph glyph-name="lcaron" unicode="&#x13e;" horiz-adv-x="458" 
d="M445 740v-32l-84 -287h-111l64 319h131zM57 183v547h143v-560c0 -69 11 -77 67 -72v-99c-21 -4 -62 -7 -86 -7c-87 0 -119 32 -122 105c-2 25 -2 48 -2 86z" />
    <glyph glyph-name="uni013C" unicode="&#x13c;" horiz-adv-x="288" 
d="M200 170c0 -69 11 -77 67 -72v-99c-21 -4 -62 -7 -86 -7c-87 0 -119 32 -122 105c-2 25 -2 48 -2 86v547h143v-560zM-19 -190l154 144h154v-8l-176 -136h-132z" />
    <glyph glyph-name="ldot" unicode="&#x140;" horiz-adv-x="414" 
d="M336 268c-44 0 -79 35 -79 79c0 43 35 78 79 78c43 0 78 -35 78 -78c0 -44 -35 -79 -78 -79zM57 183v547h143v-560c0 -69 11 -77 67 -72v-99c-21 -4 -62 -7 -86 -7c-87 0 -119 32 -122 105c-2 25 -2 48 -2 86z" />
    <glyph glyph-name="lslash" unicode="&#x142;" horiz-adv-x="361" 
d="M330 480v-109l-75 -56v-145c0 -69 11 -77 67 -72v-99c-21 -4 -62 -7 -86 -7c-87 0 -119 32 -122 105c-2 25 -2 48 -2 86v45l-75 -58v109l75 58v393h143v-306z" />
    <glyph glyph-name="m" unicode="m" horiz-adv-x="922" 
d="M370 542c78 0 125 -35 147 -87c20 74 100 87 167 87c111 0 167 -58 178 -138c4 -27 5 -53 5 -88v-316h-143v295c0 76 -12 129 -88 129c-69 0 -101 -46 -101 -140v-284h-143v296c0 76 -12 128 -88 128c-69 0 -100 -45 -100 -139v-285h-143v528h131l5 -73
c19 74 95 87 173 87z" />
    <glyph glyph-name="n" unicode="n" horiz-adv-x="611" 
d="M364 542c111 0 175 -44 188 -141c3 -27 4 -52 4 -95v-306h-143v308c0 70 -19 115 -98 115c-65 2 -111 -43 -111 -143v-280h-143v528h131l6 -86c17 78 79 100 166 100z" />
    <glyph glyph-name="nacute" unicode="&#x144;" horiz-adv-x="611" 
d="M364 542c111 0 175 -44 188 -141c3 -27 4 -52 4 -95v-306h-143v308c0 70 -19 115 -98 115c-65 2 -111 -43 -111 -143v-280h-143v528h131l6 -86c17 78 79 100 166 100zM179 606v6l163 154l162 2v-5l-193 -157h-132z" />
    <glyph glyph-name="ncaron" unicode="&#x148;" horiz-adv-x="611" 
d="M364 542c111 0 175 -44 188 -141c3 -27 4 -52 4 -95v-306h-143v308c0 70 -19 115 -98 115c-65 2 -111 -43 -111 -143v-280h-143v528h131l6 -86c17 78 79 100 166 100zM133 764h123l68 -90l67 90h122l-131 -165h-118z" />
    <glyph glyph-name="uni0146" unicode="&#x146;" horiz-adv-x="611" 
d="M364 542c111 0 175 -44 188 -141c3 -27 4 -52 4 -95v-306h-143v308c0 70 -19 115 -98 115c-65 2 -111 -43 -111 -143v-280h-143v528h131l6 -86c17 78 79 100 166 100zM138 -190l154 144h154v-8l-176 -136h-132z" />
    <glyph glyph-name="ntilde" unicode="&#xf1;" horiz-adv-x="611" 
d="M364 542c111 0 175 -44 188 -141c3 -27 4 -52 4 -95v-306h-143v308c0 70 -19 115 -98 115c-65 2 -111 -43 -111 -143v-280h-143v528h131l6 -86c17 78 79 100 166 100zM133 634c32 96 50 116 98 116c23 0 47 -7 90 -24c31 -13 61 -22 76 -22c18 0 24 7 36 44l79 -22
c-32 -96 -50 -116 -98 -116c-23 0 -50 7 -90 24c-33 15 -60 22 -75 22c-19 0 -25 -7 -37 -44z" />
    <glyph glyph-name="eng" unicode="&#x14b;" horiz-adv-x="611" 
d="M556 -31c0 -18 0 -27 -1 -41c-7 -104 -71 -134 -224 -134v104c73 0 82 24 82 73v337c0 70 -19 115 -98 115c-65 2 -111 -43 -111 -143v-280h-143v528h131l6 -86c17 78 79 100 166 100c111 0 175 -44 188 -141c3 -27 4 -52 4 -95v-337z" />
    <glyph glyph-name="o" unicode="o" horiz-adv-x="616" 
d="M185 265c0 -121 46 -163 124 -163c77 0 122 42 122 163c0 119 -45 162 -122 162c-78 0 -124 -43 -124 -162zM36 265c0 180 95 277 273 277s272 -97 272 -277c0 -181 -95 -279 -272 -279c-178 0 -273 98 -273 279z" />
    <glyph glyph-name="oacute" unicode="&#xf3;" horiz-adv-x="616" 
d="M185 265c0 -121 46 -163 124 -163c77 0 122 42 122 163c0 119 -45 162 -122 162c-78 0 -124 -43 -124 -162zM36 265c0 180 95 277 273 277s272 -97 272 -277c0 -181 -95 -279 -272 -279c-178 0 -273 98 -273 279zM177 608v6l163 154l162 2v-5l-193 -157h-132z" />
    <glyph glyph-name="ocircumflex" unicode="&#xf4;" horiz-adv-x="616" 
d="M185 265c0 -121 46 -163 124 -163c77 0 122 42 122 163c0 119 -45 162 -122 162c-78 0 -124 -43 -124 -162zM36 265c0 180 95 277 273 277s272 -97 272 -277c0 -181 -95 -279 -272 -279c-178 0 -273 98 -273 279zM131 607l131 165h117l132 -165h-123l-68 90l-67 -90h-122
z" />
    <glyph glyph-name="odieresis" unicode="&#xf6;" horiz-adv-x="616" 
d="M185 265c0 -121 46 -163 124 -163c77 0 122 42 122 163c0 119 -45 162 -122 162c-78 0 -124 -43 -124 -162zM36 265c0 180 95 277 273 277s272 -97 272 -277c0 -181 -95 -279 -272 -279c-178 0 -273 98 -273 279zM154 695c0 38 30 69 69 69c38 0 69 -31 69 -69
c0 -39 -31 -69 -69 -69c-39 0 -69 30 -69 69zM349 695c0 38 31 69 69 69c39 0 69 -31 69 -69c0 -39 -30 -69 -69 -69c-38 0 -69 30 -69 69z" />
    <glyph glyph-name="ograve" unicode="&#xf2;" horiz-adv-x="616" 
d="M185 265c0 -121 46 -163 124 -163c77 0 122 42 122 163c0 119 -45 162 -122 162c-78 0 -124 -43 -124 -162zM36 265c0 180 95 277 273 277s272 -97 272 -277c0 -181 -95 -279 -272 -279c-178 0 -273 98 -273 279zM148 765v5l163 -2l163 -154v-6h-132z" />
    <glyph glyph-name="ohungarumlaut" unicode="&#x151;" horiz-adv-x="616" 
d="M185 265c0 -121 46 -163 124 -163c77 0 122 42 122 163c0 119 -45 162 -122 162c-78 0 -124 -43 -124 -162zM36 265c0 180 95 277 273 277s272 -97 272 -277c0 -181 -95 -279 -272 -279c-178 0 -273 98 -273 279zM96 602v6l138 160l132 2v-5l-163 -163h-107zM322 602v6
l139 160l132 2v-5l-163 -163h-108z" />
    <glyph glyph-name="omacron" unicode="&#x14d;" horiz-adv-x="616" 
d="M185 265c0 -121 46 -163 124 -163c77 0 122 42 122 163c0 119 -45 162 -122 162c-78 0 -124 -43 -124 -162zM36 265c0 180 95 277 273 277s272 -97 272 -277c0 -181 -95 -279 -272 -279c-178 0 -273 98 -273 279zM172 639v85h297v-85h-297z" />
    <glyph glyph-name="oslash" unicode="&#xf8;" horiz-adv-x="617" 
d="M530 545l60 -59l-50 -51c27 -43 41 -101 41 -170c0 -181 -95 -279 -272 -279c-71 0 -129 16 -172 46l-49 -49l-61 59l51 51c-27 45 -41 102 -41 172c0 180 94 277 272 277c71 0 129 -15 172 -46zM181 265c0 -24 2 -45 5 -64l205 205c-21 17 -48 25 -82 25
c-81 0 -128 -44 -128 -166zM227 122c21 -17 48 -25 82 -25c81 0 127 44 127 168c0 23 -2 44 -5 62z" />
    <glyph glyph-name="otilde" unicode="&#xf5;" horiz-adv-x="616" 
d="M185 265c0 -121 46 -163 124 -163c77 0 122 42 122 163c0 119 -45 162 -122 162c-78 0 -124 -43 -124 -162zM36 265c0 180 95 277 273 277s272 -97 272 -277c0 -181 -95 -279 -272 -279c-178 0 -273 98 -273 279zM131 636c32 96 50 116 98 116c23 0 47 -7 90 -24
c31 -13 61 -22 76 -22c18 0 24 7 36 44l79 -22c-32 -96 -50 -116 -98 -116c-23 0 -50 7 -90 24c-33 15 -60 22 -75 22c-19 0 -25 -7 -37 -44z" />
    <glyph glyph-name="oe" unicode="&#x153;" horiz-adv-x="982" 
d="M309 542c72 0 143 -30 188 -91c40 59 106 91 197 91c172 0 248 -114 248 -273c0 -15 0 -26 -2 -47h-367c10 -91 53 -120 121 -120c58 0 95 22 107 70h135c-19 -119 -107 -186 -246 -186c-90 0 -155 29 -195 88c-45 -60 -114 -88 -186 -88c-178 0 -273 98 -273 279
c0 180 95 277 273 277zM185 265c0 -121 46 -163 124 -163c65 0 119 49 119 165c0 112 -54 160 -119 160c-78 0 -124 -43 -124 -162zM573 318h229c-9 80 -54 109 -113 109c-62 0 -105 -27 -116 -109z" />
    <glyph glyph-name="p" unicode="p" horiz-adv-x="638" 
d="M204 -190h-143v718h131l8 -86c25 80 93 100 173 100c160 0 230 -107 230 -276c0 -183 -87 -280 -238 -280c-67 0 -131 16 -161 79v-255zM204 250c0 -115 60 -148 118 -148c85 0 125 60 125 165c0 94 -36 160 -122 160c-70 0 -121 -41 -121 -158v-19z" />
    <glyph glyph-name="thorn" unicode="&#xfe;" horiz-adv-x="638" 
d="M204 -190h-143v920h143v-277c28 71 92 89 169 89c160 0 230 -107 230 -276c0 -183 -87 -280 -238 -280c-67 0 -131 16 -161 79v-255zM204 250c0 -115 60 -148 118 -148c85 0 125 60 125 165c0 94 -36 160 -122 160c-70 0 -121 -41 -121 -158v-19z" />
    <glyph glyph-name="q" unicode="q" horiz-adv-x="639" 
d="M435 -190v266c-28 -72 -92 -90 -169 -90c-160 0 -230 107 -230 276c0 184 87 280 238 280c69 0 135 -16 164 -81l9 67h131v-718h-143zM192 261c0 -93 36 -159 122 -159c71 0 121 40 121 157v19c0 115 -60 149 -118 149c-85 0 -125 -61 -125 -166z" />
    <glyph glyph-name="r" unicode="r" horiz-adv-x="399" 
d="M346 542c19 0 31 0 43 -3v-116c-127 13 -185 -45 -185 -194v-229h-143v528h131l6 -101c10 82 68 115 148 115z" />
    <glyph glyph-name="racute" unicode="&#x155;" horiz-adv-x="399" 
d="M346 542c19 0 31 0 43 -3v-116c-127 13 -185 -45 -185 -194v-229h-143v528h131l6 -101c10 82 68 115 148 115zM63 606v6l163 154l162 2v-5l-193 -157h-132z" />
    <glyph glyph-name="rcaron" unicode="&#x159;" horiz-adv-x="399" 
d="M346 542c19 0 31 0 43 -3v-116c-127 13 -185 -45 -185 -194v-229h-143v528h131l6 -101c10 82 68 115 148 115zM17 764h123l68 -90l67 90h122l-131 -165h-118z" />
    <glyph glyph-name="uni0157" unicode="&#x157;" horiz-adv-x="399" 
d="M346 542c19 0 31 0 43 -3v-116c-127 13 -185 -45 -185 -194v-229h-143v528h131l6 -101c10 82 68 115 148 115zM-53 -190l154 144h154v-8l-176 -136h-132z" />
    <glyph glyph-name="s" unicode="s" horiz-adv-x="526" 
d="M261 542c150 0 214 -58 221 -169h-138c-7 49 -40 61 -86 61c-42 0 -74 -16 -74 -46c0 -32 26 -50 108 -63c139 -21 206 -69 206 -173c0 -112 -102 -166 -229 -166c-150 0 -227 53 -241 173h140c9 -48 39 -64 105 -64c52 0 83 17 83 45c0 35 -36 55 -114 67
c-140 23 -200 65 -200 172c0 97 86 163 219 163z" />
    <glyph glyph-name="sacute" unicode="&#x15b;" horiz-adv-x="526" 
d="M261 542c150 0 214 -58 221 -169h-138c-7 49 -40 61 -86 61c-42 0 -74 -16 -74 -46c0 -32 26 -50 108 -63c139 -21 206 -69 206 -173c0 -112 -102 -166 -229 -166c-150 0 -227 53 -241 173h140c9 -48 39 -64 105 -64c52 0 83 17 83 45c0 35 -36 55 -114 67
c-140 23 -200 65 -200 172c0 97 86 163 219 163zM114 610v6l163 154l162 2v-5l-193 -157h-132z" />
    <glyph glyph-name="scaron" unicode="&#x161;" horiz-adv-x="526" 
d="M261 542c150 0 214 -58 221 -169h-138c-7 49 -40 61 -86 61c-42 0 -74 -16 -74 -46c0 -32 26 -50 108 -63c139 -21 206 -69 206 -173c0 -112 -102 -166 -229 -166c-150 0 -227 53 -241 173h140c9 -48 39 -64 105 -64c52 0 83 17 83 45c0 35 -36 55 -114 67
c-140 23 -200 65 -200 172c0 97 86 163 219 163zM68 768h123l68 -90l67 90h122l-131 -165h-118z" />
    <glyph glyph-name="scedilla" unicode="&#x15f;" horiz-adv-x="526" 
d="M261 542c150 0 214 -58 221 -169h-138c-7 49 -40 61 -86 61c-42 0 -74 -16 -74 -46c0 -32 26 -50 108 -63c139 -21 206 -69 206 -173c0 -102 -85 -156 -197 -165l-11 -17c56 -10 86 -35 86 -81c0 -61 -65 -93 -146 -93c-27 0 -48 1 -70 6v65c17 -5 31 -6 41 -6
c39 0 58 8 58 27c0 23 -25 35 -74 33v22l30 46c-115 12 -175 65 -187 170h140c9 -48 39 -64 105 -64c52 0 83 17 83 45c0 35 -36 55 -114 67c-140 23 -200 65 -200 172c0 97 86 163 219 163z" />
    <glyph glyph-name="uni0219" unicode="&#x219;" horiz-adv-x="526" 
d="M261 542c150 0 214 -58 221 -169h-138c-7 49 -40 61 -86 61c-42 0 -74 -16 -74 -46c0 -32 26 -50 108 -63c139 -21 206 -69 206 -173c0 -112 -102 -166 -229 -166c-150 0 -227 53 -241 173h140c9 -48 39 -64 105 -64c52 0 83 17 83 45c0 35 -36 55 -114 67
c-140 23 -200 65 -200 172c0 97 86 163 219 163zM78 -190l154 144h154v-8l-176 -136h-132z" />
    <glyph glyph-name="germandbls" unicode="&#xdf;" horiz-adv-x="649" 
d="M330 744c154 0 256 -68 256 -200c0 -54 -7 -62 -47 -89c-37 -27 -56 -44 -56 -67c0 -25 13 -46 59 -89c60 -56 81 -98 81 -151c0 -102 -62 -158 -209 -158c-45 0 -81 4 -126 16v114c42 -11 73 -14 99 -14c61 0 87 18 87 53c0 24 -21 49 -68 93c-51 46 -67 77 -67 125
c0 42 26 73 82 113c18 12 21 20 21 36c0 68 -35 98 -115 98c-99 0 -123 -58 -123 -129v-495h-143v431c0 45 1 71 2 89c8 133 92 224 267 224z" />
    <glyph glyph-name="t" unicode="t" horiz-adv-x="388" 
d="M247 183c0 -78 17 -85 112 -80v-108c-33 -4 -61 -7 -108 -7c-106 0 -140 43 -146 111c-2 29 -2 50 -2 80v235h-76v113h76v154h144v-154h118v-113h-118v-231z" />
    <glyph glyph-name="tbar" unicode="&#x167;" horiz-adv-x="375" 
d="M322 335v-84h-75v-68c0 -78 17 -85 112 -80v-108c-33 -4 -61 -7 -108 -7c-106 0 -140 43 -146 111c-2 29 -2 50 -2 80v72h-65v84h65v79h-76v113h76v154h144v-154h118v-113h-118v-79h75z" />
    <glyph glyph-name="tcaron" unicode="&#x165;" horiz-adv-x="445" 
d="M433 738v-18l-43 -160h-106l35 178h114zM27 414v113h76v154h144v-154h118v-113h-118v-231c0 -78 17 -85 112 -80v-108c-33 -4 -61 -7 -108 -7c-106 0 -140 43 -146 111c-2 29 -2 50 -2 80v235h-76z" />
    <glyph glyph-name="uni0163" unicode="&#x163;" horiz-adv-x="388" 
d="M247 183c0 -78 17 -85 112 -80v-108c-27 -3 -50 -6 -83 -7l-12 -18c56 -10 86 -35 86 -81c0 -61 -65 -93 -146 -93c-27 0 -48 1 -70 6v65c17 -5 31 -6 41 -6c39 0 58 8 58 27c0 23 -25 35 -74 33v22l33 51c-60 14 -82 52 -87 105c-2 29 -2 50 -2 80v235h-76v113h76v154
h144v-154h118v-113h-118v-231z" />
    <glyph glyph-name="uni021B" unicode="&#x21b;" horiz-adv-x="388" 
d="M247 183c0 -78 17 -85 112 -80v-108c-33 -4 -61 -7 -108 -7c-106 0 -140 43 -146 111c-2 29 -2 50 -2 80v235h-76v113h76v154h144v-154h118v-113h-118v-231zM52 -190l154 144h154v-8l-176 -136h-132z" />
    <glyph glyph-name="u" unicode="u" horiz-adv-x="602" 
d="M236 -14c-107 0 -170 45 -182 142c-4 27 -5 52 -5 95v305h143v-312c0 -69 21 -114 96 -114c65 0 110 44 110 142v284h143v-528h-131l-5 81c-23 -74 -82 -95 -169 -95z" />
    <glyph glyph-name="uacute" unicode="&#xfa;" horiz-adv-x="602" 
d="M236 -14c-107 0 -170 45 -182 142c-4 27 -5 52 -5 95v305h143v-312c0 -69 21 -114 96 -114c65 0 110 44 110 142v284h143v-528h-131l-5 81c-23 -74 -82 -95 -169 -95zM152 606v6l163 154l162 2v-5l-193 -157h-132z" />
    <glyph glyph-name="ucircumflex" unicode="&#xfb;" horiz-adv-x="602" 
d="M236 -14c-107 0 -170 45 -182 142c-4 27 -5 52 -5 95v305h143v-312c0 -69 21 -114 96 -114c65 0 110 44 110 142v284h143v-528h-131l-5 81c-23 -74 -82 -95 -169 -95zM106 605l131 165h117l132 -165h-123l-68 90l-67 -90h-122z" />
    <glyph glyph-name="udieresis" unicode="&#xfc;" horiz-adv-x="602" 
d="M236 -14c-107 0 -170 45 -182 142c-4 27 -5 52 -5 95v305h143v-312c0 -69 21 -114 96 -114c65 0 110 44 110 142v284h143v-528h-131l-5 81c-23 -74 -82 -95 -169 -95zM129 693c0 38 30 69 69 69c38 0 69 -31 69 -69c0 -39 -31 -69 -69 -69c-39 0 -69 30 -69 69zM324 693
c0 38 31 69 69 69c39 0 69 -31 69 -69c0 -39 -30 -69 -69 -69c-38 0 -69 30 -69 69z" />
    <glyph glyph-name="ugrave" unicode="&#xf9;" horiz-adv-x="602" 
d="M236 -14c-107 0 -170 45 -182 142c-4 27 -5 52 -5 95v305h143v-312c0 -69 21 -114 96 -114c65 0 110 44 110 142v284h143v-528h-131l-5 81c-23 -74 -82 -95 -169 -95zM123 763v5l163 -2l163 -154v-6h-132z" />
    <glyph glyph-name="uhungarumlaut" unicode="&#x171;" horiz-adv-x="602" 
d="M236 -14c-107 0 -170 45 -182 142c-4 27 -5 52 -5 95v305h143v-312c0 -69 21 -114 96 -114c65 0 110 44 110 142v284h143v-528h-131l-5 81c-23 -74 -82 -95 -169 -95zM71 600v6l138 160l132 2v-5l-163 -163h-107zM297 600v6l139 160l132 2v-5l-163 -163h-108z" />
    <glyph glyph-name="umacron" unicode="&#x16b;" horiz-adv-x="602" 
d="M236 -14c-107 0 -170 45 -182 142c-4 27 -5 52 -5 95v305h143v-312c0 -69 21 -114 96 -114c65 0 110 44 110 142v284h143v-528h-131l-5 81c-23 -74 -82 -95 -169 -95zM147 637v85h297v-85h-297z" />
    <glyph glyph-name="uogonek" unicode="&#x173;" horiz-adv-x="602" 
d="M236 -14c-107 0 -170 45 -182 142c-4 27 -5 52 -5 95v305h143v-312c0 -69 21 -114 96 -114c65 0 110 44 110 142v284h143v-528c-48 -16 -83 -53 -83 -84c0 -25 17 -39 47 -39c13 0 28 3 39 8l-9 -72c-25 -10 -54 -17 -93 -17c-51 0 -99 22 -99 83c0 52 37 92 83 121h-16
l-5 81c-23 -74 -82 -95 -169 -95z" />
    <glyph glyph-name="uring" unicode="&#x16f;" horiz-adv-x="602" 
d="M236 -14c-107 0 -170 45 -182 142c-4 27 -5 52 -5 95v305h143v-312c0 -69 21 -114 96 -114c65 0 110 44 110 142v284h143v-528h-131l-5 81c-23 -74 -82 -95 -169 -95zM159 704c0 71 58 107 137 107c78 0 137 -36 137 -107c0 -70 -59 -106 -137 -106
c-79 0 -137 36 -137 106zM249 704c0 -29 17 -46 47 -46c29 0 46 17 46 46c0 30 -17 46 -46 46c-30 0 -47 -16 -47 -46z" />
    <glyph glyph-name="v" unicode="v" horiz-adv-x="581" 
d="M587 528l-215 -528h-159l-215 528h161l138 -397l138 397h152z" />
    <glyph glyph-name="w" unicode="w" horiz-adv-x="824" 
d="M814 528l-149 -528h-156c-35 110 -70 230 -99 351c-28 -121 -62 -241 -96 -351h-154l-150 528h153c31 -130 58 -258 81 -387c31 125 67 249 104 375h135c38 -129 74 -257 102 -385c24 133 52 264 86 397h143z" />
    <glyph glyph-name="wacute" unicode="&#x1e83;" horiz-adv-x="824" 
d="M814 528l-149 -528h-156c-35 110 -70 230 -99 351c-28 -121 -62 -241 -96 -351h-154l-150 528h153c31 -130 58 -258 81 -387c31 125 67 249 104 375h135c38 -129 74 -257 102 -385c24 133 52 264 86 397h143zM265 606v6l163 154l162 2v-5l-193 -157h-132z" />
    <glyph glyph-name="wcircumflex" unicode="&#x175;" horiz-adv-x="824" 
d="M814 528l-149 -528h-156c-35 110 -70 230 -99 351c-28 -121 -62 -241 -96 -351h-154l-150 528h153c31 -130 58 -258 81 -387c31 125 67 249 104 375h135c38 -129 74 -257 102 -385c24 133 52 264 86 397h143zM219 605l131 165h117l132 -165h-123l-68 90l-67 -90h-122z
" />
    <glyph glyph-name="wdieresis" unicode="&#x1e85;" horiz-adv-x="824" 
d="M814 528l-149 -528h-156c-35 110 -70 230 -99 351c-28 -121 -62 -241 -96 -351h-154l-150 528h153c31 -130 58 -258 81 -387c31 125 67 249 104 375h135c38 -129 74 -257 102 -385c24 133 52 264 86 397h143zM242 693c0 38 30 69 69 69c38 0 69 -31 69 -69
c0 -39 -31 -69 -69 -69c-39 0 -69 30 -69 69zM437 693c0 38 31 69 69 69c39 0 69 -31 69 -69c0 -39 -30 -69 -69 -69c-38 0 -69 30 -69 69z" />
    <glyph glyph-name="wgrave" unicode="&#x1e81;" horiz-adv-x="824" 
d="M814 528l-149 -528h-156c-35 110 -70 230 -99 351c-28 -121 -62 -241 -96 -351h-154l-150 528h153c31 -130 58 -258 81 -387c31 125 67 249 104 375h135c38 -129 74 -257 102 -385c24 133 52 264 86 397h143zM236 763v5l163 -2l163 -154v-6h-132z" />
    <glyph glyph-name="x" unicode="x" horiz-adv-x="577" 
d="M564 528l-185 -266l183 -262h-162l-112 175l-123 -175h-152l185 263l-178 265h159l111 -176l113 176h161z" />
    <glyph glyph-name="y" unicode="y" horiz-adv-x="571" 
d="M365 0c-71 -176 -124 -210 -256 -210c-23 0 -40 1 -60 5v114c21 -2 42 -3 62 -3c45 0 76 10 93 58l6 15l-212 549h167l124 -403l136 403h153z" />
    <glyph glyph-name="yacute" unicode="&#xfd;" horiz-adv-x="571" 
d="M365 0c-71 -176 -124 -210 -256 -210c-23 0 -40 1 -60 5v114c21 -2 42 -3 62 -3c45 0 76 10 93 58l6 15l-212 549h167l124 -403l136 403h153zM144 606v6l163 154l162 2v-5l-193 -157h-132z" />
    <glyph glyph-name="ycircumflex" unicode="&#x177;" horiz-adv-x="571" 
d="M365 0c-71 -176 -124 -210 -256 -210c-23 0 -40 1 -60 5v114c21 -2 42 -3 62 -3c45 0 76 10 93 58l6 15l-212 549h167l124 -403l136 403h153zM98 605l131 165h117l132 -165h-123l-68 90l-67 -90h-122z" />
    <glyph glyph-name="ydieresis" unicode="&#xff;" horiz-adv-x="571" 
d="M365 0c-71 -176 -124 -210 -256 -210c-23 0 -40 1 -60 5v114c21 -2 42 -3 62 -3c45 0 76 10 93 58l6 15l-212 549h167l124 -403l136 403h153zM121 693c0 38 30 69 69 69c38 0 69 -31 69 -69c0 -39 -31 -69 -69 -69c-39 0 -69 30 -69 69zM316 693c0 38 31 69 69 69
c39 0 69 -31 69 -69c0 -39 -30 -69 -69 -69c-38 0 -69 30 -69 69z" />
    <glyph glyph-name="ygrave" unicode="&#x1ef3;" horiz-adv-x="571" 
d="M365 0c-71 -176 -124 -210 -256 -210c-23 0 -40 1 -60 5v114c21 -2 42 -3 62 -3c45 0 76 10 93 58l6 15l-212 549h167l124 -403l136 403h153zM115 763v5l163 -2l163 -154v-6h-132z" />
    <glyph glyph-name="z" unicode="z" horiz-adv-x="527" 
d="M493 528v-80l-270 -339h268v-109h-461v77l273 343h-258v108h448z" />
    <glyph glyph-name="zacute" unicode="&#x17a;" horiz-adv-x="527" 
d="M493 528v-80l-270 -339h268v-109h-461v77l273 343h-258v108h448zM112 606v6l163 154l162 2v-5l-193 -157h-132z" />
    <glyph glyph-name="zcaron" unicode="&#x17e;" horiz-adv-x="527" 
d="M493 528v-80l-270 -339h268v-109h-461v77l273 343h-258v108h448zM66 764h123l68 -90l67 90h122l-131 -165h-118z" />
    <glyph glyph-name="zdotaccent" unicode="&#x17c;" horiz-adv-x="527" 
d="M493 528v-80l-270 -339h268v-109h-461v77l273 343h-258v108h448zM177 693c0 43 35 78 78 78c44 0 79 -35 79 -78c0 -44 -35 -78 -79 -78c-43 0 -78 34 -78 78z" />
    <glyph glyph-name="zero" unicode="0" 
d="M307 614c-90 0 -120 -74 -120 -249c0 -174 30 -249 120 -249c89 0 119 75 119 249c0 175 -30 249 -119 249zM37 365c0 245 71 379 270 379s269 -134 269 -379c0 -244 -70 -379 -269 -379s-270 135 -270 379z" />
    <glyph glyph-name="one" unicode="1" 
d="M458 732v-732h-147v553h-165v83l187 96h125z" />
    <glyph glyph-name="two" unicode="2" 
d="M320 744c156 0 249 -90 249 -216c0 -113 -61 -192 -241 -328l-99 -76h340v-124h-525v139l151 119c178 135 224 184 224 256c0 65 -41 100 -110 100c-78 0 -111 -40 -116 -115h-148c8 158 91 245 275 245z" />
    <glyph glyph-name="three" unicode="3" 
d="M313 744c149 0 251 -66 251 -198c0 -87 -56 -148 -138 -174c98 -24 147 -88 147 -181c0 -137 -111 -205 -259 -205c-168 0 -260 60 -272 225h147c7 -62 41 -97 119 -97c67 0 115 31 115 96c0 68 -55 98 -154 98l-59 1v121h59c73 0 145 17 145 96c0 58 -39 90 -104 90
c-67 0 -103 -36 -110 -97h-147c6 133 83 225 260 225z" />
    <glyph glyph-name="four" unicode="4" 
d="M346 730h155v-416h86v-128h-86v-186h-146v186h-328v132zM161 314h194v248z" />
    <glyph glyph-name="five" unicode="5" 
d="M547 730v-128h-320l-26 -201c28 61 81 81 152 81c133 0 224 -84 224 -242c0 -147 -99 -254 -263 -254c-174 0 -260 67 -270 215h148c8 -55 41 -88 114 -88c74 0 120 47 120 123c0 84 -52 122 -117 122c-58 0 -94 -23 -115 -67h-142l50 439h445z" />
    <glyph glyph-name="six" unicode="6" 
d="M325 744c154 0 229 -71 244 -213h-147c-11 55 -41 85 -101 85c-81 0 -130 -57 -132 -243c17 73 83 101 163 101c140 0 227 -93 227 -235c0 -164 -117 -253 -266 -253c-167 0 -272 96 -272 352c0 269 78 406 284 406zM195 242c0 -70 45 -128 121 -128c70 0 117 50 117 121
c0 68 -46 115 -121 115c-77 0 -117 -48 -117 -108z" />
    <glyph glyph-name="seven" unicode="7" 
d="M582 614c-131 -166 -231 -372 -302 -614h-158c69 223 164 425 280 602h-357v128h537v-116z" />
    <glyph glyph-name="eight" unicode="8" 
d="M309 744c159 0 256 -81 256 -197c0 -85 -50 -143 -126 -168c79 -25 144 -87 144 -188c0 -144 -121 -207 -275 -207c-175 0 -278 69 -278 212c0 96 63 158 141 183c-70 26 -111 84 -111 166c0 114 91 199 249 199zM181 209c0 -70 61 -97 128 -97c68 0 125 29 125 97
c0 62 -52 101 -128 101c-75 0 -125 -40 -125 -101zM201 527c0 -62 54 -87 109 -87c56 0 114 26 114 87c0 57 -48 89 -115 89c-62 0 -108 -35 -108 -89z" />
    <glyph glyph-name="nine" unicode="9" 
d="M290 -14c-150 0 -226 74 -241 220h148c10 -61 40 -92 100 -92c84 0 125 59 125 247c-19 -69 -89 -105 -161 -105c-144 0 -222 96 -222 241c0 159 114 247 258 247c169 0 272 -89 272 -351c0 -263 -69 -407 -279 -407zM184 499c0 -79 44 -119 114 -119
c78 0 118 49 118 108c0 70 -34 128 -114 128c-71 0 -118 -41 -118 -117z" />
    <glyph glyph-name="zero.prop" horiz-adv-x="637" 
d="M319 614c-95 0 -128 -72 -128 -249s33 -249 128 -249c96 0 128 72 128 249s-32 249 -128 249zM41 365c0 241 73 379 278 379s278 -138 278 -379c0 -240 -73 -379 -278 -379s-278 139 -278 379z" />
    <glyph glyph-name="one.prop" horiz-adv-x="482" 
d="M380 732v-732h-147v553h-165v83l187 96h125z" />
    <glyph glyph-name="two.prop" 
d="M320 744c156 0 249 -90 249 -216c0 -113 -61 -192 -241 -328l-99 -76h340v-124h-525v139l151 119c178 135 224 184 224 256c0 65 -41 100 -110 100c-78 0 -111 -40 -116 -115h-148c8 158 91 245 275 245z" />
    <glyph glyph-name="three.prop" 
d="M313 744c149 0 251 -66 251 -198c0 -87 -56 -148 -138 -174c98 -24 147 -88 147 -181c0 -137 -111 -205 -259 -205c-168 0 -260 60 -272 225h147c7 -62 41 -97 119 -97c67 0 115 31 115 96c0 68 -55 98 -154 98l-59 1v121h59c73 0 145 17 145 96c0 58 -39 90 -104 90
c-67 0 -103 -36 -110 -97h-147c6 133 83 225 260 225z" />
    <glyph glyph-name="four.prop" 
d="M346 730h155v-416h86v-128h-86v-186h-146v186h-328v132zM161 314h194v248z" />
    <glyph glyph-name="five.prop" 
d="M547 730v-128h-320l-26 -201c28 61 81 81 152 81c133 0 224 -84 224 -242c0 -147 -99 -254 -263 -254c-174 0 -260 67 -270 215h148c8 -55 41 -88 114 -88c74 0 120 47 120 123c0 84 -52 122 -117 122c-58 0 -94 -23 -115 -67h-142l50 439h445z" />
    <glyph glyph-name="six.prop" 
d="M325 744c154 0 229 -71 244 -213h-147c-11 55 -41 85 -101 85c-81 0 -130 -57 -132 -243c17 73 83 101 163 101c140 0 227 -93 227 -235c0 -164 -117 -253 -266 -253c-167 0 -272 96 -272 352c0 269 78 406 284 406zM195 242c0 -70 45 -128 121 -128c70 0 117 50 117 121
c0 68 -46 115 -121 115c-77 0 -117 -48 -117 -108z" />
    <glyph glyph-name="seven.prop" horiz-adv-x="590" 
d="M567 614c-131 -166 -231 -372 -302 -614h-158c69 223 164 425 280 602h-357v128h537v-116z" />
    <glyph glyph-name="eight.prop" 
d="M309 744c159 0 256 -81 256 -197c0 -85 -50 -143 -126 -168c79 -25 144 -87 144 -188c0 -144 -121 -207 -275 -207c-175 0 -278 69 -278 212c0 96 63 158 141 183c-70 26 -111 84 -111 166c0 114 91 199 249 199zM181 209c0 -70 61 -97 128 -97c68 0 125 29 125 97
c0 62 -52 101 -128 101c-75 0 -125 -40 -125 -101zM201 527c0 -62 54 -87 109 -87c56 0 114 26 114 87c0 57 -48 89 -115 89c-62 0 -108 -35 -108 -89z" />
    <glyph glyph-name="nine.prop" 
d="M290 -14c-150 0 -226 74 -241 220h148c10 -61 40 -92 100 -92c84 0 125 59 125 247c-19 -69 -89 -105 -161 -105c-144 0 -222 96 -222 241c0 159 114 247 258 247c169 0 272 -89 272 -351c0 -263 -69 -407 -279 -407zM184 499c0 -79 44 -119 114 -119
c78 0 118 49 118 108c0 70 -34 128 -114 128c-71 0 -118 -41 -118 -117z" />
    <glyph glyph-name="fraction" unicode="&#x2044;" horiz-adv-x="212" 
d="M388 690l-447 -690h-117l448 690h116z" />
    <glyph glyph-name="period" unicode="." horiz-adv-x="254" 
d="M127 -14c-51 0 -92 42 -92 93s41 93 92 93c52 0 93 -42 93 -93s-41 -93 -93 -93z" />
    <glyph glyph-name="comma" unicode="," horiz-adv-x="254" 
d="M195 162v-41l-66 -279h-125l58 320h133z" />
    <glyph glyph-name="colon" unicode=":" horiz-adv-x="254" 
d="M127 -4c-51 0 -92 42 -92 93s41 93 92 93c52 0 93 -42 93 -93s-41 -93 -93 -93zM35 438c0 51 41 93 92 93c52 0 93 -42 93 -93s-41 -93 -93 -93c-51 0 -92 42 -92 93z" />
    <glyph glyph-name="semicolon" unicode=";" horiz-adv-x="254" 
d="M127 345c-51 0 -92 42 -92 93s41 93 92 93c52 0 93 -42 93 -93s-41 -93 -93 -93zM4 -158l58 320h133v-41l-66 -279h-125z" />
    <glyph glyph-name="ellipsis" unicode="&#x2026;" horiz-adv-x="699" 
d="M127 -14c-51 0 -92 42 -92 93s41 93 92 93c52 0 93 -42 93 -93s-41 -93 -93 -93zM258 79c0 51 41 93 92 93c52 0 93 -42 93 -93s-41 -93 -93 -93c-51 0 -92 42 -92 93zM480 79c0 51 41 93 92 93c52 0 93 -42 93 -93s-41 -93 -93 -93c-51 0 -92 42 -92 93z" />
    <glyph glyph-name="exclam" unicode="!" horiz-adv-x="313" 
d="M230 730l-9 -509h-129l-9 509h147zM66 77c0 50 41 91 91 91c51 0 91 -41 91 -91s-40 -91 -91 -91c-50 0 -91 41 -91 91z" />
    <glyph glyph-name="exclamdown" unicode="&#xa1;" horiz-adv-x="313" 
d="M83 -200l9 509h129l9 -509h-147zM65 453c0 50 40 91 91 91c50 0 91 -41 91 -91s-41 -91 -91 -91c-51 0 -91 41 -91 91z" />
    <glyph glyph-name="question" unicode="?" horiz-adv-x="613" 
d="M307 744c139 0 263 -59 263 -204c0 -96 -53 -150 -144 -214c-53 -40 -66 -58 -69 -105h-134c-1 93 22 123 108 179c62 42 88 71 88 126c0 59 -49 88 -117 88c-84 0 -126 -35 -132 -103h-145c4 145 85 233 282 233zM199 77c0 50 41 91 91 91c51 0 91 -41 91 -91
s-40 -91 -91 -91c-50 0 -91 41 -91 91z" />
    <glyph glyph-name="questiondown" unicode="&#xbf;" horiz-adv-x="531" 
d="M262 -213c-139 0 -263 59 -263 204c0 96 53 150 144 214c53 40 66 58 69 105h134c1 -93 -22 -123 -108 -179c-62 -42 -88 -71 -88 -126c0 -59 49 -88 117 -88c84 0 126 35 132 103h145c-4 -145 -85 -233 -282 -233zM188 454c0 50 40 91 91 91c50 0 91 -41 91 -91
s-41 -91 -91 -91c-51 0 -91 41 -91 91z" />
    <glyph glyph-name="periodcentered" unicode="&#xb7;" horiz-adv-x="249" 
d="M124 232c-45 0 -83 37 -83 83s38 83 83 83c46 0 84 -37 84 -83s-38 -83 -84 -83z" />
    <glyph glyph-name="bullet" unicode="&#x2022;" horiz-adv-x="323" 
d="M162 223c-52 0 -93 41 -93 92s41 92 93 92c50 0 92 -41 92 -92s-42 -92 -92 -92z" />
    <glyph glyph-name="asterisk" unicode="*" horiz-adv-x="624" 
d="M45 327l37 114l178 -67l-9 189h120l-8 -189l178 67l38 -114l-185 -50l124 -153l-96 -72l-110 165l-111 -165l-96 72l124 153z" />
    <glyph glyph-name="numbersign" unicode="#" horiz-adv-x="637" 
d="M542 730l-41 -202h86v-87h-103l-29 -144h102v-88h-120l-42 -209h-101l42 209h-98l-42 -209h-101l42 209h-86v88h104l29 144h-103v87h120l41 202h101l-41 -202h98l41 202h101zM256 297h98l29 144h-98z" />
    <glyph glyph-name="slash" unicode="/" horiz-adv-x="344" 
d="M353 780l-251 -860h-110l251 860h110z" />
    <glyph glyph-name="backslash" unicode="\" horiz-adv-x="345" 
d="M-8 780h110l251 -860h-110z" />
    <glyph glyph-name="colon.case" horiz-adv-x="254" 
d="M127 66c-51 0 -92 42 -92 93s41 93 92 93c52 0 93 -42 93 -93s-41 -93 -93 -93zM35 508c0 51 41 93 92 93c52 0 93 -42 93 -93s-41 -93 -93 -93c-51 0 -92 42 -92 93z" />
    <glyph glyph-name="semicolon.case" horiz-adv-x="254" 
d="M127 415c-51 0 -92 42 -92 93s41 93 92 93c52 0 93 -42 93 -93s-41 -93 -93 -93zM4 -88l58 320h133v-41l-66 -279h-125z" />
    <glyph glyph-name="hyphen" unicode="-" horiz-adv-x="329" 
d="M297 346v-112h-265v112h265z" />
    <glyph glyph-name="endash" unicode="&#x2013;" horiz-adv-x="531" 
d="M448 346v-100h-366v100h366z" />
    <glyph glyph-name="emdash" unicode="&#x2014;" horiz-adv-x="1000" 
d="M918 346v-100h-836v100h836z" />
    <glyph glyph-name="underscore" unicode="_" horiz-adv-x="500" 
d="M490 -36v-100h-480v100h480z" />
    <glyph glyph-name="hyphen.case" horiz-adv-x="329" 
d="M297 431v-127h-265v127h265z" />
    <glyph glyph-name="endash.case" horiz-adv-x="531" 
d="M448 432v-128h-366v128h366z" />
    <glyph glyph-name="emdash.case" horiz-adv-x="1000" 
d="M918 431v-127h-836v127h836z" />
    <glyph glyph-name="parenleft" unicode="(" horiz-adv-x="347" 
d="M310 750c-81 -136 -128 -298 -128 -450s47 -314 128 -450h-126c-84 141 -121 291 -121 450s37 309 121 450h126z" />
    <glyph glyph-name="parenright" unicode=")" horiz-adv-x="347" 
d="M163 750c84 -141 121 -291 121 -450s-37 -309 -121 -450h-126c81 136 128 298 128 450s-47 314 -128 450h126z" />
    <glyph glyph-name="braceleft" unicode="{" horiz-adv-x="390" 
d="M269 -140c-90 0 -157 34 -157 114c0 29 3 58 13 123c7 47 10 75 10 98c0 33 -18 62 -88 64v82c70 2 88 31 88 64c0 23 -3 51 -10 98c-10 65 -13 94 -13 123c0 80 67 114 157 114h89v-94h-55c-54 0 -80 -10 -80 -53c0 -15 2 -30 10 -80c7 -53 12 -92 12 -110
c0 -50 -19 -87 -79 -101c60 -14 79 -55 79 -105c0 -18 -4 -57 -12 -110c-8 -50 -10 -65 -10 -80c0 -43 26 -53 80 -53h55v-94h-89z" />
    <glyph glyph-name="braceright" unicode="}" horiz-adv-x="390" 
d="M121 740c90 0 157 -34 157 -114c0 -29 -3 -58 -13 -123c-7 -47 -10 -75 -10 -98c0 -33 18 -62 88 -64v-82c-70 -2 -88 -31 -88 -64c0 -23 3 -51 10 -98c10 -65 13 -94 13 -123c0 -80 -67 -114 -157 -114h-89v94h55c54 0 80 10 80 53c0 15 -2 30 -10 80
c-7 53 -12 92 -12 110c0 50 19 87 79 101c-60 14 -79 55 -79 105c0 18 4 57 12 110c8 50 10 65 10 80c0 43 -26 53 -80 53h-55v94h89z" />
    <glyph glyph-name="bracketleft" unicode="[" horiz-adv-x="394" 
d="M89 740h273v-94h-166v-692h166v-94h-273v880z" />
    <glyph glyph-name="bracketright" unicode="]" horiz-adv-x="394" 
d="M305 740v-880h-273v94h166v692h-166v94h273z" />
    <glyph glyph-name="parenleft.case" horiz-adv-x="347" 
d="M310 800c-81 -136 -128 -298 -128 -450s47 -314 128 -450h-126c-84 141 -121 291 -121 450s37 309 121 450h126z" />
    <glyph glyph-name="parenright.case" horiz-adv-x="347" 
d="M163 800c84 -141 121 -291 121 -450s-37 -309 -121 -450h-126c81 136 128 298 128 450s-47 314 -128 450h126z" />
    <glyph glyph-name="braceleft.case" horiz-adv-x="390" 
d="M269 -90c-90 0 -157 34 -157 114c0 29 3 58 13 123c7 47 10 75 10 98c0 33 -18 62 -88 64v82c70 2 88 31 88 64c0 23 -3 51 -10 98c-10 65 -13 94 -13 123c0 80 67 114 157 114h89v-94h-55c-54 0 -80 -10 -80 -53c0 -15 2 -30 10 -80c7 -53 12 -92 12 -110
c0 -50 -19 -87 -79 -101c60 -14 79 -55 79 -105c0 -18 -4 -57 -12 -110c-8 -50 -10 -65 -10 -80c0 -43 26 -53 80 -53h55v-94h-89z" />
    <glyph glyph-name="braceright.case" horiz-adv-x="390" 
d="M121 790c90 0 157 -34 157 -114c0 -29 -3 -58 -13 -123c-7 -47 -10 -75 -10 -98c0 -33 18 -62 88 -64v-82c-70 -2 -88 -31 -88 -64c0 -23 3 -51 10 -98c10 -65 13 -94 13 -123c0 -80 -67 -114 -157 -114h-89v94h55c54 0 80 10 80 53c0 15 -2 30 -10 80
c-7 53 -12 92 -12 110c0 50 19 87 79 101c-60 14 -79 55 -79 105c0 18 4 57 12 110c8 50 10 65 10 80c0 43 -26 53 -80 53h-55v94h89z" />
    <glyph glyph-name="bracketleft.case" horiz-adv-x="394" 
d="M89 790h273v-94h-166v-692h166v-94h-273v880z" />
    <glyph glyph-name="bracketright.case" horiz-adv-x="394" 
d="M305 790v-880h-273v94h166v692h-166v94h273z" />
    <glyph glyph-name="quotesinglbase" unicode="&#x201a;" horiz-adv-x="254" 
d="M195 162v-41l-66 -279h-125l58 320h133z" />
    <glyph glyph-name="quotedblbase" unicode="&#x201e;" horiz-adv-x="472" 
d="M413 162v-41l-66 -279h-125l58 320h133zM4 -158l58 320h133v-41l-66 -279h-125z" />
    <glyph glyph-name="quotedblleft" unicode="&#x201c;" horiz-adv-x="474" 
d="M270 414v36l67 290h118l-58 -326h-127zM57 414v36l67 290h118l-58 -326h-127z" />
    <glyph glyph-name="quotedblright" unicode="&#x201d;" horiz-adv-x="475" 
d="M418 738v-36l-67 -290h-118l58 326h127zM19 412l58 326h127v-36l-67 -290h-118z" />
    <glyph glyph-name="quoteleft" unicode="&#x2018;" horiz-adv-x="262" 
d="M57 414v36l67 290h118l-58 -326h-127z" />
    <glyph glyph-name="quoteright" unicode="&#x2019;" horiz-adv-x="262" 
d="M204 738v-36l-67 -290h-118l58 326h127z" />
    <glyph glyph-name="guillemotleft" unicode="&#xab;" horiz-adv-x="671" 
d="M475 485h146l-160 -221l160 -220h-146l-159 220zM68 264l159 221h146l-160 -221l160 -220h-146z" />
    <glyph glyph-name="guillemotright" unicode="&#xbb;" horiz-adv-x="671" 
d="M196 485l159 -221l-159 -220h-146l160 220l-160 221h146zM298 44l160 220l-160 221h146l159 -221l-159 -220h-146z" />
    <glyph glyph-name="guilsinglleft" unicode="&#x2039;" horiz-adv-x="423" 
d="M227 485h146l-160 -221l160 -220h-146l-159 220z" />
    <glyph glyph-name="guilsinglright" unicode="&#x203a;" horiz-adv-x="423" 
d="M196 485l159 -221l-159 -220h-146l160 220l-160 221h146z" />
    <glyph glyph-name="quotedbl" unicode="&#x22;" horiz-adv-x="400" 
d="M171 738l-10 -325h-111l-10 325h131zM229 738h131l-10 -325h-111z" />
    <glyph glyph-name="quotesingle" unicode="'" horiz-adv-x="211" 
d="M171 738l-10 -325h-111l-10 325h131z" />
    <glyph glyph-name="guillemotleft.case" horiz-adv-x="671" 
d="M475 555h146l-160 -221l160 -220h-146l-159 220zM68 334l159 221h146l-160 -221l160 -220h-146z" />
    <glyph glyph-name="guillemotright.case" horiz-adv-x="671" 
d="M196 555l159 -221l-159 -220h-146l160 220l-160 221h146zM298 114l160 220l-160 221h146l159 -221l-159 -220h-146z" />
    <glyph glyph-name="guilsinglleft.case" horiz-adv-x="423" 
d="M227 555h146l-160 -221l160 -220h-146l-159 220z" />
    <glyph glyph-name="guilsinglright.case" horiz-adv-x="423" 
d="M196 555l159 -221l-159 -220h-146l160 220l-160 221h146z" />
    <glyph glyph-name="at" unicode="@" horiz-adv-x="1012" 
d="M604 52v68c-20 -48 -62 -81 -129 -81c-120 0 -193 77 -193 241c0 142 64 242 191 242c69 0 113 -35 133 -81l4 68h121v-368h1c77 0 139 33 139 180c0 220 -131 330 -346 330c-237 0 -371 -154 -371 -371c0 -247 132 -371 362 -371c113 0 206 30 282 77v-99
c-72 -45 -173 -71 -282 -71c-269 0 -460 136 -460 464c0 266 170 464 469 464c282 0 443 -170 443 -423c0 -192 -104 -269 -236 -269h-128zM418 280c0 -94 35 -130 92 -130c49 0 91 35 91 113v34c0 69 -27 113 -91 113c-65 0 -92 -50 -92 -130z" />
    <glyph glyph-name="ampersand" unicode="&#x26;" horiz-adv-x="745" 
d="M140 568c0 106 74 176 200 176c130 0 198 -68 198 -166c0 -81 -44 -131 -139 -192l134 -143c23 39 38 87 44 142h127c-2 -88 -31 -177 -81 -238l138 -147h-172l-57 62c-64 -51 -134 -76 -222 -76c-148 0 -264 68 -264 210c0 93 53 162 165 214c-47 55 -71 98 -71 158z
M195 211c0 -67 56 -99 128 -99c44 0 88 13 126 39l-165 177c-57 -33 -89 -65 -89 -117zM275 563c0 -31 14 -57 50 -97c55 35 80 65 80 100c0 33 -22 63 -63 63c-43 0 -67 -27 -67 -66z" />
    <glyph glyph-name="paragraph" unicode="&#xb6;" horiz-adv-x="751" 
d="M680 730v-840h-146v715h-123v-715h-146v433h-9c-18 0 -39 0 -56 1c-102 6 -157 89 -157 203c0 113 55 196 157 202c17 1 38 1 56 1h424z" />
    <glyph glyph-name="section" unicode="&#xa7;" horiz-adv-x="645" 
d="M320 744c176 0 244 -70 254 -187h-137c-6 64 -55 84 -117 84c-65 0 -103 -31 -103 -69c0 -54 53 -75 132 -93c172 -38 247 -103 247 -214c0 -73 -41 -122 -99 -150c49 -32 77 -76 77 -139c0 -99 -87 -180 -251 -180c-176 0 -244 70 -254 187h137c6 -64 57 -84 119 -84
c67 0 105 31 105 69c0 54 -58 75 -134 93c-172 39 -246 103 -246 214c0 73 41 122 100 150c-49 32 -77 76 -77 139c0 99 85 180 247 180zM199 291c0 -56 42 -87 140 -113l27 -7c46 6 80 30 80 78c0 56 -42 87 -139 113l-27 7c-46 -6 -81 -30 -81 -78z" />
    <glyph glyph-name="copyright" unicode="&#xa9;" horiz-adv-x="864" 
d="M434 579c124 0 184 -61 196 -163h-111c-7 43 -31 68 -87 68c-67 0 -95 -48 -95 -117c0 -75 33 -120 96 -120c45 0 78 21 87 68h111c-19 -102 -83 -163 -201 -163c-132 0 -209 81 -209 214c0 128 79 213 213 213zM33 365c0 237 161 394 399 394s399 -157 399 -394
s-161 -394 -399 -394s-399 157 -399 394zM85 365c0 -207 134 -344 347 -344s347 137 347 344s-134 344 -347 344s-347 -137 -347 -344z" />
    <glyph glyph-name="registered" unicode="&#xae;" horiz-adv-x="505" 
d="M253 764c122 0 210 -82 210 -210c0 -127 -88 -210 -210 -210c-123 0 -210 83 -210 210c0 128 87 210 210 210zM79 554c0 -107 64 -175 174 -175c109 0 174 68 174 175c0 108 -65 175 -174 175c-110 0 -174 -67 -174 -175zM172 457v205h85c45 0 85 -14 85 -62
c0 -27 -19 -43 -45 -49c21 -5 28 -17 33 -40c3 -18 7 -31 11 -43l8 -11h-55c-4 12 -8 26 -12 44c-4 20 -13 26 -34 26h-29v-70h-47zM219 566h31c26 0 42 7 42 29c0 19 -13 28 -40 28h-33v-57z" />
    <glyph glyph-name="trademark" unicode="&#x2122;" horiz-adv-x="823" 
d="M775 730v-352h-83v240c-9 -37 -20 -74 -32 -111l-41 -126h-58l-40 126c-13 39 -24 78 -34 117l1 -246h-84v352h107c27 -75 54 -148 80 -236c26 88 52 161 78 236h106zM28 662v68h339v-68h-128v-284h-83v284h-128z" />
    <glyph glyph-name="degree" unicode="&#xb0;" horiz-adv-x="355" 
d="M178 745c77 0 139 -62 139 -139c0 -76 -62 -138 -139 -138s-140 62 -140 138c0 77 63 139 140 139zM110 606c0 -38 30 -69 68 -69c37 0 67 31 67 69s-30 69 -67 69c-38 0 -68 -31 -68 -69z" />
    <glyph glyph-name="bar" unicode="|" horiz-adv-x="315" 
d="M211 800v-1000h-107v1000h107z" />
    <glyph glyph-name="brokenbar" unicode="&#xa6;" horiz-adv-x="315" 
d="M211 800v-415h-107v415h107zM104 -200v415h107v-415h-107z" />
    <glyph glyph-name="dagger" unicode="&#x2020;" horiz-adv-x="587" 
d="M354 730l-7 -229l182 3v-107l-183 4l8 -561h-121l7 560l-182 -3v107l181 -3l-6 229h121z" />
    <glyph glyph-name="daggerdbl" unicode="&#x2021;" horiz-adv-x="587" 
d="M354 730l-7 -229l182 3v-107l-183 4v-232l183 3v-107l-182 4l7 -229h-121l6 228l-181 -3v107l182 -3v232l-182 -4v107l181 -3l-6 229h121z" />
    <glyph glyph-name="cent" unicode="&#xa2;" horiz-adv-x="637" 
d="M380 723v-92c140 -13 194 -90 203 -196h-142c-5 61 -44 92 -106 92c-78 0 -119 -53 -119 -171c0 -117 37 -173 118 -173c59 0 100 39 107 92h142c-12 -106 -77 -179 -203 -195v-93h-100v92c-148 17 -214 115 -214 275c0 155 65 256 214 276v93h100z" />
    <glyph glyph-name="currency" unicode="&#xa4;" horiz-adv-x="631" 
d="M316 109c-40 0 -77 12 -108 32l-74 -75l-54 54l75 75c-20 30 -32 67 -32 106s12 76 32 106l-75 75l54 54l74 -75c31 20 68 32 108 32c39 0 76 -12 107 -32l74 75l54 -54l-75 -75c20 -30 32 -67 32 -106s-12 -76 -32 -106l75 -75l-54 -54l-74 75c-31 -20 -68 -32 -107 -32
zM209 301c0 -59 48 -107 107 -107c58 0 106 48 106 107s-48 107 -106 107c-59 0 -107 -48 -107 -107z" />
    <glyph glyph-name="dollar" unicode="$" horiz-adv-x="637" 
d="M252 800h132v-91c119 -18 188 -89 191 -207h-138c-5 66 -51 99 -123 99c-63 0 -111 -25 -111 -73c0 -58 43 -79 130 -94c174 -30 264 -91 264 -215c0 -126 -102 -184 -213 -198v-90h-132v92c-115 20 -200 88 -207 213h138c8 -71 60 -106 144 -106c74 0 126 26 126 78
c0 57 -44 79 -125 95c-180 34 -269 87 -269 215c0 108 84 173 193 191v91z" />
    <glyph glyph-name="Euro" unicode="&#x20ac;" horiz-adv-x="637" 
d="M435 744c85 0 143 -21 188 -60l-44 -96c-43 24 -87 33 -139 33c-96 0 -157 -44 -186 -123h275l-23 -107h-271c-1 -9 -1 -18 -1 -27v-28h263l-21 -107h-226c26 -86 87 -119 196 -119c54 0 103 11 148 34v-118c-50 -28 -98 -40 -178 -40c-187 0 -289 76 -321 243h-85
l21 107h53v27v28h-44l22 107h36c38 169 156 246 337 246z" />
    <glyph glyph-name="sterling" unicode="&#xa3;" horiz-adv-x="637" 
d="M329 744c186 0 249 -74 258 -229h-144c-5 84 -43 106 -113 106c-71 0 -107 -36 -107 -92c0 -33 7 -62 27 -115h273v-109h-231c9 -28 13 -50 13 -75c0 -48 -27 -86 -75 -110h365v-120h-548v135c67 9 110 41 110 98c0 21 -4 42 -14 72h-95v109h52c-16 44 -28 86 -28 126
c0 119 91 204 257 204z" />
    <glyph glyph-name="yen" unicode="&#xa5;" horiz-adv-x="637" 
d="M627 730l-183 -336h124v-109h-176v-45h176v-109h-176v-131h-146v131h-175v109h175v45h-175v109h124l-184 336h154l158 -326l155 326h149z" />
    <glyph glyph-name="plus" unicode="+" horiz-adv-x="579" 
d="M340 553v-189h177v-94h-177v-188h-101v188h-177v94h177v189h101z" />
    <glyph glyph-name="minus" unicode="&#x2212;" horiz-adv-x="579" 
d="M511 364v-94h-443v94h443z" />
    <glyph glyph-name="multiply" unicode="&#xd7;" horiz-adv-x="579" 
d="M436 525l-146 -146l-146 146l-63 -63l146 -146l-146 -146l63 -63l146 146l146 -146l63 63l-209 209l-63 -63l63 -63l209 209z" />
    <glyph glyph-name="divide" unicode="&#xf7;" horiz-adv-x="579" 
d="M517 364v-94h-455v94h455zM225 123c0 36 29 65 65 65c35 0 64 -29 64 -65c0 -35 -29 -64 -64 -64c-36 0 -65 29 -65 64zM225 511c0 35 29 64 65 64c35 0 64 -29 64 -64c0 -36 -29 -64 -64 -64c-36 0 -65 28 -65 64z" />
    <glyph glyph-name="equal" unicode="=" horiz-adv-x="595" 
d="M526 469v-93h-457v93h457zM69 165v94h457v-94h-457z" />
    <glyph glyph-name="notequal" unicode="&#x2260;" horiz-adv-x="595" 
d="M463 581l-52 -112h115v-93h-158l-54 -117h212v-94h-256l-52 -112h-104l52 112h-97v94h140l54 117h-194v93h237l52 112h105z" />
    <glyph glyph-name="greater" unicode="&#x3e;" horiz-adv-x="595" 
d="M68 20l1 103l323 138l-323 138v105l444 -190v-104z" />
    <glyph glyph-name="less" unicode="&#x3c;" horiz-adv-x="595" 
d="M526 510v-103l-323 -138l323 -138v-105l-444 190v104z" />
    <glyph glyph-name="greaterequal" unicode="&#x2265;" horiz-adv-x="595" 
d="M79 139v102l319 91l-319 95v100l425 -142v-103zM79 0v94h425v-94h-425z" />
    <glyph glyph-name="lessequal" unicode="&#x2264;" horiz-adv-x="595" 
d="M515 527v-101l-317 -92l317 -95v-100l-424 143v103zM91 0v94h424v-94h-424z" />
    <glyph glyph-name="plusminus" unicode="&#xb1;" horiz-adv-x="595" 
d="M347 550v-155h166v-94h-166v-156h-100v156h-166v94h166v155h100zM81 0v94h432v-94h-432z" />
    <glyph glyph-name="approxequal" unicode="&#x2248;" horiz-adv-x="595" 
d="M185 471c29 0 49 -5 112 -34c47 -23 77 -33 98 -33c20 0 30 8 50 57l79 -25c-40 -106 -61 -125 -111 -125c-28 0 -51 6 -112 34c-48 24 -76 33 -97 33s-34 -8 -55 -57l-79 26c41 106 65 124 115 124zM70 140c41 105 65 124 115 124c29 0 49 -5 112 -35
c47 -22 77 -32 98 -32c20 0 30 8 50 56l79 -25c-40 -105 -61 -125 -111 -125c-28 0 -51 7 -112 35c-48 23 -76 32 -97 32s-34 -8 -55 -56z" />
    <glyph glyph-name="asciitilde" unicode="~" horiz-adv-x="579" 
d="M177 387c29 0 50 -5 113 -34c46 -23 76 -33 97 -33s30 8 51 56l78 -24c-40 -106 -60 -126 -110 -126c-29 0 -52 7 -113 35c-48 24 -76 33 -97 33s-34 -8 -55 -57l-78 26c40 106 64 124 114 124z" />
    <glyph glyph-name="logicalnot" unicode="&#xac;" horiz-adv-x="579" 
d="M486 411v-224h-100v130h-304v94h404z" />
    <glyph glyph-name="asciicircum" unicode="^" horiz-adv-x="579" 
d="M340 740l182 -359h-109l-120 240l-121 -240h-107l182 359h93z" />
    <glyph glyph-name="emptyset" unicode="&#x2205;" horiz-adv-x="923" 
d="M461 748c95 0 183 -34 251 -91l84 84l54 -54l-85 -85c54 -67 86 -152 86 -247c0 -223 -178 -393 -390 -393c-93 0 -179 33 -247 89l-88 -88l-54 54l88 88c-55 67 -88 154 -88 250c0 223 178 393 389 393zM149 355c0 -75 24 -143 65 -196l444 444c-54 45 -123 71 -197 71
c-168 0 -312 -136 -312 -319zM267 104c54 -43 122 -68 194 -68c168 0 312 136 312 319c0 74 -23 140 -62 193z" />
    <glyph glyph-name="infinity" unicode="&#x221e;" horiz-adv-x="1086" 
d="M46 317c0 147 105 246 245 246c109 0 186 -47 255 -146c66 97 146 146 248 146c137 0 245 -100 245 -245c0 -147 -105 -246 -245 -246c-109 0 -186 47 -255 146c-66 -97 -146 -146 -248 -146c-137 0 -245 100 -245 245zM177 317c0 -92 68 -130 125 -130
c55 0 119 42 160 130c-53 96 -107 131 -160 131c-55 0 -125 -38 -125 -131zM623 318c53 -96 107 -131 160 -131c55 0 125 38 125 131c0 92 -68 130 -125 130c-55 0 -119 -42 -160 -130z" />
    <glyph glyph-name="integral" unicode="&#x222b;" horiz-adv-x="617" 
d="M478 744c40 0 78 -5 109 -14v-125c-28 8 -55 10 -83 10c-58 0 -67 -24 -79 -87l-92 -505c-26 -139 -77 -197 -191 -197c-42 0 -79 3 -112 13v125c22 -7 56 -10 79 -10c52 0 70 24 83 94l92 502c24 132 61 194 194 194z" />
    <glyph glyph-name="product" unicode="&#x220f;" horiz-adv-x="817" 
d="M777 730v-128h-102v-718h-146v718h-240v-718h-147v718h-102v128h737z" />
    <glyph glyph-name="summation" unicode="&#x2211;" horiz-adv-x="703" 
d="M642 730v-128h-393l272 -293l-281 -291h425v-128h-631v104l313 317l-295 309v110h590z" />
    <glyph glyph-name="radical" unicode="&#x221a;" horiz-adv-x="660" 
d="M723 870l-304 -1030h-188l-106 354h-104v116h211l95 -321l249 881h147z" />
    <glyph glyph-name="partialdiff" unicode="&#x2202;" horiz-adv-x="636" 
d="M323 744c197 0 272 -120 272 -329c0 -270 -101 -429 -317 -429c-138 0 -245 86 -245 246c0 193 99 287 265 287c70 0 122 -21 148 -73c-2 113 -39 182 -154 182c-52 0 -88 -9 -145 -35l-38 97c69 40 138 54 214 54zM184 241c0 -88 39 -139 112 -139c83 0 140 80 148 227
c-22 52 -74 74 -126 74c-82 0 -134 -43 -134 -162z" />
    <glyph glyph-name="percent" unicode="%" horiz-adv-x="845" 
d="M718 730l-484 -730h-116l484 730h116zM43 567c0 108 63 177 169 177c111 0 176 -69 176 -177s-65 -178 -176 -178c-106 0 -169 70 -169 178zM139 567c0 -62 26 -94 73 -94c48 0 74 32 74 94s-26 93 -74 93c-47 0 -73 -31 -73 -93zM458 163c0 109 62 178 169 178
c111 0 175 -69 175 -178c0 -107 -64 -177 -175 -177c-107 0 -169 70 -169 177zM554 163c0 -61 26 -93 73 -93s73 32 73 93c0 63 -26 94 -73 94s-73 -31 -73 -94z" />
    <glyph glyph-name="perthousand" unicode="&#x2030;" horiz-adv-x="1230" 
d="M1011 341c111 0 175 -69 175 -178c0 -107 -64 -177 -175 -177c-107 0 -169 70 -169 177c0 109 62 178 169 178zM43 567c0 108 63 177 169 177c111 0 176 -69 176 -177s-65 -178 -176 -178c-106 0 -169 70 -169 178zM118 0l484 730h116l-484 -730h-116zM139 567
c0 -62 26 -94 73 -94c48 0 74 32 74 94s-26 93 -74 93c-47 0 -73 -31 -73 -93zM458 163c0 109 62 178 169 178c111 0 175 -69 175 -178c0 -107 -64 -177 -175 -177c-107 0 -169 70 -169 177zM554 163c0 -61 26 -93 73 -93s73 32 73 93c0 63 -26 94 -73 94s-73 -31 -73 -94z
M938 163c0 -61 26 -93 73 -93s73 32 73 93c0 63 -26 94 -73 94s-73 -31 -73 -94z" />
    <glyph glyph-name="lozenge" unicode="&#x25ca;" horiz-adv-x="597" 
d="M368 730l187 -365l-187 -365h-138l-187 365l187 365h138zM151 365l148 -293l147 293l-147 293z" />
    <glyph glyph-name="uni0326" unicode="&#x326;" horiz-adv-x="0" 
d="M334 -46v-8l-176 -136h-132l154 144h154z" />
    <glyph glyph-name="dieresis" unicode="&#xa8;" horiz-adv-x="461" 
d="M133 624c-39 0 -69 30 -69 69c0 38 30 69 69 69c38 0 69 -31 69 -69c0 -39 -31 -69 -69 -69zM259 693c0 38 31 69 69 69c39 0 69 -31 69 -69c0 -39 -30 -69 -69 -69c-38 0 -69 30 -69 69z" />
    <glyph glyph-name="dotaccent" unicode="&#x2d9;" horiz-adv-x="423" 
d="M211 615c-43 0 -78 34 -78 78c0 43 35 78 78 78c44 0 79 -35 79 -78c0 -44 -35 -78 -79 -78z" />
    <glyph glyph-name="grave" unicode="`" horiz-adv-x="461" 
d="M58 763v5l163 -2l163 -154v-6h-132z" />
    <glyph glyph-name="acute" unicode="&#xb4;" horiz-adv-x="461" 
d="M412 763l-193 -157h-132v6l163 154l162 2v-5z" />
    <glyph glyph-name="hungarumlaut" unicode="&#x2dd;" horiz-adv-x="461" 
d="M276 763l-163 -163h-107v6l138 160l132 2v-5zM232 600v6l139 160l132 2v-5l-163 -163h-108z" />
    <glyph glyph-name="circumflex" unicode="&#x2c6;" horiz-adv-x="461" 
d="M289 770l132 -165h-123l-68 90l-67 -90h-122l131 165h117z" />
    <glyph glyph-name="caron" unicode="&#x2c7;" horiz-adv-x="461" 
d="M172 599l-131 165h123l68 -90l67 90h122l-131 -165h-118z" />
    <glyph glyph-name="breve" unicode="&#x2d8;" horiz-adv-x="461" 
d="M231 596c-134 0 -171 70 -170 171h100c0 -55 15 -94 70 -94c54 0 69 38 70 94h100c0 -101 -36 -171 -170 -171z" />
    <glyph glyph-name="ring" unicode="&#x2da;" horiz-adv-x="461" 
d="M184 704c0 -29 17 -46 47 -46c29 0 46 17 46 46c0 30 -17 46 -46 46c-30 0 -47 -16 -47 -46zM94 704c0 71 58 107 137 107c78 0 137 -36 137 -107c0 -70 -59 -106 -137 -106c-79 0 -137 36 -137 106z" />
    <glyph glyph-name="tilde" unicode="&#x2dc;" horiz-adv-x="461" 
d="M139 750c23 0 47 -7 90 -24c31 -13 61 -22 76 -22c18 0 24 7 36 44l79 -22c-32 -96 -50 -116 -98 -116c-23 0 -50 7 -90 24c-33 15 -60 22 -75 22c-19 0 -25 -7 -37 -44l-79 22c32 96 50 116 98 116z" />
    <glyph glyph-name="macron" unicode="&#xaf;" horiz-adv-x="461" 
d="M379 722v-85h-297v85h297z" />
    <glyph glyph-name="cedilla" unicode="&#xb8;" horiz-adv-x="423" 
d="M261 6l-23 -36c56 -10 86 -35 86 -81c0 -61 -65 -93 -146 -93c-27 0 -48 1 -70 6v65c17 -5 31 -6 41 -6c39 0 58 8 58 27c0 23 -25 35 -74 33v22l41 63h87z" />
    <glyph glyph-name="ogonek" unicode="&#x2db;" horiz-adv-x="461" 
d="M344 0c-48 -16 -83 -53 -83 -84c0 -25 17 -39 47 -39c13 0 28 3 39 8l-9 -72c-25 -10 -54 -17 -93 -17c-51 0 -99 22 -99 83c0 66 59 113 123 142z" />
    </font>
</defs>
</svg>
