<?xml version="1.0" standalone="no"?>
<!DOCTYPE svg PUBLIC "-//W3C//DTD SVG 1.1//EN" "http://www.w3.org/Graphics/SVG/1.1/DTD/svg11.dtd" >
<svg xmlns="http://www.w3.org/2000/svg" xmlns:xlink="http://www.w3.org/1999/xlink" version="1.1">
<metadata>
Created by FontForge 20220308 at Wed Dec 29 17:58:24 2021
 By Shift
Copyright \(C\) 2021 by Sora Sagano.
</metadata>
<defs>
<font id="Nacelle-Black" horiz-adv-x="662" >
  <font-face 
    font-family="Nacelle Black"
    font-weight="900"
    font-stretch="normal"
    units-per-em="1000"
    panose-1="0 0 0 0 0 0 0 0 0 0"
    ascent="770"
    descent="-230"
    x-height="540"
    cap-height="730"
    bbox="-160 -230 1352 1023"
    underline-thickness="50"
    underline-position="-125"
    stemh="156"
    stemv="220"
    unicode-range="U+0020-FB02"
  />
<missing-glyph horiz-adv-x="500" 
d="M410 770v-1000h-317v1000h317zM167 -161h166v33h-102l70 47h32v33h-166v-33h70l-70 -47v-33zM167 -25h166v113h-166v-113zM167 148h166v113h-100v-56h34v23h33v-47h-100v80h-33v-113zM167 283h166v100h-33v-66h-133v-34zM167 340h100v70h66v33h-166v-33h66v-37h-66v-33z
M167 470h166v34h-66v70h-100v-104zM167 600h166v33h-66v37h66v33h-165v-33h65v-37h-66v-33zM200 8v47h100v-47h-100zM200 504v36h33v-36h-33z" />
    <glyph glyph-name="fi" unicode="fi" horiz-adv-x="740" 
d="M308 744c32 0 63 -2 90 -5v-140c-81 8 -108 6 -108 -45v-14h99v-156h-99v-384h-220v384h-57v156h57c0 14 0 26 1 42c8 100 60 162 237 162zM464 720c0 62 50 112 112 112s112 -50 112 -112s-50 -112 -112 -112s-112 50 -112 112zM466 0v540h220v-540h-220z" />
    <glyph glyph-name="fl" unicode="fl" horiz-adv-x="763" 
d="M308 744c32 0 63 -2 90 -5v-140c-81 8 -108 6 -108 -45v-14h99v-156h-99v-384h-220v384h-57v156h57c0 14 0 26 1 42c8 100 60 162 237 162zM462 221v509h220v-507c0 -68 12 -80 67 -75v-149c-27 -5 -88 -9 -121 -9c-119 0 -159 43 -164 136c-2 28 -2 55 -2 95z" />
    <glyph glyph-name=".notdef" horiz-adv-x="500" 
d="M410 770v-1000h-317v1000h317zM167 -161h166v33h-102l70 47h32v33h-166v-33h70l-70 -47v-33zM167 -25h166v113h-166v-113zM167 148h166v113h-100v-56h34v23h33v-47h-100v80h-33v-113zM167 283h166v100h-33v-66h-133v-34zM167 340h100v70h66v33h-166v-33h66v-37h-66v-33z
M167 470h166v34h-66v70h-100v-104zM167 600h166v33h-66v37h66v33h-165v-33h65v-37h-66v-33zM200 8v47h100v-47h-100zM200 504v36h33v-36h-33z" />
    <glyph glyph-name="space" unicode=" " horiz-adv-x="246" 
 />
    <glyph glyph-name="space" unicode="&#xa0;" horiz-adv-x="246" 
 />
    <glyph glyph-name="A" unicode="A" horiz-adv-x="780" 
d="M543 730l231 -730h-236l-35 114h-229l-37 -114h-231l237 730h300zM311 284h159l-78 250z" />
    <glyph glyph-name="Aacute" unicode="&#xc1;" horiz-adv-x="780" 
d="M543 730l231 -730h-236l-35 114h-229l-37 -114h-231l237 730h300zM180 784v8l179 148l274 4v-8l-235 -152h-218zM311 284h159l-78 250z" />
    <glyph glyph-name="Abreve" unicode="&#x102;" horiz-adv-x="780" 
d="M543 730l231 -730h-236l-35 114h-229l-37 -114h-231l237 730h300zM184 956h150c2 -34 17 -52 51 -52s50 17 51 52h150c0 -115 -48 -184 -201 -184s-201 69 -201 184zM311 284h159l-78 250z" />
    <glyph glyph-name="Acircumflex" unicode="&#xc2;" horiz-adv-x="780" 
d="M543 730l231 -730h-236l-35 114h-229l-37 -114h-231l237 730h300zM155 777l142 175h177l142 -175h-184l-48 66l-46 -66h-183zM311 284h159l-78 250z" />
    <glyph glyph-name="Adieresis" unicode="&#xc4;" horiz-adv-x="780" 
d="M543 730l231 -730h-236l-35 114h-229l-37 -114h-231l237 730h300zM158 884c0 54 43 97 97 97s97 -43 97 -97s-43 -97 -97 -97s-97 43 -97 97zM311 284h159l-78 250zM418 884c0 54 43 97 97 97s97 -43 97 -97s-43 -97 -97 -97s-97 43 -97 97z" />
    <glyph glyph-name="Agrave" unicode="&#xc0;" horiz-adv-x="780" 
d="M543 730l231 -730h-236l-35 114h-229l-37 -114h-231l237 730h300zM160 936v8l274 -4l179 -148v-8h-218zM311 284h159l-78 250z" />
    <glyph glyph-name="Amacron" unicode="&#x100;" horiz-adv-x="780" 
d="M543 730l231 -730h-236l-35 114h-229l-37 -114h-231l237 730h300zM205 801v126h360v-126h-360zM311 284h159l-78 250z" />
    <glyph glyph-name="Aogonek" unicode="&#x104;" horiz-adv-x="780" 
d="M543 730l231 -730h-10c-48 -8 -75 -36 -75 -55c0 -16 12 -30 41 -30c11 0 25 2 34 5l-14 -103c-29 -12 -67 -21 -121 -21c-59 0 -114 26 -114 97c0 46 33 82 77 107h-54l-35 114h-229l-37 -114h-231l237 730h300zM311 284h159l-78 250z" />
    <glyph glyph-name="Aring" unicode="&#xc5;" horiz-adv-x="780" 
d="M543 730l231 -730h-236l-35 114h-229l-37 -114h-231l237 730h300zM217 896c0 85 70 127 168 127s168 -42 168 -127s-70 -127 -168 -127s-168 42 -168 127zM311 284h159l-78 250zM350 896c0 -26 11 -41 35 -41s35 15 35 41s-11 41 -35 41s-35 -15 -35 -41z" />
    <glyph glyph-name="Atilde" unicode="&#xc3;" horiz-adv-x="780" 
d="M543 730l231 -730h-236l-35 114h-229l-37 -114h-231l237 730h300zM144 819c52 130 73 149 131 149c28 0 59 -7 104 -24c32 -12 68 -22 87 -22c20 0 25 6 44 46l116 -36c-52 -130 -73 -149 -131 -149c-28 0 -59 7 -104 24c-32 12 -68 22 -87 22c-20 0 -25 -6 -44 -46z
M311 284h159l-78 250z" />
    <glyph glyph-name="AE" unicode="&#xc6;" horiz-adv-x="1078" 
d="M1035 730v-190h-367l15 -89h332v-170h-304l15 -91h319v-190h-511l-22 134h-232l-57 -134h-211l323 730h700zM353 304h131l-37 223z" />
    <glyph glyph-name="B" unicode="B" horiz-adv-x="723" 
d="M363 730c37 0 63 0 98 -4c139 -17 200 -81 200 -186c0 -81 -38 -140 -113 -169c97 -22 143 -80 143 -173c0 -124 -104 -182 -210 -194c-35 -4 -68 -4 -112 -4h-309v730h303zM274 176h102c58 0 85 21 85 56c0 33 -26 57 -85 57h-102v-113zM274 443h93c47 0 74 22 74 55
s-24 56 -75 56h-92v-111z" />
    <glyph glyph-name="C" unicode="C" horiz-adv-x="776" 
d="M405 744c227 0 329 -112 345 -286h-220c-15 64 -65 92 -123 92c-86 0 -141 -50 -141 -179c0 -156 71 -191 140 -191c65 0 107 27 122 92h220c-19 -197 -143 -286 -348 -286c-235 0 -364 120 -364 374c0 220 107 384 369 384z" />
    <glyph glyph-name="Cacute" unicode="&#x106;" horiz-adv-x="776" 
d="M405 744c227 0 329 -112 345 -286h-220c-15 64 -65 92 -123 92c-86 0 -141 -50 -141 -179c0 -156 71 -191 140 -191c65 0 107 27 122 92h220c-19 -197 -143 -286 -348 -286c-235 0 -364 120 -364 374c0 220 107 384 369 384zM201 784v8l179 148l274 4v-8l-235 -152h-218z
" />
    <glyph glyph-name="Ccaron" unicode="&#x10c;" horiz-adv-x="776" 
d="M405 744c227 0 329 -112 345 -286h-220c-15 64 -65 92 -123 92c-86 0 -141 -50 -141 -179c0 -156 71 -191 140 -191c65 0 107 27 122 92h220c-19 -197 -143 -286 -348 -286c-235 0 -364 120 -364 374c0 220 107 384 369 384zM186 952h174l48 -74l46 74h173l-142 -175
h-157z" />
    <glyph glyph-name="Ccedilla" unicode="&#xc7;" horiz-adv-x="776" 
d="M405 744c227 0 329 -112 345 -286h-220c-15 64 -65 92 -123 92c-86 0 -141 -50 -141 -179c0 -156 71 -191 140 -191c65 0 107 27 122 92h220c-17 -173 -115 -263 -277 -282l-9 -14c54 -10 82 -32 82 -78c0 -65 -72 -102 -169 -102c-36 0 -60 1 -87 6v92
c18 -4 31 -5 40 -5c28 0 38 6 38 20c0 15 -17 22 -51 19v13l29 47c-200 19 -308 139 -308 372c0 220 107 384 369 384z" />
    <glyph glyph-name="Cdotaccent" unicode="&#x10a;" horiz-adv-x="776" 
d="M405 744c227 0 329 -112 345 -286h-220c-15 64 -65 92 -123 92c-86 0 -141 -50 -141 -179c0 -156 71 -191 140 -191c65 0 107 27 122 92h220c-19 -197 -143 -286 -348 -286c-235 0 -364 120 -364 374c0 220 107 384 369 384zM294 894c0 62 50 112 112 112
s112 -50 112 -112s-50 -112 -112 -112s-112 50 -112 112z" />
    <glyph glyph-name="D" unicode="D" horiz-adv-x="791" 
d="M355 730c37 0 53 0 88 -4c160 -18 312 -86 312 -352s-152 -352 -312 -370c-35 -4 -51 -4 -88 -4h-295v730h295zM284 190h86c104 0 155 42 155 181c0 129 -47 169 -155 169h-86v-350z" />
    <glyph glyph-name="Eth" unicode="&#xd0;" horiz-adv-x="820" 
d="M451 424v-126h-138v-108h86c104 0 155 42 155 181c0 129 -47 169 -155 169h-86v-116h138zM10 298v126h79v306h295c37 0 53 0 88 -4c160 -18 312 -86 312 -352s-152 -352 -312 -370c-35 -4 -51 -4 -88 -4h-295v298h-79z" />
    <glyph glyph-name="Dcaron" unicode="&#x10e;" horiz-adv-x="791" 
d="M355 730c37 0 53 0 88 -4c160 -18 312 -86 312 -352s-152 -352 -312 -370c-35 -4 -51 -4 -88 -4h-295v730h295zM168 952h174l48 -74l46 74h173l-142 -175h-157zM284 190h86c104 0 155 42 155 181c0 129 -47 169 -155 169h-86v-350z" />
    <glyph glyph-name="Dcroat" unicode="&#x110;" horiz-adv-x="820" 
d="M451 424v-126h-138v-108h86c104 0 155 42 155 181c0 129 -47 169 -155 169h-86v-116h138zM10 298v126h79v306h295c37 0 53 0 88 -4c160 -18 312 -86 312 -352s-152 -352 -312 -370c-35 -4 -51 -4 -88 -4h-295v298h-79z" />
    <glyph glyph-name="E" unicode="E" 
d="M623 730v-190h-339v-89h317v-170h-317v-91h345v-190h-569v730h563z" />
    <glyph glyph-name="Eacute" unicode="&#xc9;" 
d="M623 730v-190h-339v-89h317v-170h-317v-91h345v-190h-569v730h563zM145 784v8l179 148l274 4v-8l-235 -152h-218z" />
    <glyph glyph-name="Ecaron" unicode="&#x11a;" 
d="M623 730v-190h-339v-89h317v-170h-317v-91h345v-190h-569v730h563zM130 952h174l48 -74l46 74h173l-142 -175h-157z" />
    <glyph glyph-name="Ecircumflex" unicode="&#xca;" 
d="M623 730v-190h-339v-89h317v-170h-317v-91h345v-190h-569v730h563zM120 777l142 175h177l142 -175h-184l-48 66l-46 -66h-183z" />
    <glyph glyph-name="Edieresis" unicode="&#xcb;" 
d="M623 730v-190h-339v-89h317v-170h-317v-91h345v-190h-569v730h563zM123 884c0 54 43 97 97 97s97 -43 97 -97s-43 -97 -97 -97s-97 43 -97 97zM383 884c0 54 43 97 97 97s97 -43 97 -97s-43 -97 -97 -97s-97 43 -97 97z" />
    <glyph glyph-name="Edotaccent" unicode="&#x116;" 
d="M623 730v-190h-339v-89h317v-170h-317v-91h345v-190h-569v730h563zM238 894c0 62 50 112 112 112s112 -50 112 -112s-50 -112 -112 -112s-112 50 -112 112z" />
    <glyph glyph-name="Egrave" unicode="&#xc8;" 
d="M623 730v-190h-339v-89h317v-170h-317v-91h345v-190h-569v730h563zM125 936v8l274 -4l179 -148v-8h-218z" />
    <glyph glyph-name="Emacron" unicode="&#x112;" 
d="M623 730v-190h-339v-89h317v-170h-317v-91h345v-190h-569v730h563zM170 801v126h360v-126h-360z" />
    <glyph glyph-name="Eogonek" unicode="&#x118;" 
d="M623 730v-190h-339v-89h317v-170h-317v-91h345v-190c-48 -8 -75 -36 -75 -55c0 -16 12 -30 41 -30c11 0 25 2 34 5l-14 -103c-29 -12 -67 -21 -121 -21c-59 0 -114 26 -114 97c0 46 33 82 77 107h-397v730h563z" />
    <glyph glyph-name="F" unicode="F" horiz-adv-x="671" 
d="M643 730v-190h-359v-109h337v-190h-337v-241h-224v730h583z" />
    <glyph glyph-name="G" unicode="G" horiz-adv-x="817" 
d="M266 370c0 -151 52 -200 155 -200c65 0 116 24 116 77v12h-130v158h354v-417h-174l-27 86c-4 -28 -12 -43 -24 -55c-24 -26 -94 -45 -161 -45c-214 0 -339 112 -339 374c0 220 107 384 373 384c234 0 335 -106 350 -270h-220c-13 53 -57 76 -130 76
c-86 0 -143 -41 -143 -180z" />
    <glyph glyph-name="Gbreve" unicode="&#x11e;" horiz-adv-x="817" 
d="M266 370c0 -151 52 -200 155 -200c65 0 116 24 116 77v12h-130v158h354v-417h-174l-27 86c-4 -28 -12 -43 -24 -55c-24 -26 -94 -45 -161 -45c-214 0 -339 112 -339 374c0 220 107 384 373 384c234 0 335 -106 350 -270h-220c-13 53 -57 76 -130 76
c-86 0 -143 -41 -143 -180zM215 956h150c2 -34 17 -52 51 -52s50 17 51 52h150c0 -115 -48 -184 -201 -184s-201 69 -201 184z" />
    <glyph glyph-name="uni0122" unicode="&#x122;" horiz-adv-x="817" 
d="M266 370c0 -151 52 -200 155 -200c65 0 116 24 116 77v12h-130v158h354v-417h-174l-27 86c-4 -28 -12 -43 -24 -55c-24 -26 -94 -45 -161 -45c-214 0 -339 112 -339 374c0 220 107 384 373 384c234 0 335 -106 350 -270h-220c-13 53 -57 76 -130 76
c-86 0 -143 -41 -143 -180zM182 -210l154 153h224v-10l-191 -143h-187z" />
    <glyph glyph-name="Gdotaccent" unicode="&#x120;" horiz-adv-x="817" 
d="M266 370c0 -151 52 -200 155 -200c65 0 116 24 116 77v12h-130v158h354v-417h-174l-27 86c-4 -28 -12 -43 -24 -55c-24 -26 -94 -45 -161 -45c-214 0 -339 112 -339 374c0 220 107 384 373 384c234 0 335 -106 350 -270h-220c-13 53 -57 76 -130 76
c-86 0 -143 -41 -143 -180zM304 894c0 62 50 112 112 112s112 -50 112 -112s-50 -112 -112 -112s-112 50 -112 112z" />
    <glyph glyph-name="H" unicode="H" horiz-adv-x="820" 
d="M760 730v-730h-224v271h-252v-271h-224v730h224v-269h252v269h224z" />
    <glyph glyph-name="Hbar" unicode="&#x126;" horiz-adv-x="850" 
d="M830 633v-126h-48v-507h-224v271h-252v-271h-224v507h-62v126h62v97h224v-97h252v97h224v-97h48zM306 461h252v46h-252v-46z" />
    <glyph glyph-name="I" unicode="I" horiz-adv-x="344" 
d="M284 730v-730h-224v730h224z" />
    <glyph glyph-name="IJ" unicode="&#x132;" horiz-adv-x="1026" 
d="M284 730v-730h-224v730h224zM356 284h220c8 -85 42 -104 95 -104c61 0 85 32 85 91v459h224v-391c0 -32 0 -54 -3 -105c-10 -176 -99 -248 -308 -248c-223 0 -307 99 -313 298z" />
    <glyph glyph-name="Iacute" unicode="&#xcd;" horiz-adv-x="344" 
d="M284 730v-730h-224v730h224zM-33 784v8l179 148l274 4v-8l-235 -152h-218z" />
    <glyph glyph-name="Icircumflex" unicode="&#xce;" horiz-adv-x="344" 
d="M284 730v-730h-224v730h224zM-58 777l142 175h177l142 -175h-184l-48 66l-46 -66h-183z" />
    <glyph glyph-name="Idieresis" unicode="&#xcf;" horiz-adv-x="344" 
d="M284 730v-730h-224v730h224zM-55 884c0 54 43 97 97 97s97 -43 97 -97s-43 -97 -97 -97s-97 43 -97 97zM205 884c0 54 43 97 97 97s97 -43 97 -97s-43 -97 -97 -97s-97 43 -97 97z" />
    <glyph glyph-name="Idotaccent" unicode="&#x130;" horiz-adv-x="344" 
d="M284 730v-730h-224v730h224zM60 894c0 62 50 112 112 112s112 -50 112 -112s-50 -112 -112 -112s-112 50 -112 112z" />
    <glyph glyph-name="Igrave" unicode="&#xcc;" horiz-adv-x="344" 
d="M284 730v-730h-224v730h224zM-53 936v8l274 -4l179 -148v-8h-218z" />
    <glyph glyph-name="Imacron" unicode="&#x12a;" horiz-adv-x="344" 
d="M284 730v-730h-224v730h224zM-8 801v126h360v-126h-360z" />
    <glyph glyph-name="Iogonek" unicode="&#x12e;" horiz-adv-x="344" 
d="M284 730v-730c-48 -8 -75 -36 -75 -55c0 -16 12 -30 41 -30c11 0 25 2 34 5l-14 -103c-29 -12 -67 -21 -121 -21c-59 0 -114 26 -114 97c0 46 33 82 77 107h-52v730h224z" />
    <glyph glyph-name="J" unicode="J" horiz-adv-x="682" 
d="M636 339c0 -32 0 -54 -3 -105c-10 -176 -99 -248 -308 -248c-223 0 -307 99 -313 298h220c8 -85 42 -104 95 -104c61 0 85 32 85 91v459h224v-391z" />
    <glyph glyph-name="K" unicode="K" horiz-adv-x="773" 
d="M770 730l-222 -285l221 -445h-269l-130 265l-86 -107v-158h-224v730h224v-319l229 319h257z" />
    <glyph glyph-name="uni0136" unicode="&#x136;" horiz-adv-x="773" 
d="M770 730l-222 -285l221 -445h-269l-130 265l-86 -107v-158h-224v730h224v-319l229 319h257zM181 -210l154 153h224v-10l-191 -143h-187z" />
    <glyph glyph-name="L" unicode="L" horiz-adv-x="629" 
d="M284 730v-540h325v-190h-549v730h224z" />
    <glyph glyph-name="Lacute" unicode="&#x139;" horiz-adv-x="629" 
d="M284 730v-540h325v-190h-549v730h224zM-33 784v8l179 148l274 4v-8l-235 -152h-218z" />
    <glyph glyph-name="Lcaron" unicode="&#x13d;" horiz-adv-x="629" 
d="M619 740v-44l-104 -322h-168l72 366h200zM60 0v730h224v-540h325v-190h-549z" />
    <glyph glyph-name="uni013B" unicode="&#x13b;" horiz-adv-x="629" 
d="M284 730v-540h325v-190h-549v730h224zM155 -210l154 153h224v-10l-191 -143h-187z" />
    <glyph glyph-name="Ldot" unicode="&#x13f;" horiz-adv-x="642" 
d="M510 352c-62 0 -112 50 -112 112s50 112 112 112s112 -50 112 -112s-50 -112 -112 -112zM60 0v730h224v-540h325v-190h-549z" />
    <glyph glyph-name="Lslash" unicode="&#x141;" horiz-adv-x="669" 
d="M456 568v-143l-132 -69v-166h325v-190h-549v239l-84 -44v143l84 44v348h224v-231z" />
    <glyph glyph-name="M" unicode="M" horiz-adv-x="937" 
d="M877 730v-730h-211v330c0 50 0 121 1 184c-10 -62 -24 -132 -35 -184l-68 -330h-195l-67 330c-10 49 -25 118 -35 179c1 -61 1 -130 1 -179v-330h-208v730h330c48 -214 68 -312 86 -416c18 104 38 202 85 416h316z" />
    <glyph glyph-name="N" unicode="N" horiz-adv-x="788" 
d="M728 730v-730h-259l-136 284c-24 50 -46 101 -68 152c5 -63 6 -118 6 -171v-265h-211v730h258l131 -265c26 -53 51 -107 74 -161c-4 66 -6 129 -6 181v245h211z" />
    <glyph glyph-name="Nacute" unicode="&#x143;" horiz-adv-x="788" 
d="M728 730v-730h-259l-136 284c-24 50 -46 101 -68 152c5 -63 6 -118 6 -171v-265h-211v730h258l131 -265c26 -53 51 -107 74 -161c-4 66 -6 129 -6 181v245h211zM206 784v8l179 148l274 4v-8l-235 -152h-218z" />
    <glyph glyph-name="Ncaron" unicode="&#x147;" horiz-adv-x="788" 
d="M728 730v-730h-259l-136 284c-24 50 -46 101 -68 152c5 -63 6 -118 6 -171v-265h-211v730h258l131 -265c26 -53 51 -107 74 -161c-4 66 -6 129 -6 181v245h211zM191 952h174l48 -74l46 74h173l-142 -175h-157z" />
    <glyph glyph-name="uni0145" unicode="&#x145;" horiz-adv-x="788" 
d="M728 730v-730h-259l-136 284c-24 50 -46 101 -68 152c5 -63 6 -118 6 -171v-265h-211v730h258l131 -265c26 -53 51 -107 74 -161c-4 66 -6 129 -6 181v245h211zM185 -210l154 153h224v-10l-191 -143h-187z" />
    <glyph glyph-name="Ntilde" unicode="&#xd1;" horiz-adv-x="788" 
d="M728 730v-730h-259l-136 284c-24 50 -46 101 -68 152c5 -63 6 -118 6 -171v-265h-211v730h258l131 -265c26 -53 51 -107 74 -161c-4 66 -6 129 -6 181v245h211zM170 819c52 130 73 149 131 149c28 0 59 -7 104 -24c32 -12 68 -22 87 -22c20 0 25 6 44 46l116 -36
c-52 -130 -73 -149 -131 -149c-28 0 -59 7 -104 24c-32 12 -68 22 -87 22c-20 0 -25 -6 -44 -46z" />
    <glyph glyph-name="Eng" unicode="&#x14a;" horiz-adv-x="788" 
d="M728 -27c0 -18 0 -27 -1 -41c-9 -128 -100 -155 -296 -155v152c60 -5 75 11 75 38v33h-37l-136 284c-24 50 -46 101 -68 152c5 -63 6 -118 6 -171v-265h-211v730h258l131 -265c26 -53 51 -107 74 -161c-4 66 -6 129 -6 181v245h211v-757z" />
    <glyph glyph-name="O" unicode="O" horiz-adv-x="816" 
d="M266 365c0 -128 49 -185 142 -185s142 57 142 185s-49 185 -142 185s-142 -57 -142 -185zM36 365c0 255 130 379 372 379s372 -124 372 -379s-130 -379 -372 -379s-372 124 -372 379z" />
    <glyph glyph-name="Oacute" unicode="&#xd3;" horiz-adv-x="816" 
d="M266 365c0 -128 49 -185 142 -185s142 57 142 185s-49 185 -142 185s-142 -57 -142 -185zM36 365c0 255 130 379 372 379s372 -124 372 -379s-130 -379 -372 -379s-372 124 -372 379zM203 784v8l179 148l274 4v-8l-235 -152h-218z" />
    <glyph glyph-name="Ocircumflex" unicode="&#xd4;" horiz-adv-x="816" 
d="M266 365c0 -128 49 -185 142 -185s142 57 142 185s-49 185 -142 185s-142 -57 -142 -185zM36 365c0 255 130 379 372 379s372 -124 372 -379s-130 -379 -372 -379s-372 124 -372 379zM178 777l142 175h177l142 -175h-184l-48 66l-46 -66h-183z" />
    <glyph glyph-name="Odieresis" unicode="&#xd6;" horiz-adv-x="816" 
d="M266 365c0 -128 49 -185 142 -185s142 57 142 185s-49 185 -142 185s-142 -57 -142 -185zM36 365c0 255 130 379 372 379s372 -124 372 -379s-130 -379 -372 -379s-372 124 -372 379zM181 884c0 54 43 97 97 97s97 -43 97 -97s-43 -97 -97 -97s-97 43 -97 97zM441 884
c0 54 43 97 97 97s97 -43 97 -97s-43 -97 -97 -97s-97 43 -97 97z" />
    <glyph glyph-name="Ograve" unicode="&#xd2;" horiz-adv-x="816" 
d="M266 365c0 -128 49 -185 142 -185s142 57 142 185s-49 185 -142 185s-142 -57 -142 -185zM36 365c0 255 130 379 372 379s372 -124 372 -379s-130 -379 -372 -379s-372 124 -372 379zM183 936v8l274 -4l179 -148v-8h-218z" />
    <glyph glyph-name="Ohungarumlaut" unicode="&#x150;" horiz-adv-x="816" 
d="M266 365c0 -128 49 -185 142 -185s142 57 142 185s-49 185 -142 185s-142 -57 -142 -185zM36 365c0 255 130 379 372 379s372 -124 372 -379s-130 -379 -372 -379s-372 124 -372 379zM136 784v8l109 148l214 4v-8l-145 -152h-178zM436 784v8l109 148l214 4v-8l-145 -152
h-178z" />
    <glyph glyph-name="Omacron" unicode="&#x14c;" horiz-adv-x="816" 
d="M266 365c0 -128 49 -185 142 -185s142 57 142 185s-49 185 -142 185s-142 -57 -142 -185zM36 365c0 255 130 379 372 379s372 -124 372 -379s-130 -379 -372 -379s-372 124 -372 379zM228 801v126h360v-126h-360z" />
    <glyph glyph-name="Oslash" unicode="&#xd8;" horiz-adv-x="868" 
d="M746 747l90 -90l-85 -80c28 -56 43 -127 43 -212c0 -255 -130 -379 -372 -379c-96 0 -175 20 -234 59l-66 -62l-90 90l69 65c-34 59 -51 134 -51 227c0 255 130 379 372 379c104 0 187 -23 248 -69zM280 365c0 -20 1 -38 4 -55l226 214c-23 18 -52 26 -88 26
c-93 0 -142 -57 -142 -185zM348 197c21 -12 45 -17 74 -17c93 0 142 57 142 185c0 12 0 23 -1 34z" />
    <glyph glyph-name="Otilde" unicode="&#xd5;" horiz-adv-x="816" 
d="M266 365c0 -128 49 -185 142 -185s142 57 142 185s-49 185 -142 185s-142 -57 -142 -185zM36 365c0 255 130 379 372 379s372 -124 372 -379s-130 -379 -372 -379s-372 124 -372 379zM167 819c52 130 73 149 131 149c28 0 59 -7 104 -24c32 -12 68 -22 87 -22
c20 0 25 6 44 46l116 -36c-52 -130 -73 -149 -131 -149c-28 0 -59 7 -104 24c-32 12 -68 22 -87 22c-20 0 -25 -6 -44 -46z" />
    <glyph glyph-name="OE" unicode="&#x152;" horiz-adv-x="1129" 
d="M1090 730v-190h-319v-89h297v-170h-297v-91h325v-190h-549v83c-7 -19 -17 -33 -29 -45c-39 -39 -82 -52 -160 -52c-203 0 -322 124 -322 379s119 379 322 379c78 0 125 -13 164 -45c12 -9 20 -23 25 -43v74h543zM266 365c0 -137 49 -185 142 -185c90 0 139 46 139 155v60
c0 109 -49 155 -139 155c-93 0 -142 -48 -142 -185z" />
    <glyph glyph-name="P" unicode="P" horiz-adv-x="709" 
d="M375 730c43 0 71 -1 108 -5c96 -11 216 -80 216 -249c0 -183 -120 -247 -216 -258c-37 -4 -65 -6 -108 -6h-91v-212h-224v730h315zM284 402h96c58 0 89 20 89 69c0 52 -33 69 -89 69h-96v-138z" />
    <glyph glyph-name="Thorn" unicode="&#xde;" horiz-adv-x="715" 
d="M365 638c43 0 71 -1 108 -5c100 -12 226 -84 226 -258c0 -188 -126 -258 -226 -270c-37 -4 -65 -5 -108 -5h-81v-100h-224v730h224v-92h81zM284 290h86c65 0 99 15 99 79c0 63 -37 79 -99 79h-86v-158z" />
    <glyph glyph-name="Q" unicode="Q" horiz-adv-x="816" 
d="M780 365c0 -126 -35 -212 -104 -268l98 -133l-186 -124c-127 154 -123 151 -130 151c-21 0 -40 -5 -50 -5c-242 0 -372 124 -372 379s130 379 372 379s372 -124 372 -379zM266 365c0 -128 49 -185 142 -185s142 52 142 185c0 128 -49 185 -142 185s-142 -57 -142 -185z
" />
    <glyph glyph-name="R" unicode="R" horiz-adv-x="742" 
d="M725 9v-9h-262c-5 49 -8 89 -15 151c-6 59 -20 74 -86 74h-78v-225h-224v730h324c43 0 71 -1 108 -5c95 -11 209 -57 209 -208c0 -98 -49 -155 -127 -185c60 -23 95 -63 101 -131c7 -76 13 -116 22 -159zM284 405h100c57 0 87 24 87 71c0 51 -30 74 -87 74h-100v-145z
" />
    <glyph glyph-name="Racute" unicode="&#x154;" horiz-adv-x="742" 
d="M725 9v-9h-262c-5 49 -8 89 -15 151c-6 59 -20 74 -86 74h-78v-225h-224v730h324c43 0 71 -1 108 -5c95 -11 209 -57 209 -208c0 -98 -49 -155 -127 -185c60 -23 95 -63 101 -131c7 -76 13 -116 22 -159zM175 784v8l179 148l274 4v-8l-235 -152h-218zM284 405h100
c57 0 87 24 87 71c0 51 -30 74 -87 74h-100v-145z" />
    <glyph glyph-name="Rcaron" unicode="&#x158;" horiz-adv-x="742" 
d="M725 9v-9h-262c-5 49 -8 89 -15 151c-6 59 -20 74 -86 74h-78v-225h-224v730h324c43 0 71 -1 108 -5c95 -11 209 -57 209 -208c0 -98 -49 -155 -127 -185c60 -23 95 -63 101 -131c7 -76 13 -116 22 -159zM160 952h174l48 -74l46 74h173l-142 -175h-157zM284 405h100
c57 0 87 24 87 71c0 51 -30 74 -87 74h-100v-145z" />
    <glyph glyph-name="uni0156" unicode="&#x156;" horiz-adv-x="742" 
d="M725 9v-9h-262c-5 49 -8 89 -15 151c-6 59 -20 74 -86 74h-78v-225h-224v730h324c43 0 71 -1 108 -5c95 -11 209 -57 209 -208c0 -98 -49 -155 -127 -185c60 -23 95 -63 101 -131c7 -76 13 -116 22 -159zM169 -210l154 153h224v-10l-191 -143h-187zM284 405h100
c57 0 87 24 87 71c0 51 -30 74 -87 74h-100v-145z" />
    <glyph glyph-name="S" unicode="S" horiz-adv-x="696" 
d="M348 744c193 0 301 -86 309 -250h-220c-6 38 -38 66 -97 66c-45 0 -71 -15 -71 -39c0 -33 26 -43 119 -58c183 -30 286 -97 286 -239c0 -178 -159 -238 -323 -238c-193 0 -323 81 -330 257h220c7 -49 53 -73 112 -73c56 0 91 17 91 42c0 30 -24 48 -132 65
c-163 26 -277 90 -273 238c4 156 143 229 309 229z" />
    <glyph glyph-name="Sacute" unicode="&#x15a;" horiz-adv-x="696" 
d="M348 744c193 0 301 -86 309 -250h-220c-6 38 -38 66 -97 66c-45 0 -71 -15 -71 -39c0 -33 26 -43 119 -58c183 -30 286 -97 286 -239c0 -178 -159 -238 -323 -238c-193 0 -323 81 -330 257h220c7 -49 53 -73 112 -73c56 0 91 17 91 42c0 30 -24 48 -132 65
c-163 26 -277 90 -273 238c4 156 143 229 309 229zM141 784v8l179 148l274 4v-8l-235 -152h-218z" />
    <glyph glyph-name="Scaron" unicode="&#x160;" horiz-adv-x="696" 
d="M348 744c193 0 301 -86 309 -250h-220c-6 38 -38 66 -97 66c-45 0 -71 -15 -71 -39c0 -33 26 -43 119 -58c183 -30 286 -97 286 -239c0 -178 -159 -238 -323 -238c-193 0 -323 81 -330 257h220c7 -49 53 -73 112 -73c56 0 91 17 91 42c0 30 -24 48 -132 65
c-163 26 -277 90 -273 238c4 156 143 229 309 229zM126 952h174l48 -74l46 74h173l-142 -175h-157z" />
    <glyph glyph-name="Scedilla" unicode="&#x15e;" horiz-adv-x="696" 
d="M348 744c193 0 301 -86 309 -250h-220c-6 38 -38 66 -97 66c-45 0 -71 -15 -71 -39c0 -33 26 -43 119 -58c183 -30 286 -97 286 -239c0 -152 -116 -218 -251 -234l-9 -14c54 -10 82 -32 82 -78c0 -65 -72 -102 -169 -102c-36 0 -60 1 -87 6v92c18 -4 31 -5 40 -5
c28 0 38 6 38 20c0 15 -17 22 -51 19v13l29 47c-163 15 -269 96 -275 255h220c7 -49 53 -73 112 -73c56 0 91 17 91 42c0 30 -24 48 -132 65c-163 26 -277 90 -273 238c4 156 143 229 309 229z" />
    <glyph glyph-name="uni0218" unicode="&#x218;" horiz-adv-x="696" 
d="M348 744c193 0 301 -86 309 -250h-220c-6 38 -38 66 -97 66c-45 0 -71 -15 -71 -39c0 -33 26 -43 119 -58c183 -30 286 -97 286 -239c0 -178 -159 -238 -323 -238c-193 0 -323 81 -330 257h220c7 -49 53 -73 112 -73c56 0 91 17 91 42c0 30 -24 48 -132 65
c-163 26 -277 90 -273 238c4 156 143 229 309 229zM158 -210l154 153h224v-10l-191 -143h-187z" />
    <glyph glyph-name="uni1E9E" unicode="&#x1e9e;" horiz-adv-x="807" 
d="M739 730v-139l-125 -147c113 -34 168 -110 168 -220c0 -156 -112 -238 -303 -238c-46 0 -96 4 -141 21v206c40 -22 85 -33 130 -33c48 0 84 16 84 64c0 50 -61 84 -180 83v119l87 94h-175v-540h-224v730h679z" />
    <glyph glyph-name="T" unicode="T" horiz-adv-x="696" 
d="M672 730v-190h-212v-540h-224v540h-212v190h648z" />
    <glyph glyph-name="Tbar" unicode="&#x166;" horiz-adv-x="696" 
d="M580 389v-126h-120v-263h-224v263h-120v126h120v151h-212v190h648v-190h-212v-151h120z" />
    <glyph glyph-name="Tcaron" unicode="&#x164;" horiz-adv-x="696" 
d="M672 730v-190h-212v-540h-224v540h-212v190h648zM128 952h174l48 -74l46 74h173l-142 -175h-157z" />
    <glyph glyph-name="uni0162" unicode="&#x162;" horiz-adv-x="696" 
d="M672 730v-190h-212v-540h-45l-15 -24c54 -10 82 -32 82 -78c0 -65 -72 -102 -169 -102c-36 0 -60 1 -87 6v92c18 -4 31 -5 40 -5c28 0 38 6 38 20c0 15 -17 22 -51 19v13l36 59h-53v540h-212v190h648z" />
    <glyph glyph-name="uni021A" unicode="&#x21a;" horiz-adv-x="696" 
d="M672 730v-190h-212v-540h-224v540h-212v190h648zM144 -210l154 153h224v-10l-191 -143h-187z" />
    <glyph glyph-name="U" unicode="U" horiz-adv-x="764" 
d="M715 333c0 -35 0 -56 -3 -97c-11 -156 -101 -250 -327 -250s-322 94 -333 250c-3 41 -3 62 -3 97v397h224v-414c0 -104 37 -136 112 -136c78 0 112 35 112 136v414h218v-397z" />
    <glyph glyph-name="Uacute" unicode="&#xda;" horiz-adv-x="764" 
d="M715 333c0 -35 0 -56 -3 -97c-11 -156 -101 -250 -327 -250s-322 94 -333 250c-3 41 -3 62 -3 97v397h224v-414c0 -104 37 -136 112 -136c78 0 112 35 112 136v414h218v-397zM180 784v8l179 148l274 4v-8l-235 -152h-218z" />
    <glyph glyph-name="Ucircumflex" unicode="&#xdb;" horiz-adv-x="764" 
d="M715 333c0 -35 0 -56 -3 -97c-11 -156 -101 -250 -327 -250s-322 94 -333 250c-3 41 -3 62 -3 97v397h224v-414c0 -104 37 -136 112 -136c78 0 112 35 112 136v414h218v-397zM155 777l142 175h177l142 -175h-184l-48 66l-46 -66h-183z" />
    <glyph glyph-name="Udieresis" unicode="&#xdc;" horiz-adv-x="764" 
d="M715 333c0 -35 0 -56 -3 -97c-11 -156 -101 -250 -327 -250s-322 94 -333 250c-3 41 -3 62 -3 97v397h224v-414c0 -104 37 -136 112 -136c78 0 112 35 112 136v414h218v-397zM158 884c0 54 43 97 97 97s97 -43 97 -97s-43 -97 -97 -97s-97 43 -97 97zM418 884
c0 54 43 97 97 97s97 -43 97 -97s-43 -97 -97 -97s-97 43 -97 97z" />
    <glyph glyph-name="Ugrave" unicode="&#xd9;" horiz-adv-x="764" 
d="M715 333c0 -35 0 -56 -3 -97c-11 -156 -101 -250 -327 -250s-322 94 -333 250c-3 41 -3 62 -3 97v397h224v-414c0 -104 37 -136 112 -136c78 0 112 35 112 136v414h218v-397zM160 936v8l274 -4l179 -148v-8h-218z" />
    <glyph glyph-name="Uhungarumlaut" unicode="&#x170;" horiz-adv-x="764" 
d="M715 333c0 -35 0 -56 -3 -97c-11 -156 -101 -250 -327 -250s-322 94 -333 250c-3 41 -3 62 -3 97v397h224v-414c0 -104 37 -136 112 -136c78 0 112 35 112 136v414h218v-397zM113 784v8l109 148l214 4v-8l-145 -152h-178zM413 784v8l109 148l214 4v-8l-145 -152h-178z
" />
    <glyph glyph-name="Umacron" unicode="&#x16a;" horiz-adv-x="764" 
d="M715 333c0 -35 0 -56 -3 -97c-11 -156 -101 -250 -327 -250s-322 94 -333 250c-3 41 -3 62 -3 97v397h224v-414c0 -104 37 -136 112 -136c78 0 112 35 112 136v414h218v-397zM205 801v126h360v-126h-360z" />
    <glyph glyph-name="Uogonek" unicode="&#x172;" horiz-adv-x="764" 
d="M715 333c0 -35 0 -56 -3 -97c-4 -61 -24 -112 -55 -152c-70 -89 -79 -113 -79 -135c0 -20 12 -34 41 -34c11 0 25 2 34 5l-14 -103c-29 -12 -67 -21 -121 -21c-59 0 -114 26 -114 97c0 40 25 73 61 98c-24 -3 -51 -5 -80 -5c-226 0 -322 94 -333 250c-3 41 -3 62 -3 97
v397h224v-434c0 -104 33 -136 112 -136c82 0 112 35 112 136v434h218v-397z" />
    <glyph glyph-name="Uring" unicode="&#x16e;" horiz-adv-x="764" 
d="M715 333c0 -35 0 -56 -3 -97c-11 -156 -101 -250 -327 -250s-322 94 -333 250c-3 41 -3 62 -3 97v397h224v-414c0 -104 37 -136 112 -136c78 0 112 35 112 136v414h218v-397zM217 896c0 85 70 127 168 127s168 -42 168 -127s-70 -127 -168 -127s-168 42 -168 127z
M350 896c0 -26 11 -41 35 -41s35 15 35 41s-11 41 -35 41s-35 -15 -35 -41z" />
    <glyph glyph-name="V" unicode="V" horiz-adv-x="802" 
d="M798 730l-259 -730h-276l-259 730h256l148 -503l149 503h241z" />
    <glyph glyph-name="W" unicode="W" horiz-adv-x="1047" 
d="M1037 730l-163 -730h-284l-48 297c-6 39 -12 79 -16 118c-5 -39 -10 -78 -17 -117l-52 -298h-291l-156 730h241l53 -324c8 -51 15 -103 21 -154c6 51 15 102 26 154l65 314h230l63 -314c9 -48 17 -94 24 -140c5 47 12 94 21 140l64 324h219z" />
    <glyph glyph-name="Wacute" unicode="&#x1e82;" horiz-adv-x="1047" 
d="M1037 730l-163 -730h-284l-48 297c-6 39 -12 79 -16 118c-5 -39 -10 -78 -17 -117l-52 -298h-291l-156 730h241l53 -324c8 -51 15 -103 21 -154c6 51 15 102 26 154l65 314h230l63 -314c9 -48 17 -94 24 -140c5 47 12 94 21 140l64 324h219zM315 784v8l179 148l274 4v-8
l-235 -152h-218z" />
    <glyph glyph-name="Wcircumflex" unicode="&#x174;" horiz-adv-x="1047" 
d="M1037 730l-163 -730h-284l-48 297c-6 39 -12 79 -16 118c-5 -39 -10 -78 -17 -117l-52 -298h-291l-156 730h241l53 -324c8 -51 15 -103 21 -154c6 51 15 102 26 154l65 314h230l63 -314c9 -48 17 -94 24 -140c5 47 12 94 21 140l64 324h219zM290 777l142 175h177
l142 -175h-184l-48 66l-46 -66h-183z" />
    <glyph glyph-name="Wdieresis" unicode="&#x1e84;" horiz-adv-x="1047" 
d="M1037 730l-163 -730h-284l-48 297c-6 39 -12 79 -16 118c-5 -39 -10 -78 -17 -117l-52 -298h-291l-156 730h241l53 -324c8 -51 15 -103 21 -154c6 51 15 102 26 154l65 314h230l63 -314c9 -48 17 -94 24 -140c5 47 12 94 21 140l64 324h219zM293 884c0 54 43 97 97 97
s97 -43 97 -97s-43 -97 -97 -97s-97 43 -97 97zM553 884c0 54 43 97 97 97s97 -43 97 -97s-43 -97 -97 -97s-97 43 -97 97z" />
    <glyph glyph-name="Wgrave" unicode="&#x1e80;" horiz-adv-x="1047" 
d="M1037 730l-163 -730h-284l-48 297c-6 39 -12 79 -16 118c-5 -39 -10 -78 -17 -117l-52 -298h-291l-156 730h241l53 -324c8 -51 15 -103 21 -154c6 51 15 102 26 154l65 314h230l63 -314c9 -48 17 -94 24 -140c5 47 12 94 21 140l64 324h219zM295 936v8l274 -4l179 -148
v-8h-218z" />
    <glyph glyph-name="X" unicode="X" horiz-adv-x="801" 
d="M781 730l-231 -364l235 -366h-273l-113 193l-103 -193h-280l242 357l-227 373h273l101 -201l106 201h270z" />
    <glyph glyph-name="Y" unicode="Y" horiz-adv-x="774" 
d="M784 730l-285 -460v-270h-224v270l-285 460h265l137 -246l133 246h259z" />
    <glyph glyph-name="Yacute" unicode="&#xdd;" horiz-adv-x="774" 
d="M784 730l-285 -460v-270h-224v270l-285 460h265l137 -246l133 246h259zM182 784v8l179 148l274 4v-8l-235 -152h-218z" />
    <glyph glyph-name="Ycircumflex" unicode="&#x176;" horiz-adv-x="774" 
d="M784 730l-285 -460v-270h-224v270l-285 460h265l137 -246l133 246h259zM157 777l142 175h177l142 -175h-184l-48 66l-46 -66h-183z" />
    <glyph glyph-name="Ydieresis" unicode="&#x178;" horiz-adv-x="774" 
d="M784 730l-285 -460v-270h-224v270l-285 460h265l137 -246l133 246h259zM160 884c0 54 43 97 97 97s97 -43 97 -97s-43 -97 -97 -97s-97 43 -97 97zM420 884c0 54 43 97 97 97s97 -43 97 -97s-43 -97 -97 -97s-97 43 -97 97z" />
    <glyph glyph-name="Ygrave" unicode="&#x1ef2;" horiz-adv-x="774" 
d="M784 730l-285 -460v-270h-224v270l-285 460h265l137 -246l133 246h259zM162 936v8l274 -4l179 -148v-8h-218z" />
    <glyph glyph-name="Z" unicode="Z" horiz-adv-x="725" 
d="M688 730v-159l-347 -381h344v-190h-645v156l349 384h-342v190h641z" />
    <glyph glyph-name="Zacute" unicode="&#x179;" horiz-adv-x="725" 
d="M688 730v-159l-347 -381h344v-190h-645v156l349 384h-342v190h641zM163 784v8l179 148l274 4v-8l-235 -152h-218z" />
    <glyph glyph-name="Zcaron" unicode="&#x17d;" horiz-adv-x="725" 
d="M688 730v-159l-347 -381h344v-190h-645v156l349 384h-342v190h641zM148 952h174l48 -74l46 74h173l-142 -175h-157z" />
    <glyph glyph-name="Zdotaccent" unicode="&#x17b;" horiz-adv-x="725" 
d="M688 730v-159l-347 -381h344v-190h-645v156l349 384h-342v190h641zM256 894c0 62 50 112 112 112s112 -50 112 -112s-50 -112 -112 -112s-112 50 -112 112z" />
    <glyph glyph-name="a" unicode="a" horiz-adv-x="613" 
d="M306 554c188 0 248 -71 256 -168c2 -27 3 -58 3 -91v-295h-198l-13 88c-8 -84 -47 -102 -143 -102c-112 0 -186 55 -186 165c0 118 89 175 284 175h44v28c0 34 -16 50 -54 50c-41 0 -55 -18 -58 -48h-200c3 128 95 198 265 198zM225 175c0 -26 19 -39 58 -39
c27 0 70 20 70 55v29c-106 6 -128 -16 -128 -45z" />
    <glyph glyph-name="aacute" unicode="&#xe1;" horiz-adv-x="613" 
d="M306 554c188 0 248 -71 256 -168c2 -27 3 -58 3 -91v-295h-198l-13 88c-8 -84 -47 -102 -143 -102c-112 0 -186 55 -186 165c0 118 89 175 284 175h44v28c0 34 -16 50 -54 50c-41 0 -55 -18 -58 -48h-200c3 128 95 198 265 198zM135 610v8l159 158l244 4v-8l-205 -162
h-198zM225 175c0 -26 19 -39 58 -39c27 0 70 20 70 55v29c-106 6 -128 -16 -128 -45z" />
    <glyph glyph-name="abreve" unicode="&#x103;" horiz-adv-x="613" 
d="M306 554c188 0 248 -71 256 -168c2 -27 3 -58 3 -91v-295h-198l-13 88c-8 -84 -47 -102 -143 -102c-112 0 -186 55 -186 165c0 118 89 175 284 175h44v28c0 34 -16 50 -54 50c-41 0 -55 -18 -58 -48h-200c3 128 95 198 265 198zM109 777h150c2 -41 17 -62 51 -62
s50 20 51 62h150c0 -109 -48 -174 -201 -174s-201 65 -201 174zM225 175c0 -26 19 -39 58 -39c27 0 70 20 70 55v29c-106 6 -128 -16 -128 -45z" />
    <glyph glyph-name="acircumflex" unicode="&#xe2;" horiz-adv-x="613" 
d="M306 554c188 0 248 -71 256 -168c2 -27 3 -58 3 -91v-295h-198l-13 88c-8 -84 -47 -102 -143 -102c-112 0 -186 55 -186 165c0 118 89 175 284 175h44v28c0 34 -16 50 -54 50c-41 0 -55 -18 -58 -48h-200c3 128 95 198 265 198zM80 608l142 175h177l142 -175h-184l-48 66
l-46 -66h-183zM225 175c0 -26 19 -39 58 -39c27 0 70 20 70 55v29c-106 6 -128 -16 -128 -45z" />
    <glyph glyph-name="adieresis" unicode="&#xe4;" horiz-adv-x="613" 
d="M306 554c188 0 248 -71 256 -168c2 -27 3 -58 3 -91v-295h-198l-13 88c-8 -84 -47 -102 -143 -102c-112 0 -186 55 -186 165c0 118 89 175 284 175h44v28c0 34 -16 50 -54 50c-41 0 -55 -18 -58 -48h-200c3 128 95 198 265 198zM87 720c0 54 43 97 97 97s97 -43 97 -97
s-43 -97 -97 -97s-97 43 -97 97zM225 175c0 -26 19 -39 58 -39c27 0 70 20 70 55v29c-106 6 -128 -16 -128 -45zM339 720c0 54 43 97 97 97s97 -43 97 -97s-43 -97 -97 -97s-97 43 -97 97z" />
    <glyph glyph-name="agrave" unicode="&#xe0;" horiz-adv-x="613" 
d="M306 554c188 0 248 -71 256 -168c2 -27 3 -58 3 -91v-295h-198l-13 88c-8 -84 -47 -102 -143 -102c-112 0 -186 55 -186 165c0 118 89 175 284 175h44v28c0 34 -16 50 -54 50c-41 0 -55 -18 -58 -48h-200c3 128 95 198 265 198zM95 772v8l244 -4l159 -158v-8h-198z
M225 175c0 -26 19 -39 58 -39c27 0 70 20 70 55v29c-106 6 -128 -16 -128 -45z" />
    <glyph glyph-name="amacron" unicode="&#x101;" horiz-adv-x="613" 
d="M306 554c188 0 248 -71 256 -168c2 -27 3 -58 3 -91v-295h-198l-13 88c-8 -84 -47 -102 -143 -102c-112 0 -186 55 -186 165c0 118 89 175 284 175h44v28c0 34 -16 50 -54 50c-41 0 -55 -18 -58 -48h-200c3 128 95 198 265 198zM140 632v126h340v-126h-340zM225 175
c0 -26 19 -39 58 -39c27 0 70 20 70 55v29c-106 6 -128 -16 -128 -45z" />
    <glyph glyph-name="aogonek" unicode="&#x105;" horiz-adv-x="613" 
d="M306 554c188 0 248 -71 256 -168c2 -27 3 -58 3 -91v-295c-48 -8 -75 -36 -75 -55c0 -16 12 -30 41 -30c11 0 25 2 34 5l-14 -103c-29 -12 -67 -21 -121 -21c-59 0 -114 25 -114 89c0 51 34 89 80 115h-29l-13 88c-8 -84 -47 -102 -143 -102c-112 0 -186 55 -186 165
c0 118 89 175 284 175h44v28c0 34 -16 50 -54 50c-41 0 -55 -18 -58 -48h-200c3 128 95 198 265 198zM225 175c0 -26 19 -39 58 -39c27 0 70 20 70 55v29c-106 6 -128 -16 -128 -45z" />
    <glyph glyph-name="aring" unicode="&#xe5;" horiz-adv-x="613" 
d="M306 554c188 0 248 -71 256 -168c2 -27 3 -58 3 -91v-295h-198l-13 88c-8 -84 -47 -102 -143 -102c-112 0 -186 55 -186 165c0 118 89 175 284 175h44v28c0 34 -16 50 -54 50c-41 0 -55 -18 -58 -48h-200c3 128 95 198 265 198zM142 723c0 85 70 127 168 127
s168 -42 168 -127s-70 -127 -168 -127s-168 42 -168 127zM225 175c0 -26 19 -39 58 -39c27 0 70 20 70 55v29c-106 6 -128 -16 -128 -45zM275 723c0 -26 11 -41 35 -41s35 15 35 41s-11 41 -35 41s-35 -15 -35 -41z" />
    <glyph glyph-name="atilde" unicode="&#xe3;" horiz-adv-x="613" 
d="M306 554c188 0 248 -71 256 -168c2 -27 3 -58 3 -91v-295h-198l-13 88c-8 -84 -47 -102 -143 -102c-112 0 -186 55 -186 165c0 118 89 175 284 175h44v28c0 34 -16 50 -54 50c-41 0 -55 -18 -58 -48h-200c3 128 95 198 265 198zM69 639c52 130 73 149 131 149
c28 0 59 -7 104 -24c32 -12 68 -22 87 -22c20 0 25 6 44 46l116 -36c-52 -130 -73 -149 -131 -149c-28 0 -59 7 -104 24c-32 12 -68 22 -87 22c-20 0 -25 -6 -44 -46zM225 175c0 -26 19 -39 58 -39c27 0 70 20 70 55v29c-106 6 -128 -16 -128 -45z" />
    <glyph glyph-name="ae" unicode="&#xe6;" horiz-adv-x="947" 
d="M298 554c79 0 135 -20 171 -52c46 33 107 52 183 52c191 0 273 -112 273 -272c0 -22 -1 -41 -3 -60h-348c6 -64 30 -80 74 -80c34 0 55 13 62 43h207c-18 -127 -114 -199 -273 -199c-106 0 -183 29 -229 88c-22 -68 -81 -88 -176 -88c-131 0 -214 49 -214 159
c0 118 88 181 282 181h54v20c0 39 -20 58 -69 58c-47 0 -66 -21 -69 -54h-190c3 131 94 204 265 204zM225 172c0 -26 16 -36 64 -36c40 0 72 19 72 55v25c-114 6 -136 -15 -136 -44zM573 334h139c-7 46 -35 64 -72 64c-40 0 -60 -16 -67 -64z" />
    <glyph glyph-name="b" unicode="b" horiz-adv-x="691" 
d="M274 730v-263c26 67 83 87 159 87c162 0 232 -105 232 -279c0 -197 -91 -289 -240 -289c-71 0 -135 16 -162 86l-7 -72h-202v730h220zM274 251c0 -84 33 -109 74 -109c54 0 77 45 77 134c0 77 -26 122 -75 122s-76 -32 -76 -118v-29z" />
    <glyph glyph-name="c" unicode="c" horiz-adv-x="607" 
d="M319 554c206 0 263 -91 276 -220h-219c-3 48 -28 64 -58 64c-49 0 -62 -46 -62 -126c0 -88 13 -130 63 -130c32 0 54 26 57 64h219c-15 -136 -96 -220 -285 -220c-199 0 -284 99 -284 282c0 169 80 286 293 286z" />
    <glyph glyph-name="cacute" unicode="&#x107;" horiz-adv-x="607" 
d="M319 554c206 0 263 -91 276 -220h-219c-3 48 -28 64 -58 64c-49 0 -62 -46 -62 -126c0 -88 13 -130 63 -130c32 0 54 26 57 64h219c-15 -136 -96 -220 -285 -220c-199 0 -284 99 -284 282c0 169 80 286 293 286zM132 610v8l159 158l244 4v-8l-205 -162h-198z" />
    <glyph glyph-name="ccaron" unicode="&#x10d;" horiz-adv-x="607" 
d="M319 554c206 0 263 -91 276 -220h-219c-3 48 -28 64 -58 64c-49 0 -62 -46 -62 -126c0 -88 13 -130 63 -130c32 0 54 26 57 64h219c-15 -136 -96 -220 -285 -220c-199 0 -284 99 -284 282c0 169 80 286 293 286zM77 773h184l48 -66l46 66h183l-142 -175h-177z" />
    <glyph glyph-name="ccedilla" unicode="&#xe7;" horiz-adv-x="607" 
d="M319 554c206 0 263 -91 276 -220h-219c-3 48 -28 64 -58 64c-49 0 -62 -46 -62 -126c0 -88 13 -130 63 -130c32 0 54 26 57 64h219c-13 -117 -75 -196 -213 -215l-9 -15c54 -10 82 -32 82 -78c0 -65 -72 -102 -169 -102c-36 0 -60 1 -87 6v92c18 -4 31 -5 40 -5
c28 0 38 6 38 20c0 15 -17 22 -51 19v13l29 48c-160 17 -229 114 -229 279c0 169 80 286 293 286z" />
    <glyph glyph-name="cdotaccent" unicode="&#x10b;" horiz-adv-x="607" 
d="M319 554c206 0 263 -91 276 -220h-219c-3 48 -28 64 -58 64c-49 0 -62 -46 -62 -126c0 -88 13 -130 63 -130c32 0 54 26 57 64h219c-15 -136 -96 -220 -285 -220c-199 0 -284 99 -284 282c0 169 80 286 293 286zM195 720c0 62 50 112 112 112s112 -50 112 -112
s-50 -112 -112 -112s-112 50 -112 112z" />
    <glyph glyph-name="d" unicode="d" horiz-adv-x="691" 
d="M637 730v-730h-202l-15 82c-24 -75 -83 -96 -162 -96c-162 0 -232 105 -232 279c0 197 91 289 240 289c65 0 124 -15 151 -81v257h220zM266 264c0 -77 26 -122 75 -122s76 32 76 118v29c0 84 -33 109 -74 109c-54 0 -77 -45 -77 -134z" />
    <glyph glyph-name="eth" unicode="&#xf0;" horiz-adv-x="665" 
d="M218 792c87 -20 160 -51 219 -93l100 43l39 -80l-65 -29c75 -84 114 -197 114 -336c0 -226 -106 -311 -317 -311c-165 0 -282 82 -282 261c0 206 119 257 256 257c53 0 100 -25 123 -98c-14 65 -46 108 -84 145l-105 -46l-39 80l66 29c-31 19 -66 32 -102 40zM256 244
c0 -78 28 -102 73 -102c49 0 70 38 70 104c0 73 -25 102 -71 102c-47 0 -72 -28 -72 -104z" />
    <glyph glyph-name="dcaron" unicode="&#x10f;" horiz-adv-x="963" 
d="M952 740v-44l-104 -322h-168l72 366h200zM26 265c0 197 91 289 240 289c65 0 124 -15 151 -81v257h220v-730h-202l-15 82c-24 -75 -83 -96 -162 -96c-162 0 -232 105 -232 279zM266 264c0 -77 26 -122 75 -122s76 32 76 118v29c0 84 -33 109 -74 109
c-54 0 -77 -45 -77 -134z" />
    <glyph glyph-name="dcroat" unicode="&#x111;" horiz-adv-x="689" 
d="M675 671v-96h-38v-575h-202l-15 82c-24 -75 -83 -96 -162 -96c-162 0 -232 105 -232 279c0 197 91 289 240 289c65 0 124 -15 151 -81v102h-122v96h122v59h220v-59h38zM266 264c0 -77 26 -122 75 -122s76 32 76 118v29c0 84 -33 109 -74 109c-54 0 -77 -45 -77 -134z" />
    <glyph glyph-name="e" unicode="e" horiz-adv-x="608" 
d="M318 554c187 0 268 -112 268 -272c0 -22 -1 -45 -3 -64h-343c10 -61 38 -80 72 -80c31 0 49 13 59 41h207c-17 -123 -113 -193 -268 -193c-185 0 -284 91 -284 279c0 165 88 289 292 289zM241 336h138c-8 46 -34 66 -69 66s-60 -18 -69 -66z" />
    <glyph glyph-name="eacute" unicode="&#xe9;" horiz-adv-x="608" 
d="M318 554c187 0 268 -112 268 -272c0 -22 -1 -45 -3 -64h-343c10 -61 38 -80 72 -80c31 0 49 13 59 41h207c-17 -123 -113 -193 -268 -193c-185 0 -284 91 -284 279c0 165 88 289 292 289zM138 610v8l159 158l244 4v-8l-205 -162h-198zM241 336h138c-8 46 -34 66 -69 66
s-60 -18 -69 -66z" />
    <glyph glyph-name="ecaron" unicode="&#x11b;" horiz-adv-x="608" 
d="M318 554c187 0 268 -112 268 -272c0 -22 -1 -45 -3 -64h-343c10 -61 38 -80 72 -80c31 0 49 13 59 41h207c-17 -123 -113 -193 -268 -193c-185 0 -284 91 -284 279c0 165 88 289 292 289zM83 773h184l48 -66l46 66h183l-142 -175h-177zM241 336h138c-8 46 -34 66 -69 66
s-60 -18 -69 -66z" />
    <glyph glyph-name="ecircumflex" unicode="&#xea;" horiz-adv-x="608" 
d="M318 554c187 0 268 -112 268 -272c0 -22 -1 -45 -3 -64h-343c10 -61 38 -80 72 -80c31 0 49 13 59 41h207c-17 -123 -113 -193 -268 -193c-185 0 -284 91 -284 279c0 165 88 289 292 289zM83 608l142 175h177l142 -175h-184l-48 66l-46 -66h-183zM241 336h138
c-8 46 -34 66 -69 66s-60 -18 -69 -66z" />
    <glyph glyph-name="edieresis" unicode="&#xeb;" horiz-adv-x="608" 
d="M318 554c187 0 268 -112 268 -272c0 -22 -1 -45 -3 -64h-343c10 -61 38 -80 72 -80c31 0 49 13 59 41h207c-17 -123 -113 -193 -268 -193c-185 0 -284 91 -284 279c0 165 88 289 292 289zM90 720c0 54 43 97 97 97s97 -43 97 -97s-43 -97 -97 -97s-97 43 -97 97zM241 336
h138c-8 46 -34 66 -69 66s-60 -18 -69 -66zM342 720c0 54 43 97 97 97s97 -43 97 -97s-43 -97 -97 -97s-97 43 -97 97z" />
    <glyph glyph-name="edotaccent" unicode="&#x117;" horiz-adv-x="608" 
d="M318 554c187 0 268 -112 268 -272c0 -22 -1 -45 -3 -64h-343c10 -61 38 -80 72 -80c31 0 49 13 59 41h207c-17 -123 -113 -193 -268 -193c-185 0 -284 91 -284 279c0 165 88 289 292 289zM201 720c0 62 50 112 112 112s112 -50 112 -112s-50 -112 -112 -112
s-112 50 -112 112zM241 336h138c-8 46 -34 66 -69 66s-60 -18 -69 -66z" />
    <glyph glyph-name="egrave" unicode="&#xe8;" horiz-adv-x="608" 
d="M318 554c187 0 268 -112 268 -272c0 -22 -1 -45 -3 -64h-343c10 -61 38 -80 72 -80c31 0 49 13 59 41h207c-17 -123 -113 -193 -268 -193c-185 0 -284 91 -284 279c0 165 88 289 292 289zM98 772v8l244 -4l159 -158v-8h-198zM241 336h138c-8 46 -34 66 -69 66
s-60 -18 -69 -66z" />
    <glyph glyph-name="emacron" unicode="&#x113;" horiz-adv-x="608" 
d="M318 554c187 0 268 -112 268 -272c0 -22 -1 -45 -3 -64h-343c10 -61 38 -80 72 -80c31 0 49 13 59 41h207c-17 -123 -113 -193 -268 -193c-185 0 -284 91 -284 279c0 165 88 289 292 289zM143 632v126h340v-126h-340zM241 336h138c-8 46 -34 66 -69 66s-60 -18 -69 -66z
" />
    <glyph glyph-name="eogonek" unicode="&#x119;" horiz-adv-x="618" 
d="M323 554c191 0 273 -112 273 -272c0 -22 -1 -41 -3 -56h-348c7 -67 35 -84 77 -84c34 0 52 13 59 43h207c-7 -52 -28 -95 -60 -127c-65 -66 -75 -94 -75 -113c0 -16 12 -30 41 -30c11 0 25 2 34 5l-14 -103c-29 -12 -67 -21 -121 -21c-59 0 -114 25 -114 89
c0 43 24 76 59 101h-23c-189 0 -289 91 -289 279c0 165 90 289 297 289zM245 332h138c-6 48 -31 66 -69 66s-61 -16 -69 -66z" />
    <glyph glyph-name="f" unicode="f" horiz-adv-x="412" 
d="M308 744c32 0 63 -2 90 -5v-140c-81 8 -108 6 -108 -45v-14h99v-156h-99v-384h-220v384h-57v156h57c0 14 0 26 1 42c8 100 60 162 237 162z" />
    <glyph glyph-name="g" unicode="g" horiz-adv-x="675" 
d="M621 146c0 -33 0 -74 -1 -103c-6 -175 -118 -247 -297 -247c-155 0 -283 44 -295 196h207c2 -23 33 -40 83 -40c58 0 83 33 83 87v96c-14 -86 -67 -109 -149 -109c-164 0 -232 104 -232 260c0 179 87 268 240 268c73 0 132 -17 149 -102l10 88h202v-394zM250 291
c0 -72 27 -109 72 -109c52 0 78 44 79 112c-2 70 -34 108 -77 108c-50 0 -74 -38 -74 -111z" />
    <glyph glyph-name="gbreve" unicode="&#x11f;" horiz-adv-x="675" 
d="M621 146c0 -33 0 -74 -1 -103c-6 -175 -118 -247 -297 -247c-155 0 -283 44 -295 196h207c2 -23 33 -40 83 -40c58 0 83 33 83 87v96c-14 -86 -67 -109 -149 -109c-164 0 -232 104 -232 260c0 179 87 268 240 268c73 0 132 -17 149 -102l10 88h202v-394zM135 777h150
c2 -41 17 -62 51 -62s50 20 51 62h150c0 -109 -48 -174 -201 -174s-201 65 -201 174zM250 291c0 -72 27 -109 72 -109c52 0 78 44 79 112c-2 70 -34 108 -77 108c-50 0 -74 -38 -74 -111z" />
    <glyph glyph-name="uni0123" unicode="&#x123;" horiz-adv-x="661" 
d="M621 146c0 -33 0 -74 -1 -103c-6 -175 -118 -247 -297 -247c-155 0 -283 44 -295 196h207c2 -23 33 -40 83 -40c58 0 83 33 83 87v96c-14 -86 -67 -109 -149 -109c-164 0 -232 104 -232 260c0 179 87 268 240 268c73 0 132 -17 149 -102l10 88h202v-394zM182 577v10
l191 143h197l-154 -153h-234zM250 291c0 -72 27 -109 72 -109c52 0 78 44 79 112c-2 70 -34 108 -77 108c-50 0 -74 -38 -74 -111z" />
    <glyph glyph-name="gdotaccent" unicode="&#x121;" horiz-adv-x="675" 
d="M621 146c0 -33 0 -74 -1 -103c-6 -175 -118 -247 -297 -247c-155 0 -283 44 -295 196h207c2 -23 33 -40 83 -40c58 0 83 33 83 87v96c-14 -86 -67 -109 -149 -109c-164 0 -232 104 -232 260c0 179 87 268 240 268c73 0 132 -17 149 -102l10 88h202v-394zM224 720
c0 62 50 112 112 112s112 -50 112 -112s-50 -112 -112 -112s-112 50 -112 112zM250 291c0 -72 27 -109 72 -109c52 0 78 44 79 112c-2 70 -34 108 -77 108c-50 0 -74 -38 -74 -111z" />
    <glyph glyph-name="h" unicode="h" horiz-adv-x="674" 
d="M274 730v-282c19 79 66 106 150 106c120 0 183 -48 197 -141c4 -27 5 -58 5 -101v-312h-220v322c0 42 -19 66 -59 66c-46 0 -73 -30 -73 -102v-286h-220v730h220z" />
    <glyph glyph-name="hbar" unicode="&#x127;" horiz-adv-x="686" 
d="M354 671v-96h-68v-127c19 79 66 106 150 106c120 0 183 -48 197 -141c4 -27 5 -58 5 -101v-312h-220v322c0 42 -19 66 -59 66c-46 0 -73 -30 -73 -102v-286h-220v575h-52v96h52v59h220v-59h68z" />
    <glyph glyph-name="i" unicode="i" horiz-adv-x="328" 
d="M274 540v-540h-220v540h220zM52 720c0 62 50 112 112 112s112 -50 112 -112s-50 -112 -112 -112s-112 50 -112 112z" />
    <glyph glyph-name="dotlessi" unicode="&#x131;" horiz-adv-x="328" 
d="M274 540v-540h-220v540h220z" />
    <glyph glyph-name="iacute" unicode="&#xed;" horiz-adv-x="328" 
d="M274 540v-540h-220v540h220zM-11 610v8l159 158l244 4v-8l-205 -162h-198z" />
    <glyph glyph-name="icircumflex" unicode="&#xee;" horiz-adv-x="328" 
d="M274 540v-540h-220v540h220zM-66 608l142 175h177l142 -175h-184l-48 66l-46 -66h-183z" />
    <glyph glyph-name="idieresis" unicode="&#xef;" horiz-adv-x="328" 
d="M274 540v-540h-220v540h220zM-59 720c0 54 43 97 97 97s97 -43 97 -97s-43 -97 -97 -97s-97 43 -97 97zM193 720c0 54 43 97 97 97s97 -43 97 -97s-43 -97 -97 -97s-97 43 -97 97z" />
    <glyph glyph-name="igrave" unicode="&#xec;" horiz-adv-x="328" 
d="M274 540v-540h-220v540h220zM-51 772v8l244 -4l159 -158v-8h-198z" />
    <glyph glyph-name="ij" unicode="&#x133;" horiz-adv-x="656" 
d="M274 540v-540h-220v540h220zM52 720c0 62 50 112 112 112s112 -50 112 -112s-50 -112 -112 -112s-112 50 -112 112zM280 -200v140c100 -9 102 28 102 100v500h220v-518c0 -20 -1 -46 -2 -64c-7 -100 -59 -162 -260 -162c-21 0 -42 1 -60 4zM380 720c0 62 50 112 112 112
s112 -50 112 -112s-50 -112 -112 -112s-112 50 -112 112z" />
    <glyph glyph-name="imacron" unicode="&#x12b;" horiz-adv-x="328" 
d="M274 540v-540h-220v540h220zM-6 632v126h340v-126h-340z" />
    <glyph glyph-name="iogonek" unicode="&#x12f;" horiz-adv-x="328" 
d="M274 540v-540c-48 -8 -75 -36 -75 -55c0 -16 12 -30 41 -30c11 0 25 2 34 5l-14 -103c-29 -12 -67 -21 -121 -21c-59 0 -114 25 -114 89c0 51 34 89 80 115h-51v540h220zM52 720c0 62 50 112 112 112s112 -50 112 -112s-50 -112 -112 -112s-112 50 -112 112z" />
    <glyph glyph-name="j" unicode="j" horiz-adv-x="328" 
d="M274 22c0 -20 -1 -46 -2 -64c-7 -100 -59 -162 -260 -162c-21 0 -42 1 -60 4v140c100 -9 102 28 102 100v500h220v-518zM52 720c0 62 50 112 112 112s112 -50 112 -112s-50 -112 -112 -112s-112 50 -112 112z" />
    <glyph glyph-name="uni0237" unicode="&#x237;" horiz-adv-x="328" 
d="M274 22c0 -20 -1 -46 -2 -64c-7 -100 -59 -162 -260 -162c-21 0 -42 1 -60 4v140c100 -9 102 28 102 100v500h220v-518z" />
    <glyph glyph-name="k" unicode="k" horiz-adv-x="672" 
d="M663 540l-177 -204l190 -336h-261l-102 194l-39 -39v-155h-220v730h220v-390l158 200h231z" />
    <glyph glyph-name="uni0137" unicode="&#x137;" horiz-adv-x="672" 
d="M663 540l-177 -204l190 -336h-261l-102 194l-39 -39v-155h-220v730h220v-390l158 200h231zM118 -190l154 153h234v-10l-191 -143h-197z" />
    <glyph glyph-name="l" unicode="l" horiz-adv-x="351" 
d="M270 223c0 -68 12 -80 67 -75v-149c-27 -5 -88 -9 -121 -9c-119 0 -159 43 -164 136c-2 28 -2 55 -2 95v509h220v-507z" />
    <glyph glyph-name="lacute" unicode="&#x13a;" horiz-adv-x="351" 
d="M270 223c0 -68 12 -80 67 -75v-149c-27 -5 -88 -9 -121 -9c-119 0 -159 43 -164 136c-2 28 -2 55 -2 95v509h220v-507zM-2 808v8l159 158l244 4v-8l-205 -162h-198z" />
    <glyph glyph-name="lcaron" unicode="&#x13e;" horiz-adv-x="609" 
d="M594 740v-44l-104 -322h-168l72 366h200zM50 221v509h220v-507c0 -68 12 -80 67 -75v-149c-27 -5 -88 -9 -121 -9c-119 0 -159 43 -164 136c-2 28 -2 55 -2 95z" />
    <glyph glyph-name="uni013C" unicode="&#x13c;" horiz-adv-x="351" 
d="M270 223c0 -68 12 -80 67 -75v-149c-27 -5 -88 -9 -121 -9c-119 0 -159 43 -164 136c-2 28 -2 55 -2 95v509h220v-507zM-32 -190l154 153h234v-10l-191 -143h-197z" />
    <glyph glyph-name="ldot" unicode="&#x140;" horiz-adv-x="544" 
d="M432 238c-62 0 -112 50 -112 112s50 112 112 112s112 -50 112 -112s-50 -112 -112 -112zM50 221v509h220v-507c0 -68 12 -80 67 -75v-149c-27 -5 -88 -9 -121 -9c-119 0 -159 43 -164 136c-2 28 -2 55 -2 95z" />
    <glyph glyph-name="lslash" unicode="&#x142;" horiz-adv-x="434" 
d="M410 522v-143l-80 -59v-97c0 -68 12 -80 67 -75v-149c-27 -5 -88 -9 -121 -9c-119 0 -159 43 -164 136c-1 20 -2 39 -2 63l-80 -60v143l80 60v398h220v-266z" />
    <glyph glyph-name="m" unicode="m" horiz-adv-x="1006" 
d="M442 554c86 0 133 -37 155 -88c25 75 100 88 177 88c118 0 167 -62 179 -135c4 -27 5 -58 5 -101v-318h-220v298c0 67 -11 90 -61 90s-61 -35 -61 -100v-288h-220v298c0 67 -11 90 -61 90s-61 -35 -61 -100v-288h-220v540h202l10 -87c26 98 115 101 176 101z" />
    <glyph glyph-name="n" unicode="n" horiz-adv-x="674" 
d="M424 554c120 0 183 -48 197 -141c4 -27 5 -58 5 -101v-312h-220v322c0 42 -19 66 -59 66c-46 0 -73 -30 -73 -102v-286h-220v540h202l10 -87c21 78 75 101 158 101z" />
    <glyph glyph-name="nacute" unicode="&#x144;" horiz-adv-x="674" 
d="M424 554c120 0 183 -48 197 -141c4 -27 5 -58 5 -101v-312h-220v322c0 42 -19 66 -59 66c-46 0 -73 -30 -73 -102v-286h-220v540h202l10 -87c21 78 75 101 158 101zM186 610v8l159 158l244 4v-8l-205 -162h-198z" />
    <glyph glyph-name="ncaron" unicode="&#x148;" horiz-adv-x="674" 
d="M424 554c120 0 183 -48 197 -141c4 -27 5 -58 5 -101v-312h-220v322c0 42 -19 66 -59 66c-46 0 -73 -30 -73 -102v-286h-220v540h202l10 -87c21 78 75 101 158 101zM131 773h184l48 -66l46 66h183l-142 -175h-177z" />
    <glyph glyph-name="uni0146" unicode="&#x146;" horiz-adv-x="674" 
d="M424 554c120 0 183 -48 197 -141c4 -27 5 -58 5 -101v-312h-220v322c0 42 -19 66 -59 66c-46 0 -73 -30 -73 -102v-286h-220v540h202l10 -87c21 78 75 101 158 101zM127 -190l154 153h234v-10l-191 -143h-197z" />
    <glyph glyph-name="ntilde" unicode="&#xf1;" horiz-adv-x="674" 
d="M424 554c120 0 183 -48 197 -141c4 -27 5 -58 5 -101v-312h-220v322c0 42 -19 66 -59 66c-46 0 -73 -30 -73 -102v-286h-220v540h202l10 -87c21 78 75 101 158 101zM120 639c52 130 73 149 131 149c28 0 59 -7 104 -24c32 -12 68 -22 87 -22c20 0 25 6 44 46l116 -36
c-52 -130 -73 -149 -131 -149c-28 0 -59 7 -104 24c-32 12 -68 22 -87 22c-20 0 -25 -6 -44 -46z" />
    <glyph glyph-name="eng" unicode="&#x14b;" horiz-adv-x="674" 
d="M626 -14c0 -18 0 -27 -1 -41c-8 -119 -84 -149 -280 -149v156c52 0 61 8 61 37v333c0 42 -19 66 -59 66c-46 0 -73 -30 -73 -102v-286h-220v540h202l10 -87c21 78 75 101 158 101c120 0 183 -48 197 -141c4 -27 5 -58 5 -101v-326z" />
    <glyph glyph-name="o" unicode="o" 
d="M256 270c0 -99 25 -128 75 -128s75 29 75 128s-25 128 -75 128s-75 -29 -75 -128zM26 270c0 171 96 284 305 284s305 -113 305 -284s-97 -284 -305 -284s-305 113 -305 284z" />
    <glyph glyph-name="oacute" unicode="&#xf3;" 
d="M256 270c0 -99 25 -128 75 -128s75 29 75 128s-25 128 -75 128s-75 -29 -75 -128zM26 270c0 171 96 284 305 284s305 -113 305 -284s-97 -284 -305 -284s-305 113 -305 284zM156 600v8l159 158l244 4v-8l-205 -162h-198z" />
    <glyph glyph-name="ocircumflex" unicode="&#xf4;" 
d="M256 270c0 -99 25 -128 75 -128s75 29 75 128s-25 128 -75 128s-75 -29 -75 -128zM26 270c0 171 96 284 305 284s305 -113 305 -284s-97 -284 -305 -284s-305 113 -305 284zM101 598l142 175h177l142 -175h-184l-48 66l-46 -66h-183z" />
    <glyph glyph-name="odieresis" unicode="&#xf6;" 
d="M256 270c0 -99 25 -128 75 -128s75 29 75 128s-25 128 -75 128s-75 -29 -75 -128zM26 270c0 171 96 284 305 284s305 -113 305 -284s-97 -284 -305 -284s-305 113 -305 284zM108 710c0 54 43 97 97 97s97 -43 97 -97s-43 -97 -97 -97s-97 43 -97 97zM360 710
c0 54 43 97 97 97s97 -43 97 -97s-43 -97 -97 -97s-97 43 -97 97z" />
    <glyph glyph-name="ograve" unicode="&#xf2;" 
d="M256 270c0 -99 25 -128 75 -128s75 29 75 128s-25 128 -75 128s-75 -29 -75 -128zM26 270c0 171 96 284 305 284s305 -113 305 -284s-97 -284 -305 -284s-305 113 -305 284zM116 762v8l244 -4l159 -158v-8h-198z" />
    <glyph glyph-name="ohungarumlaut" unicode="&#x151;" 
d="M256 270c0 -99 25 -128 75 -128s75 29 75 128s-25 128 -75 128s-75 -29 -75 -128zM26 270c0 171 96 284 305 284s305 -113 305 -284s-97 -284 -305 -284s-305 113 -305 284zM74 590v8l119 168l194 4v-8l-155 -172h-158zM344 590v8l119 168l194 4v-8l-155 -172h-158z" />
    <glyph glyph-name="omacron" unicode="&#x14d;" 
d="M256 270c0 -99 25 -128 75 -128s75 29 75 128s-25 128 -75 128s-75 -29 -75 -128zM26 270c0 171 96 284 305 284s305 -113 305 -284s-97 -284 -305 -284s-305 113 -305 284zM161 622v126h340v-126h-340z" />
    <glyph glyph-name="oslash" unicode="&#xf8;" horiz-adv-x="652" 
d="M559 574l71 -71l-52 -52c36 -47 53 -109 53 -181c0 -171 -97 -284 -305 -284c-71 0 -130 13 -175 38l-58 -58l-71 71l52 52c-36 47 -53 109 -53 181c0 171 96 284 305 284c72 0 130 -13 176 -37zM231 270l1 -23l153 153c-15 13 -35 18 -59 18c-63 0 -95 -34 -95 -148z
M267 140c15 -13 35 -18 59 -18c63 0 95 34 95 148c0 8 0 16 -1 23z" />
    <glyph glyph-name="otilde" unicode="&#xf5;" 
d="M256 270c0 -99 25 -128 75 -128s75 29 75 128s-25 128 -75 128s-75 -29 -75 -128zM26 270c0 171 96 284 305 284s305 -113 305 -284s-97 -284 -305 -284s-305 113 -305 284zM90 629c52 130 73 149 131 149c28 0 59 -7 104 -24c32 -12 68 -22 87 -22c20 0 25 6 44 46
l116 -36c-52 -130 -73 -149 -131 -149c-28 0 -59 7 -104 24c-32 12 -68 22 -87 22c-20 0 -25 -6 -44 -46z" />
    <glyph glyph-name="oe" unicode="&#x153;" horiz-adv-x="998" 
d="M331 554c64 0 132 -22 182 -68c43 43 106 68 190 68c191 0 273 -112 273 -272c0 -22 -1 -37 -3 -52h-349c7 -71 35 -88 78 -88c34 0 52 13 59 43h207c-18 -127 -114 -199 -273 -199c-79 0 -141 20 -184 61c-50 -43 -117 -61 -180 -61c-208 0 -305 113 -305 284
s96 284 305 284zM256 270c0 -99 25 -128 75 -128c45 0 73 35 73 128c0 95 -28 128 -73 128c-50 0 -75 -29 -75 -128zM625 328h139c-5 51 -31 70 -70 70s-62 -17 -69 -70z" />
    <glyph glyph-name="p" unicode="p" horiz-adv-x="691" 
d="M274 -190h-220v730h202l15 -82c24 75 83 96 162 96c162 0 232 -105 232 -279c0 -197 -91 -289 -240 -289c-65 0 -124 15 -151 81v-257zM274 251c0 -84 33 -109 74 -109c54 0 77 45 77 134c0 77 -26 122 -75 122s-76 -32 -76 -118v-29z" />
    <glyph glyph-name="thorn" unicode="&#xfe;" horiz-adv-x="691" 
d="M274 -190h-220v920h220v-263c26 67 83 87 159 87c162 0 232 -105 232 -279c0 -197 -91 -289 -240 -289c-65 0 -124 15 -151 81v-257zM274 251c0 -84 33 -109 74 -109c54 0 77 45 77 134c0 77 -26 122 -75 122s-76 -32 -76 -118v-29z" />
    <glyph glyph-name="q" unicode="q" horiz-adv-x="691" 
d="M417 -190v263c-26 -67 -83 -87 -159 -87c-162 0 -232 105 -232 279c0 197 91 289 240 289c66 0 127 -14 157 -74l12 60h202v-730h-220zM266 264c0 -77 26 -122 75 -122s76 32 76 118v29c0 84 -33 109 -74 109c-54 0 -77 -45 -77 -134z" />
    <glyph glyph-name="r" unicode="r" horiz-adv-x="470" 
d="M417 554c25 0 41 -1 56 -5v-169c-147 17 -199 -30 -199 -153v-227h-220v540h202l10 -107c14 96 69 121 151 121z" />
    <glyph glyph-name="racute" unicode="&#x155;" horiz-adv-x="470" 
d="M417 554c25 0 41 -1 56 -5v-169c-147 17 -199 -30 -199 -153v-227h-220v540h202l10 -107c14 96 69 121 151 121zM67 610v8l159 158l244 4v-8l-205 -162h-198z" />
    <glyph glyph-name="rcaron" unicode="&#x159;" horiz-adv-x="470" 
d="M417 554c25 0 41 -1 56 -5v-169c-147 17 -199 -30 -199 -153v-227h-220v540h202l10 -107c14 96 69 121 151 121zM12 773h184l48 -66l46 66h183l-142 -175h-177z" />
    <glyph glyph-name="uni0157" unicode="&#x157;" horiz-adv-x="470" 
d="M417 554c25 0 41 -1 56 -5v-169c-147 17 -199 -30 -199 -153v-227h-220v540h202l10 -107c14 96 69 121 151 121zM-71 -190l154 153h234v-10l-191 -143h-197z" />
    <glyph glyph-name="s" unicode="s" horiz-adv-x="574" 
d="M288 554c173 0 235 -70 243 -173h-201c-4 31 -20 41 -46 41c-22 0 -40 -11 -40 -29c0 -21 10 -32 84 -42c142 -19 223 -69 223 -180c0 -134 -122 -185 -263 -185c-168 0 -248 58 -263 178h207c3 -31 21 -46 60 -46c34 0 49 13 49 30c0 20 -32 30 -78 37
c-166 24 -229 72 -229 185c0 112 99 184 254 184z" />
    <glyph glyph-name="sacute" unicode="&#x15b;" horiz-adv-x="574" 
d="M288 554c173 0 235 -70 243 -173h-201c-4 31 -20 41 -46 41c-22 0 -40 -11 -40 -29c0 -21 10 -32 84 -42c142 -19 223 -69 223 -180c0 -134 -122 -185 -263 -185c-168 0 -248 58 -263 178h207c3 -31 21 -46 60 -46c34 0 49 13 49 30c0 20 -32 30 -78 37
c-166 24 -229 72 -229 185c0 112 99 184 254 184zM106 610v8l159 158l244 4v-8l-205 -162h-198z" />
    <glyph glyph-name="scaron" unicode="&#x161;" horiz-adv-x="574" 
d="M288 554c173 0 235 -70 243 -173h-201c-4 31 -20 41 -46 41c-22 0 -40 -11 -40 -29c0 -21 10 -32 84 -42c142 -19 223 -69 223 -180c0 -134 -122 -185 -263 -185c-168 0 -248 58 -263 178h207c3 -31 21 -46 60 -46c34 0 49 13 49 30c0 20 -32 30 -78 37
c-166 24 -229 72 -229 185c0 112 99 184 254 184zM51 773h184l48 -66l46 66h183l-142 -175h-177z" />
    <glyph glyph-name="scedilla" unicode="&#x15f;" horiz-adv-x="574" 
d="M288 554c173 0 235 -70 243 -173h-201c-4 31 -20 41 -46 41c-22 0 -40 -11 -40 -29c0 -21 10 -32 84 -42c142 -19 223 -69 223 -180c0 -113 -87 -167 -199 -181l-9 -14c54 -10 82 -32 82 -78c0 -65 -72 -102 -169 -102c-36 0 -60 1 -87 6v92c18 -4 31 -5 40 -5
c28 0 38 6 38 20c0 15 -17 22 -51 19v13l29 48c-125 14 -187 71 -200 175h207c3 -31 21 -46 60 -46c34 0 49 13 49 30c0 20 -32 30 -78 37c-166 24 -229 72 -229 185c0 112 99 184 254 184z" />
    <glyph glyph-name="uni0219" unicode="&#x219;" horiz-adv-x="574" 
d="M288 554c173 0 235 -70 243 -173h-201c-4 31 -20 41 -46 41c-22 0 -40 -11 -40 -29c0 -21 10 -32 84 -42c142 -19 223 -69 223 -180c0 -134 -122 -185 -263 -185c-168 0 -248 58 -263 178h207c3 -31 21 -46 60 -46c34 0 49 13 49 30c0 20 -32 30 -78 37
c-166 24 -229 72 -229 185c0 112 99 184 254 184zM57 -190l154 153h234v-10l-191 -143h-197z" />
    <glyph glyph-name="germandbls" unicode="&#xdf;" horiz-adv-x="716" 
d="M365 744c178 0 298 -69 298 -204c0 -62 -4 -68 -48 -96c-29 -19 -42 -35 -42 -51c0 -19 12 -42 55 -91c55 -60 74 -92 74 -150c0 -106 -77 -166 -242 -166c-53 0 -89 6 -138 20v152c44 -12 72 -16 94 -16c36 0 56 10 56 34c0 19 -10 34 -44 71c-42 46 -76 73 -76 123
c0 43 24 75 78 108c9 6 13 14 13 22c0 44 -22 68 -81 68c-75 0 -88 -35 -88 -90v-478h-220v400c0 60 1 86 2 104c9 137 101 240 309 240z" />
    <glyph glyph-name="t" unicode="t" horiz-adv-x="465" 
d="M325 209c0 -66 17 -77 107 -74v-140c-45 -6 -78 -9 -146 -9c-133 0 -173 51 -179 133c-2 31 -2 56 -2 86v179h-85v156h85v148h220v-148h118v-156h-118v-175z" />
    <glyph glyph-name="tbar" unicode="&#x167;" horiz-adv-x="450" 
d="M386 320v-96h-61v-15c0 -66 17 -77 107 -74v-140c-45 -6 -78 -9 -146 -9c-133 0 -173 51 -179 133c-2 31 -2 56 -2 86v19h-69v96h69v64h-85v156h85v148h220v-148h118v-156h-118v-64h61z" />
    <glyph glyph-name="tcaron" unicode="&#x165;" horiz-adv-x="565" 
d="M551 740v-24l-44 -144h-160l32 168h172zM20 384v156h85v148h220v-148h118v-156h-118v-175c0 -66 17 -77 107 -74v-140c-45 -6 -78 -9 -146 -9c-133 0 -173 51 -179 133c-2 31 -2 56 -2 86v179h-85z" />
    <glyph glyph-name="uni0163" unicode="&#x163;" horiz-adv-x="465" 
d="M325 209c0 -66 17 -77 107 -74v-140c-31 -4 -57 -7 -92 -8l-7 -11c54 -10 82 -32 82 -78c0 -65 -72 -102 -169 -102c-36 0 -60 1 -87 6v92c18 -4 31 -5 40 -5c28 0 38 6 38 20c0 15 -17 22 -51 19v13l31 51c-79 16 -105 61 -110 127c-2 31 -2 56 -2 86v179h-85v156h85
v148h220v-148h118v-156h-118v-175z" />
    <glyph glyph-name="uni021B" unicode="&#x21b;" horiz-adv-x="465" 
d="M325 209c0 -66 17 -77 107 -74v-140c-45 -6 -78 -9 -146 -9c-133 0 -173 51 -179 133c-2 31 -2 56 -2 86v179h-85v156h85v148h220v-148h118v-156h-118v-175zM47 -190l154 153h234v-10l-191 -143h-197z" />
    <glyph glyph-name="u" unicode="u" 
d="M234 -14c-114 0 -175 48 -189 141c-4 27 -5 58 -5 101v312h220v-332c0 -42 20 -66 57 -66c46 0 71 30 71 102v296h220v-540h-202l-10 87c-19 -88 -80 -101 -162 -101z" />
    <glyph glyph-name="uacute" unicode="&#xfa;" 
d="M234 -14c-114 0 -175 48 -189 141c-4 27 -5 58 -5 101v312h220v-332c0 -42 20 -66 57 -66c46 0 71 30 71 102v296h220v-540h-202l-10 87c-19 -88 -80 -101 -162 -101zM150 610v8l159 158l244 4v-8l-205 -162h-198z" />
    <glyph glyph-name="ucircumflex" unicode="&#xfb;" 
d="M234 -14c-114 0 -175 48 -189 141c-4 27 -5 58 -5 101v312h220v-332c0 -42 20 -66 57 -66c46 0 71 30 71 102v296h220v-540h-202l-10 87c-19 -88 -80 -101 -162 -101zM95 608l142 175h177l142 -175h-184l-48 66l-46 -66h-183z" />
    <glyph glyph-name="udieresis" unicode="&#xfc;" 
d="M234 -14c-114 0 -175 48 -189 141c-4 27 -5 58 -5 101v312h220v-332c0 -42 20 -66 57 -66c46 0 71 30 71 102v296h220v-540h-202l-10 87c-19 -88 -80 -101 -162 -101zM102 720c0 54 43 97 97 97s97 -43 97 -97s-43 -97 -97 -97s-97 43 -97 97zM354 720c0 54 43 97 97 97
s97 -43 97 -97s-43 -97 -97 -97s-97 43 -97 97z" />
    <glyph glyph-name="ugrave" unicode="&#xf9;" 
d="M234 -14c-114 0 -175 48 -189 141c-4 27 -5 58 -5 101v312h220v-332c0 -42 20 -66 57 -66c46 0 71 30 71 102v296h220v-540h-202l-10 87c-19 -88 -80 -101 -162 -101zM110 772v8l244 -4l159 -158v-8h-198z" />
    <glyph glyph-name="uhungarumlaut" unicode="&#x171;" 
d="M234 -14c-114 0 -175 48 -189 141c-4 27 -5 58 -5 101v312h220v-332c0 -42 20 -66 57 -66c46 0 71 30 71 102v296h220v-540h-202l-10 87c-19 -88 -80 -101 -162 -101zM68 600v8l119 168l194 4v-8l-155 -172h-158zM338 600v8l119 168l194 4v-8l-155 -172h-158z" />
    <glyph glyph-name="umacron" unicode="&#x16b;" 
d="M234 -14c-114 0 -175 48 -189 141c-4 27 -5 58 -5 101v312h220v-332c0 -42 20 -66 57 -66c46 0 71 30 71 102v296h220v-540h-202l-10 87c-19 -88 -80 -101 -162 -101zM155 632v126h340v-126h-340z" />
    <glyph glyph-name="uogonek" unicode="&#x173;" 
d="M234 -14c-114 0 -175 48 -189 141c-4 27 -5 58 -5 101v312h220v-332c0 -42 20 -66 57 -66c46 0 71 30 71 102v296h220v-540c-48 -8 -75 -36 -75 -55c0 -16 12 -30 41 -30c11 0 25 2 34 5l-14 -103c-29 -12 -67 -21 -121 -21c-59 0 -114 25 -114 89c0 51 34 89 80 115h-33
l-10 87c-19 -88 -80 -101 -162 -101z" />
    <glyph glyph-name="uring" unicode="&#x16f;" 
d="M234 -14c-114 0 -175 48 -189 141c-4 27 -5 58 -5 101v312h220v-332c0 -42 20 -66 57 -66c46 0 71 30 71 102v296h220v-540h-202l-10 87c-19 -88 -80 -101 -162 -101zM157 723c0 85 70 127 168 127s168 -42 168 -127s-70 -127 -168 -127s-168 42 -168 127zM290 723
c0 -26 11 -41 35 -41s35 15 35 41s-11 41 -35 41s-35 -15 -35 -41z" />
    <glyph glyph-name="v" unicode="v" horiz-adv-x="652" 
d="M661 540l-220 -540h-240l-212 540h244l96 -326l99 326h233z" />
    <glyph glyph-name="w" unicode="w" horiz-adv-x="882" 
d="M878 540l-143 -540h-231c-24 79 -48 170 -66 264c-16 -94 -38 -185 -60 -264h-231l-143 540h231c21 -105 34 -210 44 -314c20 100 46 200 73 300h190c26 -100 50 -200 69 -300c12 104 29 208 53 313z" />
    <glyph glyph-name="wacute" unicode="&#x1e83;" horiz-adv-x="882" 
d="M878 540l-143 -540h-231c-24 79 -48 170 -66 264c-16 -94 -38 -185 -60 -264h-231l-143 540h231c21 -105 34 -210 44 -314c20 100 46 200 73 300h190c26 -100 50 -200 69 -300c12 104 29 208 53 313zM260 610v8l159 158l244 4v-8l-205 -162h-198z" />
    <glyph glyph-name="wcircumflex" unicode="&#x175;" horiz-adv-x="882" 
d="M878 540l-143 -540h-231c-24 79 -48 170 -66 264c-16 -94 -38 -185 -60 -264h-231l-143 540h231c21 -105 34 -210 44 -314c20 100 46 200 73 300h190c26 -100 50 -200 69 -300c12 104 29 208 53 313zM205 608l142 175h177l142 -175h-184l-48 66l-46 -66h-183z" />
    <glyph glyph-name="wdieresis" unicode="&#x1e85;" horiz-adv-x="882" 
d="M878 540l-143 -540h-231c-24 79 -48 170 -66 264c-16 -94 -38 -185 -60 -264h-231l-143 540h231c21 -105 34 -210 44 -314c20 100 46 200 73 300h190c26 -100 50 -200 69 -300c12 104 29 208 53 313zM212 720c0 54 43 97 97 97s97 -43 97 -97s-43 -97 -97 -97
s-97 43 -97 97zM464 720c0 54 43 97 97 97s97 -43 97 -97s-43 -97 -97 -97s-97 43 -97 97z" />
    <glyph glyph-name="wgrave" unicode="&#x1e81;" horiz-adv-x="882" 
d="M878 540l-143 -540h-231c-24 79 -48 170 -66 264c-16 -94 -38 -185 -60 -264h-231l-143 540h231c21 -105 34 -210 44 -314c20 100 46 200 73 300h190c26 -100 50 -200 69 -300c12 104 29 208 53 313zM220 772v8l244 -4l159 -158v-8h-198z" />
    <glyph glyph-name="x" unicode="x" horiz-adv-x="652" 
d="M640 540l-178 -277l174 -263h-244l-70 129l-79 -129h-231l176 271l-169 269h240l68 -127l68 127h245z" />
    <glyph glyph-name="y" unicode="y" horiz-adv-x="650" 
d="M439 0c-69 -169 -124 -210 -296 -210c-29 0 -50 1 -76 5v155c25 -3 52 -4 77 -4c39 0 52 6 60 23l-215 571h253l87 -339l97 339h233z" />
    <glyph glyph-name="yacute" unicode="&#xfd;" horiz-adv-x="650" 
d="M439 0c-69 -169 -124 -210 -296 -210c-29 0 -50 1 -76 5v155c25 -3 52 -4 77 -4c39 0 52 6 60 23l-215 571h253l87 -339l97 339h233zM148 610v8l159 158l244 4v-8l-205 -162h-198z" />
    <glyph glyph-name="ycircumflex" unicode="&#x177;" horiz-adv-x="650" 
d="M439 0c-69 -169 -124 -210 -296 -210c-29 0 -50 1 -76 5v155c25 -3 52 -4 77 -4c39 0 52 6 60 23l-215 571h253l87 -339l97 339h233zM93 608l142 175h177l142 -175h-184l-48 66l-46 -66h-183z" />
    <glyph glyph-name="ydieresis" unicode="&#xff;" horiz-adv-x="650" 
d="M439 0c-69 -169 -124 -210 -296 -210c-29 0 -50 1 -76 5v155c25 -3 52 -4 77 -4c39 0 52 6 60 23l-215 571h253l87 -339l97 339h233zM100 720c0 54 43 97 97 97s97 -43 97 -97s-43 -97 -97 -97s-97 43 -97 97zM352 720c0 54 43 97 97 97s97 -43 97 -97s-43 -97 -97 -97
s-97 43 -97 97z" />
    <glyph glyph-name="ygrave" unicode="&#x1ef3;" horiz-adv-x="650" 
d="M439 0c-69 -169 -124 -210 -296 -210c-29 0 -50 1 -76 5v155c25 -3 52 -4 77 -4c39 0 52 6 60 23l-215 571h253l87 -339l97 339h233zM108 772v8l244 -4l159 -158v-8h-198z" />
    <glyph glyph-name="z" unicode="z" horiz-adv-x="586" 
d="M549 540v-118l-223 -266h221v-156h-513v113l225 271h-215v156h505z" />
    <glyph glyph-name="zacute" unicode="&#x17a;" horiz-adv-x="586" 
d="M549 540v-118l-223 -266h221v-156h-513v113l225 271h-215v156h505zM121 610v8l159 158l244 4v-8l-205 -162h-198z" />
    <glyph glyph-name="zcaron" unicode="&#x17e;" horiz-adv-x="586" 
d="M549 540v-118l-223 -266h221v-156h-513v113l225 271h-215v156h505zM66 773h184l48 -66l46 66h183l-142 -175h-177z" />
    <glyph glyph-name="zdotaccent" unicode="&#x17c;" horiz-adv-x="586" 
d="M549 540v-118l-223 -266h221v-156h-513v113l225 271h-215v156h505zM184 720c0 62 50 112 112 112s112 -50 112 -112s-50 -112 -112 -112s-112 50 -112 112z" />
    <glyph glyph-name="zero" unicode="0" horiz-adv-x="660" 
d="M330 550c-49 0 -69 -41 -69 -185c0 -143 20 -185 69 -185c48 0 68 42 68 185c0 144 -20 185 -68 185zM31 365c0 241 79 379 299 379c219 0 298 -138 298 -379c0 -240 -79 -379 -298 -379c-220 0 -299 139 -299 379z" />
    <glyph glyph-name="one" unicode="1" horiz-adv-x="660" 
d="M538 730v-730h-224v457h-193v120l203 153h214z" />
    <glyph glyph-name="two" unicode="2" horiz-adv-x="660" 
d="M346 744c171 0 277 -92 277 -234c0 -112 -55 -196 -261 -319l-35 -21h289v-170h-567v208l106 66c199 124 238 159 238 214c0 47 -24 62 -65 62c-37 0 -66 -19 -68 -70h-220c4 176 110 264 306 264z" />
    <glyph glyph-name="three" unicode="3" horiz-adv-x="660" 
d="M332 744c166 0 285 -64 285 -204c0 -81 -54 -141 -140 -171c104 -27 143 -93 143 -174c0 -145 -118 -209 -284 -209c-186 0 -291 62 -302 244h220c4 -38 26 -60 70 -60s66 15 66 56c0 39 -31 59 -99 60l-79 1v158l79 1c60 1 96 14 96 61c0 35 -21 53 -62 53
s-57 -24 -59 -60h-220c1 136 79 244 286 244z" />
    <glyph glyph-name="four" unicode="4" horiz-adv-x="660" 
d="M310 730h240v-376h90v-190h-90v-164h-224v164h-308v199zM205 354h121v150z" />
    <glyph glyph-name="five" unicode="5" horiz-adv-x="660" 
d="M594 730v-190h-307l-16 -135c28 57 76 83 147 83c132 0 216 -91 216 -238c0 -166 -121 -264 -291 -264c-198 0 -299 70 -304 234h220c4 -30 26 -54 69 -54c44 0 76 32 76 78c0 45 -32 79 -76 79c-40 0 -60 -21 -72 -57h-211l49 464h500z" />
    <glyph glyph-name="six" unicode="6" horiz-adv-x="660" 
d="M350 744c180 0 264 -66 276 -225h-220c-4 27 -19 41 -59 41c-45 0 -73 -37 -76 -167c22 64 80 85 147 85c134 0 214 -99 214 -229c0 -176 -125 -263 -283 -263c-187 0 -310 87 -310 376c0 251 86 382 311 382zM277 244c0 -46 27 -74 63 -74c37 0 66 27 66 70
c0 42 -22 74 -65 74c-39 0 -64 -27 -64 -70z" />
    <glyph glyph-name="seven" unicode="7" horiz-adv-x="660" 
d="M632 522c-121 -148 -214 -321 -279 -522h-254c69 196 163 377 272 540h-330v190h591v-208z" />
    <glyph glyph-name="eight" unicode="8" horiz-adv-x="660" 
d="M333 744c168 0 275 -83 275 -202c0 -85 -46 -136 -113 -163c66 -25 137 -79 137 -182c0 -143 -129 -213 -301 -213c-201 0 -303 74 -303 221c0 94 66 148 130 173c-64 27 -100 81 -100 161c0 121 105 205 275 205zM258 227c0 -40 30 -59 74 -59c49 0 71 23 71 58
c0 41 -34 62 -73 62c-40 0 -72 -21 -72 -61zM275 509c0 -38 27 -52 59 -52c33 0 60 14 60 51c0 33 -25 52 -60 52c-32 0 -59 -21 -59 -51z" />
    <glyph glyph-name="nine" unicode="9" horiz-adv-x="660" 
d="M310 -14c-160 0 -254 69 -266 235h220c4 -34 19 -51 59 -51c48 0 68 46 66 178c-17 -69 -74 -96 -137 -96c-139 0 -223 105 -223 233c0 173 124 259 282 259c197 0 309 -87 309 -376c0 -223 -76 -382 -310 -382zM254 488c0 -42 24 -72 65 -72s64 30 64 70
c0 47 -27 74 -63 74c-37 0 -66 -25 -66 -72z" />
    <glyph glyph-name="zero.prop" horiz-adv-x="680" 
d="M340 550c-56 0 -79 -31 -79 -185c0 -153 23 -185 79 -185s79 32 79 185c0 154 -23 185 -79 185zM31 365c0 241 82 379 309 379s309 -138 309 -379c0 -240 -82 -379 -309 -379s-309 139 -309 379z" />
    <glyph glyph-name="one.prop" horiz-adv-x="558" 
d="M468 730v-730h-224v457h-193v120l203 153h214z" />
    <glyph glyph-name="two.prop" horiz-adv-x="660" 
d="M346 744c171 0 277 -92 277 -234c0 -112 -55 -196 -261 -319l-35 -21h289v-170h-567v208l106 66c199 124 238 159 238 214c0 47 -24 62 -65 62c-37 0 -66 -19 -68 -70h-220c4 176 110 264 306 264z" />
    <glyph glyph-name="three.prop" horiz-adv-x="660" 
d="M332 744c166 0 285 -64 285 -204c0 -81 -54 -141 -140 -171c104 -27 143 -93 143 -174c0 -145 -118 -209 -284 -209c-186 0 -291 62 -302 244h220c4 -38 26 -60 70 -60s66 15 66 56c0 39 -31 59 -99 60l-79 1v158l79 1c60 1 96 14 96 61c0 35 -21 53 -62 53
s-57 -24 -59 -60h-220c1 136 79 244 286 244z" />
    <glyph glyph-name="four.prop" horiz-adv-x="660" 
d="M310 730h240v-376h90v-190h-90v-164h-224v164h-308v199zM205 354h121v150z" />
    <glyph glyph-name="five.prop" horiz-adv-x="660" 
d="M594 730v-190h-307l-16 -135c28 57 76 83 147 83c132 0 216 -91 216 -238c0 -166 -121 -264 -291 -264c-198 0 -299 70 -304 234h220c4 -30 26 -54 69 -54c44 0 76 32 76 78c0 45 -32 79 -76 79c-40 0 -60 -21 -72 -57h-211l49 464h500z" />
    <glyph glyph-name="six.prop" horiz-adv-x="660" 
d="M350 744c180 0 264 -66 276 -225h-220c-4 27 -19 41 -59 41c-45 0 -73 -37 -76 -167c22 64 80 85 147 85c134 0 214 -99 214 -229c0 -176 -125 -263 -283 -263c-187 0 -310 87 -310 376c0 251 86 382 311 382zM277 244c0 -46 27 -74 63 -74c37 0 66 27 66 70
c0 42 -22 74 -65 74c-39 0 -64 -27 -64 -70z" />
    <glyph glyph-name="seven.prop" horiz-adv-x="660" 
d="M632 522c-121 -148 -214 -321 -279 -522h-254c69 196 163 377 272 540h-330v190h591v-208z" />
    <glyph glyph-name="eight.prop" horiz-adv-x="660" 
d="M333 744c168 0 275 -83 275 -202c0 -85 -46 -136 -113 -163c66 -25 137 -79 137 -182c0 -143 -129 -213 -301 -213c-201 0 -303 74 -303 221c0 94 66 148 130 173c-64 27 -100 81 -100 161c0 121 105 205 275 205zM258 227c0 -40 30 -59 74 -59c49 0 71 23 71 58
c0 41 -34 62 -73 62c-40 0 -72 -21 -72 -61zM275 509c0 -38 27 -52 59 -52c33 0 60 14 60 51c0 33 -25 52 -60 52c-32 0 -59 -21 -59 -51z" />
    <glyph glyph-name="nine.prop" horiz-adv-x="660" 
d="M310 -14c-160 0 -254 69 -266 235h220c4 -34 19 -51 59 -51c48 0 68 46 66 178c-17 -69 -74 -96 -137 -96c-139 0 -223 105 -223 233c0 173 124 259 282 259c197 0 309 -87 309 -376c0 -223 -76 -382 -310 -382zM254 488c0 -42 24 -72 65 -72s64 30 64 70
c0 47 -27 74 -63 74c-37 0 -66 -25 -66 -72z" />
    <glyph glyph-name="fraction" unicode="&#x2044;" horiz-adv-x="300" 
d="M460 690l-447 -690h-173l447 690h173z" />
    <glyph glyph-name="period" unicode="." horiz-adv-x="320" 
d="M160 -14c-66 0 -120 54 -120 120s54 120 120 120s120 -54 120 -120s-54 -120 -120 -120z" />
    <glyph glyph-name="comma" unicode="," horiz-adv-x="320" 
d="M259 208v-54l-84 -312h-180l72 366h192z" />
    <glyph glyph-name="colon" unicode=":" horiz-adv-x="320" 
d="M160 -14c-66 0 -120 54 -120 120s54 120 120 120s120 -54 120 -120s-54 -120 -120 -120zM40 434c0 66 54 120 120 120s120 -54 120 -120s-54 -120 -120 -120s-120 54 -120 120z" />
    <glyph glyph-name="semicolon" unicode=";" horiz-adv-x="320" 
d="M160 314c-66 0 -120 54 -120 120s54 120 120 120s120 -54 120 -120s-54 -120 -120 -120zM-5 -158l72 366h192v-54l-84 -312h-180z" />
    <glyph glyph-name="ellipsis" unicode="&#x2026;" horiz-adv-x="920" 
d="M160 -14c-66 0 -120 54 -120 120s54 120 120 120s120 -54 120 -120s-54 -120 -120 -120zM340 106c0 66 54 120 120 120s120 -54 120 -120s-54 -120 -120 -120s-120 54 -120 120zM640 106c0 66 54 120 120 120s120 -54 120 -120s-54 -120 -120 -120s-120 54 -120 120z" />
    <glyph glyph-name="exclam" unicode="!" horiz-adv-x="384" 
d="M303 730l-12 -470h-198l-12 470h222zM80 98c0 62 50 112 112 112s112 -50 112 -112s-50 -112 -112 -112s-112 50 -112 112z" />
    <glyph glyph-name="exclamdown" unicode="&#xa1;" horiz-adv-x="384" 
d="M81 -200l12 470h198l12 -470h-222zM80 432c0 62 50 112 112 112s112 -50 112 -112s-50 -112 -112 -112s-112 50 -112 112z" />
    <glyph glyph-name="question" unicode="?" horiz-adv-x="639" 
d="M316 744c148 0 277 -70 277 -215c0 -96 -47 -154 -137 -204c-34 -19 -42 -38 -46 -65h-204c-3 96 21 132 106 176c38 19 51 37 51 61c0 33 -18 53 -54 53c-31 0 -59 -18 -59 -66h-230c0 170 100 260 296 260zM196 98c0 62 50 112 112 112s112 -50 112 -112
s-50 -112 -112 -112s-112 50 -112 112z" />
    <glyph glyph-name="questiondown" unicode="&#xbf;" horiz-adv-x="569" 
d="M283 -210c-148 0 -277 70 -277 215c0 96 47 154 137 204c34 19 42 38 46 65h204c3 -96 -21 -132 -106 -176c-38 -19 -51 -37 -51 -61c0 -33 18 -53 54 -53c31 0 59 18 59 66h230c0 -170 -100 -260 -296 -260zM179 436c0 62 50 112 112 112s112 -50 112 -112
s-50 -112 -112 -112s-112 50 -112 112z" />
    <glyph glyph-name="periodcentered" unicode="&#xb7;" horiz-adv-x="320" 
d="M160 201c-66 0 -120 54 -120 120s54 120 120 120s120 -54 120 -120s-54 -120 -120 -120z" />
    <glyph glyph-name="bullet" unicode="&#x2022;" horiz-adv-x="392" 
d="M196 191c-72 0 -130 58 -130 130s58 130 130 130c71 0 130 -58 130 -130s-59 -130 -130 -130z" />
    <glyph glyph-name="asterisk" unicode="*" horiz-adv-x="680" 
d="M34 346l57 173l169 -67l-11 180h182l-11 -180l169 67l57 -173l-178 -46l126 -146l-146 -110l-108 165l-109 -165l-146 110l126 146z" />
    <glyph glyph-name="numbersign" unicode="#" horiz-adv-x="680" 
d="M604 730l-34 -169h75v-130h-101l-25 -122h96v-130h-122l-36 -179h-152l36 179h-77l-36 -179h-152l36 179h-77v130h103l25 122h-98v130h124l34 169h152l-34 -169h77l34 169h152zM290 309h77l25 122h-77z" />
    <glyph glyph-name="slash" unicode="/" horiz-adv-x="396" 
d="M406 780l-251 -860h-165l251 860h165z" />
    <glyph glyph-name="backslash" unicode="\" horiz-adv-x="397" 
d="M-10 780h165l252 -860h-165z" />
    <glyph glyph-name="colon.case" horiz-adv-x="320" 
d="M160 56c-66 0 -120 54 -120 120s54 120 120 120s120 -54 120 -120s-54 -120 -120 -120zM40 504c0 66 54 120 120 120s120 -54 120 -120s-54 -120 -120 -120s-120 54 -120 120z" />
    <glyph glyph-name="semicolon.case" horiz-adv-x="320" 
d="M160 384c-66 0 -120 54 -120 120s54 120 120 120s120 -54 120 -120s-54 -120 -120 -120zM-5 -88l72 366h192v-54l-84 -312h-180z" />
    <glyph glyph-name="hyphen" unicode="-" horiz-adv-x="364" 
d="M332 378v-170h-300v170h300z" />
    <glyph glyph-name="endash" unicode="&#x2013;" horiz-adv-x="550" 
d="M460 375v-150h-370v150h370z" />
    <glyph glyph-name="emdash" unicode="&#x2014;" horiz-adv-x="1000" 
d="M910 375v-150h-820v150h820z" />
    <glyph glyph-name="underscore" unicode="_" horiz-adv-x="500" 
d="M490 -22v-150h-480v150h480z" />
    <glyph glyph-name="hyphen.case" horiz-adv-x="364" 
d="M332 461v-190h-300v190h300z" />
    <glyph glyph-name="endash.case" horiz-adv-x="550" 
d="M460 461v-190h-370v190h370z" />
    <glyph glyph-name="emdash.case" horiz-adv-x="1000" 
d="M910 461v-190h-820v190h820z" />
    <glyph glyph-name="parenleft" unicode="(" horiz-adv-x="390" 
d="M363 750c-82 -141 -136 -290 -136 -450s54 -309 136 -450h-188c-93 151 -128 285 -128 450s35 299 128 450h188z" />
    <glyph glyph-name="parenright" unicode=")" horiz-adv-x="390" 
d="M215 750c93 -151 128 -285 128 -450s-35 -299 -128 -450h-188c82 141 136 290 136 450s-54 309 -136 450h188z" />
    <glyph glyph-name="braceleft" unicode="{" horiz-adv-x="440" 
d="M287 -140c-100 0 -175 37 -175 116c0 34 4 67 14 129c6 40 9 67 9 90c0 26 -15 46 -92 45v120c77 -1 92 19 92 45c0 23 -3 50 -9 90c-10 62 -14 95 -14 129c0 79 75 116 175 116h121v-140h-65c-49 0 -64 -4 -64 -30c0 -11 2 -23 9 -65c7 -45 13 -87 13 -103
c0 -55 -20 -87 -76 -99c56 -14 76 -50 76 -105c0 -16 -5 -58 -13 -103c-7 -42 -9 -54 -9 -65c0 -26 15 -30 64 -30h65v-140h-121z" />
    <glyph glyph-name="braceright" unicode="}" horiz-adv-x="440" 
d="M153 740c100 0 175 -37 175 -116c0 -34 -4 -67 -14 -129c-6 -40 -9 -67 -9 -90c0 -26 15 -46 92 -45v-120c-77 1 -92 -19 -92 -45c0 -23 3 -50 9 -90c10 -62 14 -95 14 -129c0 -79 -75 -116 -175 -116h-121v140h65c49 0 64 4 64 30c0 11 -2 23 -9 65
c-7 45 -13 87 -13 103c0 55 20 87 76 99c-56 14 -76 50 -76 105c0 16 5 58 13 103c7 42 9 54 9 65c0 26 -15 30 -64 30h-65v140h121z" />
    <glyph glyph-name="bracketleft" unicode="[" horiz-adv-x="453" 
d="M100 740h323v-140h-163v-600h163v-140h-323v880z" />
    <glyph glyph-name="bracketright" unicode="]" horiz-adv-x="453" 
d="M353 740v-880h-323v140h163v600h-163v140h323z" />
    <glyph glyph-name="parenleft.case" horiz-adv-x="390" 
d="M363 800c-82 -141 -136 -290 -136 -450s54 -309 136 -450h-188c-93 151 -128 285 -128 450s35 299 128 450h188z" />
    <glyph glyph-name="parenright.case" horiz-adv-x="390" 
d="M215 800c93 -151 128 -285 128 -450s-35 -299 -128 -450h-188c82 141 136 290 136 450s-54 309 -136 450h188z" />
    <glyph glyph-name="braceleft.case" horiz-adv-x="440" 
d="M287 -90c-100 0 -175 37 -175 116c0 34 4 67 14 129c6 40 9 67 9 90c0 26 -15 46 -92 45v120c77 -1 92 19 92 45c0 23 -3 50 -9 90c-10 62 -14 95 -14 129c0 79 75 116 175 116h121v-140h-65c-49 0 -64 -4 -64 -30c0 -11 2 -23 9 -65c7 -45 13 -87 13 -103
c0 -55 -20 -87 -76 -99c56 -14 76 -50 76 -105c0 -16 -5 -58 -13 -103c-7 -42 -9 -54 -9 -65c0 -26 15 -30 64 -30h65v-140h-121z" />
    <glyph glyph-name="braceright.case" horiz-adv-x="440" 
d="M153 790c100 0 175 -37 175 -116c0 -34 -4 -67 -14 -129c-6 -40 -9 -67 -9 -90c0 -26 15 -46 92 -45v-120c-77 1 -92 -19 -92 -45c0 -23 3 -50 9 -90c10 -62 14 -95 14 -129c0 -79 -75 -116 -175 -116h-121v140h65c49 0 64 4 64 30c0 11 -2 23 -9 65
c-7 45 -13 87 -13 103c0 55 20 87 76 99c-56 14 -76 50 -76 105c0 16 5 58 13 103c7 42 9 54 9 65c0 26 -15 30 -64 30h-65v140h121z" />
    <glyph glyph-name="bracketleft.case" horiz-adv-x="453" 
d="M100 790h323v-140h-163v-600h163v-140h-323v880z" />
    <glyph glyph-name="bracketright.case" horiz-adv-x="453" 
d="M353 790v-880h-323v140h163v600h-163v140h323z" />
    <glyph glyph-name="quotesinglbase" unicode="&#x201a;" horiz-adv-x="320" 
d="M259 208v-54l-84 -312h-180l72 366h192z" />
    <glyph glyph-name="quotedblbase" unicode="&#x201e;" horiz-adv-x="612" 
d="M551 208v-54l-84 -312h-180l72 366h192zM-5 -158l72 366h192v-54l-84 -312h-180z" />
    <glyph glyph-name="quotedblleft" unicode="&#x201c;" horiz-adv-x="629" 
d="M351 374v54l84 312h180l-72 -366h-192zM61 374v54l84 312h180l-72 -366h-192z" />
    <glyph glyph-name="quotedblright" unicode="&#x201d;" horiz-adv-x="631" 
d="M570 740v-54l-84 -312h-180l72 366h192zM14 374l72 366h192v-54l-84 -312h-180z" />
    <glyph glyph-name="quoteleft" unicode="&#x2018;" horiz-adv-x="339" 
d="M61 374v54l84 312h180l-72 -366h-192z" />
    <glyph glyph-name="quoteright" unicode="&#x2019;" horiz-adv-x="339" 
d="M278 740v-54l-84 -312h-180l72 366h192z" />
    <glyph glyph-name="guillemotleft" unicode="&#xab;" horiz-adv-x="784" 
d="M531 506h219l-167 -236l167 -236h-219l-167 236zM54 270l167 236h219l-167 -236l167 -236h-219z" />
    <glyph glyph-name="guillemotright" unicode="&#xbb;" horiz-adv-x="784" 
d="M253 506l167 -236l-167 -236h-219l167 236l-167 236h219zM344 34l167 236l-167 236h219l167 -236l-167 -236h-219z" />
    <glyph glyph-name="guilsinglleft" unicode="&#x2039;" horiz-adv-x="474" 
d="M221 506h219l-167 -236l167 -236h-219l-167 236z" />
    <glyph glyph-name="guilsinglright" unicode="&#x203a;" horiz-adv-x="474" 
d="M253 506l167 -236l-167 -236h-219l167 236l-167 236h219z" />
    <glyph glyph-name="quotedbl" unicode="&#x22;" horiz-adv-x="534" 
d="M242 740l-16 -364h-168l-16 364h200zM292 740h200l-16 -364h-168z" />
    <glyph glyph-name="quotesingle" unicode="'" horiz-adv-x="284" 
d="M242 740l-16 -364h-168l-16 364h200z" />
    <glyph glyph-name="guillemotleft.case" horiz-adv-x="784" 
d="M531 576h219l-167 -236l167 -236h-219l-167 236zM54 340l167 236h219l-167 -236l167 -236h-219z" />
    <glyph glyph-name="guillemotright.case" horiz-adv-x="784" 
d="M253 576l167 -236l-167 -236h-219l167 236l-167 236h219zM344 104l167 236l-167 236h219l167 -236l-167 -236h-219z" />
    <glyph glyph-name="guilsinglleft.case" horiz-adv-x="474" 
d="M221 576h219l-167 -236l167 -236h-219l-167 236z" />
    <glyph glyph-name="guilsinglright.case" horiz-adv-x="474" 
d="M253 576l167 -236l-167 -236h-219l167 236l-167 236h219z" />
    <glyph glyph-name="at" unicode="@" horiz-adv-x="1010" 
d="M576 50v84c-11 -53 -51 -94 -117 -94c-130 0 -189 86 -189 240c0 137 53 240 186 240c66 0 114 -38 121 -84l6 74h153v-340h5c68 0 104 28 104 152c0 190 -107 296 -325 296s-345 -134 -345 -338c0 -239 150 -338 353 -338c114 0 216 40 274 77v-133
c-48 -35 -162 -70 -274 -70c-256 0 -485 116 -485 464c0 268 174 464 477 464c309 0 457 -191 457 -422c0 -177 -90 -272 -236 -272h-165zM454 280c0 -77 25 -104 62 -104c39 0 57 33 57 79v50c0 52 -21 79 -58 79c-43 0 -61 -40 -61 -104z" />
    <glyph glyph-name="ampersand" unicode="&#x26;" horiz-adv-x="786" 
d="M128 559c0 110 85 185 227 185c151 0 229 -64 229 -171c0 -92 -48 -138 -137 -196l80 -86c17 31 30 66 38 103h180c-1 -79 -31 -178 -88 -242l141 -152h-246l-38 43c-57 -40 -118 -57 -193 -57c-165 0 -285 68 -285 224c0 81 42 152 156 196c-42 54 -64 97 -64 153z
M256 231c0 -47 34 -71 87 -71c20 0 39 4 57 11l-106 118c-29 -20 -38 -38 -38 -58zM313 556c0 -23 10 -45 43 -80c36 26 53 50 53 78c0 26 -13 46 -47 46c-30 0 -49 -17 -49 -44z" />
    <glyph glyph-name="paragraph" unicode="&#xb6;" horiz-adv-x="842" 
d="M782 730v-840h-224v650h-83v-650h-224v410c-18 0 -39 0 -56 1c-102 6 -157 89 -157 214s55 208 157 214c17 1 38 1 56 1h531z" />
    <glyph glyph-name="section" unicode="&#xa7;" horiz-adv-x="693" 
d="M344 744c206 0 280 -85 288 -208h-210c-4 38 -38 54 -77 54c-36 0 -62 -10 -62 -32c0 -21 22 -31 90 -46c212 -48 284 -121 284 -238c0 -69 -35 -117 -88 -149c43 -33 64 -74 64 -130c0 -116 -105 -199 -288 -199c-206 0 -280 85 -288 208h210c4 -38 41 -54 81 -54
c39 0 65 10 65 32c0 21 -31 32 -93 46c-212 49 -284 121 -284 238c0 69 35 118 89 149c-42 33 -62 75 -62 130c0 116 102 199 281 199zM266 292c0 -39 29 -62 116 -86l6 -2c26 6 39 21 39 44c0 39 -29 62 -116 86l-6 2c-26 -6 -39 -21 -39 -44z" />
    <glyph glyph-name="copyright" unicode="&#xa9;" horiz-adv-x="860" 
d="M437 582c136 0 199 -73 211 -186h-167c-3 30 -19 44 -47 44c-41 0 -53 -28 -53 -73c0 -53 20 -77 54 -77c23 0 43 11 45 44h167c-14 -114 -80 -186 -217 -186c-143 0 -223 82 -223 218c0 127 80 216 230 216zM18 365c0 247 170 404 412 404s411 -157 411 -404
s-169 -404 -411 -404s-412 157 -412 404zM88 365c0 -205 132 -336 342 -336s342 131 342 336s-132 336 -342 336s-342 -131 -342 -336z" />
    <glyph glyph-name="registered" unicode="&#xae;" horiz-adv-x="500" 
d="M250 764c122 0 210 -83 210 -210s-88 -210 -210 -210s-210 83 -210 210s88 210 210 210zM85 554c0 -103 58 -166 165 -166s165 63 165 166s-58 166 -165 166s-165 -63 -165 -166zM164 463v194h94c44 0 84 -11 84 -60c0 -24 -18 -38 -41 -44c20 -4 26 -16 30 -36
c3 -17 6 -29 10 -42l10 -12h-74c-4 12 -7 26 -10 40c-3 15 -10 18 -20 18h-19v-58h-64zM228 571h22c18 0 26 6 26 18c0 14 -9 18 -26 18h-22v-36z" />
    <glyph glyph-name="trademark" unicode="&#x2122;" horiz-adv-x="890" 
d="M840 730v-352h-122v194c-3 -28 -9 -56 -16 -84l-26 -106h-82l-26 106c-8 31 -14 62 -18 92v-202h-122v352h157c17 -53 33 -105 50 -171c16 66 32 118 48 171h157zM30 632v98h358v-98h-118v-254h-122v254h-118z" />
    <glyph glyph-name="degree" unicode="&#xb0;" horiz-adv-x="380" 
d="M190 745c84 0 152 -67 152 -150s-68 -150 -152 -150s-152 67 -152 150s68 150 152 150zM142 595c0 -28 21 -50 48 -50s48 22 48 50s-21 50 -48 50s-48 -22 -48 -50z" />
    <glyph glyph-name="bar" unicode="|" horiz-adv-x="356" 
d="M258 800v-1000h-160v1000h160z" />
    <glyph glyph-name="brokenbar" unicode="&#xa6;" horiz-adv-x="356" 
d="M258 800v-415h-160v415h160zM98 -200v415h160v-415h-160z" />
    <glyph glyph-name="dagger" unicode="&#x2020;" horiz-adv-x="610" 
d="M396 730l-10 -206l178 4v-160l-179 4l11 -532h-182l11 532l-179 -4v160l178 -4l-10 206h182z" />
    <glyph glyph-name="daggerdbl" unicode="&#x2021;" horiz-adv-x="610" 
d="M396 730l-10 -206l178 4v-160l-180 4v-174l180 4v-160l-178 4l10 -206h-182l10 206l-178 -4v160l180 -4v174l-180 -4v160l178 -4l-10 206h182z" />
    <glyph glyph-name="cent" unicode="&#xa2;" horiz-adv-x="680" 
d="M429 725v-90c152 -19 199 -103 210 -216h-219c-3 49 -31 64 -63 64c-52 0 -67 -46 -67 -126c0 -89 15 -130 68 -130c37 0 59 29 62 64h219c-13 -115 -74 -193 -210 -214v-92h-150v91c-153 21 -219 117 -219 277c0 147 62 254 219 280v92h150z" />
    <glyph glyph-name="currency" unicode="&#xa4;" 
d="M331 101c-36 0 -69 9 -98 26l-80 -80l-77 77l80 80c-16 29 -25 62 -25 97s9 68 25 97l-80 80l77 77l80 -80c29 17 62 26 98 26s69 -9 98 -26l80 80l77 -77l-80 -80c16 -29 25 -62 25 -97s-9 -68 -25 -97l80 -80l-77 -77l-80 80c-29 -17 -62 -26 -98 -26zM256 301
c0 -41 34 -75 75 -75s75 34 75 75s-34 75 -75 75s-75 -34 -75 -75z" />
    <glyph glyph-name="dollar" unicode="$" horiz-adv-x="680" 
d="M239 800h200v-96c115 -25 178 -97 182 -213h-210c-3 34 -25 55 -80 55c-32 0 -60 -7 -60 -30c0 -31 28 -41 83 -49c195 -30 292 -93 292 -226c0 -132 -101 -195 -207 -216v-94h-200v99c-110 28 -191 98 -196 220h210c6 -46 43 -65 98 -65c52 0 75 18 75 39
c0 30 -29 38 -74 46c-200 36 -301 90 -301 229c0 114 83 180 188 204v97z" />
    <glyph glyph-name="Euro" unicode="&#x20ac;" horiz-adv-x="680" 
d="M474 744c92 0 157 -25 203 -62l-62 -141c-43 23 -88 33 -132 33c-64 0 -105 -22 -130 -59h205l-31 -130h-209v-23c0 -11 0 -22 1 -32h197l-29 -130h-133c27 -33 71 -44 137 -44c55 0 103 11 147 31v-159c-49 -28 -94 -42 -193 -42c-188 0 -298 62 -339 214h-104l30 130
h57c-1 10 -1 21 -1 32v23h-47l30 130h36c45 163 174 229 367 229z" />
    <glyph glyph-name="sterling" unicode="&#xa3;" horiz-adv-x="680" 
d="M344 744c216 0 280 -81 289 -251h-220c-3 47 -26 57 -64 57c-33 0 -57 -13 -57 -50c0 -19 4 -37 13 -65h290v-140h-237c2 -9 3 -16 3 -24c0 -36 -17 -63 -48 -81h327v-190h-598v204c63 6 100 29 100 62c0 8 -2 16 -6 29h-105v140h47c-9 29 -16 57 -16 83
c0 133 103 226 282 226z" />
    <glyph glyph-name="yen" unicode="&#xa5;" horiz-adv-x="680" 
d="M677 730l-159 -315h92v-140h-158v-37h158v-140h-158v-98h-224v98h-158v140h158v37h-158v140h92l-159 315h226l115 -300l112 300h221z" />
    <glyph glyph-name="plus" unicode="+" horiz-adv-x="610" 
d="M380 568v-181h170v-140h-170v-181h-150v181h-170v140h170v181h150z" />
    <glyph glyph-name="minus" unicode="&#x2212;" horiz-adv-x="610" 
d="M540 387v-140h-470v140h470z" />
    <glyph glyph-name="multiply" unicode="&#xd7;" horiz-adv-x="610" 
d="M448 554l-142 -142l-143 142l-94 -94l143 -142l-143 -143l94 -94l143 143l142 -143l94 94l-236 237l-94 -94l94 -94l236 236z" />
    <glyph glyph-name="divide" unicode="&#xf7;" horiz-adv-x="610" 
d="M550 387v-140h-490v140h490zM213 111c0 51 41 92 92 92s92 -41 92 -92s-41 -92 -92 -92s-92 41 -92 92zM213 523c0 51 41 92 92 92s92 -41 92 -92s-41 -92 -92 -92s-92 41 -92 92z" />
    <glyph glyph-name="equal" unicode="=" horiz-adv-x="610" 
d="M545 502v-140h-480v140h480zM65 132v140h480v-140h-480z" />
    <glyph glyph-name="notequal" unicode="&#x2260;" horiz-adv-x="610" 
d="M501 612l-45 -110h89v-140h-146l-37 -90h183v-140h-240l-45 -110h-155l45 110h-85v140h142l37 90h-179v140h236l45 110h155z" />
    <glyph glyph-name="greater" unicode="&#x3e;" horiz-adv-x="610" 
d="M62 -5v153l284 111l-284 111v155l471 -187v-156z" />
    <glyph glyph-name="less" unicode="&#x3c;" horiz-adv-x="610" 
d="M548 535v-153l-284 -111l284 -111v-155l-471 187v156z" />
    <glyph glyph-name="greaterequal" unicode="&#x2265;" horiz-adv-x="610" 
d="M80 170v151l256 48l-256 53v148l440 -122v-156zM80 0v140h440v-140h-440z" />
    <glyph glyph-name="lessequal" unicode="&#x2264;" horiz-adv-x="610" 
d="M530 570v-151l-256 -48l256 -53v-148l-440 122v156zM90 0v140h440v-140h-440z" />
    <glyph glyph-name="plusminus" unicode="&#xb1;" horiz-adv-x="610" 
d="M380 558v-120h151v-140h-151v-122h-150v122h-151v140h151v120h150zM79 0v140h452v-140h-452z" />
    <glyph glyph-name="approxequal" unicode="&#x2248;" horiz-adv-x="610" 
d="M180 514c33 0 57 -6 119 -28c39 -14 75 -26 103 -26c22 0 29 6 48 56l116 -36c-52 -140 -74 -159 -136 -159c-33 0 -57 6 -119 28c-39 14 -75 26 -103 26c-22 0 -29 -6 -48 -56l-116 36c52 140 74 159 136 159zM44 105c52 140 74 159 136 159c33 0 57 -6 119 -28
c39 -14 75 -26 103 -26c22 0 29 6 48 56l116 -36c-52 -140 -74 -159 -136 -159c-33 0 -57 6 -119 28c-39 14 -75 26 -103 26c-22 0 -29 -6 -48 -56z" />
    <glyph glyph-name="asciitilde" unicode="~" horiz-adv-x="610" 
d="M180 402c33 0 57 -6 119 -28c39 -14 75 -26 103 -26c22 0 29 6 48 56l116 -36c-52 -140 -74 -159 -136 -159c-33 0 -57 6 -119 28c-39 14 -75 26 -103 26c-22 0 -29 -6 -48 -56l-116 36c52 140 74 159 136 159z" />
    <glyph glyph-name="logicalnot" unicode="&#xac;" horiz-adv-x="610" 
d="M517 440v-268h-150v128h-287v140h437z" />
    <glyph glyph-name="asciicircum" unicode="^" horiz-adv-x="610" 
d="M378 740l189 -371h-162l-96 190l-96 -190h-159l189 371h135z" />
    <glyph glyph-name="emptyset" unicode="&#x2205;" horiz-adv-x="976" 
d="M488 762c93 0 179 -31 248 -85l86 86l79 -79l-86 -86c49 -67 79 -151 79 -243c0 -231 -186 -408 -406 -408c-90 0 -175 30 -243 81l-91 -91l-79 79l90 90c-52 69 -83 154 -83 249c0 231 186 407 406 407zM194 355c0 -64 19 -122 50 -170l415 415c-49 36 -108 56 -171 56
c-157 0 -294 -128 -294 -301zM323 106c48 -33 105 -52 165 -52c157 0 294 128 294 301c0 61 -17 117 -47 163z" />
    <glyph glyph-name="infinity" unicode="&#x221e;" horiz-adv-x="1157" 
d="M40 318c0 164 118 275 280 275c112 0 195 -43 265 -129c66 87 147 129 252 129c158 0 280 -112 280 -275c0 -164 -118 -275 -280 -275c-112 0 -195 43 -265 129c-66 -87 -147 -129 -252 -129c-158 0 -280 112 -280 275zM240 318c0 -74 53 -101 97 -101
c36 0 89 26 119 101c-41 73 -83 101 -119 101c-42 0 -97 -26 -97 -101zM701 318c41 -73 83 -101 119 -101c42 0 97 26 97 101c0 74 -53 101 -97 101c-36 0 -89 -26 -119 -101z" />
    <glyph glyph-name="integral" unicode="&#x222b;" horiz-adv-x="663" 
d="M499 744c50 0 95 -5 134 -14v-190c-24 6 -56 8 -90 8c-46 0 -56 -16 -63 -54l-82 -453c-26 -146 -90 -215 -224 -215c-54 0 -101 3 -144 12v190c26 -5 62 -6 90 -6c41 0 56 16 63 54l81 449c25 140 69 219 235 219z" />
    <glyph glyph-name="product" unicode="&#x220f;" horiz-adv-x="888" 
d="M848 730v-190h-100v-660h-224v660h-160v-660h-224v660h-100v190h808z" />
    <glyph glyph-name="summation" unicode="&#x2211;" horiz-adv-x="743" 
d="M675 730v-190h-317l237 -233l-240 -227h346v-190h-669v152l296 268l-281 258v162h628z" />
    <glyph glyph-name="radical" unicode="&#x221a;" horiz-adv-x="742" 
d="M836 870l-326 -1030h-284l-92 300h-127v170h293l73 -240l237 800h226z" />
    <glyph glyph-name="partialdiff" unicode="&#x2202;" horiz-adv-x="694" 
d="M349 744c214 0 300 -116 300 -335c0 -255 -110 -423 -354 -423c-148 0 -273 79 -273 251c0 182 93 278 268 278c71 0 121 -27 131 -92c5 126 -30 165 -121 165c-51 0 -83 -9 -148 -35l-44 135c80 40 154 56 241 56zM253 249c0 -70 17 -107 70 -107c52 0 90 67 95 169
c-14 28 -44 48 -82 48c-54 0 -83 -26 -83 -110zM427 280v-5v5z" />
    <glyph glyph-name="percent" unicode="%" horiz-adv-x="938" 
d="M809 730l-507 -730h-173l507 730h173zM26 555c0 114 73 189 195 189c129 0 205 -75 205 -189c0 -113 -76 -189 -205 -189c-122 0 -195 76 -195 189zM168 555c0 -44 19 -65 53 -65s53 21 53 65s-19 65 -53 65s-53 -21 -53 -65zM512 175c0 114 73 189 195 189
c129 0 205 -75 205 -189c0 -113 -76 -189 -205 -189c-122 0 -195 76 -195 189zM654 175c0 -44 19 -65 53 -65s53 21 53 65s-19 65 -53 65s-53 -21 -53 -65z" />
    <glyph glyph-name="perthousand" unicode="&#x2030;" horiz-adv-x="1378" 
d="M1147 364c129 0 205 -75 205 -189c0 -113 -76 -189 -205 -189c-122 0 -195 76 -195 189c0 114 73 189 195 189zM26 555c0 114 73 189 195 189c129 0 205 -75 205 -189c0 -113 -76 -189 -205 -189c-122 0 -195 76 -195 189zM129 0l507 730h173l-507 -730h-173zM168 555
c0 -44 19 -65 53 -65s53 21 53 65s-19 65 -53 65s-53 -21 -53 -65zM512 175c0 114 73 189 195 189c129 0 205 -75 205 -189c0 -113 -76 -189 -205 -189c-122 0 -195 76 -195 189zM654 175c0 -44 19 -65 53 -65s53 21 53 65s-19 65 -53 65s-53 -21 -53 -65zM1094 175
c0 -44 19 -65 53 -65s53 21 53 65s-19 65 -53 65s-53 -21 -53 -65z" />
    <glyph glyph-name="lozenge" unicode="&#x25ca;" horiz-adv-x="654" 
d="M433 730l187 -365l-187 -365h-212l-187 365l187 365h212zM196 365l131 -262l131 262l-131 262z" />
    <glyph glyph-name="uni0326" unicode="&#x326;" horiz-adv-x="0" 
d="M404 -37v-10l-191 -143h-197l154 153h234z" />
    <glyph glyph-name="dieresis" unicode="&#xa8;" horiz-adv-x="500" 
d="M124 623c-54 0 -97 43 -97 97s43 97 97 97s97 -43 97 -97s-43 -97 -97 -97zM279 720c0 54 43 97 97 97s97 -43 97 -97s-43 -97 -97 -97s-97 43 -97 97z" />
    <glyph glyph-name="dotaccent" unicode="&#x2d9;" horiz-adv-x="500" 
d="M250 608c-62 0 -112 50 -112 112s50 112 112 112s112 -50 112 -112s-50 -112 -112 -112z" />
    <glyph glyph-name="grave" unicode="`" horiz-adv-x="500" 
d="M35 772v8l244 -4l159 -158v-8h-198z" />
    <glyph glyph-name="acute" unicode="&#xb4;" horiz-adv-x="500" 
d="M478 772l-205 -162h-198v8l159 158l244 4v-8z" />
    <glyph glyph-name="hungarumlaut" unicode="&#x2dd;" horiz-adv-x="500" 
d="M306 772l-155 -172h-158v8l119 168l194 4v-8zM263 600v8l119 168l194 4v-8l-155 -172h-158z" />
    <glyph glyph-name="circumflex" unicode="&#x2c6;" horiz-adv-x="500" 
d="M339 783l142 -175h-184l-48 66l-46 -66h-183l142 175h177z" />
    <glyph glyph-name="caron" unicode="&#x2c7;" horiz-adv-x="500" 
d="M162 598l-142 175h184l48 -66l46 66h183l-142 -175h-177z" />
    <glyph glyph-name="breve" unicode="&#x2d8;" horiz-adv-x="500" 
d="M250 603c-153 0 -201 65 -201 174h150c2 -41 17 -62 51 -62s50 20 51 62h150c0 -109 -48 -174 -201 -174z" />
    <glyph glyph-name="ring" unicode="&#x2da;" horiz-adv-x="500" 
d="M215 723c0 -26 11 -41 35 -41s35 15 35 41s-11 41 -35 41s-35 -15 -35 -41zM82 723c0 85 70 127 168 127s168 -42 168 -127s-70 -127 -168 -127s-168 42 -168 127z" />
    <glyph glyph-name="tilde" unicode="&#x2dc;" horiz-adv-x="500" 
d="M140 788c28 0 59 -7 104 -24c32 -12 68 -22 87 -22c20 0 25 6 44 46l116 -36c-52 -130 -73 -149 -131 -149c-28 0 -59 7 -104 24c-32 12 -68 22 -87 22c-20 0 -25 -6 -44 -46l-116 36c52 130 73 149 131 149z" />
    <glyph glyph-name="macron" unicode="&#xaf;" horiz-adv-x="500" 
d="M420 758v-126h-340v126h340z" />
    <glyph glyph-name="cedilla" unicode="&#xb8;" horiz-adv-x="500" 
d="M322 9l-20 -33c54 -10 82 -32 82 -78c0 -65 -72 -102 -169 -102c-36 0 -60 1 -87 6v92c18 -4 31 -5 40 -5c28 0 38 6 38 20c0 15 -17 22 -51 19v13l41 68h126z" />
    <glyph glyph-name="ogonek" unicode="&#x2db;" horiz-adv-x="500" 
d="M394 0c-48 -8 -75 -36 -75 -55c0 -16 12 -30 41 -30c11 0 25 2 34 5l-14 -103c-29 -12 -67 -21 -121 -21c-59 0 -114 25 -114 89c0 70 65 116 136 140z" />
    </font>
</defs>
</svg>
