<?xml version="1.0" standalone="no"?>
<!DOCTYPE svg PUBLIC "-//W3C//DTD SVG 1.1//EN" "http://www.w3.org/Graphics/SVG/1.1/DTD/svg11.dtd" >
<svg xmlns="http://www.w3.org/2000/svg" xmlns:xlink="http://www.w3.org/1999/xlink" version="1.1">
<metadata>
Created by FontForge 20220308 at Wed Dec 29 17:58:24 2021
 By Shift
Copyright \(C\) 2021 by Sora Sagano.
</metadata>
<defs>
<font id="Nacelle-Thin" horiz-adv-x="540" >
  <font-face 
    font-family="Nacelle Thin"
    font-weight="100"
    font-stretch="normal"
    units-per-em="1000"
    panose-1="0 0 0 0 0 0 0 0 0 0"
    ascent="770"
    descent="-230"
    x-height="510"
    cap-height="730"
    bbox="-200 -230 1063 975"
    underline-thickness="50"
    underline-position="-125"
    stemh="21"
    stemv="22"
    unicode-range="U+0020-FB02"
  />
<missing-glyph horiz-adv-x="500" 
d="M410 770v-1000h-317v1000h317zM167 -161h166v33h-102l70 47h32v33h-166v-33h70l-70 -47v-33zM167 -25h166v113h-166v-113zM167 148h166v113h-100v-56h34v23h33v-47h-100v80h-33v-113zM167 283h166v100h-33v-66h-133v-34zM167 340h100v70h66v33h-166v-33h66v-37h-66v-33z
M167 470h166v34h-66v70h-100v-104zM167 600h166v33h-66v37h66v33h-165v-33h65v-37h-66v-33zM200 8v47h100v-47h-100zM200 504v36h33v-36h-33z" />
    <glyph glyph-name="fi" unicode="fi" horiz-adv-x="414" 
d="M195 744c20 0 29 -1 47 -5v-22c-108 19 -128 -36 -128 -101v-110h117v-22h-117v-484h-22v484h-63v22h63v90c0 15 0 25 1 46c4 66 48 102 102 102zM307 650c0 14 11 25 25 25s25 -11 25 -25s-11 -25 -25 -25s-25 11 -25 25zM321 0v510h22v-510h-22z" />
    <glyph glyph-name="fl" unicode="fl" horiz-adv-x="443" 
d="M195 744c20 0 29 -1 47 -5v-22c-108 19 -128 -36 -128 -101v-110h117v-22h-117v-484h-22v484h-63v22h63v90c0 15 0 25 1 46c4 66 48 102 102 102zM322 123v607h22v-643c0 -71 8 -74 67 -67v-22c-11 -2 -21 -3 -32 -3c-37 0 -54 16 -56 56c-1 20 -1 36 -1 72z" />
    <glyph glyph-name=".notdef" horiz-adv-x="500" 
d="M410 770v-1000h-317v1000h317zM167 -161h166v33h-102l70 47h32v33h-166v-33h70l-70 -47v-33zM167 -25h166v113h-166v-113zM167 148h166v113h-100v-56h34v23h33v-47h-100v80h-33v-113zM167 283h166v100h-33v-66h-133v-34zM167 340h100v70h66v33h-166v-33h66v-37h-66v-33z
M167 470h166v34h-66v70h-100v-104zM167 600h166v33h-66v37h66v33h-165v-33h65v-37h-66v-33zM200 8v47h100v-47h-100zM200 504v36h33v-36h-33z" />
    <glyph glyph-name="space" unicode=" " horiz-adv-x="204" 
 />
    <glyph glyph-name="space" unicode="&#xa0;" horiz-adv-x="204" 
 />
    <glyph glyph-name="A" unicode="A" horiz-adv-x="654" 
d="M341 730l287 -730h-25l-107 271h-340l-105 -271h-25l287 730h28zM166 294h322l-161 411z" />
    <glyph glyph-name="Aacute" unicode="&#xc1;" horiz-adv-x="654" 
d="M341 730l287 -730h-25l-107 271h-340l-105 -271h-25l287 730h28zM166 294h322l-161 411zM222 785v2l169 148h34v-2l-175 -148h-28z" />
    <glyph glyph-name="Abreve" unicode="&#x102;" horiz-adv-x="654" 
d="M341 730l287 -730h-25l-107 271h-340l-105 -271h-25l287 730h28zM166 294h322l-161 411zM206 932h20c-5 -65 15 -122 101 -122s106 57 101 122h20c6 -76 -18 -144 -121 -144s-127 68 -121 144z" />
    <glyph glyph-name="Acircumflex" unicode="&#xc2;" horiz-adv-x="654" 
d="M341 730l287 -730h-25l-107 271h-340l-105 -271h-25l287 730h28zM166 294h322l-161 411zM187 790l128 140h23l129 -140h-31l-110 120l-109 -120h-30z" />
    <glyph glyph-name="Adieresis" unicode="&#xc4;" horiz-adv-x="654" 
d="M341 730l287 -730h-25l-107 271h-340l-105 -271h-25l287 730h28zM166 294h322l-161 411zM240 858c0 15 12 27 27 27s27 -12 27 -27s-12 -27 -27 -27s-27 12 -27 27zM360 858c0 15 12 27 27 27s27 -12 27 -27s-12 -27 -27 -27s-27 12 -27 27z" />
    <glyph glyph-name="Agrave" unicode="&#xc0;" horiz-adv-x="654" 
d="M341 730l287 -730h-25l-107 271h-340l-105 -271h-25l287 730h28zM166 294h322l-161 411zM222 933v2h34l169 -148v-2h-28z" />
    <glyph glyph-name="Amacron" unicode="&#x100;" horiz-adv-x="654" 
d="M341 730l287 -730h-25l-107 271h-340l-105 -271h-25l287 730h28zM166 294h322l-161 411zM227 849v22h200v-22h-200z" />
    <glyph glyph-name="Aogonek" unicode="&#x104;" horiz-adv-x="654" 
d="M341 730l287 -730c-49 -28 -96 -79 -96 -129c0 -41 25 -54 57 -54c16 0 31 4 46 11l-1 -22c-18 -7 -33 -10 -49 -10c-39 0 -76 17 -76 73s42 102 91 137l-104 265h-340l-105 -271h-25l287 730h28zM166 294h322l-161 411z" />
    <glyph glyph-name="Aring" unicode="&#xc5;" horiz-adv-x="654" 
d="M341 730l287 -730h-25l-107 271h-340l-105 -271h-25l287 730h28zM166 294h322l-161 411zM239 860c0 48 41 75 88 75s88 -27 88 -75s-41 -75 -88 -75s-88 27 -88 75zM262 860c0 -35 27 -54 65 -54s65 19 65 54s-27 54 -65 54s-65 -19 -65 -54z" />
    <glyph glyph-name="Atilde" unicode="&#xc3;" horiz-adv-x="654" 
d="M341 730l287 -730h-25l-107 271h-340l-105 -271h-25l287 730h28zM166 294h322l-161 411zM196 840c16 36 36 54 68 54c16 0 29 -5 68 -24c36 -19 49 -22 58 -22c22 0 31 11 47 43l21 -10c-16 -36 -36 -57 -68 -57c-16 0 -29 5 -68 24c-36 19 -49 22 -58 22
c-22 0 -31 -8 -47 -40z" />
    <glyph glyph-name="AE" unicode="&#xc6;" horiz-adv-x="916" 
d="M855 730v-23h-455l58 -326h377v-23h-373l60 -335h343v-23h-362l-49 277h-297l-141 -277h-26l374 730h491zM168 300h282l-73 410z" />
    <glyph glyph-name="B" unicode="B" horiz-adv-x="597" 
d="M255 730c28 0 44 0 81 -2c108 -7 192 -66 192 -182c0 -84 -56 -159 -145 -173c120 -13 178 -84 178 -180c0 -118 -93 -183 -201 -191c-26 -2 -45 -2 -70 -2h-202v730h167zM112 23h214c112 0 211 55 211 169c0 124 -99 166 -244 166h-181v-335zM112 381h175
c99 0 217 33 217 164c0 115 -86 162 -209 162h-183v-326z" />
    <glyph glyph-name="C" unicode="C" horiz-adv-x="688" 
d="M366 744c167 0 257 -95 281 -212h-25c-22 105 -104 189 -255 189c-186 0 -293 -140 -293 -354c0 -249 119 -358 302 -358c138 0 227 79 249 189h24c-25 -121 -120 -212 -275 -212c-206 0 -324 135 -324 380c0 221 110 378 316 378z" />
    <glyph glyph-name="Cacute" unicode="&#x106;" horiz-adv-x="688" 
d="M366 744c167 0 257 -95 281 -212h-25c-22 105 -104 189 -255 189c-186 0 -293 -140 -293 -354c0 -249 119 -358 302 -358c138 0 227 79 249 189h24c-25 -121 -120 -212 -275 -212c-206 0 -324 135 -324 380c0 221 110 378 316 378zM262 785v2l169 148h34v-2l-175 -148
h-28z" />
    <glyph glyph-name="Ccaron" unicode="&#x10c;" horiz-adv-x="688" 
d="M366 744c167 0 257 -95 281 -212h-25c-22 105 -104 189 -255 189c-186 0 -293 -140 -293 -354c0 -249 119 -358 302 -358c138 0 227 79 249 189h24c-25 -121 -120 -212 -275 -212c-206 0 -324 135 -324 380c0 221 110 378 316 378zM227 930h31l110 -120l109 120h30
l-128 -140h-23z" />
    <glyph glyph-name="Ccedilla" unicode="&#xc7;" horiz-adv-x="688" 
d="M366 744c167 0 257 -95 281 -212h-25c-22 105 -104 189 -255 189c-186 0 -293 -140 -293 -354c0 -249 119 -358 302 -358c138 0 227 79 249 189h24c-25 -121 -120 -212 -275 -212l-26 -34c64 -4 103 -27 103 -77c0 -56 -54 -79 -111 -79c-12 0 -29 2 -43 6v22
c15 -5 31 -7 43 -7c56 0 88 23 88 58c0 39 -36 59 -108 56v14l30 42c-191 10 -300 144 -300 379c0 221 110 378 316 378z" />
    <glyph glyph-name="Cdotaccent" unicode="&#x10a;" horiz-adv-x="688" 
d="M366 744c167 0 257 -95 281 -212h-25c-22 105 -104 189 -255 189c-186 0 -293 -140 -293 -354c0 -249 119 -358 302 -358c138 0 227 79 249 189h24c-25 -121 -120 -212 -275 -212c-206 0 -324 135 -324 380c0 221 110 378 316 378zM340 858c0 15 12 27 27 27
s27 -12 27 -27s-12 -27 -27 -27s-27 12 -27 27z" />
    <glyph glyph-name="D" unicode="D" horiz-adv-x="705" 
d="M296 730c33 0 50 0 76 -2c110 -8 283 -69 283 -350c0 -298 -172 -363 -267 -374c-36 -4 -58 -4 -92 -4h-208v730h208zM112 23h220c194 0 299 129 299 355c0 207 -102 329 -299 329h-220v-684z" />
    <glyph glyph-name="Eth" unicode="&#xd0;" horiz-adv-x="711" 
d="M338 382v-23h-220v-336h220c194 0 299 129 299 355c0 207 -102 329 -299 329h-220v-325h220zM22 359v23h72v348h208c33 0 50 0 76 -2c110 -8 283 -69 283 -350c0 -298 -172 -363 -267 -374c-36 -4 -58 -4 -92 -4h-208v359h-72z" />
    <glyph glyph-name="Dcaron" unicode="&#x10e;" horiz-adv-x="705" 
d="M296 730c33 0 50 0 76 -2c110 -8 283 -69 283 -350c0 -298 -172 -363 -267 -374c-36 -4 -58 -4 -92 -4h-208v730h208zM112 23h220c194 0 299 129 299 355c0 207 -102 329 -299 329h-220v-684zM205 910h31l110 -120l109 120h30l-128 -140h-23z" />
    <glyph glyph-name="Dcroat" unicode="&#x110;" horiz-adv-x="711" 
d="M338 382v-23h-220v-336h220c194 0 299 129 299 355c0 207 -102 329 -299 329h-220v-325h220zM22 359v23h72v348h208c33 0 50 0 76 -2c110 -8 283 -69 283 -350c0 -298 -172 -363 -267 -374c-36 -4 -58 -4 -92 -4h-208v359h-72z" />
    <glyph glyph-name="E" unicode="E" horiz-adv-x="582" 
d="M521 730v-23h-409v-326h388v-23h-388v-335h419v-23h-443v730h433z" />
    <glyph glyph-name="Eacute" unicode="&#xc9;" horiz-adv-x="582" 
d="M521 730v-23h-409v-326h388v-23h-388v-335h419v-23h-443v730h433zM216 785v2l169 148h34v-2l-175 -148h-28z" />
    <glyph glyph-name="Ecaron" unicode="&#x11a;" horiz-adv-x="582" 
d="M521 730v-23h-409v-326h388v-23h-388v-335h419v-23h-443v730h433zM181 930h31l110 -120l109 120h30l-128 -140h-23z" />
    <glyph glyph-name="Ecircumflex" unicode="&#xca;" horiz-adv-x="582" 
d="M521 730v-23h-409v-326h388v-23h-388v-335h419v-23h-443v730h433zM181 790l128 140h23l129 -140h-31l-110 120l-109 -120h-30z" />
    <glyph glyph-name="Edieresis" unicode="&#xcb;" horiz-adv-x="582" 
d="M521 730v-23h-409v-326h388v-23h-388v-335h419v-23h-443v730h433zM234 858c0 15 12 27 27 27s27 -12 27 -27s-12 -27 -27 -27s-27 12 -27 27zM354 858c0 15 12 27 27 27s27 -12 27 -27s-12 -27 -27 -27s-27 12 -27 27z" />
    <glyph glyph-name="Edotaccent" unicode="&#x116;" horiz-adv-x="582" 
d="M521 730v-23h-409v-326h388v-23h-388v-335h419v-23h-443v730h433zM294 858c0 15 12 27 27 27s27 -12 27 -27s-12 -27 -27 -27s-27 12 -27 27z" />
    <glyph glyph-name="Egrave" unicode="&#xc8;" horiz-adv-x="582" 
d="M521 730v-23h-409v-326h388v-23h-388v-335h419v-23h-443v730h433zM216 933v2h34l169 -148v-2h-28z" />
    <glyph glyph-name="Emacron" unicode="&#x112;" horiz-adv-x="582" 
d="M521 730v-23h-409v-326h388v-23h-388v-335h419v-23h-443v730h433zM221 849v22h200v-22h-200z" />
    <glyph glyph-name="Eogonek" unicode="&#x118;" horiz-adv-x="582" 
d="M521 730v-23h-409v-326h388v-23h-388v-335h419v-23c-49 -28 -96 -79 -96 -129c0 -41 25 -54 57 -54c16 0 31 4 46 11l-1 -22c-18 -7 -33 -10 -49 -10c-39 0 -76 17 -76 73c0 53 37 97 83 131h-407v730h433z" />
    <glyph glyph-name="F" unicode="F" horiz-adv-x="571" 
d="M517 730v-22h-405v-328h384v-22h-384v-358h-24v730h429z" />
    <glyph glyph-name="G" unicode="G" horiz-adv-x="713" 
d="M74 367c0 -249 114 -358 290 -358c105 0 267 83 267 283v53h-272v23h296v-368h-24v191c-2 -24 -7 -36 -16 -52c-63 -112 -161 -153 -253 -153c-200 0 -312 135 -312 380c0 221 107 378 316 378c184 0 264 -95 288 -212h-25c-22 105 -94 189 -262 189
c-196 0 -293 -140 -293 -354z" />
    <glyph glyph-name="Gbreve" unicode="&#x11e;" horiz-adv-x="713" 
d="M74 367c0 -249 114 -358 290 -358c105 0 267 83 267 283v53h-272v23h296v-368h-24v191c-2 -24 -7 -36 -16 -52c-63 -112 -161 -153 -253 -153c-200 0 -312 135 -312 380c0 221 107 378 316 378c184 0 264 -95 288 -212h-25c-22 105 -94 189 -262 189
c-196 0 -293 -140 -293 -354zM248 932h20c-5 -65 15 -122 101 -122s106 57 101 122h20c6 -76 -18 -144 -121 -144s-127 68 -121 144z" />
    <glyph glyph-name="uni0122" unicode="&#x122;" horiz-adv-x="713" 
d="M74 367c0 -249 114 -358 290 -358c105 0 267 83 267 283v53h-272v23h296v-368h-24v191c-2 -24 -7 -36 -16 -52c-63 -112 -161 -153 -253 -153c-200 0 -312 135 -312 380c0 221 107 378 316 378c184 0 264 -95 288 -212h-25c-22 105 -94 189 -262 189
c-196 0 -293 -140 -293 -354zM271 -213l153 152h29v-5l-155 -147h-27z" />
    <glyph glyph-name="Gdotaccent" unicode="&#x120;" horiz-adv-x="713" 
d="M74 367c0 -249 114 -358 290 -358c105 0 267 83 267 283v53h-272v23h296v-368h-24v191c-2 -24 -7 -36 -16 -52c-63 -112 -161 -153 -253 -153c-200 0 -312 135 -312 380c0 221 107 378 316 378c184 0 264 -95 288 -212h-25c-22 105 -94 189 -262 189
c-196 0 -293 -140 -293 -354zM342 858c0 15 12 27 27 27s27 -12 27 -27s-12 -27 -27 -27s-27 12 -27 27z" />
    <glyph glyph-name="H" unicode="H" horiz-adv-x="679" 
d="M591 730v-730h-24v358h-455v-358h-24v730h24v-349h455v349h24z" />
    <glyph glyph-name="Hbar" unicode="&#x126;" horiz-adv-x="704" 
d="M656 542v-23h-53v-519h-24v358h-455v-358h-24v519h-52v23h52v188h24v-188h455v188h24v-188h53zM124 381h455v138h-455v-138z" />
    <glyph glyph-name="I" unicode="I" horiz-adv-x="200" 
d="M112 730v-730h-24v730h24z" />
    <glyph glyph-name="IJ" unicode="&#x132;" horiz-adv-x="722" 
d="M112 730v-730h-24v730h24zM231 220h25c6 -164 63 -211 180 -211c133 0 182 85 182 210v511h24v-454c0 -32 0 -61 -2 -94c-6 -95 -55 -196 -204 -196c-143 0 -199 66 -205 234z" />
    <glyph glyph-name="Iacute" unicode="&#xcd;" horiz-adv-x="200" 
d="M112 730v-730h-24v730h24zM-5 785v2l169 148h34v-2l-175 -148h-28z" />
    <glyph glyph-name="Icircumflex" unicode="&#xce;" horiz-adv-x="200" 
d="M112 730v-730h-24v730h24zM-40 790l128 140h23l129 -140h-31l-110 120l-109 -120h-30z" />
    <glyph glyph-name="Idieresis" unicode="&#xcf;" horiz-adv-x="200" 
d="M112 730v-730h-24v730h24zM13 858c0 15 12 27 27 27s27 -12 27 -27s-12 -27 -27 -27s-27 12 -27 27zM133 858c0 15 12 27 27 27s27 -12 27 -27s-12 -27 -27 -27s-27 12 -27 27z" />
    <glyph glyph-name="Idotaccent" unicode="&#x130;" horiz-adv-x="200" 
d="M112 730v-730h-24v730h24zM73 858c0 15 12 27 27 27s27 -12 27 -27s-12 -27 -27 -27s-27 12 -27 27z" />
    <glyph glyph-name="Igrave" unicode="&#xcc;" horiz-adv-x="200" 
d="M112 730v-730h-24v730h24zM-5 933v2h34l169 -148v-2h-28z" />
    <glyph glyph-name="Imacron" unicode="&#x12a;" horiz-adv-x="200" 
d="M112 730v-730h-24v730h24zM0 849v22h200v-22h-200z" />
    <glyph glyph-name="Iogonek" unicode="&#x12e;" horiz-adv-x="200" 
d="M112 730v-730c-49 -28 -96 -79 -96 -129c0 -41 25 -54 57 -54c16 0 31 4 46 11l-1 -22c-18 -7 -33 -10 -49 -10c-39 0 -76 17 -76 73c0 58 44 105 95 140v721h24z" />
    <glyph glyph-name="J" unicode="J" horiz-adv-x="531" 
d="M451 276c0 -32 0 -61 -2 -94c-6 -95 -55 -196 -204 -196c-143 0 -199 66 -205 234h25c6 -164 63 -211 180 -211c133 0 182 85 182 210v511h24v-454z" />
    <glyph glyph-name="K" unicode="K" horiz-adv-x="605" 
d="M565 730l-287 -316l311 -414h-31l-298 396l-148 -162v-234h-24v730h24v-463l422 463h31z" />
    <glyph glyph-name="uni0136" unicode="&#x136;" horiz-adv-x="605" 
d="M565 730l-287 -316l311 -414h-31l-298 396l-148 -162v-234h-24v730h24v-463l422 463h31zM201 -213l153 152h29v-5l-155 -147h-27z" />
    <glyph glyph-name="L" unicode="L" horiz-adv-x="530" 
d="M112 730v-707h386v-23h-410v730h24z" />
    <glyph glyph-name="Lacute" unicode="&#x139;" horiz-adv-x="530" 
d="M112 730v-707h386v-23h-410v730h24zM-5 785v2l169 148h34v-2l-175 -148h-28z" />
    <glyph glyph-name="Lcaron" unicode="&#x13d;" 
d="M358 740v-12l-53 -257h-24l53 269h24zM88 0v730h24v-707h386v-23h-410z" />
    <glyph glyph-name="uni013B" unicode="&#x13b;" horiz-adv-x="530" 
d="M112 730v-707h386v-23h-410v730h24zM193 -213l153 152h29v-5l-155 -147h-27z" />
    <glyph glyph-name="Ldot" unicode="&#x13f;" horiz-adv-x="530" 
d="M445 410c-11 0 -20 9 -20 20s9 20 20 20s20 -9 20 -20s-9 -20 -20 -20zM88 0v730h24v-707h386v-23h-410z" />
    <glyph glyph-name="Lslash" unicode="&#x141;" horiz-adv-x="562" 
d="M334 474v-27l-190 -124v-300h386v-23h-410v309l-106 -69v27l106 69v394h24v-381z" />
    <glyph glyph-name="M" unicode="M" horiz-adv-x="815" 
d="M727 730v-730h-24v432c0 85 -1 180 1 265c-34 -86 -74 -180 -109 -265l-181 -432h-24l-174 432c-34 83 -72 177 -106 262c2 -85 2 -178 2 -262v-432h-24v730h31c94 -234 189 -466 283 -700l291 700h34z" />
    <glyph glyph-name="N" unicode="N" horiz-adv-x="679" 
d="M591 730v-730h-36l-295 467l-150 238c2 -95 2 -205 2 -299v-406h-24v730h35l288 -455c52 -84 105 -166 158 -250c-2 95 -2 205 -2 299v406h24z" />
    <glyph glyph-name="Nacute" unicode="&#x143;" horiz-adv-x="679" 
d="M591 730v-730h-36l-295 467l-150 238c2 -95 2 -205 2 -299v-406h-24v730h35l288 -455c52 -84 105 -166 158 -250c-2 95 -2 205 -2 299v406h24zM230 785v2l169 148h34v-2l-175 -148h-28z" />
    <glyph glyph-name="Ncaron" unicode="&#x147;" horiz-adv-x="679" 
d="M591 730v-730h-36l-295 467l-150 238c2 -95 2 -205 2 -299v-406h-24v730h35l288 -455c52 -84 105 -166 158 -250c-2 95 -2 205 -2 299v406h24zM195 930h31l110 -120l109 120h30l-128 -140h-23z" />
    <glyph glyph-name="uni0145" unicode="&#x145;" horiz-adv-x="679" 
d="M591 730v-730h-36l-295 467l-150 238c2 -95 2 -205 2 -299v-406h-24v730h35l288 -455c52 -84 105 -166 158 -250c-2 95 -2 205 -2 299v406h24zM236 -213l153 152h29v-5l-155 -147h-27z" />
    <glyph glyph-name="Ntilde" unicode="&#xd1;" horiz-adv-x="679" 
d="M591 730v-730h-36l-295 467l-150 238c2 -95 2 -205 2 -299v-406h-24v730h35l288 -455c52 -84 105 -166 158 -250c-2 95 -2 205 -2 299v406h24zM204 840c16 36 36 54 68 54c16 0 29 -5 68 -24c36 -19 49 -22 58 -22c22 0 31 11 47 43l21 -10c-16 -36 -36 -57 -68 -57
c-16 0 -29 5 -68 24c-36 19 -49 22 -58 22c-22 0 -31 -8 -47 -40z" />
    <glyph glyph-name="Eng" unicode="&#x14a;" horiz-adv-x="679" 
d="M591 -48c0 -18 0 -27 -1 -41c-6 -81 -50 -112 -137 -115v22c77 0 116 26 116 118v64h-14l-295 467l-150 238c2 -95 2 -205 2 -299v-406h-24v730h35l288 -455c52 -84 105 -166 158 -250c-2 95 -2 205 -2 299v406h24v-778z" />
    <glyph glyph-name="O" unicode="O" horiz-adv-x="744" 
d="M74 365c0 -253 119 -356 298 -356s298 103 298 356s-119 356 -298 356s-298 -103 -298 -356zM50 365c0 242 108 379 322 379s322 -137 322 -379s-108 -379 -322 -379s-322 137 -322 379z" />
    <glyph glyph-name="Oacute" unicode="&#xd3;" horiz-adv-x="744" 
d="M74 365c0 -253 119 -356 298 -356s298 103 298 356s-119 356 -298 356s-298 -103 -298 -356zM50 365c0 242 108 379 322 379s322 -137 322 -379s-108 -379 -322 -379s-322 137 -322 379zM267 785v2l169 148h34v-2l-175 -148h-28z" />
    <glyph glyph-name="Ocircumflex" unicode="&#xd4;" horiz-adv-x="744" 
d="M74 365c0 -253 119 -356 298 -356s298 103 298 356s-119 356 -298 356s-298 -103 -298 -356zM50 365c0 242 108 379 322 379s322 -137 322 -379s-108 -379 -322 -379s-322 137 -322 379zM232 790l128 140h23l129 -140h-31l-110 120l-109 -120h-30z" />
    <glyph glyph-name="Odieresis" unicode="&#xd6;" horiz-adv-x="744" 
d="M74 365c0 -253 119 -356 298 -356s298 103 298 356s-119 356 -298 356s-298 -103 -298 -356zM50 365c0 242 108 379 322 379s322 -137 322 -379s-108 -379 -322 -379s-322 137 -322 379zM285 858c0 15 12 27 27 27s27 -12 27 -27s-12 -27 -27 -27s-27 12 -27 27zM405 858
c0 15 12 27 27 27s27 -12 27 -27s-12 -27 -27 -27s-27 12 -27 27z" />
    <glyph glyph-name="Ograve" unicode="&#xd2;" horiz-adv-x="744" 
d="M74 365c0 -253 119 -356 298 -356s298 103 298 356s-119 356 -298 356s-298 -103 -298 -356zM50 365c0 242 108 379 322 379s322 -137 322 -379s-108 -379 -322 -379s-322 137 -322 379zM267 933v2h34l169 -148v-2h-28z" />
    <glyph glyph-name="Ohungarumlaut" unicode="&#x150;" horiz-adv-x="744" 
d="M74 365c0 -253 119 -356 298 -356s298 103 298 356s-119 356 -298 356s-298 -103 -298 -356zM50 365c0 242 108 379 322 379s322 -137 322 -379s-108 -379 -322 -379s-322 137 -322 379zM198 777v2l169 148h34v-2l-175 -148h-28zM356 777v2l169 148h34v-2l-175 -148h-28z
" />
    <glyph glyph-name="Omacron" unicode="&#x14c;" horiz-adv-x="744" 
d="M74 365c0 -253 119 -356 298 -356s298 103 298 356s-119 356 -298 356s-298 -103 -298 -356zM50 365c0 242 108 379 322 379s322 -137 322 -379s-108 -379 -322 -379s-322 137 -322 379zM272 849v22h200v-22h-200z" />
    <glyph glyph-name="Oslash" unicode="&#xd8;" horiz-adv-x="765" 
d="M703 707l16 -16l-74 -75c39 -63 59 -147 59 -251c0 -242 -108 -379 -322 -379c-113 0 -196 38 -250 109l-70 -71l-16 16l73 74c-39 63 -59 147 -59 251c0 242 108 379 322 379c113 0 196 -38 250 -109zM84 365c0 -100 19 -177 52 -233l479 485c-53 72 -133 104 -233 104
c-179 0 -298 -103 -298 -356zM149 113c53 -72 133 -104 233 -104c179 0 298 103 298 356c0 100 -19 177 -52 233z" />
    <glyph glyph-name="Otilde" unicode="&#xd5;" horiz-adv-x="744" 
d="M74 365c0 -253 119 -356 298 -356s298 103 298 356s-119 356 -298 356s-298 -103 -298 -356zM50 365c0 242 108 379 322 379s322 -137 322 -379s-108 -379 -322 -379s-322 137 -322 379zM241 840c16 36 36 54 68 54c16 0 29 -5 68 -24c36 -19 49 -22 58 -22
c22 0 31 11 47 43l21 -10c-16 -36 -36 -57 -68 -57c-16 0 -29 5 -68 24c-36 19 -49 22 -58 22c-22 0 -31 -8 -47 -40z" />
    <glyph glyph-name="OE" unicode="&#x152;" horiz-adv-x="1114" 
d="M1053 730v-23h-409v-326h388v-23h-388v-335h419v-23h-443v187c-3 -20 -10 -39 -21 -59c-55 -94 -131 -142 -247 -142c-201 0 -302 137 -302 379s101 379 302 379c116 0 191 -44 247 -142c10 -17 17 -35 21 -54v182h433zM74 365c0 -253 111 -356 278 -356
c170 0 268 120 268 336v40c0 216 -98 336 -268 336c-167 0 -278 -103 -278 -356z" />
    <glyph glyph-name="P" unicode="P" horiz-adv-x="570" 
d="M279 730c37 0 71 -1 105 -5c97 -12 164 -66 164 -186c0 -124 -67 -185 -164 -197c-34 -4 -68 -5 -105 -5h-167v-337h-24v730h191zM112 360h177c129 0 235 22 235 179c0 129 -75 168 -235 168h-177v-347z" />
    <glyph glyph-name="Thorn" unicode="&#xde;" horiz-adv-x="600" 
d="M289 562c37 0 71 -1 105 -5c97 -12 164 -66 164 -186c0 -124 -67 -185 -164 -197c-34 -4 -68 -5 -105 -5h-177v-169h-24v730h24v-168h177zM112 192h187c129 0 235 19 235 179c0 150 -110 168 -235 168h-187v-347z" />
    <glyph glyph-name="Q" unicode="Q" horiz-adv-x="744" 
d="M694 365c0 -182 -61 -305 -182 -352l119 -134l-19 -16c-120 139 -121 137 -127 137c-9 0 -57 -14 -113 -14c-214 0 -322 137 -322 379s108 379 322 379s322 -137 322 -379zM74 365c0 -253 119 -356 298 -356s298 103 298 356s-119 356 -298 356s-298 -103 -298 -356z" />
    <glyph glyph-name="R" unicode="R" horiz-adv-x="601" 
d="M559 4v-4h-31c-14 45 -29 118 -38 189c-15 121 -58 158 -198 158h-179v-347h-25v730h176c37 0 70 -1 104 -5c112 -13 175 -76 175 -188c0 -98 -54 -162 -145 -179c68 -14 104 -67 116 -163c9 -72 18 -116 34 -175zM113 370h179c124 0 227 32 227 167
c0 119 -73 170 -235 170h-171v-337z" />
    <glyph glyph-name="Racute" unicode="&#x154;" horiz-adv-x="601" 
d="M559 4v-4h-31c-14 45 -29 118 -38 189c-15 121 -58 158 -198 158h-179v-347h-25v730h176c37 0 70 -1 104 -5c112 -13 175 -76 175 -188c0 -98 -54 -162 -145 -179c68 -14 104 -67 116 -163c9 -72 18 -116 34 -175zM113 370h179c124 0 227 32 227 167
c0 119 -73 170 -235 170h-171v-337zM182 785v2l169 148h34v-2l-175 -148h-28z" />
    <glyph glyph-name="Rcaron" unicode="&#x158;" horiz-adv-x="601" 
d="M559 4v-4h-31c-14 45 -29 118 -38 189c-15 121 -58 158 -198 158h-179v-347h-25v730h176c37 0 70 -1 104 -5c112 -13 175 -76 175 -188c0 -98 -54 -162 -145 -179c68 -14 104 -67 116 -163c9 -72 18 -116 34 -175zM113 370h179c124 0 227 32 227 167
c0 119 -73 170 -235 170h-171v-337zM147 930h31l110 -120l109 120h30l-128 -140h-23z" />
    <glyph glyph-name="uni0156" unicode="&#x156;" horiz-adv-x="601" 
d="M559 4v-4h-31c-14 45 -29 118 -38 189c-15 121 -58 158 -198 158h-179v-347h-25v730h176c37 0 70 -1 104 -5c112 -13 175 -76 175 -188c0 -98 -54 -162 -145 -179c68 -14 104 -67 116 -163c9 -72 18 -116 34 -175zM113 370h179c124 0 227 32 227 167
c0 119 -73 170 -235 170h-171v-337zM197 -213l153 152h29v-5l-155 -147h-27z" />
    <glyph glyph-name="S" unicode="S" horiz-adv-x="591" 
d="M295 744c143 0 237 -76 241 -212h-23c-3 134 -105 189 -219 189c-108 0 -204 -63 -204 -164c0 -108 70 -146 218 -177c156 -33 242 -87 242 -204c0 -132 -109 -190 -253 -190c-149 0 -249 66 -259 212h24c8 -122 93 -189 236 -189c120 0 228 42 228 165
c0 103 -76 150 -224 181c-162 34 -236 84 -236 202c0 111 102 187 229 187z" />
    <glyph glyph-name="Sacute" unicode="&#x15a;" horiz-adv-x="591" 
d="M295 744c143 0 237 -76 241 -212h-23c-3 134 -105 189 -219 189c-108 0 -204 -63 -204 -164c0 -108 70 -146 218 -177c156 -33 242 -87 242 -204c0 -132 -109 -190 -253 -190c-149 0 -249 66 -259 212h24c8 -122 93 -189 236 -189c120 0 228 42 228 165
c0 103 -76 150 -224 181c-162 34 -236 84 -236 202c0 111 102 187 229 187zM189 765v2l169 148h34v-2l-175 -148h-28z" />
    <glyph glyph-name="Scaron" unicode="&#x160;" horiz-adv-x="591" 
d="M295 744c143 0 237 -76 241 -212h-23c-3 134 -105 189 -219 189c-108 0 -204 -63 -204 -164c0 -108 70 -146 218 -177c156 -33 242 -87 242 -204c0 -132 -109 -190 -253 -190c-149 0 -249 66 -259 212h24c8 -122 93 -189 236 -189c120 0 228 42 228 165
c0 103 -76 150 -224 181c-162 34 -236 84 -236 202c0 111 102 187 229 187zM154 910h31l110 -120l109 120h30l-128 -140h-23z" />
    <glyph glyph-name="Scedilla" unicode="&#x15e;" horiz-adv-x="591" 
d="M295 744c143 0 237 -76 241 -212h-23c-3 134 -105 189 -219 189c-108 0 -204 -63 -204 -164c0 -108 70 -146 218 -177c156 -33 242 -87 242 -204c0 -130 -106 -189 -247 -190l-26 -34c64 -4 103 -27 103 -77c0 -56 -54 -79 -111 -79c-12 0 -29 2 -43 6v22
c15 -5 31 -7 43 -7c56 0 88 23 88 58c0 39 -36 59 -108 56v14l30 41c-139 6 -231 72 -241 212h24c8 -122 93 -189 236 -189c120 0 228 42 228 165c0 103 -76 150 -224 181c-162 34 -236 84 -236 202c0 111 102 187 229 187z" />
    <glyph glyph-name="uni0218" unicode="&#x218;" horiz-adv-x="591" 
d="M295 744c143 0 237 -76 241 -212h-23c-3 134 -105 189 -219 189c-108 0 -204 -63 -204 -164c0 -108 70 -146 218 -177c156 -33 242 -87 242 -204c0 -132 -109 -190 -253 -190c-149 0 -249 66 -259 212h24c8 -122 93 -189 236 -189c120 0 228 42 228 165
c0 103 -76 150 -224 181c-162 34 -236 84 -236 202c0 111 102 187 229 187zM202 -213l153 152h29v-5l-155 -147h-27z" />
    <glyph glyph-name="uni1E9E" unicode="&#x1e9e;" horiz-adv-x="643" 
d="M562 730v-18l-233 -272c113 -2 274 -53 274 -229c0 -148 -114 -225 -258 -225c-33 0 -82 4 -124 21v26c40 -15 85 -24 130 -24c118 0 228 62 228 202c0 161 -146 206 -284 206v21l232 269h-415v-707h-24v730h474z" />
    <glyph glyph-name="T" unicode="T" horiz-adv-x="576" 
d="M553 730v-23h-253v-707h-24v707h-253v23h530z" />
    <glyph glyph-name="Tbar" unicode="&#x166;" horiz-adv-x="576" 
d="M443 346v-23h-143v-323h-24v323h-143v23h143v361h-253v23h530v-23h-253v-361h143z" />
    <glyph glyph-name="Tcaron" unicode="&#x164;" horiz-adv-x="576" 
d="M553 730v-23h-253v-707h-24v707h-253v23h530zM148 930h31l110 -120l109 120h30l-128 -140h-23z" />
    <glyph glyph-name="uni0162" unicode="&#x162;" horiz-adv-x="576" 
d="M553 730v-23h-253v-707l-36 -48c64 -4 103 -27 103 -77c0 -56 -54 -79 -111 -79c-12 0 -29 2 -43 6v22c15 -5 31 -7 43 -7c56 0 88 23 88 58c0 39 -36 59 -108 56v14l40 55v707h-253v23h530z" />
    <glyph glyph-name="uni021A" unicode="&#x21a;" horiz-adv-x="576" 
d="M553 730v-23h-253v-707h-24v707h-253v23h530zM189 -213l153 152h29v-5l-155 -147h-27z" />
    <glyph glyph-name="U" unicode="U" horiz-adv-x="648" 
d="M568 254c0 -16 1 -37 -1 -69c-6 -109 -73 -199 -243 -199c-171 0 -235 90 -242 199c-2 31 -2 53 -2 69v476h24v-515c0 -108 43 -206 220 -206c176 0 220 99 220 206v515h24v-476z" />
    <glyph glyph-name="Uacute" unicode="&#xda;" horiz-adv-x="648" 
d="M568 254c0 -16 1 -37 -1 -69c-6 -109 -73 -199 -243 -199c-171 0 -235 90 -242 199c-2 31 -2 53 -2 69v476h24v-515c0 -108 43 -206 220 -206c176 0 220 99 220 206v515h24v-476zM219 785v2l169 148h34v-2l-175 -148h-28z" />
    <glyph glyph-name="Ucircumflex" unicode="&#xdb;" horiz-adv-x="648" 
d="M568 254c0 -16 1 -37 -1 -69c-6 -109 -73 -199 -243 -199c-171 0 -235 90 -242 199c-2 31 -2 53 -2 69v476h24v-515c0 -108 43 -206 220 -206c176 0 220 99 220 206v515h24v-476zM184 790l128 140h23l129 -140h-31l-110 120l-109 -120h-30z" />
    <glyph glyph-name="Udieresis" unicode="&#xdc;" horiz-adv-x="648" 
d="M568 254c0 -16 1 -37 -1 -69c-6 -109 -73 -199 -243 -199c-171 0 -235 90 -242 199c-2 31 -2 53 -2 69v476h24v-515c0 -108 43 -206 220 -206c176 0 220 99 220 206v515h24v-476zM237 858c0 15 12 27 27 27s27 -12 27 -27s-12 -27 -27 -27s-27 12 -27 27zM357 858
c0 15 12 27 27 27s27 -12 27 -27s-12 -27 -27 -27s-27 12 -27 27z" />
    <glyph glyph-name="Ugrave" unicode="&#xd9;" horiz-adv-x="648" 
d="M568 254c0 -16 1 -37 -1 -69c-6 -109 -73 -199 -243 -199c-171 0 -235 90 -242 199c-2 31 -2 53 -2 69v476h24v-515c0 -108 43 -206 220 -206c176 0 220 99 220 206v515h24v-476zM219 933v2h34l169 -148v-2h-28z" />
    <glyph glyph-name="Uhungarumlaut" unicode="&#x170;" horiz-adv-x="648" 
d="M568 254c0 -16 1 -37 -1 -69c-6 -109 -73 -199 -243 -199c-171 0 -235 90 -242 199c-2 31 -2 53 -2 69v476h24v-515c0 -108 43 -206 220 -206c176 0 220 99 220 206v515h24v-476zM150 777v2l169 148h34v-2l-175 -148h-28zM308 777v2l169 148h34v-2l-175 -148h-28z" />
    <glyph glyph-name="Umacron" unicode="&#x16a;" horiz-adv-x="648" 
d="M568 254c0 -16 1 -37 -1 -69c-6 -109 -73 -199 -243 -199c-171 0 -235 90 -242 199c-2 31 -2 53 -2 69v476h24v-515c0 -108 43 -206 220 -206c176 0 220 99 220 206v515h24v-476zM224 849v22h200v-22h-200z" />
    <glyph glyph-name="Uogonek" unicode="&#x172;" horiz-adv-x="648" 
d="M568 254c0 -16 1 -37 -1 -69c-3 -62 -29 -115 -78 -155c-60 -50 -100 -107 -100 -159c0 -41 25 -54 57 -54c16 0 31 4 46 11l-1 -22c-18 -7 -33 -10 -49 -10c-39 0 -76 17 -76 73c0 50 28 94 65 132c-30 -10 -65 -15 -107 -15c-171 0 -235 90 -242 199c-2 31 -2 53 -2 69
v476h24v-515c0 -109 43 -206 220 -206c176 0 220 98 220 206v515h24v-476z" />
    <glyph glyph-name="Uring" unicode="&#x16e;" horiz-adv-x="648" 
d="M568 254c0 -16 1 -37 -1 -69c-6 -109 -73 -199 -243 -199c-171 0 -235 90 -242 199c-2 31 -2 53 -2 69v476h24v-515c0 -108 43 -206 220 -206c176 0 220 99 220 206v515h24v-476zM236 860c0 48 41 75 88 75s88 -27 88 -75s-41 -75 -88 -75s-88 27 -88 75zM259 860
c0 -35 27 -54 65 -54s65 19 65 54s-27 54 -65 54s-65 -19 -65 -54z" />
    <glyph glyph-name="V" unicode="V" horiz-adv-x="616" 
d="M600 730l-277 -730h-31l-276 730h26l266 -705l265 705h27z" />
    <glyph glyph-name="W" unicode="W" horiz-adv-x="872" 
d="M856 730l-190 -730h-30l-113 389c-29 101 -58 203 -87 304c-31 -101 -63 -203 -94 -304l-119 -389h-29l-178 730h25l83 -341c29 -121 57 -241 86 -361c36 120 72 240 109 361l101 331h32l95 -331c34 -120 70 -238 104 -358l93 358l88 341h24z" />
    <glyph glyph-name="Wacute" unicode="&#x1e82;" horiz-adv-x="872" 
d="M856 730l-190 -730h-30l-113 389c-29 101 -58 203 -87 304c-31 -101 -63 -203 -94 -304l-119 -389h-29l-178 730h25l83 -341c29 -121 57 -241 86 -361c36 120 72 240 109 361l101 331h32l95 -331c34 -120 70 -238 104 -358l93 358l88 341h24zM330 785v2l169 148h34v-2
l-175 -148h-28z" />
    <glyph glyph-name="Wcircumflex" unicode="&#x174;" horiz-adv-x="872" 
d="M856 730l-190 -730h-30l-113 389c-29 101 -58 203 -87 304c-31 -101 -63 -203 -94 -304l-119 -389h-29l-178 730h25l83 -341c29 -121 57 -241 86 -361c36 120 72 240 109 361l101 331h32l95 -331c34 -120 70 -238 104 -358l93 358l88 341h24zM295 790l128 140h23
l129 -140h-31l-110 120l-109 -120h-30z" />
    <glyph glyph-name="Wdieresis" unicode="&#x1e84;" horiz-adv-x="872" 
d="M856 730l-190 -730h-30l-113 389c-29 101 -58 203 -87 304c-31 -101 -63 -203 -94 -304l-119 -389h-29l-178 730h25l83 -341c29 -121 57 -241 86 -361c36 120 72 240 109 361l101 331h32l95 -331c34 -120 70 -238 104 -358l93 358l88 341h24zM348 858c0 15 12 27 27 27
s27 -12 27 -27s-12 -27 -27 -27s-27 12 -27 27zM468 858c0 15 12 27 27 27s27 -12 27 -27s-12 -27 -27 -27s-27 12 -27 27z" />
    <glyph glyph-name="Wgrave" unicode="&#x1e80;" horiz-adv-x="872" 
d="M856 730l-190 -730h-30l-113 389c-29 101 -58 203 -87 304c-31 -101 -63 -203 -94 -304l-119 -389h-29l-178 730h25l83 -341c29 -121 57 -241 86 -361c36 120 72 240 109 361l101 331h32l95 -331c34 -120 70 -238 104 -358l93 358l88 341h24zM330 933v2h34l169 -148v-2
h-28z" />
    <glyph glyph-name="X" unicode="X" horiz-adv-x="585" 
d="M569 730l-262 -363l260 -367h-31l-245 348l-247 -348h-28l259 365l-243 365h27l232 -345l248 345h30z" />
    <glyph glyph-name="Y" unicode="Y" horiz-adv-x="579" 
d="M576 730l-275 -419v-311h-24v311l-274 419h28l258 -396l258 396h29z" />
    <glyph glyph-name="Yacute" unicode="&#xdd;" horiz-adv-x="579" 
d="M576 730l-275 -419v-311h-24v311l-274 419h28l258 -396l258 396h29zM184 785v2l169 148h34v-2l-175 -148h-28z" />
    <glyph glyph-name="Ycircumflex" unicode="&#x176;" horiz-adv-x="579" 
d="M576 730l-275 -419v-311h-24v311l-274 419h28l258 -396l258 396h29zM149 790l128 140h23l129 -140h-31l-110 120l-109 -120h-30z" />
    <glyph glyph-name="Ydieresis" unicode="&#x178;" horiz-adv-x="579" 
d="M576 730l-275 -419v-311h-24v311l-274 419h28l258 -396l258 396h29zM202 858c0 15 12 27 27 27s27 -12 27 -27s-12 -27 -27 -27s-27 12 -27 27zM322 858c0 15 12 27 27 27s27 -12 27 -27s-12 -27 -27 -27s-27 12 -27 27z" />
    <glyph glyph-name="Ygrave" unicode="&#x1ef2;" horiz-adv-x="579" 
d="M576 730l-275 -419v-311h-24v311l-274 419h28l258 -396l258 396h29zM184 933v2h34l169 -148v-2h-28z" />
    <glyph glyph-name="Z" unicode="Z" horiz-adv-x="576" 
d="M530 730v-20l-463 -687h474v-23h-506v17l465 690h-446v23h476z" />
    <glyph glyph-name="Zacute" unicode="&#x179;" horiz-adv-x="576" 
d="M530 730v-20l-463 -687h474v-23h-506v17l465 690h-446v23h476zM189 785v2l169 148h34v-2l-175 -148h-28z" />
    <glyph glyph-name="Zcaron" unicode="&#x17d;" horiz-adv-x="576" 
d="M530 730v-20l-463 -687h474v-23h-506v17l465 690h-446v23h476zM154 930h31l110 -120l109 120h30l-128 -140h-23z" />
    <glyph glyph-name="Zdotaccent" unicode="&#x17b;" horiz-adv-x="576" 
d="M530 730v-20l-463 -687h474v-23h-506v17l465 690h-446v23h476zM267 858c0 15 12 27 27 27s27 -12 27 -27s-12 -27 -27 -27s-27 12 -27 27z" />
    <glyph glyph-name="a" unicode="a" horiz-adv-x="492" 
d="M254 524c110 0 163 -51 170 -139c2 -27 2 -41 2 -69v-316h-22v108c-29 -77 -99 -122 -179 -122c-118 0 -175 53 -175 144c0 131 133 156 320 156h34v55c0 90 -19 161 -150 161c-95 0 -151 -36 -163 -126h-22c6 82 57 148 185 148zM73 131c0 -74 41 -123 152 -123
c100 0 179 78 179 184v72c-185 3 -331 -8 -331 -133z" />
    <glyph glyph-name="aacute" unicode="&#xe1;" horiz-adv-x="492" 
d="M254 524c110 0 163 -51 170 -139c2 -27 2 -41 2 -69v-316h-22v108c-29 -77 -99 -122 -179 -122c-118 0 -175 53 -175 144c0 131 133 156 320 156h34v55c0 90 -19 161 -150 161c-95 0 -151 -36 -163 -126h-22c6 82 57 148 185 148zM73 131c0 -74 41 -123 152 -123
c100 0 179 78 179 184v72c-185 3 -331 -8 -331 -133zM153 600v2l169 148h34v-2l-175 -148h-28z" />
    <glyph glyph-name="abreve" unicode="&#x103;" horiz-adv-x="492" 
d="M254 524c110 0 163 -51 170 -139c2 -27 2 -41 2 -69v-316h-22v108c-29 -77 -99 -122 -179 -122c-118 0 -175 53 -175 144c0 131 133 156 320 156h34v55c0 90 -19 161 -150 161c-95 0 -151 -36 -163 -126h-22c6 82 57 148 185 148zM73 131c0 -74 41 -123 152 -123
c100 0 179 78 179 184v72c-185 3 -331 -8 -331 -133zM127 750h21c-1 -76 13 -143 100 -143s101 67 100 143h21c2 -87 -17 -164 -121 -164s-123 77 -121 164z" />
    <glyph glyph-name="acircumflex" unicode="&#xe2;" horiz-adv-x="492" 
d="M254 524c110 0 163 -51 170 -139c2 -27 2 -41 2 -69v-316h-22v108c-29 -77 -99 -122 -179 -122c-118 0 -175 53 -175 144c0 131 133 156 320 156h34v55c0 90 -19 161 -150 161c-95 0 -151 -36 -163 -126h-22c6 82 57 148 185 148zM73 131c0 -74 41 -123 152 -123
c100 0 179 78 179 184v72c-185 3 -331 -8 -331 -133zM121 600l115 150h23l116 -150h-28l-100 129l-99 -129h-27z" />
    <glyph glyph-name="adieresis" unicode="&#xe4;" horiz-adv-x="492" 
d="M254 524c110 0 163 -51 170 -139c2 -27 2 -41 2 -69v-316h-22v108c-29 -77 -99 -122 -179 -122c-118 0 -175 53 -175 144c0 131 133 156 320 156h34v55c0 90 -19 161 -150 161c-95 0 -151 -36 -163 -126h-22c6 82 57 148 185 148zM73 131c0 -74 41 -123 152 -123
c100 0 179 78 179 184v72c-185 3 -331 -8 -331 -133zM170 650c0 14 11 25 25 25s25 -11 25 -25s-11 -25 -25 -25s-25 11 -25 25zM276 650c0 14 11 25 25 25s25 -11 25 -25s-11 -25 -25 -25s-25 11 -25 25z" />
    <glyph glyph-name="agrave" unicode="&#xe0;" horiz-adv-x="492" 
d="M254 524c110 0 163 -51 170 -139c2 -27 2 -41 2 -69v-316h-22v108c-29 -77 -99 -122 -179 -122c-118 0 -175 53 -175 144c0 131 133 156 320 156h34v55c0 90 -19 161 -150 161c-95 0 -151 -36 -163 -126h-22c6 82 57 148 185 148zM73 131c0 -74 41 -123 152 -123
c100 0 179 78 179 184v72c-185 3 -331 -8 -331 -133zM143 748v2h34l169 -148v-2h-28z" />
    <glyph glyph-name="amacron" unicode="&#x101;" horiz-adv-x="492" 
d="M254 524c110 0 163 -51 170 -139c2 -27 2 -41 2 -69v-316h-22v108c-29 -77 -99 -122 -179 -122c-118 0 -175 53 -175 144c0 131 133 156 320 156h34v55c0 90 -19 161 -150 161c-95 0 -151 -36 -163 -126h-22c6 82 57 148 185 148zM73 131c0 -74 41 -123 152 -123
c100 0 179 78 179 184v72c-185 3 -331 -8 -331 -133zM133 644v22h230v-22h-230z" />
    <glyph glyph-name="aogonek" unicode="&#x105;" horiz-adv-x="492" 
d="M254 524c110 0 163 -51 170 -139c2 -27 2 -41 2 -69v-316c-49 -28 -96 -79 -96 -129c0 -41 25 -53 57 -53c16 0 31 4 46 11l-1 -23c-18 -7 -33 -10 -49 -10c-39 0 -76 17 -76 73c0 58 45 106 97 141v98c-29 -77 -99 -122 -179 -122c-118 0 -175 53 -175 144
c0 131 133 156 320 156h34v55c0 90 -19 161 -150 161c-95 0 -151 -36 -163 -126h-22c6 82 57 148 185 148zM73 131c0 -74 41 -123 152 -123c100 0 179 78 179 184v72c-185 3 -331 -8 -331 -133z" />
    <glyph glyph-name="aring" unicode="&#xe5;" horiz-adv-x="492" 
d="M254 524c110 0 163 -51 170 -139c2 -27 2 -41 2 -69v-316h-22v108c-29 -77 -99 -122 -179 -122c-118 0 -175 53 -175 144c0 131 133 156 320 156h34v55c0 90 -19 161 -150 161c-95 0 -151 -36 -163 -126h-22c6 82 57 148 185 148zM73 131c0 -74 41 -123 152 -123
c100 0 179 78 179 184v72c-185 3 -331 -8 -331 -133zM160 675c0 48 41 75 88 75s88 -27 88 -75s-41 -75 -88 -75s-88 27 -88 75zM183 675c0 -35 27 -54 65 -54s65 19 65 54s-27 54 -65 54s-65 -19 -65 -54z" />
    <glyph glyph-name="atilde" unicode="&#xe3;" horiz-adv-x="492" 
d="M254 524c110 0 163 -51 170 -139c2 -27 2 -41 2 -69v-316h-22v108c-29 -77 -99 -122 -179 -122c-118 0 -175 53 -175 144c0 131 133 156 320 156h34v55c0 90 -19 161 -150 161c-95 0 -151 -36 -163 -126h-22c6 82 57 148 185 148zM73 131c0 -74 41 -123 152 -123
c100 0 179 78 179 184v72c-185 3 -331 -8 -331 -133zM139 627c2 42 15 62 46 62c16 0 29 -5 68 -24c29 -14 49 -22 58 -22c16 0 23 9 25 41h21c-2 -42 -15 -62 -46 -62c-16 0 -36 7 -68 24c-36 19 -49 22 -58 22c-16 0 -23 -9 -25 -41h-21z" />
    <glyph glyph-name="ae" unicode="&#xe6;" horiz-adv-x="896" 
d="M270 524c100 0 166 -52 172 -134c29 94 96 134 187 134c140 0 207 -87 207 -246c0 -4 0 -8 -1 -19h-390c0 -179 70 -251 185 -251c93 0 161 47 182 142h22c-22 -105 -96 -164 -206 -164c-105 0 -169 56 -193 160c-22 -96 -104 -160 -210 -160c-118 0 -175 54 -175 147
c0 120 137 148 340 148h34v55c0 90 -31 166 -154 166c-104 0 -160 -39 -173 -136h-22c6 88 60 158 195 158zM73 134c0 -76 41 -126 152 -126c106 0 199 73 199 210v42c-201 3 -351 -10 -351 -126zM445 281h369c-4 173 -88 221 -187 221s-176 -55 -182 -221z" />
    <glyph glyph-name="b" unicode="b" horiz-adv-x="550" 
d="M93 730v-346c14 88 96 140 195 140c146 0 216 -111 216 -271c0 -163 -81 -267 -223 -267c-91 0 -175 47 -189 142l1 -128h-22v730h22zM93 229c0 -171 101 -221 188 -221c132 0 200 98 200 245c0 137 -52 249 -195 249c-106 0 -193 -58 -193 -230v-43z" />
    <glyph glyph-name="c" unicode="c" horiz-adv-x="496" 
d="M267 524c114 0 184 -65 189 -164h-22c-7 84 -63 142 -169 142c-115 0 -196 -67 -196 -247c0 -166 70 -247 192 -247c91 0 160 56 173 142h22c-14 -96 -88 -164 -197 -164c-144 0 -213 106 -213 269c0 181 79 269 221 269z" />
    <glyph glyph-name="cacute" unicode="&#x107;" horiz-adv-x="496" 
d="M267 524c114 0 184 -65 189 -164h-22c-7 84 -63 142 -169 142c-115 0 -196 -67 -196 -247c0 -166 70 -247 192 -247c91 0 160 56 173 142h22c-14 -96 -88 -164 -197 -164c-144 0 -213 106 -213 269c0 181 79 269 221 269zM158 600v2l169 148h34v-2l-175 -148h-28z" />
    <glyph glyph-name="ccaron" unicode="&#x10d;" horiz-adv-x="496" 
d="M267 524c114 0 184 -65 189 -164h-22c-7 84 -63 142 -169 142c-115 0 -196 -67 -196 -247c0 -166 70 -247 192 -247c91 0 160 56 173 142h22c-14 -96 -88 -164 -197 -164c-144 0 -213 106 -213 269c0 181 79 269 221 269zM126 750h28l100 -129l99 129h27l-115 -150h-23z
" />
    <glyph glyph-name="ccedilla" unicode="&#xe7;" horiz-adv-x="496" 
d="M267 524c114 0 184 -65 189 -164h-22c-7 84 -63 142 -169 142c-115 0 -196 -67 -196 -247c0 -166 70 -247 192 -247c91 0 160 56 173 142h22c-13 -91 -81 -157 -182 -164l-24 -34c65 -4 104 -27 104 -77c0 -56 -54 -79 -111 -79c-12 0 -29 2 -43 6v22c15 -5 31 -7 43 -7
c56 0 88 23 88 58c0 39 -36 59 -108 56v14l28 41c-139 4 -205 109 -205 269c0 181 79 269 221 269z" />
    <glyph glyph-name="cdotaccent" unicode="&#x10b;" horiz-adv-x="496" 
d="M267 524c114 0 184 -65 189 -164h-22c-7 84 -63 142 -169 142c-115 0 -196 -67 -196 -247c0 -166 70 -247 192 -247c91 0 160 56 173 142h22c-14 -96 -88 -164 -197 -164c-144 0 -213 106 -213 269c0 181 79 269 221 269zM228 650c0 14 11 25 25 25s25 -11 25 -25
s-11 -25 -25 -25s-25 11 -25 25z" />
    <glyph glyph-name="d" unicode="d" horiz-adv-x="550" 
d="M479 730v-730h-22v126c-14 -88 -96 -140 -195 -140c-146 0 -216 111 -216 271c0 163 81 267 223 267c89 0 171 -46 188 -137v343h22zM69 257c0 -137 52 -249 195 -249c106 0 193 58 193 230v43c0 171 -101 221 -188 221c-132 0 -200 -98 -200 -245z" />
    <glyph glyph-name="eth" unicode="&#xf0;" horiz-adv-x="536" 
d="M174 742c62 -15 118 -38 165 -73l107 44l8 -20l-97 -40c78 -69 124 -181 124 -365c0 -211 -88 -300 -222 -301c-147 -1 -213 115 -213 270c0 163 62 267 218 267c97 0 170 -53 188 -120c-17 114 -58 189 -118 239l-135 -55l-8 20l123 51c-40 28 -87 48 -144 62zM69 258
c0 -163 70 -249 193 -249c125 0 196 96 196 270c0 146 -79 223 -194 223c-123 0 -195 -71 -195 -244z" />
    <glyph glyph-name="dcaron" unicode="&#x10f;" horiz-adv-x="634" 
d="M607 740v-12l-53 -234h-21l53 246h21zM46 257c0 163 81 267 223 267c89 0 171 -46 188 -137v343h22v-730h-22v126c-14 -88 -96 -140 -195 -140c-146 0 -216 111 -216 271zM69 257c0 -137 52 -249 195 -249c106 0 193 58 193 230v43c0 171 -101 221 -188 221
c-132 0 -200 -98 -200 -245z" />
    <glyph glyph-name="dcroat" unicode="&#x111;" horiz-adv-x="569" 
d="M538 634v-21h-59v-613h-22v126c-14 -88 -96 -140 -195 -140c-146 0 -216 111 -216 271c0 163 81 267 223 267c89 0 171 -46 188 -137v226h-160v21h160v96h22v-96h59zM69 257c0 -137 52 -249 195 -249c106 0 193 58 193 230v43c0 171 -101 221 -188 221
c-132 0 -200 -98 -200 -245z" />
    <glyph glyph-name="e" unicode="e" horiz-adv-x="518" 
d="M256 524c136 0 202 -98 202 -257c0 -4 0 -8 -1 -19h-389c3 -170 74 -240 189 -240c90 0 157 47 177 142h22c-21 -105 -95 -164 -201 -164c-140 0 -209 95 -209 269c0 191 80 269 210 269zM68 270h368c-1 174 -83 232 -182 232c-104 0 -183 -58 -186 -232z" />
    <glyph glyph-name="eacute" unicode="&#xe9;" horiz-adv-x="518" 
d="M256 524c136 0 202 -98 202 -257c0 -4 0 -8 -1 -19h-389c3 -170 74 -240 189 -240c90 0 157 47 177 142h22c-21 -105 -95 -164 -201 -164c-140 0 -209 95 -209 269c0 191 80 269 210 269zM68 270h368c-1 174 -83 232 -182 232c-104 0 -183 -58 -186 -232zM159 600v2
l169 148h34v-2l-175 -148h-28z" />
    <glyph glyph-name="ecaron" unicode="&#x11b;" horiz-adv-x="518" 
d="M256 524c136 0 202 -98 202 -257c0 -4 0 -8 -1 -19h-389c3 -170 74 -240 189 -240c90 0 157 47 177 142h22c-21 -105 -95 -164 -201 -164c-140 0 -209 95 -209 269c0 191 80 269 210 269zM68 270h368c-1 174 -83 232 -182 232c-104 0 -183 -58 -186 -232zM127 750h28
l100 -129l99 129h27l-115 -150h-23z" />
    <glyph glyph-name="ecircumflex" unicode="&#xea;" horiz-adv-x="518" 
d="M256 524c136 0 202 -98 202 -257c0 -4 0 -8 -1 -19h-389c3 -170 74 -240 189 -240c90 0 157 47 177 142h22c-21 -105 -95 -164 -201 -164c-140 0 -209 95 -209 269c0 191 80 269 210 269zM68 270h368c-1 174 -83 232 -182 232c-104 0 -183 -58 -186 -232zM127 600
l115 150h23l116 -150h-28l-100 129l-99 -129h-27z" />
    <glyph glyph-name="edieresis" unicode="&#xeb;" horiz-adv-x="518" 
d="M256 524c136 0 202 -98 202 -257c0 -4 0 -8 -1 -19h-389c3 -170 74 -240 189 -240c90 0 157 47 177 142h22c-21 -105 -95 -164 -201 -164c-140 0 -209 95 -209 269c0 191 80 269 210 269zM68 270h368c-1 174 -83 232 -182 232c-104 0 -183 -58 -186 -232zM176 650
c0 14 11 25 25 25s25 -11 25 -25s-11 -25 -25 -25s-25 11 -25 25zM282 650c0 14 11 25 25 25s25 -11 25 -25s-11 -25 -25 -25s-25 11 -25 25z" />
    <glyph glyph-name="edotaccent" unicode="&#x117;" horiz-adv-x="518" 
d="M256 524c136 0 202 -98 202 -257c0 -4 0 -8 -1 -19h-389c3 -170 74 -240 189 -240c90 0 157 47 177 142h22c-21 -105 -95 -164 -201 -164c-140 0 -209 95 -209 269c0 191 80 269 210 269zM68 270h368c-1 174 -83 232 -182 232c-104 0 -183 -58 -186 -232zM229 650
c0 14 11 25 25 25s25 -11 25 -25s-11 -25 -25 -25s-25 11 -25 25z" />
    <glyph glyph-name="egrave" unicode="&#xe8;" horiz-adv-x="518" 
d="M256 524c136 0 202 -98 202 -257c0 -4 0 -8 -1 -19h-389c3 -170 74 -240 189 -240c90 0 157 47 177 142h22c-21 -105 -95 -164 -201 -164c-140 0 -209 95 -209 269c0 191 80 269 210 269zM68 270h368c-1 174 -83 232 -182 232c-104 0 -183 -58 -186 -232zM149 748v2h34
l169 -148v-2h-28z" />
    <glyph glyph-name="emacron" unicode="&#x113;" horiz-adv-x="518" 
d="M256 524c136 0 202 -98 202 -257c0 -4 0 -8 -1 -19h-389c3 -170 74 -240 189 -240c90 0 157 47 177 142h22c-21 -105 -95 -164 -201 -164c-140 0 -209 95 -209 269c0 191 80 269 210 269zM68 270h368c-1 174 -83 232 -182 232c-104 0 -183 -58 -186 -232zM139 644v22h230
v-22h-230z" />
    <glyph glyph-name="eogonek" unicode="&#x119;" horiz-adv-x="528" 
d="M261 524c140 0 207 -98 207 -257c0 -4 0 -8 -1 -19h-399c3 -172 76 -241 194 -241c93 0 161 47 182 143h22c-12 -59 -43 -100 -83 -131c-61 -46 -103 -100 -103 -148c0 -41 25 -54 57 -54c16 0 31 4 46 11l-1 -22c-18 -7 -33 -10 -49 -10c-39 0 -76 17 -76 73
c0 47 30 88 68 125c-20 -6 -41 -8 -65 -8c-144 0 -214 95 -214 269c0 191 82 269 215 269zM68 269h378c0 175 -85 234 -187 234c-107 0 -188 -58 -191 -234z" />
    <glyph glyph-name="f" unicode="f" horiz-adv-x="250" 
d="M195 744c20 0 29 -1 47 -5v-22c-108 19 -128 -36 -128 -101v-110h117v-22h-117v-484h-22v484h-63v22h63v90c0 15 0 25 1 46c4 66 48 102 102 102z" />
    <glyph glyph-name="g" unicode="g" horiz-adv-x="553" 
d="M482 140c0 -83 0 -114 -1 -148c-4 -119 -76 -196 -201 -196c-86 0 -176 22 -198 147h22c20 -107 103 -126 176 -126c130 0 180 85 180 191v118c-13 -89 -92 -140 -189 -140c-143 0 -212 111 -212 271c0 163 78 267 217 267c86 0 165 -44 184 -133v119h22v-370zM82 257
c0 -137 51 -249 191 -249c103 0 187 58 187 230v43c0 171 -99 221 -184 221c-128 0 -194 -98 -194 -245z" />
    <glyph glyph-name="gbreve" unicode="&#x11f;" horiz-adv-x="553" 
d="M482 140c0 -83 0 -114 -1 -148c-4 -119 -76 -196 -201 -196c-86 0 -176 22 -198 147h22c20 -107 103 -126 176 -126c130 0 180 85 180 191v118c-13 -89 -92 -140 -189 -140c-143 0 -212 111 -212 271c0 163 78 267 217 267c86 0 165 -44 184 -133v119h22v-370zM82 257
c0 -137 51 -249 191 -249c103 0 187 58 187 230v43c0 171 -99 221 -184 221c-128 0 -194 -98 -194 -245zM156 750h21c-1 -76 13 -143 100 -143s101 67 100 143h21c2 -87 -17 -164 -121 -164s-123 77 -121 164z" />
    <glyph glyph-name="uni0123" unicode="&#x123;" horiz-adv-x="553" 
d="M482 140c0 -83 0 -114 -1 -148c-4 -119 -76 -196 -201 -196c-86 0 -176 22 -198 147h22c20 -107 103 -126 176 -126c130 0 180 85 180 191v118c-13 -89 -92 -140 -189 -140c-143 0 -212 111 -212 271c0 163 78 267 217 267c86 0 165 -44 184 -133v119h22v-370zM82 257
c0 -137 51 -249 191 -249c103 0 187 58 187 230v43c0 171 -99 221 -184 221c-128 0 -194 -98 -194 -245zM204 571v5l152 124h29l-153 -129h-28z" />
    <glyph glyph-name="gdotaccent" unicode="&#x121;" horiz-adv-x="553" 
d="M482 140c0 -83 0 -114 -1 -148c-4 -119 -76 -196 -201 -196c-86 0 -176 22 -198 147h22c20 -107 103 -126 176 -126c130 0 180 85 180 191v118c-13 -89 -92 -140 -189 -140c-143 0 -212 111 -212 271c0 163 78 267 217 267c86 0 165 -44 184 -133v119h22v-370zM82 257
c0 -137 51 -249 191 -249c103 0 187 58 187 230v43c0 171 -99 221 -184 221c-128 0 -194 -98 -194 -245zM252 650c0 14 11 25 25 25s25 -11 25 -25s-11 -25 -25 -25s-25 11 -25 25z" />
    <glyph glyph-name="h" unicode="h" horiz-adv-x="512" 
d="M93 730v-330c22 80 93 124 171 124c101 0 167 -39 178 -142c3 -27 4 -43 4 -86v-296h-22v312c0 112 -20 190 -160 190c-95 0 -171 -67 -171 -206v-296h-22v730h22z" />
    <glyph glyph-name="hbar" unicode="&#x127;" horiz-adv-x="522" 
d="M213 634v-21h-110v-213c22 80 93 124 171 124c101 0 167 -39 178 -142c3 -27 4 -43 4 -86v-296h-22v312c0 112 -20 190 -160 190c-95 0 -171 -67 -171 -206v-296h-22v613h-50v21h50v96h22v-96h110z" />
    <glyph glyph-name="i" unicode="i" horiz-adv-x="164" 
d="M93 510v-510h-22v510h22zM57 650c0 14 11 25 25 25s25 -11 25 -25s-11 -25 -25 -25s-25 11 -25 25z" />
    <glyph glyph-name="dotlessi" unicode="&#x131;" horiz-adv-x="164" 
d="M93 510v-510h-22v510h22z" />
    <glyph glyph-name="iacute" unicode="&#xed;" horiz-adv-x="164" 
d="M93 510v-510h-22v510h22zM-13 600v2l169 148h34v-2l-175 -148h-28z" />
    <glyph glyph-name="icircumflex" unicode="&#xee;" horiz-adv-x="164" 
d="M93 510v-510h-22v510h22zM-45 600l115 150h23l116 -150h-28l-100 129l-99 -129h-27z" />
    <glyph glyph-name="idieresis" unicode="&#xef;" horiz-adv-x="164" 
d="M93 510v-510h-22v510h22zM4 650c0 14 11 25 25 25s25 -11 25 -25s-11 -25 -25 -25s-25 11 -25 25zM110 650c0 14 11 25 25 25s25 -11 25 -25s-11 -25 -25 -25s-25 11 -25 25z" />
    <glyph glyph-name="igrave" unicode="&#xec;" horiz-adv-x="164" 
d="M93 510v-510h-22v510h22zM-23 748v2h34l169 -148v-2h-28z" />
    <glyph glyph-name="ij" unicode="&#x133;" horiz-adv-x="331" 
d="M93 510v-510h-22v510h22zM57 650c0 14 11 25 25 25s25 -11 25 -25s-11 -25 -25 -25s-25 11 -25 25zM142 -200v20c81 -15 96 7 96 77v613h22v-587c0 -20 0 -34 -1 -52c-3 -59 -30 -75 -82 -75c-11 0 -22 1 -35 4zM224 650c0 14 11 25 25 25s25 -11 25 -25s-11 -25 -25 -25
s-25 11 -25 25z" />
    <glyph glyph-name="imacron" unicode="&#x12b;" horiz-adv-x="164" 
d="M93 510v-510h-22v510h22zM-33 644v22h230v-22h-230z" />
    <glyph glyph-name="iogonek" unicode="&#x12f;" horiz-adv-x="164" 
d="M93 510v-510c-49 -28 -96 -79 -96 -129c0 -41 25 -53 57 -53c16 0 31 4 46 11l-1 -23c-18 -7 -33 -10 -49 -10c-39 0 -76 17 -76 73c0 58 45 106 97 141v500h22zM57 650c0 14 11 25 25 25s25 -11 25 -25s-11 -25 -25 -25s-25 11 -25 25z" />
    <glyph glyph-name="j" unicode="j" horiz-adv-x="167" 
d="M96 -77c0 -20 0 -34 -1 -52c-3 -59 -30 -75 -82 -75c-11 0 -22 1 -35 4v20c81 -15 96 7 96 77v613h22v-587zM60 650c0 14 11 25 25 25s25 -11 25 -25s-11 -25 -25 -25s-25 11 -25 25z" />
    <glyph glyph-name="uni0237" unicode="&#x237;" horiz-adv-x="167" 
d="M96 -77c0 -20 0 -34 -1 -52c-3 -59 -30 -75 -82 -75c-11 0 -22 1 -35 4v20c81 -15 96 7 96 77v613h22v-587z" />
    <glyph glyph-name="k" unicode="k" horiz-adv-x="458" 
d="M426 510l-206 -205l214 -305h-30l-202 289l-109 -107v-182h-22v730h22v-518l300 298h33z" />
    <glyph glyph-name="uni0137" unicode="&#x137;" horiz-adv-x="458" 
d="M426 510l-206 -205l214 -305h-30l-202 289l-109 -107v-182h-22v730h22v-518l300 298h33zM121 -190l153 129h28v-5l-152 -124h-29z" />
    <glyph glyph-name="l" unicode="l" horiz-adv-x="189" 
d="M90 87c0 -71 8 -74 67 -67v-22c-11 -2 -21 -3 -32 -3c-37 0 -54 16 -56 56c-1 20 -1 36 -1 72v607h22v-643z" />
    <glyph glyph-name="lacute" unicode="&#x13a;" horiz-adv-x="189" 
d="M90 87c0 -71 8 -74 67 -67v-22c-11 -2 -21 -3 -32 -3c-37 0 -54 16 -56 56c-1 20 -1 36 -1 72v607h22v-643zM-16 825v2l169 148h34v-2l-175 -148h-28z" />
    <glyph glyph-name="lcaron" unicode="&#x13e;" horiz-adv-x="220" 
d="M209 740v-12l-53 -234h-21l53 246h21zM68 123v607h22v-643c0 -71 8 -74 67 -67v-22c-11 -2 -21 -3 -32 -3c-37 0 -54 16 -56 56c-1 20 -1 36 -1 72z" />
    <glyph glyph-name="uni013C" unicode="&#x13c;" horiz-adv-x="189" 
d="M90 87c0 -71 8 -74 67 -67v-22c-11 -2 -21 -3 -32 -3c-37 0 -54 16 -56 56c-1 20 -1 36 -1 72v607h22v-643zM2 -190l153 129h28v-5l-152 -124h-29z" />
    <glyph glyph-name="ldot" unicode="&#x140;" horiz-adv-x="208" 
d="M183 316c-14 0 -25 11 -25 25s11 25 25 25s25 -11 25 -25s-11 -25 -25 -25zM68 123v607h22v-643c0 -71 8 -74 67 -67v-22c-11 -2 -21 -3 -32 -3c-37 0 -54 16 -56 56c-1 20 -1 36 -1 72z" />
    <glyph glyph-name="lslash" unicode="&#x142;" horiz-adv-x="246" 
d="M204 400v-26l-67 -55v-232c0 -71 8 -74 67 -67v-22c-11 -2 -21 -3 -32 -3c-37 0 -54 16 -56 56c-1 20 -1 36 -1 72v182l-67 -55v26l67 55v399h22v-385z" />
    <glyph glyph-name="m" unicode="m" horiz-adv-x="789" 
d="M246 524c88 0 140 -46 155 -127c18 82 79 127 160 127c88 0 148 -43 158 -136c3 -27 4 -43 4 -66v-322h-22v323c0 96 -19 179 -140 179c-88 0 -153 -62 -153 -200v-302h-22v313c0 91 -17 189 -141 189c-85 0 -152 -62 -152 -200v-302h-22v510h22v-103
c9 73 82 117 153 117z" />
    <glyph glyph-name="n" unicode="n" horiz-adv-x="512" 
d="M264 524c101 0 167 -39 178 -142c3 -27 4 -43 4 -86v-296h-22v312c0 112 -20 190 -160 190c-95 0 -171 -67 -171 -206v-296h-22v510h22v-110c22 80 93 124 171 124z" />
    <glyph glyph-name="nacute" unicode="&#x144;" horiz-adv-x="512" 
d="M264 524c101 0 167 -39 178 -142c3 -27 4 -43 4 -86v-296h-22v312c0 112 -20 190 -160 190c-95 0 -171 -67 -171 -206v-296h-22v510h22v-110c22 80 93 124 171 124zM167 600v2l169 148h34v-2l-175 -148h-28z" />
    <glyph glyph-name="ncaron" unicode="&#x148;" horiz-adv-x="512" 
d="M264 524c101 0 167 -39 178 -142c3 -27 4 -43 4 -86v-296h-22v312c0 112 -20 190 -160 190c-95 0 -171 -67 -171 -206v-296h-22v510h22v-110c22 80 93 124 171 124zM135 750h28l100 -129l99 129h27l-115 -150h-23z" />
    <glyph glyph-name="uni0146" unicode="&#x146;" horiz-adv-x="512" 
d="M264 524c101 0 167 -39 178 -142c3 -27 4 -43 4 -86v-296h-22v312c0 112 -20 190 -160 190c-95 0 -171 -67 -171 -206v-296h-22v510h22v-110c22 80 93 124 171 124zM154 -190l153 129h28v-5l-152 -124h-29z" />
    <glyph glyph-name="ntilde" unicode="&#xf1;" horiz-adv-x="512" 
d="M264 524c101 0 167 -39 178 -142c3 -27 4 -43 4 -86v-296h-22v312c0 112 -20 190 -160 190c-95 0 -171 -67 -171 -206v-296h-22v510h22v-110c22 80 93 124 171 124zM153 627c2 42 15 62 46 62c16 0 29 -5 68 -24c29 -14 49 -22 58 -22c16 0 23 9 25 41h21
c-2 -42 -15 -62 -46 -62c-16 0 -36 7 -68 24c-36 19 -49 22 -58 22c-16 0 -23 -9 -25 -41h-21z" />
    <glyph glyph-name="eng" unicode="&#x14b;" horiz-adv-x="512" 
d="M446 -58c0 -18 0 -27 -1 -41c-6 -81 -51 -111 -137 -111v22c107 0 116 49 116 131v369c0 112 -20 190 -160 190c-95 0 -171 -67 -171 -206v-296h-22v510h22v-110c22 80 93 124 171 124c101 0 167 -39 178 -142c3 -27 4 -43 4 -86v-354z" />
    <glyph glyph-name="o" unicode="o" horiz-adv-x="534" 
d="M69 255c0 -175 76 -247 198 -247s198 72 198 247s-76 247 -198 247s-198 -72 -198 -247zM46 255c0 196 92 269 221 269s221 -73 221 -269s-92 -269 -221 -269s-221 73 -221 269z" />
    <glyph glyph-name="oacute" unicode="&#xf3;" horiz-adv-x="534" 
d="M69 255c0 -175 76 -247 198 -247s198 72 198 247s-76 247 -198 247s-198 -72 -198 -247zM46 255c0 196 92 269 221 269s221 -73 221 -269s-92 -269 -221 -269s-221 73 -221 269zM172 600v2l169 148h34v-2l-175 -148h-28z" />
    <glyph glyph-name="ocircumflex" unicode="&#xf4;" horiz-adv-x="534" 
d="M69 255c0 -175 76 -247 198 -247s198 72 198 247s-76 247 -198 247s-198 -72 -198 -247zM46 255c0 196 92 269 221 269s221 -73 221 -269s-92 -269 -221 -269s-221 73 -221 269zM140 600l115 150h23l116 -150h-28l-100 129l-99 -129h-27z" />
    <glyph glyph-name="odieresis" unicode="&#xf6;" horiz-adv-x="534" 
d="M69 255c0 -175 76 -247 198 -247s198 72 198 247s-76 247 -198 247s-198 -72 -198 -247zM46 255c0 196 92 269 221 269s221 -73 221 -269s-92 -269 -221 -269s-221 73 -221 269zM189 650c0 14 11 25 25 25s25 -11 25 -25s-11 -25 -25 -25s-25 11 -25 25zM295 650
c0 14 11 25 25 25s25 -11 25 -25s-11 -25 -25 -25s-25 11 -25 25z" />
    <glyph glyph-name="ograve" unicode="&#xf2;" horiz-adv-x="534" 
d="M69 255c0 -175 76 -247 198 -247s198 72 198 247s-76 247 -198 247s-198 -72 -198 -247zM46 255c0 196 92 269 221 269s221 -73 221 -269s-92 -269 -221 -269s-221 73 -221 269zM162 748v2h34l169 -148v-2h-28z" />
    <glyph glyph-name="ohungarumlaut" unicode="&#x151;" horiz-adv-x="534" 
d="M69 255c0 -175 76 -247 198 -247s198 72 198 247s-76 247 -198 247s-198 -72 -198 -247zM46 255c0 196 92 269 221 269s221 -73 221 -269s-92 -269 -221 -269s-221 73 -221 269zM93 600v2l169 148h34v-2l-175 -148h-28zM251 600v2l169 148h34v-2l-175 -148h-28z" />
    <glyph glyph-name="omacron" unicode="&#x14d;" horiz-adv-x="534" 
d="M69 255c0 -175 76 -247 198 -247s198 72 198 247s-76 247 -198 247s-198 -72 -198 -247zM46 255c0 196 92 269 221 269s221 -73 221 -269s-92 -269 -221 -269s-221 73 -221 269zM152 644v22h230v-22h-230z" />
    <glyph glyph-name="oslash" unicode="&#xf8;" horiz-adv-x="544" 
d="M493 491l15 -15l-51 -51c23 -41 36 -97 36 -170c0 -196 -92 -269 -221 -269c-73 0 -135 24 -174 80l-47 -47l-15 15l51 51c-23 41 -36 97 -36 170c0 196 92 269 221 269c73 0 135 -24 174 -80zM74 255c0 -65 10 -115 30 -153l325 325c-34 52 -88 75 -157 75
c-122 0 -198 -72 -198 -247zM115 83c34 -52 88 -75 157 -75c122 0 198 72 198 247c0 65 -10 115 -30 153z" />
    <glyph glyph-name="otilde" unicode="&#xf5;" horiz-adv-x="534" 
d="M69 255c0 -175 76 -247 198 -247s198 72 198 247s-76 247 -198 247s-198 -72 -198 -247zM46 255c0 196 92 269 221 269s221 -73 221 -269s-92 -269 -221 -269s-221 73 -221 269zM158 627c2 42 15 62 46 62c16 0 29 -5 68 -24c29 -14 49 -22 58 -22c16 0 23 9 25 41h21
c-2 -42 -15 -62 -46 -62c-16 0 -36 7 -68 24c-36 19 -49 22 -58 22c-16 0 -23 -9 -25 -41h-21z" />
    <glyph glyph-name="oe" unicode="&#x153;" horiz-adv-x="943" 
d="M267 524c98 0 174 -62 202 -173c25 122 99 173 207 173c140 0 207 -98 207 -257c0 -4 0 -8 -1 -19h-399c3 -171 76 -240 194 -240c93 0 161 47 182 142h22c-22 -105 -96 -164 -206 -164c-116 0 -185 62 -206 178c-28 -113 -104 -178 -202 -178c-129 0 -221 73 -221 269
s92 269 221 269zM69 255c0 -175 76 -247 198 -247c99 0 193 79 193 254c0 160 -94 240 -193 240c-122 0 -198 -72 -198 -247zM483 270h378c-1 174 -88 232 -187 232c-107 0 -188 -58 -191 -232z" />
    <glyph glyph-name="p" unicode="p" horiz-adv-x="550" 
d="M93 -190h-22v700h22v-126c14 88 96 140 195 140c146 0 216 -111 216 -271c0 -163 -81 -267 -223 -267c-89 0 -171 46 -188 137v-313zM93 229c0 -171 101 -221 188 -221c132 0 200 98 200 245c0 137 -52 249 -195 249c-106 0 -193 -58 -193 -230v-43z" />
    <glyph glyph-name="thorn" unicode="&#xfe;" horiz-adv-x="550" 
d="M93 -190h-22v920h22v-346c14 88 96 140 195 140c146 0 216 -111 216 -271c0 -163 -81 -267 -223 -267c-89 0 -171 46 -188 137v-313zM93 229c0 -171 101 -221 188 -221c132 0 200 98 200 245c0 137 -52 249 -195 249c-106 0 -193 -58 -193 -230v-43z" />
    <glyph glyph-name="q" unicode="q" horiz-adv-x="550" 
d="M457 -190v316c-14 -88 -96 -140 -195 -140c-146 0 -216 111 -216 271c0 163 81 267 223 267c89 0 171 -46 188 -137v123h22v-700h-22zM69 257c0 -137 52 -249 195 -249c106 0 193 58 193 230v43c0 171 -101 221 -188 221c-132 0 -200 -98 -200 -245z" />
    <glyph glyph-name="r" unicode="r" horiz-adv-x="287" 
d="M233 524c8 0 16 0 23 -1v-22c-96 8 -163 -56 -163 -219v-282h-22v510h22v-105c17 84 83 119 140 119z" />
    <glyph glyph-name="racute" unicode="&#x155;" horiz-adv-x="287" 
d="M233 524c8 0 16 0 23 -1v-22c-96 8 -163 -56 -163 -219v-282h-22v510h22v-105c17 84 83 119 140 119zM56 600v2l169 148h34v-2l-175 -148h-28z" />
    <glyph glyph-name="rcaron" unicode="&#x159;" horiz-adv-x="287" 
d="M233 524c8 0 16 0 23 -1v-22c-96 8 -163 -56 -163 -219v-282h-22v510h22v-105c17 84 83 119 140 119zM24 750h28l100 -129l99 129h27l-115 -150h-23z" />
    <glyph glyph-name="uni0157" unicode="&#x157;" horiz-adv-x="287" 
d="M233 524c8 0 16 0 23 -1v-22c-96 8 -163 -56 -163 -219v-282h-22v510h22v-105c17 84 83 119 140 119zM-26 -190l153 129h28v-5l-152 -124h-29z" />
    <glyph glyph-name="s" unicode="s" horiz-adv-x="465" 
d="M228 524c111 0 181 -51 185 -164h-22c-6 98 -62 142 -164 142c-79 0 -149 -40 -149 -116c0 -75 54 -107 154 -119c132 -16 192 -54 192 -143c0 -84 -68 -138 -178 -138c-124 0 -197 44 -210 164h22c17 -106 70 -142 191 -142c88 0 152 40 152 115c0 73 -38 107 -179 124
c-99 12 -167 52 -167 138c0 81 70 139 173 139z" />
    <glyph glyph-name="sacute" unicode="&#x15b;" horiz-adv-x="465" 
d="M228 524c111 0 181 -51 185 -164h-22c-6 98 -62 142 -164 142c-79 0 -149 -40 -149 -116c0 -75 54 -107 154 -119c132 -16 192 -54 192 -143c0 -84 -68 -138 -178 -138c-124 0 -197 44 -210 164h22c17 -106 70 -142 191 -142c88 0 152 40 152 115c0 73 -38 107 -179 124
c-99 12 -167 52 -167 138c0 81 70 139 173 139zM133 600v2l169 148h34v-2l-175 -148h-28z" />
    <glyph glyph-name="scaron" unicode="&#x161;" horiz-adv-x="465" 
d="M228 524c111 0 181 -51 185 -164h-22c-6 98 -62 142 -164 142c-79 0 -149 -40 -149 -116c0 -75 54 -107 154 -119c132 -16 192 -54 192 -143c0 -84 -68 -138 -178 -138c-124 0 -197 44 -210 164h22c17 -106 70 -142 191 -142c88 0 152 40 152 115c0 73 -38 107 -179 124
c-99 12 -167 52 -167 138c0 81 70 139 173 139zM101 750h28l100 -129l99 129h27l-115 -150h-23z" />
    <glyph glyph-name="scedilla" unicode="&#x15f;" horiz-adv-x="465" 
d="M228 524c111 0 181 -51 185 -164h-22c-6 98 -62 142 -164 142c-79 0 -149 -40 -149 -116c0 -75 54 -107 154 -119c132 -16 192 -54 192 -143c0 -84 -68 -138 -178 -138h-9l-24 -34c65 -4 104 -27 104 -77c0 -56 -54 -79 -111 -79c-12 0 -29 2 -43 6v22c15 -5 31 -7 43 -7
c56 0 88 23 88 58c0 39 -36 59 -108 56v14l28 42c-104 7 -166 54 -178 163h22c17 -106 70 -142 191 -142c88 0 152 40 152 115c0 73 -38 107 -179 124c-99 12 -167 52 -167 138c0 81 70 139 173 139z" />
    <glyph glyph-name="uni0219" unicode="&#x219;" horiz-adv-x="465" 
d="M228 524c111 0 181 -51 185 -164h-22c-6 98 -62 142 -164 142c-79 0 -149 -40 -149 -116c0 -75 54 -107 154 -119c132 -16 192 -54 192 -143c0 -84 -68 -138 -178 -138c-124 0 -197 44 -210 164h22c17 -106 70 -142 191 -142c88 0 152 40 152 115c0 73 -38 107 -179 124
c-99 12 -167 52 -167 138c0 81 70 139 173 139zM130 -190l153 129h28v-5l-152 -124h-29z" />
    <glyph glyph-name="germandbls" unicode="&#xdf;" horiz-adv-x="543" 
d="M275 744c115 0 188 -57 188 -185c0 -40 -10 -51 -45 -78c-50 -39 -78 -62 -78 -94c0 -36 14 -57 60 -97c66 -58 98 -104 98 -158c0 -86 -65 -136 -176 -136c-33 0 -69 2 -108 10v23c40 -8 75 -11 108 -11c92 0 153 42 153 113c0 44 -19 75 -87 138c-59 54 -71 74 -71 118
c0 42 31 69 90 112c31 22 33 30 33 59c0 112 -61 164 -165 164c-141 0 -182 -100 -182 -210v-512h-22v480c0 20 1 46 2 64c7 127 80 200 202 200z" />
    <glyph glyph-name="t" unicode="t" horiz-adv-x="256" 
d="M113 104c0 -81 17 -96 120 -88v-20c-14 -2 -34 -3 -48 -3c-62 0 -88 28 -92 74c-2 24 -2 41 -2 71v346h-63v22h63v164h22v-164h118v-22h-118v-380z" />
    <glyph glyph-name="tbar" unicode="&#x167;" horiz-adv-x="256" 
d="M221 336v-22h-108v-210c0 -81 17 -96 120 -88v-20c-14 -2 -34 -3 -48 -3c-62 0 -88 28 -92 74c-2 24 -2 41 -2 71v176h-50v22h50v148h-63v22h63v164h22v-164h118v-22h-118v-148h108z" />
    <glyph glyph-name="tcaron" unicode="&#x165;" horiz-adv-x="256" 
d="M246 736v-9l-40 -186h-21l40 195h21zM28 484v22h63v164h22v-164h118v-22h-118v-380c0 -81 17 -96 120 -88v-20c-14 -2 -34 -3 -48 -3c-62 0 -88 28 -92 74c-2 24 -2 41 -2 71v346h-63z" />
    <glyph glyph-name="uni0163" unicode="&#x163;" horiz-adv-x="256" 
d="M113 104c0 -81 17 -96 120 -88v-20c-14 -2 -34 -3 -48 -3c-8 0 -16 0 -23 1l-30 -42c65 -4 104 -27 104 -77c0 -56 -54 -79 -111 -79c-12 0 -29 2 -43 6v22c15 -5 31 -7 43 -7c56 0 88 23 88 58c0 39 -36 59 -108 56v14l36 54c-31 11 -45 35 -48 68c-2 24 -2 41 -2 71
v346h-63v22h63v164h22v-164h118v-22h-118v-380z" />
    <glyph glyph-name="uni021B" unicode="&#x21b;" horiz-adv-x="256" 
d="M113 104c0 -81 17 -96 120 -88v-20c-14 -2 -34 -3 -48 -3c-62 0 -88 28 -92 74c-2 24 -2 41 -2 71v346h-63v22h63v164h22v-164h118v-22h-118v-380zM49 -190l153 129h28v-5l-152 -124h-29z" />
    <glyph glyph-name="u" unicode="u" horiz-adv-x="506" 
d="M239 -14c-96 0 -162 39 -173 142c-3 27 -4 43 -4 86v296h22v-312c0 -112 22 -190 155 -190c97 0 174 67 174 206v296h22v-510h-22v119c-13 -80 -89 -133 -174 -133z" />
    <glyph glyph-name="uacute" unicode="&#xfa;" horiz-adv-x="506" 
d="M239 -14c-96 0 -162 39 -173 142c-3 27 -4 43 -4 86v296h22v-312c0 -112 22 -190 155 -190c97 0 174 67 174 206v296h22v-510h-22v119c-13 -80 -89 -133 -174 -133zM154 600v2l169 148h34v-2l-175 -148h-28z" />
    <glyph glyph-name="ucircumflex" unicode="&#xfb;" horiz-adv-x="506" 
d="M239 -14c-96 0 -162 39 -173 142c-3 27 -4 43 -4 86v296h22v-312c0 -112 22 -190 155 -190c97 0 174 67 174 206v296h22v-510h-22v119c-13 -80 -89 -133 -174 -133zM122 600l115 150h23l116 -150h-28l-100 129l-99 -129h-27z" />
    <glyph glyph-name="udieresis" unicode="&#xfc;" horiz-adv-x="506" 
d="M239 -14c-96 0 -162 39 -173 142c-3 27 -4 43 -4 86v296h22v-312c0 -112 22 -190 155 -190c97 0 174 67 174 206v296h22v-510h-22v119c-13 -80 -89 -133 -174 -133zM171 650c0 14 11 25 25 25s25 -11 25 -25s-11 -25 -25 -25s-25 11 -25 25zM277 650c0 14 11 25 25 25
s25 -11 25 -25s-11 -25 -25 -25s-25 11 -25 25z" />
    <glyph glyph-name="ugrave" unicode="&#xf9;" horiz-adv-x="506" 
d="M239 -14c-96 0 -162 39 -173 142c-3 27 -4 43 -4 86v296h22v-312c0 -112 22 -190 155 -190c97 0 174 67 174 206v296h22v-510h-22v119c-13 -80 -89 -133 -174 -133zM144 748v2h34l169 -148v-2h-28z" />
    <glyph glyph-name="uhungarumlaut" unicode="&#x171;" horiz-adv-x="506" 
d="M239 -14c-96 0 -162 39 -173 142c-3 27 -4 43 -4 86v296h22v-312c0 -112 22 -190 155 -190c97 0 174 67 174 206v296h22v-510h-22v119c-13 -80 -89 -133 -174 -133zM75 600v2l169 148h34v-2l-175 -148h-28zM233 600v2l169 148h34v-2l-175 -148h-28z" />
    <glyph glyph-name="umacron" unicode="&#x16b;" horiz-adv-x="506" 
d="M239 -14c-96 0 -162 39 -173 142c-3 27 -4 43 -4 86v296h22v-312c0 -112 22 -190 155 -190c97 0 174 67 174 206v296h22v-510h-22v119c-13 -80 -89 -133 -174 -133zM134 644v22h230v-22h-230z" />
    <glyph glyph-name="uogonek" unicode="&#x173;" horiz-adv-x="506" 
d="M239 -14c-96 0 -162 39 -173 142c-3 27 -4 43 -4 86v296h22v-312c0 -112 22 -190 155 -190c97 0 174 67 174 206v296h22v-510c-49 -28 -96 -79 -96 -129c0 -41 25 -53 57 -53c16 0 31 4 46 11l-1 -23c-18 -7 -33 -10 -49 -10c-39 0 -76 17 -76 73c0 58 45 106 97 141v109
c-13 -80 -89 -133 -174 -133z" />
    <glyph glyph-name="uring" unicode="&#x16f;" horiz-adv-x="506" 
d="M239 -14c-96 0 -162 39 -173 142c-3 27 -4 43 -4 86v296h22v-312c0 -112 22 -190 155 -190c97 0 174 67 174 206v296h22v-510h-22v119c-13 -80 -89 -133 -174 -133zM161 675c0 48 41 75 88 75s88 -27 88 -75s-41 -75 -88 -75s-88 27 -88 75zM184 675c0 -35 27 -54 65 -54
s65 19 65 54s-27 54 -65 54s-65 -19 -65 -54z" />
    <glyph glyph-name="v" unicode="v" horiz-adv-x="468" 
d="M470 510l-208 -510h-31l-218 510h25l208 -491l199 491h25z" />
    <glyph glyph-name="w" unicode="w" horiz-adv-x="735" 
d="M715 510l-156 -510h-28c-54 158 -107 311 -160 474c-53 -163 -107 -316 -163 -474h-28l-160 510h25c49 -162 100 -323 149 -485c54 161 109 314 163 475h27l162 -471c48 160 96 321 144 481h25z" />
    <glyph glyph-name="wacute" unicode="&#x1e83;" horiz-adv-x="735" 
d="M715 510l-156 -510h-28c-54 158 -107 311 -160 474c-53 -163 -107 -316 -163 -474h-28l-160 510h25c49 -162 100 -323 149 -485c54 161 109 314 163 475h27l162 -471c48 160 96 321 144 481h25zM275 600v2l169 148h34v-2l-175 -148h-28z" />
    <glyph glyph-name="wcircumflex" unicode="&#x175;" horiz-adv-x="735" 
d="M715 510l-156 -510h-28c-54 158 -107 311 -160 474c-53 -163 -107 -316 -163 -474h-28l-160 510h25c49 -162 100 -323 149 -485c54 161 109 314 163 475h27l162 -471c48 160 96 321 144 481h25zM243 600l115 150h23l116 -150h-28l-100 129l-99 -129h-27z" />
    <glyph glyph-name="wdieresis" unicode="&#x1e85;" horiz-adv-x="735" 
d="M715 510l-156 -510h-28c-54 158 -107 311 -160 474c-53 -163 -107 -316 -163 -474h-28l-160 510h25c49 -162 100 -323 149 -485c54 161 109 314 163 475h27l162 -471c48 160 96 321 144 481h25zM292 650c0 14 11 25 25 25s25 -11 25 -25s-11 -25 -25 -25s-25 11 -25 25z
M398 650c0 14 11 25 25 25s25 -11 25 -25s-11 -25 -25 -25s-25 11 -25 25z" />
    <glyph glyph-name="wgrave" unicode="&#x1e81;" horiz-adv-x="735" 
d="M715 510l-156 -510h-28c-54 158 -107 311 -160 474c-53 -163 -107 -316 -163 -474h-28l-160 510h25c49 -162 100 -323 149 -485c54 161 109 314 163 475h27l162 -471c48 160 96 321 144 481h25zM265 748v2h34l169 -148v-2h-28z" />
    <glyph glyph-name="x" unicode="x" horiz-adv-x="450" 
d="M435 510l-195 -253l197 -257h-29l-183 239l-184 -239h-28l198 257l-190 253h28l177 -236l181 236h28z" />
    <glyph glyph-name="y" unicode="y" horiz-adv-x="447" 
d="M246 0c-73 -184 -113 -210 -171 -210c-14 0 -24 1 -35 4v20c13 -3 26 -4 39 -4c40 0 76 29 123 138l18 41l-207 521h26l192 -489l193 489h25z" />
    <glyph glyph-name="yacute" unicode="&#xfd;" horiz-adv-x="447" 
d="M246 0c-73 -184 -113 -210 -171 -210c-14 0 -24 1 -35 4v20c13 -3 26 -4 39 -4c40 0 76 29 123 138l18 41l-207 521h26l192 -489l193 489h25zM135 600v2l169 148h34v-2l-175 -148h-28z" />
    <glyph glyph-name="ycircumflex" unicode="&#x177;" horiz-adv-x="447" 
d="M246 0c-73 -184 -113 -210 -171 -210c-14 0 -24 1 -35 4v20c13 -3 26 -4 39 -4c40 0 76 29 123 138l18 41l-207 521h26l192 -489l193 489h25zM103 600l115 150h23l116 -150h-28l-100 129l-99 -129h-27z" />
    <glyph glyph-name="ydieresis" unicode="&#xff;" horiz-adv-x="447" 
d="M246 0c-73 -184 -113 -210 -171 -210c-14 0 -24 1 -35 4v20c13 -3 26 -4 39 -4c40 0 76 29 123 138l18 41l-207 521h26l192 -489l193 489h25zM152 650c0 14 11 25 25 25s25 -11 25 -25s-11 -25 -25 -25s-25 11 -25 25zM258 650c0 14 11 25 25 25s25 -11 25 -25
s-11 -25 -25 -25s-25 11 -25 25z" />
    <glyph glyph-name="ygrave" unicode="&#x1ef3;" horiz-adv-x="447" 
d="M246 0c-73 -184 -113 -210 -171 -210c-14 0 -24 1 -35 4v20c13 -3 26 -4 39 -4c40 0 76 29 123 138l18 41l-207 521h26l192 -489l193 489h25zM125 748v2h34l169 -148v-2h-28z" />
    <glyph glyph-name="z" unicode="z" horiz-adv-x="434" 
d="M392 510v-20l-338 -468h348v-22h-379v20l339 468h-326v22h356z" />
    <glyph glyph-name="zacute" unicode="&#x17a;" horiz-adv-x="434" 
d="M392 510v-20l-338 -468h348v-22h-379v20l339 468h-326v22h356zM117 600v2l169 148h34v-2l-175 -148h-28z" />
    <glyph glyph-name="zcaron" unicode="&#x17e;" horiz-adv-x="434" 
d="M392 510v-20l-338 -468h348v-22h-379v20l339 468h-326v22h356zM85 750h28l100 -129l99 129h27l-115 -150h-23z" />
    <glyph glyph-name="zdotaccent" unicode="&#x17c;" horiz-adv-x="434" 
d="M392 510v-20l-338 -468h348v-22h-379v20l339 468h-326v22h356zM187 650c0 14 11 25 25 25s25 -11 25 -25s-11 -25 -25 -25s-25 11 -25 25z" />
    <glyph glyph-name="zero" unicode="0" 
d="M270 721c-153 0 -200 -126 -200 -356c0 -229 47 -356 200 -356s200 127 200 356c0 230 -47 356 -200 356zM46 365c0 251 57 379 224 379s224 -128 224 -379c0 -250 -57 -379 -224 -379s-224 129 -224 379z" />
    <glyph glyph-name="one" unicode="1" 
d="M321 730v-730h-24v707h-132v5l17 18h139z" />
    <glyph glyph-name="two" unicode="2" 
d="M283 744c128 0 206 -90 206 -198c0 -111 -63 -184 -208 -321l-215 -202h433v-23h-459v30l225 212c146 138 200 207 200 304c0 98 -73 175 -182 175c-132 0 -197 -72 -208 -181h-23c13 123 82 204 231 204z" />
    <glyph glyph-name="three" unicode="3" 
d="M281 744c125 0 203 -70 203 -189c0 -98 -78 -162 -166 -181c99 -18 179 -74 179 -190c0 -124 -100 -198 -220 -198c-138 0 -216 59 -230 204h23c12 -117 72 -181 207 -181c108 0 196 62 196 175c0 114 -93 177 -241 177h-16v23h16c95 0 228 42 228 171
c0 107 -72 166 -180 166c-112 0 -184 -63 -197 -181h-23c13 133 93 204 221 204z" />
    <glyph glyph-name="four" unicode="4" 
d="M404 730h19v-487h81v-23h-81v-220h-24v220h-358v26zM67 243h332v442z" />
    <glyph glyph-name="five" unicode="5" 
d="M471 730v-23h-337l-45 -331c38 56 100 92 191 92c121 0 219 -69 219 -244c0 -136 -77 -238 -221 -238c-141 0 -208 61 -227 184h23c19 -103 73 -161 205 -161c120 0 196 81 196 214c0 164 -94 222 -197 222c-94 0 -155 -38 -193 -115h-23l52 400h357z" />
    <glyph glyph-name="six" unicode="6" 
d="M277 744c132 0 193 -78 202 -184h-23c-12 111 -73 161 -179 161c-148 0 -207 -114 -213 -393c21 88 114 140 213 140c137 0 220 -94 220 -236c0 -161 -102 -246 -231 -246c-146 0 -226 97 -226 294c0 322 59 464 237 464zM67 244c0 -122 50 -235 200 -235
c118 0 206 76 206 222c0 139 -82 214 -197 214c-138 0 -209 -95 -209 -201z" />
    <glyph glyph-name="seven" unicode="7" 
d="M507 701c-157 -193 -280 -435 -358 -701h-27c84 276 203 514 361 707h-438v23h462v-29z" />
    <glyph glyph-name="eight" unicode="8" 
d="M270 744c146 0 226 -79 226 -189c0 -87 -58 -156 -152 -176c107 -24 162 -99 162 -198c0 -135 -110 -197 -234 -197c-135 0 -238 62 -238 197c0 99 55 172 161 198c-85 23 -134 89 -134 176c0 103 69 189 209 189zM58 181c0 -130 111 -174 214 -174c95 0 210 44 210 174
c0 108 -79 186 -215 186c-129 0 -209 -79 -209 -186zM85 555c0 -116 94 -165 186 -165c94 0 200 50 200 165c0 109 -84 166 -201 166c-111 0 -185 -64 -185 -166z" />
    <glyph glyph-name="nine" unicode="9" 
d="M260 -14c-133 0 -193 78 -202 184h23c12 -111 73 -161 179 -161c148 0 209 114 214 395c-21 -89 -114 -142 -214 -142c-137 0 -220 93 -220 236c0 161 102 246 231 246c146 0 226 -97 226 -294c0 -322 -59 -464 -237 -464zM64 499c0 -139 82 -214 197 -214
c138 0 209 95 209 201c0 122 -50 235 -200 235c-118 0 -206 -76 -206 -222z" />
    <glyph glyph-name="zero.prop" horiz-adv-x="570" 
d="M285 721c-158 0 -205 -136 -205 -356c0 -219 47 -356 205 -356s205 137 205 356c0 220 -47 356 -205 356zM56 365c0 241 59 379 229 379s229 -138 229 -379c0 -240 -59 -379 -229 -379s-229 139 -229 379z" />
    <glyph glyph-name="one.prop" horiz-adv-x="363" 
d="M231 730v-730h-24v707h-132v5l17 18h139z" />
    <glyph glyph-name="two.prop" 
d="M283 744c128 0 206 -90 206 -198c0 -111 -63 -184 -208 -321l-215 -202h433v-23h-459v30l225 212c146 138 200 207 200 304c0 98 -73 175 -182 175c-132 0 -197 -72 -208 -181h-23c13 123 82 204 231 204z" />
    <glyph glyph-name="three.prop" 
d="M281 744c125 0 203 -70 203 -189c0 -98 -78 -162 -166 -181c99 -18 179 -74 179 -190c0 -124 -100 -198 -220 -198c-138 0 -216 59 -230 204h23c12 -117 72 -181 207 -181c108 0 196 62 196 175c0 114 -93 177 -241 177h-16v23h16c95 0 228 42 228 171
c0 107 -72 166 -180 166c-112 0 -184 -63 -197 -181h-23c13 133 93 204 221 204z" />
    <glyph glyph-name="four.prop" 
d="M404 730h19v-487h81v-23h-81v-220h-24v220h-358v26zM67 243h332v442z" />
    <glyph glyph-name="five.prop" 
d="M471 730v-23h-337l-45 -331c38 56 100 92 191 92c121 0 219 -69 219 -244c0 -136 -77 -238 -221 -238c-141 0 -208 61 -227 184h23c19 -103 73 -161 205 -161c120 0 196 81 196 214c0 164 -94 222 -197 222c-94 0 -155 -38 -193 -115h-23l52 400h357z" />
    <glyph glyph-name="six.prop" 
d="M277 744c132 0 193 -78 202 -184h-23c-12 111 -73 161 -179 161c-148 0 -207 -114 -213 -393c21 88 114 140 213 140c137 0 220 -94 220 -236c0 -161 -102 -246 -231 -246c-146 0 -226 97 -226 294c0 322 59 464 237 464zM67 244c0 -122 50 -235 200 -235
c118 0 206 76 206 222c0 139 -82 214 -197 214c-138 0 -209 -95 -209 -201z" />
    <glyph glyph-name="seven.prop" horiz-adv-x="480" 
d="M467 701c-157 -193 -280 -435 -358 -701h-27c84 276 203 514 361 707h-438v23h462v-29z" />
    <glyph glyph-name="eight.prop" 
d="M270 744c146 0 226 -79 226 -189c0 -87 -58 -156 -152 -176c107 -24 162 -99 162 -198c0 -135 -110 -197 -234 -197c-135 0 -238 62 -238 197c0 99 55 172 161 198c-85 23 -134 89 -134 176c0 103 69 189 209 189zM58 181c0 -130 111 -174 214 -174c95 0 210 44 210 174
c0 108 -79 186 -215 186c-129 0 -209 -79 -209 -186zM85 555c0 -116 94 -165 186 -165c94 0 200 50 200 165c0 109 -84 166 -201 166c-111 0 -185 -64 -185 -166z" />
    <glyph glyph-name="nine.prop" 
d="M260 -14c-133 0 -193 78 -202 184h23c12 -111 73 -161 179 -161c148 0 209 114 214 395c-21 -89 -114 -142 -214 -142c-137 0 -220 93 -220 236c0 161 102 246 231 246c146 0 226 -97 226 -294c0 -322 -59 -464 -237 -464zM64 499c0 -139 82 -214 197 -214
c138 0 209 95 209 201c0 122 -50 235 -200 235c-118 0 -206 -76 -206 -222z" />
    <glyph glyph-name="fraction" unicode="&#x2044;" horiz-adv-x="73" 
d="M273 690l-447 -690h-26l447 690h26z" />
    <glyph glyph-name="period" unicode="." horiz-adv-x="150" 
d="M75 -14c-14 0 -25 11 -25 25s11 25 25 25s25 -11 25 -25s-11 -25 -25 -25z" />
    <glyph glyph-name="comma" unicode="," horiz-adv-x="150" 
d="M86 88v-6l-38 -240h-22l38 246h22z" />
    <glyph glyph-name="colon" unicode=":" horiz-adv-x="150" 
d="M75 16c-14 0 -25 11 -25 25s11 25 25 25s25 -11 25 -25s-11 -25 -25 -25zM50 469c0 14 11 25 25 25s25 -11 25 -25s-11 -25 -25 -25s-25 11 -25 25z" />
    <glyph glyph-name="semicolon" unicode=";" horiz-adv-x="150" 
d="M75 444c-14 0 -25 11 -25 25s11 25 25 25s25 -11 25 -25s-11 -25 -25 -25zM26 -158l38 246h22v-6l-38 -240h-22z" />
    <glyph glyph-name="ellipsis" unicode="&#x2026;" horiz-adv-x="350" 
d="M75 -14c-14 0 -25 11 -25 25s11 25 25 25s25 -11 25 -25s-11 -25 -25 -25zM150 11c0 14 11 25 25 25s25 -11 25 -25s-11 -25 -25 -25s-25 11 -25 25zM250 11c0 14 11 25 25 25s25 -11 25 -25s-11 -25 -25 -25s-25 11 -25 25z" />
    <glyph glyph-name="exclam" unicode="!" horiz-adv-x="242" 
d="M135 730l-4 -580h-20l-4 580h28zM96 11c0 14 11 25 25 25s25 -11 25 -25s-11 -25 -25 -25s-25 11 -25 25z" />
    <glyph glyph-name="exclamdown" unicode="&#xa1;" horiz-adv-x="202" 
d="M67 -200l4 580h20l4 -580h-28zM56 519c0 14 11 25 25 25s25 -11 25 -25s-11 -25 -25 -25s-25 11 -25 25z" />
    <glyph glyph-name="question" unicode="?" horiz-adv-x="532" 
d="M271 744c116 0 221 -65 221 -198c0 -100 -52 -162 -135 -230c-85 -70 -104 -91 -104 -166h-24c1 82 21 107 112 182c89 73 127 121 127 214c0 121 -93 175 -197 175c-142 0 -208 -75 -217 -187h-22c6 124 85 210 239 210zM216 11c0 14 11 25 25 25s25 -11 25 -25
s-11 -25 -25 -25s-25 11 -25 25z" />
    <glyph glyph-name="questiondown" unicode="&#xbf;" horiz-adv-x="472" 
d="M251 -219c-116 0 -221 65 -221 198c0 100 52 162 135 230c85 70 104 91 104 166h24c-1 -82 -21 -107 -112 -182c-89 -73 -127 -121 -127 -214c0 -121 93 -175 197 -175c142 0 208 75 217 187h22c-6 -124 -85 -210 -239 -210zM256 514c0 14 11 25 25 25s25 -11 25 -25
s-11 -25 -25 -25s-25 11 -25 25z" />
    <glyph glyph-name="periodcentered" unicode="&#xb7;" horiz-adv-x="136" 
d="M68 280c-14 0 -25 11 -25 25s11 25 25 25s25 -11 25 -25s-11 -25 -25 -25z" />
    <glyph glyph-name="bullet" unicode="&#x2022;" horiz-adv-x="214" 
d="M107 273c-18 0 -32 14 -32 32s14 32 32 32s32 -14 32 -32s-14 -32 -32 -32z" />
    <glyph glyph-name="asterisk" unicode="*" horiz-adv-x="535" 
d="M63 297l7 21l188 -63l-3 199h22l-1 -199l189 63l7 -21l-190 -59l117 -159l-18 -13l-113 161l-114 -161l-18 13l117 159z" />
    <glyph glyph-name="numbersign" unicode="#" horiz-adv-x="570" 
d="M445 730l-51 -253h101v-21h-105l-36 -178h111v-21h-115l-52 -257h-21l52 257h-131l-52 -257h-21l52 257h-102v21h106l36 178h-112v21h116l51 253h21l-51 -253h131l51 253h21zM202 278h131l36 178h-131z" />
    <glyph glyph-name="slash" unicode="/" horiz-adv-x="263" 
d="M269 780l-251 -860h-24l251 860h24z" />
    <glyph glyph-name="backslash" unicode="\" horiz-adv-x="263" 
d="M-6 780h24l251 -860h-24z" />
    <glyph glyph-name="colon.case" horiz-adv-x="150" 
d="M75 86c-14 0 -25 11 -25 25s11 25 25 25s25 -11 25 -25s-11 -25 -25 -25zM50 539c0 14 11 25 25 25s25 -11 25 -25s-11 -25 -25 -25s-25 11 -25 25z" />
    <glyph glyph-name="semicolon.case" horiz-adv-x="150" 
d="M74 514c-14 0 -25 11 -25 25s11 25 25 25s25 -11 25 -25s-11 -25 -25 -25zM25 -88l38 246h22v-6l-38 -240h-22z" />
    <glyph glyph-name="hyphen" unicode="-" horiz-adv-x="274" 
d="M242 295v-21h-210v21h210z" />
    <glyph glyph-name="endash" unicode="&#x2013;" horiz-adv-x="500" 
d="M430 301v-21h-360v21h360z" />
    <glyph glyph-name="emdash" unicode="&#x2014;" horiz-adv-x="1000" 
d="M930 301v-21h-860v21h860z" />
    <glyph glyph-name="underscore" unicode="_" horiz-adv-x="500" 
d="M490 -59v-21h-480v21h480z" />
    <glyph glyph-name="hyphen.case" horiz-adv-x="274" 
d="M242 380v-23h-210v23h210z" />
    <glyph glyph-name="endash.case" horiz-adv-x="500" 
d="M430 379v-21h-360v21h360z" />
    <glyph glyph-name="emdash.case" horiz-adv-x="1000" 
d="M930 380v-23h-860v23h860z" />
    <glyph glyph-name="parenleft" unicode="(" horiz-adv-x="280" 
d="M227 750c-78 -128 -115 -310 -115 -450s37 -322 115 -450h-27c-71 126 -112 300 -112 450s41 324 112 450h27z" />
    <glyph glyph-name="parenright" unicode=")" horiz-adv-x="280" 
d="M80 750c71 -126 112 -300 112 -450s-41 -324 -112 -450h-27c78 128 115 310 115 450s-37 322 -115 450h27z" />
    <glyph glyph-name="braceleft" unicode="{" horiz-adv-x="310" 
d="M240 -140c-75 0 -129 28 -129 111c0 21 2 43 12 114c8 58 10 86 10 110c0 44 -21 88 -81 94v22c60 6 81 50 81 94c0 24 -2 52 -10 110c-10 71 -12 93 -12 114c0 83 54 111 129 111h37v-21h-38c-62 0 -106 -21 -106 -89c0 -23 3 -41 11 -105c8 -66 11 -98 11 -120
c0 -39 -15 -90 -74 -104c59 -15 74 -68 74 -106c0 -22 -3 -54 -11 -120c-8 -64 -11 -82 -11 -105c0 -68 44 -89 106 -89h38v-21h-37z" />
    <glyph glyph-name="braceright" unicode="}" horiz-adv-x="310" 
d="M70 740c75 0 129 -28 129 -111c0 -21 -2 -43 -12 -114c-8 -58 -10 -86 -10 -110c0 -44 21 -88 81 -94v-22c-60 -6 -81 -50 -81 -94c0 -24 2 -52 10 -110c10 -71 12 -93 12 -114c0 -83 -54 -111 -129 -111h-37v21h38c62 0 106 21 106 89c0 23 -3 41 -11 105
c-8 66 -11 98 -11 120c0 39 15 90 74 104c-59 15 -74 68 -74 106c0 22 3 54 11 120c8 64 11 82 11 105c0 68 -44 89 -106 89h-38v21h37z" />
    <glyph glyph-name="bracketleft" unicode="[" horiz-adv-x="300" 
d="M71 740h193v-21h-171v-838h171v-21h-193v880z" />
    <glyph glyph-name="bracketright" unicode="]" horiz-adv-x="300" 
d="M229 740v-880h-193v21h171v838h-171v21h193z" />
    <glyph glyph-name="parenleft.case" horiz-adv-x="280" 
d="M227 800c-78 -128 -115 -310 -115 -450s37 -322 115 -450h-27c-71 126 -112 300 -112 450s41 324 112 450h27z" />
    <glyph glyph-name="parenright.case" horiz-adv-x="280" 
d="M80 800c71 -126 112 -300 112 -450s-41 -324 -112 -450h-27c78 128 115 310 115 450s-37 322 -115 450h27z" />
    <glyph glyph-name="braceleft.case" horiz-adv-x="310" 
d="M240 -90c-75 0 -129 28 -129 111c0 21 2 43 12 114c8 58 10 86 10 110c0 44 -21 88 -81 94v22c60 6 81 50 81 94c0 24 -2 52 -10 110c-10 71 -12 93 -12 114c0 83 54 111 129 111h37v-21h-38c-62 0 -106 -21 -106 -89c0 -23 3 -41 11 -105c8 -66 11 -98 11 -120
c0 -39 -15 -90 -74 -104c59 -15 74 -68 74 -106c0 -22 -3 -54 -11 -120c-8 -64 -11 -82 -11 -105c0 -68 44 -89 106 -89h38v-21h-37z" />
    <glyph glyph-name="braceright.case" horiz-adv-x="310" 
d="M70 790c75 0 129 -28 129 -111c0 -21 -2 -43 -12 -114c-8 -58 -10 -86 -10 -110c0 -44 21 -88 81 -94v-22c-60 -6 -81 -50 -81 -94c0 -24 2 -52 10 -110c10 -71 12 -93 12 -114c0 -83 -54 -111 -129 -111h-37v21h38c62 0 106 21 106 89c0 23 -3 41 -11 105
c-8 66 -11 98 -11 120c0 39 15 90 74 104c-59 15 -74 68 -74 106c0 22 3 54 11 120c8 64 11 82 11 105c0 68 -44 89 -106 89h-38v21h37z" />
    <glyph glyph-name="bracketleft.case" horiz-adv-x="300" 
d="M71 790h193v-21h-171v-838h171v-21h-193v880z" />
    <glyph glyph-name="bracketright.case" horiz-adv-x="300" 
d="M229 790v-880h-193v21h171v838h-171v21h193z" />
    <glyph glyph-name="quotesinglbase" unicode="&#x201a;" horiz-adv-x="150" 
d="M86 88v-6l-38 -240h-22l38 246h22z" />
    <glyph glyph-name="quotedblbase" unicode="&#x201e;" horiz-adv-x="250" 
d="M186 88v-6l-38 -240h-22l38 246h22zM26 -158l38 246h22v-6l-38 -240h-22z" />
    <glyph glyph-name="quotedblleft" unicode="&#x201c;" horiz-adv-x="229" 
d="M143 475v9l38 256h22l-38 -265h-22zM53 475v9l38 256h22l-38 -265h-22z" />
    <glyph glyph-name="quotedblright" unicode="&#x201d;" horiz-adv-x="229" 
d="M176 736v-9l-38 -256h-22l38 265h22zM26 471l38 265h22v-9l-38 -256h-22z" />
    <glyph glyph-name="quoteleft" unicode="&#x2018;" horiz-adv-x="139" 
d="M53 475v9l38 256h22l-38 -265h-22z" />
    <glyph glyph-name="quoteright" unicode="&#x2019;" horiz-adv-x="139" 
d="M86 736v-9l-38 -256h-22l38 265h22z" />
    <glyph glyph-name="guillemotleft" unicode="&#xab;" horiz-adv-x="493" 
d="M387 451h30l-147 -196l147 -196h-30l-147 196zM90 255l147 196h30l-147 -196l147 -196h-30z" />
    <glyph glyph-name="guillemotright" unicode="&#xbb;" horiz-adv-x="493" 
d="M106 451l147 -196l-147 -196h-30l147 196l-147 196h30zM226 59l147 196l-147 196h30l147 -196l-147 -196h-30z" />
    <glyph glyph-name="guilsinglleft" unicode="&#x2039;" horiz-adv-x="343" 
d="M237 451h30l-147 -196l147 -196h-30l-147 196z" />
    <glyph glyph-name="guilsinglright" unicode="&#x203a;" horiz-adv-x="343" 
d="M106 451l147 -196l-147 -196h-30l147 196l-147 196h30z" />
    <glyph glyph-name="quotedbl" unicode="&#x22;" horiz-adv-x="188" 
d="M60 736l-2 -265h-20l-2 265h24zM128 736h24l-2 -265h-20z" />
    <glyph glyph-name="quotesingle" unicode="'" horiz-adv-x="96" 
d="M60 736l-2 -265h-20l-2 265h24z" />
    <glyph glyph-name="guillemotleft.case" horiz-adv-x="493" 
d="M387 521h30l-147 -196l147 -196h-30l-147 196zM90 325l147 196h30l-147 -196l147 -196h-30z" />
    <glyph glyph-name="guillemotright.case" horiz-adv-x="493" 
d="M106 521l147 -196l-147 -196h-30l147 196l-147 196h30zM226 129l147 196l-147 196h30l147 -196l-147 -196h-30z" />
    <glyph glyph-name="guilsinglleft.case" horiz-adv-x="343" 
d="M237 521h30l-147 -196l147 -196h-30l-147 196z" />
    <glyph glyph-name="guilsinglright.case" horiz-adv-x="343" 
d="M106 521l147 -196l-147 -196h-30l147 196l-147 196h30z" />
    <glyph glyph-name="at" unicode="@" horiz-adv-x="1013" 
d="M674 53v105c-21 -69 -86 -121 -174 -121c-115 0 -190 62 -190 243c0 150 61 243 190 243c95 0 154 -60 174 -125v109h22v-432h22c100 0 212 44 212 245c0 281 -177 402 -397 402c-279 0 -433 -192 -433 -442c0 -273 112 -442 396 -442c112 0 190 15 295 76v-26
c-109 -60 -189 -72 -295 -72c-289 0 -419 169 -419 464c0 263 161 464 456 464c238 0 420 -137 420 -424c0 -217 -127 -267 -237 -267h-42zM333 280c0 -165 66 -221 167 -221c65 0 171 36 171 196v50c0 117 -64 196 -171 196c-110 0 -167 -80 -167 -221z" />
    <glyph glyph-name="ampersand" unicode="&#x26;" horiz-adv-x="701" 
d="M152 600c0 88 67 144 157 144c95 0 147 -67 147 -138c0 -72 -51 -125 -164 -193l257 -265c36 56 58 129 59 222h22c-2 -104 -26 -181 -65 -238l128 -132h-34l-109 112c-65 -79 -149 -126 -262 -126c-124 0 -223 66 -223 192c0 117 87 184 189 240
c-55 57 -102 110 -102 182zM89 178c0 -113 93 -169 201 -169c91 0 183 37 245 119l-264 273c-95 -50 -182 -108 -182 -223zM176 600c0 -63 31 -100 100 -171c129 78 156 119 156 177c0 61 -43 115 -123 115c-76 0 -133 -47 -133 -121z" />
    <glyph glyph-name="paragraph" unicode="&#xb6;" horiz-adv-x="608" 
d="M520 730v-840h-24v817h-186v-817h-24v470h-23c-18 0 -39 0 -56 1c-102 6 -157 89 -157 184s55 178 157 184c17 1 38 1 56 1h257z" />
    <glyph glyph-name="section" unicode="&#xa7;" horiz-adv-x="570" 
d="M282 744c129 0 188 -47 200 -155h-22c-9 105 -82 133 -179 133c-111 0 -168 -64 -168 -127c0 -106 101 -145 198 -167c110 -24 188 -76 188 -177c0 -88 -60 -136 -132 -149c62 -28 113 -74 113 -157c0 -70 -59 -149 -192 -149c-129 0 -188 47 -200 155h22
c9 -105 82 -133 179 -133c111 0 168 64 168 127c0 106 -101 145 -198 167c-110 25 -188 76 -188 177c0 88 60 136 132 149c-62 28 -113 74 -113 157c0 70 57 149 192 149zM94 289c0 -83 62 -127 176 -155c18 -4 36 -9 54 -15c73 2 152 40 152 132c0 83 -62 127 -176 155
c-18 4 -36 9 -54 15c-73 -2 -152 -40 -152 -132z" />
    <glyph glyph-name="copyright" unicode="&#xa9;" horiz-adv-x="870" 
d="M429 575c104 0 161 -43 173 -128h-22c-14 65 -50 106 -151 106c-108 0 -162 -80 -162 -186c0 -111 54 -187 162 -187c81 0 133 35 154 106h22c-25 -85 -86 -127 -176 -127c-114 0 -185 79 -185 207c0 130 76 209 185 209zM56 365c0 221 147 379 379 379
s379 -158 379 -379s-147 -379 -379 -379s-379 158 -379 379zM79 365c0 -210 138 -357 356 -357s356 147 356 357s-138 357 -356 357s-356 -147 -356 -357z" />
    <glyph glyph-name="registered" unicode="&#xae;" horiz-adv-x="514" 
d="M257 764c123 0 210 -81 210 -209s-87 -211 -210 -211s-210 83 -210 211s87 209 210 209zM69 555c0 -115 74 -189 188 -189s188 74 188 189c0 116 -74 187 -188 187s-188 -71 -188 -187zM184 448v222h72c46 0 85 -18 85 -65c0 -32 -21 -51 -52 -58c22 -4 34 -17 39 -45
c4 -19 9 -34 13 -45l6 -9h-26c-5 12 -9 26 -15 51c-6 27 -17 37 -56 37h-44v-88h-22zM206 557h45c38 0 67 10 67 47c0 27 -19 45 -62 45h-50v-92z" />
    <glyph glyph-name="trademark" unicode="&#x2122;" horiz-adv-x="717" 
d="M673 730v-352h-22v301l-58 -142l-63 -157h-20l-63 157l-59 147l1 -306h-22v352h27c42 -107 85 -213 127 -320c42 107 84 213 127 320h25zM24 709v21h310v-21h-144v-331h-22v331h-144z" />
    <glyph glyph-name="degree" unicode="&#xb0;" horiz-adv-x="316" 
d="M158 744c66 0 120 -54 120 -120s-54 -120 -120 -120s-120 54 -120 120s54 120 120 120zM60 624c0 -54 44 -99 98 -99s98 45 98 99s-44 99 -98 99s-98 -45 -98 -99z" />
    <glyph glyph-name="bar" unicode="|" horiz-adv-x="250" 
d="M136 800v-1000h-22v1000h22z" />
    <glyph glyph-name="brokenbar" unicode="&#xa6;" horiz-adv-x="250" 
d="M136 800v-415h-22v415h22zM114 -200v415h22v-415h-22z" />
    <glyph glyph-name="dagger" unicode="&#x2020;" horiz-adv-x="550" 
d="M288 730l-1 -265l187 1v-23l-187 1l1 -604h-24l-1 604l-187 -1v23l187 -1l-1 265h26z" />
    <glyph glyph-name="daggerdbl" unicode="&#x2021;" horiz-adv-x="550" 
d="M288 730l-1 -265l187 1v-23l-187 1v-320l187 1v-23l-187 1l1 -263h-24l-1 263l-187 -1v23l187 -1v320l-187 -1v23l187 -1l-1 265h26z" />
    <glyph glyph-name="cent" unicode="&#xa2;" horiz-adv-x="570" 
d="M302 720v-96c116 0 188 -65 193 -164h-22c-7 84 -63 142 -171 143v-496c91 3 158 58 171 143h22c-14 -93 -87 -160 -193 -164v-96h-22v96c-138 6 -205 110 -205 269c0 172 73 260 205 268v97h22zM98 355c0 -160 66 -241 182 -248v495c-108 -7 -182 -76 -182 -247z" />
    <glyph glyph-name="currency" unicode="&#xa4;" horiz-adv-x="582" 
d="M291 121c-46 0 -88 17 -119 45l-69 -69l-17 17l69 69c-28 31 -44 73 -44 118s16 87 44 118l-69 69l17 17l69 -69c31 28 73 45 119 45s88 -17 119 -45l69 69l17 -17l-69 -69c28 -31 44 -73 44 -118s-17 -86 -44 -118l69 -69l-17 -17l-69 69c-32 -28 -73 -45 -119 -45z
M134 301c0 -87 70 -158 157 -158s157 71 157 158s-70 158 -157 158s-157 -71 -157 -158z" />
    <glyph glyph-name="dollar" unicode="$" horiz-adv-x="570" 
d="M274 790h22v-76c121 -3 203 -73 207 -195h-24c-8 118 -88 169 -183 172v-307c149 -26 224 -81 224 -190c0 -112 -96 -174 -224 -177v-76h-22v76c-129 4 -213 65 -226 196h24c12 -109 81 -169 202 -173v322c-135 23 -203 74 -203 176c0 101 79 171 203 176v76zM95 538
c0 -93 63 -132 179 -153v306c-106 -4 -179 -61 -179 -153zM296 40c107 2 200 50 200 152c0 98 -65 144 -200 168v-320z" />
    <glyph glyph-name="Euro" unicode="&#x20ac;" horiz-adv-x="570" 
d="M373 744c72 0 120 -18 164 -59l-16 -17c-44 38 -86 53 -150 53c-141 0 -247 -90 -267 -289h378l-9 -23h-371c-1 -14 -1 -29 -1 -45c0 -14 0 -28 1 -42h341l-9 -23h-331c14 -192 93 -290 271 -290c54 0 103 11 150 38v-24c-52 -28 -105 -37 -155 -37
c-188 0 -275 110 -290 313h-72l9 23h62c-1 14 -1 28 -1 42c0 15 0 30 1 45h-47l9 23h40c18 201 121 312 293 312z" />
    <glyph glyph-name="sterling" unicode="&#xa3;" horiz-adv-x="570" 
d="M305 744c138 0 199 -63 208 -196h-23c-8 131 -71 173 -187 173c-117 0 -170 -72 -170 -146c0 -59 12 -104 49 -232h226v-23h-220c13 -51 21 -85 21 -125c0 -72 -36 -140 -99 -172h414v-23h-469v26c67 15 129 65 129 169c0 34 -7 80 -20 125h-100v23h94
c-38 125 -50 167 -50 231c0 86 60 170 197 170z" />
    <glyph glyph-name="yen" unicode="&#xa5;" horiz-adv-x="570" 
d="M548 730l-240 -388h193v-23h-203v-86h203v-23h-203v-210h-24v210h-203v23h203v86h-203v23h192l-241 388h31l233 -382l233 382h29z" />
    <glyph glyph-name="plus" unicode="+" horiz-adv-x="530" 
d="M276 528v-200h189v-21h-189v-200h-22v200h-189v21h189v200h22z" />
    <glyph glyph-name="minus" unicode="&#x2212;" horiz-adv-x="530" 
d="M465 328v-21h-400v21h400z" />
    <glyph glyph-name="multiply" unicode="&#xd7;" horiz-adv-x="530" 
d="M416 479l-151 -151l-151 151l-15 -15l151 -151l-151 -151l15 -15l151 151l151 -151l15 15l-166 166l-15 -15l15 -15l166 166z" />
    <glyph glyph-name="divide" unicode="&#xf7;" horiz-adv-x="530" 
d="M465 328v-21h-400v21h400zM245 143c0 11 9 20 20 20s20 -9 20 -20s-9 -20 -20 -20s-20 9 -20 20zM245 492c0 11 9 20 20 20s20 -9 20 -20s-9 -20 -20 -20s-20 9 -20 20z" />
    <glyph glyph-name="equal" unicode="=" horiz-adv-x="570" 
d="M495 418v-21h-420v21h420zM75 217v21h420v-21h-420z" />
    <glyph glyph-name="notequal" unicode="&#x2260;" horiz-adv-x="570" 
d="M402 533l-67 -115h160v-21h-172l-93 -159h265v-21h-277l-67 -114h-24l67 114h-119v21h131l93 159h-224v21h236l67 115h24z" />
    <glyph glyph-name="greater" unicode="&#x3e;" horiz-adv-x="570" 
d="M78 60v23l374 181l-374 181v25l401 -195v-20z" />
    <glyph glyph-name="less" unicode="&#x3c;" horiz-adv-x="570" 
d="M492 470v-23l-374 -181l374 -181v-25l-401 195v20z" />
    <glyph glyph-name="greaterequal" unicode="&#x2265;" horiz-adv-x="570" 
d="M78 90v24l372 161l-372 161v24l400 -175v-20zM78 0v21h400v-21h-400z" />
    <glyph glyph-name="lessequal" unicode="&#x2264;" horiz-adv-x="570" 
d="M492 460v-24l-372 -161l372 -161v-24l-400 175v20zM92 0v21h400v-21h-400z" />
    <glyph glyph-name="plusminus" unicode="&#xb1;" horiz-adv-x="570" 
d="M296 538v-210h189v-21h-189v-210h-22v210h-189v21h189v210h22zM85 0v21h400v-21h-400z" />
    <glyph glyph-name="approxequal" unicode="&#x2248;" horiz-adv-x="570" 
d="M193 404c22 0 37 -4 102 -45c58 -36 78 -43 88 -43c19 0 33 11 55 57l20 -7c-22 -51 -40 -72 -71 -72c-22 0 -43 8 -102 45c-63 39 -78 43 -88 43c-19 0 -42 -11 -65 -57l-20 10c22 51 50 69 81 69zM112 195c22 51 50 69 81 69c22 0 37 -4 102 -45c58 -36 78 -43 88 -43
c19 0 33 11 55 57l20 -7c-22 -51 -40 -72 -71 -72c-22 0 -43 8 -102 45c-63 39 -78 43 -88 43c-19 0 -42 -11 -65 -57z" />
    <glyph glyph-name="asciitilde" unicode="~" horiz-adv-x="530" 
d="M173 364c22 0 37 -4 102 -45c58 -36 78 -43 88 -43c19 0 33 11 55 57l20 -7c-22 -51 -40 -72 -71 -72c-22 0 -43 8 -102 45c-63 39 -78 43 -88 43c-19 0 -42 -11 -65 -57l-20 10c22 51 50 69 81 69z" />
    <glyph glyph-name="logicalnot" unicode="&#xac;" horiz-adv-x="530" 
d="M437 365v-155h-22v134h-329v21h351z" />
    <glyph glyph-name="asciicircum" unicode="^" horiz-adv-x="530" 
d="M281 740l170 -341h-25l-159 321l-161 -321h-24l172 341h27z" />
    <glyph glyph-name="emptyset" unicode="&#x2205;" horiz-adv-x="838" 
d="M419 725c97 0 187 -38 253 -102l83 83l15 -15l-84 -84c60 -65 97 -153 97 -252c0 -211 -166 -370 -364 -370c-97 0 -187 38 -253 102l-83 -83l-15 15l84 84c-60 65 -97 153 -97 252c0 211 166 370 364 370zM79 355c0 -93 34 -175 89 -236l487 487c-61 61 -145 97 -236 97
c-185 0 -340 -149 -340 -348zM183 104c61 -61 145 -97 236 -97c185 0 340 149 340 348c0 93 -34 175 -89 236z" />
    <glyph glyph-name="infinity" unicode="&#x221e;" horiz-adv-x="973" 
d="M55 316c0 119 86 200 192 200c101 0 162 -55 239 -176c67 113 144 176 240 176c106 0 192 -80 192 -198c0 -119 -86 -200 -192 -200c-101 0 -162 55 -239 176c-67 -113 -144 -176 -240 -176c-106 0 -192 80 -192 198zM79 316c0 -121 92 -176 168 -176
c86 0 167 66 224 176c-71 133 -143 178 -224 178c-76 0 -168 -56 -168 -178zM502 318c71 -133 143 -178 224 -178c76 0 168 56 168 178c0 121 -92 176 -168 176c-86 0 -167 -66 -224 -176z" />
    <glyph glyph-name="integral" unicode="&#x222b;" horiz-adv-x="545" 
d="M444 744c26 0 52 -6 71 -14v-22c-34 11 -53 14 -72 14c-78 0 -86 -39 -105 -141l-109 -586c-24 -128 -56 -169 -138 -169c-22 0 -45 4 -61 14v22c15 -9 46 -15 62 -15c69 0 93 36 115 156l108 586c22 119 48 155 129 155z" />
    <glyph glyph-name="product" unicode="&#x220f;" horiz-adv-x="704" 
d="M664 730v-23h-105v-817h-24v817h-366v-817h-24v817h-105v23h624z" />
    <glyph glyph-name="summation" unicode="&#x2211;" horiz-adv-x="640" 
d="M591 730v-23h-504l317 -397l-335 -397h538v-23h-569v21l336 400l-316 398v21h533z" />
    <glyph glyph-name="radical" unicode="&#x221a;" horiz-adv-x="530" 
d="M554 870l-281 -1030h-33l-142 447h-66v23h82l142 -452l275 1012h23z" />
    <glyph glyph-name="partialdiff" unicode="&#x2202;" horiz-adv-x="543" 
d="M283 744c170 0 225 -127 225 -320c0 -293 -90 -438 -255 -438c-124 0 -203 97 -203 242c0 207 101 296 239 296c86 0 179 -50 196 -123c3 166 -28 321 -204 321c-55 0 -97 -14 -144 -49l-13 17c51 40 100 54 159 54zM73 228c0 -137 75 -220 180 -220
c134 0 221 108 231 357c-31 96 -118 137 -195 137c-125 0 -216 -79 -216 -274z" />
    <glyph glyph-name="percent" unicode="%" horiz-adv-x="699" 
d="M574 730l-447 -730h-26l447 730h26zM71 585c0 100 46 159 128 159s128 -59 128 -159c0 -98 -46 -159 -128 -159s-128 61 -128 159zM94 585c0 -90 37 -138 105 -138s105 48 105 138c0 91 -37 138 -105 138s-105 -47 -105 -138zM372 145c0 100 46 159 128 159
s128 -59 128 -159c0 -98 -46 -159 -128 -159s-128 61 -128 159zM395 145c0 -90 37 -138 105 -138s105 48 105 138c0 91 -37 138 -105 138s-105 -47 -105 -138z" />
    <glyph glyph-name="perthousand" unicode="&#x2030;" horiz-adv-x="995" 
d="M796 304c82 0 128 -59 128 -159c0 -98 -46 -159 -128 -159s-128 61 -128 159c0 100 46 159 128 159zM71 585c0 100 46 159 128 159s128 -59 128 -159c0 -98 -46 -159 -128 -159s-128 61 -128 159zM94 585c0 -90 37 -138 105 -138s105 48 105 138c0 91 -37 138 -105 138
s-105 -47 -105 -138zM101 0l447 730h26l-447 -730h-26zM372 145c0 100 46 159 128 159s128 -59 128 -159c0 -98 -46 -159 -128 -159s-128 61 -128 159zM395 145c0 -90 37 -138 105 -138s105 48 105 138c0 91 -37 138 -105 138s-105 -47 -105 -138zM691 145
c0 -90 37 -138 105 -138s105 48 105 138c0 91 -37 138 -105 138s-105 -47 -105 -138z" />
    <glyph glyph-name="lozenge" unicode="&#x25ca;" horiz-adv-x="508" 
d="M265 730l187 -365l-187 -365h-22l-187 365l187 365h22zM80 365l174 -342l174 342l-174 341z" />
    <glyph glyph-name="uni0326" unicode="&#x326;" horiz-adv-x="0" 
d="M223 -61v-5l-152 -124h-29l153 129h28z" />
    <glyph glyph-name="dieresis" unicode="&#xa8;" horiz-adv-x="400" 
d="M147 625c-14 0 -25 11 -25 25s11 25 25 25s25 -11 25 -25s-11 -25 -25 -25zM228 650c0 14 11 25 25 25s25 -11 25 -25s-11 -25 -25 -25s-25 11 -25 25z" />
    <glyph glyph-name="dotaccent" unicode="&#x2d9;" horiz-adv-x="300" 
d="M150 625c-14 0 -25 11 -25 25s11 25 25 25s25 -11 25 -25s-11 -25 -25 -25z" />
    <glyph glyph-name="grave" unicode="`" horiz-adv-x="400" 
d="M95 748v2h34l169 -148v-2h-28z" />
    <glyph glyph-name="acute" unicode="&#xb4;" horiz-adv-x="400" 
d="M308 748l-175 -148h-28v2l169 148h34v-2z" />
    <glyph glyph-name="hungarumlaut" unicode="&#x2dd;" horiz-adv-x="400" 
d="M229 748l-175 -148h-28v2l169 148h34v-2zM184 600v2l169 148h34v-2l-175 -148h-28z" />
    <glyph glyph-name="circumflex" unicode="&#x2c6;" horiz-adv-x="400" 
d="M211 750l116 -150h-28l-100 129l-99 -129h-27l115 150h23z" />
    <glyph glyph-name="caron" unicode="&#x2c7;" horiz-adv-x="400" 
d="M189 600l-116 150h28l100 -129l99 129h27l-115 -150h-23z" />
    <glyph glyph-name="breve" unicode="&#x2d8;" horiz-adv-x="400" 
d="M200 586c-104 0 -123 77 -121 164h21c-1 -76 13 -143 100 -143s101 67 100 143h21c2 -87 -17 -164 -121 -164z" />
    <glyph glyph-name="ring" unicode="&#x2da;" horiz-adv-x="400" 
d="M135 675c0 -35 27 -54 65 -54s65 19 65 54s-27 54 -65 54s-65 -19 -65 -54zM112 675c0 48 41 75 88 75s88 -27 88 -75s-41 -75 -88 -75s-88 27 -88 75z" />
    <glyph glyph-name="tilde" unicode="&#x2dc;" horiz-adv-x="400" 
d="M137 689c16 0 29 -5 68 -24c29 -14 49 -22 58 -22c16 0 23 9 25 41h21c-2 -42 -15 -62 -46 -62c-16 0 -36 7 -68 24c-36 19 -49 22 -58 22c-16 0 -23 -9 -25 -41h-21c2 42 15 62 46 62z" />
    <glyph glyph-name="macron" unicode="&#xaf;" horiz-adv-x="400" 
d="M315 666v-22h-230v22h230z" />
    <glyph glyph-name="cedilla" unicode="&#xb8;" horiz-adv-x="400" 
d="M212 0l-34 -48c65 -4 104 -27 104 -77c0 -56 -54 -79 -111 -79c-12 0 -29 2 -43 6v22c15 -5 31 -7 43 -7c56 0 88 23 88 58c0 39 -36 59 -108 56v14l37 55h24z" />
    <glyph glyph-name="ogonek" unicode="&#x2db;" horiz-adv-x="400" 
d="M266 0c-49 -28 -96 -79 -96 -129c0 -41 25 -53 57 -53c16 0 31 4 46 11l-1 -23c-18 -7 -33 -10 -49 -10c-39 0 -76 17 -76 73c0 61 49 110 104 146z" />
    </font>
</defs>
</svg>
