<?xml version="1.0" standalone="no"?>
<!DOCTYPE svg PUBLIC "-//W3C//DTD SVG 1.1//EN" "http://www.w3.org/Graphics/SVG/1.1/DTD/svg11.dtd" >
<svg xmlns="http://www.w3.org/2000/svg" xmlns:xlink="http://www.w3.org/1999/xlink" version="1.1">
<metadata>
Created by FontForge 20220308 at Wed Dec 29 17:58:35 2021
 By Shift
Copyright \(C\) 2021 by Sora Sagano.
</metadata>
<defs>
<font id="Nacelle-Italic" horiz-adv-x="585" >
  <font-face 
    font-family="Nacelle"
    font-weight="400"
    font-style="italic"
    font-stretch="normal"
    units-per-em="1000"
    panose-1="0 0 0 0 0 0 0 0 0 0"
    ascent="770"
    descent="-230"
    x-height="521"
    cap-height="730"
    bbox="-170 -230 1170 976"
    underline-thickness="50"
    underline-position="-125"
    slope="-12"
    stemh="70"
    stemv="94"
    unicode-range="U+0020-FB02"
  />
<missing-glyph horiz-adv-x="500" 
d="M410 770v-1000h-317v1000h317zM167 -161h166v33h-102l70 47h32v33h-166v-33h70l-70 -47v-33zM167 -25h166v113h-166v-113zM167 148h166v113h-100v-56h34v23h33v-47h-100v80h-33v-113zM167 283h166v100h-33v-66h-133v-34zM167 340h100v70h66v33h-166v-33h66v-37h-66v-33z
M167 470h166v34h-66v70h-100v-104zM167 600h166v33h-66v37h66v33h-165v-33h65v-37h-66v-33zM200 8v47h100v-47h-100zM200 504v36h33v-36h-33z" />
    <glyph glyph-name="fi" unicode="fi" horiz-adv-x="519" 
d="M334 744c23 0 41 -1 61 -5l-17 -75c-93 14 -124 -19 -139 -90l-12 -56h111l-16 -78h-111l-94 -440h-94l94 440h-60l16 78h61l12 56c19 91 53 170 188 170zM312 0l111 521h93l-110 -521h-94zM443 675c0 32 25 57 56 57c32 0 57 -25 57 -57c0 -31 -25 -56 -57 -56
c-31 0 -56 25 -56 56z" />
    <glyph glyph-name="fl" unicode="fl" horiz-adv-x="555" 
d="M334 744c23 0 41 -1 61 -5l-17 -75c-93 14 -124 -19 -139 -90l-12 -56h111l-16 -78h-111l-94 -440h-94l94 440h-60l16 78h61l12 56c19 91 53 170 188 170zM333 49c0 21 7 56 17 106l119 575h93l-122 -595c-14 -70 -7 -75 52 -70l-14 -68c-17 -2 -42 -4 -60 -4
c-61 0 -85 17 -85 56z" />
    <glyph glyph-name=".notdef" horiz-adv-x="500" 
d="M410 770v-1000h-317v1000h317zM167 -161h166v33h-102l70 47h32v33h-166v-33h70l-70 -47v-33zM167 -25h166v113h-166v-113zM167 148h166v113h-100v-56h34v23h33v-47h-100v80h-33v-113zM167 283h166v100h-33v-66h-133v-34zM167 340h100v70h66v33h-166v-33h66v-37h-66v-33z
M167 470h166v34h-66v70h-100v-104zM167 600h166v33h-66v37h66v33h-165v-33h65v-37h-66v-33zM200 8v47h100v-47h-100zM200 504v36h33v-36h-33z" />
    <glyph glyph-name="space" unicode=" " horiz-adv-x="209" 
 />
    <glyph glyph-name="space" unicode="&#xa0;" horiz-adv-x="209" 
 />
    <glyph glyph-name="A" unicode="A" horiz-adv-x="693" 
d="M506 730l116 -730h-96l-34 220h-300l-128 -220h-104l431 730h115zM241 306h238l-47 332z" />
    <glyph glyph-name="Aacute" unicode="&#xc1;" horiz-adv-x="693" 
d="M506 730l116 -730h-96l-34 220h-300l-128 -220h-104l431 730h115zM241 306h238l-47 332zM318 785v4l205 148l122 1l-1 -4l-227 -149h-99z" />
    <glyph glyph-name="Abreve" unicode="&#x102;" horiz-adv-x="693" 
d="M506 730l116 -730h-96l-34 220h-300l-128 -220h-104l431 730h115zM241 306h238l-47 332zM343 941h67c-15 -59 -4 -97 62 -97s95 43 104 97h67c-15 -90 -63 -159 -183 -159c-118 0 -140 69 -117 159z" />
    <glyph glyph-name="Acircumflex" unicode="&#xc2;" horiz-adv-x="693" 
d="M506 730l116 -730h-96l-34 220h-300l-128 -220h-104l431 730h115zM241 306h238l-47 332zM287 785l166 153h78l102 -153h-86l-66 101l-107 -101h-87z" />
    <glyph glyph-name="Adieresis" unicode="&#xc4;" horiz-adv-x="693" 
d="M506 730l116 -730h-96l-34 220h-300l-128 -220h-104l431 730h115zM241 306h238l-47 332zM338 867c0 30 23 53 52 53c30 0 53 -23 53 -53c0 -29 -23 -52 -53 -52c-29 0 -52 23 -52 52zM509 867c0 30 23 53 52 53s53 -23 53 -53c0 -29 -24 -52 -53 -52s-52 23 -52 52z" />
    <glyph glyph-name="Agrave" unicode="&#xc0;" horiz-adv-x="693" 
d="M506 730l116 -730h-96l-34 220h-300l-128 -220h-104l431 730h115zM241 306h238l-47 332zM343 934v4l120 -1l141 -148v-4h-97z" />
    <glyph glyph-name="Amacron" unicode="&#x100;" horiz-adv-x="693" 
d="M506 730l116 -730h-96l-34 220h-300l-128 -220h-104l431 730h115zM241 306h238l-47 332zM340 832l13 59h258l-13 -59h-258z" />
    <glyph glyph-name="Aogonek" unicode="&#x104;" horiz-adv-x="693" 
d="M506 730l116 -730c-62 -10 -114 -56 -114 -104c0 -32 22 -43 52 -43c17 0 34 4 50 11l-7 -51c-26 -11 -52 -17 -82 -17c-53 0 -95 19 -95 78c0 63 45 119 96 149l-30 197h-300l-128 -220h-104l431 730h115zM241 306h238l-47 332z" />
    <glyph glyph-name="Aring" unicode="&#xc5;" horiz-adv-x="693" 
d="M506 730l116 -730h-96l-34 220h-300l-128 -220h-104l431 730h115zM241 306h238l-47 332zM355 858c0 67 65 109 136 109c60 0 103 -31 103 -80c0 -68 -65 -108 -135 -108c-62 0 -104 31 -104 79zM419 862c0 -23 17 -39 46 -39c40 0 65 30 65 59c0 24 -17 40 -46 40
c-40 0 -65 -30 -65 -60z" />
    <glyph glyph-name="Atilde" unicode="&#xc3;" horiz-adv-x="693" 
d="M506 730l116 -730h-96l-34 220h-300l-128 -220h-104l431 730h115zM241 306h238l-47 332zM298 832c45 70 66 88 107 88c21 0 44 -7 78 -24c33 -17 51 -22 64 -22c21 0 30 9 56 46l51 -21c-44 -71 -66 -90 -108 -90c-20 0 -43 8 -77 25c-31 16 -50 21 -65 21
c-20 0 -28 -7 -54 -43z" />
    <glyph glyph-name="AE" unicode="&#xc6;" horiz-adv-x="1016" 
d="M1060 730l-18 -86h-421l-10 -233h362l-19 -86h-346l-10 -239h336l-19 -86h-415l9 231h-268l-159 -231h-103l511 730h570zM300 317h212l13 325z" />
    <glyph glyph-name="B" unicode="B" horiz-adv-x="647" 
d="M398 730c115 0 232 -34 232 -168c0 -87 -65 -162 -162 -190c83 -20 123 -73 123 -148c0 -161 -140 -224 -310 -224h-264l154 730h227zM128 86h162c114 0 205 37 205 134c0 77 -61 105 -167 105h-149zM197 411h147c111 0 187 50 187 132c0 72 -61 101 -146 101h-139z" />
    <glyph glyph-name="C" unicode="C" horiz-adv-x="738" 
d="M481 744c194 0 270 -102 264 -232h-98c2 86 -56 144 -171 144c-183 0 -316 -169 -316 -387c0 -131 75 -195 193 -195c116 0 196 59 234 144h97c-52 -144 -168 -232 -337 -232c-186 0 -286 94 -286 275c0 273 167 483 420 483z" />
    <glyph glyph-name="Cacute" unicode="&#x106;" horiz-adv-x="738" 
d="M481 744c194 0 270 -102 264 -232h-98c2 86 -56 144 -171 144c-183 0 -316 -169 -316 -387c0 -131 75 -195 193 -195c116 0 196 59 234 144h97c-52 -144 -168 -232 -337 -232c-186 0 -286 94 -286 275c0 273 167 483 420 483zM357 785v4l205 148l122 1l-1 -4l-227 -149
h-99z" />
    <glyph glyph-name="Ccaron" unicode="&#x10c;" horiz-adv-x="738" 
d="M481 744c194 0 270 -102 264 -232h-98c2 86 -56 144 -171 144c-183 0 -316 -169 -316 -387c0 -131 75 -195 193 -195c116 0 196 59 234 144h97c-52 -144 -168 -232 -337 -232c-186 0 -286 94 -286 275c0 273 167 483 420 483zM362 938h79l66 -104l108 104h85l-165 -153
h-72z" />
    <glyph glyph-name="Ccedilla" unicode="&#xc7;" horiz-adv-x="738" 
d="M481 744c194 0 270 -102 264 -232h-98c2 86 -56 144 -171 144c-183 0 -316 -169 -316 -387c0 -131 75 -195 193 -195c116 0 196 59 234 144h97c-50 -139 -161 -226 -321 -232l-16 -22c56 -8 87 -31 87 -76c0 -59 -61 -92 -137 -92c-21 0 -40 1 -59 6l1 47
c17 -5 31 -6 42 -6c47 0 74 14 74 40c0 27 -29 42 -85 39l1 22l31 44c-157 14 -241 107 -241 273c0 273 167 483 420 483z" />
    <glyph glyph-name="Cdotaccent" unicode="&#x10a;" horiz-adv-x="738" 
d="M481 744c194 0 270 -102 264 -232h-98c2 86 -56 144 -171 144c-183 0 -316 -169 -316 -387c0 -131 75 -195 193 -195c116 0 196 59 234 144h97c-52 -144 -168 -232 -337 -232c-186 0 -286 94 -286 275c0 273 167 483 420 483zM458 867c0 34 28 62 61 62
c31 0 55 -24 55 -54c0 -33 -29 -62 -62 -62c-31 0 -54 24 -54 54z" />
    <glyph glyph-name="D" unicode="D" horiz-adv-x="732" 
d="M419 730c164 0 296 -74 296 -266c0 -269 -159 -464 -438 -464h-260l154 730h248zM132 86h149c215 0 335 155 335 364c0 127 -78 194 -209 194h-158z" />
    <glyph glyph-name="Eth" unicode="&#xd0;" horiz-adv-x="755" 
d="M400 397l-13 -60h-179l-53 -251h149c215 0 335 155 335 364c0 127 -78 194 -209 194h-158l-52 -247h180zM26 337l13 60h85l70 333h248c164 0 296 -74 296 -266c0 -269 -159 -464 -438 -464h-260l71 337h-85z" />
    <glyph glyph-name="Dcaron" unicode="&#x10e;" horiz-adv-x="732" 
d="M419 730c164 0 296 -74 296 -266c0 -269 -159 -464 -438 -464h-260l154 730h248zM132 86h149c215 0 335 155 335 364c0 127 -78 194 -209 194h-158zM328 925h79l66 -104l108 104h85l-165 -153h-72z" />
    <glyph glyph-name="Dcroat" unicode="&#x110;" horiz-adv-x="755" 
d="M400 397l-13 -60h-179l-53 -251h149c215 0 335 155 335 364c0 127 -78 194 -209 194h-158l-52 -247h180zM26 337l13 60h85l70 333h248c164 0 296 -74 296 -266c0 -269 -159 -464 -438 -464h-260l71 337h-85z" />
    <glyph glyph-name="E" unicode="E" horiz-adv-x="610" 
d="M656 730l-19 -85h-387l-49 -234h366l-19 -86h-364l-49 -239h393l-18 -86h-489l150 730h485z" />
    <glyph glyph-name="Eacute" unicode="&#xc9;" horiz-adv-x="610" 
d="M656 730l-19 -85h-387l-49 -234h366l-19 -86h-364l-49 -239h393l-18 -86h-489l150 730h485zM300 785v4l205 148l122 1l-1 -4l-227 -149h-99z" />
    <glyph glyph-name="Ecaron" unicode="&#x11a;" horiz-adv-x="610" 
d="M656 730l-19 -85h-387l-49 -234h366l-19 -86h-364l-49 -239h393l-18 -86h-489l150 730h485zM305 938h79l66 -104l108 104h85l-165 -153h-72z" />
    <glyph glyph-name="Ecircumflex" unicode="&#xca;" horiz-adv-x="610" 
d="M656 730l-19 -85h-387l-49 -234h366l-19 -86h-364l-49 -239h393l-18 -86h-489l150 730h485zM268 785l166 153h78l102 -153h-86l-66 101l-107 -101h-87z" />
    <glyph glyph-name="Edieresis" unicode="&#xcb;" horiz-adv-x="610" 
d="M656 730l-19 -85h-387l-49 -234h366l-19 -86h-364l-49 -239h393l-18 -86h-489l150 730h485zM320 867c0 30 23 53 52 53c30 0 53 -23 53 -53c0 -29 -23 -52 -53 -52c-29 0 -52 23 -52 52zM491 867c0 30 23 53 52 53s53 -23 53 -53c0 -29 -24 -52 -53 -52s-52 23 -52 52z
" />
    <glyph glyph-name="Edotaccent" unicode="&#x116;" horiz-adv-x="610" 
d="M656 730l-19 -85h-387l-49 -234h366l-19 -86h-364l-49 -239h393l-18 -86h-489l150 730h485zM401 867c0 34 28 62 61 62c31 0 55 -24 55 -54c0 -33 -29 -62 -62 -62c-31 0 -54 24 -54 54z" />
    <glyph glyph-name="Egrave" unicode="&#xc8;" horiz-adv-x="610" 
d="M656 730l-19 -85h-387l-49 -234h366l-19 -86h-364l-49 -239h393l-18 -86h-489l150 730h485zM324 934v4l120 -1l141 -148v-4h-97z" />
    <glyph glyph-name="Emacron" unicode="&#x112;" horiz-adv-x="610" 
d="M656 730l-19 -85h-387l-49 -234h366l-19 -86h-364l-49 -239h393l-18 -86h-489l150 730h485zM321 832l13 59h258l-13 -59h-258z" />
    <glyph glyph-name="Eogonek" unicode="&#x118;" horiz-adv-x="610" 
d="M656 730l-19 -85h-387l-49 -234h366l-19 -86h-364l-49 -239h393l-18 -86c-62 -10 -114 -56 -114 -104c0 -32 22 -43 52 -43c17 0 34 4 50 11l-7 -51c-26 -11 -52 -17 -82 -17c-53 0 -95 19 -95 78c0 49 28 94 65 126h-358l150 730h485z" />
    <glyph glyph-name="F" unicode="F" horiz-adv-x="644" 
d="M657 730l-18 -86h-390l-51 -244h368l-19 -85h-367l-66 -315h-97l154 730h486z" />
    <glyph glyph-name="G" unicode="G" horiz-adv-x="775" 
d="M159 270c0 -138 75 -196 193 -196c94 0 228 51 261 215l5 20l-221 -1l19 83h318l-84 -391h-78l20 138c-38 -109 -131 -152 -265 -152c-165 0 -267 91 -267 274c0 274 165 484 418 484c205 0 283 -95 276 -229h-99c4 85 -51 141 -187 141c-183 0 -309 -169 -309 -386z" />
    <glyph glyph-name="Gbreve" unicode="&#x11e;" horiz-adv-x="775" 
d="M159 270c0 -138 75 -196 193 -196c94 0 228 51 261 215l5 20l-221 -1l19 83h318l-84 -391h-78l20 138c-38 -109 -131 -152 -265 -152c-165 0 -267 91 -267 274c0 274 165 484 418 484c205 0 283 -95 276 -229h-99c4 85 -51 141 -187 141c-183 0 -309 -169 -309 -386z
M389 941h67c-15 -59 -4 -97 62 -97s95 43 104 97h67c-15 -90 -63 -159 -183 -159c-118 0 -140 69 -117 159z" />
    <glyph glyph-name="uni0122" unicode="&#x122;" horiz-adv-x="775" 
d="M159 270c0 -138 75 -196 193 -196c94 0 228 51 261 215l5 20l-221 -1l19 83h318l-84 -391h-78l20 138c-38 -109 -131 -152 -265 -152c-165 0 -267 91 -267 274c0 274 165 484 418 484c205 0 283 -95 276 -229h-99c4 85 -51 141 -187 141c-183 0 -309 -169 -309 -386z
M150 -212l186 152h100l-2 -6l-199 -146h-85z" />
    <glyph glyph-name="Gdotaccent" unicode="&#x120;" horiz-adv-x="775" 
d="M159 270c0 -138 75 -196 193 -196c94 0 228 51 261 215l5 20l-221 -1l19 83h318l-84 -391h-78l20 138c-38 -109 -131 -152 -265 -152c-165 0 -267 91 -267 274c0 274 165 484 418 484c205 0 283 -95 276 -229h-99c4 85 -51 141 -187 141c-183 0 -309 -169 -309 -386z
M466 867c0 34 28 62 61 62c31 0 55 -24 55 -54c0 -33 -29 -62 -62 -62c-31 0 -54 24 -54 54z" />
    <glyph glyph-name="H" unicode="H" horiz-adv-x="722" 
d="M745 730l-150 -730h-97l67 325h-381l-67 -325h-96l150 730h96l-66 -319h381l66 319h97z" />
    <glyph glyph-name="Hbar" unicode="&#x126;" horiz-adv-x="743" 
d="M779 575l-13 -60h-57l-106 -515h-97l67 325h-381l-67 -325h-96l106 515h-51l13 60h50l32 155h96l-32 -155h381l32 155h97l-32 -155h58zM209 411h381l22 104h-381z" />
    <glyph glyph-name="I" unicode="I" horiz-adv-x="243" 
d="M267 730l-150 -730h-97l150 730h97z" />
    <glyph glyph-name="IJ" unicode="&#x132;" horiz-adv-x="825" 
d="M267 730l-150 -730h-97l150 730h97zM255 243h99c-15 -132 33 -169 122 -169c101 0 153 55 179 177l101 479h96l-100 -481c-35 -165 -100 -263 -285 -263c-163 0 -232 82 -212 257z" />
    <glyph glyph-name="Iacute" unicode="&#xcd;" horiz-adv-x="243" 
d="M267 730l-150 -730h-97l150 730h97zM89 785v4l205 148l122 1l-1 -4l-227 -149h-99z" />
    <glyph glyph-name="Icircumflex" unicode="&#xce;" horiz-adv-x="243" 
d="M267 730l-150 -730h-97l150 730h97zM58 785l166 153h78l102 -153h-86l-66 101l-107 -101h-87z" />
    <glyph glyph-name="Idieresis" unicode="&#xcf;" horiz-adv-x="243" 
d="M267 730l-150 -730h-97l150 730h97zM109 867c0 30 23 53 52 53c30 0 53 -23 53 -53c0 -29 -23 -52 -53 -52c-29 0 -52 23 -52 52zM280 867c0 30 23 53 52 53s53 -23 53 -53c0 -29 -24 -52 -53 -52s-52 23 -52 52z" />
    <glyph glyph-name="Idotaccent" unicode="&#x130;" horiz-adv-x="243" 
d="M267 730l-150 -730h-97l150 730h97zM190 867c0 34 28 62 61 62c31 0 55 -24 55 -54c0 -33 -29 -62 -62 -62c-31 0 -54 24 -54 54z" />
    <glyph glyph-name="Igrave" unicode="&#xcc;" horiz-adv-x="243" 
d="M267 730l-150 -730h-97l150 730h97zM114 934v4l120 -1l141 -148v-4h-97z" />
    <glyph glyph-name="Imacron" unicode="&#x12a;" horiz-adv-x="243" 
d="M267 730l-150 -730h-97l150 730h97zM111 832l13 59h258l-13 -59h-258z" />
    <glyph glyph-name="Iogonek" unicode="&#x12e;" horiz-adv-x="243" 
d="M267 730l-150 -730c-62 -10 -114 -56 -114 -104c0 -32 22 -43 52 -43c17 0 34 4 50 11l-7 -51c-26 -11 -52 -17 -82 -17c-53 0 -95 19 -95 78c0 66 50 125 105 153l144 703h97z" />
    <glyph glyph-name="J" unicode="J" horiz-adv-x="598" 
d="M525 249c-35 -165 -100 -263 -285 -263c-163 0 -232 82 -212 257h99c-15 -132 33 -169 122 -169c101 0 153 55 179 177l101 479h96z" />
    <glyph glyph-name="K" unicode="K" horiz-adv-x="670" 
d="M729 730l-326 -304l189 -426h-106l-165 364l-160 -146l-45 -218h-96l151 730h96l-80 -388l414 388h128z" />
    <glyph glyph-name="uni0136" unicode="&#x136;" horiz-adv-x="670" 
d="M729 730l-326 -304l189 -426h-106l-165 364l-160 -146l-45 -218h-96l151 730h96l-80 -388l414 388h128zM91 -212l186 152h100l-2 -6l-199 -146h-85z" />
    <glyph glyph-name="L" unicode="L" horiz-adv-x="578" 
d="M267 730l-132 -644h364l-18 -86h-460l150 730h96z" />
    <glyph glyph-name="Lacute" unicode="&#x139;" horiz-adv-x="578" 
d="M267 730l-132 -644h364l-18 -86h-460l150 730h96zM95 785v4l205 148l122 1l-1 -4l-227 -149h-99z" />
    <glyph glyph-name="Lcaron" unicode="&#x13d;" horiz-adv-x="586" 
d="M561 740l-6 -25l-134 -279h-76l127 304h89zM21 0l150 730h96l-132 -644h364l-18 -86h-460z" />
    <glyph glyph-name="uni013B" unicode="&#x13b;" horiz-adv-x="578" 
d="M267 730l-132 -644h364l-18 -86h-460l150 730h96zM77 -212l186 152h100l-2 -6l-199 -146h-85z" />
    <glyph glyph-name="Ldot" unicode="&#x13f;" horiz-adv-x="578" 
d="M469 389c-30 0 -54 24 -54 53c0 30 24 54 54 54c29 0 53 -24 53 -54c0 -29 -24 -53 -53 -53zM21 0l150 730h96l-132 -644h364l-18 -86h-460z" />
    <glyph glyph-name="Lslash" unicode="&#x141;" horiz-adv-x="613" 
d="M435 516l-18 -83l-198 -106l-49 -241h364l-18 -86h-460l56 272l-105 -54l19 83l103 54l77 375h96l-66 -320z" />
    <glyph glyph-name="M" unicode="M" horiz-adv-x="863" 
d="M886 730l-150 -730h-96l79 395c19 96 31 153 44 209c-36 -69 -77 -143 -115 -209l-225 -395h-89l-61 395c-14 89 -24 153 -30 225c-12 -62 -29 -144 -45 -225l-81 -395h-96l150 730h143c32 -240 57 -414 88 -614c76 141 224 404 339 614h145z" />
    <glyph glyph-name="N" unicode="N" horiz-adv-x="703" 
d="M730 730l-153 -730h-109l-157 401c-27 72 -52 148 -76 225c-14 -90 -34 -189 -51 -271l-73 -355h-94l153 730h108l152 -386c30 -78 58 -156 83 -234c14 86 35 192 52 272l72 348h93z" />
    <glyph glyph-name="Nacute" unicode="&#x143;" horiz-adv-x="703" 
d="M730 730l-153 -730h-109l-157 401c-27 72 -52 148 -76 225c-14 -90 -34 -189 -51 -271l-73 -355h-94l153 730h108l152 -386c30 -78 58 -156 83 -234c14 86 35 192 52 272l72 348h93zM324 785v4l205 148l122 1l-1 -4l-227 -149h-99z" />
    <glyph glyph-name="Ncaron" unicode="&#x147;" horiz-adv-x="703" 
d="M730 730l-153 -730h-109l-157 401c-27 72 -52 148 -76 225c-14 -90 -34 -189 -51 -271l-73 -355h-94l153 730h108l152 -386c30 -78 58 -156 83 -234c14 86 35 192 52 272l72 348h93zM329 938h79l66 -104l108 104h85l-165 -153h-72z" />
    <glyph glyph-name="uni0145" unicode="&#x145;" horiz-adv-x="703" 
d="M730 730l-153 -730h-109l-157 401c-27 72 -52 148 -76 225c-14 -90 -34 -189 -51 -271l-73 -355h-94l153 730h108l152 -386c30 -78 58 -156 83 -234c14 86 35 192 52 272l72 348h93zM108 -212l186 152h100l-2 -6l-199 -146h-85z" />
    <glyph glyph-name="Ntilde" unicode="&#xd1;" horiz-adv-x="703" 
d="M730 730l-153 -730h-109l-157 401c-27 72 -52 148 -76 225c-14 -90 -34 -189 -51 -271l-73 -355h-94l153 730h108l152 -386c30 -78 58 -156 83 -234c14 86 35 192 52 272l72 348h93zM304 832c45 70 66 88 107 88c21 0 44 -7 78 -24c33 -17 51 -22 64 -22c21 0 30 9 56 46
l51 -21c-44 -71 -66 -90 -108 -90c-20 0 -43 8 -77 25c-31 16 -50 21 -65 21c-20 0 -28 -7 -54 -43z" />
    <glyph glyph-name="Eng" unicode="&#x14a;" horiz-adv-x="704" 
d="M566 -52c-24 -115 -78 -166 -230 -159l16 71c70 -5 107 14 122 87l11 53h-17l-156 401c-28 70 -55 144 -81 216c-13 -79 -34 -180 -51 -262l-73 -355h-90l153 730h108l153 -386c29 -75 58 -151 86 -226c13 78 35 183 51 264l73 347l89 1z" />
    <glyph glyph-name="O" unicode="O" horiz-adv-x="782" 
d="M161 280c0 -135 79 -206 204 -206c224 0 300 228 300 375c0 135 -77 207 -204 207c-224 0 -300 -227 -300 -376zM64 282c0 195 105 462 396 462c193 0 303 -108 303 -295c0 -191 -105 -463 -393 -463c-195 0 -306 109 -306 296z" />
    <glyph glyph-name="Oacute" unicode="&#xd3;" horiz-adv-x="782" 
d="M161 280c0 -135 79 -206 204 -206c224 0 300 228 300 375c0 135 -77 207 -204 207c-224 0 -300 -227 -300 -376zM64 282c0 195 105 462 396 462c193 0 303 -108 303 -295c0 -191 -105 -463 -393 -463c-195 0 -306 109 -306 296zM359 785v4l205 148l122 1l-1 -4l-227 -149
h-99z" />
    <glyph glyph-name="Ocircumflex" unicode="&#xd4;" horiz-adv-x="782" 
d="M161 280c0 -135 79 -206 204 -206c224 0 300 228 300 375c0 135 -77 207 -204 207c-224 0 -300 -227 -300 -376zM64 282c0 195 105 462 396 462c193 0 303 -108 303 -295c0 -191 -105 -463 -393 -463c-195 0 -306 109 -306 296zM328 785l166 153h78l102 -153h-86l-66 101
l-107 -101h-87z" />
    <glyph glyph-name="Odieresis" unicode="&#xd6;" horiz-adv-x="782" 
d="M161 280c0 -135 79 -206 204 -206c224 0 300 228 300 375c0 135 -77 207 -204 207c-224 0 -300 -227 -300 -376zM64 282c0 195 105 462 396 462c193 0 303 -108 303 -295c0 -191 -105 -463 -393 -463c-195 0 -306 109 -306 296zM379 867c0 30 23 53 52 53
c30 0 53 -23 53 -53c0 -29 -23 -52 -53 -52c-29 0 -52 23 -52 52zM550 867c0 30 23 53 52 53s53 -23 53 -53c0 -29 -24 -52 -53 -52s-52 23 -52 52z" />
    <glyph glyph-name="Ograve" unicode="&#xd2;" horiz-adv-x="782" 
d="M161 280c0 -135 79 -206 204 -206c224 0 300 228 300 375c0 135 -77 207 -204 207c-224 0 -300 -227 -300 -376zM64 282c0 195 105 462 396 462c193 0 303 -108 303 -295c0 -191 -105 -463 -393 -463c-195 0 -306 109 -306 296zM384 934v4l120 -1l141 -148v-4h-97z" />
    <glyph glyph-name="Ohungarumlaut" unicode="&#x150;" horiz-adv-x="782" 
d="M161 280c0 -135 79 -206 204 -206c224 0 300 228 300 375c0 135 -77 207 -204 207c-224 0 -300 -227 -300 -376zM64 282c0 195 105 462 396 462c193 0 303 -108 303 -295c0 -191 -105 -463 -393 -463c-195 0 -306 109 -306 296zM290 780v4l179 148l100 1l-2 -4l-195 -149
h-82zM499 780l1 4l179 148l99 1l-1 -4l-196 -149h-82z" />
    <glyph glyph-name="Omacron" unicode="&#x14c;" horiz-adv-x="782" 
d="M161 280c0 -135 79 -206 204 -206c224 0 300 228 300 375c0 135 -77 207 -204 207c-224 0 -300 -227 -300 -376zM64 282c0 195 105 462 396 462c193 0 303 -108 303 -295c0 -191 -105 -463 -393 -463c-195 0 -306 109 -306 296zM381 832l13 59h258l-13 -59h-258z" />
    <glyph glyph-name="Oslash" unicode="&#xd8;" horiz-adv-x="776" 
d="M725 713l54 -55l-54 -49c24 -44 36 -97 36 -160c0 -191 -105 -463 -393 -463c-104 0 -184 31 -236 89l-62 -56l-55 56l74 66c-18 40 -27 87 -27 141c0 195 105 462 396 462c94 0 168 -26 220 -73zM159 280c0 -25 3 -48 8 -68l439 394c-35 33 -85 50 -147 50
c-224 0 -300 -227 -300 -376zM203 139c35 -43 90 -65 160 -65c224 0 300 228 300 375c0 35 -5 65 -15 91z" />
    <glyph glyph-name="Otilde" unicode="&#xd5;" horiz-adv-x="782" 
d="M161 280c0 -135 79 -206 204 -206c224 0 300 228 300 375c0 135 -77 207 -204 207c-224 0 -300 -227 -300 -376zM64 282c0 195 105 462 396 462c193 0 303 -108 303 -295c0 -191 -105 -463 -393 -463c-195 0 -306 109 -306 296zM339 832c45 70 66 88 107 88
c21 0 44 -7 78 -24c33 -17 51 -22 64 -22c21 0 30 9 56 46l51 -21c-44 -71 -66 -90 -108 -90c-20 0 -43 8 -77 25c-31 16 -50 21 -65 21c-20 0 -28 -7 -54 -43z" />
    <glyph glyph-name="OE" unicode="&#x152;" horiz-adv-x="1124" 
d="M1170 730l-18 -79h-372l-52 -243h352l-17 -79h-352l-53 -250h382l-17 -79h-478l27 128c-52 -98 -143 -142 -259 -142c-161 0 -252 94 -252 281c0 177 87 477 387 477c123 0 215 -54 224 -151l29 137h469zM159 277c0 -143 70 -203 175 -203c140 0 240 90 282 259l8 38
c39 180 -19 285 -175 285c-233 0 -290 -255 -290 -379z" />
    <glyph glyph-name="P" unicode="P" horiz-adv-x="647" 
d="M401 730c125 0 254 -26 254 -182c0 -180 -148 -254 -316 -254h-162l-60 -294h-96l150 730h230zM195 380h141c132 0 218 42 218 156c0 94 -79 108 -169 108h-136z" />
    <glyph glyph-name="Thorn" unicode="&#xde;" horiz-adv-x="641" 
d="M267 730l-31 -148h132c123 0 244 -33 244 -179c0 -180 -143 -251 -305 -251h-163l-32 -152h-96l155 730h96zM163 238h141c125 0 207 46 207 155c0 81 -71 103 -158 103h-136z" />
    <glyph glyph-name="Q" unicode="Q" horiz-adv-x="783" 
d="M163 283c0 -137 79 -209 207 -209c221 0 296 226 296 371c0 139 -79 211 -208 211c-221 0 -295 -225 -295 -373zM65 285c0 195 105 459 392 459c196 0 306 -109 306 -299c0 -143 -59 -332 -211 -416l73 -136l-95 -43c-72 140 -74 142 -79 142c-9 0 -31 -6 -76 -6
c-198 0 -310 110 -310 299z" />
    <glyph glyph-name="R" unicode="R" horiz-adv-x="669" 
d="M569 6l-1 -6h-116c-2 46 -2 94 0 188c1 88 -17 116 -128 116h-145l-64 -304h-98l154 730h235c135 0 252 -31 252 -167c0 -114 -72 -192 -184 -220c53 -19 77 -61 75 -134c-3 -85 -1 -142 4 -181zM197 390h145c132 0 217 48 217 151c0 73 -55 103 -166 103h-143z" />
    <glyph glyph-name="Racute" unicode="&#x154;" horiz-adv-x="669" 
d="M569 6l-1 -6h-116c-2 46 -2 94 0 188c1 88 -17 116 -128 116h-145l-64 -304h-98l154 730h235c135 0 252 -31 252 -167c0 -114 -72 -192 -184 -220c53 -19 77 -61 75 -134c-3 -85 -1 -142 4 -181zM197 390h145c132 0 217 48 217 151c0 73 -55 103 -166 103h-143zM295 785
v4l205 148l122 1l-1 -4l-227 -149h-99z" />
    <glyph glyph-name="Rcaron" unicode="&#x158;" horiz-adv-x="669" 
d="M569 6l-1 -6h-116c-2 46 -2 94 0 188c1 88 -17 116 -128 116h-145l-64 -304h-98l154 730h235c135 0 252 -31 252 -167c0 -114 -72 -192 -184 -220c53 -19 77 -61 75 -134c-3 -85 -1 -142 4 -181zM197 390h145c132 0 217 48 217 151c0 73 -55 103 -166 103h-143zM300 938
h79l66 -104l108 104h85l-165 -153h-72z" />
    <glyph glyph-name="uni0156" unicode="&#x156;" horiz-adv-x="669" 
d="M569 6l-1 -6h-116c-2 46 -2 94 0 188c1 88 -17 116 -128 116h-145l-64 -304h-98l154 730h235c135 0 252 -31 252 -167c0 -114 -72 -192 -184 -220c53 -19 77 -61 75 -134c-3 -85 -1 -142 4 -181zM84 -212l186 152h100l-2 -6l-199 -146h-85zM197 390h145
c132 0 217 48 217 151c0 73 -55 103 -166 103h-143z" />
    <glyph glyph-name="S" unicode="S" horiz-adv-x="636" 
d="M390 744c180 0 275 -78 248 -222h-98c20 93 -55 134 -156 134c-104 0 -173 -50 -173 -122c0 -73 55 -100 163 -129c139 -36 216 -89 216 -194c0 -140 -123 -225 -302 -225c-173 0 -281 74 -263 225h96c-6 -90 54 -137 180 -137c115 0 189 50 189 125
c0 69 -50 99 -169 131c-136 36 -210 85 -210 190c0 133 118 224 279 224z" />
    <glyph glyph-name="Sacute" unicode="&#x15a;" horiz-adv-x="636" 
d="M390 744c180 0 275 -78 248 -222h-98c20 93 -55 134 -156 134c-104 0 -173 -50 -173 -122c0 -73 55 -100 163 -129c139 -36 216 -89 216 -194c0 -140 -123 -225 -302 -225c-173 0 -281 74 -263 225h96c-6 -90 54 -137 180 -137c115 0 189 50 189 125
c0 69 -50 99 -169 131c-136 36 -210 85 -210 190c0 133 118 224 279 224zM289 772v4l205 148l122 1l-1 -4l-227 -149h-99z" />
    <glyph glyph-name="Scaron" unicode="&#x160;" horiz-adv-x="636" 
d="M390 744c180 0 275 -78 248 -222h-98c20 93 -55 134 -156 134c-104 0 -173 -50 -173 -122c0 -73 55 -100 163 -129c139 -36 216 -89 216 -194c0 -140 -123 -225 -302 -225c-173 0 -281 74 -263 225h96c-6 -90 54 -137 180 -137c115 0 189 50 189 125
c0 69 -50 99 -169 131c-136 36 -210 85 -210 190c0 133 118 224 279 224zM294 925h79l66 -104l108 104h85l-165 -153h-72z" />
    <glyph glyph-name="Scedilla" unicode="&#x15e;" horiz-adv-x="636" 
d="M390 744c180 0 275 -78 248 -222h-98c20 93 -55 134 -156 134c-104 0 -173 -50 -173 -122c0 -73 55 -100 163 -129c139 -36 216 -89 216 -194c0 -140 -123 -225 -302 -225h-2l-16 -22c56 -8 87 -31 87 -76c0 -59 -61 -92 -137 -92c-21 0 -40 1 -59 6l1 47
c17 -5 31 -6 42 -6c47 0 74 14 74 40c0 27 -29 42 -85 39l1 22l33 45c-137 17 -218 90 -202 222h96c-6 -90 54 -137 180 -137c115 0 189 50 189 125c0 69 -50 99 -169 131c-136 36 -210 85 -210 190c0 133 118 224 279 224z" />
    <glyph glyph-name="uni0218" unicode="&#x218;" horiz-adv-x="636" 
d="M390 744c180 0 275 -78 248 -222h-98c20 93 -55 134 -156 134c-104 0 -173 -50 -173 -122c0 -73 55 -100 163 -129c139 -36 216 -89 216 -194c0 -140 -123 -225 -302 -225c-173 0 -281 74 -263 225h96c-6 -90 54 -137 180 -137c115 0 189 50 189 125
c0 69 -50 99 -169 131c-136 36 -210 85 -210 190c0 133 118 224 279 224zM81 -212l186 152h100l-2 -6l-199 -146h-85z" />
    <glyph glyph-name="uni1E9E" unicode="&#x1e9e;" horiz-adv-x="708" 
d="M715 730l-13 -61l-226 -224c96 -15 184 -73 184 -197c0 -170 -133 -262 -320 -262c-40 0 -90 7 -133 21l18 88c40 -13 80 -21 124 -21c121 0 212 55 212 169c0 105 -96 142 -213 141l12 62l200 198h-311l-132 -644h-96l150 730h544z" />
    <glyph glyph-name="T" unicode="T" horiz-adv-x="630" 
d="M702 730l-20 -86h-236l-133 -644h-96l133 644h-240l19 86h573z" />
    <glyph glyph-name="Tbar" unicode="&#x166;" horiz-adv-x="630" 
d="M530 361l-13 -60h-142l-62 -301h-96l62 301h-128l13 60h128l58 283h-240l19 86h573l-20 -86h-236l-58 -283h142z" />
    <glyph glyph-name="Tcaron" unicode="&#x164;" horiz-adv-x="630" 
d="M702 730l-20 -86h-236l-133 -644h-96l133 644h-240l19 86h573zM291 938h79l66 -104l108 104h85l-165 -153h-72z" />
    <glyph glyph-name="uni0162" unicode="&#x162;" horiz-adv-x="630" 
d="M702 730l-20 -86h-236l-133 -644h-16l-26 -36c56 -8 87 -31 87 -76c0 -59 -61 -92 -137 -92c-21 0 -40 1 -59 6l1 47c17 -5 31 -6 42 -6c47 0 74 14 74 40c0 27 -29 42 -85 39l1 22l40 56h-18l133 644h-240l19 86h573z" />
    <glyph glyph-name="uni021A" unicode="&#x21a;" horiz-adv-x="630" 
d="M702 730l-20 -86h-236l-133 -644h-96l133 644h-240l19 86h573zM83 -212l186 152h100l-2 -6l-199 -146h-85z" />
    <glyph glyph-name="U" unicode="U" horiz-adv-x="694" 
d="M624 267c-43 -204 -132 -281 -325 -281c-168 0 -234 87 -234 190c0 33 9 88 15 120l92 434h97l-96 -452c-9 -42 -12 -62 -12 -83c0 -64 36 -121 148 -121c138 0 192 62 220 194l98 462h94z" />
    <glyph glyph-name="Uacute" unicode="&#xda;" horiz-adv-x="694" 
d="M624 267c-43 -204 -132 -281 -325 -281c-168 0 -234 87 -234 190c0 33 9 88 15 120l92 434h97l-96 -452c-9 -42 -12 -62 -12 -83c0 -64 36 -121 148 -121c138 0 192 62 220 194l98 462h94zM320 785v4l205 148l122 1l-1 -4l-227 -149h-99z" />
    <glyph glyph-name="Ucircumflex" unicode="&#xdb;" horiz-adv-x="694" 
d="M624 267c-43 -204 -132 -281 -325 -281c-168 0 -234 87 -234 190c0 33 9 88 15 120l92 434h97l-96 -452c-9 -42 -12 -62 -12 -83c0 -64 36 -121 148 -121c138 0 192 62 220 194l98 462h94zM288 785l166 153h78l102 -153h-86l-66 101l-107 -101h-87z" />
    <glyph glyph-name="Udieresis" unicode="&#xdc;" horiz-adv-x="694" 
d="M624 267c-43 -204 -132 -281 -325 -281c-168 0 -234 87 -234 190c0 33 9 88 15 120l92 434h97l-96 -452c-9 -42 -12 -62 -12 -83c0 -64 36 -121 148 -121c138 0 192 62 220 194l98 462h94zM340 867c0 30 23 53 52 53c30 0 53 -23 53 -53c0 -29 -23 -52 -53 -52
c-29 0 -52 23 -52 52zM511 867c0 30 23 53 52 53s53 -23 53 -53c0 -29 -24 -52 -53 -52s-52 23 -52 52z" />
    <glyph glyph-name="Ugrave" unicode="&#xd9;" horiz-adv-x="694" 
d="M624 267c-43 -204 -132 -281 -325 -281c-168 0 -234 87 -234 190c0 33 9 88 15 120l92 434h97l-96 -452c-9 -42 -12 -62 -12 -83c0 -64 36 -121 148 -121c138 0 192 62 220 194l98 462h94zM344 934v4l120 -1l141 -148v-4h-97z" />
    <glyph glyph-name="Uhungarumlaut" unicode="&#x170;" horiz-adv-x="694" 
d="M624 267c-43 -204 -132 -281 -325 -281c-168 0 -234 87 -234 190c0 33 9 88 15 120l92 434h97l-96 -452c-9 -42 -12 -62 -12 -83c0 -64 36 -121 148 -121c138 0 192 62 220 194l98 462h94zM250 780v4l179 148l100 1l-2 -4l-195 -149h-82zM459 780l1 4l179 148l99 1l-1 -4
l-196 -149h-82z" />
    <glyph glyph-name="Umacron" unicode="&#x16a;" horiz-adv-x="694" 
d="M624 267c-43 -204 -132 -281 -325 -281c-168 0 -234 87 -234 190c0 33 9 88 15 120l92 434h97l-96 -452c-9 -42 -12 -62 -12 -83c0 -64 36 -121 148 -121c138 0 192 62 220 194l98 462h94zM341 832l13 59h258l-13 -59h-258z" />
    <glyph glyph-name="Uogonek" unicode="&#x172;" horiz-adv-x="694" 
d="M624 267c-23 -110 -60 -179 -118 -226c-78 -64 -113 -118 -113 -156c0 -23 17 -32 43 -32c14 0 30 3 43 8l-16 -51c-24 -9 -49 -14 -78 -14c-40 0 -76 15 -76 59c0 52 37 101 79 138c-27 -5 -57 -7 -89 -7c-168 0 -234 87 -234 190c0 33 9 88 15 120l92 434h97l-96 -452
c-9 -42 -12 -62 -12 -83c0 -64 36 -121 148 -121c139 0 192 62 220 194l98 462h94z" />
    <glyph glyph-name="Uring" unicode="&#x16e;" horiz-adv-x="694" 
d="M624 267c-43 -204 -132 -281 -325 -281c-168 0 -234 87 -234 190c0 33 9 88 15 120l92 434h97l-96 -452c-9 -42 -12 -62 -12 -83c0 -64 36 -121 148 -121c138 0 192 62 220 194l98 462h94zM356 858c0 67 65 109 136 109c60 0 103 -31 103 -80c0 -68 -65 -108 -135 -108
c-62 0 -104 31 -104 79zM420 862c0 -23 17 -39 46 -39c40 0 65 30 65 59c0 24 -17 40 -46 40c-40 0 -65 -30 -65 -60z" />
    <glyph glyph-name="V" unicode="V" horiz-adv-x="654" 
d="M754 730l-426 -730h-113l-115 730h102l87 -638l359 638h106z" />
    <glyph glyph-name="W" unicode="W" horiz-adv-x="925" 
d="M1018 730l-339 -730h-124l-14 356c-2 90 -3 182 -1 274c-37 -89 -77 -181 -122 -274l-174 -356h-118l-18 730h102l3 -334c1 -102 0 -202 -4 -304c43 100 91 203 139 304l158 324h109l14 -324c4 -103 7 -204 6 -307c34 85 91 216 131 307l150 334h102z" />
    <glyph glyph-name="Wacute" unicode="&#x1e82;" horiz-adv-x="925" 
d="M1018 730l-339 -730h-124l-14 356c-2 90 -3 182 -1 274c-37 -89 -77 -181 -122 -274l-174 -356h-118l-18 730h102l3 -334c1 -102 0 -202 -4 -304c43 100 91 203 139 304l158 324h109l14 -324c4 -103 7 -204 6 -307c34 85 91 216 131 307l150 334h102zM430 785v4l205 148
l122 1l-1 -4l-227 -149h-99z" />
    <glyph glyph-name="Wcircumflex" unicode="&#x174;" horiz-adv-x="925" 
d="M1018 730l-339 -730h-124l-14 356c-2 90 -3 182 -1 274c-37 -89 -77 -181 -122 -274l-174 -356h-118l-18 730h102l3 -334c1 -102 0 -202 -4 -304c43 100 91 203 139 304l158 324h109l14 -324c4 -103 7 -204 6 -307c34 85 91 216 131 307l150 334h102zM398 785l166 153h78
l102 -153h-86l-66 101l-107 -101h-87z" />
    <glyph glyph-name="Wdieresis" unicode="&#x1e84;" horiz-adv-x="925" 
d="M1018 730l-339 -730h-124l-14 356c-2 90 -3 182 -1 274c-37 -89 -77 -181 -122 -274l-174 -356h-118l-18 730h102l3 -334c1 -102 0 -202 -4 -304c43 100 91 203 139 304l158 324h109l14 -324c4 -103 7 -204 6 -307c34 85 91 216 131 307l150 334h102zM450 867
c0 30 23 53 52 53c30 0 53 -23 53 -53c0 -29 -23 -52 -53 -52c-29 0 -52 23 -52 52zM621 867c0 30 23 53 52 53s53 -23 53 -53c0 -29 -24 -52 -53 -52s-52 23 -52 52z" />
    <glyph glyph-name="Wgrave" unicode="&#x1e80;" horiz-adv-x="925" 
d="M1018 730l-339 -730h-124l-14 356c-2 90 -3 182 -1 274c-37 -89 -77 -181 -122 -274l-174 -356h-118l-18 730h102l3 -334c1 -102 0 -202 -4 -304c43 100 91 203 139 304l158 324h109l14 -324c4 -103 7 -204 6 -307c34 85 91 216 131 307l150 334h102zM454 934v4l120 -1
l141 -148v-4h-97z" />
    <glyph glyph-name="X" unicode="X" horiz-adv-x="679" 
d="M757 730l-335 -369l173 -361h-114l-136 297l-256 -297h-122l337 371l-159 359h111l122 -297l257 297h122z" />
    <glyph glyph-name="Y" unicode="Y" horiz-adv-x="639" 
d="M747 730l-371 -435l-63 -295h-97l63 296l-186 434h107l143 -350l290 350h114z" />
    <glyph glyph-name="Yacute" unicode="&#xdd;" horiz-adv-x="639" 
d="M747 730l-371 -435l-63 -295h-97l63 296l-186 434h107l143 -350l290 350h114zM290 785v4l205 148l122 1l-1 -4l-227 -149h-99z" />
    <glyph glyph-name="Ycircumflex" unicode="&#x176;" horiz-adv-x="639" 
d="M747 730l-371 -435l-63 -295h-97l63 296l-186 434h107l143 -350l290 350h114zM259 785l166 153h78l102 -153h-86l-66 101l-107 -101h-87z" />
    <glyph glyph-name="Ydieresis" unicode="&#x178;" horiz-adv-x="639" 
d="M747 730l-371 -435l-63 -295h-97l63 296l-186 434h107l143 -350l290 350h114zM310 867c0 30 23 53 52 53c30 0 53 -23 53 -53c0 -29 -23 -52 -53 -52c-29 0 -52 23 -52 52zM481 867c0 30 23 53 52 53s53 -23 53 -53c0 -29 -24 -52 -53 -52s-52 23 -52 52z" />
    <glyph glyph-name="Ygrave" unicode="&#x1ef2;" horiz-adv-x="639" 
d="M747 730l-371 -435l-63 -295h-97l63 296l-186 434h107l143 -350l290 350h114zM314 934v4l120 -1l141 -148v-4h-97z" />
    <glyph glyph-name="Z" unicode="Z" horiz-adv-x="669" 
d="M694 730l-15 -66l-531 -578h424l-18 -86h-560l14 64l533 580h-396l18 86h531z" />
    <glyph glyph-name="Zacute" unicode="&#x179;" horiz-adv-x="669" 
d="M694 730l-15 -66l-531 -578h424l-18 -86h-560l14 64l533 580h-396l18 86h531zM303 785v4l205 148l122 1l-1 -4l-227 -149h-99z" />
    <glyph glyph-name="Zcaron" unicode="&#x17d;" horiz-adv-x="669" 
d="M694 730l-15 -66l-531 -578h424l-18 -86h-560l14 64l533 580h-396l18 86h531zM308 938h79l66 -104l108 104h85l-165 -153h-72z" />
    <glyph glyph-name="Zdotaccent" unicode="&#x17b;" horiz-adv-x="669" 
d="M694 730l-15 -66l-531 -578h424l-18 -86h-560l14 64l533 580h-396l18 86h531zM404 867c0 34 28 62 61 62c31 0 55 -24 55 -54c0 -33 -29 -62 -62 -62c-31 0 -54 24 -54 54z" />
    <glyph glyph-name="a" unicode="a" horiz-adv-x="538" 
d="M322 535c133 0 188 -50 188 -129c0 -24 -7 -66 -14 -97l-68 -309h-80l10 83c-30 -68 -98 -97 -184 -97c-84 0 -151 44 -151 134c0 134 122 196 383 191l4 20c4 19 8 37 8 57c0 41 -27 66 -99 66s-113 -26 -135 -85h-93c23 98 91 166 231 166zM116 130
c0 -39 32 -63 88 -63c76 0 157 54 175 125l10 44c-178 6 -273 -16 -273 -106z" />
    <glyph glyph-name="aacute" unicode="&#xe1;" horiz-adv-x="538" 
d="M322 535c133 0 188 -50 188 -129c0 -24 -7 -66 -14 -97l-68 -309h-80l10 83c-30 -68 -98 -97 -184 -97c-84 0 -151 44 -151 134c0 134 122 196 383 191l4 20c4 19 8 37 8 57c0 41 -27 66 -99 66s-113 -26 -135 -85h-93c23 98 91 166 231 166zM116 130
c0 -39 32 -63 88 -63c76 0 157 54 175 125l10 44c-178 6 -273 -16 -273 -106zM228 604l1 4l198 151l109 2l-1 -4l-217 -153h-90z" />
    <glyph glyph-name="abreve" unicode="&#x103;" horiz-adv-x="538" 
d="M322 535c133 0 188 -50 188 -129c0 -24 -7 -66 -14 -97l-68 -309h-80l10 83c-30 -68 -98 -97 -184 -97c-84 0 -151 44 -151 134c0 134 122 196 383 191l4 20c4 19 8 37 8 57c0 41 -27 66 -99 66s-113 -26 -135 -85h-93c23 98 91 166 231 166zM116 130
c0 -39 32 -63 88 -63c76 0 157 54 175 125l10 44c-178 6 -273 -16 -273 -106zM234 760h68c-13 -64 -9 -114 58 -114c68 0 93 50 106 114h68c-19 -98 -63 -168 -186 -168c-112 0 -136 69 -114 168z" />
    <glyph glyph-name="acircumflex" unicode="&#xe2;" horiz-adv-x="538" 
d="M322 535c133 0 188 -50 188 -129c0 -24 -7 -66 -14 -97l-68 -309h-80l10 83c-30 -68 -98 -97 -184 -97c-84 0 -151 44 -151 134c0 134 122 196 383 191l4 20c4 19 8 37 8 57c0 41 -27 66 -99 66s-113 -26 -135 -85h-93c23 98 91 166 231 166zM116 130
c0 -39 32 -63 88 -63c76 0 157 54 175 125l10 44c-178 6 -273 -16 -273 -106zM188 603l158 159h78l91 -159h-83l-58 105l-102 -105h-84z" />
    <glyph glyph-name="adieresis" unicode="&#xe4;" horiz-adv-x="538" 
d="M322 535c133 0 188 -50 188 -129c0 -24 -7 -66 -14 -97l-68 -309h-80l10 83c-30 -68 -98 -97 -184 -97c-84 0 -151 44 -151 134c0 134 122 196 383 191l4 20c4 19 8 37 8 57c0 41 -27 66 -99 66s-113 -26 -135 -85h-93c23 98 91 166 231 166zM116 130
c0 -39 32 -63 88 -63c76 0 157 54 175 125l10 44c-178 6 -273 -16 -273 -106zM249 675c0 29 23 51 51 51c29 0 51 -22 51 -51c0 -28 -22 -51 -51 -51c-28 0 -51 23 -51 51zM408 675c0 29 22 51 51 51c28 0 51 -22 51 -51c0 -28 -23 -51 -51 -51c-29 0 -51 23 -51 51z" />
    <glyph glyph-name="agrave" unicode="&#xe0;" horiz-adv-x="538" 
d="M322 535c133 0 188 -50 188 -129c0 -24 -7 -66 -14 -97l-68 -309h-80l10 83c-30 -68 -98 -97 -184 -97c-84 0 -151 44 -151 134c0 134 122 196 383 191l4 20c4 19 8 37 8 57c0 41 -27 66 -99 66s-113 -26 -135 -85h-93c23 98 91 166 231 166zM116 130
c0 -39 32 -63 88 -63c76 0 157 54 175 125l10 44c-178 6 -273 -16 -273 -106zM241 757l1 4l106 -2l133 -151v-4h-86z" />
    <glyph glyph-name="amacron" unicode="&#x101;" horiz-adv-x="538" 
d="M322 535c133 0 188 -50 188 -129c0 -24 -7 -66 -14 -97l-68 -309h-80l10 83c-30 -68 -98 -97 -184 -97c-84 0 -151 44 -151 134c0 134 122 196 383 191l4 20c4 19 8 37 8 57c0 41 -27 66 -99 66s-113 -26 -135 -85h-93c23 98 91 166 231 166zM116 130
c0 -39 32 -63 88 -63c76 0 157 54 175 125l10 44c-178 6 -273 -16 -273 -106zM224 640l13 59h270l-13 -59h-270z" />
    <glyph glyph-name="aogonek" unicode="&#x105;" horiz-adv-x="538" 
d="M322 535c133 0 188 -50 188 -129c0 -24 -7 -66 -14 -97l-68 -309h-1c-63 -26 -111 -76 -111 -115c0 -22 16 -32 43 -32c14 0 29 3 44 8l-17 -51c-26 -9 -51 -14 -78 -14c-41 0 -76 16 -76 58c0 57 49 110 116 148l10 81c-30 -68 -98 -97 -184 -97c-84 0 -151 44 -151 134
c0 134 122 196 383 191l4 20c4 19 8 37 8 57c0 41 -27 66 -99 66s-113 -26 -135 -85h-93c23 98 91 166 231 166zM116 130c0 -39 32 -63 88 -63c76 0 157 54 175 125l10 44c-178 6 -273 -16 -273 -106z" />
    <glyph glyph-name="aring" unicode="&#xe5;" horiz-adv-x="538" 
d="M322 535c133 0 188 -50 188 -129c0 -24 -7 -66 -14 -97l-68 -309h-80l10 83c-30 -68 -98 -97 -184 -97c-84 0 -151 44 -151 134c0 134 122 196 383 191l4 20c4 19 8 37 8 57c0 41 -27 66 -99 66s-113 -26 -135 -85h-93c23 98 91 166 231 166zM116 130
c0 -39 32 -63 88 -63c76 0 157 54 175 125l10 44c-178 6 -273 -16 -273 -106zM252 678c0 67 65 108 136 108c60 0 103 -30 103 -80c0 -68 -65 -107 -135 -107c-62 0 -104 31 -104 79zM316 682c0 -24 17 -39 46 -39c40 0 65 30 65 59c0 24 -17 40 -46 40
c-40 0 -65 -31 -65 -60z" />
    <glyph glyph-name="atilde" unicode="&#xe3;" horiz-adv-x="538" 
d="M322 535c133 0 188 -50 188 -129c0 -24 -7 -66 -14 -97l-68 -309h-80l10 83c-30 -68 -98 -97 -184 -97c-84 0 -151 44 -151 134c0 134 122 196 383 191l4 20c4 19 8 37 8 57c0 41 -27 66 -99 66s-113 -26 -135 -85h-93c23 98 91 166 231 166zM116 130
c0 -39 32 -63 88 -63c76 0 157 54 175 125l10 44c-178 6 -273 -16 -273 -106zM187 638c44 70 66 88 107 88c21 0 44 -7 78 -24c33 -18 51 -22 64 -22c21 0 30 8 56 45l51 -20c-45 -72 -66 -91 -108 -91c-20 0 -43 8 -77 25c-31 16 -50 21 -65 21c-21 0 -28 -7 -54 -43z" />
    <glyph glyph-name="ae" unicode="&#xe6;" horiz-adv-x="917" 
d="M329 535c97 0 150 -30 168 -79c50 52 117 79 203 79c128 0 187 -74 187 -178c0 -47 -10 -88 -22 -123h-375c-21 -122 21 -167 108 -167c69 0 124 32 157 96h93c-44 -113 -137 -177 -259 -177c-106 0 -168 40 -188 116c-36 -71 -124 -116 -207 -116
c-107 0 -173 45 -173 126c0 141 144 195 351 195h44l7 33c14 65 0 114 -102 114c-73 0 -119 -28 -142 -94h-94c27 104 105 175 244 175zM112 125c0 -36 31 -58 94 -58c75 0 164 52 184 120l11 51c-168 3 -289 -18 -289 -113zM510 312h278c2 13 3 25 3 37
c0 78 -44 105 -104 105c-79 0 -141 -36 -177 -142z" />
    <glyph glyph-name="b" unicode="b" horiz-adv-x="598" 
d="M251 730l-62 -290c31 60 106 95 188 95c125 0 184 -74 184 -190c0 -206 -119 -359 -277 -359c-90 0 -167 32 -172 107l-22 -93h-87l154 730h94zM146 237c-26 -129 47 -170 124 -170c117 0 193 119 193 262c0 70 -37 123 -123 123s-158 -52 -186 -177z" />
    <glyph glyph-name="c" unicode="c" horiz-adv-x="545" 
d="M348 535c134 0 204 -70 185 -184h-93c9 66 -26 103 -101 103c-121 0 -205 -123 -205 -271c0 -79 42 -116 112 -116c69 0 131 41 155 103h94c-37 -110 -131 -184 -260 -184c-133 0 -200 68 -200 184c0 210 124 365 313 365z" />
    <glyph glyph-name="cacute" unicode="&#x107;" horiz-adv-x="545" 
d="M348 535c134 0 204 -70 185 -184h-93c9 66 -26 103 -101 103c-121 0 -205 -123 -205 -271c0 -79 42 -116 112 -116c69 0 131 41 155 103h94c-37 -110 -131 -184 -260 -184c-133 0 -200 68 -200 184c0 210 124 365 313 365zM230 604l1 4l198 151l109 2l-1 -4l-217 -153
h-90z" />
    <glyph glyph-name="ccaron" unicode="&#x10d;" horiz-adv-x="545" 
d="M348 535c134 0 204 -70 185 -184h-93c9 66 -26 103 -101 103c-121 0 -205 -123 -205 -271c0 -79 42 -116 112 -116c69 0 131 41 155 103h94c-37 -110 -131 -184 -260 -184c-133 0 -200 68 -200 184c0 210 124 365 313 365zM222 758h83l58 -106l103 106h84l-158 -159h-78z
" />
    <glyph glyph-name="ccedilla" unicode="&#xe7;" horiz-adv-x="545" 
d="M348 535c134 0 204 -70 185 -184h-93c9 66 -26 103 -101 103c-121 0 -205 -123 -205 -271c0 -79 42 -116 112 -116c69 0 131 41 155 103h94c-34 -101 -117 -172 -230 -183l-22 -25c49 -7 77 -29 77 -71c0 -56 -59 -95 -150 -95c-22 0 -42 2 -60 8l10 45
c15 -5 29 -6 40 -6c49 0 81 16 81 44c0 23 -26 38 -80 35l3 14l39 51c-112 11 -168 77 -168 183c0 210 124 365 313 365z" />
    <glyph glyph-name="cdotaccent" unicode="&#x10b;" horiz-adv-x="545" 
d="M348 535c134 0 204 -70 185 -184h-93c9 66 -26 103 -101 103c-121 0 -205 -123 -205 -271c0 -79 42 -116 112 -116c69 0 131 41 155 103h94c-37 -110 -131 -184 -260 -184c-133 0 -200 68 -200 184c0 210 124 365 313 365zM309 675c0 32 25 57 56 57c32 0 57 -25 57 -57
c0 -31 -25 -56 -57 -56c-31 0 -56 25 -56 56z" />
    <glyph glyph-name="d" unicode="d" horiz-adv-x="599" 
d="M637 730l-151 -730h-87l18 96c-28 -69 -103 -110 -196 -110c-119 0 -184 73 -184 190c0 206 119 359 278 359c86 0 160 -35 166 -110l62 305h94zM135 192c0 -70 37 -123 123 -123c87 0 159 52 186 177l8 38l1 4c24 125 -49 166 -125 166c-117 0 -193 -119 -193 -262z" />
    <glyph glyph-name="eth" unicode="&#xf0;" horiz-adv-x="608" 
d="M306 760c66 -17 117 -42 157 -77l120 46l21 -64l-95 -37c39 -59 56 -137 56 -236c0 -188 -88 -405 -321 -406c-134 -1 -206 75 -206 201c0 195 120 330 296 330c78 0 127 -23 140 -88c-4 61 -22 122 -51 166l-138 -53l-23 63l110 43c-30 22 -67 38 -110 49zM136 192
c0 -74 40 -125 114 -125c135 0 207 127 207 257c0 71 -49 112 -126 112c-117 0 -195 -103 -195 -244z" />
    <glyph glyph-name="dcaron" unicode="&#x10f;" horiz-adv-x="740" 
d="M828 740l-5 -25l-128 -265h-73l121 290h85zM37 176c0 206 119 359 278 359c86 0 160 -35 166 -110l62 305h94l-151 -730h-87l18 96c-28 -69 -103 -110 -196 -110c-119 0 -184 73 -184 190zM135 192c0 -70 37 -123 123 -123c87 0 159 52 186 177l8 38l1 4
c24 125 -49 166 -125 166c-117 0 -193 -119 -193 -262z" />
    <glyph glyph-name="dcroat" unicode="&#x111;" horiz-adv-x="597" 
d="M664 656l-14 -64h-42l-122 -592h-87l18 96c-28 -69 -103 -110 -196 -110c-119 0 -184 73 -184 190c0 206 119 359 278 359c86 0 160 -35 166 -110l34 167h-157l14 64h156l15 74h94l-15 -74h42zM135 192c0 -70 37 -123 123 -123c87 0 159 52 186 177l8 38l1 4
c24 125 -49 166 -125 166c-117 0 -193 -119 -193 -262z" />
    <glyph glyph-name="e" unicode="e" horiz-adv-x="560" 
d="M332 535c133 0 195 -82 195 -197c0 -31 -9 -84 -21 -111h-376c-15 -118 31 -160 113 -160c67 0 122 33 152 94h93c-42 -112 -137 -175 -256 -175c-122 0 -196 64 -196 190c0 138 73 359 296 359zM147 305h285c16 106 -36 149 -108 149c-77 0 -144 -45 -177 -149z" />
    <glyph glyph-name="eacute" unicode="&#xe9;" horiz-adv-x="560" 
d="M332 535c133 0 195 -82 195 -197c0 -31 -9 -84 -21 -111h-376c-15 -118 31 -160 113 -160c67 0 122 33 152 94h93c-42 -112 -137 -175 -256 -175c-122 0 -196 64 -196 190c0 138 73 359 296 359zM147 305h285c16 106 -36 149 -108 149c-77 0 -144 -45 -177 -149zM229 604
l1 4l198 151l109 2l-1 -4l-217 -153h-90z" />
    <glyph glyph-name="ecaron" unicode="&#x11b;" horiz-adv-x="560" 
d="M332 535c133 0 195 -82 195 -197c0 -31 -9 -84 -21 -111h-376c-15 -118 31 -160 113 -160c67 0 122 33 152 94h93c-42 -112 -137 -175 -256 -175c-122 0 -196 64 -196 190c0 138 73 359 296 359zM147 305h285c16 106 -36 149 -108 149c-77 0 -144 -45 -177 -149zM222 758
h83l58 -106l103 106h84l-158 -159h-78z" />
    <glyph glyph-name="ecircumflex" unicode="&#xea;" horiz-adv-x="560" 
d="M332 535c133 0 195 -82 195 -197c0 -31 -9 -84 -21 -111h-376c-15 -118 31 -160 113 -160c67 0 122 33 152 94h93c-42 -112 -137 -175 -256 -175c-122 0 -196 64 -196 190c0 138 73 359 296 359zM147 305h285c16 106 -36 149 -108 149c-77 0 -144 -45 -177 -149zM189 603
l158 159h78l91 -159h-83l-58 105l-102 -105h-84z" />
    <glyph glyph-name="edieresis" unicode="&#xeb;" horiz-adv-x="560" 
d="M332 535c133 0 195 -82 195 -197c0 -31 -9 -84 -21 -111h-376c-15 -118 31 -160 113 -160c67 0 122 33 152 94h93c-42 -112 -137 -175 -256 -175c-122 0 -196 64 -196 190c0 138 73 359 296 359zM147 305h285c16 106 -36 149 -108 149c-77 0 -144 -45 -177 -149zM251 675
c0 29 23 51 51 51c29 0 51 -22 51 -51c0 -28 -22 -51 -51 -51c-28 0 -51 23 -51 51zM410 675c0 29 22 51 51 51c28 0 51 -22 51 -51c0 -28 -23 -51 -51 -51c-29 0 -51 23 -51 51z" />
    <glyph glyph-name="edotaccent" unicode="&#x117;" horiz-adv-x="560" 
d="M332 535c133 0 195 -82 195 -197c0 -31 -9 -84 -21 -111h-376c-15 -118 31 -160 113 -160c67 0 122 33 152 94h93c-42 -112 -137 -175 -256 -175c-122 0 -196 64 -196 190c0 138 73 359 296 359zM147 305h285c16 106 -36 149 -108 149c-77 0 -144 -45 -177 -149zM309 675
c0 32 25 57 56 57c32 0 57 -25 57 -57c0 -31 -25 -56 -57 -56c-31 0 -56 25 -56 56z" />
    <glyph glyph-name="egrave" unicode="&#xe8;" horiz-adv-x="560" 
d="M332 535c133 0 195 -82 195 -197c0 -31 -9 -84 -21 -111h-376c-15 -118 31 -160 113 -160c67 0 122 33 152 94h93c-42 -112 -137 -175 -256 -175c-122 0 -196 64 -196 190c0 138 73 359 296 359zM147 305h285c16 106 -36 149 -108 149c-77 0 -144 -45 -177 -149zM242 757
l1 4l106 -2l133 -151v-4h-86z" />
    <glyph glyph-name="emacron" unicode="&#x113;" horiz-adv-x="560" 
d="M332 535c133 0 195 -82 195 -197c0 -31 -9 -84 -21 -111h-376c-15 -118 31 -160 113 -160c67 0 122 33 152 94h93c-42 -112 -137 -175 -256 -175c-122 0 -196 64 -196 190c0 138 73 359 296 359zM147 305h285c16 106 -36 149 -108 149c-77 0 -144 -45 -177 -149zM225 640
l13 59h270l-13 -59h-270z" />
    <glyph glyph-name="eogonek" unicode="&#x119;" horiz-adv-x="559" 
d="M334 535c129 0 191 -77 191 -202c0 -20 -8 -75 -17 -103h-379c-17 -123 30 -167 113 -167c70 0 126 32 158 98h88c-21 -61 -60 -105 -107 -135c-79 -50 -117 -103 -117 -141c0 -23 17 -32 43 -32c14 0 30 3 44 8l-17 -51c-22 -9 -44 -14 -72 -14c-43 0 -81 16 -81 63
c0 49 38 96 81 128c-10 -1 -20 -1 -30 -1c-121 0 -196 63 -196 189c0 137 72 360 298 360zM144 302h288c17 116 -34 156 -108 156c-77 0 -147 -46 -180 -156z" />
    <glyph glyph-name="f" unicode="f" horiz-adv-x="315" 
d="M334 744c23 0 41 -1 61 -5l-17 -75c-93 14 -124 -19 -139 -90l-12 -56h111l-16 -78h-111l-94 -440h-94l94 440h-60l16 78h61l12 56c19 91 53 170 188 170z" />
    <glyph glyph-name="g" unicode="g" horiz-adv-x="596" 
d="M508 114c-37 -172 -76 -318 -301 -318c-131 0 -219 38 -207 178h94c-6 -78 45 -97 117 -97c114 0 162 61 186 172l15 67c-27 -80 -102 -112 -193 -112c-117 0 -185 69 -185 192c0 192 122 339 289 339c95 0 155 -28 160 -108l23 94h87zM135 209c0 -78 36 -124 117 -124
c85 0 162 44 191 168l8 41l2 9c20 116 -54 151 -125 151c-109 0 -193 -105 -193 -245z" />
    <glyph glyph-name="gbreve" unicode="&#x11f;" horiz-adv-x="596" 
d="M508 114c-37 -172 -76 -318 -301 -318c-131 0 -219 38 -207 178h94c-6 -78 45 -97 117 -97c114 0 162 61 186 172l15 67c-27 -80 -102 -112 -193 -112c-117 0 -185 69 -185 192c0 192 122 339 289 339c95 0 155 -28 160 -108l23 94h87zM135 209c0 -78 36 -124 117 -124
c85 0 162 44 191 168l8 41l2 9c20 116 -54 151 -125 151c-109 0 -193 -105 -193 -245zM259 760h68c-13 -64 -9 -114 58 -114c68 0 93 50 106 114h68c-19 -98 -63 -168 -186 -168c-112 0 -136 69 -114 168z" />
    <glyph glyph-name="uni0123" unicode="&#x123;" horiz-adv-x="588" 
d="M508 114c-37 -172 -76 -318 -301 -318c-131 0 -219 38 -207 178h94c-6 -78 45 -97 117 -97c114 0 162 61 186 172l15 67c-27 -80 -102 -112 -193 -112c-117 0 -185 69 -185 192c0 192 122 339 289 339c95 0 155 -28 160 -108l23 94h87zM135 209c0 -78 36 -124 117 -124
c85 0 162 44 191 168l8 41l2 9c20 116 -54 151 -125 151c-109 0 -193 -105 -193 -245zM256 573v7l167 131h89l-153 -138h-103z" />
    <glyph glyph-name="gdotaccent" unicode="&#x121;" horiz-adv-x="596" 
d="M508 114c-37 -172 -76 -318 -301 -318c-131 0 -219 38 -207 178h94c-6 -78 45 -97 117 -97c114 0 162 61 186 172l15 67c-27 -80 -102 -112 -193 -112c-117 0 -185 69 -185 192c0 192 122 339 289 339c95 0 155 -28 160 -108l23 94h87zM135 209c0 -78 36 -124 117 -124
c85 0 162 44 191 168l8 41l2 9c20 116 -54 151 -125 151c-109 0 -193 -105 -193 -245zM333 675c0 32 25 57 56 57c32 0 57 -25 57 -57c0 -31 -25 -56 -57 -56c-31 0 -56 25 -56 56z" />
    <glyph glyph-name="h" unicode="h" horiz-adv-x="559" 
d="M256 730l-62 -287c31 62 93 92 176 92c103 0 161 -42 161 -126c0 -26 -6 -63 -17 -117l-63 -292h-94l66 306c7 33 9 54 9 72c0 48 -26 77 -97 77c-81 0 -150 -52 -174 -163l-64 -292h-94l160 730h93z" />
    <glyph glyph-name="hbar" unicode="&#x127;" horiz-adv-x="565" 
d="M341 656l-14 -64h-95l-32 -149c31 62 93 92 176 92c103 0 161 -42 161 -126c0 -26 -6 -63 -17 -117l-63 -292h-94l66 306c7 33 9 54 9 72c0 48 -26 77 -97 77c-81 0 -150 -52 -174 -163l-64 -292h-94l130 592h-51l14 64h51l16 74h93l-16 -74h95z" />
    <glyph glyph-name="i" unicode="i" horiz-adv-x="209" 
d="M206 521l-110 -521h-94l111 521h93zM133 675c0 32 25 57 56 57c32 0 57 -25 57 -57c0 -31 -25 -56 -57 -56c-31 0 -56 25 -56 56z" />
    <glyph glyph-name="dotlessi" unicode="&#x131;" horiz-adv-x="209" 
d="M206 521l-110 -521h-94l111 521h93z" />
    <glyph glyph-name="iacute" unicode="&#xed;" horiz-adv-x="209" 
d="M206 521l-110 -521h-94l111 521h93zM54 604l1 4l198 151l109 2l-1 -4l-217 -153h-90z" />
    <glyph glyph-name="icircumflex" unicode="&#xee;" horiz-adv-x="209" 
d="M206 521l-110 -521h-94l111 521h93zM13 603l158 159h78l91 -159h-83l-58 105l-102 -105h-84z" />
    <glyph glyph-name="idieresis" unicode="&#xef;" horiz-adv-x="209" 
d="M206 521l-110 -521h-94l111 521h93zM75 675c0 29 23 51 51 51c29 0 51 -22 51 -51c0 -28 -22 -51 -51 -51c-28 0 -51 23 -51 51zM234 675c0 29 22 51 51 51c28 0 51 -22 51 -51c0 -28 -23 -51 -51 -51c-29 0 -51 23 -51 51z" />
    <glyph glyph-name="igrave" unicode="&#xec;" horiz-adv-x="209" 
d="M206 521l-110 -521h-94l111 521h93zM67 757l1 4l106 -2l133 -151v-4h-86z" />
    <glyph glyph-name="ij" unicode="&#x133;" horiz-adv-x="423" 
d="M206 521l-110 -521h-94l111 521h93zM81 -200l14 62c85 -12 101 16 116 86l122 573h93l-119 -562c-5 -21 -8 -40 -13 -58c-21 -74 -65 -105 -170 -105c-14 0 -29 1 -43 4zM133 675c0 32 25 57 56 57c32 0 57 -25 57 -57c0 -31 -25 -56 -57 -56c-31 0 -56 25 -56 56z
M348 675c0 32 25 57 56 57c32 0 57 -25 57 -57c0 -31 -25 -56 -57 -56c-31 0 -56 25 -56 56z" />
    <glyph glyph-name="imacron" unicode="&#x12b;" horiz-adv-x="209" 
d="M206 521l-110 -521h-94l111 521h93zM50 640l13 59h270l-13 -59h-270z" />
    <glyph glyph-name="iogonek" unicode="&#x12f;" horiz-adv-x="209" 
d="M206 521l-110 -521c-63 -26 -111 -76 -111 -115c0 -22 16 -32 43 -32c14 0 29 3 44 8l-17 -51c-26 -9 -51 -14 -78 -14c-41 0 -76 16 -76 58c0 56 47 108 112 146h-11l111 521h93zM133 675c0 32 25 57 56 57c32 0 57 -25 57 -57c0 -31 -25 -56 -57 -56
c-31 0 -56 25 -56 56z" />
    <glyph glyph-name="j" unicode="j" horiz-adv-x="220" 
d="M98 -41c-5 -21 -8 -40 -13 -58c-21 -74 -65 -105 -170 -105c-14 0 -29 1 -43 4l14 62c85 -12 101 16 116 86l122 573h93zM145 675c0 32 25 57 56 57c32 0 57 -25 57 -57c0 -31 -25 -56 -57 -56c-31 0 -56 25 -56 56z" />
    <glyph glyph-name="uni0237" unicode="&#x237;" horiz-adv-x="220" 
d="M98 -41c-5 -21 -8 -40 -13 -58c-21 -74 -65 -105 -170 -105c-14 0 -29 1 -43 4l14 62c85 -12 101 16 116 86l122 573h93z" />
    <glyph glyph-name="k" unicode="k" horiz-adv-x="528" 
d="M566 521l-242 -207l141 -314h-108l-116 259l-105 -83l-36 -176h-94l151 730h94l-92 -446l286 237h121z" />
    <glyph glyph-name="uni0137" unicode="&#x137;" horiz-adv-x="528" 
d="M566 521l-242 -207l141 -314h-108l-116 259l-105 -83l-36 -176h-94l151 730h94l-92 -446l286 237h121zM61 -190l153 138h103v-7l-167 -131h-89z" />
    <glyph glyph-name="l" unicode="l" horiz-adv-x="246" 
d="M130 135c-14 -70 -7 -75 52 -70l-14 -68c-17 -2 -42 -4 -60 -4c-61 0 -85 17 -85 56c0 21 7 56 17 106l119 575h93z" />
    <glyph glyph-name="lacute" unicode="&#x13a;" horiz-adv-x="246" 
d="M130 135c-14 -70 -7 -75 52 -70l-14 -68c-17 -2 -42 -4 -60 -4c-61 0 -85 17 -85 56c0 21 7 56 17 106l119 575h93zM160 819l1 4l198 151l109 2l-1 -4l-217 -153h-90z" />
    <glyph glyph-name="lcaron" unicode="&#x13e;" horiz-adv-x="360" 
d="M439 740l-6 -25l-127 -265h-74l122 290h85zM23 49c0 21 7 56 17 106l119 575h93l-122 -595c-14 -70 -7 -75 52 -70l-14 -68c-17 -2 -42 -4 -60 -4c-61 0 -85 17 -85 56z" />
    <glyph glyph-name="uni013C" unicode="&#x13c;" horiz-adv-x="246" 
d="M130 135c-14 -70 -7 -75 52 -70l-14 -68c-17 -2 -42 -4 -60 -4c-61 0 -85 17 -85 56c0 21 7 56 17 106l119 575h93zM-13 -190l153 138h103v-7l-167 -131h-89z" />
    <glyph glyph-name="ldot" unicode="&#x140;" horiz-adv-x="332" 
d="M291 288c-32 0 -57 25 -57 56c0 32 25 57 57 57c31 0 56 -25 56 -57c0 -31 -25 -56 -56 -56zM23 49c0 21 7 56 17 106l119 575h93l-122 -595c-14 -70 -7 -75 52 -70l-14 -68c-17 -2 -42 -4 -60 -4c-61 0 -85 17 -85 56z" />
    <glyph glyph-name="lslash" unicode="&#x142;" horiz-adv-x="309" 
d="M319 459l-18 -83l-82 -55l-38 -186c-14 -70 -7 -75 52 -70l-14 -68c-17 -2 -42 -4 -60 -4c-61 0 -85 17 -85 56c0 21 7 56 17 106l23 110l-86 -58l18 82l85 57l79 384h93l-67 -326z" />
    <glyph glyph-name="m" unicode="m" horiz-adv-x="853" 
d="M363 535c79 0 123 -34 134 -91c40 68 109 91 183 91c100 0 146 -47 146 -123c0 -24 -6 -64 -13 -98l-67 -314h-94l66 308c16 77 18 144 -77 144c-70 0 -134 -50 -157 -155v2l-63 -299h-94l65 308c17 77 20 142 -75 144c-64 2 -132 -48 -157 -149l-64 -303h-94l111 521h87
l-13 -75c28 63 100 89 176 89z" />
    <glyph glyph-name="n" unicode="n" horiz-adv-x="556" 
d="M200 521l-15 -81c37 64 98 95 182 95c104 0 162 -42 162 -126c0 -26 -7 -63 -18 -117l-62 -292h-94l65 306c7 33 10 54 10 72c0 48 -27 77 -97 77c-81 0 -150 -52 -174 -163l-63 -292h-94l111 521h87z" />
    <glyph glyph-name="nacute" unicode="&#x144;" horiz-adv-x="556" 
d="M200 521l-15 -81c37 64 98 95 182 95c104 0 162 -42 162 -126c0 -26 -7 -63 -18 -117l-62 -292h-94l65 306c7 33 10 54 10 72c0 48 -27 77 -97 77c-81 0 -150 -52 -174 -163l-63 -292h-94l111 521h87zM240 604l1 4l198 151l109 2l-1 -4l-217 -153h-90z" />
    <glyph glyph-name="ncaron" unicode="&#x148;" horiz-adv-x="556" 
d="M200 521l-15 -81c37 64 98 95 182 95c104 0 162 -42 162 -126c0 -26 -7 -63 -18 -117l-62 -292h-94l65 306c7 33 10 54 10 72c0 48 -27 77 -97 77c-81 0 -150 -52 -174 -163l-63 -292h-94l111 521h87zM232 758h83l58 -106l103 106h84l-158 -159h-78z" />
    <glyph glyph-name="uni0146" unicode="&#x146;" horiz-adv-x="556" 
d="M200 521l-15 -81c37 64 98 95 182 95c104 0 162 -42 162 -126c0 -26 -7 -63 -18 -117l-62 -292h-94l65 306c7 33 10 54 10 72c0 48 -27 77 -97 77c-81 0 -150 -52 -174 -163l-63 -292h-94l111 521h87zM82 -190l153 138h103v-7l-167 -131h-89z" />
    <glyph glyph-name="ntilde" unicode="&#xf1;" horiz-adv-x="556" 
d="M200 521l-15 -81c37 64 98 95 182 95c104 0 162 -42 162 -126c0 -26 -7 -63 -18 -117l-62 -292h-94l65 306c7 33 10 54 10 72c0 48 -27 77 -97 77c-81 0 -150 -52 -174 -163l-63 -292h-94l111 521h87zM199 638c44 70 66 88 107 88c21 0 44 -7 78 -24
c33 -18 51 -22 64 -22c21 0 30 8 56 45l51 -20c-45 -72 -66 -91 -108 -91c-20 0 -43 8 -77 25c-31 16 -50 21 -65 21c-21 0 -28 -7 -54 -43z" />
    <glyph glyph-name="eng" unicode="&#x14b;" horiz-adv-x="556" 
d="M439 -45c-27 -124 -81 -167 -224 -163l14 70c82 -2 104 35 117 98l74 346c7 33 10 54 10 72c0 48 -27 77 -97 77c-81 0 -150 -52 -174 -163l-63 -292h-94l111 521h87l-15 -81c37 64 98 95 182 95c104 0 162 -42 162 -126c0 -26 -7 -63 -18 -117z" />
    <glyph glyph-name="o" unicode="o" horiz-adv-x="588" 
d="M135 193c0 -82 46 -126 121 -126c152 0 198 167 198 261c0 80 -45 126 -122 126c-152 0 -197 -167 -197 -261zM40 198c0 142 79 337 292 337c134 0 217 -69 217 -208c0 -142 -77 -341 -293 -341c-131 0 -216 69 -216 212z" />
    <glyph glyph-name="oacute" unicode="&#xf3;" horiz-adv-x="588" 
d="M135 193c0 -82 46 -126 121 -126c152 0 198 167 198 261c0 80 -45 126 -122 126c-152 0 -197 -167 -197 -261zM40 198c0 142 79 337 292 337c134 0 217 -69 217 -208c0 -142 -77 -341 -293 -341c-131 0 -216 69 -216 212zM220 604l1 4l198 151l109 2l-1 -4l-217 -153h-90
z" />
    <glyph glyph-name="ocircumflex" unicode="&#xf4;" horiz-adv-x="588" 
d="M135 193c0 -82 46 -126 121 -126c152 0 198 167 198 261c0 80 -45 126 -122 126c-152 0 -197 -167 -197 -261zM40 198c0 142 79 337 292 337c134 0 217 -69 217 -208c0 -142 -77 -341 -293 -341c-131 0 -216 69 -216 212zM180 603l158 159h78l91 -159h-83l-58 105
l-102 -105h-84z" />
    <glyph glyph-name="odieresis" unicode="&#xf6;" horiz-adv-x="588" 
d="M135 193c0 -82 46 -126 121 -126c152 0 198 167 198 261c0 80 -45 126 -122 126c-152 0 -197 -167 -197 -261zM40 198c0 142 79 337 292 337c134 0 217 -69 217 -208c0 -142 -77 -341 -293 -341c-131 0 -216 69 -216 212zM242 675c0 29 23 51 51 51c29 0 51 -22 51 -51
c0 -28 -22 -51 -51 -51c-28 0 -51 23 -51 51zM401 675c0 29 22 51 51 51c28 0 51 -22 51 -51c0 -28 -23 -51 -51 -51c-29 0 -51 23 -51 51z" />
    <glyph glyph-name="ograve" unicode="&#xf2;" horiz-adv-x="588" 
d="M135 193c0 -82 46 -126 121 -126c152 0 198 167 198 261c0 80 -45 126 -122 126c-152 0 -197 -167 -197 -261zM40 198c0 142 79 337 292 337c134 0 217 -69 217 -208c0 -142 -77 -341 -293 -341c-131 0 -216 69 -216 212zM233 757l1 4l106 -2l133 -151v-4h-86z" />
    <glyph glyph-name="ohungarumlaut" unicode="&#x151;" horiz-adv-x="588" 
d="M135 193c0 -82 46 -126 121 -126c152 0 198 167 198 261c0 80 -45 126 -122 126c-152 0 -197 -167 -197 -261zM40 198c0 142 79 337 292 337c134 0 217 -69 217 -208c0 -142 -77 -341 -293 -341c-131 0 -216 69 -216 212zM138 600l1 4l184 155l93 2l-1 -4l-200 -157h-77z
M337 600v4l184 155l94 2l-1 -4l-201 -157h-76z" />
    <glyph glyph-name="omacron" unicode="&#x14d;" horiz-adv-x="588" 
d="M135 193c0 -82 46 -126 121 -126c152 0 198 167 198 261c0 80 -45 126 -122 126c-152 0 -197 -167 -197 -261zM40 198c0 142 79 337 292 337c134 0 217 -69 217 -208c0 -142 -77 -341 -293 -341c-131 0 -216 69 -216 212zM216 640l13 59h270l-13 -59h-270z" />
    <glyph glyph-name="oslash" unicode="&#xf8;" horiz-adv-x="571" 
d="M524 531l45 -45l-49 -46c14 -28 22 -63 22 -103c0 -144 -81 -351 -302 -351c-62 0 -113 16 -149 46l-43 -41l-45 45l49 47c-14 28 -22 64 -22 105c0 144 82 347 301 347c62 0 113 -15 149 -45zM125 187c0 -12 1 -22 3 -32l285 270c-21 19 -49 29 -85 29
c-156 0 -203 -175 -203 -267zM158 96c21 -19 50 -29 85 -29c156 0 204 175 204 267c0 12 -1 23 -3 33z" />
    <glyph glyph-name="otilde" unicode="&#xf5;" horiz-adv-x="588" 
d="M135 193c0 -82 46 -126 121 -126c152 0 198 167 198 261c0 80 -45 126 -122 126c-152 0 -197 -167 -197 -261zM40 198c0 142 79 337 292 337c134 0 217 -69 217 -208c0 -142 -77 -341 -293 -341c-131 0 -216 69 -216 212zM179 638c44 70 66 88 107 88c21 0 44 -7 78 -24
c33 -18 51 -22 64 -22c21 0 30 8 56 45l51 -20c-45 -72 -66 -91 -108 -91c-20 0 -43 8 -77 25c-31 16 -50 21 -65 21c-21 0 -28 -7 -54 -43z" />
    <glyph glyph-name="oe" unicode="&#x153;" horiz-adv-x="971" 
d="M337 454c-158 0 -204 -172 -204 -260c0 -91 50 -127 121 -127c107 0 204 125 204 267c0 79 -56 120 -121 120zM37 188c0 134 76 347 304 347c85 0 156 -39 184 -114c53 75 129 114 224 114c130 0 189 -66 189 -178c0 -30 -7 -97 -19 -131h-383c-17 -116 28 -159 115 -159
c70 0 127 35 157 96h92c-44 -113 -138 -177 -260 -177c-100 0 -160 37 -182 108c-51 -69 -128 -108 -210 -108c-134 0 -211 69 -211 202zM554 305h288c3 16 4 32 4 48c0 75 -46 101 -109 101c-80 0 -147 -38 -183 -149z" />
    <glyph glyph-name="p" unicode="p" horiz-adv-x="598" 
d="M57 -190h-95l151 711h87l-17 -89c29 63 110 103 194 103c125 0 184 -74 184 -190c0 -206 -119 -359 -277 -359c-88 0 -163 32 -168 107zM146 237c-26 -129 47 -170 124 -170c117 0 193 119 193 262c0 70 -37 123 -123 123s-158 -52 -186 -177z" />
    <glyph glyph-name="thorn" unicode="&#xfe;" horiz-adv-x="598" 
d="M56 -190h-95l197 920h94l-60 -282c34 54 108 87 185 87c125 0 184 -74 184 -190c0 -206 -119 -359 -277 -359c-88 0 -163 32 -168 108zM146 237c-26 -129 47 -170 124 -170c117 0 193 119 193 262c0 70 -37 123 -123 123c-80 0 -149 -45 -180 -154l-5 -23z" />
    <glyph glyph-name="q" unicode="q" horiz-adv-x="602" 
d="M355 -190l56 273c-32 -61 -103 -97 -190 -97c-119 0 -184 73 -184 190c0 206 119 359 278 359c101 0 163 -48 170 -113l24 99h87l-147 -711h-94zM135 192c0 -70 37 -123 123 -123c87 0 159 52 186 177l8 38c27 128 -47 170 -124 170c-117 0 -193 -119 -193 -262z" />
    <glyph glyph-name="r" unicode="r" horiz-adv-x="358" 
d="M351 535c13 0 25 0 34 -3l-17 -77c-105 10 -185 -47 -217 -197v3l-55 -261h-94l111 521h87l-18 -98c10 21 21 37 34 51c35 40 91 61 135 61z" />
    <glyph glyph-name="racute" unicode="&#x155;" horiz-adv-x="358" 
d="M351 535c13 0 25 0 34 -3l-17 -77c-105 10 -185 -47 -217 -197v3l-55 -261h-94l111 521h87l-18 -98c10 21 21 37 34 51c35 40 91 61 135 61zM126 604l1 4l198 151l109 2l-1 -4l-217 -153h-90z" />
    <glyph glyph-name="rcaron" unicode="&#x159;" horiz-adv-x="358" 
d="M351 535c13 0 25 0 34 -3l-17 -77c-105 10 -185 -47 -217 -197v3l-55 -261h-94l111 521h87l-18 -98c10 21 21 37 34 51c35 40 91 61 135 61zM118 758h83l58 -106l103 106h84l-158 -159h-78z" />
    <glyph glyph-name="uni0157" unicode="&#x157;" horiz-adv-x="358" 
d="M351 535c13 0 25 0 34 -3l-17 -77c-105 10 -185 -47 -217 -197v3l-55 -261h-94l111 521h87l-18 -98c10 21 21 37 34 51c35 40 91 61 135 61zM-105 -190l153 138h103v-7l-167 -131h-89z" />
    <glyph glyph-name="s" unicode="s" horiz-adv-x="518" 
d="M303 535c142 0 205 -58 186 -167h-86c11 64 -28 90 -110 90c-69 0 -120 -35 -120 -82c0 -46 33 -62 111 -76c115 -21 172 -55 172 -142c0 -102 -92 -172 -236 -172c-145 0 -214 50 -202 169h89c-9 -68 31 -92 121 -92c75 0 134 35 134 85c0 42 -35 57 -124 74
c-106 21 -159 57 -159 143c0 98 90 170 224 170z" />
    <glyph glyph-name="sacute" unicode="&#x15b;" horiz-adv-x="518" 
d="M303 535c142 0 205 -58 186 -167h-86c11 64 -28 90 -110 90c-69 0 -120 -35 -120 -82c0 -46 33 -62 111 -76c115 -21 172 -55 172 -142c0 -102 -92 -172 -236 -172c-145 0 -214 50 -202 169h89c-9 -68 31 -92 121 -92c75 0 134 35 134 85c0 42 -35 57 -124 74
c-106 21 -159 57 -159 143c0 98 90 170 224 170zM208 604l1 4l198 151l109 2l-1 -4l-217 -153h-90z" />
    <glyph glyph-name="scaron" unicode="&#x161;" horiz-adv-x="518" 
d="M303 535c142 0 205 -58 186 -167h-86c11 64 -28 90 -110 90c-69 0 -120 -35 -120 -82c0 -46 33 -62 111 -76c115 -21 172 -55 172 -142c0 -102 -92 -172 -236 -172c-145 0 -214 50 -202 169h89c-9 -68 31 -92 121 -92c75 0 134 35 134 85c0 42 -35 57 -124 74
c-106 21 -159 57 -159 143c0 98 90 170 224 170zM200 758h83l58 -106l103 106h84l-158 -159h-78z" />
    <glyph glyph-name="scedilla" unicode="&#x15f;" horiz-adv-x="518" 
d="M303 535c142 0 205 -58 186 -167h-86c11 64 -28 90 -110 90c-69 0 -120 -35 -120 -82c0 -46 33 -62 111 -76c115 -21 172 -55 172 -142c0 -100 -88 -169 -227 -172l-21 -24c49 -7 77 -29 77 -71c0 -56 -59 -95 -150 -95c-22 0 -42 2 -60 8l10 45c15 -5 29 -6 40 -6
c49 0 81 16 81 44c0 23 -26 38 -80 35l3 14l39 52c-109 12 -160 63 -150 167h89c-9 -68 31 -92 121 -92c75 0 134 35 134 85c0 42 -35 57 -124 74c-106 21 -159 57 -159 143c0 98 90 170 224 170z" />
    <glyph glyph-name="uni0219" unicode="&#x219;" horiz-adv-x="518" 
d="M303 535c142 0 205 -58 186 -167h-86c11 64 -28 90 -110 90c-69 0 -120 -35 -120 -82c0 -46 33 -62 111 -76c115 -21 172 -55 172 -142c0 -102 -92 -172 -236 -172c-145 0 -214 50 -202 169h89c-9 -68 31 -92 121 -92c75 0 134 35 134 85c0 42 -35 57 -124 74
c-106 21 -159 57 -159 143c0 98 90 170 224 170zM56 -190l153 138h103v-7l-167 -131h-89z" />
    <glyph glyph-name="germandbls" unicode="&#xdf;" horiz-adv-x="628" 
d="M393 744c121 0 202 -63 202 -156c0 -60 -28 -105 -81 -140c-47 -32 -72 -56 -72 -79c0 -20 13 -41 42 -76c40 -49 58 -85 58 -129c0 -101 -94 -172 -233 -172c-42 0 -77 4 -118 15l15 86c39 -11 71 -14 100 -14c83 0 138 34 138 86c0 25 -16 54 -52 97
c-34 43 -48 68 -48 104c0 52 43 87 89 117s64 51 64 95c0 55 -46 80 -113 80c-113 0 -163 -73 -190 -198l-98 -460h-94l100 473c35 162 109 271 291 271z" />
    <glyph glyph-name="t" unicode="t" horiz-adv-x="339" 
d="M163 146c-15 -71 -2 -82 99 -76l-15 -75c-26 -3 -51 -5 -85 -5c-76 0 -103 29 -103 76c0 20 6 56 18 115l55 263h-70l15 74h70l33 159h94l-33 -159h119l-15 -74h-120z" />
    <glyph glyph-name="tbar" unicode="&#x167;" horiz-adv-x="326" 
d="M282 338l-1 -64h-91l-27 -128c-15 -71 -2 -82 99 -76l-15 -75c-26 -3 -51 -5 -85 -5c-76 0 -103 29 -103 76c0 20 6 56 18 115l19 93h-56l1 64h69l22 106h-70l15 74h70l33 159h94l-33 -159h119l-15 -74h-120l-22 -106h79z" />
    <glyph glyph-name="tcaron" unicode="&#x165;" horiz-adv-x="368" 
d="M447 737l-3 -15l-78 -170h-71l75 185h77zM59 66c0 20 6 56 18 115l55 263h-70l15 74h70l33 159h94l-33 -159h119l-15 -74h-120l-62 -298c-15 -71 -2 -82 99 -76l-15 -75c-26 -3 -51 -5 -85 -5c-76 0 -103 29 -103 76z" />
    <glyph glyph-name="uni0163" unicode="&#x163;" horiz-adv-x="339" 
d="M163 146c-15 -71 -2 -82 99 -76l-15 -75c-25 -3 -49 -5 -80 -5l-24 -28c49 -7 77 -29 77 -71c0 -56 -59 -95 -150 -95c-22 0 -42 2 -60 8l10 45c15 -5 29 -6 40 -6c49 0 81 16 81 44c0 23 -26 38 -80 35l3 14l45 61c-36 11 -50 35 -50 69c0 20 6 56 18 115l55 263h-70
l15 74h70l33 159h94l-33 -159h119l-15 -74h-120z" />
    <glyph glyph-name="uni021B" unicode="&#x21b;" horiz-adv-x="339" 
d="M163 146c-15 -71 -2 -82 99 -76l-15 -75c-26 -3 -51 -5 -85 -5c-76 0 -103 29 -103 76c0 20 6 56 18 115l55 263h-70l15 74h70l33 159h94l-33 -159h119l-15 -74h-120zM-9 -190l153 138h103v-7l-167 -131h-89z" />
    <glyph glyph-name="u" unicode="u" horiz-adv-x="568" 
d="M193 -14c-89 0 -149 37 -149 128c0 22 5 60 13 97l66 310h94l-67 -311c-5 -23 -8 -44 -8 -62c0 -49 27 -79 95 -79c80 0 148 43 175 165l61 287h93l-111 -521h-87l15 82c-7 -16 -16 -29 -27 -40c-42 -41 -102 -56 -163 -56z" />
    <glyph glyph-name="uacute" unicode="&#xfa;" horiz-adv-x="568" 
d="M193 -14c-89 0 -149 37 -149 128c0 22 5 60 13 97l66 310h94l-67 -311c-5 -23 -8 -44 -8 -62c0 -49 27 -79 95 -79c80 0 148 43 175 165l61 287h93l-111 -521h-87l15 82c-7 -16 -16 -29 -27 -40c-42 -41 -102 -56 -163 -56zM240 604l1 4l198 151l109 2l-1 -4l-217 -153
h-90z" />
    <glyph glyph-name="ucircumflex" unicode="&#xfb;" horiz-adv-x="568" 
d="M193 -14c-89 0 -149 37 -149 128c0 22 5 60 13 97l66 310h94l-67 -311c-5 -23 -8 -44 -8 -62c0 -49 27 -79 95 -79c80 0 148 43 175 165l61 287h93l-111 -521h-87l15 82c-7 -16 -16 -29 -27 -40c-42 -41 -102 -56 -163 -56zM199 603l158 159h78l91 -159h-83l-58 105
l-102 -105h-84z" />
    <glyph glyph-name="udieresis" unicode="&#xfc;" horiz-adv-x="568" 
d="M193 -14c-89 0 -149 37 -149 128c0 22 5 60 13 97l66 310h94l-67 -311c-5 -23 -8 -44 -8 -62c0 -49 27 -79 95 -79c80 0 148 43 175 165l61 287h93l-111 -521h-87l15 82c-7 -16 -16 -29 -27 -40c-42 -41 -102 -56 -163 -56zM261 675c0 29 23 51 51 51c29 0 51 -22 51 -51
c0 -28 -22 -51 -51 -51c-28 0 -51 23 -51 51zM420 675c0 29 22 51 51 51c28 0 51 -22 51 -51c0 -28 -23 -51 -51 -51c-29 0 -51 23 -51 51z" />
    <glyph glyph-name="ugrave" unicode="&#xf9;" horiz-adv-x="568" 
d="M193 -14c-89 0 -149 37 -149 128c0 22 5 60 13 97l66 310h94l-67 -311c-5 -23 -8 -44 -8 -62c0 -49 27 -79 95 -79c80 0 148 43 175 165l61 287h93l-111 -521h-87l15 82c-7 -16 -16 -29 -27 -40c-42 -41 -102 -56 -163 -56zM252 757l1 4l106 -2l133 -151v-4h-86z" />
    <glyph glyph-name="uhungarumlaut" unicode="&#x171;" horiz-adv-x="568" 
d="M193 -14c-89 0 -149 37 -149 128c0 22 5 60 13 97l66 310h94l-67 -311c-5 -23 -8 -44 -8 -62c0 -49 27 -79 95 -79c80 0 148 43 175 165l61 287h93l-111 -521h-87l15 82c-7 -16 -16 -29 -27 -40c-42 -41 -102 -56 -163 -56zM157 600l1 4l184 155l93 2l-1 -4l-200 -157
h-77zM356 600v4l184 155l94 2l-1 -4l-201 -157h-76z" />
    <glyph glyph-name="umacron" unicode="&#x16b;" horiz-adv-x="568" 
d="M193 -14c-89 0 -149 37 -149 128c0 22 5 60 13 97l66 310h94l-67 -311c-5 -23 -8 -44 -8 -62c0 -49 27 -79 95 -79c80 0 148 43 175 165l61 287h93l-111 -521h-87l15 82c-7 -16 -16 -29 -27 -40c-42 -41 -102 -56 -163 -56zM236 640l13 59h270l-13 -59h-270z" />
    <glyph glyph-name="uogonek" unicode="&#x173;" horiz-adv-x="568" 
d="M193 -14c-89 0 -149 37 -149 128c0 22 5 60 13 97l66 310h94l-67 -311c-5 -23 -8 -44 -8 -62c0 -49 27 -79 95 -79c80 0 148 43 175 165l61 287h93l-111 -521c-63 -26 -111 -76 -111 -115c0 -22 16 -32 43 -32c14 0 29 3 44 8l-17 -51c-26 -9 -51 -14 -78 -14
c-41 0 -76 16 -76 58c0 56 47 108 112 146h-4l15 82c-7 -16 -16 -29 -27 -40c-42 -41 -102 -56 -163 -56z" />
    <glyph glyph-name="uring" unicode="&#x16f;" horiz-adv-x="568" 
d="M193 -14c-89 0 -149 37 -149 128c0 22 5 60 13 97l66 310h94l-67 -311c-5 -23 -8 -44 -8 -62c0 -49 27 -79 95 -79c80 0 148 43 175 165l61 287h93l-111 -521h-87l15 82c-7 -16 -16 -29 -27 -40c-42 -41 -102 -56 -163 -56zM264 678c0 67 65 108 136 108
c60 0 103 -30 103 -80c0 -68 -65 -107 -135 -107c-62 0 -104 31 -104 79zM328 682c0 -24 17 -39 46 -39c40 0 65 30 65 59c0 24 -17 40 -46 40c-40 0 -65 -31 -65 -60z" />
    <glyph glyph-name="v" unicode="v" horiz-adv-x="547" 
d="M596 521l-323 -521h-106l-106 521h101l75 -437l253 437h106z" />
    <glyph glyph-name="w" unicode="w" horiz-adv-x="772" 
d="M819 521l-262 -521h-101c-20 143 -36 271 -47 399c-59 -124 -134 -272 -202 -399h-101l-43 521h93c9 -149 18 -291 23 -436c68 135 137 275 213 424h85c17 -148 31 -291 42 -429c66 141 135 291 208 441h92z" />
    <glyph glyph-name="wacute" unicode="&#x1e83;" horiz-adv-x="772" 
d="M819 521l-262 -521h-101c-20 143 -36 271 -47 399c-59 -124 -134 -272 -202 -399h-101l-43 521h93c9 -149 18 -291 23 -436c68 135 137 275 213 424h85c17 -148 31 -291 42 -429c66 141 135 291 208 441h92zM335 604l1 4l198 151l109 2l-1 -4l-217 -153h-90z" />
    <glyph glyph-name="wcircumflex" unicode="&#x175;" horiz-adv-x="772" 
d="M819 521l-262 -521h-101c-20 143 -36 271 -47 399c-59 -124 -134 -272 -202 -399h-101l-43 521h93c9 -149 18 -291 23 -436c68 135 137 275 213 424h85c17 -148 31 -291 42 -429c66 141 135 291 208 441h92zM295 603l158 159h78l91 -159h-83l-58 105l-102 -105h-84z" />
    <glyph glyph-name="wdieresis" unicode="&#x1e85;" horiz-adv-x="772" 
d="M819 521l-262 -521h-101c-20 143 -36 271 -47 399c-59 -124 -134 -272 -202 -399h-101l-43 521h93c9 -149 18 -291 23 -436c68 135 137 275 213 424h85c17 -148 31 -291 42 -429c66 141 135 291 208 441h92zM357 675c0 29 23 51 51 51c29 0 51 -22 51 -51
c0 -28 -22 -51 -51 -51c-28 0 -51 23 -51 51zM516 675c0 29 22 51 51 51c28 0 51 -22 51 -51c0 -28 -23 -51 -51 -51c-29 0 -51 23 -51 51z" />
    <glyph glyph-name="wgrave" unicode="&#x1e81;" horiz-adv-x="772" 
d="M819 521l-262 -521h-101c-20 143 -36 271 -47 399c-59 -124 -134 -272 -202 -399h-101l-43 521h93c9 -149 18 -291 23 -436c68 135 137 275 213 424h85c17 -148 31 -291 42 -429c66 141 135 291 208 441h92zM348 757l1 4l106 -2l133 -151v-4h-86z" />
    <glyph glyph-name="x" unicode="x" horiz-adv-x="520" 
d="M566 521l-249 -268l137 -253h-108l-101 200l-184 -200h-107l248 269l-129 252h103l98 -201l180 201h112z" />
    <glyph glyph-name="y" unicode="y" horiz-adv-x="534" 
d="M266 0c-106 -174 -167 -210 -265 -210c-22 0 -37 2 -51 6l17 79c16 -3 30 -4 46 -4c40 0 84 21 124 86l17 28l-93 536h107l57 -441l250 441h108z" />
    <glyph glyph-name="yacute" unicode="&#xfd;" horiz-adv-x="534" 
d="M266 0c-106 -174 -167 -210 -265 -210c-22 0 -37 2 -51 6l17 79c16 -3 30 -4 46 -4c40 0 84 21 124 86l17 28l-93 536h107l57 -441l250 441h108zM215 604l1 4l198 151l109 2l-1 -4l-217 -153h-90z" />
    <glyph glyph-name="ycircumflex" unicode="&#x177;" horiz-adv-x="534" 
d="M266 0c-106 -174 -167 -210 -265 -210c-22 0 -37 2 -51 6l17 79c16 -3 30 -4 46 -4c40 0 84 21 124 86l17 28l-93 536h107l57 -441l250 441h108zM174 603l158 159h78l91 -159h-83l-58 105l-102 -105h-84z" />
    <glyph glyph-name="ydieresis" unicode="&#xff;" horiz-adv-x="534" 
d="M266 0c-106 -174 -167 -210 -265 -210c-22 0 -37 2 -51 6l17 79c16 -3 30 -4 46 -4c40 0 84 21 124 86l17 28l-93 536h107l57 -441l250 441h108zM236 675c0 29 23 51 51 51c29 0 51 -22 51 -51c0 -28 -22 -51 -51 -51c-28 0 -51 23 -51 51zM395 675c0 29 22 51 51 51
c28 0 51 -22 51 -51c0 -28 -23 -51 -51 -51c-29 0 -51 23 -51 51z" />
    <glyph glyph-name="ygrave" unicode="&#x1ef3;" horiz-adv-x="534" 
d="M266 0c-106 -174 -167 -210 -265 -210c-22 0 -37 2 -51 6l17 79c16 -3 30 -4 46 -4c40 0 84 21 124 86l17 28l-93 536h107l57 -441l250 441h108zM228 757l1 4l106 -2l133 -151v-4h-86z" />
    <glyph glyph-name="z" unicode="z" horiz-adv-x="526" 
d="M524 521l-12 -57l-376 -389h302l-15 -75h-432l12 56l379 390h-284l14 75h412z" />
    <glyph glyph-name="zacute" unicode="&#x17a;" horiz-adv-x="526" 
d="M524 521l-12 -57l-376 -389h302l-15 -75h-432l12 56l379 390h-284l14 75h412zM205 604l1 4l198 151l109 2l-1 -4l-217 -153h-90z" />
    <glyph glyph-name="zcaron" unicode="&#x17e;" horiz-adv-x="526" 
d="M524 521l-12 -57l-376 -389h302l-15 -75h-432l12 56l379 390h-284l14 75h412zM197 758h83l58 -106l103 106h84l-158 -159h-78z" />
    <glyph glyph-name="zdotaccent" unicode="&#x17c;" horiz-adv-x="526" 
d="M524 521l-12 -57l-376 -389h302l-15 -75h-432l12 56l379 390h-284l14 75h412zM285 675c0 32 25 57 56 57c32 0 57 -25 57 -57c0 -31 -25 -56 -57 -56c-31 0 -56 25 -56 56z" />
    <glyph glyph-name="zero" unicode="0" horiz-adv-x="584" 
d="M582 472c0 -163 -65 -486 -301 -486c-95 0 -235 48 -235 272c0 162 66 486 304 486c89 0 232 -42 232 -272zM145 258c0 -145 67 -184 132 -184c161 0 205 287 205 400c0 132 -55 182 -131 182c-160 0 -206 -280 -206 -398z" />
    <glyph glyph-name="one" unicode="1" horiz-adv-x="584" 
d="M479 733l-150 -733h-97l126 614h-186l10 48l253 71h44z" />
    <glyph glyph-name="two" unicode="2" horiz-adv-x="584" 
d="M384 744c136 0 209 -72 209 -176c0 -151 -152 -265 -293 -366l-160 -116h365l-18 -86h-498l19 95l215 155c183 130 267 206 267 309c0 60 -41 97 -116 97c-99 0 -152 -53 -179 -141h-97c38 144 125 229 286 229z" />
    <glyph glyph-name="three" unicode="3" horiz-adv-x="584" 
d="M387 744c127 0 204 -63 204 -166c0 -100 -81 -177 -186 -205c77 -18 122 -66 122 -142c0 -144 -124 -245 -288 -245c-143 0 -230 59 -211 215h97c-7 -85 28 -127 128 -127c101 0 176 62 176 151c0 69 -60 103 -166 103h-43l19 86h43c126 0 205 58 205 151
c0 59 -42 91 -112 91c-86 0 -143 -48 -168 -127h-98c32 132 128 215 278 215z" />
    <glyph glyph-name="four" unicode="4" horiz-adv-x="584" 
d="M466 730h99l-91 -444h98l-19 -86h-97l-41 -200h-96l41 200h-357l19 89zM132 286h246l63 310z" />
    <glyph glyph-name="five" unicode="5" horiz-adv-x="584" 
d="M619 730l-19 -86h-326l-84 -245c39 57 96 78 163 78c115 0 198 -64 198 -199c0 -157 -117 -292 -300 -292c-158 0 -231 66 -214 205h98c-4 -74 24 -117 122 -117c110 0 193 85 193 200c0 82 -55 115 -121 115c-74 0 -126 -27 -165 -82h-95l141 423h409z" />
    <glyph glyph-name="six" unicode="6" horiz-adv-x="584" 
d="M387 744c161 0 220 -82 208 -202h-98c3 75 -34 114 -117 114c-104 0 -208 -96 -231 -303c31 82 116 119 195 119c132 0 206 -79 206 -208c0 -161 -127 -278 -286 -278c-133 0 -223 74 -223 241c0 281 120 517 346 517zM137 212c0 -79 39 -138 132 -138
c100 0 183 70 183 185c0 78 -50 125 -132 125c-106 0 -183 -74 -183 -172z" />
    <glyph glyph-name="seven" unicode="7" horiz-adv-x="584" 
d="M633 637c-175 -170 -333 -385 -460 -637h-110c130 246 277 460 450 644h-386l18 86h509z" />
    <glyph glyph-name="eight" unicode="8" horiz-adv-x="584" 
d="M381 744c138 0 216 -68 216 -169c0 -93 -67 -170 -166 -199c68 -26 116 -85 116 -162c0 -137 -121 -228 -296 -228c-141 0 -240 58 -240 178c0 102 73 184 192 217c-65 26 -96 80 -96 143c0 130 116 220 274 220zM111 183c0 -77 72 -109 153 -109c102 0 185 54 185 141
c0 66 -58 117 -147 117c-107 0 -191 -69 -191 -149zM204 523c0 -69 58 -102 120 -102c97 0 173 57 173 135c0 59 -52 100 -128 100c-91 0 -165 -55 -165 -133z" />
    <glyph glyph-name="nine" unicode="9" horiz-adv-x="584" 
d="M231 -14c-161 0 -220 82 -208 202h98c-3 -75 34 -114 117 -114c104 0 208 96 231 303c-31 -82 -116 -119 -195 -119c-132 0 -206 79 -206 208c0 161 128 278 286 278c133 0 223 -74 223 -241c0 -281 -120 -517 -346 -517zM166 471c0 -78 50 -125 132 -125
c106 0 183 74 183 172c0 79 -39 138 -132 138c-99 0 -183 -70 -183 -185z" />
    <glyph glyph-name="zero.prop" horiz-adv-x="637" 
d="M626 463c0 -154 -69 -477 -322 -477c-101 0 -248 49 -248 282c0 153 69 476 336 476c94 0 234 -44 234 -281zM155 271c0 -157 80 -197 147 -197c177 0 226 275 226 386c0 157 -72 196 -142 196c-182 0 -231 -270 -231 -385z" />
    <glyph glyph-name="one.prop" horiz-adv-x="439" 
d="M401 733l-150 -733h-97l126 614h-186l10 48l253 71h44z" />
    <glyph glyph-name="two.prop" horiz-adv-x="587" 
d="M384 744c136 0 209 -72 209 -176c0 -151 -152 -265 -293 -366l-160 -116h365l-18 -86h-498l19 95l215 155c183 130 267 206 267 309c0 60 -41 97 -116 97c-99 0 -152 -53 -179 -141h-97c38 144 125 229 286 229z" />
    <glyph glyph-name="three.prop" horiz-adv-x="592" 
d="M378 744c127 0 204 -63 204 -166c0 -100 -81 -177 -186 -205c77 -18 122 -66 122 -142c0 -144 -124 -245 -288 -245c-143 0 -230 59 -211 215h97c-7 -85 28 -127 128 -127c101 0 176 62 176 151c0 69 -60 103 -166 103h-43l19 86h43c126 0 205 58 205 151
c0 59 -42 91 -112 91c-86 0 -143 -48 -168 -127h-98c32 132 128 215 278 215z" />
    <glyph glyph-name="four.prop" horiz-adv-x="597" 
d="M476 730h99l-91 -444h98l-19 -86h-97l-41 -200h-96l41 200h-357l19 89zM142 286h246l63 310z" />
    <glyph glyph-name="five.prop" horiz-adv-x="584" 
d="M619 730l-19 -86h-326l-84 -245c39 57 96 78 163 78c115 0 198 -64 198 -199c0 -157 -117 -292 -300 -292c-158 0 -231 66 -214 205h98c-4 -74 24 -117 122 -117c110 0 193 85 193 200c0 82 -55 115 -121 115c-74 0 -126 -27 -165 -82h-95l141 423h409z" />
    <glyph glyph-name="six.prop" 
d="M387 744c161 0 220 -82 208 -202h-98c3 75 -34 114 -117 114c-104 0 -208 -96 -231 -303c31 82 116 119 195 119c132 0 206 -79 206 -208c0 -161 -127 -278 -286 -278c-133 0 -223 74 -223 241c0 281 120 517 346 517zM137 212c0 -79 39 -138 132 -138
c100 0 183 70 183 185c0 78 -50 125 -132 125c-106 0 -183 -74 -183 -172z" />
    <glyph glyph-name="seven.prop" horiz-adv-x="590" 
d="M620 637c-175 -170 -333 -385 -460 -637h-110c130 246 277 460 450 644h-386l18 86h509z" />
    <glyph glyph-name="eight.prop" horiz-adv-x="615" 
d="M388 744c138 0 216 -68 216 -169c0 -93 -67 -170 -166 -199c68 -26 116 -85 116 -162c0 -137 -121 -228 -296 -228c-141 0 -240 58 -240 178c0 102 73 184 192 217c-65 26 -96 80 -96 143c0 130 116 220 274 220zM118 183c0 -77 72 -109 153 -109c102 0 185 54 185 141
c0 66 -58 117 -147 117c-107 0 -191 -69 -191 -149zM211 523c0 -69 58 -102 120 -102c97 0 173 57 173 135c0 59 -52 100 -128 100c-91 0 -165 -55 -165 -133z" />
    <glyph glyph-name="nine.prop" horiz-adv-x="584" 
d="M231 -14c-161 0 -220 82 -208 202h98c-3 -75 34 -114 117 -114c104 0 208 96 231 303c-31 -82 -116 -119 -195 -119c-132 0 -206 79 -206 208c0 161 128 278 286 278c133 0 223 -74 223 -241c0 -281 -120 -517 -346 -517zM166 471c0 -78 50 -125 132 -125
c106 0 183 74 183 172c0 79 -39 138 -132 138c-99 0 -183 -70 -183 -185z" />
    <glyph glyph-name="five.001" horiz-adv-x="584" 
d="M619 730l-19 -86h-326l-84 -245c39 57 96 78 163 78c115 0 198 -64 198 -199c0 -157 -117 -292 -300 -292c-158 0 -231 66 -214 205h98c-4 -74 24 -117 122 -117c110 0 193 85 193 200c0 82 -55 115 -121 115c-74 0 -126 -27 -165 -82h-95l141 423h409z" />
    <glyph glyph-name="fraction" unicode="&#x2044;" horiz-adv-x="298" 
d="M504 690l-594 -690h-80l594 690h80z" />
    <glyph glyph-name="period" unicode="." horiz-adv-x="215" 
d="M64 -14c-38 0 -69 31 -69 69c0 37 31 68 69 68s68 -31 68 -68c0 -38 -30 -69 -68 -69z" />
    <glyph glyph-name="comma" unicode="," horiz-adv-x="212" 
d="M136 132l-3 -25l-113 -265h-91l112 290h95z" />
    <glyph glyph-name="colon" unicode=":" horiz-adv-x="215" 
d="M66 5c-38 0 -69 31 -69 69s31 68 69 68c37 0 68 -30 68 -68s-31 -69 -68 -69zM78 448c0 38 30 68 68 68s69 -30 69 -68s-31 -69 -69 -69s-68 31 -68 69z" />
    <glyph glyph-name="semicolon" unicode=";" horiz-adv-x="215" 
d="M136 132l-3 -25l-113 -265h-91l112 290h95zM78 448c0 38 30 68 68 68s69 -30 69 -68s-31 -69 -69 -69s-68 31 -68 69z" />
    <glyph glyph-name="ellipsis" unicode="&#x2026;" horiz-adv-x="559" 
d="M64 -14c-38 0 -69 31 -69 69c0 37 31 68 69 68s68 -31 68 -68c0 -38 -30 -69 -68 -69zM168 55c0 37 31 68 69 68s68 -31 68 -68c0 -38 -30 -69 -68 -69s-69 31 -69 69zM340 55c0 37 31 68 69 68s68 -31 68 -68c0 -38 -30 -69 -68 -69s-69 31 -69 69z" />
    <glyph glyph-name="exclam" unicode="!" horiz-adv-x="273" 
d="M281 730l-119 -536h-84l105 536h98zM35 43c0 31 25 56 56 56c32 0 57 -25 57 -56s-25 -57 -57 -57c-31 0 -56 26 -56 57z" />
    <glyph glyph-name="exclamdown" unicode="&#xa1;" horiz-adv-x="272" 
d="M-10 -200l119 536h84l-105 -536h-98zM123 487c0 31 25 57 57 57c31 0 56 -26 56 -57s-25 -56 -56 -56c-32 0 -57 25 -57 56z" />
    <glyph glyph-name="question" unicode="?" horiz-adv-x="598" 
d="M372 744c129 0 234 -55 234 -184c0 -100 -78 -177 -192 -245c-82 -53 -97 -68 -108 -121h-92c19 88 47 119 147 182c91 58 146 102 146 173c0 74 -62 108 -145 108c-101 0 -160 -50 -184 -134h-94c31 134 118 221 288 221zM189 43c0 31 24 56 56 56c31 0 57 -25 57 -56
s-26 -57 -57 -57c-32 0 -56 26 -56 57z" />
    <glyph glyph-name="questiondown" unicode="&#xbf;" horiz-adv-x="529" 
d="M200 -216c-129 0 -234 55 -234 184c0 100 78 177 192 245c82 53 97 68 108 121h92c-19 -88 -47 -119 -147 -182c-91 -58 -146 -102 -146 -173c0 -74 62 -108 145 -108c101 0 160 50 184 134h94c-31 -134 -118 -221 -288 -221zM270 485c0 31 26 57 57 57
c32 0 56 -26 56 -57s-24 -56 -56 -56c-31 0 -57 25 -57 56z" />
    <glyph glyph-name="periodcentered" unicode="&#xb7;" horiz-adv-x="203" 
d="M112 251c-32 0 -59 27 -59 60s27 59 59 59c33 0 60 -26 60 -59s-27 -60 -60 -60z" />
    <glyph glyph-name="bullet" unicode="&#x2022;" horiz-adv-x="281" 
d="M151 243c-37 0 -67 30 -67 68c0 37 30 67 67 67c38 0 68 -30 68 -67c0 -38 -30 -68 -68 -68z" />
    <glyph glyph-name="asterisk" unicode="*" horiz-adv-x="577" 
d="M60 315l36 76l168 -65l35 193h80l-47 -194l193 66l18 -76l-204 -55l103 -160l-74 -44l-86 164l-140 -157l-58 49l149 149z" />
    <glyph glyph-name="numbersign" unicode="#" horiz-adv-x="610" 
d="M603 730l-92 -223h91l-12 -60h-104l-65 -158h105l-13 -60h-117l-95 -229h-70l95 229h-110l-95 -229h-70l95 229h-93l13 60h105l65 158h-106l12 60h119l92 223h70l-92 -223h110l92 223h70zM241 289h110l65 158h-110z" />
    <glyph glyph-name="slash" unicode="/" horiz-adv-x="317" 
d="M433 780l-434 -860h-76l434 860h76z" />
    <glyph glyph-name="backslash" unicode="\" horiz-adv-x="282" 
d="M106 780h68l41 -860h-68z" />
    <glyph glyph-name="colon.case" horiz-adv-x="212" 
d="M80 75c-38 0 -69 31 -69 69s31 68 69 68c37 0 68 -30 68 -68s-31 -69 -68 -69zM92 518c0 38 30 68 68 68s69 -30 69 -68s-31 -69 -69 -69s-68 31 -68 69z" />
    <glyph glyph-name="semicolon.case" horiz-adv-x="212" 
d="M150 202l-3 -25l-113 -265h-91l112 290h95zM92 518c0 38 30 68 68 68s69 -30 69 -68s-31 -69 -69 -69s-68 31 -68 69z" />
    <glyph glyph-name="hyphen" unicode="-" horiz-adv-x="307" 
d="M289 325l-16 -75h-243l16 75h243z" />
    <glyph glyph-name="endash" unicode="&#x2013;" horiz-adv-x="518" 
d="M455 328l-15 -68h-363l14 68h364z" />
    <glyph glyph-name="emdash" unicode="&#x2014;" horiz-adv-x="1000" 
d="M937 328l-14 -68h-846l15 68h845z" />
    <glyph glyph-name="underscore" unicode="_" horiz-adv-x="500" 
d="M425 -46l-14 -67h-480l14 67h480z" />
    <glyph glyph-name="hyphen.case" horiz-adv-x="307" 
d="M305 405l-16 -75h-243l16 75h243z" />
    <glyph glyph-name="endash.case" horiz-adv-x="518" 
d="M472 406l-16 -76h-364l17 76h363z" />
    <glyph glyph-name="emdash.case" horiz-adv-x="1000" 
d="M954 406l-16 -76h-846l16 76h846z" />
    <glyph glyph-name="parenleft" unicode="(" horiz-adv-x="320" 
d="M106 -150c-30 80 -44 166 -44 254c0 233 94 472 230 646h90c-141 -174 -237 -419 -237 -635c0 -97 17 -188 46 -265h-85z" />
    <glyph glyph-name="parenright" unicode=")" horiz-adv-x="319" 
d="M231 750c30 -80 44 -166 44 -254c0 -233 -94 -472 -230 -646h-90c141 174 237 419 237 635c0 97 -17 188 -46 265h85z" />
    <glyph glyph-name="braceleft" unicode="{" horiz-adv-x="357" 
d="M174 -140c-74 0 -125 24 -125 83c0 32 15 77 41 150c13 36 34 97 34 123c0 28 -17 52 -71 55l12 58c100 6 106 75 115 200c12 158 38 211 178 211h70l-13 -64h-48c-82 0 -105 -22 -113 -143c-9 -127 -17 -210 -106 -234c36 -11 51 -38 51 -72c0 -29 -15 -77 -39 -144
c-20 -57 -31 -91 -31 -115c0 -32 24 -44 76 -44h50l-14 -64h-67z" />
    <glyph glyph-name="braceright" unicode="}" horiz-adv-x="357" 
d="M201 740c74 0 125 -24 125 -83c0 -32 -15 -77 -41 -150c-13 -36 -34 -97 -34 -123c0 -28 17 -52 71 -55l-12 -58c-100 -6 -106 -75 -115 -200c-12 -158 -38 -211 -178 -211h-70l13 64h48c82 0 105 22 113 143c9 127 17 210 106 234c-36 11 -51 38 -51 72
c0 29 15 77 39 144c20 57 31 91 31 115c0 32 -24 44 -76 44h-50l14 64h67z" />
    <glyph glyph-name="bracketleft" unicode="[" horiz-adv-x="355" 
d="M-1 -140l187 880h240l-13 -64h-168l-161 -752h169l-14 -64h-240z" />
    <glyph glyph-name="bracketright" unicode="]" horiz-adv-x="356" 
d="M374 740l-187 -880h-240l13 64h168l161 752h-169l14 64h240z" />
    <glyph glyph-name="parenleft.case" horiz-adv-x="319" 
d="M116 -100c-30 80 -44 166 -44 254c0 233 94 472 230 646h90c-141 -174 -237 -419 -237 -635c0 -97 17 -188 46 -265h-85z" />
    <glyph glyph-name="parenright.case" horiz-adv-x="320" 
d="M242 800c30 -80 44 -166 44 -254c0 -233 -94 -472 -230 -646h-90c141 174 237 419 237 635c0 97 -17 188 -46 265h85z" />
    <glyph glyph-name="braceleft.case" horiz-adv-x="358" 
d="M185 -90c-74 0 -125 24 -125 83c0 32 15 77 41 150c13 36 34 97 34 123c0 28 -17 52 -71 55l12 58c100 6 106 75 115 200c12 158 38 211 178 211h70l-13 -64h-48c-82 0 -105 -22 -113 -143c-9 -127 -17 -210 -106 -234c36 -11 51 -38 51 -72c0 -29 -15 -77 -39 -144
c-20 -57 -31 -91 -31 -115c0 -32 24 -44 76 -44h50l-14 -64h-67z" />
    <glyph glyph-name="braceright.case" horiz-adv-x="357" 
d="M211 790c74 0 125 -24 125 -83c0 -32 -15 -77 -41 -150c-13 -36 -34 -97 -34 -123c0 -28 17 -52 71 -55l-12 -58c-100 -6 -106 -75 -115 -200c-12 -158 -38 -211 -178 -211h-70l13 64h48c82 0 105 22 113 143c9 127 17 210 106 234c-36 11 -51 38 -51 72
c0 29 15 77 39 144c20 57 31 91 31 115c0 32 -24 44 -76 44h-50l14 64h67z" />
    <glyph glyph-name="bracketleft.case" horiz-adv-x="356" 
d="M10 -90l187 880h240l-13 -64h-168l-161 -752h169l-14 -64h-240z" />
    <glyph glyph-name="bracketright.case" horiz-adv-x="356" 
d="M384 790l-187 -880h-240l13 64h168l161 752h-169l14 64h240z" />
    <glyph glyph-name="quotesinglbase" unicode="&#x201a;" horiz-adv-x="212" 
d="M136 132l-3 -25l-113 -265h-91l112 290h95z" />
    <glyph glyph-name="quotedblbase" unicode="&#x201e;" horiz-adv-x="381" 
d="M306 132l-3 -25l-113 -265h-91l112 290h95zM-71 -158l112 290h95l-3 -25l-113 -265h-91z" />
    <glyph glyph-name="quotedblleft" unicode="&#x201c;" horiz-adv-x="374" 
d="M256 439l3 19l116 282h79l-114 -301h-84zM94 439l3 19l116 282h79l-114 -301h-84z" />
    <glyph glyph-name="quotedblright" unicode="&#x201d;" horiz-adv-x="375" 
d="M420 737l-3 -19l-116 -282h-79l114 301h84zM59 436l114 301h84l-3 -19l-116 -282h-79z" />
    <glyph glyph-name="quoteleft" unicode="&#x2018;" horiz-adv-x="212" 
d="M94 439l3 19l116 282h79l-114 -301h-84z" />
    <glyph glyph-name="quoteright" unicode="&#x2019;" horiz-adv-x="212" 
d="M257 737l-3 -19l-116 -282h-79l114 301h84z" />
    <glyph glyph-name="guillemotleft" unicode="&#xab;" horiz-adv-x="612" 
d="M389 50l-104 200l209 221h103l-215 -227l101 -194h-94zM77 261l199 210h103l-204 -216l106 -205h-94z" />
    <glyph glyph-name="guillemotright" unicode="&#xbb;" horiz-adv-x="613" 
d="M223 471l104 -200l-208 -221h-103l215 228l-101 193h93zM234 50l204 216l-106 205h94l110 -211l-199 -210h-103z" />
    <glyph glyph-name="guilsinglleft" unicode="&#x2039;" horiz-adv-x="395" 
d="M187 50l-110 211l199 210h103l-204 -216l106 -205h-94z" />
    <glyph glyph-name="guilsinglright" unicode="&#x203a;" horiz-adv-x="395" 
d="M208 471l110 -211l-199 -210h-103l204 216l-106 205h94z" />
    <glyph glyph-name="quotedbl" unicode="&#x22;" horiz-adv-x="313" 
d="M227 737l-70 -300h-74l56 300h88zM232 437l56 300h88l-70 -300h-74z" />
    <glyph glyph-name="quotesingle" unicode="'" horiz-adv-x="164" 
d="M227 737l-70 -300h-74l56 300h88z" />
    <glyph glyph-name="guillemotleft.case" horiz-adv-x="612" 
d="M404 120l-104 200l209 221h103l-215 -227l101 -194h-94zM92 331l199 210h103l-204 -216l106 -205h-94z" />
    <glyph glyph-name="guillemotright.case" horiz-adv-x="613" 
d="M238 541l104 -200l-208 -221h-103l215 228l-101 193h93zM249 120l204 216l-106 205h94l110 -211l-199 -210h-103z" />
    <glyph glyph-name="guilsinglleft.case" horiz-adv-x="395" 
d="M202 120l-110 211l199 210h103l-204 -216l106 -205h-94z" />
    <glyph glyph-name="guilsinglright.case" horiz-adv-x="395" 
d="M223 541l110 -211l-199 -210h-103l204 216l-106 205h94z" />
    <glyph glyph-name="at" unicode="@" horiz-adv-x="992" 
d="M568 52l15 69c-33 -49 -86 -83 -147 -83c-87 0 -154 45 -154 178c0 176 106 306 245 306c69 0 112 -39 124 -87l17 73h83l-85 -398h17c132 0 220 120 220 304c0 174 -120 270 -308 270c-275 0 -478 -211 -478 -499c0 -202 136 -309 325 -309c108 0 199 23 293 76l-14 -67
c-92 -49 -181 -69 -285 -69c-209 0 -383 118 -383 362c0 325 232 566 548 566c225 0 365 -134 365 -327c0 -224 -121 -365 -297 -365h-101zM377 224c0 -76 36 -104 90 -104c50 0 117 28 140 135l11 50c19 84 -8 136 -86 136c-93 0 -155 -96 -155 -217z" />
    <glyph glyph-name="ampersand" unicode="&#x26;" horiz-adv-x="717" 
d="M202 550c0 110 92 194 212 194c106 0 158 -55 158 -131c0 -103 -88 -168 -190 -219l138 -188c37 46 67 103 86 173h87c-23 -98 -67 -181 -123 -240l102 -139h-119l-54 73c-78 -58 -163 -87 -262 -87c-121 0 -211 59 -211 178c0 117 96 197 223 253c-30 46 -47 86 -47 133
zM129 175c0 -69 57 -102 133 -102c63 0 130 22 189 66l-159 218c-99 -49 -163 -103 -163 -182zM297 554c0 -31 13 -60 42 -101c76 34 135 83 135 142c0 36 -24 66 -70 66c-60 0 -107 -46 -107 -107z" />
    <glyph glyph-name="paragraph" unicode="&#xb6;" horiz-adv-x="673" 
d="M696 730l-173 -840h-97l156 757h-149l-155 -757h-97l92 448h-17c-17 0 -39 0 -56 1c-82 5 -122 60 -122 138c0 132 92 246 205 252c17 1 39 1 57 1h356z" />
    <glyph glyph-name="section" unicode="&#xa7;" horiz-adv-x="704" 
d="M436 744c162 0 223 -61 210 -174h-91c10 81 -46 104 -123 104c-84 0 -148 -50 -148 -116c0 -60 63 -86 129 -102c127 -33 192 -82 192 -164c0 -84 -60 -154 -151 -184c41 -28 66 -64 66 -116c0 -113 -110 -196 -260 -196c-159 0 -215 61 -202 174h90
c-9 -79 43 -105 122 -105c87 0 153 48 153 117c0 59 -64 85 -130 101c-127 34 -192 82 -192 164c0 88 59 156 150 186c-40 27 -65 63 -65 115c0 114 109 196 250 196zM203 264c0 -53 46 -84 130 -106l29 -9c82 4 140 58 140 127c0 52 -43 83 -130 106l-29 9
c-82 -4 -140 -55 -140 -127z" />
    <glyph glyph-name="copyright" unicode="&#xa9;" horiz-adv-x="918" 
d="M502 577c123 0 170 -56 178 -149h-74c-7 52 -32 83 -106 83c-79 0 -136 -74 -136 -166c0 -80 36 -125 106 -125c61 0 103 27 123 83h75c-30 -93 -95 -149 -199 -149c-115 0 -183 67 -183 189c0 131 89 234 216 234zM91 365c0 230 155 388 391 388
c235 0 390 -158 390 -388s-155 -388 -390 -388c-236 0 -391 158 -391 388zM131 365c0 -208 135 -349 351 -349c215 0 350 141 350 349s-135 349 -350 349c-216 0 -351 -141 -351 -349z" />
    <glyph glyph-name="registered" unicode="&#xae;" horiz-adv-x="519" 
d="M344 665c41 0 75 -13 75 -50c0 -36 -24 -58 -58 -65c21 -5 29 -18 29 -42c0 -14 1 -31 4 -44l6 -11h-44c-2 12 -4 31 -5 47c0 23 -9 32 -38 32h-35l-14 -79h-37l37 212h80zM112 555c0 127 88 209 210 209c123 0 210 -82 210 -209c0 -128 -87 -211 -210 -211
c-122 0 -210 83 -210 211zM143 555c0 -111 68 -181 179 -181c112 0 180 70 180 181s-68 179 -180 179c-111 0 -179 -68 -179 -179zM283 564h35c40 0 61 15 61 42c0 18 -15 27 -44 27h-40z" />
    <glyph glyph-name="trademark" unicode="&#x2122;" horiz-adv-x="790" 
d="M744 730l-75 -352h-58l57 268c-27 -49 -45 -83 -70 -127l-79 -138h-42l-20 138c-6 45 -13 88 -17 130l-57 -271h-58l74 352h74c16 -90 30 -176 42 -273c50 89 100 177 156 273h73zM26 681l10 49h328l-10 -49h-135l-64 -303h-58l64 303h-135z" />
    <glyph glyph-name="degree" unicode="&#xb0;" horiz-adv-x="345" 
d="M247 744c73 0 132 -58 132 -131c0 -72 -59 -130 -132 -130c-72 0 -131 58 -131 130c0 73 59 131 131 131zM167 613c0 -44 36 -81 80 -81c45 0 80 37 80 81c0 45 -35 82 -80 82c-44 0 -80 -37 -80 -82z" />
    <glyph glyph-name="bar" unicode="|" horiz-adv-x="517" 
d="M406 800l-206 -1000h-72l206 1000h72z" />
    <glyph glyph-name="brokenbar" unicode="&#xa6;" horiz-adv-x="516" 
d="M406 800l-86 -415h-72l86 415h72zM127 -200l85 415h72l-85 -415h-72z" />
    <glyph glyph-name="dagger" unicode="&#x2020;" horiz-adv-x="587" 
d="M394 730l-57 -244l185 2l-15 -72l-184 2l-118 -578h-81l126 578l-185 -2l16 72l183 -2l47 244h83z" />
    <glyph glyph-name="daggerdbl" unicode="&#x2021;" horiz-adv-x="658" 
d="M465 730l-56 -244l184 2l-15 -72l-184 2l-57 -268l185 3l-15 -73l-184 3l-47 -243h-81l55 243l-185 -3l16 73l184 -3l57 268l-186 -2l16 72l184 -2l46 244h83z" />
    <glyph glyph-name="cent" unicode="&#xa2;" horiz-adv-x="610" 
d="M436 722l-20 -94c128 -9 171 -80 157 -183h-94c8 55 -20 92 -80 102l-80 -383c59 11 107 49 126 101h94c-35 -101 -117 -171 -237 -182l-20 -95h-68l20 95c-109 11 -165 80 -165 194c0 193 112 331 279 350l20 95h68zM165 284c0 -69 32 -109 86 -120l80 381
c-98 -20 -166 -124 -166 -261z" />
    <glyph glyph-name="currency" unicode="&#xa4;" horiz-adv-x="625" 
d="M321 114c-42 0 -81 14 -112 37l-72 -72l-39 39l72 72c-23 31 -36 69 -36 111s13 80 36 111l-72 72l39 39l72 -72c31 23 70 37 112 37s81 -14 113 -37l72 72l39 -39l-73 -72c23 -31 37 -69 37 -111s-14 -80 -37 -111l73 -72l-39 -39l-72 72c-32 -23 -71 -37 -113 -37z
M194 301c0 -70 57 -128 127 -128c71 0 128 58 128 128s-57 128 -128 128c-70 0 -127 -58 -127 -128z" />
    <glyph glyph-name="dollar" unicode="$" horiz-adv-x="650" 
d="M382 794h87l-18 -83c118 -13 176 -84 155 -202h-92c11 72 -17 110 -80 121l-46 -219c117 -29 178 -85 178 -177c0 -123 -106 -206 -262 -216l-17 -81h-88l18 84c-112 15 -188 81 -171 205h92c-7 -71 26 -113 96 -125l50 235c-108 31 -161 76 -161 159
c0 115 97 203 241 217zM222 508c0 -43 27 -68 81 -84l44 207c-74 -12 -125 -59 -125 -123zM321 99c92 10 147 56 147 125c0 48 -34 80 -99 98z" />
    <glyph glyph-name="Euro" unicode="&#x20ac;" horiz-adv-x="610" 
d="M491 744c91 0 151 -19 195 -60l-46 -63c-44 32 -87 43 -154 43c-108 0 -191 -79 -235 -199h322l-32 -64h-308c-5 -23 -9 -46 -12 -71h287l-31 -64h-260v-14c0 -125 56 -186 172 -186c63 0 114 15 162 36l-15 -77c-57 -29 -109 -39 -177 -39c-156 0 -243 89 -243 243l1 37
h-102l31 64h76c3 24 7 48 12 71h-64l32 64h49c56 171 176 279 340 279z" />
    <glyph glyph-name="sterling" unicode="&#xa3;" horiz-adv-x="610" 
d="M403 744c176 0 225 -73 202 -226h-94c17 109 -25 138 -115 138c-96 0 -159 -58 -159 -172c0 -30 3 -62 9 -109h274l-17 -79h-248l1 -25c0 -93 -46 -153 -106 -185h390l-18 -86h-535l20 91c81 14 151 65 151 192v13h-104l17 79h77c-5 43 -9 80 -9 109
c0 164 107 260 264 260z" />
    <glyph glyph-name="yen" unicode="&#xa5;" horiz-adv-x="610" 
d="M697 730l-280 -355h147l-17 -78h-191l-11 -52h190l-17 -78h-190l-35 -167h-97l35 167h-181l17 78h181l11 52h-181l17 78h146l-130 355h105l111 -351l257 351h113z" />
    <glyph glyph-name="plus" unicode="+" 
d="M387 543l-41 -194h182l-14 -64h-182l-41 -193h-68l41 193h-182l13 64h183l41 194h68z" />
    <glyph glyph-name="minus" unicode="&#x2212;" 
d="M524 349l-13 -64h-426l14 64h425z" />
    <glyph glyph-name="multiply" unicode="&#xd7;" 
d="M487 505l-176 -145l-115 146l-51 -43l114 -145l-178 -147l38 -46l177 146l116 -148l51 43l-152 194l-52 -42l37 -47l229 188z" />
    <glyph glyph-name="divide" unicode="&#xf7;" 
d="M528 349l-14 -64h-432l13 64h433zM221 131c0 26 21 47 46 47c26 0 46 -21 46 -47c0 -25 -20 -46 -46 -46c-25 0 -46 21 -46 46zM296 503c0 26 21 46 46 46c26 0 46 -20 46 -46c0 -25 -20 -46 -46 -46c-25 0 -46 21 -46 46z" />
    <glyph glyph-name="equal" unicode="=" 
d="M553 448l-14 -64h-442l14 64h442zM55 186l14 64h442l-14 -64h-442z" />
    <glyph glyph-name="notequal" unicode="&#x2260;" 
d="M526 562l-82 -114h104l-14 -64h-136l-96 -134h204l-14 -64h-236l-81 -112h-73l81 112h-133l14 64h165l96 134h-233l14 64h265l82 114h73z" />
    <glyph glyph-name="greater" unicode="&#x3e;" 
d="M25 46l16 75l385 156l-319 156l14 67l393 -192l-15 -69z" />
    <glyph glyph-name="less" unicode="&#x3c;" 
d="M564 494l-16 -75l-385 -156l319 -156l-14 -67l-393 192l15 69z" />
    <glyph glyph-name="greaterequal" unicode="&#x2265;" 
d="M45 119l15 73l379 120l-327 122l14 66l393 -156l-15 -69zM20 0l14 64h425l-14 -64h-425z" />
    <glyph glyph-name="lessequal" unicode="&#x2264;" 
d="M560 500l-16 -73l-378 -120l327 -122l-15 -66l-392 156l15 69zM28 0l13 64h426l-14 -64h-425z" />
    <glyph glyph-name="plusminus" unicode="&#xb1;" 
d="M387 545l-37 -177h175l-14 -64h-175l-38 -178h-68l37 178h-175l14 64h175l38 177h68zM28 0l13 64h419l-13 -64h-419z" />
    <glyph glyph-name="approxequal" unicode="&#x2248;" 
d="M225 443c24 0 45 -6 102 -40c45 -29 71 -35 86 -35c16 0 32 8 60 59l55 -25c-46 -79 -72 -98 -115 -98c-25 0 -47 8 -101 40c-47 30 -70 37 -84 37c-21 0 -38 -10 -67 -60l-56 27c47 78 74 95 120 95zM67 168c47 78 73 95 119 95c24 0 46 -6 102 -40
c46 -29 71 -35 87 -35s31 8 60 59l54 -25c-46 -79 -71 -98 -114 -98c-26 0 -47 8 -102 40c-46 30 -70 37 -84 37c-20 0 -38 -10 -66 -60z" />
    <glyph glyph-name="asciitilde" unicode="~" 
d="M211 377c24 0 46 -6 102 -40c46 -29 71 -35 87 -35s31 8 59 59l55 -26c-46 -78 -71 -97 -114 -97c-26 0 -48 8 -102 40c-46 30 -70 36 -84 36c-20 0 -38 -9 -66 -59l-56 27c47 78 73 95 119 95z" />
    <glyph glyph-name="logicalnot" unicode="&#xac;" horiz-adv-x="572" 
d="M483 392l-41 -196h-72l28 132h-314l13 64h386z" />
    <glyph glyph-name="asciicircum" unicode="^" 
d="M422 740l102 -352h-73l-78 274l-195 -274h-75l253 352h66z" />
    <glyph glyph-name="emptyset" unicode="&#x2205;" horiz-adv-x="952" 
d="M910 728l30 -38l-135 -111c44 -63 70 -139 70 -224c0 -218 -173 -384 -379 -384c-109 0 -209 47 -279 123l-135 -112l-31 38l136 112c-44 62 -70 139 -70 223c0 218 173 383 379 383c109 0 209 -46 278 -122zM173 355c0 -71 21 -136 56 -188l504 415
c-60 65 -145 104 -237 104c-175 0 -323 -141 -323 -331zM259 128c60 -65 145 -104 237 -104c175 0 323 141 323 331c0 71 -21 136 -56 189z" />
    <glyph glyph-name="infinity" unicode="&#x221e;" horiz-adv-x="1049" 
d="M66 264c0 150 129 280 278 280c103 0 163 -48 211 -150c86 98 174 150 271 150c107 0 181 -68 181 -173c0 -150 -129 -280 -278 -280c-104 0 -164 48 -211 150c-86 -99 -174 -150 -271 -150c-107 0 -181 68 -181 173zM155 279c0 -77 60 -111 115 -111
c67 0 150 51 218 149c-37 111 -90 150 -155 150c-95 0 -178 -88 -178 -188zM585 318c37 -111 90 -150 155 -150c95 0 178 88 178 188c0 77 -60 111 -115 111c-67 0 -150 -51 -218 -149z" />
    <glyph glyph-name="integral" unicode="&#x222b;" horiz-adv-x="588" 
d="M563 744c39 0 70 -6 95 -14l-17 -76c-28 10 -52 12 -76 12c-59 0 -80 -30 -114 -117l-214 -537c-55 -139 -109 -186 -205 -186c-37 0 -68 4 -91 13l16 76c17 -8 49 -12 69 -12c57 0 85 28 124 126l211 537c50 126 92 178 202 178z" />
    <glyph glyph-name="product" unicode="&#x220f;" horiz-adv-x="771" 
d="M831 730l-17 -79h-104l-162 -765h-97l163 765h-291l-163 -765h-97l163 765h-102l16 79h691z" />
    <glyph glyph-name="summation" unicode="&#x2211;" horiz-adv-x="679" 
d="M723 730l-17 -79h-447l225 -342l-383 -340h478l-16 -79h-606l15 71l397 351l-230 343l16 75h568z" />
    <glyph glyph-name="radical" unicode="&#x221a;" horiz-adv-x="599" 
d="M778 870l-516 -1030h-116l-39 393h-89l16 78h150l37 -375l459 934h98z" />
    <glyph glyph-name="partialdiff" unicode="&#x2202;" horiz-adv-x="624" 
d="M386 744c162 0 229 -81 229 -221c0 -278 -156 -537 -377 -537c-124 0 -205 70 -205 192c0 193 141 343 326 343c78 0 138 -29 151 -95c23 136 10 237 -122 237c-55 0 -99 -12 -161 -40l-22 75c67 33 122 46 181 46zM134 181c0 -73 40 -114 109 -114c103 0 198 99 246 260
c-13 86 -75 113 -137 113c-125 0 -218 -113 -218 -259z" />
    <glyph glyph-name="percent" unicode="%" horiz-adv-x="812" 
d="M758 730l-623 -730h-81l624 730h80zM92 534c0 118 80 210 184 210c88 0 136 -48 136 -130c0 -117 -82 -210 -188 -210c-86 0 -132 50 -132 130zM159 539c0 -50 24 -76 71 -76c63 0 111 63 111 147c0 50 -25 76 -71 76c-63 0 -111 -63 -111 -147zM394 116
c0 118 80 210 184 210c88 0 135 -48 135 -130c0 -118 -82 -210 -187 -210c-86 0 -132 50 -132 130zM461 121c0 -51 24 -77 70 -77c64 0 112 63 112 147c0 50 -25 76 -71 76c-63 0 -111 -63 -111 -146z" />
    <glyph glyph-name="perthousand" unicode="&#x2030;" horiz-adv-x="1163" 
d="M929 326c88 0 135 -48 135 -130c0 -118 -82 -210 -188 -210c-86 0 -131 50 -131 130c0 118 80 210 184 210zM54 0l624 730h80l-623 -730h-81zM92 534c0 118 80 210 184 210c88 0 136 -48 136 -130c0 -117 -82 -210 -188 -210c-86 0 -132 50 -132 130zM159 539
c0 -50 24 -76 71 -76c63 0 111 63 111 147c0 50 -25 76 -71 76c-63 0 -111 -63 -111 -147zM394 116c0 118 80 210 184 210c88 0 135 -48 135 -130c0 -118 -82 -210 -187 -210c-86 0 -132 50 -132 130zM461 121c0 -51 24 -77 70 -77c64 0 112 63 112 147c0 50 -25 76 -71 76
c-63 0 -111 -63 -111 -146zM811 121c0 -51 25 -77 71 -77c64 0 112 63 112 147c0 50 -25 76 -71 76c-64 0 -112 -63 -112 -146z" />
    <glyph glyph-name="lozenge" unicode="&#x25ca;" horiz-adv-x="561" 
d="M404 730l109 -365l-265 -365h-91l-109 365l265 365h91zM122 365l92 -313l225 313l-92 313z" />
    <glyph glyph-name="uni0326" unicode="&#x326;" horiz-adv-x="0" 
d="M289 -52v-7l-167 -131h-89l153 138h103z" />
    <glyph glyph-name="dieresis" unicode="&#xa8;" horiz-adv-x="438" 
d="M228 624c-28 0 -51 23 -51 51c0 29 23 51 51 51c29 0 51 -22 51 -51c0 -28 -22 -51 -51 -51zM336 675c0 29 22 51 51 51c28 0 51 -22 51 -51c0 -28 -23 -51 -51 -51c-29 0 -51 23 -51 51z" />
    <glyph glyph-name="dotaccent" unicode="&#x2d9;" horiz-adv-x="375" 
d="M275 619c-31 0 -56 25 -56 56c0 32 25 57 56 57c32 0 57 -25 57 -57c0 -31 -25 -56 -57 -56z" />
    <glyph glyph-name="grave" unicode="`" horiz-adv-x="424" 
d="M181 757l1 4l106 -2l133 -151v-4h-86z" />
    <glyph glyph-name="acute" unicode="&#xb4;" horiz-adv-x="436" 
d="M463 757l-217 -153h-90l1 4l198 151l109 2z" />
    <glyph glyph-name="hungarumlaut" unicode="&#x2dd;" horiz-adv-x="450" 
d="M333 757l-200 -157h-77l1 4l184 155l93 2zM255 600v4l184 155l94 2l-1 -4l-201 -157h-76z" />
    <glyph glyph-name="circumflex" unicode="&#x2c6;" horiz-adv-x="436" 
d="M363 762l91 -159h-83l-58 105l-102 -105h-84l158 159h78z" />
    <glyph glyph-name="caron" unicode="&#x2c7;" horiz-adv-x="436" 
d="M213 599l-92 159h83l58 -106l103 106h84l-158 -159h-78z" />
    <glyph glyph-name="breve" unicode="&#x2d8;" horiz-adv-x="436" 
d="M288 592c-112 0 -136 69 -114 168h68c-13 -64 -9 -114 58 -114c68 0 93 50 106 114h68c-19 -98 -63 -168 -186 -168z" />
    <glyph glyph-name="ring" unicode="&#x2da;" horiz-adv-x="436" 
d="M323 786c60 0 103 -30 103 -80c0 -68 -65 -107 -135 -107c-62 0 -104 31 -104 79c0 67 65 108 136 108zM251 682c0 -24 17 -39 46 -39c40 0 65 30 65 59c0 24 -17 40 -46 40c-40 0 -65 -31 -65 -60z" />
    <glyph glyph-name="tilde" unicode="&#x2dc;" horiz-adv-x="436" 
d="M234 726c21 0 44 -7 78 -24c33 -18 51 -22 64 -22c21 0 30 8 56 45l51 -20c-45 -72 -66 -91 -108 -91c-20 0 -43 8 -77 25c-31 16 -50 21 -65 21c-21 0 -28 -7 -54 -43l-52 21c44 70 66 88 107 88z" />
    <glyph glyph-name="macron" unicode="&#xaf;" horiz-adv-x="439" 
d="M394 699l-13 -59h-270l13 59h270z" />
    <glyph glyph-name="cedilla" unicode="&#xb8;" horiz-adv-x="436" 
d="M194 4l-36 -42c49 -7 77 -29 77 -71c0 -56 -59 -95 -150 -95c-22 0 -42 2 -60 8l10 45c15 -5 29 -6 40 -6c49 0 81 16 81 44c0 23 -26 38 -80 35l3 14l51 68h64z" />
    <glyph glyph-name="ogonek" unicode="&#x2db;" horiz-adv-x="461" 
d="M341 0c-63 -26 -111 -76 -111 -115c0 -22 16 -32 43 -32c14 0 29 3 44 8l-17 -51c-26 -9 -51 -14 -78 -14c-41 0 -76 16 -76 58c0 66 65 126 149 165z" />
    </font>
</defs>
</svg>
