<?xml version="1.0" standalone="no"?>
<!DOCTYPE svg PUBLIC "-//W3C//DTD SVG 1.1//EN" "http://www.w3.org/Graphics/SVG/1.1/DTD/svg11.dtd" >
<svg xmlns="http://www.w3.org/2000/svg" xmlns:xlink="http://www.w3.org/1999/xlink" version="1.1">
<metadata>
Created by FontForge 20220308 at Wed Dec 29 17:58:24 2021
 By Shift
Copyright \(C\) 2021 by Sora Sagano.
</metadata>
<defs>
<font id="Nacelle-UltraLight" horiz-adv-x="552" >
  <font-face 
    font-family="Nacelle UltraLight"
    font-weight="200"
    font-stretch="normal"
    units-per-em="1000"
    panose-1="0 0 0 0 0 0 0 0 0 0"
    ascent="770"
    descent="-230"
    x-height="513"
    cap-height="730"
    bbox="-196 -230 1066 975"
    underline-thickness="50"
    underline-position="-125"
    stemh="34"
    stemv="42"
    unicode-range="U+0020-FB02"
  />
<missing-glyph horiz-adv-x="500" 
d="M410 770v-1000h-317v1000h317zM167 -161h166v33h-102l70 47h32v33h-166v-33h70l-70 -47v-33zM167 -25h166v113h-166v-113zM167 148h166v113h-100v-56h34v23h33v-47h-100v80h-33v-113zM167 283h166v100h-33v-66h-133v-34zM167 340h100v70h66v33h-166v-33h66v-37h-66v-33z
M167 470h166v34h-66v70h-100v-104zM167 600h166v33h-66v37h66v33h-165v-33h65v-37h-66v-33zM200 8v47h100v-47h-100zM200 504v36h33v-36h-33z" />
    <glyph glyph-name="fi" unicode="fi" horiz-adv-x="446" 
d="M206 744c22 0 33 -1 52 -5v-38c-106 18 -126 -32 -126 -95v-97h115v-37h-115v-472h-42v472h-63v37h63v79c0 15 0 26 1 46c4 70 49 110 115 110zM322 657c0 19 15 34 34 34s34 -15 34 -34s-15 -34 -34 -34s-34 15 -34 34zM335 0v513h42v-513h-42z" />
    <glyph glyph-name="fl" unicode="fl" horiz-adv-x="475" 
d="M206 744c22 0 33 -1 52 -5v-38c-106 18 -126 -32 -126 -95v-97h115v-37h-115v-472h-42v472h-63v37h63v79c0 15 0 26 1 46c4 70 49 110 115 110zM336 133v597h42v-629c0 -71 8 -75 67 -68v-35c-13 -2 -28 -4 -41 -4c-45 0 -64 19 -67 65c-1 20 -1 37 -1 74z" />
    <glyph glyph-name=".notdef" horiz-adv-x="500" 
d="M410 770v-1000h-317v1000h317zM167 -161h166v33h-102l70 47h32v33h-166v-33h70l-70 -47v-33zM167 -25h166v113h-166v-113zM167 148h166v113h-100v-56h34v23h33v-47h-100v80h-33v-113zM167 283h166v100h-33v-66h-133v-34zM167 340h100v70h66v33h-166v-33h66v-37h-66v-33z
M167 470h166v34h-66v70h-100v-104zM167 600h166v33h-66v37h66v33h-165v-33h65v-37h-66v-33zM200 8v47h100v-47h-100zM200 504v36h33v-36h-33z" />
    <glyph glyph-name="space" unicode=" " horiz-adv-x="208" 
 />
    <glyph glyph-name="space" unicode="&#xa0;" horiz-adv-x="208" 
 />
    <glyph glyph-name="A" unicode="A" horiz-adv-x="667" 
d="M360 730l282 -730h-46l-99 256h-328l-98 -256h-46l284 730h51zM184 296h299l-149 392z" />
    <glyph glyph-name="Aacute" unicode="&#xc1;" horiz-adv-x="667" 
d="M360 730l282 -730h-46l-99 256h-328l-98 -256h-46l284 730h51zM184 296h299l-149 392zM219 785v3l170 148h58v-3l-181 -148h-47z" />
    <glyph glyph-name="Abreve" unicode="&#x102;" horiz-adv-x="667" 
d="M360 730l282 -730h-46l-99 256h-328l-98 -256h-46l284 730h51zM184 296h299l-149 392zM205 934h33c-4 -61 15 -115 96 -115s100 53 96 115h33c5 -79 -21 -148 -129 -148s-134 69 -129 148z" />
    <glyph glyph-name="Acircumflex" unicode="&#xc2;" horiz-adv-x="667" 
d="M360 730l282 -730h-46l-99 256h-328l-98 -256h-46l284 730h51zM184 296h299l-149 392zM185 789l129 143h39l130 -143h-46l-104 115l-103 -115h-45z" />
    <glyph glyph-name="Adieresis" unicode="&#xc4;" horiz-adv-x="667" 
d="M360 730l282 -730h-46l-99 256h-328l-98 -256h-46l284 730h51zM184 296h299l-149 392zM233 861c0 19 15 34 34 34s34 -15 34 -34s-15 -34 -34 -34s-34 15 -34 34zM367 861c0 19 15 34 34 34s34 -15 34 -34s-15 -34 -34 -34s-34 15 -34 34z" />
    <glyph glyph-name="Agrave" unicode="&#xc0;" horiz-adv-x="667" 
d="M360 730l282 -730h-46l-99 256h-328l-98 -256h-46l284 730h51zM184 296h299l-149 392zM217 933v3h58l170 -148v-3h-47z" />
    <glyph glyph-name="Amacron" unicode="&#x100;" horiz-adv-x="667" 
d="M360 730l282 -730h-46l-99 256h-328l-98 -256h-46l284 730h51zM184 296h299l-149 392zM226 844v33h216v-33h-216z" />
    <glyph glyph-name="Aogonek" unicode="&#x104;" horiz-adv-x="667" 
d="M360 730l282 -729l1 -1c-51 -22 -99 -71 -99 -121c0 -39 24 -52 56 -52c17 0 32 4 47 11l-2 -30c-20 -8 -38 -12 -58 -12c-43 0 -82 18 -82 75s40 104 88 137l-96 248h-328l-98 -256h-46l284 730h51zM184 296h299l-149 392z" />
    <glyph glyph-name="Aring" unicode="&#xc5;" horiz-adv-x="667" 
d="M360 730l282 -730h-46l-99 256h-328l-98 -256h-46l284 730h51zM184 296h299l-149 392zM238 864c0 51 44 80 96 80s96 -29 96 -80c0 -52 -44 -81 -96 -81s-96 29 -96 81zM272 864c0 -34 25 -53 62 -53s62 19 62 53s-25 52 -62 52s-62 -18 -62 -52z" />
    <glyph glyph-name="Atilde" unicode="&#xc3;" horiz-adv-x="667" 
d="M360 730l282 -730h-46l-99 256h-328l-98 -256h-46l284 730h51zM184 296h299l-149 392zM192 838c20 45 40 63 74 63c18 0 32 -5 72 -24c36 -18 51 -22 61 -22c22 0 30 11 47 44l30 -13c-20 -45 -40 -66 -74 -66c-17 0 -32 5 -72 24c-35 18 -51 22 -61 22
c-22 0 -30 -8 -46 -41z" />
    <glyph glyph-name="AE" unicode="&#xc6;" horiz-adv-x="932" 
d="M873 730v-40h-446l53 -301h373v-40h-366l55 -309h341v-40h-377l-47 264h-290l-132 -264h-45l369 730h512zM190 305h262l-68 388z" />
    <glyph glyph-name="B" unicode="B" horiz-adv-x="611" 
d="M266 730c29 0 46 0 83 -2c111 -8 192 -69 192 -183c0 -81 -53 -155 -140 -171c117 -14 173 -83 173 -179c0 -121 -94 -184 -202 -193c-27 -2 -47 -2 -74 -2h-213v730h181zM129 40h202c107 0 198 50 198 156c0 114 -91 153 -228 153h-172v-309zM129 389h165
c94 0 203 31 203 151c0 106 -80 150 -196 150h-172v-301z" />
    <glyph glyph-name="C" unicode="C" horiz-adv-x="698" 
d="M370 744c173 0 264 -96 287 -217h-45c-21 99 -99 176 -241 176c-176 0 -278 -129 -278 -336c0 -239 114 -340 286 -340c131 0 215 73 236 176h44c-24 -127 -122 -217 -282 -217c-209 0 -328 134 -328 379c0 221 109 379 321 379z" />
    <glyph glyph-name="Cacute" unicode="&#x106;" horiz-adv-x="698" 
d="M370 744c173 0 264 -96 287 -217h-45c-21 99 -99 176 -241 176c-176 0 -278 -129 -278 -336c0 -239 114 -340 286 -340c131 0 215 73 236 176h44c-24 -127 -122 -217 -282 -217c-209 0 -328 134 -328 379c0 221 109 379 321 379zM256 785v3l170 148h58v-3l-181 -148h-47z
" />
    <glyph glyph-name="Ccaron" unicode="&#x10c;" horiz-adv-x="698" 
d="M370 744c173 0 264 -96 287 -217h-45c-21 99 -99 176 -241 176c-176 0 -278 -129 -278 -336c0 -239 114 -340 286 -340c131 0 215 73 236 176h44c-24 -127 -122 -217 -282 -217c-209 0 -328 134 -328 379c0 221 109 379 321 379zM223 932h45l104 -116l103 116h44
l-129 -143h-37z" />
    <glyph glyph-name="Ccedilla" unicode="&#xc7;" horiz-adv-x="698" 
d="M370 744c173 0 264 -96 287 -217h-45c-21 99 -99 176 -241 176c-176 0 -278 -129 -278 -336c0 -239 114 -340 286 -340c131 0 215 73 236 176h44c-24 -125 -119 -215 -276 -217l-22 -30c63 -6 99 -30 99 -79c0 -57 -56 -81 -117 -81c-14 0 -32 2 -47 6v29
c15 -5 31 -7 43 -7c53 0 83 20 83 52c0 37 -34 55 -103 53v16l30 42c-192 11 -300 144 -300 378c0 221 109 379 321 379z" />
    <glyph glyph-name="Cdotaccent" unicode="&#x10a;" horiz-adv-x="698" 
d="M370 744c173 0 264 -96 287 -217h-45c-21 99 -99 176 -241 176c-176 0 -278 -129 -278 -336c0 -239 114 -340 286 -340c131 0 215 73 236 176h44c-24 -127 -122 -217 -282 -217c-209 0 -328 134 -328 379c0 221 109 379 321 379zM336 862c0 19 15 35 35 35s36 -16 36 -35
c0 -20 -16 -36 -36 -36s-35 16 -35 36z" />
    <glyph glyph-name="D" unicode="D" horiz-adv-x="715" 
d="M303 730c33 0 50 0 77 -2c115 -9 286 -71 286 -350c0 -296 -170 -362 -271 -374c-36 -4 -58 -4 -92 -4h-218v730h218zM129 40h208c185 0 284 121 284 337c0 199 -96 313 -284 313h-208v-650z" />
    <glyph glyph-name="Eth" unicode="&#xd0;" horiz-adv-x="721" 
d="M347 389v-39h-212v-310h208c185 0 284 121 284 337c0 199 -96 313 -284 313h-208v-301h212zM19 350v39h72v341h218c33 0 50 0 77 -2c115 -9 286 -71 286 -350c0 -296 -170 -362 -271 -374c-36 -4 -58 -4 -92 -4h-218v350h-72z" />
    <glyph glyph-name="Dcaron" unicode="&#x10e;" horiz-adv-x="715" 
d="M303 730c33 0 50 0 77 -2c115 -9 286 -71 286 -350c0 -296 -170 -362 -271 -374c-36 -4 -58 -4 -92 -4h-218v730h218zM129 40h208c185 0 284 121 284 337c0 199 -96 313 -284 313h-208v-650zM201 914h45l104 -116l103 116h44l-129 -143h-37z" />
    <glyph glyph-name="Dcroat" unicode="&#x110;" horiz-adv-x="721" 
d="M347 389v-39h-212v-310h208c185 0 284 121 284 337c0 199 -96 313 -284 313h-208v-301h212zM19 350v39h72v341h218c33 0 50 0 77 -2c115 -9 286 -71 286 -350c0 -296 -170 -362 -271 -374c-36 -4 -58 -4 -92 -4h-218v350h-72z" />
    <glyph glyph-name="E" unicode="E" horiz-adv-x="590" 
d="M531 730v-40h-402v-301h381v-40h-381v-309h412v-40h-456v730h446z" />
    <glyph glyph-name="Eacute" unicode="&#xc9;" horiz-adv-x="590" 
d="M531 730v-40h-402v-301h381v-40h-381v-309h412v-40h-456v730h446zM209 785v3l170 148h58v-3l-181 -148h-47z" />
    <glyph glyph-name="Ecaron" unicode="&#x11a;" horiz-adv-x="590" 
d="M531 730v-40h-402v-301h381v-40h-381v-309h412v-40h-456v730h446zM176 932h45l104 -116l103 116h44l-129 -143h-37z" />
    <glyph glyph-name="Ecircumflex" unicode="&#xca;" horiz-adv-x="590" 
d="M531 730v-40h-402v-301h381v-40h-381v-309h412v-40h-456v730h446zM175 789l129 143h39l130 -143h-46l-104 115l-103 -115h-45z" />
    <glyph glyph-name="Edieresis" unicode="&#xcb;" horiz-adv-x="590" 
d="M531 730v-40h-402v-301h381v-40h-381v-309h412v-40h-456v730h446zM223 861c0 19 15 34 34 34s34 -15 34 -34s-15 -34 -34 -34s-34 15 -34 34zM357 861c0 19 15 34 34 34s34 -15 34 -34s-15 -34 -34 -34s-34 15 -34 34z" />
    <glyph glyph-name="Edotaccent" unicode="&#x116;" horiz-adv-x="590" 
d="M531 730v-40h-402v-301h381v-40h-381v-309h412v-40h-456v730h446zM289 862c0 19 15 35 35 35s36 -16 36 -35c0 -20 -16 -36 -36 -36s-35 16 -35 36z" />
    <glyph glyph-name="Egrave" unicode="&#xc8;" horiz-adv-x="590" 
d="M531 730v-40h-402v-301h381v-40h-381v-309h412v-40h-456v730h446zM207 933v3h58l170 -148v-3h-47z" />
    <glyph glyph-name="Emacron" unicode="&#x112;" horiz-adv-x="590" 
d="M531 730v-40h-402v-301h381v-40h-381v-309h412v-40h-456v730h446zM216 844v33h216v-33h-216z" />
    <glyph glyph-name="Eogonek" unicode="&#x118;" horiz-adv-x="590" 
d="M531 730v-40h-402v-301h381v-40h-381v-309h412v-40c-51 -22 -99 -71 -99 -121c0 -39 24 -52 56 -52c17 0 32 4 47 11l-2 -30c-20 -8 -38 -12 -58 -12c-43 0 -82 18 -82 75c0 53 34 97 77 129h-395v730h446z" />
    <glyph glyph-name="F" unicode="F" horiz-adv-x="581" 
d="M530 730v-40h-401v-304h380v-40h-380v-346h-44v730h445z" />
    <glyph glyph-name="G" unicode="G" horiz-adv-x="723" 
d="M93 367c0 -238 108 -340 277 -340c102 0 252 78 252 263v44h-257v41h301v-375h-39l-3 180c-2 -27 -7 -40 -17 -56c-58 -101 -154 -138 -244 -138c-201 0 -314 133 -314 379c0 221 106 379 321 379c189 0 271 -96 295 -217h-45c-21 99 -91 176 -249 176
c-185 0 -278 -130 -278 -336z" />
    <glyph glyph-name="Gbreve" unicode="&#x11e;" horiz-adv-x="723" 
d="M93 367c0 -238 108 -340 277 -340c102 0 252 78 252 263v44h-257v41h301v-375h-39l-3 180c-2 -27 -7 -40 -17 -56c-58 -101 -154 -138 -244 -138c-201 0 -314 133 -314 379c0 221 106 379 321 379c189 0 271 -96 295 -217h-45c-21 99 -91 176 -249 176
c-185 0 -278 -130 -278 -336zM245 934h33c-4 -61 15 -115 96 -115s100 53 96 115h33c5 -79 -21 -148 -129 -148s-134 69 -129 148z" />
    <glyph glyph-name="uni0122" unicode="&#x122;" horiz-adv-x="723" 
d="M93 367c0 -238 108 -340 277 -340c102 0 252 78 252 263v44h-257v41h301v-375h-39l-3 180c-2 -27 -7 -40 -17 -56c-58 -101 -154 -138 -244 -138c-201 0 -314 133 -314 379c0 221 106 379 321 379c189 0 271 -96 295 -217h-45c-21 99 -91 176 -249 176
c-185 0 -278 -130 -278 -336zM263 -213l153 152h48v-5l-158 -147h-43z" />
    <glyph glyph-name="Gdotaccent" unicode="&#x120;" horiz-adv-x="723" 
d="M93 367c0 -238 108 -340 277 -340c102 0 252 78 252 263v44h-257v41h301v-375h-39l-3 180c-2 -27 -7 -40 -17 -56c-58 -101 -154 -138 -244 -138c-201 0 -314 133 -314 379c0 221 106 379 321 379c189 0 271 -96 295 -217h-45c-21 99 -91 176 -249 176
c-185 0 -278 -130 -278 -336zM339 862c0 19 15 35 35 35s36 -16 36 -35c0 -20 -16 -36 -36 -36s-35 16 -35 36z" />
    <glyph glyph-name="H" unicode="H" horiz-adv-x="693" 
d="M608 730v-730h-44v349h-435v-349h-44v730h44v-341h435v341h44z" />
    <glyph glyph-name="Hbar" unicode="&#x126;" horiz-adv-x="719" 
d="M673 551v-33h-52v-518h-44v349h-435v-349h-44v518h-53v33h53v179h44v-179h435v179h44v-179h52zM142 389h435v129h-435v-129z" />
    <glyph glyph-name="I" unicode="I" horiz-adv-x="214" 
d="M129 730v-730h-44v730h44z" />
    <glyph glyph-name="IJ" unicode="&#x132;" horiz-adv-x="753" 
d="M129 730v-730h-44v730h44zM243 226h45c7 -155 63 -199 172 -199c125 0 172 79 172 197v506h44v-448c0 -32 0 -60 -3 -95c-6 -103 -60 -201 -213 -201c-152 0 -211 70 -217 240z" />
    <glyph glyph-name="Iacute" unicode="&#xcd;" horiz-adv-x="214" 
d="M129 730v-730h-44v730h44zM-8 785v3l170 148h58v-3l-181 -148h-47z" />
    <glyph glyph-name="Icircumflex" unicode="&#xce;" horiz-adv-x="214" 
d="M129 730v-730h-44v730h44zM-42 789l129 143h39l130 -143h-46l-104 115l-103 -115h-45z" />
    <glyph glyph-name="Idieresis" unicode="&#xcf;" horiz-adv-x="214" 
d="M129 730v-730h-44v730h44zM6 861c0 19 15 34 34 34s34 -15 34 -34s-15 -34 -34 -34s-34 15 -34 34zM140 861c0 19 15 34 34 34s34 -15 34 -34s-15 -34 -34 -34s-34 15 -34 34z" />
    <glyph glyph-name="Idotaccent" unicode="&#x130;" horiz-adv-x="214" 
d="M129 730v-730h-44v730h44zM72 862c0 19 15 35 35 35s36 -16 36 -35c0 -20 -16 -36 -36 -36s-35 16 -35 36z" />
    <glyph glyph-name="Igrave" unicode="&#xcc;" horiz-adv-x="214" 
d="M129 730v-730h-44v730h44zM-10 933v3h58l170 -148v-3h-47z" />
    <glyph glyph-name="Imacron" unicode="&#x12a;" horiz-adv-x="214" 
d="M129 730v-730h-44v730h44zM-1 844v33h216v-33h-216z" />
    <glyph glyph-name="Iogonek" unicode="&#x12e;" horiz-adv-x="214" 
d="M129 730v-729l1 -1c-51 -22 -99 -71 -99 -121c0 -39 24 -52 56 -52c17 0 32 4 47 11l-2 -30c-20 -8 -38 -12 -58 -12c-43 0 -82 18 -82 75c0 59 43 107 93 140v719h44z" />
    <glyph glyph-name="J" unicode="J" horiz-adv-x="546" 
d="M470 282c0 -32 0 -60 -3 -95c-6 -103 -60 -201 -213 -201c-152 0 -211 70 -217 240h45c7 -155 63 -199 172 -199c125 0 172 79 172 197v506h44v-448z" />
    <glyph glyph-name="K" unicode="K" horiz-adv-x="622" 
d="M585 730l-281 -314l303 -416h-55l-281 384l-142 -157v-227h-44v730h44v-449l403 449h53z" />
    <glyph glyph-name="uni0136" unicode="&#x136;" horiz-adv-x="622" 
d="M585 730l-281 -314l303 -416h-55l-281 384l-142 -157v-227h-44v730h44v-449l403 449h53zM200 -213l153 152h48v-5l-158 -147h-43z" />
    <glyph glyph-name="L" unicode="L" horiz-adv-x="541" 
d="M129 730v-690h380v-40h-424v730h44z" />
    <glyph glyph-name="Lacute" unicode="&#x139;" horiz-adv-x="541" 
d="M129 730v-690h380v-40h-424v730h44zM-8 785v3l170 148h58v-3l-181 -148h-47z" />
    <glyph glyph-name="Lcaron" unicode="&#x13d;" horiz-adv-x="549" 
d="M384 740v-15l-58 -264h-38l55 279h41zM85 0v730h44v-690h380v-40h-424z" />
    <glyph glyph-name="uni013B" unicode="&#x13b;" horiz-adv-x="541" 
d="M129 730v-690h380v-40h-424v730h44zM190 -213l153 152h48v-5l-158 -147h-43z" />
    <glyph glyph-name="Ldot" unicode="&#x13f;" horiz-adv-x="541" 
d="M452 404c-17 0 -30 13 -30 29c0 17 13 30 30 30c16 0 29 -13 29 -30c0 -16 -13 -29 -29 -29zM85 0v730h44v-690h380v-40h-424z" />
    <glyph glyph-name="Lslash" unicode="&#x141;" horiz-adv-x="574" 
d="M346 486v-44l-184 -119v-283h380v-40h-424v298l-104 -65v44l104 65v388h44v-362z" />
    <glyph glyph-name="M" unicode="M" horiz-adv-x="826" 
d="M741 730v-730h-44v423c0 79 -1 169 0 250c-30 -81 -66 -171 -97 -250l-171 -423h-41l-166 423c-30 77 -65 166 -94 247c1 -80 1 -170 1 -247v-423h-44v730h60c93 -238 177 -452 264 -673c90 221 175 435 271 673h61z" />
    <glyph glyph-name="N" unicode="N" horiz-adv-x="690" 
d="M605 730v-730h-59l-279 449l-142 236c3 -95 3 -202 3 -293v-392h-43v730h58l272 -436c51 -83 101 -165 151 -248c-3 95 -4 203 -4 294v390h43z" />
    <glyph glyph-name="Nacute" unicode="&#x143;" horiz-adv-x="690" 
d="M605 730v-730h-59l-279 449l-142 236c3 -95 3 -202 3 -293v-392h-43v730h58l272 -436c51 -83 101 -165 151 -248c-3 95 -4 203 -4 294v390h43zM228 785v3l170 148h58v-3l-181 -148h-47z" />
    <glyph glyph-name="Ncaron" unicode="&#x147;" horiz-adv-x="690" 
d="M605 730v-730h-59l-279 449l-142 236c3 -95 3 -202 3 -293v-392h-43v730h58l272 -436c51 -83 101 -165 151 -248c-3 95 -4 203 -4 294v390h43zM195 932h45l104 -116l103 116h44l-129 -143h-37z" />
    <glyph glyph-name="uni0145" unicode="&#x145;" horiz-adv-x="690" 
d="M605 730v-730h-59l-279 449l-142 236c3 -95 3 -202 3 -293v-392h-43v730h58l272 -436c51 -83 101 -165 151 -248c-3 95 -4 203 -4 294v390h43zM231 -213l153 152h48v-5l-158 -147h-43z" />
    <glyph glyph-name="Ntilde" unicode="&#xd1;" horiz-adv-x="690" 
d="M605 730v-730h-59l-279 449l-142 236c3 -95 3 -202 3 -293v-392h-43v730h58l272 -436c51 -83 101 -165 151 -248c-3 95 -4 203 -4 294v390h43zM201 838c20 45 40 63 74 63c18 0 32 -5 72 -24c36 -18 51 -22 61 -22c22 0 30 11 47 44l30 -13c-20 -45 -40 -66 -74 -66
c-17 0 -32 5 -72 24c-35 18 -51 22 -61 22c-22 0 -30 -8 -46 -41z" />
    <glyph glyph-name="Eng" unicode="&#x14a;" horiz-adv-x="690" 
d="M605 -46c0 -18 0 -27 -1 -41c-7 -86 -55 -116 -153 -119v35c75 0 112 25 112 110v61h-17l-279 449l-142 236c3 -95 3 -202 3 -293v-392h-43v730h58l272 -436c51 -83 101 -165 151 -248c-3 95 -4 203 -4 294v390h43v-776z" />
    <glyph glyph-name="O" unicode="O" horiz-adv-x="751" 
d="M93 365c0 -241 112 -338 283 -338c170 0 282 97 282 338s-112 338 -282 338c-171 0 -283 -97 -283 -338zM49 365c0 243 109 379 327 379c217 0 327 -136 327 -379s-110 -379 -327 -379c-218 0 -327 136 -327 379z" />
    <glyph glyph-name="Oacute" unicode="&#xd3;" horiz-adv-x="751" 
d="M93 365c0 -241 112 -338 283 -338c170 0 282 97 282 338s-112 338 -282 338c-171 0 -283 -97 -283 -338zM49 365c0 243 109 379 327 379c217 0 327 -136 327 -379s-110 -379 -327 -379c-218 0 -327 136 -327 379zM261 785v3l170 148h58v-3l-181 -148h-47z" />
    <glyph glyph-name="Ocircumflex" unicode="&#xd4;" horiz-adv-x="751" 
d="M93 365c0 -241 112 -338 283 -338c170 0 282 97 282 338s-112 338 -282 338c-171 0 -283 -97 -283 -338zM49 365c0 243 109 379 327 379c217 0 327 -136 327 -379s-110 -379 -327 -379c-218 0 -327 136 -327 379zM227 789l129 143h39l130 -143h-46l-104 115l-103 -115
h-45z" />
    <glyph glyph-name="Odieresis" unicode="&#xd6;" horiz-adv-x="751" 
d="M93 365c0 -241 112 -338 283 -338c170 0 282 97 282 338s-112 338 -282 338c-171 0 -283 -97 -283 -338zM49 365c0 243 109 379 327 379c217 0 327 -136 327 -379s-110 -379 -327 -379c-218 0 -327 136 -327 379zM275 861c0 19 15 34 34 34s34 -15 34 -34
s-15 -34 -34 -34s-34 15 -34 34zM409 861c0 19 15 34 34 34s34 -15 34 -34s-15 -34 -34 -34s-34 15 -34 34z" />
    <glyph glyph-name="Ograve" unicode="&#xd2;" horiz-adv-x="751" 
d="M93 365c0 -241 112 -338 283 -338c170 0 282 97 282 338s-112 338 -282 338c-171 0 -283 -97 -283 -338zM49 365c0 243 109 379 327 379c217 0 327 -136 327 -379s-110 -379 -327 -379c-218 0 -327 136 -327 379zM259 933v3h58l170 -148v-3h-47z" />
    <glyph glyph-name="Ohungarumlaut" unicode="&#x150;" horiz-adv-x="751" 
d="M93 365c0 -241 112 -338 283 -338c170 0 282 97 282 338s-112 338 -282 338c-171 0 -283 -97 -283 -338zM49 365c0 243 109 379 327 379c217 0 327 -136 327 -379s-110 -379 -327 -379c-218 0 -327 136 -327 379zM192 778v2l163 148l52 1v-3l-172 -148h-43zM364 778v2
l163 148l52 1v-3l-172 -148h-43z" />
    <glyph glyph-name="Omacron" unicode="&#x14c;" horiz-adv-x="751" 
d="M93 365c0 -241 112 -338 283 -338c170 0 282 97 282 338s-112 338 -282 338c-171 0 -283 -97 -283 -338zM49 365c0 243 109 379 327 379c217 0 327 -136 327 -379s-110 -379 -327 -379c-218 0 -327 136 -327 379zM268 844v33h216v-33h-216z" />
    <glyph glyph-name="Oslash" unicode="&#xd8;" horiz-adv-x="775" 
d="M703 710l27 -26l-73 -73c38 -62 57 -145 57 -246c0 -243 -110 -379 -327 -379c-111 0 -194 35 -248 102l-67 -67l-27 26l72 72c-38 62 -57 145 -57 246c0 243 109 379 327 379c111 0 194 -35 248 -102zM104 365c0 -91 16 -161 45 -213l455 458c-50 64 -125 93 -217 93
c-171 0 -283 -97 -283 -338zM170 119c49 -64 125 -92 217 -92c170 0 282 97 282 338c0 90 -16 160 -44 213z" />
    <glyph glyph-name="Otilde" unicode="&#xd5;" horiz-adv-x="751" 
d="M93 365c0 -241 112 -338 283 -338c170 0 282 97 282 338s-112 338 -282 338c-171 0 -283 -97 -283 -338zM49 365c0 243 109 379 327 379c217 0 327 -136 327 -379s-110 -379 -327 -379c-218 0 -327 136 -327 379zM234 838c20 45 40 63 74 63c18 0 32 -5 72 -24
c36 -18 51 -22 61 -22c22 0 30 11 47 44l30 -13c-20 -45 -40 -66 -74 -66c-17 0 -32 5 -72 24c-35 18 -51 22 -61 22c-22 0 -30 -8 -46 -41z" />
    <glyph glyph-name="OE" unicode="&#x152;" horiz-adv-x="1115" 
d="M1057 730v-40h-400v-301h379v-40h-379v-309h409v-40h-453v172c-3 -19 -10 -39 -22 -57c-54 -86 -126 -129 -238 -129c-202 0 -304 136 -304 379s102 379 304 379c112 0 182 -38 238 -128c11 -17 18 -35 22 -53v167h444zM93 365c0 -241 105 -338 265 -338
c162 0 255 112 255 317v42c0 205 -93 317 -255 317c-160 0 -265 -97 -265 -338z" />
    <glyph glyph-name="P" unicode="P" horiz-adv-x="585" 
d="M288 730c37 0 71 -1 105 -5c97 -12 170 -66 170 -191c0 -131 -73 -192 -170 -204c-34 -4 -68 -5 -105 -5h-159v-325h-44v730h203zM129 366h167c123 0 222 20 222 166c0 123 -75 158 -222 158h-167v-324z" />
    <glyph glyph-name="Thorn" unicode="&#xde;" horiz-adv-x="612" 
d="M296 570c37 0 71 -1 105 -5c97 -12 171 -68 171 -194c0 -130 -74 -192 -171 -204c-34 -4 -68 -5 -105 -5h-167v-162h-44v730h44v-160h167zM129 203h176c123 0 222 18 222 168c0 140 -103 158 -222 158h-176v-326z" />
    <glyph glyph-name="Q" unicode="Q" horiz-adv-x="751" 
d="M703 365c0 -176 -58 -294 -171 -345l115 -131l-35 -29c-120 140 -122 139 -128 139c-10 0 -55 -13 -108 -13c-218 0 -327 136 -327 379s109 379 327 379c217 0 327 -136 327 -379zM93 365c0 -241 112 -338 283 -338c170 0 282 97 282 338s-112 338 -282 338
c-171 0 -283 -97 -283 -338z" />
    <glyph glyph-name="R" unicode="R" horiz-adv-x="615" 
d="M576 5v-5h-54c-14 45 -27 115 -36 185c-14 115 -54 149 -187 149h-169v-334h-45v730h192c38 0 70 -1 104 -5c111 -13 178 -74 178 -190c0 -96 -53 -159 -140 -180c65 -18 100 -70 111 -159c9 -73 18 -116 33 -174zM130 375h170c118 0 214 30 214 156
c0 111 -67 159 -219 159h-165v-315z" />
    <glyph glyph-name="Racute" unicode="&#x154;" horiz-adv-x="615" 
d="M576 5v-5h-54c-14 45 -27 115 -36 185c-14 115 -54 149 -187 149h-169v-334h-45v730h192c38 0 70 -1 104 -5c111 -13 178 -74 178 -190c0 -96 -53 -159 -140 -180c65 -18 100 -70 111 -159c9 -73 18 -116 33 -174zM130 375h170c118 0 214 30 214 156
c0 111 -67 159 -219 159h-165v-315zM181 785v3l170 148h58v-3l-181 -148h-47z" />
    <glyph glyph-name="Rcaron" unicode="&#x158;" horiz-adv-x="615" 
d="M576 5v-5h-54c-14 45 -27 115 -36 185c-14 115 -54 149 -187 149h-169v-334h-45v730h192c38 0 70 -1 104 -5c111 -13 178 -74 178 -190c0 -96 -53 -159 -140 -180c65 -18 100 -70 111 -159c9 -73 18 -116 33 -174zM130 375h170c118 0 214 30 214 156
c0 111 -67 159 -219 159h-165v-315zM148 932h45l104 -116l103 116h44l-129 -143h-37z" />
    <glyph glyph-name="uni0156" unicode="&#x156;" horiz-adv-x="615" 
d="M576 5v-5h-54c-14 45 -27 115 -36 185c-14 115 -54 149 -187 149h-169v-334h-45v730h192c38 0 70 -1 104 -5c111 -13 178 -74 178 -190c0 -96 -53 -159 -140 -180c65 -18 100 -70 111 -159c9 -73 18 -116 33 -174zM130 375h170c118 0 214 30 214 156
c0 111 -67 159 -219 159h-165v-315zM195 -213l153 152h48v-5l-158 -147h-43z" />
    <glyph glyph-name="S" unicode="S" horiz-adv-x="602" 
d="M299 744c147 0 243 -77 248 -216h-44c-4 123 -98 175 -206 175c-101 0 -191 -58 -191 -150c0 -100 67 -134 210 -164c158 -32 246 -89 246 -209c0 -136 -117 -194 -260 -194c-153 0 -256 67 -266 217h44c8 -113 88 -176 223 -176c113 0 215 39 215 151
c0 95 -71 139 -215 169c-163 33 -240 85 -240 205c0 115 105 192 236 192z" />
    <glyph glyph-name="Sacute" unicode="&#x15a;" horiz-adv-x="602" 
d="M299 744c147 0 243 -77 248 -216h-44c-4 123 -98 175 -206 175c-101 0 -191 -58 -191 -150c0 -100 67 -134 210 -164c158 -32 246 -89 246 -209c0 -136 -117 -194 -260 -194c-153 0 -256 67 -266 217h44c8 -113 88 -176 223 -176c113 0 215 39 215 151
c0 95 -71 139 -215 169c-163 33 -240 85 -240 205c0 115 105 192 236 192zM184 767v3l170 148h58v-3l-181 -148h-47z" />
    <glyph glyph-name="Scaron" unicode="&#x160;" horiz-adv-x="602" 
d="M299 744c147 0 243 -77 248 -216h-44c-4 123 -98 175 -206 175c-101 0 -191 -58 -191 -150c0 -100 67 -134 210 -164c158 -32 246 -89 246 -209c0 -136 -117 -194 -260 -194c-153 0 -256 67 -266 217h44c8 -113 88 -176 223 -176c113 0 215 39 215 151
c0 95 -71 139 -215 169c-163 33 -240 85 -240 205c0 115 105 192 236 192zM151 914h45l104 -116l103 116h44l-129 -143h-37z" />
    <glyph glyph-name="Scedilla" unicode="&#x15e;" horiz-adv-x="602" 
d="M299 744c147 0 243 -77 248 -216h-44c-4 123 -98 175 -206 175c-101 0 -191 -58 -191 -150c0 -100 67 -134 210 -164c158 -32 246 -89 246 -209c0 -132 -110 -191 -248 -194l-22 -30c63 -6 99 -30 99 -79c0 -57 -56 -81 -117 -81c-14 0 -32 2 -47 6v29c15 -5 31 -7 43 -7
c53 0 83 20 83 52c0 37 -34 55 -103 53v16l30 41c-141 7 -234 74 -244 217h44c8 -113 88 -176 223 -176c113 0 215 39 215 151c0 95 -71 139 -215 169c-163 33 -240 85 -240 205c0 115 105 192 236 192z" />
    <glyph glyph-name="uni0218" unicode="&#x218;" horiz-adv-x="602" 
d="M299 744c147 0 243 -77 248 -216h-44c-4 123 -98 175 -206 175c-101 0 -191 -58 -191 -150c0 -100 67 -134 210 -164c158 -32 246 -89 246 -209c0 -136 -117 -194 -260 -194c-153 0 -256 67 -266 217h44c8 -113 88 -176 223 -176c113 0 215 39 215 151
c0 95 -71 139 -215 169c-163 33 -240 85 -240 205c0 115 105 192 236 192zM197 -213l153 152h48v-5l-158 -147h-43z" />
    <glyph glyph-name="uni1E9E" unicode="&#x1e9e;" horiz-adv-x="660" 
d="M578 730v-31l-220 -257c115 -6 262 -61 262 -230c0 -148 -113 -226 -262 -226c-34 0 -83 4 -126 21v44c40 -15 85 -24 130 -24c111 0 214 57 214 186c0 148 -138 191 -274 191v35l215 251h-388v-690h-44v730h493z" />
    <glyph glyph-name="T" unicode="T" horiz-adv-x="588" 
d="M565 730v-40h-249v-690h-44v690h-249v40h542z" />
    <glyph glyph-name="Tbar" unicode="&#x166;" horiz-adv-x="588" 
d="M457 350v-33h-141v-317h-44v317h-141v33h141v340h-249v40h542v-40h-249v-340h141z" />
    <glyph glyph-name="Tcaron" unicode="&#x164;" horiz-adv-x="588" 
d="M565 730v-40h-249v-690h-44v690h-249v40h542zM146 932h45l104 -116l103 116h44l-129 -143h-37z" />
    <glyph glyph-name="uni0162" unicode="&#x162;" horiz-adv-x="588" 
d="M565 730v-40h-249v-690h-4l-32 -44c63 -6 99 -30 99 -79c0 -57 -56 -81 -117 -81c-14 0 -32 2 -47 6v29c15 -5 31 -7 43 -7c53 0 83 20 83 52c0 37 -34 55 -103 53v16l39 55h-5v690h-249v40h542z" />
    <glyph glyph-name="uni021A" unicode="&#x21a;" horiz-adv-x="588" 
d="M565 730v-40h-249v-690h-44v690h-249v40h542zM185 -213l153 152h48v-5l-158 -147h-43z" />
    <glyph glyph-name="U" unicode="U" horiz-adv-x="660" 
d="M583 262c0 -18 0 -39 -2 -72c-6 -114 -75 -204 -251 -204s-244 90 -251 204c-2 32 -2 54 -2 72v468h44v-504c0 -108 42 -199 209 -199s209 92 209 199v504h44v-468z" />
    <glyph glyph-name="Uacute" unicode="&#xda;" horiz-adv-x="660" 
d="M583 262c0 -18 0 -39 -2 -72c-6 -114 -75 -204 -251 -204s-244 90 -251 204c-2 32 -2 54 -2 72v468h44v-504c0 -108 42 -199 209 -199s209 92 209 199v504h44v-468zM215 785v3l170 148h58v-3l-181 -148h-47z" />
    <glyph glyph-name="Ucircumflex" unicode="&#xdb;" horiz-adv-x="660" 
d="M583 262c0 -18 0 -39 -2 -72c-6 -114 -75 -204 -251 -204s-244 90 -251 204c-2 32 -2 54 -2 72v468h44v-504c0 -108 42 -199 209 -199s209 92 209 199v504h44v-468zM181 789l129 143h39l130 -143h-46l-104 115l-103 -115h-45z" />
    <glyph glyph-name="Udieresis" unicode="&#xdc;" horiz-adv-x="660" 
d="M583 262c0 -18 0 -39 -2 -72c-6 -114 -75 -204 -251 -204s-244 90 -251 204c-2 32 -2 54 -2 72v468h44v-504c0 -108 42 -199 209 -199s209 92 209 199v504h44v-468zM229 861c0 19 15 34 34 34s34 -15 34 -34s-15 -34 -34 -34s-34 15 -34 34zM363 861c0 19 15 34 34 34
s34 -15 34 -34s-15 -34 -34 -34s-34 15 -34 34z" />
    <glyph glyph-name="Ugrave" unicode="&#xd9;" horiz-adv-x="660" 
d="M583 262c0 -18 0 -39 -2 -72c-6 -114 -75 -204 -251 -204s-244 90 -251 204c-2 32 -2 54 -2 72v468h44v-504c0 -108 42 -199 209 -199s209 92 209 199v504h44v-468zM213 933v3h58l170 -148v-3h-47z" />
    <glyph glyph-name="Uhungarumlaut" unicode="&#x170;" horiz-adv-x="660" 
d="M583 262c0 -18 0 -39 -2 -72c-6 -114 -75 -204 -251 -204s-244 90 -251 204c-2 32 -2 54 -2 72v468h44v-504c0 -108 42 -199 209 -199s209 92 209 199v504h44v-468zM146 778v2l163 148l52 1v-3l-172 -148h-43zM318 778v2l163 148l52 1v-3l-172 -148h-43z" />
    <glyph glyph-name="Umacron" unicode="&#x16a;" horiz-adv-x="660" 
d="M583 262c0 -18 0 -39 -2 -72c-6 -114 -75 -204 -251 -204s-244 90 -251 204c-2 32 -2 54 -2 72v468h44v-504c0 -108 42 -199 209 -199s209 92 209 199v504h44v-468zM222 844v33h216v-33h-216z" />
    <glyph glyph-name="Uogonek" unicode="&#x172;" horiz-adv-x="660" 
d="M583 262c0 -18 1 -39 -1 -72c-4 -62 -29 -115 -76 -154c-61 -55 -98 -108 -98 -157c0 -39 24 -52 55 -52c16 0 31 4 45 10l-2 -30c-19 -7 -37 -11 -56 -11c-41 0 -80 18 -80 75c0 49 27 91 62 128c-29 -9 -62 -13 -102 -13c-176 0 -244 90 -251 204c-2 32 -2 54 -2 72
v468h44v-507c0 -107 42 -198 209 -198s209 92 209 198v507h44v-468z" />
    <glyph glyph-name="Uring" unicode="&#x16e;" horiz-adv-x="660" 
d="M583 262c0 -18 0 -39 -2 -72c-6 -114 -75 -204 -251 -204s-244 90 -251 204c-2 32 -2 54 -2 72v468h44v-504c0 -108 42 -199 209 -199s209 92 209 199v504h44v-468zM234 864c0 51 44 80 96 80s96 -29 96 -80c0 -52 -44 -81 -96 -81s-96 29 -96 81zM268 864
c0 -34 25 -53 62 -53s62 19 62 53s-25 52 -62 52s-62 -18 -62 -52z" />
    <glyph glyph-name="V" unicode="V" horiz-adv-x="635" 
d="M620 730l-275 -730h-56l-274 730h49l254 -687l253 687h49z" />
    <glyph glyph-name="W" unicode="W" horiz-adv-x="890" 
d="M874 730l-187 -730h-56l-107 380c-28 100 -53 199 -79 299c-27 -100 -56 -199 -85 -299l-114 -380h-55l-176 730h47l80 -339c28 -118 53 -235 79 -354c32 119 64 235 100 354l99 329h51l93 -329c33 -117 66 -232 96 -350c27 117 55 233 85 350l86 339h43z" />
    <glyph glyph-name="Wacute" unicode="&#x1e82;" horiz-adv-x="890" 
d="M874 730l-187 -730h-56l-107 380c-28 100 -53 199 -79 299c-27 -100 -56 -199 -85 -299l-114 -380h-55l-176 730h47l80 -339c28 -118 53 -235 79 -354c32 119 64 235 100 354l99 329h51l93 -329c33 -117 66 -232 96 -350c27 117 55 233 85 350l86 339h43zM329 785v3
l170 148h58v-3l-181 -148h-47z" />
    <glyph glyph-name="Wcircumflex" unicode="&#x174;" horiz-adv-x="890" 
d="M874 730l-187 -730h-56l-107 380c-28 100 -53 199 -79 299c-27 -100 -56 -199 -85 -299l-114 -380h-55l-176 730h47l80 -339c28 -118 53 -235 79 -354c32 119 64 235 100 354l99 329h51l93 -329c33 -117 66 -232 96 -350c27 117 55 233 85 350l86 339h43zM295 789
l129 143h39l130 -143h-46l-104 115l-103 -115h-45z" />
    <glyph glyph-name="Wdieresis" unicode="&#x1e84;" horiz-adv-x="890" 
d="M874 730l-187 -730h-56l-107 380c-28 100 -53 199 -79 299c-27 -100 -56 -199 -85 -299l-114 -380h-55l-176 730h47l80 -339c28 -118 53 -235 79 -354c32 119 64 235 100 354l99 329h51l93 -329c33 -117 66 -232 96 -350c27 117 55 233 85 350l86 339h43zM343 861
c0 19 15 34 34 34s34 -15 34 -34s-15 -34 -34 -34s-34 15 -34 34zM477 861c0 19 15 34 34 34s34 -15 34 -34s-15 -34 -34 -34s-34 15 -34 34z" />
    <glyph glyph-name="Wgrave" unicode="&#x1e80;" horiz-adv-x="890" 
d="M874 730l-187 -730h-56l-107 380c-28 100 -53 199 -79 299c-27 -100 -56 -199 -85 -299l-114 -380h-55l-176 730h47l80 -339c28 -118 53 -235 79 -354c32 119 64 235 100 354l99 329h51l93 -329c33 -117 66 -232 96 -350c27 117 55 233 85 350l86 339h43zM327 933v3h58
l170 -148v-3h-47z" />
    <glyph glyph-name="X" unicode="X" horiz-adv-x="607" 
d="M590 730l-258 -362l257 -368h-55l-233 334l-232 -334h-53l258 365l-242 365h52l219 -335l233 335h54z" />
    <glyph glyph-name="Y" unicode="Y" horiz-adv-x="599" 
d="M597 730l-276 -422v-308h-44v306l-275 424h51l247 -382l245 382h52z" />
    <glyph glyph-name="Yacute" unicode="&#xdd;" horiz-adv-x="599" 
d="M597 730l-276 -422v-308h-44v306l-275 424h51l247 -382l245 382h52zM184 785v3l170 148h58v-3l-181 -148h-47z" />
    <glyph glyph-name="Ycircumflex" unicode="&#x176;" horiz-adv-x="599" 
d="M597 730l-276 -422v-308h-44v306l-275 424h51l247 -382l245 382h52zM150 789l129 143h39l130 -143h-46l-104 115l-103 -115h-45z" />
    <glyph glyph-name="Ydieresis" unicode="&#x178;" horiz-adv-x="599" 
d="M597 730l-276 -422v-308h-44v306l-275 424h51l247 -382l245 382h52zM198 861c0 19 15 34 34 34s34 -15 34 -34s-15 -34 -34 -34s-34 15 -34 34zM332 861c0 19 15 34 34 34s34 -15 34 -34s-15 -34 -34 -34s-34 15 -34 34z" />
    <glyph glyph-name="Ygrave" unicode="&#x1ef2;" horiz-adv-x="599" 
d="M597 730l-276 -422v-308h-44v306l-275 424h51l247 -382l245 382h52zM182 933v3h58l170 -148v-3h-47z" />
    <glyph glyph-name="Z" unicode="Z" horiz-adv-x="591" 
d="M545 730v-32l-450 -658h460v-40h-519v29l451 661h-435v40h493z" />
    <glyph glyph-name="Zacute" unicode="&#x179;" horiz-adv-x="591" 
d="M545 730v-32l-450 -658h460v-40h-519v29l451 661h-435v40h493zM185 785v3l170 148h58v-3l-181 -148h-47z" />
    <glyph glyph-name="Zcaron" unicode="&#x17d;" horiz-adv-x="591" 
d="M545 730v-32l-450 -658h460v-40h-519v29l451 661h-435v40h493zM152 932h45l104 -116l103 116h44l-129 -143h-37z" />
    <glyph glyph-name="Zdotaccent" unicode="&#x17b;" horiz-adv-x="591" 
d="M545 730v-32l-450 -658h460v-40h-519v29l451 661h-435v40h493zM265 862c0 19 15 35 35 35s36 -16 36 -35c0 -20 -16 -36 -36 -36s-35 16 -35 36z" />
    <glyph glyph-name="a" unicode="a" horiz-adv-x="503" 
d="M259 527c117 0 171 -54 178 -143c2 -27 2 -43 2 -71v-313h-39l-2 98c-30 -74 -99 -112 -177 -112c-113 0 -174 53 -174 146c0 132 127 162 318 162h32v47c0 83 -18 148 -139 148c-90 0 -142 -34 -153 -117h-39c5 88 59 155 193 155zM90 136c0 -68 39 -112 139 -112
c92 0 168 70 168 166v67c-174 3 -307 -8 -307 -121z" />
    <glyph glyph-name="aacute" unicode="&#xe1;" horiz-adv-x="503" 
d="M259 527c117 0 171 -54 178 -143c2 -27 2 -43 2 -71v-313h-39l-2 98c-30 -74 -99 -112 -177 -112c-113 0 -174 53 -174 146c0 132 127 162 318 162h32v47c0 83 -18 148 -139 148c-90 0 -142 -34 -153 -117h-39c5 88 59 155 193 155zM90 136c0 -68 39 -112 139 -112
c92 0 168 70 168 166v67c-174 3 -307 -8 -307 -121zM149 603v3l168 149h55v-3l-178 -149h-45z" />
    <glyph glyph-name="abreve" unicode="&#x103;" horiz-adv-x="503" 
d="M259 527c117 0 171 -54 178 -143c2 -27 2 -43 2 -71v-313h-39l-2 98c-30 -74 -99 -112 -177 -112c-113 0 -174 53 -174 146c0 132 127 162 318 162h32v47c0 83 -18 148 -139 148c-90 0 -142 -34 -153 -117h-39c5 88 59 155 193 155zM90 136c0 -68 39 -112 139 -112
c92 0 168 70 168 166v67c-174 3 -307 -8 -307 -121zM123 755h34c-1 -73 13 -135 95 -135s96 62 95 135h34c2 -89 -20 -165 -129 -165s-131 76 -129 165z" />
    <glyph glyph-name="acircumflex" unicode="&#xe2;" horiz-adv-x="503" 
d="M259 527c117 0 171 -54 178 -143c2 -27 2 -43 2 -71v-313h-39l-2 98c-30 -74 -99 -112 -177 -112c-113 0 -174 53 -174 146c0 132 127 162 318 162h32v47c0 83 -18 148 -139 148c-90 0 -142 -34 -153 -117h-39c5 88 59 155 193 155zM90 136c0 -68 39 -112 139 -112
c92 0 168 70 168 166v67c-174 3 -307 -8 -307 -121zM115 603l117 152h39l118 -152h-43l-95 123l-94 -123h-42z" />
    <glyph glyph-name="adieresis" unicode="&#xe4;" horiz-adv-x="503" 
d="M259 527c117 0 171 -54 178 -143c2 -27 2 -43 2 -71v-313h-39l-2 98c-30 -74 -99 -112 -177 -112c-113 0 -174 53 -174 146c0 132 127 162 318 162h32v47c0 83 -18 148 -139 148c-90 0 -142 -34 -153 -117h-39c5 88 59 155 193 155zM90 136c0 -68 39 -112 139 -112
c92 0 168 70 168 166v67c-174 3 -307 -8 -307 -121zM160 659c0 18 14 32 32 32s32 -14 32 -32s-14 -32 -32 -32s-32 14 -32 32zM280 659c0 18 14 32 32 32s33 -14 33 -32s-15 -32 -33 -32s-32 14 -32 32z" />
    <glyph glyph-name="agrave" unicode="&#xe0;" horiz-adv-x="503" 
d="M259 527c117 0 171 -54 178 -143c2 -27 2 -43 2 -71v-313h-39l-2 98c-30 -74 -99 -112 -177 -112c-113 0 -174 53 -174 146c0 132 127 162 318 162h32v47c0 83 -18 148 -139 148c-90 0 -142 -34 -153 -117h-39c5 88 59 155 193 155zM90 136c0 -68 39 -112 139 -112
c92 0 168 70 168 166v67c-174 3 -307 -8 -307 -121zM136 752v3h55l168 -149v-3h-45z" />
    <glyph glyph-name="amacron" unicode="&#x101;" horiz-adv-x="503" 
d="M259 527c117 0 171 -54 178 -143c2 -27 2 -43 2 -71v-313h-39l-2 98c-30 -74 -99 -112 -177 -112c-113 0 -174 53 -174 146c0 132 127 162 318 162h32v47c0 83 -18 148 -139 148c-90 0 -142 -34 -153 -117h-39c5 88 59 155 193 155zM90 136c0 -68 39 -112 139 -112
c92 0 168 70 168 166v67c-174 3 -307 -8 -307 -121zM132 645v32h241v-32h-241z" />
    <glyph glyph-name="aogonek" unicode="&#x105;" horiz-adv-x="503" 
d="M259 527c117 0 171 -54 178 -143c2 -27 2 -43 2 -71v-313c-49 -26 -94 -75 -94 -122c0 -38 24 -50 55 -50c16 0 31 3 45 10l-2 -31c-19 -7 -37 -11 -56 -11c-41 0 -80 18 -80 75c0 56 42 102 93 136l-2 91c-30 -74 -99 -112 -177 -112c-113 0 -174 53 -174 146
c0 132 127 162 318 162h32v47c0 83 -18 148 -139 148c-90 0 -142 -34 -153 -117h-39c5 88 59 155 193 155zM90 136c0 -68 39 -112 139 -112c92 0 168 70 168 166v67c-174 3 -307 -8 -307 -121z" />
    <glyph glyph-name="aring" unicode="&#xe5;" horiz-adv-x="503" 
d="M259 527c117 0 171 -54 178 -143c2 -27 2 -43 2 -71v-313h-39l-2 98c-30 -74 -99 -112 -177 -112c-113 0 -174 53 -174 146c0 132 127 162 318 162h32v47c0 83 -18 148 -139 148c-90 0 -142 -34 -153 -117h-39c5 88 59 155 193 155zM90 136c0 -68 39 -112 139 -112
c92 0 168 70 168 166v67c-174 3 -307 -8 -307 -121zM156 682c0 52 44 80 96 80s96 -28 96 -80s-44 -80 -96 -80s-96 28 -96 80zM190 682c0 -34 25 -53 62 -53s62 19 62 53s-25 53 -62 53s-62 -19 -62 -53z" />
    <glyph glyph-name="atilde" unicode="&#xe3;" horiz-adv-x="503" 
d="M259 527c117 0 171 -54 178 -143c2 -27 2 -43 2 -71v-313h-39l-2 98c-30 -74 -99 -112 -177 -112c-113 0 -174 53 -174 146c0 132 127 162 318 162h32v47c0 83 -18 148 -139 148c-90 0 -142 -34 -153 -117h-39c5 88 59 155 193 155zM90 136c0 -68 39 -112 139 -112
c92 0 168 70 168 166v67c-174 3 -307 -8 -307 -121zM130 630c7 51 21 71 54 71c18 0 32 -5 72 -24c29 -14 51 -22 61 -22c16 0 23 9 27 41l30 -3c-7 -51 -21 -71 -54 -71c-17 0 -39 7 -72 24c-35 18 -51 22 -61 22c-16 0 -23 -9 -27 -41z" />
    <glyph glyph-name="ae" unicode="&#xe6;" horiz-adv-x="900" 
d="M270 527c95 0 157 -43 174 -110c34 75 98 110 186 110c145 0 213 -89 213 -247c0 -8 0 -15 -1 -28h-386c2 -163 68 -228 174 -228c87 0 151 43 170 130h41c-22 -108 -98 -168 -213 -168c-103 0 -169 50 -196 145c-24 -89 -104 -145 -204 -145c-119 0 -181 53 -181 148
c0 120 126 155 333 155h36v48c0 83 -30 152 -146 152c-98 0 -150 -36 -162 -125h-39c6 93 63 163 201 163zM90 138c0 -69 38 -114 141 -114c97 0 185 65 185 193v36c-189 3 -326 -11 -326 -115zM457 288h345c-4 156 -82 201 -175 201s-163 -51 -170 -201z" />
    <glyph glyph-name="b" unicode="b" horiz-adv-x="565" 
d="M111 730v-331c18 85 96 128 191 128c148 0 218 -110 218 -272c0 -166 -82 -269 -226 -269c-85 0 -164 39 -184 126l-1 -112h-40v730h42zM111 233c0 -161 94 -209 177 -209c124 0 187 92 187 231c0 130 -49 234 -183 234c-100 0 -181 -55 -181 -218v-38z" />
    <glyph glyph-name="c" unicode="c" horiz-adv-x="507" 
d="M272 527c123 0 192 -68 198 -170h-42c-7 79 -60 132 -158 132c-108 0 -182 -64 -182 -232c0 -157 65 -233 179 -233c85 0 149 52 161 132h42c-14 -100 -89 -170 -206 -170c-149 0 -219 105 -219 270c0 180 79 271 227 271z" />
    <glyph glyph-name="cacute" unicode="&#x107;" horiz-adv-x="507" 
d="M272 527c123 0 192 -68 198 -170h-42c-7 79 -60 132 -158 132c-108 0 -182 -64 -182 -232c0 -157 65 -233 179 -233c85 0 149 52 161 132h42c-14 -100 -89 -170 -206 -170c-149 0 -219 105 -219 270c0 180 79 271 227 271zM156 601v3l168 149h55v-3l-178 -149h-45z" />
    <glyph glyph-name="ccaron" unicode="&#x10d;" horiz-adv-x="507" 
d="M272 527c123 0 192 -68 198 -170h-42c-7 79 -60 132 -158 132c-108 0 -182 -64 -182 -232c0 -157 65 -233 179 -233c85 0 149 52 161 132h42c-14 -100 -89 -170 -206 -170c-149 0 -219 105 -219 270c0 180 79 271 227 271zM122 752h43l95 -122l94 122h42l-117 -152h-39z
" />
    <glyph glyph-name="ccedilla" unicode="&#xe7;" horiz-adv-x="507" 
d="M272 527c123 0 192 -68 198 -170h-42c-7 79 -60 132 -158 132c-108 0 -182 -64 -182 -232c0 -157 65 -233 179 -233c85 0 149 52 161 132h42c-13 -94 -80 -161 -185 -169l-21 -31c63 -6 100 -29 100 -79c0 -57 -56 -81 -117 -81c-14 0 -32 2 -47 6v29c15 -5 31 -7 43 -7
c53 0 83 20 83 52c0 37 -35 55 -103 53v16l28 41c-140 6 -206 110 -206 270c0 180 79 271 227 271z" />
    <glyph glyph-name="cdotaccent" unicode="&#x10b;" horiz-adv-x="507" 
d="M272 527c123 0 192 -68 198 -170h-42c-7 79 -60 132 -158 132c-108 0 -182 -64 -182 -232c0 -157 65 -233 179 -233c85 0 149 52 161 132h42c-14 -100 -89 -170 -206 -170c-149 0 -219 105 -219 270c0 180 79 271 227 271zM225 657c0 19 15 34 34 34s34 -15 34 -34
s-15 -34 -34 -34s-34 15 -34 34z" />
    <glyph glyph-name="d" unicode="d" horiz-adv-x="565" 
d="M495 730v-730h-39l-2 116c-17 -86 -97 -130 -191 -130c-148 0 -218 110 -218 272c0 166 82 269 225 269c85 0 164 -39 184 -125v328h41zM89 258c0 -130 50 -234 183 -234c101 0 182 55 182 218v38c0 161 -95 209 -177 209c-124 0 -188 -92 -188 -231z" />
    <glyph glyph-name="eth" unicode="&#xf0;" horiz-adv-x="549" 
d="M179 747c64 -16 121 -39 168 -74l110 45l13 -32l-93 -39c75 -71 119 -183 119 -358c0 -213 -90 -301 -232 -302c-148 -1 -219 112 -219 269c0 165 67 266 221 266c90 0 160 -46 180 -108c-16 100 -53 169 -109 217l-132 -55l-14 32l114 47c-38 27 -84 45 -135 58zM88 257
c0 -153 66 -232 181 -232c118 0 184 89 184 249c0 139 -74 210 -182 210c-115 0 -183 -68 -183 -227z" />
    <glyph glyph-name="dcaron" unicode="&#x10f;" horiz-adv-x="667" 
d="M642 740v-15l-59 -243h-35l55 258h39zM45 258c0 166 82 269 225 269c85 0 164 -39 184 -125v328h41v-730h-39l-2 116c-17 -86 -97 -130 -191 -130c-148 0 -218 110 -218 272zM89 258c0 -130 50 -234 183 -234c101 0 182 55 182 218v38c0 161 -95 209 -177 209
c-124 0 -188 -92 -188 -231z" />
    <glyph glyph-name="dcroat" unicode="&#x111;" horiz-adv-x="581" 
d="M551 640v-33h-56v-607h-39l-2 116c-17 -86 -97 -130 -191 -130c-148 0 -218 110 -218 272c0 166 82 269 225 269c85 0 164 -39 184 -125v205h-157v33h157v90h41v-90h56zM89 258c0 -130 50 -234 183 -234c101 0 182 55 182 218v38c0 161 -95 209 -177 209
c-124 0 -188 -92 -188 -231z" />
    <glyph glyph-name="e" unicode="e" horiz-adv-x="530" 
d="M263 527c143 0 210 -101 210 -259c0 -6 0 -13 -1 -25h-385c5 -156 70 -219 177 -219c84 0 145 43 164 127h42c-21 -105 -97 -165 -208 -165c-145 0 -217 95 -217 270c0 188 80 271 218 271zM87 279h344c-3 156 -78 210 -170 210c-98 0 -170 -53 -174 -210z" />
    <glyph glyph-name="eacute" unicode="&#xe9;" horiz-adv-x="530" 
d="M263 527c143 0 210 -101 210 -259c0 -6 0 -13 -1 -25h-385c5 -156 70 -219 177 -219c84 0 145 43 164 127h42c-21 -105 -97 -165 -208 -165c-145 0 -217 95 -217 270c0 188 80 271 218 271zM87 279h344c-3 156 -78 210 -170 210c-98 0 -170 -53 -174 -210zM158 602v3
l168 149h55v-3l-178 -149h-45z" />
    <glyph glyph-name="ecaron" unicode="&#x11b;" horiz-adv-x="530" 
d="M263 527c143 0 210 -101 210 -259c0 -6 0 -13 -1 -25h-385c5 -156 70 -219 177 -219c84 0 145 43 164 127h42c-21 -105 -97 -165 -208 -165c-145 0 -217 95 -217 270c0 188 80 271 218 271zM87 279h344c-3 156 -78 210 -170 210c-98 0 -170 -53 -174 -210zM124 753h43
l95 -122l94 122h42l-117 -152h-39z" />
    <glyph glyph-name="ecircumflex" unicode="&#xea;" horiz-adv-x="530" 
d="M263 527c143 0 210 -101 210 -259c0 -6 0 -13 -1 -25h-385c5 -156 70 -219 177 -219c84 0 145 43 164 127h42c-21 -105 -97 -165 -208 -165c-145 0 -217 95 -217 270c0 188 80 271 218 271zM87 279h344c-3 156 -78 210 -170 210c-98 0 -170 -53 -174 -210zM124 602
l117 152h39l118 -152h-43l-95 123l-94 -123h-42z" />
    <glyph glyph-name="edieresis" unicode="&#xeb;" horiz-adv-x="530" 
d="M263 527c143 0 210 -101 210 -259c0 -6 0 -13 -1 -25h-385c5 -156 70 -219 177 -219c84 0 145 43 164 127h42c-21 -105 -97 -165 -208 -165c-145 0 -217 95 -217 270c0 188 80 271 218 271zM87 279h344c-3 156 -78 210 -170 210c-98 0 -170 -53 -174 -210zM169 658
c0 18 14 32 32 32s32 -14 32 -32s-14 -32 -32 -32s-32 14 -32 32zM289 658c0 18 14 32 32 32s33 -14 33 -32s-15 -32 -33 -32s-32 14 -32 32z" />
    <glyph glyph-name="edotaccent" unicode="&#x117;" horiz-adv-x="530" 
d="M263 527c143 0 210 -101 210 -259c0 -6 0 -13 -1 -25h-385c5 -156 70 -219 177 -219c84 0 145 43 164 127h42c-21 -105 -97 -165 -208 -165c-145 0 -217 95 -217 270c0 188 80 271 218 271zM87 279h344c-3 156 -78 210 -170 210c-98 0 -170 -53 -174 -210zM227 658
c0 19 15 34 34 34s34 -15 34 -34s-15 -34 -34 -34s-34 15 -34 34z" />
    <glyph glyph-name="egrave" unicode="&#xe8;" horiz-adv-x="530" 
d="M263 527c143 0 210 -101 210 -259c0 -6 0 -13 -1 -25h-385c5 -156 70 -219 177 -219c84 0 145 43 164 127h42c-21 -105 -97 -165 -208 -165c-145 0 -217 95 -217 270c0 188 80 271 218 271zM87 279h344c-3 156 -78 210 -170 210c-98 0 -170 -53 -174 -210zM145 751v3h55
l168 -149v-3h-45z" />
    <glyph glyph-name="emacron" unicode="&#x113;" horiz-adv-x="530" 
d="M263 527c143 0 210 -101 210 -259c0 -6 0 -13 -1 -25h-385c5 -156 70 -219 177 -219c84 0 145 43 164 127h42c-21 -105 -97 -165 -208 -165c-145 0 -217 95 -217 270c0 188 80 271 218 271zM87 279h344c-3 156 -78 210 -170 210c-98 0 -170 -53 -174 -210zM141 644v32
h241v-32h-241z" />
    <glyph glyph-name="eogonek" unicode="&#x119;" horiz-adv-x="538" 
d="M268 527c145 0 213 -99 213 -258c0 -7 0 -13 -1 -26h-394c5 -159 73 -221 183 -221c87 0 150 44 169 132h41c-12 -59 -42 -100 -81 -131c-61 -48 -100 -99 -100 -145c0 -38 24 -51 55 -51c16 0 31 4 45 10l-2 -30c-19 -7 -37 -11 -56 -11c-41 0 -80 18 -80 75
c0 46 28 86 66 120c-19 -3 -38 -5 -60 -5c-148 0 -221 95 -221 270c0 188 82 271 223 271zM86 278h354c-1 159 -80 213 -175 213c-100 0 -174 -53 -179 -213z" />
    <glyph glyph-name="f" unicode="f" horiz-adv-x="266" 
d="M206 744c22 0 33 -1 52 -5v-38c-106 18 -126 -32 -126 -95v-97h115v-37h-115v-472h-42v472h-63v37h63v79c0 15 0 26 1 46c4 70 49 110 115 110z" />
    <glyph glyph-name="g" unicode="g" horiz-adv-x="565" 
d="M496 141c0 -78 0 -110 -1 -144c-4 -125 -80 -201 -212 -201c-95 0 -188 25 -207 155h41c18 -99 93 -117 166 -117c123 0 171 78 171 177v109c-15 -84 -88 -129 -183 -129c-147 0 -216 110 -216 269c0 165 80 267 221 267c87 0 160 -39 179 -122l1 108h40v-372zM100 260
c0 -127 48 -231 178 -231c98 0 176 55 176 215v39c0 158 -92 206 -173 206c-120 0 -181 -91 -181 -229z" />
    <glyph glyph-name="gbreve" unicode="&#x11f;" horiz-adv-x="565" 
d="M496 141c0 -78 0 -110 -1 -144c-4 -125 -80 -201 -212 -201c-95 0 -188 25 -207 155h41c18 -99 93 -117 166 -117c123 0 171 78 171 177v109c-15 -84 -88 -129 -183 -129c-147 0 -216 110 -216 269c0 165 80 267 221 267c87 0 160 -39 179 -122l1 108h40v-372zM100 260
c0 -127 48 -231 178 -231c98 0 176 55 176 215v39c0 158 -92 206 -173 206c-120 0 -181 -91 -181 -229zM154 753h34c-1 -73 13 -135 95 -135s96 62 95 135h34c2 -89 -20 -165 -129 -165s-131 76 -129 165z" />
    <glyph glyph-name="uni0123" unicode="&#x123;" horiz-adv-x="564" 
d="M496 141c0 -78 0 -110 -1 -144c-4 -125 -80 -201 -212 -201c-95 0 -188 25 -207 155h41c18 -99 93 -117 166 -117c123 0 171 78 171 177v109c-15 -84 -88 -129 -183 -129c-147 0 -216 110 -216 269c0 165 80 267 221 267c87 0 160 -39 179 -122l1 108h40v-372zM100 260
c0 -127 48 -231 178 -231c98 0 176 55 176 215v39c0 158 -92 206 -173 206c-120 0 -181 -91 -181 -229zM202 572v5l156 126h46l-154 -131h-48z" />
    <glyph glyph-name="gdotaccent" unicode="&#x121;" horiz-adv-x="565" 
d="M496 141c0 -78 0 -110 -1 -144c-4 -125 -80 -201 -212 -201c-95 0 -188 25 -207 155h41c18 -99 93 -117 166 -117c123 0 171 78 171 177v109c-15 -84 -88 -129 -183 -129c-147 0 -216 110 -216 269c0 165 80 267 221 267c87 0 160 -39 179 -122l1 108h40v-372zM100 260
c0 -127 48 -231 178 -231c98 0 176 55 176 215v39c0 158 -92 206 -173 206c-120 0 -181 -91 -181 -229zM249 657c0 19 15 34 34 34s34 -15 34 -34s-15 -34 -34 -34s-34 15 -34 34z" />
    <glyph glyph-name="h" unicode="h" horiz-adv-x="528" 
d="M111 730v-323c20 79 89 120 169 120c103 0 169 -40 180 -142c3 -27 4 -44 4 -87v-298h-42v310c0 106 -20 178 -150 178c-90 1 -161 -63 -161 -196v-292h-42v730h42z" />
    <glyph glyph-name="hbar" unicode="&#x127;" horiz-adv-x="538" 
d="M227 640v-33h-106v-200c20 79 89 120 169 120c103 0 169 -40 180 -142c3 -27 4 -44 4 -87v-298h-42v310c0 106 -20 178 -150 178c-90 1 -161 -63 -161 -196v-292h-42v607h-50v33h50v90h42v-90h106z" />
    <glyph glyph-name="i" unicode="i" horiz-adv-x="180" 
d="M111 513v-513h-42v513h42zM56 657c0 19 15 34 34 34s34 -15 34 -34s-15 -34 -34 -34s-34 15 -34 34z" />
    <glyph glyph-name="dotlessi" unicode="&#x131;" horiz-adv-x="180" 
d="M111 513v-513h-42v513h42z" />
    <glyph glyph-name="iacute" unicode="&#xed;" horiz-adv-x="180" 
d="M111 513v-513h-42v513h42zM-13 601v3l168 149h55v-3l-178 -149h-45z" />
    <glyph glyph-name="icircumflex" unicode="&#xee;" horiz-adv-x="180" 
d="M111 513v-513h-42v513h42zM-47 601l117 152h39l118 -152h-43l-95 123l-94 -123h-42z" />
    <glyph glyph-name="idieresis" unicode="&#xef;" horiz-adv-x="180" 
d="M111 513v-513h-42v513h42zM-2 657c0 18 14 32 32 32s32 -14 32 -32s-14 -32 -32 -32s-32 14 -32 32zM118 657c0 18 14 32 32 32s33 -14 33 -32s-15 -32 -33 -32s-32 14 -32 32z" />
    <glyph glyph-name="igrave" unicode="&#xec;" horiz-adv-x="180" 
d="M111 513v-513h-42v513h42zM-26 750v3h55l168 -149v-3h-45z" />
    <glyph glyph-name="ij" unicode="&#x133;" horiz-adv-x="363" 
d="M111 513v-513h-42v513h42zM56 657c0 19 15 34 34 34s34 -15 34 -34s-15 -34 -34 -34s-34 15 -34 34zM155 -200v35c83 -14 97 10 97 80v598h42v-580c0 -20 0 -35 -1 -53c-4 -63 -33 -84 -100 -84c-12 0 -24 1 -38 4zM239 657c0 19 15 34 34 34s34 -15 34 -34
s-15 -34 -34 -34s-34 15 -34 34z" />
    <glyph glyph-name="imacron" unicode="&#x12b;" horiz-adv-x="180" 
d="M111 513v-513h-42v513h42zM-30 643v32h241v-32h-241z" />
    <glyph glyph-name="iogonek" unicode="&#x12f;" horiz-adv-x="180" 
d="M111 513v-513c-49 -26 -94 -75 -94 -122c0 -38 24 -50 55 -50c16 0 31 3 45 10l-2 -31c-19 -7 -37 -11 -56 -11c-41 0 -80 18 -80 75c0 55 40 100 90 134v508h42zM56 657c0 19 15 34 34 34s34 -15 34 -34s-15 -34 -34 -34s-34 15 -34 34z" />
    <glyph glyph-name="j" unicode="j" horiz-adv-x="183" 
d="M114 -67c0 -20 0 -35 -1 -53c-4 -63 -33 -84 -100 -84c-12 0 -24 1 -38 4v35c83 -14 97 10 97 80v598h42v-580zM59 657c0 19 15 34 34 34s34 -15 34 -34s-15 -34 -34 -34s-34 15 -34 34z" />
    <glyph glyph-name="uni0237" unicode="&#x237;" horiz-adv-x="183" 
d="M114 -67c0 -20 0 -35 -1 -53c-4 -63 -33 -84 -100 -84c-12 0 -24 1 -38 4v35c83 -14 97 10 97 80v598h42v-580z" />
    <glyph glyph-name="k" unicode="k" horiz-adv-x="479" 
d="M450 513l-203 -205l211 -308h-53l-191 280l-103 -101v-179h-42v730h42v-506l286 289h53z" />
    <glyph glyph-name="uni0137" unicode="&#x137;" horiz-adv-x="479" 
d="M450 513l-203 -205l211 -308h-53l-191 280l-103 -101v-179h-42v730h42v-506l286 289h53zM120 -190l154 131h48v-5l-156 -126h-46z" />
    <glyph glyph-name="l" unicode="l" horiz-adv-x="205" 
d="M108 101c0 -71 8 -75 67 -68v-35c-13 -2 -28 -4 -41 -4c-45 0 -64 19 -67 65c-1 20 -1 37 -1 74v597h42v-629z" />
    <glyph glyph-name="lacute" unicode="&#x13a;" horiz-adv-x="205" 
d="M108 101c0 -71 8 -75 67 -68v-35c-13 -2 -28 -4 -41 -4c-45 0 -64 19 -67 65c-1 20 -1 37 -1 74v597h42v-629zM-15 823v3l168 149h55v-3l-178 -149h-45z" />
    <glyph glyph-name="lcaron" unicode="&#x13e;" horiz-adv-x="259" 
d="M248 740v-15l-59 -243h-35l55 258h39zM66 133v597h42v-629c0 -71 8 -75 67 -68v-35c-13 -2 -28 -4 -41 -4c-45 0 -64 19 -67 65c-1 20 -1 37 -1 74z" />
    <glyph glyph-name="uni013C" unicode="&#x13c;" horiz-adv-x="205" 
d="M108 101c0 -71 8 -75 67 -68v-35c-13 -2 -28 -4 -41 -4c-45 0 -64 19 -67 65c-1 20 -1 37 -1 74v597h42v-629zM-2 -190l154 131h48v-5l-156 -126h-46z" />
    <glyph glyph-name="ldot" unicode="&#x140;" horiz-adv-x="242" 
d="M208 308c-19 0 -34 15 -34 34s15 34 34 34s34 -15 34 -34s-15 -34 -34 -34zM66 133v597h42v-629c0 -71 8 -75 67 -68v-35c-13 -2 -28 -4 -41 -4c-45 0 -64 19 -67 65c-1 20 -1 37 -1 74z" />
    <glyph glyph-name="lslash" unicode="&#x142;" horiz-adv-x="265" 
d="M225 414v-41l-69 -56v-216c0 -71 8 -75 67 -68v-35c-13 -2 -28 -4 -41 -4c-45 0 -64 19 -67 65c-1 20 -1 37 -1 74v158l-68 -55v41l68 55v398h42v-372z" />
    <glyph glyph-name="m" unicode="m" horiz-adv-x="811" 
d="M267 527c84 0 136 -43 153 -118c17 80 83 118 160 118c93 0 152 -46 162 -137c4 -27 5 -44 5 -69v-321h-42v317c0 93 -18 171 -131 171c-86 0 -145 -59 -145 -190v-298h-42v309c0 89 -16 180 -132 180c-83 0 -144 -60 -144 -191v-298h-42v513h40l1 -95
c12 71 84 109 157 109z" />
    <glyph glyph-name="n" unicode="n" horiz-adv-x="528" 
d="M280 527c103 0 169 -40 180 -142c3 -27 4 -44 4 -87v-298h-42v310c0 106 -20 178 -150 178c-90 1 -161 -63 -161 -196v-292h-42v513h40l1 -107c20 80 90 121 170 121z" />
    <glyph glyph-name="nacute" unicode="&#x144;" horiz-adv-x="528" 
d="M280 527c103 0 169 -40 180 -142c3 -27 4 -44 4 -87v-298h-42v310c0 106 -20 178 -150 178c-90 1 -161 -63 -161 -196v-292h-42v513h40l1 -107c20 80 90 121 170 121zM169 601v3l168 149h55v-3l-178 -149h-45z" />
    <glyph glyph-name="ncaron" unicode="&#x148;" horiz-adv-x="528" 
d="M280 527c103 0 169 -40 180 -142c3 -27 4 -44 4 -87v-298h-42v310c0 106 -20 178 -150 178c-90 1 -161 -63 -161 -196v-292h-42v513h40l1 -107c20 80 90 121 170 121zM135 752h43l95 -122l94 122h42l-117 -152h-39z" />
    <glyph glyph-name="uni0146" unicode="&#x146;" horiz-adv-x="528" 
d="M280 527c103 0 169 -40 180 -142c3 -27 4 -44 4 -87v-298h-42v310c0 106 -20 178 -150 178c-90 1 -161 -63 -161 -196v-292h-42v513h40l1 -107c20 80 90 121 170 121zM151 -190l154 131h48v-5l-156 -126h-46z" />
    <glyph glyph-name="ntilde" unicode="&#xf1;" horiz-adv-x="528" 
d="M280 527c103 0 169 -40 180 -142c3 -27 4 -44 4 -87v-298h-42v310c0 106 -20 178 -150 178c-90 1 -161 -63 -161 -196v-292h-42v513h40l1 -107c20 80 90 121 170 121zM150 628c7 51 21 71 54 71c18 0 32 -5 72 -24c29 -14 51 -22 61 -22c16 0 23 9 27 41l30 -3
c-7 -51 -21 -71 -54 -71c-17 0 -39 7 -72 24c-35 18 -51 22 -61 22c-16 0 -23 -9 -27 -41z" />
    <glyph glyph-name="eng" unicode="&#x14b;" horiz-adv-x="528" 
d="M464 -54c0 -18 0 -27 -1 -41c-6 -84 -54 -114 -151 -114v35c101 0 110 45 110 122v362c0 106 -20 178 -150 178c-90 1 -161 -63 -161 -196v-292h-42v513h40l1 -107c20 80 90 121 170 121c103 0 169 -40 180 -142c3 -27 4 -44 4 -87v-352z" />
    <glyph glyph-name="o" unicode="o" horiz-adv-x="548" 
d="M88 257c0 -166 71 -233 186 -233s186 67 186 233c0 165 -71 232 -186 232s-186 -67 -186 -232zM45 257c0 193 92 270 229 270s229 -77 229 -270c0 -194 -92 -271 -229 -271s-229 77 -229 271z" />
    <glyph glyph-name="oacute" unicode="&#xf3;" horiz-adv-x="548" 
d="M88 257c0 -166 71 -233 186 -233s186 67 186 233c0 165 -71 232 -186 232s-186 -67 -186 -232zM45 257c0 193 92 270 229 270s229 -77 229 -270c0 -194 -92 -271 -229 -271s-229 77 -229 271zM174 602v3l168 149h55v-3l-178 -149h-45z" />
    <glyph glyph-name="ocircumflex" unicode="&#xf4;" horiz-adv-x="548" 
d="M88 257c0 -166 71 -233 186 -233s186 67 186 233c0 165 -71 232 -186 232s-186 -67 -186 -232zM45 257c0 193 92 270 229 270s229 -77 229 -270c0 -194 -92 -271 -229 -271s-229 77 -229 271zM140 602l117 152h39l118 -152h-43l-95 123l-94 -123h-42z" />
    <glyph glyph-name="odieresis" unicode="&#xf6;" horiz-adv-x="548" 
d="M88 257c0 -166 71 -233 186 -233s186 67 186 233c0 165 -71 232 -186 232s-186 -67 -186 -232zM45 257c0 193 92 270 229 270s229 -77 229 -270c0 -194 -92 -271 -229 -271s-229 77 -229 271zM185 658c0 18 14 32 32 32s32 -14 32 -32s-14 -32 -32 -32s-32 14 -32 32z
M305 658c0 18 14 32 32 32s33 -14 33 -32s-15 -32 -33 -32s-32 14 -32 32z" />
    <glyph glyph-name="ograve" unicode="&#xf2;" horiz-adv-x="548" 
d="M88 257c0 -166 71 -233 186 -233s186 67 186 233c0 165 -71 232 -186 232s-186 -67 -186 -232zM45 257c0 193 92 270 229 270s229 -77 229 -270c0 -194 -92 -271 -229 -271s-229 77 -229 271zM161 751v3h55l168 -149v-3h-45z" />
    <glyph glyph-name="ohungarumlaut" unicode="&#x151;" horiz-adv-x="548" 
d="M88 257c0 -166 71 -233 186 -233s186 67 186 233c0 165 -71 232 -186 232s-186 -67 -186 -232zM45 257c0 193 92 270 229 270s229 -77 229 -270c0 -194 -92 -271 -229 -271s-229 77 -229 271zM95 601v3l164 150h50v-3l-173 -150h-41zM264 601v3l164 150h50v-3l-173 -150
h-41z" />
    <glyph glyph-name="omacron" unicode="&#x14d;" horiz-adv-x="548" 
d="M88 257c0 -166 71 -233 186 -233s186 67 186 233c0 165 -71 232 -186 232s-186 -67 -186 -232zM45 257c0 193 92 270 229 270s229 -77 229 -270c0 -194 -92 -271 -229 -271s-229 77 -229 271zM157 644v32h241v-32h-241z" />
    <glyph glyph-name="oslash" unicode="&#xf8;" horiz-adv-x="557" 
d="M499 500l23 -23l-50 -50c23 -42 36 -98 36 -170c0 -194 -93 -271 -230 -271c-73 0 -134 22 -174 73l-46 -46l-23 23l50 50c-23 42 -36 98 -36 171c0 193 92 270 229 270c74 0 135 -22 175 -73zM93 257c0 -58 9 -103 25 -138l305 305c-32 45 -82 65 -145 65
c-114 0 -185 -67 -185 -232zM134 89c32 -45 82 -65 144 -65c115 0 186 67 186 233c0 57 -9 103 -24 138z" />
    <glyph glyph-name="otilde" unicode="&#xf5;" horiz-adv-x="548" 
d="M88 257c0 -166 71 -233 186 -233s186 67 186 233c0 165 -71 232 -186 232s-186 -67 -186 -232zM45 257c0 193 92 270 229 270s229 -77 229 -270c0 -194 -92 -271 -229 -271s-229 77 -229 271zM155 629c7 51 21 71 54 71c18 0 32 -5 72 -24c29 -14 51 -22 61 -22
c16 0 23 9 27 41l30 -3c-7 -51 -21 -71 -54 -71c-17 0 -39 7 -72 24c-35 18 -51 22 -61 22c-16 0 -23 -9 -27 -41z" />
    <glyph glyph-name="oe" unicode="&#x153;" horiz-adv-x="950" 
d="M274 527c91 0 167 -54 200 -151c29 104 101 151 205 151c145 0 214 -101 214 -260c0 -6 0 -11 -1 -25h-394c5 -156 72 -218 182 -218c87 0 150 43 170 130h40c-21 -108 -98 -168 -212 -168c-110 0 -178 53 -205 153c-33 -98 -108 -153 -199 -153c-137 0 -229 77 -229 271
c0 193 92 270 229 270zM88 257c0 -166 71 -233 186 -233c94 0 181 74 181 239c0 151 -87 226 -181 226c-115 0 -186 -67 -186 -232zM498 279h354c-3 157 -83 210 -175 210c-100 0 -175 -53 -179 -210z" />
    <glyph glyph-name="p" unicode="p" horiz-adv-x="565" 
d="M111 -190h-42v703h40l2 -116c17 86 96 130 191 130c148 0 218 -110 218 -272c0 -166 -82 -269 -226 -269c-83 0 -161 37 -183 121v-297zM111 233c0 -161 94 -209 177 -209c124 0 187 92 187 231c0 130 -49 234 -183 234c-100 0 -181 -55 -181 -218v-38z" />
    <glyph glyph-name="thorn" unicode="&#xfe;" horiz-adv-x="565" 
d="M111 -190h-42v920h42v-331c18 85 96 128 191 128c148 0 218 -110 218 -272c0 -166 -82 -269 -226 -269c-83 0 -161 37 -183 121v-297zM111 233c0 -161 94 -209 177 -209c124 0 187 92 187 231c0 130 -49 234 -183 234c-100 0 -181 -55 -181 -218v-38z" />
    <glyph glyph-name="q" unicode="q" horiz-adv-x="565" 
d="M454 -190v304c-18 -85 -97 -128 -191 -128c-148 0 -218 110 -218 272c0 166 82 269 225 269c85 0 163 -38 184 -123l2 109h39v-703h-41zM89 258c0 -130 50 -234 183 -234c101 0 182 55 182 218v38c0 161 -95 209 -177 209c-124 0 -188 -92 -188 -231z" />
    <glyph glyph-name="r" unicode="r" horiz-adv-x="305" 
d="M251 527c10 0 19 0 27 -1v-38c-101 9 -167 -55 -167 -217v-271h-42v513h40l1 -108c14 85 80 122 141 122z" />
    <glyph glyph-name="racute" unicode="&#x155;" horiz-adv-x="305" 
d="M251 527c10 0 19 0 27 -1v-38c-101 9 -167 -55 -167 -217v-271h-42v513h40l1 -108c14 85 80 122 141 122zM57 601v3l168 149h55v-3l-178 -149h-45z" />
    <glyph glyph-name="rcaron" unicode="&#x159;" horiz-adv-x="305" 
d="M251 527c10 0 19 0 27 -1v-38c-101 9 -167 -55 -167 -217v-271h-42v513h40l1 -108c14 85 80 122 141 122zM23 752h43l95 -122l94 122h42l-117 -152h-39z" />
    <glyph glyph-name="uni0157" unicode="&#x157;" horiz-adv-x="305" 
d="M251 527c10 0 19 0 27 -1v-38c-101 9 -167 -55 -167 -217v-271h-42v513h40l1 -108c14 85 80 122 141 122zM-31 -190l154 131h48v-5l-156 -126h-46z" />
    <glyph glyph-name="s" unicode="s" horiz-adv-x="474" 
d="M233 527c117 0 186 -52 191 -165h-42c-6 89 -58 127 -150 127c-73 0 -136 -35 -136 -103c0 -67 49 -97 146 -109c133 -17 194 -57 194 -148c0 -89 -74 -143 -186 -143c-129 0 -202 45 -215 165h41c16 -95 65 -127 177 -127c82 0 140 36 140 102s-38 98 -168 114
c-106 14 -172 54 -172 144c0 84 72 143 180 143z" />
    <glyph glyph-name="sacute" unicode="&#x15b;" horiz-adv-x="474" 
d="M233 527c117 0 186 -52 191 -165h-42c-6 89 -58 127 -150 127c-73 0 -136 -35 -136 -103c0 -67 49 -97 146 -109c133 -17 194 -57 194 -148c0 -89 -74 -143 -186 -143c-129 0 -202 45 -215 165h41c16 -95 65 -127 177 -127c82 0 140 36 140 102s-38 98 -168 114
c-106 14 -172 54 -172 144c0 84 72 143 180 143zM130 602v3l168 149h55v-3l-178 -149h-45z" />
    <glyph glyph-name="scaron" unicode="&#x161;" horiz-adv-x="474" 
d="M233 527c117 0 186 -52 191 -165h-42c-6 89 -58 127 -150 127c-73 0 -136 -35 -136 -103c0 -67 49 -97 146 -109c133 -17 194 -57 194 -148c0 -89 -74 -143 -186 -143c-129 0 -202 45 -215 165h41c16 -95 65 -127 177 -127c82 0 140 36 140 102s-38 98 -168 114
c-106 14 -172 54 -172 144c0 84 72 143 180 143zM96 753h43l95 -122l94 122h42l-117 -152h-39z" />
    <glyph glyph-name="scedilla" unicode="&#x15f;" horiz-adv-x="474" 
d="M233 527c117 0 186 -52 191 -165h-42c-6 89 -58 127 -150 127c-73 0 -136 -35 -136 -103c0 -67 49 -97 146 -109c133 -17 194 -57 194 -148c0 -89 -74 -143 -186 -143h-3l-21 -30c63 -6 100 -29 100 -79c0 -57 -56 -81 -117 -81c-14 0 -32 2 -47 6v29c15 -5 31 -7 43 -7
c53 0 83 20 83 52c0 37 -35 55 -103 53v16l29 42c-107 9 -167 56 -179 164h41c16 -95 65 -127 177 -127c82 0 140 36 140 102s-38 98 -168 114c-106 14 -172 54 -172 144c0 84 72 143 180 143z" />
    <glyph glyph-name="uni0219" unicode="&#x219;" horiz-adv-x="474" 
d="M233 527c117 0 186 -52 191 -165h-42c-6 89 -58 127 -150 127c-73 0 -136 -35 -136 -103c0 -67 49 -97 146 -109c133 -17 194 -57 194 -148c0 -89 -74 -143 -186 -143c-129 0 -202 45 -215 165h41c16 -95 65 -127 177 -127c82 0 140 36 140 102s-38 98 -168 114
c-106 14 -172 54 -172 144c0 84 72 143 180 143zM120 -190l154 131h48v-5l-156 -126h-46z" />
    <glyph glyph-name="germandbls" unicode="&#xdf;" horiz-adv-x="560" 
d="M284 744c121 0 199 -59 199 -188c0 -42 -9 -53 -45 -80c-48 -37 -75 -59 -75 -89c0 -34 14 -55 60 -95c65 -58 95 -104 95 -157c0 -89 -63 -140 -180 -140c-35 0 -71 2 -111 11v39c40 -9 75 -12 106 -12c88 0 142 38 142 103c0 40 -20 70 -85 130c-58 52 -69 75 -69 119
c0 42 30 70 88 113c29 20 31 28 31 55c0 105 -56 153 -157 153c-134 0 -172 -93 -172 -196v-510h-42v472c0 24 1 50 2 68c8 128 82 204 213 204z" />
    <glyph glyph-name="t" unicode="t" horiz-adv-x="278" 
d="M135 118c0 -81 17 -94 119 -86v-36c-17 -3 -38 -4 -58 -4c-69 0 -96 31 -101 80c-2 25 -2 43 -2 73v327h-65v37h65v163h42v-163h118v-37h-118v-354z" />
    <glyph glyph-name="tbar" unicode="&#x167;" horiz-adv-x="275" 
d="M238 337v-34h-103v-185c0 -81 17 -94 119 -86v-36c-17 -3 -38 -4 -58 -4c-69 0 -96 31 -101 80c-2 25 -2 43 -2 73v158h-52v34h52v135h-65v37h65v163h42v-163h118v-37h-118v-135h103z" />
    <glyph glyph-name="tcaron" unicode="&#x165;" horiz-adv-x="287" 
d="M277 736v-10l-41 -182h-35l39 192h37zM28 472v37h65v163h42v-163h118v-37h-118v-354c0 -81 17 -94 119 -86v-36c-17 -3 -38 -4 -58 -4c-69 0 -96 31 -101 80c-2 25 -2 43 -2 73v327h-65z" />
    <glyph glyph-name="uni0163" unicode="&#x163;" horiz-adv-x="278" 
d="M135 118c0 -81 17 -94 119 -86v-36c-17 -3 -38 -4 -58 -4l-16 1l-25 -37c63 -6 100 -29 100 -79c0 -57 -56 -81 -117 -81c-14 0 -32 2 -47 6v29c15 -5 31 -7 43 -7c53 0 83 20 83 52c0 37 -35 55 -103 53v16l36 53c-36 11 -51 38 -55 74c-2 25 -2 43 -2 73v327h-65v37h65
v163h42v-163h118v-37h-118v-354z" />
    <glyph glyph-name="uni021B" unicode="&#x21b;" horiz-adv-x="278" 
d="M135 118c0 -81 17 -94 119 -86v-36c-17 -3 -38 -4 -58 -4c-69 0 -96 31 -101 80c-2 25 -2 43 -2 73v327h-65v37h65v163h42v-163h118v-37h-118v-354zM49 -190l154 131h48v-5l-156 -126h-46z" />
    <glyph glyph-name="u" unicode="u" horiz-adv-x="522" 
d="M238 -14c-97 0 -163 40 -174 142c-3 27 -4 44 -4 87v298h42v-311c0 -105 21 -178 145 -178c92 0 164 64 164 196v293h41v-513h-39l-2 109c-16 -78 -87 -123 -173 -123z" />
    <glyph glyph-name="uacute" unicode="&#xfa;" horiz-adv-x="522" 
d="M238 -14c-97 0 -163 40 -174 142c-3 27 -4 44 -4 87v298h42v-311c0 -105 21 -178 145 -178c92 0 164 64 164 196v293h41v-513h-39l-2 109c-16 -78 -87 -123 -173 -123zM154 601v3l168 149h55v-3l-178 -149h-45z" />
    <glyph glyph-name="ucircumflex" unicode="&#xfb;" horiz-adv-x="522" 
d="M238 -14c-97 0 -163 40 -174 142c-3 27 -4 44 -4 87v298h42v-311c0 -105 21 -178 145 -178c92 0 164 64 164 196v293h41v-513h-39l-2 109c-16 -78 -87 -123 -173 -123zM120 601l117 152h39l118 -152h-43l-95 123l-94 -123h-42z" />
    <glyph glyph-name="udieresis" unicode="&#xfc;" horiz-adv-x="522" 
d="M238 -14c-97 0 -163 40 -174 142c-3 27 -4 44 -4 87v298h42v-311c0 -105 21 -178 145 -178c92 0 164 64 164 196v293h41v-513h-39l-2 109c-16 -78 -87 -123 -173 -123zM165 657c0 18 14 32 32 32s32 -14 32 -32s-14 -32 -32 -32s-32 14 -32 32zM285 657c0 18 14 32 32 32
s33 -14 33 -32s-15 -32 -33 -32s-32 14 -32 32z" />
    <glyph glyph-name="ugrave" unicode="&#xf9;" horiz-adv-x="522" 
d="M238 -14c-97 0 -163 40 -174 142c-3 27 -4 44 -4 87v298h42v-311c0 -105 21 -178 145 -178c92 0 164 64 164 196v293h41v-513h-39l-2 109c-16 -78 -87 -123 -173 -123zM141 750v3h55l168 -149v-3h-45z" />
    <glyph glyph-name="uhungarumlaut" unicode="&#x171;" horiz-adv-x="522" 
d="M238 -14c-97 0 -163 40 -174 142c-3 27 -4 44 -4 87v298h42v-311c0 -105 21 -178 145 -178c92 0 164 64 164 196v293h41v-513h-39l-2 109c-16 -78 -87 -123 -173 -123zM75 600v3l164 150h50v-3l-173 -150h-41zM244 600v3l164 150h50v-3l-173 -150h-41z" />
    <glyph glyph-name="umacron" unicode="&#x16b;" horiz-adv-x="522" 
d="M238 -14c-97 0 -163 40 -174 142c-3 27 -4 44 -4 87v298h42v-311c0 -105 21 -178 145 -178c92 0 164 64 164 196v293h41v-513h-39l-2 109c-16 -78 -87 -123 -173 -123zM137 643v32h241v-32h-241z" />
    <glyph glyph-name="uogonek" unicode="&#x173;" horiz-adv-x="522" 
d="M238 -14c-97 0 -163 40 -174 142c-3 27 -4 44 -4 87v298h42v-311c0 -105 21 -178 145 -178c92 0 164 64 164 196v293h41v-512l1 -1c-49 -26 -94 -75 -94 -122c0 -38 24 -50 55 -50c16 0 31 3 45 10l-2 -31c-19 -7 -37 -11 -56 -11c-41 0 -80 18 -80 75
c0 56 41 101 92 135l-2 103c-16 -78 -87 -123 -173 -123z" />
    <glyph glyph-name="uring" unicode="&#x16f;" horiz-adv-x="522" 
d="M238 -14c-97 0 -163 40 -174 142c-3 27 -4 44 -4 87v298h42v-311c0 -105 21 -178 145 -178c92 0 164 64 164 196v293h41v-513h-39l-2 109c-16 -78 -87 -123 -173 -123zM161 680c0 52 44 80 96 80s96 -28 96 -80s-44 -80 -96 -80s-96 28 -96 80zM195 680
c0 -34 25 -53 62 -53s62 19 62 53s-25 53 -62 53s-62 -19 -62 -53z" />
    <glyph glyph-name="v" unicode="v" horiz-adv-x="486" 
d="M489 513l-209 -513h-52l-217 513h47l197 -478l188 478h46z" />
    <glyph glyph-name="w" unicode="w" horiz-adv-x="749" 
d="M731 513l-155 -513h-49c-51 150 -100 300 -150 456c-49 -156 -99 -306 -152 -456h-48l-159 513h46c47 -158 94 -315 138 -471c50 155 101 304 153 461h45c52 -156 103 -306 152 -460c44 157 89 313 135 470h44z" />
    <glyph glyph-name="wacute" unicode="&#x1e83;" horiz-adv-x="749" 
d="M731 513l-155 -513h-49c-51 150 -100 300 -150 456c-49 -156 -99 -306 -152 -456h-48l-159 513h46c47 -158 94 -315 138 -471c50 155 101 304 153 461h45c52 -156 103 -306 152 -460c44 157 89 313 135 470h44zM273 601v3l168 149h55v-3l-178 -149h-45z" />
    <glyph glyph-name="wcircumflex" unicode="&#x175;" horiz-adv-x="749" 
d="M731 513l-155 -513h-49c-51 150 -100 300 -150 456c-49 -156 -99 -306 -152 -456h-48l-159 513h46c47 -158 94 -315 138 -471c50 155 101 304 153 461h45c52 -156 103 -306 152 -460c44 157 89 313 135 470h44zM239 601l117 152h39l118 -152h-43l-95 123l-94 -123h-42z
" />
    <glyph glyph-name="wdieresis" unicode="&#x1e85;" horiz-adv-x="749" 
d="M731 513l-155 -513h-49c-51 150 -100 300 -150 456c-49 -156 -99 -306 -152 -456h-48l-159 513h46c47 -158 94 -315 138 -471c50 155 101 304 153 461h45c52 -156 103 -306 152 -460c44 157 89 313 135 470h44zM284 657c0 18 14 32 32 32s32 -14 32 -32s-14 -32 -32 -32
s-32 14 -32 32zM404 657c0 18 14 32 32 32s33 -14 33 -32s-15 -32 -33 -32s-32 14 -32 32z" />
    <glyph glyph-name="wgrave" unicode="&#x1e81;" horiz-adv-x="749" 
d="M731 513l-155 -513h-49c-51 150 -100 300 -150 456c-49 -156 -99 -306 -152 -456h-48l-159 513h46c47 -158 94 -315 138 -471c50 155 101 304 153 461h45c52 -156 103 -306 152 -460c44 157 89 313 135 470h44zM260 750v3h55l168 -149v-3h-45z" />
    <glyph glyph-name="x" unicode="x" horiz-adv-x="471" 
d="M456 513l-193 -255l195 -258h-51l-171 229l-175 -229h-48l195 258l-187 255h49l167 -227l170 227h49z" />
    <glyph glyph-name="y" unicode="y" horiz-adv-x="467" 
d="M265 0c-72 -183 -115 -210 -185 -210c-16 0 -27 1 -39 4v37c14 -3 28 -4 43 -4c41 0 77 25 118 124l16 37l-207 525h49l180 -476l184 476h46z" />
    <glyph glyph-name="yacute" unicode="&#xfd;" horiz-adv-x="467" 
d="M265 0c-72 -183 -115 -210 -185 -210c-16 0 -27 1 -39 4v37c14 -3 28 -4 43 -4c41 0 77 25 118 124l16 37l-207 525h49l180 -476l184 476h46zM136 601v3l168 149h55v-3l-178 -149h-45z" />
    <glyph glyph-name="ycircumflex" unicode="&#x177;" horiz-adv-x="467" 
d="M265 0c-72 -183 -115 -210 -185 -210c-16 0 -27 1 -39 4v37c14 -3 28 -4 43 -4c41 0 77 25 118 124l16 37l-207 525h49l180 -476l184 476h46zM102 601l117 152h39l118 -152h-43l-95 123l-94 -123h-42z" />
    <glyph glyph-name="ydieresis" unicode="&#xff;" horiz-adv-x="467" 
d="M265 0c-72 -183 -115 -210 -185 -210c-16 0 -27 1 -39 4v37c14 -3 28 -4 43 -4c41 0 77 25 118 124l16 37l-207 525h49l180 -476l184 476h46zM147 657c0 18 14 32 32 32s32 -14 32 -32s-14 -32 -32 -32s-32 14 -32 32zM267 657c0 18 14 32 32 32s33 -14 33 -32
s-15 -32 -33 -32s-32 14 -32 32z" />
    <glyph glyph-name="ygrave" unicode="&#x1ef3;" horiz-adv-x="467" 
d="M265 0c-72 -183 -115 -210 -185 -210c-16 0 -27 1 -39 4v37c14 -3 28 -4 43 -4c41 0 77 25 118 124l16 37l-207 525h49l180 -476l184 476h46zM123 750v3h55l168 -149v-3h-45z" />
    <glyph glyph-name="z" unicode="z" horiz-adv-x="449" 
d="M409 513v-30l-327 -446h335v-37h-393v29l328 447h-314v37h371z" />
    <glyph glyph-name="zacute" unicode="&#x17a;" horiz-adv-x="449" 
d="M409 513v-30l-327 -446h335v-37h-393v29l328 447h-314v37h371zM115 601v3l168 149h55v-3l-178 -149h-45z" />
    <glyph glyph-name="zcaron" unicode="&#x17e;" horiz-adv-x="449" 
d="M409 513v-30l-327 -446h335v-37h-393v29l328 447h-314v37h371zM81 752h43l95 -122l94 122h42l-117 -152h-39z" />
    <glyph glyph-name="zdotaccent" unicode="&#x17c;" horiz-adv-x="449" 
d="M409 513v-30l-327 -446h335v-37h-393v29l328 447h-314v37h371zM184 657c0 19 15 34 34 34s34 -15 34 -34s-15 -34 -34 -34s-34 15 -34 34z" />
    <glyph glyph-name="zero" unicode="0" 
d="M276 703c-143 0 -187 -117 -187 -338c0 -220 44 -338 187 -338s187 118 187 338c0 221 -44 338 -187 338zM45 365c0 250 59 379 231 379s231 -129 231 -379c0 -249 -59 -379 -231 -379s-231 130 -231 379z" />
    <glyph glyph-name="one" unicode="1" 
d="M341 730v-730h-44v690h-139v5l35 35h148z" />
    <glyph glyph-name="two" unicode="2" 
d="M289 744c133 0 213 -90 213 -201s-63 -185 -214 -322l-196 -181h418v-40h-470v48l213 196c151 138 204 204 204 297s-67 162 -170 162c-123 0 -182 -67 -192 -170h-44c12 129 83 211 238 211z" />
    <glyph glyph-name="three" unicode="3" 
d="M286 744c129 0 211 -69 211 -190c0 -96 -74 -159 -161 -180c100 -19 173 -77 173 -189c0 -126 -101 -199 -226 -199c-143 0 -223 59 -237 207h44c11 -107 67 -166 192 -166c101 0 183 56 183 161c0 107 -87 164 -227 164h-23v40h23c91 0 214 37 214 158
c0 99 -66 153 -167 153c-104 0 -170 -58 -182 -166h-44c12 133 91 207 227 207z" />
    <glyph glyph-name="four" unicode="4" 
d="M395 730h41v-475h82v-41h-82v-214h-44v214h-353v44zM84 255h308v409z" />
    <glyph glyph-name="five" unicode="5" 
d="M483 730v-40h-334l-41 -309c36 57 96 89 183 89c123 0 220 -71 220 -243c0 -137 -80 -241 -227 -241s-217 62 -234 189h44c17 -95 67 -148 189 -148c113 0 184 75 184 198c0 150 -87 205 -184 205c-88 0 -145 -35 -180 -106h-43l52 406h371z" />
    <glyph glyph-name="six" unicode="6" 
d="M285 744c135 0 198 -77 209 -189h-44c-12 101 -68 148 -166 148c-136 0 -195 -104 -201 -368c20 86 109 134 205 134c138 0 222 -94 222 -236c0 -161 -104 -247 -237 -247c-149 0 -233 97 -233 304c0 313 63 454 245 454zM88 244c0 -113 50 -217 187 -217
c111 0 192 72 192 204c0 127 -77 197 -185 197c-129 0 -194 -87 -194 -184z" />
    <glyph glyph-name="seven" unicode="7" 
d="M519 689c-152 -189 -271 -425 -348 -689h-48c81 267 195 500 345 690h-423v40h474v-41z" />
    <glyph glyph-name="eight" unicode="8" 
d="M276 744c149 0 231 -79 231 -190c0 -87 -56 -154 -145 -175c100 -25 157 -97 157 -196c0 -137 -112 -199 -241 -199c-142 0 -245 63 -245 199c0 99 57 171 158 196c-83 24 -130 89 -130 174c0 105 72 191 215 191zM78 186c0 -120 103 -161 200 -161c91 0 196 41 196 161
c0 100 -74 171 -201 171c-120 0 -195 -72 -195 -171zM104 550c0 -106 87 -151 173 -151c88 0 186 46 186 151c0 101 -78 153 -187 153c-103 0 -172 -59 -172 -153z" />
    <glyph glyph-name="nine" unicode="9" 
d="M265 -14c-136 0 -198 78 -208 190h43c12 -102 68 -149 166 -149c137 0 194 103 199 366c-22 -83 -111 -132 -204 -132c-139 0 -221 93 -221 237c0 160 104 246 235 246c149 0 233 -95 233 -304c0 -312 -60 -454 -243 -454zM84 500c0 -129 76 -198 183 -198
c128 0 194 87 194 185c0 112 -47 216 -186 216c-110 0 -191 -70 -191 -203z" />
    <glyph glyph-name="zero.prop" horiz-adv-x="581" 
d="M291 703c-148 0 -193 -125 -193 -338c0 -212 45 -338 193 -338c147 0 192 126 192 338c0 213 -45 338 -192 338zM54 365c0 241 61 379 237 379c175 0 237 -138 237 -379c0 -240 -62 -379 -237 -379c-176 0 -237 139 -237 379z" />
    <glyph glyph-name="one.prop" horiz-adv-x="383" 
d="M253 730v-730h-44v690h-139v5l35 35h148z" />
    <glyph glyph-name="two.prop" 
d="M289 744c133 0 213 -90 213 -201s-63 -185 -214 -322l-196 -181h418v-40h-470v48l213 196c151 138 204 204 204 297s-67 162 -170 162c-123 0 -182 -67 -192 -170h-44c12 129 83 211 238 211z" />
    <glyph glyph-name="three.prop" 
d="M286 744c129 0 211 -69 211 -190c0 -96 -74 -159 -161 -180c100 -19 173 -77 173 -189c0 -126 -101 -199 -226 -199c-143 0 -223 59 -237 207h44c11 -107 67 -166 192 -166c101 0 183 56 183 161c0 107 -87 164 -227 164h-23v40h23c91 0 214 37 214 158
c0 99 -66 153 -167 153c-104 0 -170 -58 -182 -166h-44c12 133 91 207 227 207z" />
    <glyph glyph-name="four.prop" 
d="M395 730h41v-475h82v-41h-82v-214h-44v214h-353v44zM84 255h308v409z" />
    <glyph glyph-name="five.prop" 
d="M483 730v-40h-334l-41 -309c36 57 96 89 183 89c123 0 220 -71 220 -243c0 -137 -80 -241 -227 -241s-217 62 -234 189h44c17 -95 67 -148 189 -148c113 0 184 75 184 198c0 150 -87 205 -184 205c-88 0 -145 -35 -180 -106h-43l52 406h371z" />
    <glyph glyph-name="six.prop" 
d="M285 744c135 0 198 -77 209 -189h-44c-12 101 -68 148 -166 148c-136 0 -195 -104 -201 -368c20 86 109 134 205 134c138 0 222 -94 222 -236c0 -161 -104 -247 -237 -247c-149 0 -233 97 -233 304c0 313 63 454 245 454zM88 244c0 -113 50 -217 187 -217
c111 0 192 72 192 204c0 127 -77 197 -185 197c-129 0 -194 -87 -194 -184z" />
    <glyph glyph-name="seven.prop" horiz-adv-x="498" 
d="M483 689c-152 -189 -271 -425 -348 -689h-48c81 267 195 500 345 690h-423v40h474v-41z" />
    <glyph glyph-name="eight.prop" 
d="M276 744c149 0 231 -79 231 -190c0 -87 -56 -154 -145 -175c100 -25 157 -97 157 -196c0 -137 -112 -199 -241 -199c-142 0 -245 63 -245 199c0 99 57 171 158 196c-83 24 -130 89 -130 174c0 105 72 191 215 191zM78 186c0 -120 103 -161 200 -161c91 0 196 41 196 161
c0 100 -74 171 -201 171c-120 0 -195 -72 -195 -171zM104 550c0 -106 87 -151 173 -151c88 0 186 46 186 151c0 101 -78 153 -187 153c-103 0 -172 -59 -172 -153z" />
    <glyph glyph-name="nine.prop" 
d="M265 -14c-136 0 -198 78 -208 190h43c12 -102 68 -149 166 -149c137 0 194 103 199 366c-22 -83 -111 -132 -204 -132c-139 0 -221 93 -221 237c0 160 104 246 235 246c149 0 233 -95 233 -304c0 -312 -60 -454 -243 -454zM84 500c0 -129 76 -198 183 -198
c128 0 194 87 194 185c0 112 -47 216 -186 216c-110 0 -191 -70 -191 -203z" />
    <glyph glyph-name="fraction" unicode="&#x2044;" horiz-adv-x="96" 
d="M292 690l-447 -690h-41l447 690h41z" />
    <glyph glyph-name="period" unicode="." horiz-adv-x="167" 
d="M84 -14c-21 0 -37 16 -37 37s16 37 37 37c20 0 37 -16 37 -37s-17 -37 -37 -37z" />
    <glyph glyph-name="comma" unicode="," horiz-adv-x="167" 
d="M104 100v-12l-42 -246h-40l41 258h41z" />
    <glyph glyph-name="colon" unicode=":" horiz-adv-x="167" 
d="M84 13c-21 0 -37 16 -37 37c0 20 16 37 37 37c20 0 37 -17 37 -37c0 -21 -17 -37 -37 -37zM47 463c0 21 16 37 37 37c20 0 37 -16 37 -37s-17 -37 -37 -37c-21 0 -37 16 -37 37z" />
    <glyph glyph-name="semicolon" unicode=";" horiz-adv-x="167" 
d="M84 426c-21 0 -37 16 -37 37s16 37 37 37c20 0 37 -16 37 -37s-17 -37 -37 -37zM22 -158l41 258h41v-12l-42 -246h-40z" />
    <glyph glyph-name="ellipsis" unicode="&#x2026;" horiz-adv-x="407" 
d="M84 -14c-21 0 -37 16 -37 37s16 37 37 37c20 0 37 -16 37 -37s-17 -37 -37 -37zM167 23c0 21 16 37 37 37c20 0 37 -16 37 -37s-17 -37 -37 -37c-21 0 -37 16 -37 37zM287 23c0 21 16 37 37 37c20 0 37 -16 37 -37s-17 -37 -37 -37c-21 0 -37 16 -37 37z" />
    <glyph glyph-name="exclam" unicode="!" horiz-adv-x="252" 
d="M150 730l-5 -568h-38l-5 568h48zM89 23c0 21 17 37 37 37c21 0 37 -16 37 -37s-16 -37 -37 -37c-20 0 -37 16 -37 37z" />
    <glyph glyph-name="exclamdown" unicode="&#xa1;" horiz-adv-x="220" 
d="M70 -200l5 568h38l5 -568h-48zM57 507c0 21 16 37 37 37c20 0 37 -16 37 -37s-17 -37 -37 -37c-21 0 -37 16 -37 37z" />
    <glyph glyph-name="question" unicode="?" horiz-adv-x="547" 
d="M278 744c120 0 228 -63 228 -199c0 -99 -52 -159 -137 -227c-80 -65 -98 -85 -98 -156h-42c0 84 21 110 111 181c85 69 121 114 121 201c0 110 -86 159 -184 159c-134 0 -196 -68 -204 -172h-42c6 127 84 213 247 213zM213 23c0 21 16 37 37 37c20 0 37 -16 37 -37
s-17 -37 -37 -37c-21 0 -37 16 -37 37z" />
    <glyph glyph-name="questiondown" unicode="&#xbf;" horiz-adv-x="482" 
d="M252 -218c-120 0 -228 63 -228 199c0 99 52 159 137 227c80 65 98 85 98 156h42c0 -84 -21 -110 -111 -181c-85 -69 -121 -114 -121 -201c0 -110 86 -159 184 -159c134 0 196 68 204 172h42c-6 -127 -84 -213 -247 -213zM243 503c0 21 17 37 37 37c21 0 37 -16 37 -37
s-16 -37 -37 -37c-20 0 -37 16 -37 37z" />
    <glyph glyph-name="periodcentered" unicode="&#xb7;" horiz-adv-x="154" 
d="M77 272c-19 0 -34 15 -34 35c0 19 15 34 34 34s35 -15 35 -34c0 -20 -16 -35 -35 -35z" />
    <glyph glyph-name="bullet" unicode="&#x2022;" horiz-adv-x="232" 
d="M116 265c-23 0 -42 18 -42 42c0 23 19 41 42 41s42 -18 42 -41c0 -24 -19 -42 -42 -42z" />
    <glyph glyph-name="asterisk" unicode="*" horiz-adv-x="550" 
d="M60 302l12 36l187 -63l-4 197h38l-3 -197l188 63l11 -36l-188 -58l118 -158l-31 -22l-113 162l-114 -162l-31 22l119 158z" />
    <glyph glyph-name="numbersign" unicode="#" horiz-adv-x="581" 
d="M461 730l-49 -245h98v-31h-105l-34 -173h109v-32h-116l-50 -249h-34l50 249h-126l-50 -249h-34l50 249h-99v32h106l34 173h-110v31h117l49 245h34l-49 -245h126l49 245h34zM211 281h126l34 173h-126z" />
    <glyph glyph-name="slash" unicode="/" horiz-adv-x="276" 
d="M283 780l-251 -860h-38l251 860h38z" />
    <glyph glyph-name="backslash" unicode="\" horiz-adv-x="276" 
d="M-7 780h38l251 -860h-38z" />
    <glyph glyph-name="colon.case" horiz-adv-x="167" 
d="M84 83c-21 0 -37 16 -37 37c0 20 16 37 37 37c20 0 37 -17 37 -37c0 -21 -17 -37 -37 -37zM47 533c0 21 16 37 37 37c20 0 37 -16 37 -37s-17 -37 -37 -37c-21 0 -37 16 -37 37z" />
    <glyph glyph-name="semicolon.case" horiz-adv-x="167" 
d="M83 496c-21 0 -37 16 -37 37s16 37 37 37c20 0 37 -16 37 -37s-17 -37 -37 -37zM21 -88l41 258h41v-12l-42 -246h-40z" />
    <glyph glyph-name="hyphen" unicode="-" horiz-adv-x="283" 
d="M251 303v-36h-219v36h219z" />
    <glyph glyph-name="endash" unicode="&#x2013;" horiz-adv-x="505" 
d="M433 308v-33h-361v33h361z" />
    <glyph glyph-name="emdash" unicode="&#x2014;" horiz-adv-x="1000" 
d="M928 308v-33h-856v33h856z" />
    <glyph glyph-name="underscore" unicode="_" horiz-adv-x="500" 
d="M490 -55v-34h-480v34h480z" />
    <glyph glyph-name="hyphen.case" horiz-adv-x="283" 
d="M251 388v-40h-219v40h219z" />
    <glyph glyph-name="endash.case" horiz-adv-x="505" 
d="M433 388v-39h-361v39h361z" />
    <glyph glyph-name="emdash.case" horiz-adv-x="1000" 
d="M928 388v-40h-856v40h856z" />
    <glyph glyph-name="parenleft" unicode="(" horiz-adv-x="291" 
d="M241 750c-79 -129 -118 -308 -118 -450s39 -321 118 -450h-44c-73 128 -113 299 -113 450c0 152 40 322 113 450h44z" />
    <glyph glyph-name="parenright" unicode=")" horiz-adv-x="291" 
d="M94 750c73 -128 113 -298 113 -450c0 -151 -40 -322 -113 -450h-44c79 129 118 308 118 450s-39 321 -118 450h44z" />
    <glyph glyph-name="braceleft" unicode="{" horiz-adv-x="323" 
d="M245 -140c-78 0 -134 29 -134 111c0 23 2 46 12 116c8 56 10 84 10 108c0 42 -20 84 -82 89v32c62 5 82 47 82 89c0 24 -2 52 -10 108c-10 70 -12 93 -12 116c0 82 56 111 134 111h45v-33h-41c-60 0 -101 -19 -101 -83c0 -22 2 -39 10 -101c8 -64 12 -97 12 -118
c0 -41 -17 -89 -76 -104c59 -15 76 -66 76 -106c0 -21 -4 -54 -12 -118c-8 -62 -10 -79 -10 -101c0 -64 41 -83 101 -83h41v-33h-45z" />
    <glyph glyph-name="braceright" unicode="}" horiz-adv-x="323" 
d="M78 740c78 0 134 -29 134 -111c0 -23 -2 -46 -12 -116c-8 -56 -10 -84 -10 -108c0 -42 20 -84 82 -89v-32c-62 -5 -82 -47 -82 -89c0 -24 2 -52 10 -108c10 -70 12 -93 12 -116c0 -82 -56 -111 -134 -111h-45v33h41c60 0 101 19 101 83c0 22 -2 39 -10 101
c-8 64 -12 97 -12 118c0 41 17 89 76 104c-59 15 -76 66 -76 106c0 21 4 54 12 118c8 62 10 79 10 101c0 64 -41 83 -101 83h-41v33h45z" />
    <glyph glyph-name="bracketleft" unicode="[" horiz-adv-x="315" 
d="M74 740h206v-33h-171v-814h171v-33h-206v880z" />
    <glyph glyph-name="bracketright" unicode="]" horiz-adv-x="315" 
d="M241 740v-880h-206v33h171v814h-171v33h206z" />
    <glyph glyph-name="parenleft.case" horiz-adv-x="291" 
d="M241 800c-79 -129 -118 -308 -118 -450s39 -321 118 -450h-44c-73 128 -113 299 -113 450c0 152 40 322 113 450h44z" />
    <glyph glyph-name="parenright.case" horiz-adv-x="291" 
d="M94 800c73 -128 113 -298 113 -450c0 -151 -40 -322 -113 -450h-44c79 129 118 308 118 450s-39 321 -118 450h44z" />
    <glyph glyph-name="braceleft.case" horiz-adv-x="323" 
d="M245 -90c-78 0 -134 29 -134 111c0 23 2 46 12 116c8 56 10 84 10 108c0 42 -20 84 -82 89v32c62 5 82 47 82 89c0 24 -2 52 -10 108c-10 70 -12 93 -12 116c0 82 56 111 134 111h45v-33h-41c-60 0 -101 -19 -101 -83c0 -22 2 -39 10 -101c8 -64 12 -97 12 -118
c0 -41 -17 -89 -76 -104c59 -15 76 -66 76 -106c0 -21 -4 -54 -12 -118c-8 -62 -10 -79 -10 -101c0 -64 41 -83 101 -83h41v-33h-45z" />
    <glyph glyph-name="braceright.case" horiz-adv-x="323" 
d="M78 790c78 0 134 -29 134 -111c0 -23 -2 -46 -12 -116c-8 -56 -10 -84 -10 -108c0 -42 20 -84 82 -89v-32c-62 -5 -82 -47 -82 -89c0 -24 2 -52 10 -108c10 -70 12 -93 12 -116c0 -82 -56 -111 -134 -111h-45v33h41c60 0 101 19 101 83c0 22 -2 39 -10 101
c-8 64 -12 97 -12 118c0 41 17 89 76 104c-59 15 -76 66 -76 106c0 21 4 54 12 118c8 62 10 79 10 101c0 64 -41 83 -101 83h-41v33h45z" />
    <glyph glyph-name="bracketleft.case" horiz-adv-x="315" 
d="M74 790h206v-33h-171v-814h171v-33h-206v880z" />
    <glyph glyph-name="bracketright.case" horiz-adv-x="315" 
d="M241 790v-880h-206v33h171v814h-171v33h206z" />
    <glyph glyph-name="quotesinglbase" unicode="&#x201a;" horiz-adv-x="167" 
d="M104 100v-12l-42 -246h-40l41 258h41z" />
    <glyph glyph-name="quotedblbase" unicode="&#x201e;" horiz-adv-x="286" 
d="M223 100v-12l-42 -246h-40l41 258h41zM22 -158l41 258h41v-12l-42 -246h-40z" />
    <glyph glyph-name="quotedblleft" unicode="&#x201c;" horiz-adv-x="269" 
d="M164 465v13l42 262h38l-41 -275h-39zM54 465v13l42 262h38l-41 -275h-39z" />
    <glyph glyph-name="quotedblright" unicode="&#x201d;" horiz-adv-x="269" 
d="M215 736v-13l-42 -262h-38l41 275h39zM25 461l41 275h39v-13l-42 -262h-38z" />
    <glyph glyph-name="quoteleft" unicode="&#x2018;" horiz-adv-x="159" 
d="M54 465v13l42 262h38l-41 -275h-39z" />
    <glyph glyph-name="quoteright" unicode="&#x2019;" horiz-adv-x="159" 
d="M105 736v-13l-42 -262h-38l41 275h39z" />
    <glyph glyph-name="guillemotleft" unicode="&#xab;" horiz-adv-x="522" 
d="M401 457h49l-149 -200l149 -200h-49l-149 200zM86 257l149 200h49l-149 -200l149 -200h-49z" />
    <glyph glyph-name="guillemotright" unicode="&#xbb;" horiz-adv-x="522" 
d="M121 457l149 -200l-149 -200h-49l149 200l-149 200h49zM238 57l149 200l-149 200h49l149 -200l-149 -200h-49z" />
    <glyph glyph-name="guilsinglleft" unicode="&#x2039;" horiz-adv-x="356" 
d="M235 457h49l-149 -200l149 -200h-49l-149 200z" />
    <glyph glyph-name="guilsinglright" unicode="&#x203a;" horiz-adv-x="356" 
d="M121 457l149 -200l-149 -200h-49l149 200l-149 200h49z" />
    <glyph glyph-name="quotedbl" unicode="&#x22;" horiz-adv-x="223" 
d="M78 736l-3 -274h-35l-3 274h41zM145 736h41l-3 -274h-35z" />
    <glyph glyph-name="quotesingle" unicode="'" horiz-adv-x="115" 
d="M78 736l-3 -274h-35l-3 274h41z" />
    <glyph glyph-name="guillemotleft.case" horiz-adv-x="522" 
d="M401 527h49l-149 -200l149 -200h-49l-149 200zM86 327l149 200h49l-149 -200l149 -200h-49z" />
    <glyph glyph-name="guillemotright.case" horiz-adv-x="522" 
d="M121 527l149 -200l-149 -200h-49l149 200l-149 200h49zM238 127l149 200l-149 200h49l149 -200l-149 -200h-49z" />
    <glyph glyph-name="guilsinglleft.case" horiz-adv-x="356" 
d="M235 527h49l-149 -200l149 -200h-49l-149 200z" />
    <glyph glyph-name="guilsinglright.case" horiz-adv-x="356" 
d="M121 527l149 -200l-149 -200h-49l149 200l-149 200h49z" />
    <glyph glyph-name="at" unicode="@" horiz-adv-x="1013" 
d="M662 53v98c-22 -66 -82 -114 -166 -114c-115 0 -191 65 -191 243c0 149 62 243 191 243c89 0 144 -54 166 -115l1 99h40v-420h17c96 0 200 42 200 233c0 271 -170 390 -388 390c-272 0 -422 -186 -422 -430c0 -268 115 -430 389 -430c112 0 193 18 293 76v-38
c-103 -58 -186 -72 -293 -72c-285 0 -425 164 -425 464c0 264 162 464 458 464c245 0 423 -142 423 -424c0 -213 -123 -267 -236 -267h-57zM348 280c0 -152 60 -204 154 -204c62 0 157 36 157 181v46c0 108 -57 181 -157 181c-103 0 -154 -74 -154 -204z" />
    <glyph glyph-name="ampersand" unicode="&#x26;" horiz-adv-x="707" 
d="M150 594c0 91 68 150 164 150c101 0 156 -67 156 -143c0 -74 -50 -127 -159 -193l236 -244c33 52 54 122 56 208h39c-2 -101 -27 -180 -67 -238l129 -134h-57l-99 102c-65 -73 -148 -116 -256 -116c-128 0 -230 66 -230 195c0 112 79 179 185 235c-55 58 -97 108 -97 178
zM107 183c0 -104 87 -156 188 -156c83 0 168 33 227 103l-249 258c-90 -46 -166 -100 -166 -205zM194 593c0 -56 27 -92 90 -156c115 69 142 107 142 162s-39 105 -112 105c-70 0 -120 -43 -120 -111z" />
    <glyph glyph-name="paragraph" unicode="&#xb6;" horiz-adv-x="631" 
d="M546 730v-840h-44v800h-175v-800h-44v464h-21c-18 0 -39 0 -56 1c-102 6 -157 89 -157 187s55 181 157 187c17 1 38 1 56 1h284z" />
    <glyph glyph-name="section" unicode="&#xa7;" horiz-adv-x="582" 
d="M288 744c137 0 197 -51 209 -160h-41c-8 98 -77 125 -169 125c-103 0 -157 -59 -157 -118c0 -97 93 -133 187 -155c120 -26 198 -80 198 -183c0 -84 -55 -132 -124 -149c59 -30 104 -76 104 -154c0 -75 -63 -154 -201 -154c-137 0 -197 51 -209 160h41
c8 -98 78 -125 169 -125c104 0 158 59 158 118c0 97 -94 133 -188 155c-120 27 -197 80 -197 183c0 84 55 132 124 149c-60 30 -105 76 -105 154c0 75 62 154 201 154zM111 289c0 -78 59 -120 170 -148c17 -4 34 -9 51 -14c68 3 139 40 139 124c0 78 -59 120 -170 148
c-17 4 -34 9 -50 14c-69 -3 -140 -40 -140 -124z" />
    <glyph glyph-name="copyright" unicode="&#xa9;" horiz-adv-x="869" 
d="M430 576c107 0 165 -46 177 -134h-37c-13 61 -47 100 -140 100c-102 0 -152 -75 -152 -175c0 -105 51 -176 152 -176c75 0 124 33 143 100h36c-24 -88 -85 -133 -180 -133c-117 0 -189 79 -189 208c0 130 77 210 190 210zM52 365c0 224 150 382 383 382
s382 -158 382 -382s-149 -382 -382 -382s-383 158 -383 382zM80 365c0 -209 137 -355 355 -355c217 0 354 146 354 355c0 210 -137 355 -354 355c-218 0 -355 -145 -355 -355z" />
    <glyph glyph-name="registered" unicode="&#xae;" horiz-adv-x="513" 
d="M256 764c123 0 210 -81 210 -209s-87 -211 -210 -211s-210 83 -210 211s87 209 210 209zM71 555c0 -114 72 -187 185 -187c114 0 186 73 186 187c0 115 -72 185 -186 185c-113 0 -185 -70 -185 -185zM182 450v219h74c46 0 85 -18 85 -65c0 -31 -21 -50 -51 -56
c22 -4 33 -17 38 -44c4 -19 9 -34 13 -45l6 -9h-30c-5 12 -9 26 -15 49c-6 26 -16 36 -52 36h-42v-85h-26zM208 558h43c36 0 63 10 63 45c0 25 -18 42 -59 42h-47v-87z" />
    <glyph glyph-name="trademark" unicode="&#x2122;" horiz-adv-x="734" 
d="M690 730v-352h-32v292l-54 -138l-59 -152h-27l-59 152c-18 47 -37 95 -55 143l1 -297h-32v352h40c40 -102 80 -203 119 -307c40 104 79 205 120 307h38zM25 701v29h314v-29h-141v-323h-32v323h-141z" />
    <glyph glyph-name="degree" unicode="&#xb0;" horiz-adv-x="322" 
d="M161 744c68 0 123 -55 123 -123s-55 -123 -123 -123s-123 55 -123 123s55 123 123 123zM68 621c0 -51 42 -94 93 -94c52 0 93 43 93 94c0 52 -41 94 -93 94c-51 0 -93 -42 -93 -94z" />
    <glyph glyph-name="bar" unicode="|" horiz-adv-x="261" 
d="M148 800v-1000h-36v1000h36z" />
    <glyph glyph-name="brokenbar" unicode="&#xa6;" horiz-adv-x="261" 
d="M148 800v-415h-36v415h36zM112 -200v415h36v-415h-36z" />
    <glyph glyph-name="dagger" unicode="&#x2020;" horiz-adv-x="556" 
d="M299 730l-2 -259l186 1v-36l-186 1l2 -597h-40v597l-186 -1v36l186 -1l-2 259h42z" />
    <glyph glyph-name="daggerdbl" unicode="&#x2021;" horiz-adv-x="556" 
d="M299 730l-2 -259l186 1v-36l-186 1v-306l186 2v-37l-186 1l2 -257h-40v257l-186 -1v37l186 -2v306l-186 -1v36l186 -1l-2 259h42z" />
    <glyph glyph-name="cent" unicode="&#xa2;" horiz-adv-x="581" 
d="M315 721v-95c121 -3 189 -70 194 -170h-41c-7 77 -57 129 -153 133v-468c81 6 142 56 153 133h41c-13 -95 -84 -163 -194 -169v-96h-35v97c-140 8 -206 110 -206 269c0 169 71 260 206 270v96h35zM116 355c0 -148 59 -224 164 -233v466c-98 -9 -164 -76 -164 -233z" />
    <glyph glyph-name="currency" unicode="&#xa4;" horiz-adv-x="590" 
d="M295 119c-45 0 -86 16 -117 43l-70 -70l-23 23l70 70c-26 31 -42 72 -42 116s16 85 42 116l-70 70l23 23l70 -70c31 27 72 43 117 43s86 -16 117 -43l70 70l23 -23l-70 -70c26 -31 42 -72 42 -116s-16 -85 -42 -116l70 -70l-23 -23l-70 70c-32 -27 -72 -43 -117 -43z
M146 301c0 -82 67 -150 149 -150s149 68 149 150s-67 150 -149 150s-149 -68 -149 -150z" />
    <glyph glyph-name="dollar" unicode="$" horiz-adv-x="581" 
d="M271 791h39v-77c121 -6 201 -77 205 -198h-43c-7 105 -75 153 -162 159v-283c148 -27 223 -84 223 -193c0 -116 -99 -177 -223 -182v-77h-39v78c-126 6 -212 69 -223 199h42c11 -99 73 -154 181 -160v298c-135 25 -202 77 -202 179c0 103 81 172 202 179v78zM113 536
c0 -84 55 -121 158 -141v280c-94 -6 -158 -57 -158 -139zM310 56c98 5 179 48 179 139c0 89 -59 132 -179 156v-295z" />
    <glyph glyph-name="Euro" unicode="&#x20ac;" horiz-adv-x="581" 
d="M383 744c74 0 124 -18 168 -59l-21 -30c-43 35 -86 49 -148 49c-134 0 -232 -83 -254 -260h362l-12 -38h-354c-1 -14 -1 -28 -1 -42l1 -39h329l-11 -38h-316c16 -175 93 -261 260 -261c54 0 103 11 149 38v-40c-51 -29 -103 -38 -158 -38c-188 0 -278 103 -296 301h-73
l11 38h60c-1 13 -1 26 -1 39c0 14 0 28 1 42h-46l11 38h38c22 196 128 300 301 300z" />
    <glyph glyph-name="sterling" unicode="&#xa3;" horiz-adv-x="581" 
d="M309 744c146 0 207 -65 216 -201h-43c-7 123 -66 162 -175 162c-110 0 -160 -66 -160 -137c0 -56 11 -99 46 -212h234v-38h-222c13 -47 20 -80 20 -118c0 -69 -36 -131 -98 -162h409v-38h-482v44c67 14 125 61 125 157c0 32 -6 72 -19 117h-98v38h86
c-33 106 -47 152 -47 212c0 92 66 176 208 176z" />
    <glyph glyph-name="yen" unicode="&#xa5;" horiz-adv-x="581" 
d="M561 730l-230 -379h181v-38h-199v-79h199v-38h-199v-196h-44v196h-198v38h198v79h-198v38h180l-231 379h52l220 -372l220 372h49z" />
    <glyph glyph-name="plus" unicode="+" horiz-adv-x="538" 
d="M286 532v-198h188v-33h-188v-198h-34v198h-187v33h187v198h34z" />
    <glyph glyph-name="minus" unicode="&#x2212;" horiz-adv-x="538" 
d="M473 334v-33h-407v33h407z" />
    <glyph glyph-name="multiply" unicode="&#xd7;" horiz-adv-x="538" 
d="M419 487l-150 -150l-150 150l-23 -23l150 -150l-150 -151l23 -23l150 150l150 -150l23 23l-173 174l-23 -23l23 -24l173 174z" />
    <glyph glyph-name="divide" unicode="&#xf7;" horiz-adv-x="538" 
d="M474 334v-33h-409v33h409zM242 140c0 15 12 27 27 27s27 -12 27 -27s-12 -27 -27 -27s-27 12 -27 27zM242 495c0 15 12 27 27 27s27 -12 27 -27s-12 -27 -27 -27s-27 12 -27 27z" />
    <glyph glyph-name="equal" unicode="=" horiz-adv-x="574" 
d="M500 426v-32h-426v32h426zM74 209v32h426v-32h-426z" />
    <glyph glyph-name="notequal" unicode="&#x2260;" horiz-adv-x="574" 
d="M412 541l-64 -115h152v-32h-170l-86 -153h256v-32h-274l-64 -114h-37l64 114h-115v32h133l86 153h-219v32h237l64 115h37z" />
    <glyph glyph-name="greater" unicode="&#x3e;" horiz-adv-x="574" 
d="M76 53v36l368 174l-368 174v38l408 -194v-33z" />
    <glyph glyph-name="less" unicode="&#x3c;" horiz-adv-x="574" 
d="M498 477v-36l-368 -174l368 -174v-38l-408 194v33z" />
    <glyph glyph-name="greaterequal" unicode="&#x2265;" horiz-adv-x="574" 
d="M78 98v37l364 150l-364 150v36l404 -170v-33zM78 0v33h404v-33h-404z" />
    <glyph glyph-name="lessequal" unicode="&#x2264;" horiz-adv-x="574" 
d="M496 471v-37l-365 -149l365 -151v-36l-404 170v33zM92 0v33h404v-33h-404z" />
    <glyph glyph-name="plusminus" unicode="&#xb1;" horiz-adv-x="574" 
d="M304 540v-201h186v-33h-186v-201h-34v201h-186v33h186v201h34zM84 0v33h406v-33h-406z" />
    <glyph glyph-name="approxequal" unicode="&#x2248;" horiz-adv-x="574" 
d="M192 415c23 0 39 -4 103 -43c57 -34 78 -42 90 -42c19 0 33 11 54 57l30 -10c-25 -59 -44 -80 -78 -80c-23 0 -44 8 -103 43c-61 37 -78 41 -90 41c-19 0 -41 -10 -63 -57l-30 13c25 60 53 78 87 78zM105 186c25 60 53 78 87 78c23 0 39 -4 103 -43c57 -34 78 -42 90 -42
c19 0 33 11 54 57l30 -10c-25 -59 -44 -80 -78 -80c-23 0 -44 8 -103 43c-61 37 -78 41 -90 41c-19 0 -41 -10 -63 -57z" />
    <glyph glyph-name="asciitilde" unicode="~" horiz-adv-x="538" 
d="M174 368c23 0 39 -4 103 -43c57 -34 78 -42 90 -42c19 0 33 11 54 57l30 -10c-25 -60 -44 -80 -78 -80c-23 0 -44 7 -103 43c-61 36 -78 41 -90 41c-19 0 -41 -10 -63 -57l-30 13c25 60 53 78 87 78z" />
    <glyph glyph-name="logicalnot" unicode="&#xac;" horiz-adv-x="538" 
d="M445 373v-167h-35v134h-325v33h360z" />
    <glyph glyph-name="asciicircum" unicode="^" horiz-adv-x="538" 
d="M291 740l172 -344h-39l-153 308l-154 -308h-38l174 344h38z" />
    <glyph glyph-name="emptyset" unicode="&#x2205;" horiz-adv-x="852" 
d="M426 729c97 0 186 -38 252 -101l84 84l21 -22l-83 -83c58 -66 94 -153 94 -252c0 -213 -168 -374 -368 -374c-96 0 -186 37 -252 100l-84 -84l-21 22l84 84c-59 66 -95 153 -95 252c0 213 168 374 368 374zM91 355c0 -90 32 -170 85 -229l480 480c-61 58 -142 92 -230 92
c-182 0 -335 -147 -335 -343zM197 104c60 -58 141 -92 229 -92c182 0 335 147 335 343c0 90 -32 169 -84 229z" />
    <glyph glyph-name="infinity" unicode="&#x221e;" horiz-adv-x="991" 
d="M54 316c0 124 89 208 201 208c103 0 166 -55 241 -172c66 111 145 171 241 171c112 0 201 -83 201 -205c0 -124 -89 -208 -201 -208c-103 0 -166 55 -241 172c-66 -111 -145 -171 -241 -171c-112 0 -201 83 -201 205zM95 316c0 -116 88 -168 161 -168
c81 0 159 62 214 168c-68 127 -137 171 -214 171c-72 0 -161 -53 -161 -171zM522 318c68 -127 137 -171 214 -171c72 0 161 53 161 171c0 116 -88 168 -161 168c-81 0 -159 -62 -214 -168z" />
    <glyph glyph-name="integral" unicode="&#x222b;" horiz-adv-x="557" 
d="M450 744c28 0 56 -6 77 -14v-39c-33 11 -53 14 -74 14c-75 0 -83 -37 -101 -133l-106 -572c-24 -130 -59 -174 -147 -174c-25 0 -50 4 -69 14v39c16 -9 48 -15 65 -15c66 0 89 34 110 146l105 573c22 121 50 161 140 161z" />
    <glyph glyph-name="product" unicode="&#x220f;" horiz-adv-x="722" 
d="M682 730v-40h-104v-801h-44v801h-345v-801h-44v801h-105v40h642z" />
    <glyph glyph-name="summation" unicode="&#x2211;" horiz-adv-x="650" 
d="M599 730v-40h-487l311 -380l-327 -380h520v-40h-579v35l333 386l-313 383v36h542z" />
    <glyph glyph-name="radical" unicode="&#x221a;" horiz-adv-x="551" 
d="M581 870l-284 -1030h-58l-136 432h-72v38h103l134 -431l270 991h43z" />
    <glyph glyph-name="partialdiff" unicode="&#x2202;" horiz-adv-x="558" 
d="M290 744c174 0 232 -126 232 -321c0 -290 -91 -437 -265 -437c-126 0 -210 95 -210 243c0 204 101 294 244 294c83 0 166 -42 188 -111c2 156 -32 294 -196 294c-55 0 -96 -14 -144 -47l-18 31c54 40 107 54 169 54zM91 230c0 -128 69 -206 169 -206
c126 0 208 103 218 338c-31 87 -112 123 -184 123c-118 0 -203 -73 -203 -255z" />
    <glyph glyph-name="percent" unicode="%" horiz-adv-x="723" 
d="M598 730l-453 -730h-41l453 730h41zM67 582c0 101 48 162 134 162c87 0 136 -61 136 -162c0 -99 -49 -162 -136 -162c-86 0 -134 63 -134 162zM101 582c0 -85 36 -131 100 -131c65 0 100 46 100 131c0 86 -35 131 -100 131c-64 0 -100 -45 -100 -131zM386 148
c0 101 49 162 135 162s135 -61 135 -162c0 -99 -49 -162 -135 -162s-135 63 -135 162zM421 148c0 -85 35 -131 100 -131c64 0 100 46 100 131c0 86 -36 131 -100 131c-65 0 -100 -45 -100 -131z" />
    <glyph glyph-name="perthousand" unicode="&#x2030;" horiz-adv-x="1033" 
d="M831 310c87 0 136 -61 136 -162c0 -99 -49 -162 -136 -162c-86 0 -135 63 -135 162c0 101 49 162 135 162zM67 582c0 101 48 162 134 162c87 0 136 -61 136 -162c0 -99 -49 -162 -136 -162c-86 0 -134 63 -134 162zM101 582c0 -85 36 -131 100 -131c65 0 100 46 100 131
c0 86 -35 131 -100 131c-64 0 -100 -45 -100 -131zM104 0l453 730h41l-453 -730h-41zM386 148c0 101 49 162 135 162s135 -61 135 -162c0 -99 -49 -162 -135 -162s-135 63 -135 162zM421 148c0 -85 35 -131 100 -131c64 0 100 46 100 131c0 86 -36 131 -100 131
c-65 0 -100 -45 -100 -131zM731 148c0 -85 36 -131 100 -131c65 0 100 46 100 131c0 86 -35 131 -100 131c-64 0 -100 -45 -100 -131z" />
    <glyph glyph-name="lozenge" unicode="&#x25ca;" horiz-adv-x="523" 
d="M282 730l187 -365l-187 -365h-41l-187 365l187 365h41zM92 365l170 -334l169 334l-170 333z" />
    <glyph glyph-name="uni0326" unicode="&#x326;" horiz-adv-x="0" 
d="M241 -59v-5l-156 -126h-46l154 131h48z" />
    <glyph glyph-name="dieresis" unicode="&#xa8;" horiz-adv-x="410" 
d="M145 625c-18 0 -32 14 -32 32s14 32 32 32s32 -14 32 -32s-14 -32 -32 -32zM233 657c0 18 14 32 32 32s33 -14 33 -32s-15 -32 -33 -32s-32 14 -32 32z" />
    <glyph glyph-name="dotaccent" unicode="&#x2d9;" horiz-adv-x="320" 
d="M160 623c-19 0 -34 15 -34 34s15 34 34 34s34 -15 34 -34s-15 -34 -34 -34z" />
    <glyph glyph-name="grave" unicode="`" horiz-adv-x="410" 
d="M89 750v3h55l168 -149v-3h-45z" />
    <glyph glyph-name="acute" unicode="&#xb4;" horiz-adv-x="410" 
d="M325 750l-178 -149h-45v3l168 149h55v-3z" />
    <glyph glyph-name="hungarumlaut" unicode="&#x2dd;" horiz-adv-x="410" 
d="M237 750l-173 -150h-41v3l164 150h50v-3zM192 600v3l164 150h50v-3l-173 -150h-41z" />
    <glyph glyph-name="circumflex" unicode="&#x2c6;" horiz-adv-x="410" 
d="M224 753l118 -152h-43l-95 123l-94 -123h-42l117 152h39z" />
    <glyph glyph-name="caron" unicode="&#x2c7;" horiz-adv-x="410" 
d="M186 600l-118 152h43l95 -122l94 122h42l-117 -152h-39z" />
    <glyph glyph-name="breve" unicode="&#x2d8;" horiz-adv-x="410" 
d="M205 588c-109 0 -131 76 -129 165h34c-1 -73 13 -135 95 -135s96 62 95 135h34c2 -89 -20 -165 -129 -165z" />
    <glyph glyph-name="ring" unicode="&#x2da;" horiz-adv-x="410" 
d="M143 680c0 -34 25 -53 62 -53s62 19 62 53s-25 53 -62 53s-62 -19 -62 -53zM109 680c0 52 44 80 96 80s96 -28 96 -80s-44 -80 -96 -80s-96 28 -96 80z" />
    <glyph glyph-name="tilde" unicode="&#x2dc;" horiz-adv-x="410" 
d="M137 699c18 0 32 -5 72 -24c29 -14 51 -22 61 -22c16 0 23 9 27 41l30 -3c-7 -51 -21 -71 -54 -71c-17 0 -39 7 -72 24c-35 18 -51 22 -61 22c-16 0 -23 -9 -27 -41l-30 3c7 51 21 71 54 71z" />
    <glyph glyph-name="macron" unicode="&#xaf;" horiz-adv-x="410" 
d="M326 675v-32h-241v32h241z" />
    <glyph glyph-name="cedilla" unicode="&#xb8;" horiz-adv-x="400" 
d="M218 1l-31 -45c63 -6 100 -29 100 -79c0 -57 -56 -81 -117 -81c-14 0 -32 2 -47 6v29c15 -5 31 -7 43 -7c53 0 83 20 83 52c0 37 -35 55 -103 53v16l38 56h34z" />
    <glyph glyph-name="ogonek" unicode="&#x2db;" horiz-adv-x="410" 
d="M279 0c-49 -26 -94 -75 -94 -122c0 -38 24 -50 55 -50c16 0 31 3 45 10l-2 -31c-19 -7 -37 -11 -56 -11c-41 0 -80 18 -80 75c0 61 50 110 107 145z" />
    </font>
</defs>
</svg>
